<?xml version="1.0" encoding="utf-8"?>
<!-- Generator: Adobe Illustrator 24.0.3, SVG Export Plug-In . SVG Version: 6.00 Build 0)  -->
<svg version="1.1" id="Layer_1" xmlns="http://www.w3.org/2000/svg" xmlns:xlink="http://www.w3.org/1999/xlink" x="0px" y="0px"
	 viewBox="0 0 1152 1440" style="enable-background:new 0 0 1152 1440;" xml:space="preserve">
<style type="text/css">
	.st0{fill:#FFFFFF;}
</style>
<g id="uxkMfq.tif">
	<g>
		<path class="st0" d="M516.8,995.2c0-223.4,0-445.9,0-669.2c-34,0-67.8,0-102.9,0c10.6-13.1,20.3-25.2,30.2-37.5
			c-9.9-12.2-19.7-24.3-30.1-37.2c34.8,0,68.5,0,102.8,0c0-8.6-0.1-16.7,0-24.8c0.1-6.1,4.3-10.6,10-11.3c6.5-0.8,11.9,2.4,13.7,8.3
			c0.6,2,0.5,4.3,0.5,6.4c-0.1,30.1-0.3,60.3-0.3,90.4c0.1,88.4,0.2,176.8,0.3,265.2c0.1,107.9,0,215.8,0,323.6
			c0,26.9,0,53.9,0,80.8c0,1.5,0,3,0,5.1c164.8,0,329.3,0,493.7,0c0.4,0.5,0.9,1,1.3,1.4c-1,0.4-2.2,0.6-3.1,1.2
			c-51.3,39.5-102.6,79.1-153.8,118.6c-5.5,4.3-11.2,8.4-16.7,12.7c-6.9,5.6-14.7,7.9-23.5,7.9c-41.7-0.1-83.3,0-125,0
			c-126.8,0-253.6,0-380.4-0.1c-46.7,0-93.3,0-140,0.1c-16.6,0-28.2-7.8-34.4-23.1c-14.1-35.1-28.1-70.3-42.1-105.5
			c-3.2-7.9,0.3-13.2,8.9-13.2c13.3,0,26.6,0.5,39.9,0.5c21.1,0,42.2-0.5,63.3-0.5c93.8-0.1,187.6,0,281.4,0
			C512.6,995.2,514.4,995.2,516.8,995.2z"/>
		<path class="st0" d="M568.5,296.1c14.5,16,29.3,31.8,43.5,48.1c33.8,39.1,63.5,81.2,90.1,125.5c19.8,33,37.9,66.8,53.7,101.8
			c10.6,23.4,21,47,30.5,70.9c21.2,53.6,39.5,108.2,54.1,164c7.7,29.4,15,58.9,21.8,88.5c5.9,25.9,10.8,52,16.2,78
			c0.3,1.6,0.5,3.2,0.8,5.1c-104.2,0-207.8,0-311.8,0c0-227.1,0-454.2,0-681.2C567.8,296.7,568.1,296.4,568.5,296.1z"/>
		<path class="st0" d="M489.9,978c-99.6,0-198.9,0-299.1,0c1.2-9,2.1-17.5,3.5-26c7.7-47,20-92.8,38.1-136.9
			c26.1-63.7,62.7-120.9,108.1-172.5C384,592.9,434,550.3,486.9,511c0.8-0.6,1.6-1.1,2.9-1.9C489.9,665.6,489.9,821.7,489.9,978z"/>
		<path class="st0" d="M268.6,1520.3c0,3.7,0,7.5,0,11.2c-0.2,0-0.5,0-0.7,0c0-3.7,0-7.5,0-11.2
			C268.1,1520.3,268.4,1520.3,268.6,1520.3z"/>
	</g>
</g>
</svg>
