<svg id="Layer_1" data-name="Layer 1" xmlns="http://www.w3.org/2000/svg" viewBox="0 0 610.92 163.99"><defs><style>.cls-1{fill:#939a2f;}.cls-2{fill:#8e9626;}.cls-3{fill:#8a911d;}.cls-4{fill:#989f38;}.cls-5{fill:#9ba23f;}.cls-6{fill:#a0a648;}.cls-7{fill:#91982b;}.cls-8{fill:#9aa13d;}.cls-9{fill:#949b31;}.cls-10{fill:#8c9422;}.cls-11{fill:#aeb363;}.cls-12{fill:#aab05c;}.cls-13{fill:#bbbf7c;}.cls-14{fill:#c4c88e;}.cls-15{fill:#bdc280;}.cls-16{fill:#8d9524;}.cls-17{fill:#9ea443;}.cls-18{fill:#a2a84d;}.cls-19{fill:#9ca341;}.cls-20{fill:#b3b86c;}</style></defs><title>bronzeocean</title><g id="OUvOJy.tif"><path class="cls-1" d="M.1,439.6v-8c1.8-1.7,3.9-1.6,6.1-.9,9.9,3.6,20.2,4.8,30.8,5.2,14.3.6,28.2,4.4,42.4,5.8,16.8,1.7,33.8,3.1,50.7,1.3,20.8-2.2,41.7-3.3,62.5-5.1,9.6.5,19.2.7,28.8,2a62,62,0,0,0,26.1-1.8,69.39,69.39,0,0,1,41.1.3c11.2,3.5,22.5,2.6,33.9.2,13.9-3,28-4,41.3,3.1,6.2,3.4,13.2,3,20,3.1,13.8,1,27.5-.7,41.1-2.5a29.31,29.31,0,0,0,8-2.8,54.53,54.53,0,0,1,32.1-4.1,246.32,246.32,0,0,0,33.2,2.7c9.4,1.6,18.1,6.1,28,6.1,6.6,0,12.7-1.5,18.9-3.5,2.2-.7,4.3-1.9,6.6-.5,1.4,3.3-.9,4.6-3.3,5.5-6.5,2.4-13.1,4.8-20.3,4.5-3-.1-4.8,1.2-6.9,3.6-6.4,7.5-14.3,12.7-24.9,13.3s-21.1,1.7-31.1,5.6c-11.8.7-23.5,1.5-35.3,2.5-21.6,2-43.1-1.4-64.7-1.8-13.4-.3-26.9-1.3-40.1,3.1-7.9,2.6-16.1,2-24.3,1.4-4.4-.3-8.4-2.3-11.9-4.8-7.8-5.6-16.5-5.6-25.3-4.1a47.32,47.32,0,0,0-8.1,2.5c-12.1,4.4-24.4,5.7-36.6,1.4-13.6-4.7-27.1-4.4-40.7-.7a20.17,20.17,0,0,1-5.4.8c-18.1-.2-36.2,2.3-54.3,1a343.59,343.59,0,0,0-41.8-.9c-3.3.2-6.2-1.3-9.1-2.3-8.6-3.1-17.4-1.2-26.1-1.5-8.4-.3-16.7,1.3-25,.9-6.1-.3-7.8-2-8.1-8.3q-.3-6.75,0-13.5c.1-4.2-.6-7.3-5.6-7.5A3.51,3.51,0,0,1,.1,439.6Z" transform="translate(0.1 -348.13)"/><path class="cls-2" d="M.1,439.6c12.2-.2,9.9,1.2,10,10.1.1,4.7.2,9.3,0,14-.1,3.7,1.5,5.1,5.1,4.9,3-.2,6,.1,9-.1,2.6-.1,4.9.7,7.2-2.8,2.4-3.8,2.4,4.8,6.4,3,4.3-1.9,9.2-.8,13.8-1.2a41.81,41.81,0,0,1,17.6,2.4c4.3,1.6,8.4,1.7,12.7,1.6,19.5-.6,38.9,1.5,58.3,1.1,11.3-.2,22.5-1.4,33.8-1.2,5.4.1,10.7-2,16-3.1,11.4-2.4,21.7,1,32.2,4,7.9,2.2,15.7,1.6,23.6.5,5-.7,9.5-2.9,14.2-4.4a39.28,39.28,0,0,1,24.9.3,4.07,4.07,0,0,1,2.2,1c11.6,10.4,25.2,8.3,38.2,5,14.5-3.6,28.8-2.7,43.4-2.4,17.3.4,34.5,2.7,51.7,2.1,15-.5,30-3,45.1-2.7,15.4-3.6,30.9-6.2,46.8-3.3,5.4,1,11,1,16.4,1.1,15.5.1,30.7,3,46.3,2.6,9.9-.3,19.9,1.4,29.8-.1a6.27,6.27,0,0,1,5.5,1.7v26.9c-1.7,1.7-3.9,1.9-6,1.8-8-.1-15.9-.2-23.9-.6-13.8-.7-27.6-1.5-41.3-1-11.5.4-22.9.1-34.4.7-20.6,1.1-41.2.4-61.8,1.2-10.8.4-21.6,1.1-32.3-.2a15.26,15.26,0,0,1-3-.3c-22.2-6.6-44.6-.9-66.9-1.6-14.9,4.4-30.3,4.3-45.5,4.2-12.4,0-24.9,0-37.4-.7-13.3-.8-26.5-1.5-39.7.9a89.8,89.8,0,0,1-39.6-1.3,100.49,100.49,0,0,0-10.8-1.6c-7.5-2-15.2-.9-22.8-1-8-.1-13.7-3.9-18-10.1a7.44,7.44,0,0,0-3.3-2.8c-2.1-.9-3.7-2.3-4.1-4.6-.7-4.1-3.5-4.4-6.7-3.9-3.8.6-7,.1-10-2.8s-15.7-3.2-19.3-1c-.6.4-1.2.7-1.2,1.4,0,1,.8,1.3,1.6,1.6,1.9.7,3.9.8,5.8,1.3,4.6,1.1,5.8,3,5.8,8.4s-1.8,8.5-5.6,9.4c-4.3,1-7.9-.6-9.7-4.8-1.1-2.6-2.4-4.5-5.1-5.6-3.2-1.3-3.9-4.4-3.8-7.5.1-3.6-1.6-5.2-5.1-6.1a44.23,44.23,0,0,0-18.8-.7c-9.5,0-18.7,2.2-28.1,2.9-6.5.5-13.2.6-19.4-2.4C.1,462.2.1,450.9.1,439.6Z" transform="translate(0.1 -348.13)"/><path class="cls-3" d="M166.9,500.5c8.5-1,16.2,2.8,24.5,3.5,10.3.8,20.4.6,30.5-1.9a19.43,19.43,0,0,1,5.4-.5c19.6.3,39.2.3,58.8,1.1,11.8.5,23.5-.9,35.2-.2,3.9.2,7.5-1.4,11.1-2.3,6.4-1.6,12.9-1.1,19.3-1.7,11.2-1,22.5-.4,33.7-1.7a32,32,0,0,1,12.3,1.1c14.3,4.1,28.7,4.5,43.3,2.7a20.44,20.44,0,0,1,3.5,0c28.9.7,57.9-.7,86.8-1.4,15.8-.4,31.5.6,47.2.7,10.6,0,21.2.3,31.8.7,0,3.7,1.4,8.7-.4,10.6s-6.9.4-10.6.4H7.9c-8,0-8,0-8-8,1.8-1.8,4.2-1.8,6.5-1.9,15.1-.2,30.1.6,45.1-1.9,3.7-.6,7.6.6,11.4.2a79.66,79.66,0,0,0,10.9.6c22.4,0,44.8.2,67.2-.2C149.7,500.3,158.3,499.5,166.9,500.5Z" transform="translate(0.1 -348.13)"/><path class="cls-4" d="M192.9,439.6c-17.7,2.2-35.6,2.7-53.4,4.7-12.3,1.4-24.7,2.6-37.2.5-3.6-.6-7.3-.3-11-.2-8.7.4-17.2-1.3-25.6-3.1a157,157,0,0,0-33.5-3.7c-8,.1-15.3-2.7-23-3.6-2.9-.3-5.6-3.2-9.2-2.6v-16c1.8-1.7,4-1.3,6.1-1.1a42.85,42.85,0,0,0,20.8-3.3c11.7-5,24-6.8,36.3-1.3,13.1,5.9,26.2,5.9,39.8,1.8,14.4-4.3,28.6-3.6,42.1,3.5,6.4,4.6,13.7,4.2,21,3.5.6-.1,1.3-.4,1.9-.5,2.1-.1,4.5-.6,5.9,1.5,1.2,1.7.5,3.5-.6,5.1a5.52,5.52,0,0,1-6,2.5c-1.8-.4-3.5-1.1-5.3-1.4a13.06,13.06,0,0,0-3.9-.5c-1.3.1-3,0-2.9,1.9.1,1.6,1.7,1.3,2.8,1.3a12.76,12.76,0,0,0,3.4-.6c4.4-1,8-.2,9.9,4.2,1,2.2,2.7,2.6,4.9,2.6,3.6,0,7.3-.3,10.9.2C190,435.6,192.9,435.9,192.9,439.6Z" transform="translate(0.1 -348.13)"/><path class="cls-5" d="M144.9,416.7c-3-1-6-1.9-8.9-3.1-10.9-4.8-21.8-2.7-32.6,0-9.2,2.3-18.3,4-27.9,2.3a53.18,53.18,0,0,1-13.1-4.4c-9.6-4.4-18.9-2.7-28.6-1-5.3.9-9.2,4.7-14.6,5.5-6.6,1-12.8.2-19.2-.3V385.8a6.69,6.69,0,0,1,6-1.6c6.2.7,12.5,1,18.5,3.6,10.7,4.7,21.8,4.3,32.7,1.3a84.34,84.34,0,0,1,38-2c11.6,2.1,23.1,1.8,34.7,1.9,2,0,4-.1,6,.1,4.6.6,9.3.2,13.9.2,4.3.1,8.6.3,12.9.8,4.5.5,6.7,2.6,6.7,6.9,0,9.1,0,8.9,9.9,8.8,5.4,0,10.6-.1,14.7,4.5,1.3,1.5,3.6,1.5,5.7,1.4,12.6-.1,25.3.5,37.9-.3,2.5-.2,6.1-1.1,6,3.5-2.1,1.8-4.7,1.5-7.1,1.6-9.1.1-18.3.2-27.4,0-14.1-.4-28.2.8-42.2,2.3C159.5,419.6,152.1,419.3,144.9,416.7Z" transform="translate(0.1 -348.13)"/><path class="cls-6" d="M136,390.7c-15.4,0-30.7,0-46-2.6a68.89,68.89,0,0,0-30.5,2.2c-11.3,3.3-22.9,4.3-34.1-.5-8.1-3.4-16.6-3.9-25.2-4.1v-13a7,7,0,0,1,5.5-1.8c6,.3,11.9-1,17.7-2.2a94.73,94.73,0,0,1,35.6-.6,54.61,54.61,0,0,0,11.4.7,192.21,192.21,0,0,1,27.3,1.5c10.4,2.4,20.8,4.2,31.5,2.1a1.73,1.73,0,0,1,1-.1c8.6,2.5,17.4,1.6,26.2,2,1.3.1,3.2.8,2.8,2.3-1.2,4.4,1.9,3.1,3.8,3.2a24.09,24.09,0,0,0,6,0c6-1,11.2.2,15.2,5.2,1.3,1.6,3.1,1.8,5,1.8,3.8.1,7.7.4,11.5.2,18.3-.9,36.6.4,54.9-.1,6.7-.2,13.2,1.2,19.9,1.2,1.8,0,4.5-.3,4.1,3.1-2.2,1.6-4.7,1.4-7.2,1.4-10.3.1-20.7.3-31,0-16.3-.5-32.6,1-48.9,1.1-7.2,0-14.5,0-21.3-1.5-10.4-2.3-20.8-1.6-31.2-1.9C138.5,390.2,137.2,389.9,136,390.7Z" transform="translate(0.1 -348.13)"/><path class="cls-7" d="M610.5,473.5c-6.4.3-13,1.6-19.3.8-15.5-1.8-31.1.6-46.6-2.5-7.5-1.5-15.4-.6-23.2-1-9.4-.4-18.7-2.8-28.2-2.4a80.9,80.9,0,0,0-17.7,2.2,33,33,0,0,1-9.9.9c3.3-2.9,7.7-3.1,11.6-3.6,4.9-.7,9.8-2.2,14.6-2,6.4.2,11.8-2.6,17.8-3.4a2.27,2.27,0,0,0,2.2-1.7c.7-3,2.6-4.2,5.5-4.7a3.64,3.64,0,0,0,3-3.6c0-4,2.5-4.2,5.3-3.8,8.1,1,15.4-2.6,23-4.3a3.89,3.89,0,0,0,2.9-3.7c.3-2.6,2.4-2.6,4.1-2.6,15.1-.4,30.1-2.4,45.2-3.1,3.5-.2,7.1-.2,9.7,2.8Z" transform="translate(0.1 -348.13)"/><path class="cls-6" d="M610.5,373.7v11c-1.9,1.8-4.2,1.8-6.5,1.7a32.38,32.38,0,0,0-14.1,2.5c-13.8,5.9-27.7,5.9-41.8,1.3-1.6-.5-3.2-.8-4.8-1.3a19.08,19.08,0,0,0-9.2-1.6,104.92,104.92,0,0,1-19.4-.6c-15.3-2.1-30.4-2.6-45.1,3.5-3.4,1.4-7.2,1.3-10.8,1.1-9-1-17.7,1.1-26.6,1.7-12.2.8-24.1.4-35.4-4.7-2-.9-4-1.6-5.1-3.6.4-3.6,2.9-2.4,4.8-1.9,5.6,1.5,11.3,2.8,16.8,4.4,5.7,1.7,11.2.5,16.7-.5,3-.5,4.2-4.1,7.6-5.1,6.2-1.8,12.5-1.3,18.7-1.8-1.1-4.2.2-6.8,4.4-7.4,3-.5,5.4-1.7,8.1-2.8,3.7-1.5,8.1-.7,12.1-1.4,5.9-1.1,11.8.4,17.7.2,17,7,34.6,4.7,52,3a92,92,0,0,1,25.7,1.3c9.9,1.8,19.6,3.2,29.5.4C607.4,372.7,609,372.5,610.5,373.7Z" transform="translate(0.1 -348.13)"/><path class="cls-8" d="M543.5,387.7a14.59,14.59,0,0,1,5.8,1.1c12.9,4.1,25.6,4.6,38.2-1,7.4-3.3,15.1-3.4,22.9-3.1v27.9a6.29,6.29,0,0,1-5,1.7,62.86,62.86,0,0,0-22.8,3c-6.1,1.3-12.2,2.8-18.5,2.8-5.2,0-10.3-.2-15.1-2.1-10.1-4-20.7-3.6-31.3-3.6-3.3,0-6.7.6-9.8-1.1-1.5-3.5,1.7-3,3.1-3.1,5.3-.2,10.5-1.4,15.9-1.2,2.9.1,10.6-5.4,11.4-8a3.8,3.8,0,0,0-1.7-4.7c-2.2-1.4-4.9-2.9-3.2-6.2,1.6-3.1,4.4-3.7,7.7-2.9C542,387.4,542.9,387.1,543.5,387.7Z" transform="translate(0.1 -348.13)"/><path class="cls-9" d="M582.5,415.7c9-3.6,18.5-3.1,28-3v25c-9.2-2-18.3-.4-27.5.6-8.5.9-17.1,1-25.7,1.4-1.9.1-4-.6-5.7,1-2.5-.3-4.4,1.3-6.6,2.1-12.5,4.2-25,4.4-37.4-.5-2.9-1.2-6.2-.9-9-2.5,5.6-2.9,11.4-2.4,16.7.1,5.6,2.7,11.3,2.5,17,2,3.7-.3,5-2.3,3.2-5.3-2.7-4.7-1.9-10.4-5.2-14.9-1.6-2.2.5-4,2.6-5,4.6-2.2,9-.8,13.5.6A52.8,52.8,0,0,0,582.5,415.7Z" transform="translate(0.1 -348.13)"/><path class="cls-10" d="M63,501.5c-21,.9-41.9,2.9-62.9,2V473.6c8.7-.5,17.4,2.4,26-.1,7.3-2.1,14.6-1.9,22-1.9,2.8,4.8,2.1,10.2,2.6,15.4.3,3.5.7,6,4.5,7.8C58.1,496.1,61.4,498.1,63,501.5Z" transform="translate(0.1 -348.13)"/><path class="cls-11" d="M98,371.8c-17.5-1-35.1-1.1-52.5-2.9A62.78,62.78,0,0,0,22.3,371c-7.4,2-14.8,1.8-22.2,1.9v-14c3.6-2.7,7.7-1.5,11.5-1.3a53.74,53.74,0,0,1,13.2,2.3,54.36,54.36,0,0,0,35.6-1.5c13.4-5.2,26.6-4.1,39.8.7,3.1,1.1,6.1,2.7,9.6,2.3,3.8.6,7.7.7,11.6,1.2,6.1,1.1,12.1,3.5,18.5,1.3,1.4-.5,3.8-.3,4,1,.8,6.9,5.6,3.1,8.1,2.6,3-.5,5.3-.7,7.8,1.2s5.8,2.1,9,2.6c2.5.3,5,.5,7.2,1.6,1.5.8,3.6,1.9.9,3.9a10.74,10.74,0,0,1-5.9-.1c-8.9-2.3-18-1.7-27.1-2.4C128.6,372.9,113.2,374.2,98,371.8Z" transform="translate(0.1 -348.13)"/><path class="cls-12" d="M610.5,373.7c-7.7,2.1-15.3,3.7-23.4,2.8-6.4-.7-12.7-2-19-3.1-8.9-1.4-17.5-.1-26.2.5-15.1,1.1-30,2.3-44.3-4.2a51.56,51.56,0,0,0-17.5-1.1c-1.8.2-3.6.7-5.3-.5-.9-1.8.5-2.7,1.6-3,4.3-1.1,8.3-2.5,13.1-1.7,6.1,1,11.9,3.2,18.5,2.3,6-.8,12.4.8,18.3,3.3,1,.4,2.5,1.6,3.2.7,3.9-4.7,9.7-2.4,14.4-4.2a120.06,120.06,0,0,1,23.2-1.4,30.94,30.94,0,0,0,16.3-3.6c5.7-3.2,12-3,18.1-3.7h9Z" transform="translate(0.1 -348.13)"/><path class="cls-13" d="M110,362.8c-6.8.8-12.3-3.5-18.6-4.8-11.2-2.3-21.9-1.7-32.6,2.6A46.44,46.44,0,0,1,31.5,363c-10.4-2.1-20.7-4.8-31.4-4.2v-3c10.8,1.4,21-2.1,31.5-3.5a53.37,53.37,0,0,1,6.9-.5c11.3,0,22.6.3,33.9-.1,9.4-.3,18.4.8,27.2,4.4a28.69,28.69,0,0,0,4.4.8C106.3,358.5,110,358.7,110,362.8Z" transform="translate(0.1 -348.13)"/><path class="cls-14" d="M190.9,349.7c9.1,0,18.3.1,27.4.1,10.4,0,20.9.5,31,3,8.3,2,16.9.3,25.2,1.9,6.8,1.3,13.8,1.4,20.7,2.4,9.7,1.4,18.5-.8,27.5-4.4,6.2-2.5,13.2-2.8,20-2.3,12,.8,23.8,4.2,36,3.4,9.7-.7,19.4-2,29.1-2.7,7.1-.5,14.3-.8,21.3.9,10.4,2.5,20.9,2.6,31.4,1.9h31.8c1.8,0,3.7-.5,5.2,1-5.4,1.6-10,5.4-15.9,5.7-3.6.2-6,2.4-8.3,4.7-11.8,3.7-23.7,3.2-35.4.3a90,90,0,0,0-23.7-2.9c-6.7.2-13.3-.2-20,.1-15,.6-29.9-1.1-44.9-1.1-9.7,0-19.2.3-28.7,2.5-12.9,3-25.8.7-38.8.1-15.3-.8-30.5-2-45.6-4.3-6.7-1-13.6-.4-20.4.5a267.8,267.8,0,0,1-35.8,2.2c-17.8-.1-35.5.2-53.3,1.6-1.6.1-3.3.5-4.9-.5-4-.1-8.1.4-12-1-1.5-2.5-4.8-3.2-6-5.9a68.51,68.51,0,0,0,21.2,0c5.2-.8,9.2-4.1,14.2-5.4,6.1-1.6,12.1-1.6,18.2-1.7,7.1-.1,14.3,0,21.4-.1h1.9A9,9,0,0,1,190.9,349.7Z" transform="translate(0.1 -348.13)"/><path class="cls-15" d="M473.6,363.8c1.3-4,4.6-4.8,8.2-5,2.6-.1,4.8-.1,6.8-2.7s5.9-1.1,9-1.4a197.53,197.53,0,0,0,27.7,2.1c25.4-.1,50.8,0,76.2,0-8.6.4-15.7,4.9-23.5,7.8a20.93,20.93,0,0,1-8.3,1.2c-8.8-.5-17.5.5-26.2,1-8.3,0-16.4,2.6-25,.3-10.5-2.8-21.7-2.4-32.5-3.7-1.5-.2-2.9.5-4.4.8C479,364.7,476.2,365.8,473.6,363.8Z" transform="translate(0.1 -348.13)"/><path class="cls-4" d="M144.9,416.7c3.6.3,7.2.6,10.9,1,9,.9,17.9-.9,26.7-2.3a80.82,80.82,0,0,1,10.9-.7h50.4c1.4-1.6,3.3-1.4,5.1-1.3,19,1.1,38.1,2.3,57.1,4.2,5.4.5,11-.4,16.3-1.4a102.76,102.76,0,0,1,33.2-.8c14.7,4.1,29.6,3.3,44.4,1.2,6.4-.9,12.9,0,19.4-1a58.63,58.63,0,0,0,14.4-3.7c13-5.7,26.4-6,40-2.8,2.2.5,4.7.7,6.1,3-.6,2.5-2.7,2.1-4.4,2.1a101.21,101.21,0,0,1-19.8-1.7c-6.4-1.2-7-.5-5.1,5.5,1.6,5-.8,9.6-5.8,9-8.2-1-12.7,4.5-16.2,9.4-4.4,6.2-10.4,6.3-16.4,7.8-7.8,2-15.8.6-23.6,1.5-1.6.2-3.3-.1-4.8,1a44.76,44.76,0,0,1-26.2-5.8c-4.3-2.4-9.8-2.4-15-2.3a103,103,0,0,0-24,2.9c-11.6,3-23.5,1.6-34.8-2.1-12.1-4.1-23.7-2.4-35.6.7a79.26,79.26,0,0,1-32.9,1.1c-7.3-1.2-14.8-1-22.3-1.4-1.5-2.4-3.8-3-6.4-3a81.55,81.55,0,0,0-9.9.1c-3.7.4-6-.1-6.8-4.5-.6-3.4-3.9-3.6-6.8-2.7a17.36,17.36,0,0,1-6.8,1.1c-1.9-.1-3.2-.6-3.2-2.8s.5-4,3.1-4.2a22.28,22.28,0,0,1,11.1,2.1c1.7.7,3.1,1.1,4.5-.4,1.1-1.2,2.4-2.7,1.9-4.4-.6-2.1-2.9-1.5-4.3-1.2a44,44,0,0,1-17.7,0A16,16,0,0,1,144.9,416.7Z" transform="translate(0.1 -348.13)"/><path class="cls-4" d="M383.7,446.6c4.4-3.5,9.8-3.6,14.5-2.7,6,1.2,11-1.4,16.5-1.9,2.3-.2,4.4-1.5,6.8-1.5.9,0,2.5-.6,2.6-1.1,1.1-5.8,8.1-6.5,9.7-11.7.5-1.7,2-2.1,3.6-2.1h4.5c2.6-.1,5.6.7,7.1-2.2,1.5-3.1.5-5.8-2-8-1-.8-1.5-1.9-.4-3,1.6-1.8,3.7-3.2,6.1-2.5,4.3,1.3,8.8,1.4,13.2,2,4.6.5,9.2.4,13.7.8a3,3,0,0,1,2-1.3,96.37,96.37,0,0,1,24,0,3.36,3.36,0,0,1,2,1.3c10.4.4,20.9-.7,31.4.9a57.83,57.83,0,0,1,8.9,2.6c11.2,3.7,22.1,3.2,33.1-.4a7.57,7.57,0,0,1,1.5-.1c-4.4,4.5-10.1,4.2-15.6,4.2-4.1,0-8.2-.7-12.2,1.1-3.2,1.4-5.9-1.3-8.6-2.5-4.2-1.9-8.4-2.5-12.6-.7-2,.8-4.5,2-.8,4.2.6.4,1.4,1.2,1.4,1.9.3,5.4,2.1,10.1,4.6,15,1.1,2.2-2.6,4.6-5.1,4.6-6.7,0-13.4,1.4-19.8-2.8-4.4-2.8-10.1-.6-15.2-1-15,1.5-29.6-2.6-44.4-3.1-9-.3-16.8,3.2-24.7,6.5-4.8,2-9.7,1.9-14.6,2.4A216.5,216.5,0,0,1,383.7,446.6Z" transform="translate(0.1 -348.13)"/><path class="cls-16" d="M63,501.5c-5.3-.3-7.2-6.7-12.6-7-1.2-.1-1.3-1.7-1.4-2.9-.3-6.7-.7-13.4-1-20.1,7.8-2.6,15.4-.4,22.9,1.6,3,.8,2.1,3.8,2.1,6-.1,4,.2,7.4,5.5,7.5,2.1.1,2.3,1.9,2.6,3.6,1.1,5.3,3.1,6.8,8.3,6.2,4.7-.5,4.3-4.1,4.7-7.4.5-5-.8-7.7-6.5-7.9-2.8-.1-8,.5-8-3.9,0-4.6,5.2-3.8,8.2-4.5,4.9-1.2,9.8.7,14.8.9.5,0,1.2.3,1.3.6,2,6.3,6.7,3.6,10.6,3.3s7.1,0,6.6,5.3c-.2,2.1.8,3.5,3.1,3.6,1.2.1,2.9.1,3.1,1.1,1.1,4.9,5.3,6.4,8.7,9.1,2.4,1.9,4.4,2.9,7.3,2.9,6.3-.1,12.6,0,18.9,0,1.6,0,3.4-.4,4.7,1-32.3,1.4-64.7,2.8-97.1,2C67.5,502.4,65.1,502.8,63,501.5Z" transform="translate(0.1 -348.13)"/><path class="cls-16" d="M166.8,475.6c-.3,2-1.3,2.9-3.1,2.8a2.53,2.53,0,0,1-2.7-2.9,2.57,2.57,0,0,1,3-2.6A2.65,2.65,0,0,1,166.8,475.6Z" transform="translate(0.1 -348.13)"/><path class="cls-17" d="M355.7,416.7c-15.4-1.6-30.5.9-45.8,2.7-5.8.7-11.9,0-17.8-1-11.6-2-23.4-1.7-35.1-2.6-4.4-.3-8.8-1.2-13.3-1.2-1-2-2.8-2.1-4.7-1.9-13.9,1.9-27.8.4-41.7.8-1.9.1-4.4-.3-5-1.7-2.5-5.7-7.3-4.2-11.5-4.2-12.1-.1-12.2,0-12.9-11.8-.2-2.9-1.4-3.8-4.2-4.3-9.3-1.5-18.5-.7-27.8-.9,1.7-1.6,3.8-.9,5.7-1,21.4-1,42.7,3.2,64,1.8,24.7-1.6,49.4-.3,74.1-.9,1.7-1.9,4.1-1.2,6.1-1.7,9.8-.5,19.6.5,29.3-1,3.6-.6,7.2-1.4,10.7-2.2,4.2-1,8.4-2.1,12.8-1.9,11.2.6,22.2-1.4,33.2-2.6a55.66,55.66,0,0,1,12.9-.1c2.4.3,5,.4,6.8,2.6,11.7,7.5,24.8,8.9,38.2,7.8,9.6-.8,19.1-1.8,28.7-1.8-.4,2.8-2.8,2.5-4.6,2.7-3.8.3-5.5,2-5.7,6-.6,11.3-1.5,11.9-12.9,10-4.4-.7-8.6-1-10.8,4.4-1.6,3.9-6,3.8-9.1,3.8-9.6-.2-19.2,1.6-28.8.1a13,13,0,0,0-5.9.3C372.4,419.5,364.1,416.8,355.7,416.7Z" transform="translate(0.1 -348.13)"/><path class="cls-18" d="M285.8,390.7h-6c-1-1.1-2.4-.9-3.7-1-18.6-1.3-37.2-.6-55.7-1.1-10.6-.3-21.1.7-31.6.2-2.8-.1-4.9-.5-6.7-3.2-2.3-3.4-5.3-5.3-10.1-4.1-3.9,1-8.3.2-12.4.2-2,0-4.5.1-5.1-2.1-.6-2.9,3.1-.9,3.8-2.8-.9-1.8-2.6-.9-3.9-1-7-.5-14.3,1.2-21.1-1.9-1.6-.7-3.6.1-5.4.3a73.14,73.14,0,0,1-29.8-2.5c26.7.2,53.4-.6,79.9,4,1.3-1.6,3.2-1.8,5-1.8,10.7.3,21.1-1.1,31.6-2.7,9.1-1.4,18.6-.4,27.8-.3,6.8.1,13.6-.8,20.3.7,2.1.8,2.7,2.8,3.1,4.7.8,3.6,3.1,5.3,6.7,5C279.7,380.7,282.6,385.9,285.8,390.7Z" transform="translate(0.1 -348.13)"/><path class="cls-1" d="M531.8,461.5c-1.8-.1-3.1-.7-3.1-2.5a2.34,2.34,0,0,1,2.6-2.3c1.7,0,2.9.7,2.9,2.5C534.3,460.7,533.1,461.3,531.8,461.5Z" transform="translate(0.1 -348.13)"/><path class="cls-18" d="M285.8,390.7c-2.5-2-5.8-2.8-6.9-6.5-.6-2-2.6-1.2-4.3-1.2-8.6.1-10.2-1.4-10.8-10.3,4.7-3.1,9.5-1.9,14.3-.3,5.3,4.6,5.3,4.6,11.7,1,13.6-.2,27.1-2.7,40.7-3.2,12.4-.5,24.3-3.3,36.5-4.8a60.3,60.3,0,0,1,13.4-.4c8.5,1.1,16.9.7,25.4.8a85.41,85.41,0,0,1,25.5,4c11.6,3.7,23.3,2.8,34.7-1.5,2.7-1,5.4-2.9,8.5-.7,5.7-1,11.4,0,17.1,0,2.2,0,4.3.2,5.9,2-4.7,1.5-9.1-1.3-14.1-.3-4,.8-8.4,2.3-12.7.7-3.1,4.7-9,2.5-12.9,5.1-2.1,1.4-1.8,2.5.5,3.3.9.3,2,0,2.8,1.4a9.43,9.43,0,0,1-6.3,1.9c-6.3-.2-12.5,0-18.6,2-.9.3-2.4.2-2.3,1.4.6,4.7-2.8,3.1-5.2,3.7-12.1,2.9-23.1-1.8-34.2-5.1a4.12,4.12,0,0,0-2.9.1c-19.1-3.5-37.7,3.4-56.8,2.2-6.8-.4-13.4,3-20.4,3.9C304.9,391.2,295.4,390.3,285.8,390.7Z" transform="translate(0.1 -348.13)"/><path class="cls-19" d="M355.7,416.7c9.1-1.9,18.3-.6,27.5-1.5,9.9-.9,20.2.4,30.3.5a19.34,19.34,0,0,0,6.8-1c1.8-.7,3.3-1.4,3.4-3.7.1-3.7,3.3-5,5.9-4.8,3.3.3,6.8-.5,10,1.7s6.7,0,7.1-3.8v-.5c.4-3.6-1.3-7.6.9-10.7,2.5-3.5,6.9-1.3,10.3-2.4.3-.1.5-.4.8-.6,7.8,1.4,14.6-2.6,21.6-4.6,8.9-2.4,17.9-1.9,26.6-1.1a276,276,0,0,0,28.7,1.6c2.8,0,5.6.1,8,2-2.3.1-4.6-.4-6.8.9-1.3.8-2.9,1.4-2.8,3.2a3,3,0,0,0,3,2.8c2.8.1,3.8,1.4,3.5,4.1-.2,2.5.8,5.6-3.2,6.1-1.2.2-2.4.7-2.5,2-.5,4.5-3.4,4.2-6.8,4.1a82.53,82.53,0,0,0-20.4,1.9h-28c-14.3-4.5-28.7-6.5-42.9,0a51.89,51.89,0,0,1-21,4.8c-15.4.2-30.6,3.7-46,2.1C364.9,419.1,360.4,417.7,355.7,416.7Z" transform="translate(0.1 -348.13)"/><path class="cls-20" d="M278.8,373.8c-4.9-1.2-10-1-15-1-10.6,0-21.3.1-31.9-.1a154.92,154.92,0,0,0-31.1,2.6c-7.4,1.4-15.2.4-22.9.4-2.5-3.2-6.3-2.1-9.5-3-3.9-1.1-8.6-.1-11.3-4.5-.6-1-2.2-.8-3.2-.1-4.8,3.2-9.5,1.5-14.3.3.2-2.8,3.2-.8,4-3.8-7.6,2.6-14.7,1.5-21.6-.9,22.7-3.6,45.7-2.8,68.6-3.2,12.4-.2,24.7-1.9,37.1-2.8,12.2-.9,23.9,3,36,3.6,6.8.4,13.6.4,20.3,1,11.8,1.1,24,3.2,35.7.1,13.8-3.7,27.8-3.3,41.6-2.5,20.8,1.2,41.6.2,62.3.8,8,.2,15.4,3.9,23.4,4.6a81.81,81.81,0,0,0,26.6-1.6c5.6-.3,11.2-.7,16.8-1,9.8-.6,19.3,1.4,28.9,3.3,8,1.6,16.2.3,24.2.7-1.7,1.6-3.8.8-5.7,1-1.7.1-3.9-.4-4.7.9-3.2,4.9-6.9,1.9-10.3.9-6.5-2-12.8-3.9-19.6-1.2a2.84,2.84,0,0,1-2.4-.1c-4-3.4-9.2-2.5-13.7-3.5-4.2-1-8.7.5-12.5,3-6.5.7-12,4.8-18.5,5.4-9.1.9-18.2,1.7-26.9-2.1a43.13,43.13,0,0,0-16.5-3.1c-13.4-.4-26.8-.5-40.2-1-5.8-.2-11.9,1.1-17.6,2.4a74.36,74.36,0,0,1-18.1,2.4c-8-.1-15.7,1.4-23.6,2.5s-16.2.4-24.4.6C285.2,376.9,281.9,376.1,278.8,373.8Z" transform="translate(0.1 -348.13)"/><path class="cls-18" d="M278.8,373.8c3.3.3,6.7.7,10,1C285.5,379.4,281.3,379,278.8,373.8Z" transform="translate(0.1 -348.13)"/></g></svg>