<svg id="Layer_1" data-name="Layer 1" xmlns="http://www.w3.org/2000/svg" xmlns:xlink="http://www.w3.org/1999/xlink" viewBox="0 0 602.07 645.93"><defs><style>.cls-1{fill:url(#linear-gradient);}.cls-2{fill:#fff;}</style><linearGradient id="linear-gradient" x1="301.04" y1="549.12" x2="301.04" y2="-6.34" gradientUnits="userSpaceOnUse"><stop offset="0" stop-color="#020202"/><stop offset="0.05" stop-color="#1c0202"/><stop offset="0.12" stop-color="#370101"/><stop offset="0.2" stop-color="#4d0101"/><stop offset="0.29" stop-color="#5e0000"/><stop offset="0.4" stop-color="#690000"/><stop offset="0.56" stop-color="#700000"/><stop offset="1" stop-color="#720000"/></linearGradient></defs><title>executioner</title><g id="hetA2J.tif"><path d="M131.41,639.59V629a4.78,4.78,0,0,1-.44.46c0,.36,0,.71-.07,1.06,0,.17,0,.34,0,.52a14.75,14.75,0,0,1-.21,6.33C130.93,638.13,131.17,638.86,131.41,639.59Z" transform="translate(0 6.34)"/><path class="cls-1" d="M45.59,461.85c1,23.5-.46,46.66-6.71,69.54-1.6,5.85-2.89,11.78-4.11,17.73h533c-3.33-10.68-6.26-21.51-9.86-32.1-2.68-7.9-2.86-13.52,6.13-17.46,5.93-2.6,10.89-7.36,16.46-10.87,7.83-4.94,10.24-11.26,7.84-20.51-5.37-20.65-5-20.73,13.77-32.17-29.14-14.28-42.3-40.51-53.88-68.12a30.21,30.21,0,0,0-9.41-11.7c-22.34-16.84-46.67-29.92-73.82-37.36-2.35-.65-4.5-2.07-6.68-3.25C447.86,310,438,302.82,426.91,299.06c-12.12-4.13-19.77-10.95-21.94-23.15-2.2-12.35-6.54-24.78.17-37.36,2-3.71,2-8.45,2.91-12.74,5.42-26.26,5.81-52.2,2.36-79.19-4.05-31.68-2.51-63.9-12.84-95C391.72,34,383.25,19.74,366.08,12.08,355.8,7.49,344.83,4.44,334.47,0c-21.54-9.23-42.24-8.36-63.17,2.43-19.12,9.85-41,16.25-52.83,35.68C206,58.52,195.76,80.29,184.75,101.58c-1.48,2.85-1.62,6.36-2.66,9.47-3.32,9.93-6.15,20.08-10.36,29.62S161.87,159.12,156,169.9c5.11,1.45,11.73,5.36,14,3.62,13.54-10.43,30.55-18.2,33.7-38.05.93-5.86,2.74-11.58,4.73-19.74,0,13.47.47,24-.1,34.37-1,18.1-.09,35.67,8.53,52.23,8,15.43,8.45,30.53-2.12,45.53-4.12,5.84-6.6,13-8.91,19.91-5.05,15-15.24,26.92-28.38,33.28-19.49,9.43-40.36,17.36-61.51,21.65-23.61,4.8-46,11.14-66.47,23.82-6.68,4.14-14.77,7.3-13.08,17.89.24,1.52-2.22,3.42-3.34,5.2-5.6,8.86-12.56,17.17-16.45,26.73C10.32,411.73,6.1,428,0,447H45.57C45.57,453.88,45.42,457.87,45.59,461.85ZM327.47,312.52l-6.07-9.26-3-1c2.61,9.95-1.54,10.48-8,9.22-14.06-2.74-32.9-18.61-33.51-31.72-.32-6.64,5.41-13.55,9.28-22.3,16.18,18.11,35.71,12.54,54.42,11.75l.11,3.35h-44.4l-.65,1.64c7.28,1.57,14.51,3.78,21.88,4.52,7.84.79,15.81.18,24.63.18ZM371.77,201c-13.32-2-22.57-7.78-27.92-19.39C353.32,187.13,367.13,186.37,371.77,201Zm-61.26,16.5,16.94,2.42c-.17,1.22-.33,2.43-.5,3.65-6.17,3.06-12.26,5.61-17.07-1.47Zm.95,11.28c1.08,3.06,2.06,5.86,2.94,8.33l21.45-1.33c-11.28,8.41-20.48,8.74-39.68,3.23Zm-15.81,20.63c.06-1.17,5.9-2.94,9.06-2.89,12.08.18,24.15,1,38.07,1.65L336,254l4.72,9.49c-12.12,1-23,2.25-33.9,2.63-2.84.1-7.08-1.74-8.35-4A24.39,24.39,0,0,1,295.65,249.43ZM284,167.1l-26.39-1.87C263.54,155.8,265.28,155.83,284,167.1Zm-29.36,7.67c8.66-4.67,17.45-5.37,25.29,1.07.86.7-2.75,6.86-4.5,11l12.68-3.44C286,193.83,272.24,203.74,262,202.15,253.9,200.91,253,197.41,254.66,174.77Z" transform="translate(0 6.34)"/><path class="cls-2" d="M340.68,272.6h-44.4c-.22.55-.44,1.1-.65,1.64,7.28,1.57,14.51,3.78,21.88,4.52,7.84.79,15.81.18,24.63.18l-14.67,33.58-6.07-9.26-3-1c2.61,9.95-1.54,10.48-8,9.22-14.06-2.74-32.9-18.61-33.51-31.72-.32-6.64,5.41-13.55,9.28-22.3,16.18,18.11,35.71,12.54,54.42,11.75Z" transform="translate(0 6.34)"/><path class="cls-2" d="M275.45,186.83l12.68-3.44C286,193.83,272.24,203.74,262,202.15c-8.08-1.24-9-4.74-7.32-27.37,8.66-4.68,17.45-5.38,25.29,1.06C280.81,176.54,277.2,182.7,275.45,186.83Z" transform="translate(0 6.34)"/><path class="cls-2" d="M336,254l4.72,9.49c-12.12,1-23,2.25-33.9,2.63-2.84.1-7.08-1.74-8.35-4a24.39,24.39,0,0,1-2.79-12.73c.06-1.17,5.9-2.94,9.06-2.89,12.08.18,24.15,1,38.07,1.65Z" transform="translate(0 6.34)"/><path class="cls-2" d="M296.17,239l15.29-10.23c1.08,3.06,2.06,5.86,2.94,8.33l21.45-1.33C324.57,244.21,315.37,244.54,296.17,239Z" transform="translate(0 6.34)"/><path class="cls-2" d="M343.85,181.63c9.47,5.5,23.28,4.74,27.92,19.39C358.45,199,349.2,193.24,343.85,181.63Z" transform="translate(0 6.34)"/><path class="cls-2" d="M257.63,165.23c5.91-9.43,7.65-9.4,26.39,1.87Z" transform="translate(0 6.34)"/><path class="cls-2" d="M310.51,217.52l16.94,2.42-.5,3.65c-6.17,3.06-12.26,5.61-17.07-1.47Z" transform="translate(0 6.34)"/></g></svg>