<svg id="Layer_1" data-name="Layer 1" xmlns="http://www.w3.org/2000/svg" viewBox="0 0 2024.12 1100"><defs><style>.cls-1{fill:#201b57;}</style></defs><title>eye</title><g id="zef5IT.tif"><path class="cls-1" d="M559,170h5c5.2,5,10.57,9.87,15.57,15.07,7.63,7.94,16,14.24,27.8,15.09-.3,4.72,3.43,5.16,7.21,5.08a5.68,5.68,0,0,0,3.68-1.86c3.19-3.58,7.53-6.95,8.79-11.19s3.77-6.53,7.28-9.59c1.46,2.49,2.71,4.56,3.91,6.66,4,7.07,7.82,14.29,12.19,21.14,1.5,2.35,4.23,4.2,6.79,5.52,10.19,5.21,20.51,10.19,30.85,15.11,2.62,1.24,5.5,2.73,8.26,2.74,17.64,0,35.28-.35,52.92-.62,3.4-.05,6.33-.74,5.19-6,4.83,1,9.11,1.59,13.08,3,1.35.48,1.75,3.26,2.9,4.76a8.25,8.25,0,0,0,3.18,2.32c3.19,1.38,6.42,2.72,9.72,3.81,34.37,11.32,68.94,22.07,103.06,34.09,19.4,6.82,38,15.85,57.12,23.57,6.72,2.72,13.94,4.19,20.73,6.77,14.22,5.4,28.3,11.14,42.42,16.79,1.68.67,3.71,1.26,4.77,2.55,3.46,4.19,6.85,4.05,10.64.14v4.82l48.34,7.56-2.53,1.73c2,.54,4.21,1.88,6,1.5,6.56-1.38,10.23,3.51,15.1,6a158.37,158.37,0,0,0,21.44,9.34c13,4.42,26.34,8.09,39.5,12.19,2.86.89,5.55,2.32,8.33,3.5-.13.37-.26.74-.4,1.12l-8.2,1.91c0,.45,0,.9-.05,1.36,1.59.66,3.21,2,4.75,1.86,4-.24,5.49,1,5,5.13-.48,3.66,1.62,6.18,5.07,7a95,95,0,0,0,10.3,1.29l.1-1.05-5.76-3.79,21.69-3.88c-.35,2.15-.6,3.71-.9,5.57,4.52-1.66,4.89,1,4.78,3.95-.14,3.84,1.24,6.75,5.17,7.36,7.77,1.22,13.46,4.4,16.47,12.39,1.76,4.67,6.13,5.27,10.51,2.41a37.12,37.12,0,0,1-4.55-2.25,16.52,16.52,0,0,1-4.38-3.78c-.42-.61.79-3.35,1.11-3.32a12.63,12.63,0,0,1,5.26,1.41c4.21,2.46,8.75,2.44,11.56,0a74.22,74.22,0,0,1,6.93-4.86l-6.11-8.82,3.44.4c-.18-1.92-.35-3.61-.49-5,4.92,1.07,9.58,2,14.16,3.13,3.85,1,7.87,1.84,11.31,3.69a10.79,10.79,0,0,1,4.82,6.2c1.83,7.25,3.1,8.27,10.62,6.39l1.36-5.54,4.36,4.13c.44-2.26.79-4,1.13-5.79,4.63,7.29,5.5,15.3,6.4,23.31.43,3.84-.43,5.33-4.86,4.66-7.13-1.08-11,2.27-10.85,8.41-6.29-3.32-9.67-2.54-10.24,2.76-.86,8,1.88,15.1,7.25,21a6,6,0,0,0,4.41,1.64c3.76-.37,4.48,1.65,4.88,4.67.38,2.76.55,5.89,2,8.11a190.61,190.61,0,0,0,14.31,20.07,35.63,35.63,0,0,0,19,11.41c1.93.49,3.57,2.12,5.34,3.23-1.28,1.34-2.58,2.68-3.83,4.05-.19.21-.17.61-.46,1.82l8.14,3.92c-.72-3.75-1.3-7-2-10.21a8.4,8.4,0,0,0-1.08-2.75c-4-6.28-8.73-11.68-16-14.45a11.52,11.52,0,0,1-4.83-3.91,77.75,77.75,0,0,1-4.68-8.09c-2.12-3.75-3.66-7.62-1.09-11.74,1.91-3.06,4.07-5.95,6.4-9.32,2.51.85,2.87,4.35-.51,7.61-1.14,1.1-2.76,2.1-3.21,3.47-1,3.06,3.11,10.93,7,13.33-1-2.89-2.13-5.1-2.55-7.43-.2-1.11.88-2.44,1.39-3.67.84.82,2.11,1.5,2.45,2.5a19.07,19.07,0,0,1,.54,4.93c.42,7.4,3.72,11.57,11,12.52,5.55.72,7.68,3.59,8.09,8.82.5,6.38,1.4,12.72,2.11,19h13.38c.12-.44.25-.88.38-1.32l-13-6c2.31-1,3.78-1.52,5.13-2.24s2.7-1.69,3.19-2c4.67,2.89,9.14,5.94,13.89,8.45a7.51,7.51,0,0,0,5.67.15c5.17-2.12,8.52-1.4,10.83,3.51,1.62,3.45,3,6.66,7.57,6.86a2.86,2.86,0,0,1,2,1.89,101.34,101.34,0,0,1,1.57,14.38c0,2.92,1.08,4.35,3.49,4.19,6.93-.45,14-.65,20.7-2.18,5.66-1.29,8.37-.54,9.68,5.47,1.45,6.62,3,13.24,4,19.94.27,1.87-.62,4.92-2,5.83-4.19,2.74-3.62,5.67-1.14,8.75,1.76,2.17,4.4,3.64,6.1,5.84,1.28,1.65,1.7,4,2.6,6.24l7-.9c-.34,2.83-.62,4.91-.84,7-.34,3.24-1.4,6.58,2.11,9,.79.54,1.07,2,1.27,3.17,1.58,9.1,7.85,14.16,15.32,18.4a18.42,18.42,0,0,1,6.18,5.29c5.85,8.64,11.3,17.55,17.07,26.24.7,1.06,2.37,1.65,3.72,2.09,14.41,4.81,26.78,12.81,38,23a84.45,84.45,0,0,0,17.77,12.59c3,1.52,7.51-.08,12.1-.3.28,8.41,1.27,17.13-2.71,25.42-5.71,11.88-5.23,15.6,3.56,25.58,1.87,2.12,3.75,4.24,5.5,6.47a43.33,43.33,0,0,1,2.71,4.7c-2.89-.3-5,.1-6.21-.76-5-3.55-10.38-6.87-14.13-11.49-2.43-3-4-5-8.22-3.62.24-2.1.41-3.64.59-5.21-6.15,4.37-12.18,8.47-18,12.92-1.21.93-1.88,3.13-2,4.8a20.91,20.91,0,0,0,6,16.39c3.19,3.32,3.89,6.56,2,10.82-1,2.18-.86,4.85-1.23,7.3,5.17-2.2,7.26-5.94,6.21-10.43-.94-4-3.14-7.62-4.78-11.41l1.49-.73c1.49,2.62,2.37,6.23,4.62,7.63,4.26,2.66,3.94,6.2,3.55,10-.53,5,1.42,8.78,4.58,12.64,2.83,3.46,4.67,7.82,6.5,12,2,4.51,3.94,8.89,8.85,11.38a33.53,33.53,0,0,0-1.76-7.95c-.47-1.53-.89-3.08-1.34-4.62,1.73.63,3.67.93,5.12,1.95,2.29,1.6,4,4.65,6.39,5.36,5.49,1.61,7.21,6.09,9.31,10.29,1.49,3-.15,4.54-3.28,4a69.05,69.05,0,0,1-8.14-2.32c-3.75-1.2-6.46-.89-7.36,3.77-.28,1.4-1.67,3.33-2.86,3.59s-3.09-1.11-3.89-2.29c-5.7-8.44-14.46-12.35-23.57-14.78-4.91-1.31-6.37-3.67-7.3-7.79-.74-3.3-1.88-6.51-2.85-9.76l-2.8-.19c4.9,9.87-2.18,16.19-5.64,23.59,2-.9,3.5-2.76,5.12-2.92,4.29-.42,10.85,9.8,9,13.71-1.49,3.15-3.27,6.17-4.84,9.28-.17.33.14.89.23,1.38l3.26-.49c-2.77,4.65-5.93,9.44-8.54,14.52-1.57,3.05-2.13,6.49,2.08,8-1.09,4.38-2.07,8.33-3,12l5.24,2.85,7.8-4-3.55-3.84c.93-1.85,1.51-3.67,2.63-5.06a27.3,27.3,0,0,1,4.26-3.55c.54,1.46,1.84,3.14,1.5,4.34a83.19,83.19,0,0,1-4.47,11.9c-1.43,3.15-4.11,5.93-1.8,10.4,1.83-1.49,3.24-2.63,3.62-2.95,2.13,1.9,4.36,5,5.45,4.67,6-2,9.87,1.65,14.91,4.53-2.18,2.36-4.26,4.43-6.15,6.67-6.08,7.25-12.63,14.19-18,21.95-6.87,10-6.38,10.5,3.66,17.57a25.94,25.94,0,0,1,4.75,3.63,54.24,54.24,0,0,1,4.2,6.26,187.14,187.14,0,0,1,17.76,11c5.29,3.64,6.52,9,5.52,15-2.66,16-18.63,29.94-35.35,31.85-10.2,1.16-20.28,3.47-30.37,5.45-5.45,1.06-9.66,3-12.92,8.71-3.93,6.93-10.53,12.35-15.93,18.46-7.11,8.07-15.32,15.25-19.55,25.65-.91,2.26-3.89,4.22-6.37,5.18a35.88,35.88,0,0,1-11.14,2.31c-13.74.66-26.57-3.26-39.18-8.3-7.54-3-15.23-5.66-23-8.12-3.6-1.15-7.16-.74-10,2.52-1.05,1.2-3,1.59-5.85,3,1.35-2.47,2-3.59,3.06-5.63-6.63-.94-12.49-1.84-18.37-2.56-3.42-.42-7.08-.89-6.74,5.69l-5.08-4.6c-2.77,2.14-6.19,3.92-8.37,6.67-3.79,4.78-6.74,10.21-10.19,15.27-3.23,4.74-6.7,9.31-9.95,14-1.53,2.22-2.82,4.61-4.19,7-.75,1.27-1.14,2.94-2.2,3.82-10.12,8.32-19.84,17.3-30.77,24.41-5.27,3.43-10.09,6.75-13.83,11.67a40.24,40.24,0,0,1-16.56,13.19c-2.63,1.13-4.68,4.34-6.2,7.05-.6,1.07,1,3.36,1.56,5.09l4.34-2.73-.64-.84-3,.47-.48-1.15,4.72-2.71c.89,1.6,2.21,3.11,2.6,4.84,1.23,5.45,2.46,5.79,7.22,2.5a47.06,47.06,0,0,1,10-5.11c5.22-2,10.62-3.48,15.94-5.23,2-.67,4-1.45,6-2.18l.59,1.46c-10,10.73-24.07,13.69-37,18.87-13.14,5.28-25.81,12.35-40.61,11.08-.19,2.14-.35,4-.56,6.3-6.37-5.19-8.4-4.59-11.65,2.54-.39.84-1,2-1.72,2.2-6.15,2-12.36,3.88-19.62,6.1,2.06-2.85,3.08-4.26,4.09-5.68-1.7-.32-3.62-1.31-5.07-.85-6.24,2-12.35,4.44-18.51,6.7-4.45,1.64-8.8,3.8-13.4,4.71-3.44.68-7.34.35-9-4.35-.35-1-3-1.94-4.46-1.78a33.84,33.84,0,0,0-8.65,2.2c-8.36,3.25-16.62,6.76-25,10.08-4.67,1.87-9.4,2.36-13.86-.63-3.74-2.51-7.45-2.08-11.38-.48a104.64,104.64,0,0,1-11.72,4.16,11.41,11.41,0,0,1-11.1-2.51c4.57-5,10.92-8.51,10.27-16.45a20.51,20.51,0,0,0-4.68,3.35c-1.77,1.44-3.47,3.22-5.53,4-3.47,1.33-7.68,1.2-8.75,6.06-.1.5-1.64.74-2.55,1-4,1.09-8,2-11.9,3.28-3.45,1.15-6.69,3-10.16,4-2,.63-5.16,1.36-6.21.36-4.82-4.56-9.8-2-14.44-.67-12.88,3.82-25.52,8.48-38.43,12.18-8.76,2.51-17.84,3.87-26.74,6-3,.71-7,.9-5.75,6.12.15.64-1.64,2.19-2.79,2.61-3.1,1.13-6.46,1.57-9.49,2.82-9.62,4-19.14,8.24-28.7,12.38h-11c-6.48-3.2-10-9.06-13.07-15.12-1.91-3.7-4-4.25-7.44-1.93-10.1,6.85-20.38,4.18-30.39-.14-2.07-.9-4.9-4.23-4.56-5.81,1.59-7.2-3.39-6.66-7.47-7.1-13.06-1.42-26.18-2.4-39.21-4.1-5.9-.78-11.37-2-17.66-1.07-17.15,2.43-34.1,5.38-50.65,10.56a33.63,33.63,0,0,1-9.31,1.61c-22.47.38-45,1-67.4.58-7.95-.16-15.83-3.13-23.75-4.75-3.24-.66-6.49-1.3-9.77-1.67-6.56-.74-13.19-.93-19.69-2-8.17-1.36-16.17-4-24.37-5-19.15-2.34-38.4-3.89-57.58-6-16.35-1.83-32.67-4-49-6.14-18.13-2.42-36.41-4.12-54.29-7.78-23.22-4.76-46.26-10.61-69.08-17a501.57,501.57,0,0,1-48.5-16.65c-38.22-15.14-76.19-30.89-114.24-46.41a11.12,11.12,0,0,1-2-1.35c-2.67-1.85-5.28-3.77-8-5.51-2.09-1.33-5.23-1.89-6.32-3.73-2.69-4.55-7.12-5.69-11.38-7.43-5.07-2.08-10.18-4.08-15.18-6.32-19-8.52-38.47-15.57-58.94-19.75-12.75-2.6-21.88-10.63-29.78-20.51A36.71,36.71,0,0,0-19,1061c-23-14.22-48.39-23-73.42-32.63-36.95-14.16-73.63-28.62-107.73-49.27-46-27.85-81.63-64.81-105.67-113C-312,853.8-318.44,841.6-324.5,829.2c-1.89-3.86-4.64-5.37-8.66-5.27-.67,0-1.34,0-2,0-8-.41-14,2.78-18.42,9.64-3.14,4.92-6.9,9.44-10.39,14.14l-2.25-.69c-.7-11.93-1.4-23.85-2.12-36.08l-8.68,4.56-1.6-2c2-1.43,4.25-2.62,6-4.34,5.67-5.66,9.8-12.21,10.12-20.52.14-3.68-1.63-5.29-5.37-4.08l-7.8,2.54-1.67-1.9c2.21-1.47,4.46-2.88,6.61-4.43,5.35-3.88,6.62-8.52,4.17-15.81l-17.83,19.88c-4.43.07-7.1,3.31-9.46,7.13a35.63,35.63,0,0,1-4.36,5.71,20,20,0,0,1-3.92,2.54l.19,1.16h13.69c-5.41,4.41-11.75,7-14,14.4l5.61.28c.16,5.79,1.13,11.37-3.48,16.18l-5.3-4c-.89,8.21-1.66,15.32-2.45,22.65-2.25-1.28-4.92-2.89-7.68-4.33s-4.83-1-5.27,2.56c-.39,3.23-.83,6.45-1.45,11.19-2.9-3.17-5-5.46-7.07-7.73-7.47-8.09-9.15-17.62.32-25.65,3.69-3.14,4.77-7.21,3.82-12.17-1.36-7.09-1.1-7.14,5.51-9.45.65-7.16,6.42-12.75,14.56-14.11-.57,1.43-1.14,2.85-1.72,4.28a22.21,22.21,0,0,0,12.46-13.64c4.93.31,8.44-2.55,9.54-6.14,1.72-5.57,6.1-7.9,10-11,7.59-6,15-12,13.46-23.29,0-.25.31-.56.48-.83,11.9-2.11,17.81-10.56,14.19-21.35-2.45-7.32-4.23-14.34-.82-21.76.29-.62-.12-1.55-.22-2.49l-6.3.95c4.33-9.95,9-18.59,17.46-24.61,1.25-.89,3.57-1.86,4.54-1.3,4.65,2.65,7.47-.17,10.55-2.77,5.18-4.38,6.44-4,9.59,2.38l-8.62,4.19,1,1.94a36,36,0,0,0,4.75-2c4.3-2.63,8.42-5.54,12.76-8.1,2.36-1.39,5.4-1.83,7.45-3.52,9.49-7.85,18.72-16,28.07-24,2.39-2,4.71-4.2,7.28-6,5.8-4.07,11.77-7.89,17.61-11.9,11.67-8,23.16-16.28,35-24.07,19-12.53,35.7-27.69,48.1-46.6,6.2-9.45,14.74-16.86,20.24-26.67.28-.48,1.13-.62,1.67-1,3.17-2.13,6.41-4.15,9.45-6.45,13.43-10.12,26.73-20.4,40.23-30.41A46.77,46.77,0,0,1-77,479.68c4.81-2,9.84-3.41,14.7-5.27,2.56-1,5-2.38,7.44-3.59l.69,1.36c-3.51,2.48-6.9,5.13-10.54,7.38-3.79,2.34-7.78,4.37-11.75,6.41-3.33,1.7-6.61,4.1-10.15,4.63-7.66,1.17-13.11,5.41-17.85,10.91-1,1.16-.88,3.28-1.28,4.95a32.68,32.68,0,0,0,6-.21c2-.43,3.94-1.95,5.94-2,1.33,0,2.73,1.61,4.1,2.5a48.92,48.92,0,0,1-3.81,4.52c-.41.39-1.6-.09-2.43-.09-6.47,0-9,1.64-11.32,7.62-1.29,3.28-2.94,5.79-6.87,6.39-1.32.21-2.41,2-3.61,3,2.68,1.59.07,2.52-.34,3.85a25.43,25.43,0,0,0-.49,5.42c1.62-.36,3.74-.2,4.79-1.18,4.84-4.54,12.42-5.64,15.5-12.4.35-.77,1.57-1.16,2.43-1.66,3.83-2.24,7.73-4.37,11.5-6.7,4.93-3.06,9.68-6.43,14.69-9.35,1.63-1,3.83-1,5.77-1.4-4,4.4-8.93,7.28-12.75,11.2s-6.4,8.72-10,13.78c2.75-.82,5.47-1.09,7.59-2.37,11-6.58,22-13.08,32.57-20.31,5.89-4,13.12-7.35,14.29-16.68l4.54,4.75c1.54-1.93,2.84-3.81,4.4-5.42,1-1.06,2.48-2.5,3.67-2.43,3.92.24,6.31-1.06,6.65-5,9.13.88,13.45-5.59,18-11.14s9.21-11.73,7.66-20C20,452.72,28.79,449.6,32,444c-1.39.21-2.58.11-3.49.57-5.05,2.53-10.3,2.49-15.55,1.13-1.43-.38-3.46-1.93-3.58-3.11-.17-1.72,1.15-3.59,1.83-5.39l1.33.2c1,6.13,5.37,4,8.49,3.37,3.69-.69,6.22-3,5-7.89H19.44l-.29-1.52a52.37,52.37,0,0,0,5.09-2A56.11,56.11,0,0,0,29,426.29l-.59-.85-48.34,22.29-1-2c2.28-1.47,4.55-3,6.86-4.4,16.28-10,32.6-20,48.82-30.09,1.74-1.09,3-3,4.44-4.49,1.16-1.17,2.17-2.68,3.57-3.37,6.7-3.27,13.84-5.73,20.21-9.54,26.13-15.61,52.05-31.57,78-47.51a49.12,49.12,0,0,0,7.2-6c2-1.87,3.56-4.47,5.85-5.86,16.36-9.89,34.24-16.08,52.56-21.14a8,8,0,0,1,9,2.65c1.07,1.25,4.13,1.69,6,1.23A59.05,59.05,0,0,0,234,312.59c3.36-1.72,6.2-4.41,9.28-6.68l-1-2c-5.78,1.82-11.55,3.67-17.34,5.44-2.38.73-4.82,1.84-7.19,1.74-1.54-.06-3-2-4.5-3.08,1.12-1.1,2.13-3,3.36-3.16,6.07-.75,10.68-6.67,17.42-4.84.35.1.86-.29,1.28-.49,2.34-1.13,4.6-3,7-3.25,6.11-.72,12.3-.73,18.45-1,4-.2,7.21.65,7.55,5.57l10.1-8.29c-5.51.58-10.82,1.63-15.58-3.26,14-1.8,24-9.1,32-20-4.57-5.33-9.37,3.42-13.91,0,6.09-5.58,8-5.81,15.26-2.53a5.64,5.64,0,0,0,4.12.06c8.3-3.79,18.25-3.88,25-11.13.3-.32,1-.28,1.38-.53q12.48-7.38,24.95-14.81l-1-2.06-40,10.57-.39-1.59c21.81-7.86,44.1-14.43,65.76-22.7l-.53-1.86-14.75,1a9.49,9.49,0,0,1,5.84-2.59q9.71-.65,19.44-.84c4.5-.09,8.41-.94,11.59-4.64,1.21-1.41,4-2.69,5.61-2.31,4.5,1,7.72-.76,11-3.2,1.45-1.07,3.12-2.57,4.71-2.6,10.11-.2,18.26-5.36,25.25-11.48,5.95-5.2,12.52-7.92,19.7-9.87,8.5-2.31,17.22-3.82,25.62-6.39,13.13-4,25.16-2.44,36.69,5,3.72,2.41,8,3.94,12.16,5.7,3,1.3,5.59.06,6.29-2.93C546.64,179.31,552.11,174.15,559,170ZM442.5,366.3c-.08-.72-.15-1.43-.23-2.15-3.69,0-7.43-.34-11.07.09-4.06.48-7.26.44-9.95-3.53-2.58-3.81-8.54-3.36-9.8.55s-4,4.89-7.19,6c-2.61.93-6.26,1.66-7.36,3.64-4.19,7.55-10.57,8-17.9,7.22-3.48-.39-7-.08-9.08,4.45,1.76.64,3.22,1.67,4.66,1.63,7.1-.19,14.23-.35,21.26-1.2,2.93-.36,5.62-2.48,8.47-3.65a50,50,0,0,1,5-1.49c-.32,1.61-.63,3.22-.92,4.72l8.44-1.38c-1.47,3.81-2.47,6.4-3,7.71-4.06-.81-7-1.85-10-1.85-2.58,0-5.19,1.06-7.72,1.84-21.83,6.8-44.5,11.39-64.12,24.09a16.77,16.77,0,0,1-3.76,1.25c-7.68,2.62-15.41,5.1-23,7.95-3.15,1.18-6,3.15-9,4.77l.52,1.27,16-3.76.56,1.73-12.54,7.25c.82,1,1.47,1.84,2.74,3.41-4,1.22-7.5,2.09-10.84,3.35s-7.83,1.35-8.09,5.48l-10.74,5.47.53,1.32a5.42,5.42,0,0,0,1.82.28c15.58-3.28,31.17-6.55,46.72-10,1.1-.24,2.76-2.19,2.61-3.1-.82-5,2.44-4.75,5.51-4.58a15.52,15.52,0,0,1,12.07,6.72c-1.68,1.17-3,2.77-4.63,3.13q-38.28,8.55-76.62,16.77c-.49.11-1.12-.45-2.92-1.24l10.19-5.24-.87-2.43L246.51,458l2.75-4.64c-8.17.05-43,16.44-45.3,21.79,2-.46,3.64-.46,4.86-1.21a16.19,16.19,0,0,1,11.85-2.36c2.25.38,5.22-.88,7.23-2.3,5.07-3.56,10.59-4.91,16.86-5.3-2.36,4.65-3.91,8.89-9.41,10.54-8.07,2.41-15.74,6.12-23.73,8.86-6.28,2.15-12.78,3.69-20.19,5.79,2.1-4.5,3.49-7.46,4.87-10.43l-1.24-1.31-20.2,8c-.24-.56-.48-1.12-.73-1.68l14.54-9.05L188,473l-77.31,26.57c-.23-.68-.46-1.36-.7-2,21.64-7.84,43.11-16.19,65-23.36S219,460.43,239.1,448.62c3.47-2,7.42-3.24,12.37-5.35-2.57,6.4.95,7.46,4.43,7.25a85,85,0,0,0,14.67-2.41c3-.73,5.85-2.32,8.76-3.52L279,443.3l-6.6-1c.67-3.11.7-6.1,2-8.37a14,14,0,0,1,5.95-5.84c6.19-2.69,12.81-4.36,19-7,2.34-1,4-3.49,6-5.31a33.24,33.24,0,0,0,8.93-2.19c1.47-.52,2.88-1.2,4.33-1.77l26.13-10.34-.69-1.78c-10.39-1.27-18.36,4.83-27,10.1.76-7.21,3.61-11.84,10.71-13.05a18.17,18.17,0,0,0,6.11-2c1.91-1.13,3.81-3.75.65-4.85s-8.78-2.12-10.57-.37c-3.64,3.53-7,3.66-10.41,2.65l-5,7.05-1.28-.68v-4.4c-4.12.06-8.54-4-11.47,1.24a19.42,19.42,0,0,1-12.59,9.75c-2.35.66-5,2-3.66,6.5l25.26-8.82c.24.57.47,1.14.7,1.71-7.51,3.31-15,6.8-22.59,9.8-1.51.59-3.93-.28-5.59-1.14-6.52-3.34-8.38-2.8-11.86,4.13l5.85,5.39-15.52,5.95-.64-1.33,1.44-3.28c-11.8-.23-11.8-.23-13.29-3.85,9.27-2.9,18.29-6.3,25.87-13.95l-4.5-2.16c-2.4,5.63-11.27,8.29-18,6.21l22.68-12.65-.71-2a24.06,24.06,0,0,0-4.69,1.19c-5.53,2.63-10.93,5.52-16.46,8.13-3.31,1.55-6.81,2.66-10.15,4.13-1,.44-2.58,1.55-2.49,2.12.63,3.92-2.57,4.18-4.76,5.17-5.89,2.68-11.87,5.18-17.83,7.71-9.61,4.07-19.2,8.21-28.86,12.13-4.92,2-10.07,3.4-15,5.46-2,.86-4.53,2.35-5.31,4.2-2.38,5.6-7.05,6.88-12.18,8.25a170.09,170.09,0,0,0-17.4,5.85c-1.6.62-2.71,2.48-4.39,4.12,5.22,2.25,10.33-1.11,14.29,2.91-6.89,4.62-15.89,3.93-19.1-2.22-5.91,4.51-11.72,8.81-17.34,13.34a5.07,5.07,0,0,0-1.79,3.9c1,6.12-2.79,9.67-7,12.17-12.16,7.15-24.63,13.78-37,20.54-2.41,1.31-5.37,1.82-7.43,3.5-2.89,2.36-5.39,2.83-8.56.89-5.56-3.4-9.55.48-13.39,3.46s-8,6.37-6.85,12.33a9.28,9.28,0,0,0,1.22,2.26c11.09-3.26,19.6-11.95,30.88-14.07l1,1.73L40.52,535.51l4.9,3L15.08,550.39v10.26c7.77-4.16,14.23-7.57,20.64-11.08,5.17-2.83,10.19-5.94,15.45-8.57,1.82-.9,4.17-.74,6.27-1.07l.53,1.5c-2.62,4.39-6,7.91-11.27,9.41-1.07.3-2.65.3-3.1,1-2.72,4.34-6.79,6-11.59,6.81a7,7,0,0,0-3.38,2c-5.17,4.94-9.61,11-15.5,14.73-8.41,5.37-15.37,12.44-24.42,17.26-18.88,10.06-36.64,22.22-54.8,33.6-1.47.93-2.53,2.5-3.78,3.78l1,1.22c4.36-2.28,8.84-4.36,13.06-6.87,11.88-7,23.72-14.14,35.44-21.44,7.3-4.54,14.18-9.77,21.58-14.14A130.7,130.7,0,0,1,17.66,581c7.49-3.11,15.18-5.76,22.65-8.9,2.43-1,4.26-3.42,2.23-6-.62-.78-3.65-.11-5.34.53-4.47,1.7-8.81,3.75-13.21,5.67l-.83-1.9,32.43-17.26,1,1.81-10.71,6.6a67.57,67.57,0,0,0,25.72-12l-.5-1.22-8.28,2.42-1.47-1.57,10.64-8-7.17-3.34c8.17-9.42,20-10.14,28.91-16,6.19-4.06,25.38-12.53,31.34-10.84-13.5,13.08-32.62,17.84-43.39,33.54l20-12.38c1.88.1,3.58.49,5.14.2,7.34-1.33,14.6-3.34,22-4.16,6-.66,11.36-1.89,15.87-6.14,3.29-3.1,7.31-5,11.87-3.69,3.44,1,5.29-.24,7.69-2.61,4.29-4.22,9.14-8,15.71-9.19-.92,4.94-4,8.41-10.58,11.49-11.12,5.25-22.15,10.76-33.55,15.35-22,8.85-44.27,17.12-66.4,25.7a23.66,23.66,0,0,0-5.65,3C60,565,56.68,568.55,52.67,571c-13.49,8.14-27.19,15.94-40.83,23.82-1.43.82-3,1.34-4.54,2A38.4,38.4,0,0,0-7.31,608.43a54.09,54.09,0,0,0,9.22-3.8c8.26-4.09,15.8-10,25.76-9.78a5.46,5.46,0,0,0,3.06-1.54c4.34-3.61,8.44-7.52,14.62-7.85.95-.05,1.69-1.91,2.74-2.58,3.28-2.1,6.66-4,10.42-6.27.21,3.93.34,6.29.46,8.65,2.54-.86,5.11-1.66,7.62-2.6q16.95-6.36,33.86-12.77c.88-.34,2.15-.45,2.55-1.1,2.88-4.7,7.45-5.52,12.4-6.18,3.06-.4,6-1.83,8.94-2.92,4.81-1.77,9.52-3.82,14.39-5.41,10.39-3.39,21-6.25,31.28-9.87,22.87-8,45.61-16.43,68.43-24.6,3.11-1.11,6.44-1.59,9.59-2.58,10.18-3.19,20.31-6.48,30.47-9.74l.72,1.8c-3.33,1.6-6.57,3.41-10,4.74-4.17,1.61-8.56,2.65-12.74,4.24C243,523.43,229.62,528.83,216.13,534q-20,7.6-40.17,14.84c-13.13,4.69-26.23,9.57-39.61,13.45-6.18,1.79-11.86,3.55-17.37,7.25-8,5.35-17,9-25.39,13.8-10.38,5.91-20.46,12.34-30.82,18.29-8.75,5-17.47,10-27.83,11.57-3.63.56-7.07,4-10.06,6.66-2.82,2.56-4.48,6.47-7.44,8.79-13.89,10.88-28,21.5-42.12,32.07-36.82,27.54-69.48,59.11-95,97.62a45.45,45.45,0,0,1-3.1,3.63c.39-2.55.62-4,.85-5.53l-.72-.28-6.84,10.29,5.1,1.08-7.81,11.22c.39,2.92,1.06,6.49,1.32,10.1.42,5.87.27,11.8,1,17.64.52,4.43,2.2,8.71,2.91,13.13a18.46,18.46,0,0,1-.66,6.56c-.47,2.17-1.67,4.2-2,6.37a61.34,61.34,0,0,0-.09,8.06c-5.24-2.89-7.47-1.75-7.89,3.83a13.5,13.5,0,0,0,.74,5.86c8.43,21,16.23,42.37,31.25,59.85,7.57,8.82,14.86,18.33,24,25.23C-71.13,943.28-59,949.24-47,955.06-29,963.88-10.27,971.4,7.75,980.3c16.27,8,32.33,16.47,47.89,25.9,15.13,9.17,31,17.11,46.7,25.28,2.62,1.36,6.07,1.5,9.15,1.54,5.49.08,10.65,2.6,12.33,7.55,1.05,3.13,2.83,3.52,5.51,3.71,4.79.35,9.83.18,14.3,1.65,20.17,6.64,40.2,13.74,60.26,20.74,16,5.57,31.91,11.31,47.94,16.76,3,1,6.28,1,9.58,1.43v-9.06l1.15-.61,14.49,20.71,1.25-.81c-.54-1.34-1.16-2.65-1.58-4s-.71-3-1.05-4.49c8.26-1.85,8.21-1.85,7.64-10.18-.11-1.66.33-3.36.7-6.75,3.29,2.94,5.39,4.88,7.56,6.74,1.57,1.35,3.17,2.68,4.86,3.87,1.4,1,2.95,1.75,4.44,2.62-1.08,1.35-2.16,2.69-3.23,4-.38.48-.74,1-1.07,1.44l6.79,8.87c4.18-1.34,8.52-2.69,9.54-7.59-1.61-2.17-3.44-4.38-3.36-6.51.16-4.17,1.8-8,5.53-9.35,1.06,3.24,1.2,7.29,3.26,9a7.3,7.3,0,0,0,10-.72l-3.56-2.44c.32-.5.63-1,1-1.49l8.5,5.37c-6.24,4.17-3.75,7.11-.32,10,.63.53,1.2,1.14,1.83,1.69,4.78,4.11,6.15,3.85,8.28-2.17,1.78-5,3.55-9.52,10.34-8,.73.17,1.75-1,2.63-1.53a16.62,16.62,0,0,0-2.27-2.1c-1.59-1-3.29-1.87-5.39-3,6.73-4.84,17.14-2.89,20.16,2.44-3.79,5.62-7.45,11-11,16.28l12,8.48-10-.66-.24,1.56c2.08.88,4.08,2.09,6.25,2.61,9.69,2.3,19.38,4.6,29.15,6.52,8.28,1.63,9.9.41,12.19-8.46,4.05,3.47,7.63,6.85,11.55,9.78,2.73,2,5.75,4.37,8.94,5,10.92,2.12,22,3.36,33,5.3,9,1.61,18,3.73,28.13,5.88l-6.4,2.87a24.07,24.07,0,0,0,9.14,3.14c8.56,1.23,17.54,1,25.6,3.73,8.23,2.72,16.29,3.16,24.5,2.62,8.58-.56,17.06-2.76,25.63-3.2,11.63-.6,23.31-.15,35-.25,2.93,0,5.86-.42,9.79-.72l-3.89-5.07c-2.6-3.42-2.2-5.67,1.79-7.37,1.89-.81,4.4-1.38,6.24-.81,4.86,1.52,9.52,3.69,14.23,5.66,2,.85,4,1.86,6.27,2.93.39-8.58.08-13.94-10-18.78a62.26,62.26,0,0,0,4.13-7.15,48.72,48.72,0,0,0,1.89-7.36c-2.32-.48-4.62-1.09-7-1.39-3.19-.41-6.41-.59-9.62-.86a22.88,22.88,0,0,1,6.85-3.86c3.43-1.06,7-1.69,10.49-2.59,2.88-.75,5.69-2,8.61-2.35,7.84-.79,7.85-.63,8.55-8.43.15-1.62.33-3.25.54-5.32l-25.9-1.45c11.11-3,24-6.48,37-10,2.39-.66,4.86-2.62,7-2.22,1.71.33,2.81,3.4,4.37,5.07a37.55,37.55,0,0,0,5.15,4.7c1,.75,2.48.91,3.75,1.33l-1.71,1.7c-7.1,1.18-7,1.16-5.44,8.23,1.68,7.78,5.94,14.18,9.86,20.92,3,5.1,5.06,10.13,12,10.2,1.06,0,2.08,1.1,3.18,1.24,3.12.4,6.32,1,9.38.68,2.68-.29,3.75-2.73,1.62-4.72-3.84-3.57-7.67-8-12.35-9.6-4.51-1.57-6.69-2.64-4.66-7.69h-6.56c4.57-6.64-2.34-5.14-4.82-6.45,4.11-8.1,14.94-5,20.54-13a95.85,95.85,0,0,1-9.59-.66c-1.64-.3-4.47-1.42-4.47-2.18,0-5.58-3.78-8-9.59-10l7.05-2a39.66,39.66,0,0,0-9.42-.68c-16,.38-31.95,1.17-47.92,1-5.84-.06-11.65-2.37-17.5-3.58-6.68-1.38-8.47-.15-8.29,4.27-4.72,1.41-9,2.91-13.47,3.89-1.44.32-3.29-.47-4.73-1.18-1.62-.8-2.88-2.8-4.49-3-6.39-1-12.85-1.61-19.3-2.13-1.55-.13-3.72.12-4.67,1.1-4.4,4.57-10,4.47-15.4,3.93-13.23-1.32-26.4-3.18-39.61-4.69-5.24-.6-10.52-.84-15.77-1.25l-.51,2.7,19.73,6.77c-3.36,1.19-6.13,2.29-9,3.13-3.18.94-6.4,1.78-9.65,2.4-9.11,1.73-14.56-.72-18.1-9.15-2.79-6.62-7.59-9.84-14-12.36-13.43-5.26-27.33-10-39.66-17.23-22.45-13.24-44.68-27.08-63.74-45.24a36.64,36.64,0,0,0-4.68-3.73c-6-4.11-8.05-3.4-9.75,4-2.13-1.62-4.4-2.79-5.92-4.59-8.88-10.55-18-21-26.23-32-5.26-7-7.35-15.54-7.24-24.49.05-3.82.13-7.77-.76-11.43-1.64-6.68-5-13.07-5.78-19.79-1-8.51-4.06-16.32-5.75-24.5-2.69-13-3.94-26.29-5.71-39.47-.29-2.12.69-5.46-.38-6.26-4.68-3.5-3.28-8.35-3.57-12.72-1.34-20.44-2.77-40.89-3.61-61.35-.73-18-1.34-36-.88-53.95.56-21.63,2.29-43.23,3.54-64.84.24-4.15.16-8.41,1.09-12.42.87-3.74,2.88-7.22,4.38-10.81l2.36.69c-.89,9.45-1.77,18.9-2.79,29.77,2.12-6,3.7-10.67,5.44-15.3,2.52-6.68,5.77-13.14,4.11-20.72-.18-.82,1.83-2.07,2.72-3.21a14,14,0,0,0,2.36-3.59c.64-1.8.67-3.81,1.23-5.64,1.28-4.21,3-8.3,4-12.56,1.85-7.7,1.76-14.83-3.48-21.93-3.83-5.2-2-10.78,2.73-14q6,9.43,12,18.87c.89-6.22,3.21-9.94,8.18-12.85,2.12.77,4.16,2.24,5.33,1.74,1.44-.62,2.49-2.79,3.11-4.51.72-2,.57-4.3,1.24-6.32a6.84,6.84,0,0,1,2.55-3c1.93-1.38,4.08-2.48,6.47-3.9l3,2.52c1.19-4.58,1-9.6,5.6-10.05,1.62-4.25,3-7.82,4.28-11.27l-3.73.8-.88-1.09c1.05-1,1.94-2.53,3.2-3a31.21,31.21,0,0,1,6.39-1c10.1-1.32,15.32-6.14,18.05-16,.62-2.28,2.39-4.34,3.93-6.25.93-1.14,2.45-1.8,3.7-2.68l-1-.87-18.48,3c6.11-3.1,12.76-4.37,18.63-7.25,15.94-7.81,31.55-16.29,47.27-24.55.87-.45,1.49-1.36,2.36-1.81,1.89-1,3.88-2.49,5.81-2.45,3.91.07,6.34-1.34,7.76-4.88a23.82,23.82,0,0,1,1.65-2.8l1.6,2.69a71.2,71.2,0,0,1,7.39-4.13,103.09,103.09,0,0,1,33.81-8,45.47,45.47,0,0,0,5.85-1.06c-.09-.63-.19-1.27-.28-1.91l-68.88,7.41c5.22-8.18,15.83-4.54,22.37-10.1-32.16-3.86-63.18,4.38-94.61,8,17.94-8.75,39-6.19,57.17-17.07-1.49,4.79.87,5.44,3.66,4.28,4.4-1.82,8.58-4.2,12.78-6.31l-8.92-2.29.32-1.54L436.09,419c.15-.46.71-2.12,1.05-3.13,4.58,1.22,8.64,2.75,12.82,3.33,7.74,1.07,15.62,1.21,23.32,2.45,10,1.6,19.76,5,29.75,5.62,11.85.76,23.9-.06,35.76-1.23,6.43-.63,7.25-3.65,4.35-9.24a6.11,6.11,0,0,1-.25-2.17l2.3-2a47.5,47.5,0,0,0,2.11,5c4.45,8,5.63,8.22,13.67,3.35,1.79-1.09,3.86-2.52,5.76-2.46,9.76.27,19.5,1,29.24,1.55,2.58.16,5.16.51,8.15.81l-2,5.23,6.93-.9c.1.5.19,1,.29,1.5l-20.07,4c-.06.26-.12.52-.19.79L615.57,434c.3-4.52-.64-8.91,1-10.25,2.12-1.77,6.24-1.15,9.49-1.56l.24,1.75-8.36,1.38c0,.52,0,1,0,1.55,3.47.14,7,.52,10.41.37,3.12-.14,6.2-1.17,9.32-1.24s5.42,1.18,5.08,5.16c-.08.94,1.51,2.77,2.54,2.95,8.68,1.5,17.38,2.95,26.13,3.94,15.3,1.73,30,4.93,43.93,12.12,6.38,3.31,13.75,4.72,20.66,7a57.91,57.91,0,0,1,7.46,2.65c10,4.95,19.74,10.48,30,14.93a63.05,63.05,0,0,0,18.17,4.6c9.62,1.05,14.6,7.67,18.62,14.81,6.81,12.08,16.36,21.5,27.45,29.13,4.68,3.23,8.58,6.54,11.62,11.16,1.18,1.8,2.2,3.94,3.86,5.17,3.52,2.62,6,5.38,3,11.48,7.38-4.42,7.8,0,8.48,4.06a66.4,66.4,0,0,0,1.37,7.34,23.24,23.24,0,0,0,2.64,6.33c2.19,3.36,5.85,6.14,7,9.76,2.95,9.53,4.91,19.38,7.18,29.11.51,2.19.72,4.44,1.2,7.49-2.19-1.87-3.64-4.14-5.13-4.17-4.23-.08-4.13-2.93-4.68-5.65a19,19,0,0,0-1.22-4.29,123.5,123.5,0,0,0-31.42-40.86c-1.41-1.21-3.42-1.71-5.15-2.54l-1,1.31c1.75,2.76,3.35,5.62,5.26,8.27,7.59,10.48,15.27,20.9,22.92,31.34a15.33,15.33,0,0,0,2.46,3.13c5.69,4.55,8.51,11,9.5,17.66a322.54,322.54,0,0,1,2.86,33.18c.21,4.91-1.17,9.9-1.94,15.65l-4.67-5.5-1.67.5a78.25,78.25,0,0,1-.09,9.57c-.39,3.12-1.9,6.12-2.16,9.24-.4,4.88-.65,5.72-5,7.33,2.41-11.71,5.51-23.25,2.92-35.66l-7,2.67-13.61-32.77c-1.47,5.53-2.12,10.13-4,14.15-.89,1.89-4.35,3.84-6.33,3.56-1.8-.26-4.31-3.37-4.55-5.44-1.27-11.25-1.93-22.57-2.78-33.63l4.08,5.68,1.26-.59c-.23-1.89.06-4-.77-5.62-3.63-6.86-7-14-11.57-20.19C815,574,808.32,568,798.84,564c-12.83-5.48-24.16-14.5-36-22.2-2.22-1.43-3.83-3.79-5.72-5.72l.53-.48,51.68,19.69.64-1.42c-17.73-15.78-37.76-27.49-61.61-32.47.35-.86.7-1.73,1.06-2.6,3.8,1.1,7.73,1.88,11.36,3.37,3.82,1.57,7.35,2.49,11.32,0L769,516.3c13.33,7.81,25,16.26,40.32,18.61-2.53-3.77-4.41-6.8-6.54-9.64a19.82,19.82,0,0,0-4.14-4c-4-2.93-8.6-5.2-12.13-8.6-9.71-9.33-21.55-8.42-33.63-7.56l4.85,2.83c-11.65,7.7-23.65,14.06-39.49,13l13.65,7.57-1,1.86c-4.74-2.38-10-4.07-14.13-7.26-10.76-8.35-23-12.35-36.16-14.36a10.71,10.71,0,0,1-3.79-1.15c-4.65-2.7-9.15-5.67-13.82-8.32-5.74-3.26-11.65-6.2-17.38-9.47-4-2.3-14.09-.58-17.47,3.69h10.48l.22,1.34-5.1,1.75c-1.64.56-3.27,1.15-4.91,1.72l-.09,2.28c14.85.3,29,2.55,40.77,13.36-7-.9-13.54-1.82-20-2.55-20.88-2.34-41.85-4.63-62.55.66-20.09,5.14-40,11-59.92,16.76-2.5.72-4.64,2.7-6.94,4.1l.61,1.41c10.5-3.65,20.76-9.7,33.68-3.28-3.92,1.17-6.63,2.32-9.46,2.78-13.35,2.15-26.46,4.56-37.39,13.67-2.88,2.39-7.31,2.91-11,4.29l-1-1.88,16.61-10.65c-.29-.52-.58-1-.88-1.55l-10.49,4.6,4-6.19a15.92,15.92,0,0,0-5.95,1.72c-30.92,13.73-54.27,38-80.74,57.93a90.14,90.14,0,0,1-13.43,8.06c-2.52,1.28-5.54,1.57-8.33,2.31a69.68,69.68,0,0,1,4.39,6.76c.64,1.25,1.07,3.75.45,4.25a6.12,6.12,0,0,1-4.71.89c-1.76-.43-3.29-1.83-5-2.86-1.22,3.06-.3,7.37-5.37,6.66-5.25-.73-10.3-5.29-10.09-9l5.37,3.58,1.36-1.9c-1.62-1.23-3.06-3-4.88-3.55-3.92-1.11-8-1.55-12.43-2.32L371,619.89l-9.2-7.5c-.63.43-1.25.87-1.87,1.31l7.27,17.91c-4.44-.06-4.44-.06-10.47-11-10.64,7.18-9.19,20.69-15.52,30.3-1.09,1.65.67,5,.84,7.66,1.05,16.11,1.68,32.26,3.1,48.34s-1.42,32.28,4.34,48.23c2.74,7.6,1.15,16.76,1.64,25.2a23.53,23.53,0,0,0,1.08,5.14c.51,1.74,1.43,3.37,1.82,5.12.32,1.43-.48,3.56.28,4.36,4,4.16,2.28,9,2.26,13.72a25,25,0,0,0,.38,5.94c1.07,4.38,2.7,8.63,3.64,13,5.86,27.41,16.69,52.85,30.2,77.26A45,45,0,0,0,407.87,922c6.29,3.71,12.61,7.37,18.3,10.71-.19,1.89-.87,3.89-.33,4.31a9,9,0,0,0,4.61,1.49c1.37.12,3.07-1.07,4.16-.61,11.09,4.71,22.08,9.64,33.1,14.51l-.77,1.78c-4.95-1.82-9.89-3.66-14.86-5.45s-9.86-3.49-14.8-5.23l-.57,1.59c15,6.27,26.77,19.51,45.57,19.94l-9.89-7.19c.3-.6.61-1.19.91-1.78a65.36,65.36,0,0,1,6.66,1.8c10.82,4.19,21.43,9.05,32.44,12.64,19.56,6.37,39.07,13.42,59.14,17.54,18.48,3.8,37.65,4.28,56.54,5.88,7.23.62,14.83,1.63,21.76.14,11.3-2.41,22.18-6.72,33.24-10.25,1.74-.56,3.45-1.19,5.8-2-1.4,3-2.35,5.11-3.79,8.27,2.91-.54,4.58-.59,6-1.17,14.66-5.81,29.7-10.81,42.36-20.78a74.72,74.72,0,0,1,11-6.83c4.29-2.32,9.07-3.83,13.12-6.48,10.44-6.82,17.82-16.43,22.72-27.47l-8.3,1.37c7.53-6.55,14.42-12.8,21.59-18.72,8.71-7.18,17.75-14,26.4-21.21a7.63,7.63,0,0,0,2.25-5.83c-.42-3.88,1.07-4.88,4.56-5.41a19.71,19.71,0,0,0,7.89-3.23c2.7-1.87,4.75-4.67,7.33-6.75,1.17-.94,3-1.11,4.45-1.63a43.52,43.52,0,0,1,.59,4.53,31.93,31.93,0,0,1-.4,4.12l4.86-.24c-3.18,3.49-5.45,6-7.73,8.48l-4.36-5-27.19,31.37c11.12-4.18,18.3-11.78,25.39-19.52l1.58,1.79-36.79,37.35c2,.11,2.66.08,3.28.19,2.08.38,5.29-2.81,6.08,1.47.61,3.26-1.3,5-4.65,5.86-2.08.53-4,2.24-5.58,3.88-.54.58.36,2.51.74,4.63l-41,40,1.12,1.24c1.38-.83,2.85-1.54,4.14-2.5,4.54-3.37,8.92-7,13.56-10.19,3.54-2.46,7.08-5.45,12.13-4.25-1.54,4.22-13.59,14.45-18.31,16.57-14.82,6.67-29.56,13.55-44.26,20.49-1.82.86-3.24,2.55-5.49,4.37l6.58,1.17-3,3.79c4.33.73,9.19.17,11.94,2.32,4.33,3.38,8.1,2.4,12,.91,5.41-2.07,10.55-4.85,15.85-7.24,1.59-.72,3.3-1.19,5-1.77L773,1011c-2.54,1.79-5.16,3.48-7.6,5.41-5.08,4-13.11,5.4-12.75,14.29,0,.33-.58.76-1,1-3.18,2.23-6.39,4.43-8.68,6a61.38,61.38,0,0,0-6.58-2.84c-.6-.18-1.58.9-2.39,1.41l3.3,4.69a42.14,42.14,0,0,0-3.81,3.36c-1.31,1.44-3.54,3.32-3.32,4.65.69,4-1.89,4.39-4.45,5.1-3.36.93-6.79,1.63-10.08,2.77-1.84.63-3.44,2-5.84,3.37,4.76,3.54,7.58,1.25,10.81-1.86-.39,5.43,2.33,6.43,6.41,5.67-1,11.76-10.06,13.61-18.85,16.36a10.94,10.94,0,0,0,6.72,1c5.68-1.36,9.63.48,12.61,5.42a59.52,59.52,0,0,0,7,9.68c2,2.11,4.75,3.45,8.31,5.92-.22-3.26-.31-4.61-.42-6.34,5.76,2.25,11.08,4.3,16.38,6.43.37.15.5.85.8,1.24,3.06,3.88,7.78,4.21,11.6,1.14,1.09-.88,3.23-1.71,4.24-1.22a104.26,104.26,0,0,1,14.53,8.23c3,2.14,5,2.58,7.65-.22,1.31-1.35,3.6-2.83,5.19-2.59,3.65.55,7.14,2.13,12,3.71,4.66-2.56,2.72-8.86,3.5-15.21,5.49,5.4,11.22,9.16,13,16.33.9,3.78,3.39,4.85,6.77,3.1a14.2,14.2,0,0,0,4.64-3.65c1-1.32,1.25-3.25,1.83-4.91a18.67,18.67,0,0,0-10.52-1.55c1.21-3.68,2.19-6.67,3.18-9.65,2.19,1.22,4.43,2.35,6.55,3.68,5.24,3.31,11.47,6.35,16.88,3.69,4.86-2.39,8.2-1.73,12.12.55,1.85-5,5-6.74,10.54-6.14s14.3-4.14,16.1-8.9H888.26l-.45-1.23c1.73-1.07,3.33-2.65,5.21-3.14q16.62-4.33,33.38-8.15c1.27-.29,3.92.56,4.12,1.34.87,3.44,3,2.44,5.06,1.91a34.29,34.29,0,0,0,3.69-1.49q93-36.62,185.93-73.27a15.21,15.21,0,0,0,3.85-2.87c1.62-1.37,3.14-2.85,4.84-4.4-.62-1.08-1.55-2.72-2.25-4,4.9-2.12,9.6-3.51,13.57-6,5.7-3.62,5.41-6.29-1-9.76,10.46-1.58,7.21-9.26,7.23-16.33a39.15,39.15,0,0,1,3.59,3.94c2.51,3.77,5.26,3.71,8,.43,2.17-2.64,3.73-5.81,6-8.33a41.53,41.53,0,0,1,8.46-7.27c.59-.38,3,2.88,4.86,3.6a31.39,31.39,0,0,0,9,1.82c.76.06,1.67-2,2.61-3.26a2.74,2.74,0,0,0,1.21.65c2.66.35,6.05,1.67,7.8.52s2-4.74,2.39-7.35c.3-1.92-.48-4-.24-5.95.19-1.5,1.21-2.89,1.86-4.33a33.7,33.7,0,0,1,3.3,3,10.47,10.47,0,0,1,1.24,2.66l2-.78c.48-2.6,1.11-5.18,1.39-7.79.62-5.73,2.06-6.91,7.77-6.26-.7,2.43-1.74,4.86-2,7.37-.12,1.19,1.28,2.54,2,3.81,1-1.09,2.92-2.14,3-3.29a43.44,43.44,0,0,0-.48-11.85c-1.59-7.12-4.14-14-5.85-21.1-1-4.12-1.08-8.26,4.11-10.43,1.41-.59,2.16-2.8,3.18-4.29s2-3,3-4.52c.64-1,1.18-2.15,1.76-3.24-1.36-.11-2.87-.66-4.07-.26-4.07,1.37-8,3.29-12.06,4.57-3.26,1-4.52,2.4-2.81,5.74a27.11,27.11,0,0,1,1.47,5,8.13,8.13,0,0,1-1.54.31c-.32,0-.77-.06-.93-.27-3.65-4.88-7-2.11-8.93,1.15a25.21,25.21,0,0,0-3.25,11.52c-.11,4.72,1.29,9.48,2.21,15.32-3.17-6.29-4.82-12.84-13.61-12.34,1.58-3.08,2.6-5.09,3.64-7.11,2.88-5.6,6-11.09,8.56-16.86,1.74-4,3-8.29-1.63-11.74-.73-.54-.88-2.44-.59-3.52.14-.51,1.93-.7,3-.82a37,37,0,0,1,3.8,0c.1-.45.19-.91.28-1.36l-4.37-2.9,3.54-3.33-.72-1.3-8.11,3.94c.59-4.49,3.6-6.27,14.11-7.63.43-1.58.86-3.17,1.38-5.12,1.25,1.76,2.15,3,3.41,4.84a20.77,20.77,0,0,0,2.17-2.8c5.36-10.68,10.8-21.33,15.87-32.14a13.11,13.11,0,0,0,.6-7.34c-1.38-8.35-3.25-16.62-4.71-25-.73-4.2-2.89-6.28-7.1-7-4.36-.78-8.57-2.25-11.12-6.21l.6-1.81,14.63,4.42c-4.07-6.61-10.66-6.54-16.14-9.87-2.13-6.18-9-.8-14.41-4.4l12.79-3c-2.78-1.06-4.79-1.94-6.87-2.59-2.6-.81-6.69-.76-5.45-4.74s4.66-1.26,7.19-.81a4.59,4.59,0,0,1,.95.31c4.78,1.95,9.43,3.84,14.88,1.86,1.67-.61,4.15.62,6.13,1.35a53.5,53.5,0,0,1,9.08,4,152.6,152.6,0,0,1,13.4,9.26c1.17.89,1.5,2.87,2.34,4.61,2.8-7.67,4.85-13.24,6.85-18.81,1.76-4.93.47-6.48-4.75-5.78a17.84,17.84,0,0,0-2.44.48c-8.27,2.27-12.1,1-16.5-6.54-1.9-3.26-3.32-6.25-7.7-6.63-1.29-.11-2.43-2-3.64-3l.6-.84,9.62,1.07-5.31-9.56c5,1,9.36,1.42,13.34,2.87,5.4,2,10.44,4.93,15.78,7.13,6.87,2.82,9.29,1.83,10.65-5.35,1.63-8.59,7.26-17,1.58-26.09-7.33,2.6-11.67.59-15.42-7.67l3.94.25c3.48.24,7.47,1.07,8.85-3.37,1.26-4-1.6-6.44-4.62-8.5-1.75-1.2-3.42-2.52-5.13-3.79l.72-1.17,8.91,3.45,1.1-.76c-2.55-4.1-4.57-8.69-7.78-12.19a71,71,0,0,0-14-12c-9.33-5.93-15.74-15.51-26-20.19-2.24-1-4.18-2.69-6.33-3.94-8.21-4.77-16.5-9.41-24.65-14.28-1.85-1.09-3.28-2.88-5.55-4.94,7.64,1.85,14.29,3.14,20.75,5.1,15.56,4.73,31,9.87,46.56,14.6,4.22,1.28,7.53,2.61,6,6.72,4.18,2,7.85,3.7,11.43,5.54,5.27,2.71,6.75,1.91,8.1-3.79.56-2.35,2.13-4.46,3.24-6.69l1.6.6c-.92,5.43-3,11,2.24,16.48.87-2.22,2-3.81,2-5.43.26-6.79.91-13.68.09-20.36-1-8.25-3-8.84-10.29-4.1-.36-4.71-.68-9-1.08-14.26l14,9.28c.15-2.45.43-4.74.4-7-.1-6.83-.49-13.66-.43-20.49,0-3.46-1-5.26-4.43-6.58-11-4.2-21.87-8.82-32.76-13.36-3-1.27-5.89-3.06-9-4.16-5-1.78-10.14-3.06-15.16-4.77-8.12-2.75-16.2-5.66-24.27-8.56a16.94,16.94,0,0,1-2.77-1.92c2.13-.72,3.56-1.74,4.68-1.47,4.56,1.11,9.35,2,13.44,4.17s5.84,3.3,10,1.87c-10.06-8.14-20.73-14.28-31.9-19.8-7.61-3.77-14.84-8.33-22.09-12.78-8.91-5.46-17.61-11.27-26.54-16.69-1.75-1.07-4.14-1.07-6.24-1.56l-1,1.39c2,3.05,3.9,6.09,6.15,9.62-6.06,2.24-8.44-4.4-13.17-4.63-.25,1.85-.45,3.38-.74,5.64-2.12-1.3-3.6-2.28-5.14-3.14-5.6-3.12-11-6.76-16.88-9.15-10.46-4.24-21.25-7.66-31.87-11.5-6-2.19-12-4.53-16.24-6.12.78,3.19,1.62,7.66,3.05,11.92a10.15,10.15,0,0,0,3.83,4.89c1.86,1.23,4.31,1.59,6.53,2.27,9.83,3,19.69,6,29.48,9.11,1.84.6,3.43,2,5.14,3l-.57,1.57a45.11,45.11,0,0,1-5.74-1.1c-8.83-2.92-17.59-6-26.43-8.89-1.39-.45-3.08.07-4.63.14.1,1.9-.12,3.9.43,5.65.33,1.06,1.86,1.73,2.79,2.52-3.56,5.37-4.42,5.28-8.35,1.57-2.43-2.3-5.65-3.81-8.58-5.56-3.8-2.26-8.47-3.7-11.28-6.83s-5.23-5.34-9.87-3.2c1.09-2.28,1.87-3.9,2.47-5.13l-27.41-12.39.88-2.25,28.84,9.45c-.45-3.47-.85-6.56-1.14-8.86,3.68,3.87,7.44,8.28,11.72,12.1,1.74,1.56,4.6,1.85,7,2.72-.8-2.66-.79-6.21-2.55-7.81-5.13-4.66-10.49-9.55-16.64-12.53-19.73-9.53-39.75-18.48-59.87-27.17-15.55-6.72-32.12-11.4-46.91-19.44-12.81-6.95-26.08-12.24-39.57-17.21-23.35-8.6-46.94-16.56-70.37-25-3.61-1.3-5.67-.34-6.83,3.16l-4-2.25v16.47l-1.61.23a77.7,77.7,0,0,1-1.63-8.2c-.72-7.63-3.33-14.17-11-16.95q-23.15-8.37-46.55-16c-3.43-1.13-7.27-1-10.92-1.43l-.42,1.59c6,5.46,13.23,9.89,21.12,10.69,8.3.83,11.57,9.09,19,10.33.27,0,.38,1.09.88,2.68a40.47,40.47,0,0,1-6.08-1.48c-4.58-2-9.16-4-13.57-6.27-19.6-10.22-40.35-17.1-61.91-21.62-4.35-.91-8.84-1.17-13.26-1.73-.31.67-.62,1.35-.94,2l4.9,4a20.39,20.39,0,0,1-6.06-2.08c-5.51-2.63-15.77-.93-18.57,2.95-1.68,2.33-3.68,4.43-5.65,6.77l2.28,2.73-.54,1.4c-3.78-.28-7.59-.33-11.32-.95-1.57-.26-3-1.59-4.38-2.64a12.64,12.64,0,0,1-2-2.57c1.13-.32,2.42-1.12,3.37-.83,1.65.5,3.1,1.68,5,2.79l1.17-5.82,4.24.55,5-6.92c-1.55-4.23-5.58-5.57-10-6.14q-22.51-2.89-45-5.56a6,6,0,0,0-4.19,1c-4.11,3.57-8.7,2.74-14.28,2.39l5.19-2.75c-33.41-2.14-66.1,1.45-98.69,8.05l6.42,1.16.18,1.22-19.26,3.23,6.06,4.55c-5.21,1.06-9.08,2.39-13,2.56-13.28.57-26.61.37-39.88,1.21-6.78.43-13.46,2.46-20.87,3.91C422.41,369.57,433.72,370.85,442.5,366.3ZM-223.77,790.92c1.39-.87,1.94-1,2.18-1.39,8.71-13.54,17.54-27,25.93-40.75,1.62-2.64,1.69-6.34,2.08-9.6s-1-4.65-4.51-3.75c-1.61.42-3.42.07-5.13.07l-.82-2c7.36-.4,11.51-3.93,12.26-10.83,0-.23.47-.43.75-.61,3.73-2.41,3-5.73,2.1-9.41l-7.29,4.54-4.06-17.47.89-.69,3.73,5,17.79-26.83c-5.25-5-9-5.64-14.36-1.69a125.07,125.07,0,0,0-10.59,9.09,23.16,23.16,0,0,0-2.87,4l.85,1.07,11.32-2.75c-2.37,2-3.6,3.46-5.12,4.37-7.39,4.44-10.32,12.38-14.9,19-2,2.91-1.57,6.41,1.72,8.26s5.18-.65,6.74-3.24c.71-1.17,1.55-2.26,2.32-3.39l1.7.85c-2.61,6-4.91,12.12-7.9,17.9-3.54,6.84-6.92,13.59-7.37,21.5a15.44,15.44,0,0,1-2.3,7C-224.65,768.86-223.85,779.44-223.77,790.92Zm716-449.32c-9.81,1.53-18.39,6-28,4.49-2.11-.33-4.7.56-6.67,1.63a17.36,17.36,0,0,0-5.87,5c-.65.94,0,3.84,1,4.62,1.3,1,4.62,1.67,5.22.94,4.11-4.95,8.59-2.62,13.27-2-1.68,3.07-3.26,5.43-4.23,8-.33.88.81,3.34,1.34,3.36,3.93.15,7.87-.15,12.76-.34l-4.33-7.87c28.94-7.55,58-11.33,87.55-14.67-2.12-3.63-.58-5,3-5.15-9-4.93-19.45-4.87-24.39-.33-5.78-6.47-12.93-3.31-19.68-2.8l7,2.24c-6.68.85-13.49,4.83-19.37-1.39-.56-.59-1.9-.64-2.87-.62q-12.44.23-24.88.61c-.25,0-.49.63-1,1.26Zm-548.09,254c5.8.82,15.69-2.16,16.75-5.84,1.45-5,5.34-7,9-9.44,11.16-7.55,22.38-15,33.56-22.5A29.61,29.61,0,0,0,6,555.54l-.66-.93-57,33.63c.49-2.59.79-4.16,1.39-7.3-13.48,13.23-30.08,18.63-45,26.14,3.8,1.39,7.33,1.84,9.73,3.73,4.42,3.49-3.54,5.58-1.43,10.18l24.79-21.14c-2.27-2.84-.55-5.45,6.23-8.55ZM333.94,266.7l1,.8a77.38,77.38,0,0,0-9,1.27c-2.23.56-4.18,2.33-6.41,2.78-5.34,1.08-10.79,1.67-16.18,2.52a5.49,5.49,0,0,0-1.71.89c-1.64,1-3.25,2.05-5,3.14v10.58c4.45-.83,9.07-1.19,13.34-2.61,6-2,11.67-4.72,17.46-7.2,7.77-3.33,15.62-6.49,23.21-10.19,2.55-1.24,4.39-3.9,7.26-6.56h3c-.87-6.1-2-7-7.32-5.45a155.92,155.92,0,0,0-16,5.51C336.06,262.84,335.16,265.14,333.94,266.7Zm980,392.74-5.28-9.26-5.12,42.67,2,.57,4.63-9.66c1.29,2.13,2.43,4,3.58,5.89l1.39-.1c.56-6.08,1.12-12.16,1.81-19.63,1.43,2.1,3.29,3.61,3.42,5.26.3,3.94-.26,7.94-.38,11.92-.08,2.93,0,5.86,0,8.79l1.5.26c.66-1.71,1.85-3.41,1.89-5.14.32-13.47.54-27,.42-40.42,0-1.84-1.73-4.83-3.22-5.22a5.62,5.62,0,0,0-7.18,3.81C1317.91,652.05,1317,655.33,1314,659.44ZM743.2,1220c-3.3,3.6-3.31,7.57-1.24,10.68,1.23,1.87,4.5,2.88,7,3.3a37.6,37.6,0,0,0,9.94,0c1.37-.15,2.62-1.45,3.92-2.23-1.08-1.34-2-3-3.28-4s-3.16-1.45-4.77-2.14c.18-.8.35-1.59.53-2.39l15.16,1.2c-1.13,2.14-1.68,3.2-2.2,4.19,4.37.67,8.45,1.5,12.57,1.83,2,.16,4.07-.62,6.11-1-.87-2.32-1.1-5.88-2.73-6.73-3.87-2-8.41-2.7-13.4-4.14v-3.41l-23.48,6.54-.81,1.9,4.46,1.76-.67,1.35-5.58,1.25C744.15,1224.83,743.67,1222.4,743.2,1220ZM362.37,366.2l-.74-2.15a34.7,34.7,0,0,0-4.68.67c-8,2.22-15.88,4.8-23.93,6.73-7.77,1.87-15.73,2.91-19.26,11.78-.67,1.68-2.8,2.77-4.2,4.18-.82.82-1.52,1.75-2.28,2.63l.79,1.09C326.51,383.55,345.85,377.88,362.37,366.2Zm941.25,381.08a9.33,9.33,0,0,0-.17-2.46c-1.63-2.92-3.32-5.8-5-8.69-2,2.4-4.52,4.56-6,7.28s-2.23,5.68.14,9.38c1.57,2.45.28,7.15-.57,10.64-1.6,6.59-4,13-5.66,19.57-.37,1.42.71,3.21,1.12,4.83,1.33-.71,3.35-1.08,3.89-2.18A144.54,144.54,0,0,0,1303.62,747.28Zm-9.42,46c-.28,1.41-.61,2-.44,2.32a84.67,84.67,0,0,0,24.28,27.3c1,.75,3.61-.64,5.48-1l-.31-1.13,4.51,2.08c.75-1.74,2-3.45,2.14-5.23.34-5.07-1.31-9.75-5.52-12.67a12.45,12.45,0,0,0-8.11-2.27c-3.75.55-2.54,4.34-2.72,7,0,.21-.41.38-1,.92ZM54.94,587.37l-1-1.17a17.54,17.54,0,0,0-2.77.89C35.8,594.92,20.45,602.87,5,610.6c-3.49,1.75-7.4,2.64-11,4.12-3.33,1.35-6.89,2.52-9.7,4.63-1.58,1.19-1.87,4.12-2.74,6.27,2.28-.1,4.86.46,6.78-.43,6.89-3.17,13.64-6.68,20.28-10.35q20.52-11.36,40.84-23C51.43,590.64,53.1,588.86,54.94,587.37ZM1236.35,812.63l2.09.35c1.11-4.56,2.2-9.13,3.33-13.68,1.37-5.56-.53-12.32,6-15.54-1.7-2.31-3.52-4.07-4.45-6.21-2.27-5.2-5.29-7-11.27-6.08-.12,2.23.55,5-.5,6.58-2,3.14-1.11,5.7.17,8.41,1.42,3,3.35,5.79,4.5,8.88.6,1.62.74,4.38-.21,5.43C1231.93,805.22,1234.06,808.85,1236.35,812.63ZM480.94,967.07c-.41.85-.82,1.7-1.24,2.55,1,.31,2,.56,2.95.92,5.57,2.12,11.22,4.06,16.68,6.43,6.78,2.95,13.44,6.17,20.07,9.43,3,1.45,8.74.34,11.74-2.74-.74-.63-1.36-1.53-2.21-1.84-13.68-5-27.36-9.94-41.14-14.66C485.74,966.46,483.24,967.07,480.94,967.07ZM377.13,501.91a43.3,43.3,0,0,1,4.2-2.64c1.87-.85,3.91-2.24,5.76-2.09,11,.94,18.2-5.12,24.54-12.74,1.66-2,2.38-4.8,3.4-6.95l-20.57,10.33c0-.13.15,1.08.32,2.33C385.09,489.05,377.23,493.74,377.13,501.91Zm-621,287.59-1.81.27c.76,10.87,1.44,21.75,2.4,32.61.08,1,1.9,1.74,2.91,2.61,1-1.39,2.72-2.75,2.78-4.18A68.59,68.59,0,0,0-243.86,789.5ZM1193.71,425.77c2.82.37,5.08.63,7.34,1,2.43.36,4.86.82,7.3,1.14,2.05.27,4.12.4,6.18.59a64.51,64.51,0,0,0-3.3-6.14,7.33,7.33,0,0,0-2.89-1.86c-4.06-2.05-8.08-4.22-12.27-6-1.57-.65-3.57-.26-5.37-.34l.06,1.42C1198.11,418.3,1198.11,418.3,1193.71,425.77ZM-130.75,670.19l-1.54-1.05-21.58,24.94,1.25,1.32c5-4.18,10-8.4,15-12.51a44.78,44.78,0,0,1,5.26-3.54c3.27-2,6.59-3.88,9.9-5.81l-.87-1.56-8.21,3.31ZM610.11,441.38c-1.3-.86-2.72-2.58-3.86-2.42-8.07,1.15-16.08,2.69-24.11,4.11a3,3,0,0,0,2.29,1.6c7.56.58,15.12,1.23,22.69,1.6,4.55.23,7.78-4.28,5.91-9.16ZM454.75,325c-4.6-1.57-8.13-2.89-11.76-3.9a4.48,4.48,0,0,0-2.84,1c.71,3.92,1.63,7.8,2.51,11.69,2.25-.89,4.74-1.43,6.69-2.76S452.44,327.69,454.75,325Zm135.31,128-.08,2.66c10.74,0,21.48,0,32.21-.08,1,0,2-1.13,3-1.74l-.39-1.55A105,105,0,0,0,590.06,453.07ZM-44.8,646.13l1.59,1.76,23.37-16.95c-7.85,0-14.72-1.68-17.4,7-.43,1.41-2.26,2.36-3.4,3.57C-42,643-43.41,644.58-44.8,646.13Zm1400.23,69.46-1.31.62c-.84,5.37-1.81,10.72-2.45,16.12-.16,1.43.36,4,1.09,4.24a6.18,6.18,0,0,0,4.94-.88c1.33-1.12,2.76-3.51,2.44-5C1359,725.6,1357.06,720.63,1355.43,715.59ZM601.63,326.38l-.3,1.48c9.41,8.29,19.67,9.5,23.68,1.57Zm643.53,531.07-1.45-1c-4.12,5.08-8.39,10-12.23,15.32-.63.87.2,3.42,1.13,4.54.44.52,3.31,0,4.1-.92C1241.21,870.2,1243.41,863.9,1245.16,857.45ZM-276.6,656.65l-1.5-1.11A50.38,50.38,0,0,0-295.7,671c-.56.78-.08,2.31-.09,3.49,1.14-.25,2.56-.17,3.35-.83A68.19,68.19,0,0,0-286,667.4C-282.83,663.88-279.74,660.24-276.6,656.65ZM1305.72,801.33l1.83.64a33.57,33.57,0,0,0,6.42-21.65c-.13-2.2-3.87-4.3-6.17-6.17-.39-.32-1.88.72-2.87,1.14.52.9.87,2.42,1.57,2.59,4.72,1.22,4.64,4.86,4.13,8.34-.38,2.54-1.73,4.94-2.56,7.43S1306.5,798.77,1305.72,801.33Zm-1453.2-247.2c.18-3.15-1.3-4.73-4.15-3.09a38,38,0,0,0-7.64,6.19c-.84.84-1.41,3-.91,3.86s2.49,1.69,3.83,1.71C-152.17,562.89-147.7,558.34-147.48,554.13Zm513,35c.1-3.87-7-11.13-9.73-10.55a4.58,4.58,0,0,0-2.76,3.2c-.44,3.62,5.2,9.52,8.78,9.24C363.26,590.92,364.61,589.63,365.52,589.14ZM119.33,456.72l-18.49,15.73C110.22,472.66,120.61,463.77,119.33,456.72Zm433.43.36c9,4.12,14.81,1.25,20.25-8.54C564.11,445.69,561.38,456.12,552.76,457.08Zm68.15-11.22,12.74,4.64,3.45-3.63C626.93,439.83,625.27,439.7,620.91,445.86Zm643.36-4c-6.89-1.21-11.31.6-12.15,4.52-.34,1.59.67,3.67,1.58,5.23.27.46,2.84.37,3.41-.28C1259.51,448.61,1261.55,445.55,1264.27,441.88Zm-1428,235.76-1.19-.59c-1.12,5.66-10.06,4.63-9.46,11.74,3.58-1.57,7.09-3.09,10.58-4.63,4.14-1.84,7.31-4.56,8.64-8.92l-1.41-1.42-6.42,9.07-1.39-1.11Zm1475.08-34.19c3.09-1.71,8,1.14,8.24-4.59a7.83,7.83,0,0,0-6.84-8.45l4.23,5.92-6.27-1.09c-.14.46-.36.78-.33,1.08C1310.66,638.43,1311,640.54,1311.37,643.45ZM278.7,397.26c-4.08-.51-9.73,2-9.08,4.77s3.95,4.83,5.91,7C276.75,404.51,277.68,401.07,278.7,397.26Zm-88.56-70.79c6.23-.81,12.66-1.3,17.87-7.39C199.76,318.07,195,322.32,190.14,326.47Zm1117.8,289.72c1.19-4.68,1.17-8.21-5.1-9.75,1,4.84,1.73,8.79,2.75,14l9.47-5.87-1-1.73ZM368.3,390.46l-20.08,4.66C354.82,399.62,360.6,398,368.3,390.46Zm943.8,363.45-1.72-.47-7,11.85c.8.55,2.2,2.26,3.51,2.19,1.16-.06,2.81-1.92,3.21-3.29A100.32,100.32,0,0,0,1312.1,753.91ZM655.38,1107.73l.5-1.51L639.57,1101C643.41,1107.78,648.76,1109.7,655.38,1107.73ZM1333,639a35.56,35.56,0,0,0-1.29-5.46,18.42,18.42,0,0,0-2.54-3.65c-1.24,1.23-3.35,2.32-3.56,3.71C1324.94,637.71,1327.93,639.62,1333,639ZM1228.6,430c2.45-6.61-1.1-9.46-10.95-9.43ZM785.11,502.7c-.39.49-.79,1-1.19,1.46q9.65,6.33,19.27,12.68c.43-.69.86-1.37,1.3-2.05ZM348.79,615.29l1.56.1q2.4-5.89,4.81-11.77c-4.85-2.13-6.23-1.37-6.35,3.45C348.74,609.81,348.79,612.55,348.79,615.29Zm958.05,168.82c-4.71.9-8.07,7.23-6,10.61.3.49,3.09.29,3.22-.08C1305.17,791.27,1305.93,787.79,1306.84,784.11ZM919.27,1085.54l-.57-1.34c-3.52.6-7.07,1-10.53,1.87-1,.23-1.69,1.59-2.52,2.43,1.09.67,2.5,2.16,3.23,1.88C912.44,1089,915.82,1087.2,919.27,1085.54ZM1334.3,708l3.3-.38q-1.35-7.85-2.71-15.68l-1.86.24Q1333.66,700,1334.3,708ZM1261,746c0-.54,0-1.09,0-1.64-1.76-.85-3.46-2.19-5.28-2.37-.93-.1-2.07,1.87-3.11,2.91,1.36,1.12,2.6,2.89,4.12,3.17C1258,748.29,1259.58,746.75,1261,746ZM597.09,333.39l-.19-1.54c-1.9-.27-4.14-1.28-5.58-.6s-2.19,3.05-3.24,4.68c1.6.14,3.32.71,4.75.29S595.68,334.37,597.09,333.39Zm935.34,402.85,2.07.61a53.6,53.6,0,0,0,3.65-6.23c.38-.89-.31-2.25-.51-3.39-1.2.34-3.19.4-3.44,1.09A56.44,56.44,0,0,0,1532.43,736.24ZM158.68,438.47l-9.27,6.66C157.34,447.38,159.64,445.63,158.68,438.47ZM256,300.15c-3.91-.89-6.63.31-7.9,4-.18.52,1.14,2.25,1.75,2.24C253.69,306.3,256,304.44,256,300.15Zm291,31.16h15.18C557,327.72,552.22,329,547,331.31Zm778.71,439.34c2.39-4.09,2.08-6.78-1.57-7.53-1.15-.23-2.58.92-3.88,1.43Zm-1748.45,68.5,2.93-3.75-1.13-1.09c-1.52,1.59-3.29,3-4.43,4.84-.39.6.65,3.08,1.31,3.2a39.55,39.55,0,0,0,7,.15l0-1.38Zm960-371.52-.27-1.52c-4.29-.07-8.81-1-12.06,2.72l.48,1.83ZM497,477.6c3.44,3.67,5.69,4.29,7.64,1.9.71-.87.09-2.81.08-4.27Zm139.51-36,10.38-.54C643.14,436.33,639.8,438.89,636.48,441.62Zm816.78,196.9-1.42.62c-.57,5.23,1,8.11,6.74,10ZM-105.3,735l-1.45-1.13-10.37,13.32,1.48,1.15ZM519.14,468.8l-8,4.69,1.21,1.94c2.27-1.54,4.55-3.09,6.82-4.66A10.37,10.37,0,0,0,519.14,468.8ZM749.33,260.89l.56-2.17-12.22-3.2-.54,2ZM1283.85,802.7c1.43-2.47,2.69-3.66,2.59-4.74-.11-1.37-1.32-2.64-2.06-4-.9,1-2.41,1.94-2.52,3C1281.73,798.36,1282.76,799.82,1283.85,802.7Zm-1583-129.76c-2.91-1-4.34-2-5.68-1.89-1.11.1-2.1,1.48-3.14,2.3,1.29.73,2.55,1.94,3.9,2.06C-303,675.51-301.75,674.31-299.16,672.94Zm1614.43-46.61,1.65-1.37c-.42-3.27-2.3-4.92-7-3.51ZM366,514l-1.18-1.34-5.25,4.94C364.57,519.62,365.46,517,366,514ZM-93.77,618.76c-1.37,2.07-2.5,3.33-3,4.81-.18.5,1.18,1.55,1.83,2.34a38.9,38.9,0,0,0,3.59-4.13C-91.22,621.55-92.49,620.34-93.77,618.76Zm475-28.25,1.83-2.24-5.93-4.68-1.7,2.09Zm940.13,193.62c4-5.47,1.19-7.34-3-9.92Z" transform="translate(435.62 -170)"/><path class="cls-1" d="M1588.5,871c-2.71,1.32-5.49,2.51-8.1,4a142.13,142.13,0,0,0-12.17,7.48c-3.56,2.54-6.72,5.62-10.52,7.95a92.13,92.13,0,0,1,22.71-22.29c1.24-.86,2-2.45,3.33-3.11s3.15-.72,4.75-1Z" transform="translate(435.62 -170)"/><path class="cls-1" d="M158.72,317.45a23.73,23.73,0,0,1,3.13-2c5.55-2.52,11.11-5.06,16.76-7.35,1.51-.6,3.37-.33,5.07-.47-.18,2,.4,4.92-.71,5.9a16.2,16.2,0,0,1-7.69,3.45c-3.74.65-7.83-1-10.93,3-.57.73-3.74-.6-5.71-1C158.67,318.44,158.69,318,158.72,317.45Z" transform="translate(435.62 -170)"/><path class="cls-1" d="M271,263c9.1-9.31,22-9.75,33.28-14.07.27.6.54,1.2.8,1.8l-33.28,13.76Z" transform="translate(435.62 -170)"/><path class="cls-1" d="M-52.33,496.54c-6.6-8-13.38.88-21.2-1.14,1.47-1.82,2.44-4.23,3.79-4.47,5.13-.93,10.43-1.75,15.58-1.43C-50.29,489.74-49.64,492.79-52.33,496.54Z" transform="translate(435.62 -170)"/><path class="cls-1" d="M267,265.94l-20.94,8.34-.81-2c6.18-4.84,13.75-6.27,21.11-8.2C266.59,264.7,266.8,265.32,267,265.94Z" transform="translate(435.62 -170)"/><path class="cls-1" d="M257.42,278.16c4.73-5,13.3-6.35,18.31-2Z" transform="translate(435.62 -170)"/><path class="cls-1" d="M148.24,329.91l-7.19-4.46,3.21-3.21c1.86,1.89,3.72,3.79,5.59,5.68C149.31,328.58,148.77,329.24,148.24,329.91Z" transform="translate(435.62 -170)"/><path class="cls-1" d="M6.42,442.82l-3.85,3,2.91,3.86-7,2.06C-1.61,446.53.31,444.15,6.42,442.82Z" transform="translate(435.62 -170)"/><path class="cls-1" d="M-53.67,506.14l-10.13-5.91C-58.45,498.91-55.39,501.4-53.67,506.14Z" transform="translate(435.62 -170)"/><path class="cls-1" d="M87,364.55l7.15-6.79,1.53,1.55-6.93,7Z" transform="translate(435.62 -170)"/><path class="cls-1" d="M1362.76,469.5l-14.33,16.22a22.69,22.69,0,0,0,2.46.3c8.86.18,9.41.77,8.44,9.49a35.53,35.53,0,0,1-1,6.38,3.71,3.71,0,0,1-2.51,1.9c-.54.12-1.58-.92-2-1.66-2.56-4.33-5-8.73-7.51-13.09a20.37,20.37,0,0,0-1.57-1.93c-5.47-7.27-4.45-9.76,4.64-10.76,3.37-.37,5.66-.35,5.62-5.24s4.55-2.22,7.06-3Z" transform="translate(435.62 -170)"/><path class="cls-1" d="M1534.4,795.73c-1.68-3.65-3.11-6.52-4.34-9.48-1.32-3.16-2.53-6.32-6.91-5.64.25-9.77-2.48-12.23-13.12-11.34,3.8-3.65,7.25-6.16,12.51-3.91a13,13,0,0,0,4.55.59c2.05,4,3.41,8,5.85,11.18C1537.87,783.52,1539.05,789.92,1534.4,795.73Z" transform="translate(435.62 -170)"/><path class="cls-1" d="M1383.54,504h-13.76c-.09,1.24-.23,3.42-.34,5.14l-15.5,3.79-.75-1.28c1.72-1.09,3.67-1.94,5.09-3.33s3.28-3.3,3.42-5.09c.44-5.63,1.66-6.91,9.36-9.53,4.56-1.55,6.9.6,8.93,4C1380.91,499.22,1381.76,500.8,1383.54,504Z" transform="translate(435.62 -170)"/><path class="cls-1" d="M1538.05,849.26c5.64,7.48,9.25,15.29,6.07,24.29l-2,.37Q1540.06,861.59,1538.05,849.26Z" transform="translate(435.62 -170)"/><path class="cls-1" d="M1569.23,837.09l7.51,19.76C1568.07,853.39,1564.79,844.28,1569.23,837.09Z" transform="translate(435.62 -170)"/><path class="cls-1" d="M1204.07,374.62c-.17,1.72-.33,3.31-.48,4.83,2.91.34,6.31-.18,8.16,1.27,1.32,1,.58,4.72.78,7.48C1203.06,385.9,1199.39,379.56,1204.07,374.62Z" transform="translate(435.62 -170)"/><path class="cls-1" d="M1254.3,379.93l12.94-4.37c.11,2.2.23,4.6.4,8.12Z" transform="translate(435.62 -170)"/><path class="cls-1" d="M1360.2,459.21l-6,7.6c-.9-3.36-1.43-5.37-2-7.38l7-1.78Z" transform="translate(435.62 -170)"/><path class="cls-1" d="M987.41,257.93a37.61,37.61,0,0,1,6.51-1c1.14,0,2.29,1.13,3.43,1.75-1.07,1.07-2.24,3.12-3.19,3-2.39-.26-4.67-1.48-7-2.32Z" transform="translate(435.62 -170)"/><path class="cls-1" d="M1001.84,311.2c-3.84-2-8.81-3-8.45-8.71C993.9,307.67,1002.34,305.2,1001.84,311.2Z" transform="translate(435.62 -170)"/><path class="cls-1" d="M1507.3,645.61c8.68,3.45,9.77,5.27,6.13,9.67Z" transform="translate(435.62 -170)"/><path class="cls-1" d="M742.71,224.78a56.08,56.08,0,0,1,7.12.89c.74.18,1.16,1.65,1.73,2.53-1.06.49-2.34,1.62-3.13,1.34a43.23,43.23,0,0,1-6.22-3.23Z" transform="translate(435.62 -170)"/><path class="cls-1" d="M1226,377.84c3.39.07,5.8,4.75,9.6-.11-.41,2-.83,3.95-1.52,7.28Z" transform="translate(435.62 -170)"/><path class="cls-1" d="M743.34,775.86c-.74-1.44-1.23-3.12-2.29-4.26a29.78,29.78,0,0,0-4.64-3.46c-.72,1.62-2.32,3.45-2,4.85,1.53,6.94-.63,12.65-4.45,18.29A63.57,63.57,0,0,0,723.32,804c-1.57,4.07-7.2,6.08-5.8,11.58,0,0-.87.22-1.28.43-6.76,3.45-7.74,5.56-6.79,12.77a6.34,6.34,0,0,1-1.6,4.55c-4,4.19-7.65,9.1-12.49,11.94-13.3,7.83-26.82,15.45-42.33,18.32-7.34,1.36-14.73,2.54-21.94,4.39-2.37.61-4.17,3.24-6.42,4.63a8.14,8.14,0,0,1-4.32,1.21c-6.81-.26-7.51,0-7.27,7,.19,5.59-.67,10.57-4.53,14.77-.53.56-1.16,1-2.36,2.09-.16-3.67-.3-6.63-.43-9.59-.45-.24-.91-.47-1.37-.7l-1.82,3.88-1.2-.56c-.44-5.7-.76-11.41-1.35-17.09-.58-5.52-2.49-7.09-9.06-7.54q-.71,4.67-1.41,9.47c-1.43-2.64-2.84-5.23-4.25-7.81-.65.36-1.3.72-1.94,1.09-2.15,7.41,5.27,9.51,9.49,14.12-1.71.19-3.05.36-4.41.48-5.65.5-7.09,3.08-3.89,7.89,2.1,3.15,4.94,5.81,7.5,8.65,2,2.24,3.18,3.94.75,7.2-1.61,2.17-1.43,6-1.3,9,.25,5.79,1,11.55,1.63,17.55-4.55.18-6.71-1.79-7.16-5.66-1-8.74-1.67-17.54-3-26.23-.87-5.69-2.67-11.23-4.32-17.91-10.18,0-20.16.11-30.12,0-19.5-.27-36.57-8.15-52.62-18.13-10.33-6.42-20-14-29.47-21.7-5-4-9.16-9.16-13.3-14.13a19.5,19.5,0,0,1-3.55-7.59c-1-3.89.94-5.65,4.88-5.07,10.9,1.59,11.86.65,9.29-10.16-1.11-4.67-2.8-9.21-4.29-13.79-1.79-5.54-4.61-9.56-11.23-10.38-5.12-.63-7.26-5.48-8.07-9.82-2.05-10.91-4-21.91-4.82-33-1.31-18.5-.49-36.91,5.94-54.69,1.2-3.32,1.09-7.12,1.59-10.77,3.22,3.3,5,1.2,5.42-2.58.67-6.76,1-13.56,1.26-20.35.19-4.67-.13-9.11,4.9-12.14,3.29-2,3.38-8.24,1.08-12.49-.7-1.3-1.63-2.48-2.87-4.32,2.11-1,3.9-2.09,5.85-2.55,4.25-1,6.16-3.72,6.28-7.84s.91-7.75,4.86-10.29c1.22-.78,1.32-3.33,2.25-6,2.31,1.19,5.07,2.35,7.56,3.94,2.75,1.76,5,1.6,8.26.66,6.78-1.94,14-2.46,21-3.66,8-1.36,15.94-3,24-4.15a54.83,54.83,0,0,1,11.24-.34c8.39.52,16,3.26,23.42,7.41,5.82,3.23,12.7,4.54,19.1,6.71l-.06,1.52c-2.45,0-5-.31-7.34.09-2.09.35-4,1.51-6,2.31,1.65,1.45,3.28,2.93,5,4.35a7,7,0,0,0,1.35.62c2.46,1.29,4.89,1.68,6.59,5.09,1.36,2.71,6.69,3.65,10.41,4.93,4.42,1.52,9,2.53,13.51,3.82a27.31,27.31,0,0,0,7.92,1.56c-4.88-11.69-17.74-12.94-25.32-21.22,2.31.94,4.69,1.71,6.9,2.84,8.14,4.16,16.18,8.49,24.33,12.64,2.91,1.48,5.54,2.64,9.12.13,1.49-1,5.69,1.1,8.28,2.49a78,78,0,0,1,10.59,7.11,8.39,8.39,0,0,1,2.71,4.36c2.18,9,7,12,17.57,8.73l-7.23-3.84c.53-.68,1.07-1.35,1.61-2,2.52,1.34,5,2.87,7.58,4,5.43,2.29,11,4.22,16.39,6.6a14.38,14.38,0,0,1,4.92,3.9c2.79,3.33,4.74,7.56,8,10.25,5.2,4.27,9.92,8.48,13.06,14.72a30.53,30.53,0,0,0,14.62,14.49,6.05,6.05,0,0,1,3,4.15,169,169,0,0,1,1.36,21.77c-.06,2.62-2.35,5.61-4.39,7.66-4.11,4.13-4,6.45-.91,11.11,2.4,3.6,3.6,8.11,4.83,12.37,1.34,4.64,1.35,9.44,6.35,12.68,2.38,1.55,2.95,5.9,4.34,9Z" transform="translate(435.62 -170)"/><path class="cls-1" d="M890.24,644.76l4.77-8.15-.77-.66-3.73,2.27c.5-6,1.18-11.23,1.24-16.46,0-1.89-1.42-3.8-3.24-5.09,1.17-2.94,2.35-5.87,3.67-9.15,1,.06,1,.06,3.7,10.68l3.93-4.21c1.27,8.58,2.84,17.44,3.77,26.36.29,2.78-1.6,5.72-1.65,8.61a181.43,181.43,0,0,0,.65,18.94c.12,1.4,2.22,2.56,3.24,4,1.38,1.87,3.38,3.71,3.75,5.81,1.93,11,3.94,21.94,4.94,33,1.16,12.92,1.56,25.93,1.79,38.91.1,5.81,1.69,12.76-6.32,15.61-.19.07,0,3,.73,3.5,1,.72,2.79.46,4.72.67-7.43,5.52-10,12.84-9.45,21.47a3.79,3.79,0,0,1-.29,1.87c-4.84,8.86-9.5,17.83-14.68,26.49-3,5.08-7,9.64-10.45,14.47-.81,1.12-1.44,2.36-2.59,4.29h7.2l.34,1.24-7.68,2.35a23.81,23.81,0,0,1-.1,5.29c-.31,1.43-1.48,3.74-2.32,3.76a7.41,7.41,0,0,1-5.09-2c-.72-.74-.48-3.27.25-4.39,1.39-2.13,3.45-3.83,5.92-6.45l-9.89,1.09c1.9-2.59,3.27-4.13,4.29-5.87,3.51-6,6.78-12,10.38-17.93a100.27,100.27,0,0,1,6.14-8.18c2.21-2.87,5-5.47,6.54-8.65,3.39-6.93,6.17-14.15,9.4-21.72-6.12-1-10.36-1.38-11.53,5.06-.25,1.33-2.2,2.3-3.23,3.55-1.33,1.6-2.55,3.3-3.79,5-.75,1-1.37,2.88-2.21,3-4.52.53-5.26,4.17-7.05,7.3-2.95,5.15-6.52,9.95-10.47,15.86l7.75-1.7c-1.55,3.08-2.76,5.44-7.31,5-3.89-.42-8.06,1.72-12,2.7,3.42-7.1,14.79-10.87,11.16-22.26,1-.32,1.7-.6,2.44-.77a5.46,5.46,0,0,1,1.17-.16c2.27-3.15,4.28-5.7,6-8.43,1.94-3,3.32-6.49,5.49-9.35,14.38-18.87,21.05-40.05,19.69-63.76a84,84,0,0,1-.25-9c0-1.13,1-3.12,1.68-3.19,6.65-.65,3.6-4.87,3.11-8.08-.66-4.36-1.71-8.68-2-13.06a5.79,5.79,0,0,1,2.53-4.33c3-1.78,3.13-1.52,2.73-5.09-8.72-.75-10.24-2.3-10.72-11.27-.23-4.15-.34-8.32-.41-12.48C896.05,647.38,895.08,644.65,890.24,644.76Z" transform="translate(435.62 -170)"/><path class="cls-1" d="M596.3,984.18c.27-5.07,0-10.5,3.26-16.45,3-5.37,2.33-12.76,3.16-19.28.08-.62-.7-1.9-1.21-2-4.67-.67-3.41-4.3-3.26-6.91.73-12.27,1.72-24.53,2.64-36.8a10.72,10.72,0,0,1,.44-1.95l11.49-3c0,3,0,5.84,0,8.73-.05,4.32-.21,8.64-.16,13,0,1.26.26,3.28,1,3.65,6.08,2.94,4.09,7.92,3.41,12.53s-1.31,9.22-2.42,13.72c-1.32,5.38-.86,10.21,4.1,15.35-6.22-2.14-5,2.14-6.16,4.93l-3.17-5.54c-7.93,4.3-9.35,8.35-4.62,13.24Z" transform="translate(435.62 -170)"/><path class="cls-1" d="M901.74,546.65c-8.59-9.12-17.27-18.14-25.72-27.39-5.38-5.89-10.11-12.39-15.7-18.05-2.76-2.8-7-4.1-10.24-6.46a39.72,39.72,0,0,1-8.77-8.65l4.09,1.13.87-1.26c-18.15-21.35-41.92-35.3-67-47.52l.79-1.05c3.12.3,6.24.6,9.37.86.25,0,.54-.3,1-.56-.65-1.54-1.32-3.1-2.08-4.89.85-.18,1.46-.52,1.7-.34,5.74,4.28,11.62,8.39,17.09,13s10.67,9.93,16.1,14.79c2.84,2.55,6,4.77,8.93,7.21A366.66,366.66,0,0,1,897,536.91c2.11,3,3.6,6.36,5.37,9.56Z" transform="translate(435.62 -170)"/><path class="cls-1" d="M418.84,412.63c-26,3.55-48.48,19.38-74.35,21.78a47.15,47.15,0,0,1-2.8-4.66,35.13,35.13,0,0,1-1.32-4.67l-7,.8-.38-1.1a29.86,29.86,0,0,1,4.9-2.71c16.63-5.55,33.52-9.51,51.24-9.3,4.74.05,9.55-1,14.23-2C408.69,409.59,413.74,409.63,418.84,412.63Zm-34.73,6.8c-4.69-3.39-9.45-2.66-12.37,1.82Z" transform="translate(435.62 -170)"/><path class="cls-1" d="M861.55,732.08c8.24,4.72,10.74,11.3,11,19q.29,10.21,0,20.46c-.17,6.89-3.32,12.59-7,18.32-5.08,7.89-9.22,16.38-13.93,24.53-.9,1.55-2.55,2.67-4.64,4.78,0-.54.28.36,0,1a22.14,22.14,0,0,1-1.92,3.32c-.71-1.1-2.24-2.46-2-3.25,1.51-4.69,2.58-9.86,5.39-13.71,6.79-9.32,11.75-19.48,14-30.54,1.25-6.11-.7-12.84-.87-19.29C861.4,748.8,861.55,740.86,861.55,732.08Z" transform="translate(435.62 -170)"/><path class="cls-1" d="M927.12,640.36v4.89c-1.4-.67-3-1-3.06-1.52-.8-4.21-4-5.7-7.19-7.87-7.21-4.89-10.08-21.06-5.57-29,5.16,6.14,10.23,12.18,15.54,18.48l-4.75,1.41c3.43,2,5.61,3.71,8.09,4.58,5.27,1.85,8.15,5.47,9.25,10.75s2.4,10.22,7.28,13.64c1.34,1,2,4,1.72,5.79s-2.32,3.23-3.58,4.83c-1.37-1.21-3.29-2.16-4-3.68-1.39-3-1.74-6.45-3.22-9.36-1.29-2.55-3.59-4.57-5.35-6.9a23.7,23.7,0,0,1-1.51-2.87c-.74-1.29-1.54-2.55-2.32-3.82Z" transform="translate(435.62 -170)"/><path class="cls-1" d="M579,1079.72c-1.22,5-5.07,0-7.5,1.56-1.33,4.88-8.43,6.75-13.8,2.74-3-2.27-5.59-2.07-8.75-1.27-4.34,1.1-8.72,2.11-13.14,2.82-3.48.55-6.85.17-9.26-4.43a42.55,42.55,0,0,1,5.5.28,18.55,18.55,0,0,0,10.61-1.1c4.61-1.66,10.53-1.07,15.54.07,6.22,1.42,10.65.28,14-6.06h-4.52l-.71-1.67c1.74-.81,3.45-2.18,5.23-2.26,1.33-.06,2.81,1.43,4.1,2.39.78.6,1.19,2,2,2.22,11.49,3.69,18.31,4,29.9,1.17-2.59-.19-5.18-.34-7.77-.56s-5.28-.53-8.1-.82c13.24-4.23,21.92-2.72,24.63,6.07C604.16,1082.76,591.69,1082.81,579,1079.72Z" transform="translate(435.62 -170)"/><path class="cls-1" d="M807.83,956.07c1-1.61,1.86-3.33,3-4.83,7.85-10.31,15.51-20.78,23.77-30.75,3.42-4.12,8.35-7,12.27-10.72a38.42,38.42,0,0,0,5.51-7.39,32.75,32.75,0,0,0,2.23-5.3l1.71.12c0,1.7.52,3.61-.1,5-1.62,3.78-3.15,7.84-5.74,10.94q-15.16,18.16-31.05,35.72c-2.92,3.25-6.77,5.64-10.2,8.43Z" transform="translate(435.62 -170)"/><path class="cls-1" d="M1126,526c7.54-1.66,14.4.68,21.23,3.91,3.62,1.7,7.52,2.78,11.28,4.19,1.38.52,2.71,1.17,4.08,1.73A98.55,98.55,0,0,0,1173,540c2.82.79,3.89,2.2,3.59,4.95s-1.78,3.65-4.47,3.16c-2.94-.53-6-.45-8.84-1.37-1.77-.58-3-2.56-4.66-3.78-1.42-1.08-3-2.7-4.5-2.73a6,6,0,0,0-4.28,2.74c-2.95,5.11-8.1,5-13.32,5.53,1.69-1.91,3.41-3.8,5.07-5.74,5-5.83,4.08-8.63-3.41-10.63-3.2-.86-6.45-1.55-9.61-2.54a12.6,12.6,0,0,1-3-2.07Z" transform="translate(435.62 -170)"/><path class="cls-1" d="M262.06,474.63c-2.29,10.51-15.24,19.85-24.47,17.07l13.84-6.21-.75-1.92c-18.5,2.36-35.27,11.32-53.86,15.37C200.6,494.38,256.65,473.63,262.06,474.63Z" transform="translate(435.62 -170)"/><path class="cls-1" d="M902.31,835.54c.37,5.47.66,9.65,1,15l3.53-4.64c2.34,3.79,1.61,16.47-1.18,18.93a4.86,4.86,0,0,1-4,.65c-4.15-1.24-6-5.58-5.62-10.47a51.64,51.64,0,0,0-.54-10.07C895,840.35,898.56,838.85,902.31,835.54Z" transform="translate(435.62 -170)"/><path class="cls-1" d="M855.7,924.41c.66-5.71,3.49-10.09,7.82-11.75,5.36-2.07,7.32-5,6.12-10.21,3.38-.67,5.9,5.76,9.37-.26l-3.46.75c-.16-.49-.32-1-.47-1.48a47,47,0,0,0,5.27-1.57c2.1-.91,4.08-2.11,6.08-3.17C885.4,904.39,865.21,923.09,855.7,924.41Z" transform="translate(435.62 -170)"/><path class="cls-1" d="M855.74,431.09c4.33-1.08,8-2.32,11.87-2.8a7.51,7.51,0,0,1,5.19,1.85,68.5,68.5,0,0,0,28.35,15c1.05.27,1.88,1.35,2.81,2.05-1,.93-1.9,2.31-3.1,2.67a5.82,5.82,0,0,1-3.79-.72c-6.45-3.18-12.62-7.08-19.33-9.55-5.08-1.88-9-6.49-15.16-6C860.43,433.69,858.14,432,855.74,431.09Z" transform="translate(435.62 -170)"/><path class="cls-1" d="M836.46,950.69c.51-1.78.58-3.87,1.6-5.27,2.89-4,6.17-7.72,9.42-11.71l10.68-2.4c-6.73,10.63-13.14,21.19-23.41,28.56l-1.5-1,4.17-7.83Z" transform="translate(435.62 -170)"/><path class="cls-1" d="M703.93,401.08c-1.95-.22-3.93-.32-5.85-.7-4.94-1-9.5-.71-13.54,2.84-2.9,2.56-5.87,2.52-9-1.13,1.85,0,3.16.26,4.31-.07a24,24,0,0,0,4.06-2c-.86-1.29-1.46-3.35-2.63-3.75-5-1.71-10.22-2.71-15.22-4.4-4.69-1.58-9.2-3.7-13.79-5.58l.67-1.61L704.52,399Z" transform="translate(435.62 -170)"/><path class="cls-1" d="M954.11,800.67c-2.18,8.5-5.53,15.81-12.09,21.21a4.72,4.72,0,0,1-4,.48c-.66-.25-1.23-2.6-.79-3.47,3.39-6.59,6.92-13.12,10.74-19.47.64-1.07,2.84-1.55,4.34-1.58C952.9,797.83,953.55,799.74,954.11,800.67Z" transform="translate(435.62 -170)"/><path class="cls-1" d="M157.8,493c2.53,4.94,2,7.67-2.32,9.61a107.08,107.08,0,0,1-14.08,4.8c-1.14.33-2.63-.56-4-.89.37-1.35.31-3.25,1.19-4a49.09,49.09,0,0,1,8.73-5.6C150.59,495.4,154.12,494.39,157.8,493Z" transform="translate(435.62 -170)"/><path class="cls-1" d="M878.37,546.08,863,540.79l1-7.59c-4.12.56-6.38-.75-6.07-5.53,5,1.54,10.42.34,12.81,7.23,1.28,3.69,5.46,6.38,8.32,9.52Z" transform="translate(435.62 -170)"/><path class="cls-1" d="M796.83,1031.29a62,62,0,0,1-33.05,12.89l-.57-1.41,32.87-13.33Z" transform="translate(435.62 -170)"/><path class="cls-1" d="M105,501.38,63.58,522.84l-1.08-2.08,41.35-21.67C104.24,499.86,104.64,500.62,105,501.38Z" transform="translate(435.62 -170)"/><path class="cls-1" d="M622.2,899.67c-.73-1-1.46-2.06-2.2-3.08l-1,.09v16.66l-1.79.18a85.3,85.3,0,0,1-1.17-8.68,62.06,62.06,0,0,1,.36-11.89c.26-1.66,2.36-3,3.62-4.54,1.1,1.47,2.73,2.81,3.16,4.45.55,2.12.13,4.49.13,6.75Z" transform="translate(435.62 -170)"/><path class="cls-1" d="M135.24,546.67,109,560.76l-1-1.78a53.29,53.29,0,0,1,26.32-14Z" transform="translate(435.62 -170)"/><path class="cls-1" d="M863.88,466.54c3.44,4.51,7,9,10.24,13.59.43.61,0,2.19-.57,3-.24.34-2,.17-2.59-.32-4.91-3.91-8.16-8.82-9.12-15Z" transform="translate(435.62 -170)"/><path class="cls-1" d="M302,509.12l-5.32-4.28.2-2,22.28-5.11c.14.49.27,1,.41,1.48C315.12,504.65,305.09,500.31,302,509.12Z" transform="translate(435.62 -170)"/><path class="cls-1" d="M422.5,405.26c7.19-6.17,16.42-5.7,24.86-7.84C440,402.84,431.86,406,422.5,405.26Z" transform="translate(435.62 -170)"/><path class="cls-1" d="M925,778.59c0-3.42.34-5.89-.09-8.21-.5-2.74-1.72-5.34-2.55-8-.37-1.21-.54-2.48-.8-3.72,1.32.25,3,.08,3.91.82C930.94,763.86,931,772.76,925,778.59Z" transform="translate(435.62 -170)"/><path class="cls-1" d="M172.92,454.3a8,8,0,0,1,8.41,5.75c.42,1.23-2.29,4.29-4.21,5.35-3.45,1.9-7.39,2.93-11.12,4.32l-1-2.13a60.62,60.62,0,0,1,6.9-3.53c6.62-2.4,6.83-3.05,1.81-7.55C173.34,456.14,173.3,455.37,172.92,454.3Z" transform="translate(435.62 -170)"/><path class="cls-1" d="M540.4,367.28c7.27-5.12,15.39-5.89,23.94-4.44C556.76,366.4,548.59,366.88,540.4,367.28Z" transform="translate(435.62 -170)"/><path class="cls-1" d="M459.7,572.45l20.59-13.53.82,1.18c-5.92,5.82-11.94,11.5-20.09,14.2Z" transform="translate(435.62 -170)"/><path class="cls-1" d="M894.46,702.31v-9.84c-1.34,1-2.48,1.8-4.2,3V685.28A10.63,10.63,0,0,1,894.46,702.31Z" transform="translate(435.62 -170)"/><path class="cls-1" d="M445.58,416.1c2.27-2.65,3.6-5.62,5.17-5.75,3.47-.3,7.07.82,10.56,2.25C457.11,417.41,452,416.2,445.58,416.1Z" transform="translate(435.62 -170)"/><path class="cls-1" d="M1235.74,682.5c3.24-3.54,6.11-3.13,9.13-.89,3.32,2.47,6.68,4.9,10,7.32.6.43,1.26.77,2.46,1.5C1247.89,692.75,1243.78,683.29,1235.74,682.5Z" transform="translate(435.62 -170)"/><path class="cls-1" d="M1154,517.28c3.17,5.19,3,10.62-.3,14.66C1149.52,528.32,1149.53,520.31,1154,517.28Z" transform="translate(435.62 -170)"/><path class="cls-1" d="M1043.56,516.59a118.18,118.18,0,0,1,11,5.06c1,.57,1,2.8,1.48,4.27-1.45,0-3.27.51-4.3-.17-3.25-2.13-6.2-4.71-9.27-7.12Z" transform="translate(435.62 -170)"/><path class="cls-1" d="M376.11,456.73c6.89-3.61,14-5.74,21.74-3.78C391.13,457.16,383.3,455.51,376.11,456.73Z" transform="translate(435.62 -170)"/><path class="cls-1" d="M87.6,562.57c.66,5.51-6.33,10.9-16.12,12.09Z" transform="translate(435.62 -170)"/><path class="cls-1" d="M897.08,834.18c-2.94-5.36-2-12.42,2.5-18.74C899.69,822.2,901,828,897.08,834.18Z" transform="translate(435.62 -170)"/><path class="cls-1" d="M343.25,523.38l-4.36-5.84L332,526.6c-2.33-3.9-.24-6.05,1.72-7.74s5.48-4.09,6.28-3.48c2.19,1.65,3.3,4.73,4.83,7.25Z" transform="translate(435.62 -170)"/><path class="cls-1" d="M775.51,907.63q8.6-9.18,17.18-18.35l1.29,1.15q-8.25,9.48-16.51,18.94Z" transform="translate(435.62 -170)"/><path class="cls-1" d="M740.43,408.77c-2.44.38-5,1.43-7.29,1-4.39-.81-8.62-2.45-12.92-3.74.09-.49.17-1,.26-1.47l20,3C740.48,407.94,740.45,408.35,740.43,408.77Z" transform="translate(435.62 -170)"/><path class="cls-1" d="M971.71,489.29l-17.3-8.45C958.75,479.12,971,485.06,971.71,489.29Z" transform="translate(435.62 -170)"/><path class="cls-1" d="M1076.62,526.05c3.3,1.63,5.62,2.66,7.83,3.91a11.6,11.6,0,0,1,2.23,2.2c-.83.64-1.69,1.84-2.49,1.8-2.54-.13-5.49-.1-7.39-1.41C1075.79,531.86,1076.62,528.5,1076.62,526.05Z" transform="translate(435.62 -170)"/><path class="cls-1" d="M859.64,847.16l-8.5-7.49,7.07-4.17c1,4,1.82,7.49,2.66,10.93Z" transform="translate(435.62 -170)"/><path class="cls-1" d="M1225.23,722.09l-21.44-10.71.89-1.8,21.41,10.61C1225.8,720.82,1225.51,721.45,1225.23,722.09Z" transform="translate(435.62 -170)"/><path class="cls-1" d="M692.74,537.46l-21.63-11.23c.3-.59.61-1.18.91-1.78l21.7,11.18Z" transform="translate(435.62 -170)"/><path class="cls-1" d="M898,555.17l-10.25-16.32,1.94-1.23q5.11,8.16,10.22,16.34Z" transform="translate(435.62 -170)"/><path class="cls-1" d="M910.4,806.85c-2.48,1.51-4.9,3.13-7.47,4.43-.57.29-2.49-.79-2.48-.83.87-2.86,1.88-5.68,2.87-8.49l1.36.24c.42,1.83.85,3.65,1.36,5.85l3.3-2.87Z" transform="translate(435.62 -170)"/><path class="cls-1" d="M582.68,367.9a11.35,11.35,0,0,1,13.71.44C592.94,371,587.6,371,582.68,367.9Z" transform="translate(435.62 -170)"/><path class="cls-1" d="M483.8,383.57l15.37-5.06.55,1.6c-4.33,3.84-9.78,4.68-15.24,5.49Z" transform="translate(435.62 -170)"/><path class="cls-1" d="M233.56,447c-3.87,4.19-8.48,3.14-13.32,2.77C224.33,445.07,228.94,444.08,233.56,447Z" transform="translate(435.62 -170)"/><path class="cls-1" d="M169.22,489.17l-5.77,1.21c3.17-3.62,6.77-4.18,10-1.64.88.68,1.2,2.09,1.78,3.17a16.63,16.63,0,0,1-4.19,1.8c-.47.07-1.32-1.65-1.8-2.65A4.86,4.86,0,0,1,169.22,489.17Z" transform="translate(435.62 -170)"/><path class="cls-1" d="M628.07,598.92,611.53,595C620.53,592.86,625.72,594,628.07,598.92Z" transform="translate(435.62 -170)"/><path class="cls-1" d="M804.33,709.65c3.57-.93,7.12-2,10.73-2.67.82-.16,1.87.92,2.81,1.43-.83.84-1.59,2.29-2.52,2.41-3.54.46-7.13.5-10.7.69C804.54,710.89,804.44,710.27,804.33,709.65Z" transform="translate(435.62 -170)"/><path class="cls-1" d="M1183.37,544.87l12.36,3.43-.36,1.43c-4.45.16-9.12,1.34-12.68-2.57C1182.92,546.4,1183.14,545.63,1183.37,544.87Z" transform="translate(435.62 -170)"/><path class="cls-1" d="M417,454.9q-1.79,4-3.55,8c-1.12-.77-3.05-1.39-3.22-2.34-.7-3.77,1.85-5.45,4.8-6.62Z" transform="translate(435.62 -170)"/><path class="cls-1" d="M496,412.57l-2.36,6.34h-6.41C489,414.82,489.76,409.76,496,412.57Z" transform="translate(435.62 -170)"/><path class="cls-1" d="M733,734.56a66.17,66.17,0,0,1,7.38,5.89c.64.65-.2,2.74-.36,4.17-1.21-.73-2.78-1.19-3.55-2.24a57.48,57.48,0,0,1-3.74-6.53Z" transform="translate(435.62 -170)"/><path class="cls-1" d="M1010.19,504.84l-12.08-6.22,1.14-2.29,12.23,5.95Z" transform="translate(435.62 -170)"/><path class="cls-1" d="M469.4,390.56l-15.6,5.71-.66-1.65L468.45,388C468.77,388.88,469.08,389.72,469.4,390.56Z" transform="translate(435.62 -170)"/><path class="cls-1" d="M520.78,416.31l-13.84.7c-.06-.71-.11-1.41-.17-2.12l13.81-1.47Z" transform="translate(435.62 -170)"/><path class="cls-1" d="M619.51,420.13l-10.68-2.85c.18-.71.37-1.42.55-2.13,4.14-1.57,7.41.57,10.6,3Z" transform="translate(435.62 -170)"/><path class="cls-1" d="M705.17,388.33H694.29C697.82,383.37,700.93,383.11,705.17,388.33Z" transform="translate(435.62 -170)"/><path class="cls-1" d="M1074.67,1017.94c2.93-1.78,5.79-3.69,8.84-5.23.79-.39,2.17.4,3.28.65-.61.85-1,2.15-1.86,2.47-3.17,1.25-6.47,2.19-9.72,3.25Z" transform="translate(435.62 -170)"/><path class="cls-1" d="M614,983.43c-1.47-3-2.94-6.09-4.55-9.4,4.84-.46,6.64,2.62,6,8.73Z" transform="translate(435.62 -170)"/><path class="cls-1" d="M749.66,1086.57c-1.22-2.49-2.54-4-2.19-4.71a10.85,10.85,0,0,1,3.75-3.65c.23-.15,2.51,1.84,2.36,2.19C752.81,1082.18,751.54,1083.74,749.66,1086.57Z" transform="translate(435.62 -170)"/><path class="cls-1" d="M341.61,490.76l10.56,7.41C345.61,498.85,341.87,496.12,341.61,490.76Z" transform="translate(435.62 -170)"/><path class="cls-1" d="M514.62,377l-10.45,3.19-.77-2.53,10.53-3.24Z" transform="translate(435.62 -170)"/><path class="cls-1" d="M549.41,1068.77c6.79-1.36,8.58-.3,10,6.19Z" transform="translate(435.62 -170)"/><path class="cls-1" d="M520.59,419.73c3,.21,6,.26,8.95.73.66.11,1.09,1.68,1.62,2.57-.81.39-1.75,1.26-2.41,1.08-2.87-.78-5.66-1.87-8.49-2.85Z" transform="translate(435.62 -170)"/><path class="cls-1" d="M781.4,461.42c-5.61,3.27-5.46-4-8.86-4.77.2-.41.39-.83.59-1.25l9.13,4.06C782,460.11,781.68,460.76,781.4,461.42Z" transform="translate(435.62 -170)"/><path class="cls-1" d="M332.21,484.28l11-3.91.83,2.28-11.08,4.11C332.7,485.93,332.45,485.11,332.21,484.28Z" transform="translate(435.62 -170)"/><path class="cls-1" d="M761.45,1065.63c-1.39,1.27-2,2.3-3,2.62a34.45,34.45,0,0,1-6,1.41,7.17,7.17,0,0,1-.62-2,42.79,42.79,0,0,1,6-2.45C758.73,1065,759.74,1065.38,761.45,1065.63Z" transform="translate(435.62 -170)"/><path class="cls-1" d="M-122.19,831.13l4.32,10.22-2.28,1L-124.5,832Z" transform="translate(435.62 -170)"/><path class="cls-1" d="M928.76,822.15q-3.24,6-6.47,12l-1.67-.86,6-12Z" transform="translate(435.62 -170)"/><path class="cls-1" d="M349.86,505.88c2.87-2.95,5.62-2.38,8.29,1.75H349.9Z" transform="translate(435.62 -170)"/><path class="cls-1" d="M842.57,828.43c3.5,4.37,3.48,7.78,0,12.54Z" transform="translate(435.62 -170)"/><path class="cls-1" d="M143.73,475.59l-10.83,4.27-.87-2.18,11-4.4Z" transform="translate(435.62 -170)"/><path class="cls-1" d="M431.23,602.27c.85-2.29,1.68-4.61,2.69-6.84a12.84,12.84,0,0,1,2.5.82c-.55,2.39-1.28,4.73-2,7.08Z" transform="translate(435.62 -170)"/><path class="cls-1" d="M878.81,484.24c3.32-.15,4.71,2.11,5.4,4.94.11.47-1.06,1.25-1.63,1.88l-5.18-5.43Z" transform="translate(435.62 -170)"/><path class="cls-1" d="M762.12,417.17l-11.57-3.58.58-1.9,11.63,3.38C762.55,415.77,762.33,416.47,762.12,417.17Z" transform="translate(435.62 -170)"/><path class="cls-1" d="M736.68,399.21l-11.62-3.41.57-2,11.63,3.38C737.07,397.88,736.88,398.54,736.68,399.21Z" transform="translate(435.62 -170)"/><path class="cls-1" d="M511.44,364.32l8-4,.85,1.74C518.7,365.58,515.66,366.15,511.44,364.32Z" transform="translate(435.62 -170)"/><path class="cls-1" d="M571.63,358.55l11.43-3.1c.17.63.35,1.26.53,1.88L572,360.66C571.88,360,571.76,359.25,571.63,358.55Z" transform="translate(435.62 -170)"/><path class="cls-1" d="M502.21,422l7.92.9C507.48,428,507,428,502.21,422Z" transform="translate(435.62 -170)"/><path class="cls-1" d="M901.88,506.82l7.55,11.11L908,519,900.4,508.1Z" transform="translate(435.62 -170)"/><path class="cls-1" d="M795.83,719.05l5.66-1.85.74,3.3-5.71,1.29Z" transform="translate(435.62 -170)"/><path class="cls-1" d="M1060.63,524.42l8,3.76-.63,1.51c-3.39.33-6.52,0-8.32-3.68Z" transform="translate(435.62 -170)"/><path class="cls-1" d="M1041.82,606c-1.83-2-3.65-3.91-6.3-6.75,5.63-.2,7.37,1.88,7.62,5.52Z" transform="translate(435.62 -170)"/><path class="cls-1" d="M1176.34,905.9l8.29,5.22-1.23,1.93-8.38-5.21Z" transform="translate(435.62 -170)"/><path class="cls-1" d="M514.3,1084.46c2.23-4.37,3.8-4.62,9-1.92Z" transform="translate(435.62 -170)"/><path class="cls-1" d="M807.91,978c-.75-2-1.56-4-2.14-6.07,0-.2,1.4-.81,2.15-1.23l2.43,6.28Z" transform="translate(435.62 -170)"/><path class="cls-1" d="M699.87,373.74l-7-4.49C698.49,367.6,700,368.48,699.87,373.74Z" transform="translate(435.62 -170)"/><path class="cls-1" d="M1264.38,596.9l10.87,6.1C1270.88,604.23,1268.23,602.85,1264.38,596.9Z" transform="translate(435.62 -170)"/><path class="cls-1" d="M-209.29,740.61l7.93,5.83C-206.19,748.12-208.11,746.94-209.29,740.61Z" transform="translate(435.62 -170)"/></g></svg>