<svg id="Layer_1" data-name="Layer 1" xmlns="http://www.w3.org/2000/svg" viewBox="0 0 1478.86 1114.74"><defs><style>.cls-1{fill:#fff;}</style></defs><title>fist</title><g id="VcAXaL.tif"><path class="cls-1" d="M38.39,197.14c4.78-10.73,12.68-16.44,21.21-21.39a109.7,109.7,0,0,1,46.23-14.82c17.6-1.5,31.34,6.31,41.37,19.67,11,14.6,20.54,30.26,30.4,45.65,12.65,19.73,23.7,40.62,40.53,57.32,22.28,22.1,40.77,47.34,60.37,71.67,14.39,17.87,29.83,34.91,43.84,53.06,26.63,34.49,49.43,71.44,67,111.39,13,29.44,25.12,59.28,28.61,91.62,1.56,14.48,1.25,29.17,1.81,43.76,0,.77.12,1.54.25,3.06,1.51-1.57,2.48-2.63,3.51-3.63,4.22-4.09,9.86-4.86,14.55-1.3,4.2,3.18,8.57,6.52,11.71,10.67,22.47,29.66,50.5,53.4,81,74,29.3,19.8,59.15,39,90,56.27,24,13.46,49.77,24,75,35.11,27.86,12.31,55.76,24.65,84.18,35.58,37,14.2,74.44,27.08,111.74,40.41,25.23,9,50.89,16.93,75.7,27,34.53,14,66.05,33.58,96.17,55.42,39.34,28.53,75.05,61,105.67,98.78,9.51,11.74,17.86,24.42,26.71,36.69a39,39,0,0,1,2.08,4c-8.79-1.93-16.77-3.61-24.71-5.43-36-8.23-72-16.1-108.92-19a337.52,337.52,0,0,0-68.68,1.12c-20,2.51-40.06,5.9-59.77,14.39l148.07,89.7c-.19.5-.38,1-.56,1.49-5.94-1-12-1.73-17.79-3.2-27.12-6.89-53.87-2.51-80.54,2.59-33.26,6.37-66,14.59-97.13,28.25a182.56,182.56,0,0,0-30.18,17.31c-8.5,5.9-9.57,11.34-6.23,21.16-6-3-11.09-5.43-16-8.14-22.74-12.5-45.38-25.17-68.15-37.6-21.91-12-43.73-24.13-66-35.42-29.52-15-59.32-29.45-89.2-43.71-28.09-13.41-56.1-27.1-84.8-39.09-19.89-8.31-40.85-14.08-61.42-20.71-21.59-7-40.81-17.21-55.85-34.94-17.33-20.44-38.66-36.38-61.19-50.72q-48-30.54-95.92-61c-.55-.35-1.09-.74-2.79-1.9L336.87,928c0-.46,0-.93,0-1.4-2.09-.18-4.19-.44-6.29-.53a459.11,459.11,0,0,1-102.18-16.28,435.76,435.76,0,0,1-116.92-51.62c-31.61-20-63.9-38.89-96.14-57.85-28.67-16.85-58-32.55-86.43-49.82a144.37,144.37,0,0,1-47.78-47.35c-8.67-13.92-9.62-28.88-3.58-44.43,7.77-20,21.76-35,37.75-48.55C-78.5,605-72.19,600-65.29,594.31c-32.81,2.78-70.84,25.56-84.36,87.8-6.82-.85-10.71-5.67-12.61-11.23-2.11-6.17-3.84-13-3.35-19.42,2.92-38.46,16.77-71.84,46.86-97.42,12-10.18,21.68-22.15,25-38.09.75-3.58.64-7.33.93-11l-1.44-.35c-3.22,4.7-6.2,9.6-9.7,14.08C-116.32,534.5-129.18,550-141.26,566-157,586.87-168.64,610.07-178,634.37c-4.29,11.16-11.68,15.78-24.49,6.94-18.32-12.64-24.13-31.87-21.27-53.6,2.05-15.61,8.75-29.61,16.24-43.22q22.23-40.44,44.65-80.79c5.06-9.15,10.2-18.26,14.63-28-1.34,1.6-2.66,3.21-4,4.79-6.09,7-12.17,14-18.31,21a25.94,25.94,0,0,1-3.69,3.33c-3.37,2.55-7.07,5.24-11.37,3.32-4.64-2.07-3.94-6.77-3-10.57,3.49-14,7-28,11.16-41.83,6.32-21,13.5-41.78,19.71-62.82,6.73-22.81,12.75-45.82,19.12-68.73,2.72-9.77,5.68-19.48,8.29-29.28,5.36-20.17,17.89-29.84,38.82-29.37a126.16,126.16,0,0,1,40.92,8c1.92.71,4.39,2.6,4.79,4.36,3,12.92,7.49,25.15,15,36.64-18.76,7.57-33.08,20.24-45.81,35-2.38,2.77-5.68,7.57-7.76,7.18a24.14,24.14,0,0,1-12.56-7.06c-8.88-9.63-17-20-25.36-30.09a5.1,5.1,0,0,0-2.92-2.06c.89,3.52,1.5,7.14,2.73,10.54,4.76,13.18,12.8,24.5,21.56,35.17,5.43,6.62,6.38,11.59,1.37,19.36-9.1,14.08-17,29-21.44,45.43a3.41,3.41,0,0,0,.12,2.66c3.72-6.41,7.47-12.81,11.16-19.24,13.21-23.08,28.53-44.48,49.14-61.66,16.09-13.41,33.3-24.37,55.28-24.5,16.26-.1,30.9,5.31,45,12.9,16.12,8.66,32.5,16.83,48.72,25.31,10.33,5.39,20.74,10.65,30.8,16.51,15.53,9,26,22.89,33,39,5.41,12.46,9.12,25.67,13.55,38.55a21.7,21.7,0,0,1,.37,3.51c-5.75-5.14-10.67-9.5-15.55-13.91-14.16-12.82-28.22-25.75-42.48-38.45a92.84,92.84,0,0,1-19.73-24.25c-6.4-11.49-15.77-20.3-27-29C65.77,327,69.71,337.4,74,348.73a43.07,43.07,0,0,1-5.36-.16c-21.42-3.62-39.69,3-55.75,17-1.76,1.53-3.45,3.13-5.18,4.68-5.91,5.26-6.88,5.22-14,1.24-13-7.29-23.37-17.35-32.07-29.34-2-2.79-4.7-5.11-8.11-8.75,3.88,24.77,14.4,44.69,30.94,62.46L-63.09,461l.85.81c2.81-2.56,5.65-5.08,8.43-7.68q36.23-33.89,72.46-67.78c20.13-18.77,47.17-23,71.5-10.13,7.33,3.87,13.55,10.05,19.86,15.64,17.78,15.74,35.52,31.53,52.91,47.69,6.43,6,11.87,13,17.71,19.6a3.32,3.32,0,0,1,.53,3.13c-4.09-2.62-8.2-5.2-12.25-7.87-30.78-20.34-66.56-16.86-92.36,9.37-30.18,30.67-60.12,61.58-90.15,92.4a2.21,2.21,0,0,0-.42,2.33c5-4,10-8,15-12.08,29.26-23.85,58.43-47.81,87.8-71.51,11.18-9,23.6-15.47,38.43-16.23,13.46-.7,25.15,4,35.91,11.4a232.42,232.42,0,0,1,51.3,48.38c20,25.55,23.46,54.31,15.76,85-2.89,11.56-7.25,22.44-14.92,31.82a24.22,24.22,0,0,1-15.61,8.94c-11.3,1.77-22.28.92-32.48-4.62S153.71,626.93,156,615.61c2.21-10.73,4.53-21.45,6.69-32.19.54-2.7.65-5.49,1.13-9.75-1.48,1.64-2.13,2.06-2.33,2.64-3.18,9.11-6.58,18.15-9.32,27.39-2.17,7.31-6.8,11.38-13.85,13.6a127.14,127.14,0,0,1-37.4,5.4c-7,0-14,.07-20.94.21a26,26,0,0,0-6.31,1c24.3,4.58,48.53,9.71,74.2,4.25-3,11.38-8.33,20.72-13.82,29.9s-11.62,18.14-17.2,27.42c16.36-10.31,26.82-26.28,38.44-40.93,5.34,2.21,10.33,4.41,15.43,6.35,18.47,7,37.34,6.57,55.86,1.13,11-3.24,21-2.57,30.85,2.53,17.25,9,34.36,18.22,51.42,27.55,13.57,7.42,27,15.16,40.47,22.7a14.19,14.19,0,0,0,4.76,1.56c-28.92-28.63-60.83-53-98.54-69.59,17-4.47,34-.72,51.13-1.25L284.8,624.62l0-1.58c2-.28,4.1-1,6.06-.78,11.55,1.38,23.07,3,34.6,4.49.93.13,1.88.13,2.82.19.15-.41.3-.82.44-1.23-6.75-2.79-13.45-5.72-20.28-8.33-7-2.66-14-5.27-21.19-7.4s-14.15-3.77-21.33-5.16-14.7-2.23-22-3.3c1.73-8.65,4-17,5-25.54,3.8-32.71-5.7-61.2-27.14-86.26-13.18-15.41-25.15-31.85-37.55-47.91a16.39,16.39,0,0,1-2.58-5.88c-4.72-18.37-9.43-36.75-13.85-55.2-.4-1.68.73-4.51,2.11-5.71,8.95-7.83,20.24-10.62,31.33-13.53,10-2.63,20.28-4.47,30.49-7.64-11.55-.44-23.19-2-34.6-.94-7.29.67-14.22,5.22-21.33,8a86.91,86.91,0,0,1-9.41,3.32c-1.3.33-3.71,0-4.15-.84-.6-1.1,0-3.08.55-4.46.4-1,1.76-1.45,2.56-2.28,7.83-8.11,15.69-16.2,23.4-24.42,1.39-1.49,2.16-3.57,3.21-5.38l-.87-.9c-1.35,1-2.71,2-4,3-9,6.9-18,13.7-26.83,20.78-2.87,2.3-4.73,2.15-7-.63-9.49-11.43-20.83-20.47-34.66-26.21a14.75,14.75,0,0,1-2.91-1.91c-7.14-5.25-6.87-9.34.31-14.65C126.42,298.5,137.21,291,147,282.23a72,72,0,0,0,20.46-32c.36-1.1.71-2.22,1-3.35a25,25,0,0,0,.21-3.11c-4.09,4.48-7.63,8.18-11,12.07-15.18,17.7-33.07,32.13-52.71,44.61-8.9,5.65-17.24,6.27-26.8,1.69C60.59,293.72,42.82,285.72,25,278c-11.86-5.11-24.38-7.76-37.43-6.87-3.95.27-6.62-1.05-8.32-4.81-3.76-8.33-6.19-17-5.4-26.11.27-3,2.85-5.88,4.47-8.77.3-.52,1.13-.7,1.61-1.15,8.76-8.26,17.13-9.6,29.57-5,23.6,8.67,48.34,8.82,71.92-2.27,9.46-4.45,16.4-11.94,21.4-21,6-10.92-.61-21.64-13.1-21.63-9.1,0-17.18,3.33-25.07,7.51a97.24,97.24,0,0,1-12.81,5.5C47.78,194.82,43.59,195.71,38.39,197.14ZM467.17,861.77c3.23,3.73,5.89,6.92,8.66,10,15.13,16.88,34.9,25.84,56,32,17.71,5.18,35.68,9.43,53.53,14.15q41.24,10.9,82.44,21.89c21.51,5.72,43.1,11.18,64.51,17.29q47.26,13.49,94.32,27.77c30.58,9.25,61.15,18.57,91.53,28.46,37.67,12.26,75.13,25.15,112.7,37.74a35,35,0,0,0,3.71.83,4.21,4.21,0,0,0-2.31-2.44c-19.53-9.31-39-18.82-58.63-27.88a1461.3,1461.3,0,0,0-136.75-54.67c-31-10.66-62.25-20.56-93.53-30.34-30.33-9.48-60.83-18.42-91.28-27.52-20.4-6.09-40.85-12-61.27-18.08-17.87-5.29-35.69-10.78-53.61-15.89-14.86-4.25-27.34-11.61-36.54-24.42-17.08-23.77-26.35-50.36-28.59-79.3-1.56-20.14-4.92-39.53-15-57.42-11.31-20.07-29-34-45.89-48.72a16.08,16.08,0,0,0-2.88-1.21c1.22,1.82,1.71,2.61,2.26,3.35a427.8,427.8,0,0,1,35.8,55.81c19.88,37.49,20.83,75.66,4.88,114.56-8.49,20.7-20.61,39.37-33.35,57.66a63.14,63.14,0,0,0-3.23,5.82l1.18,1C437.14,894.46,451.94,878.15,467.17,861.77Z" transform="translate(224.43 -160.75)"/><path class="cls-1" d="M4.18,214.82c3-.73,6.12-1.26,9.07-2.22,18-5.83,36-11.67,54-17.69,7.31-2.44,13.7-1.38,19.39,3.81,4.85,4.43,4.71,9.25-.36,13.51-8.32,7-18.31,10-28.75,11.61C40.27,226.46,23.46,224,7,218.6a14.29,14.29,0,0,1-2.09-1.08Z" transform="translate(224.43 -160.75)"/><path class="cls-1" d="M1254.13,1182.24l-10.44-4.31.27-.67,10.47,4.33Z" transform="translate(224.43 -160.75)"/></g></svg>