<svg id="Layer_1" data-name="Layer 1" xmlns="http://www.w3.org/2000/svg" viewBox="0 0 1439.42 430.56"><defs><style>.cls-1{fill:#726a67;}.cls-2{fill:#2b2421;}.cls-3{fill:#453e3a;}.cls-4{fill:#5b534f;}.cls-5{fill:#938c89;}</style></defs><title>hands</title><path class="cls-1" d="M197.93,685.92c-1.62-6-4.34-11.66-5-17.92,3.28,2.1,4.18,5.61,4.66,9,.4,2.89,2.22,4.63,4.31,4.7,4.36.14,5.4,2.88,5.68,6.1.24,2.73,1.56,3,3.82,3.31,8.63,1.38,13,9.39,8.48,15.88-2.9,4.12-5.81,8.46-8.95,12.12-4.35,5.09-4.18,10.09-4.23,15.65,0,3.6,1.48,4.69,5,3.79a7,7,0,0,1,8.74,5.24c1,3.63-1.93,9.26-5.1,11.43-5.69,3.9-12.75,5.67-16.48,12.67-3.08,5.78-3.65,5.35,1.34,10.53,2.1,2.17,4.06,5.32,3.77,8.17s-3.95,2.12-6.31,2.61a10,10,0,0,0-3.11,1.53c-4.28,2.67-7.16,6.76-10.61,10.29s-1.85,5.19,1.39,7.13c1.74,1,3.53.82,5.32.81,8,0,16-.6,23.91,1a9.48,9.48,0,0,1,4.1,1.67c2,1.55,3.11,3.44.31,5.13-3.22,2-2.05,3.55,0,5.34a31.8,31.8,0,0,1,3.66,3.38c7.13,8.4,16.3,7.95,26.17,7.22,5.26-.38,10.58,1.34,15.16-2.65.16-.14.65,0,1,.14,2.67.86,5.3,1.9,8,2.57,6.89,1.72,13.92,4.47,20-2.25a5.71,5.71,0,0,1,4.62-1.55,5.18,5.18,0,0,0,3.71-1.11c7-5.52,13.91-11.18,22.93-13.22,1.86-.42,2.83-2.07,4.07-3.43,2.06-2.26,4.44-5.31,7.95-3.76,3.82,1.69,7.41,1,11.15.53,7.52-1,12.17-5.54,13.34-13.06a4.51,4.51,0,0,1,3.58-4.11c4.55-1.44,8.82.59,13.25.49,2.51-.06,11.35,10.29,10.68,12.46-1.35,4.37.78,7.59,2.81,10.64s2.66,7,1.24,9.45c-3.73,6.56-4.92,14.57-11.42,19.66-2.6,2-5.69,5.13-4.74,8.76s-.81,5.07-2.4,7.44c-1.12,1.69-3.74,1.71-3.93,4.09-10.52-.76-18.12,4.8-24.37,12.16s-13.36,8.72-22.21,7.27c-4.35-.72-4.31-3.46-4.49-6.36-.24-3.91,2.87-2.76,5-2.92,1.66-.13,3.33,0,5-.06s3.4-1,2.72-2.7c-2-4.79,2-4.86,4.26-4.92,10.83-.28,16.21-7.4,19.91-16,3-6.92,7.3-11.6,14.66-13.46,1.89-.47,4.29-1.55,2.52-4.11s-.47-4,1.18-5.51c2.22-2.12,2.53-4.37,0-6.34s-5.31-3.16-8.32-2.75c-5.43.72-10.61,3.1-15.46,5.16-6.75,2.88-11.82,9.27-19.41,11.27-2.43.64-2.92,3.06-3.38,5.15a8.11,8.11,0,0,1-5.28,6.11c-5.81,2.39-11.51,5.09-17.42,7.18-3.1,1.1-4.55,4.79-7.91,4.85-5.87.12-11.37.47-13.87,7.1-.21.56-1.37.85-2.14,1.08-3.88,1.15-4.76,3.58-3.46,7.28,1.46,4.15-1.21,5.74-4.59,6.53a19.5,19.5,0,0,1-4,.13c.18-5.42,0-10.79-2.28-15.86l-1.8-4.05c-2.83-3.57-4.54-3-7.86.51-3.73,3.94-7.72,7.88-13.32,9.48-3.26.93-6.52.8-9.8,1-1.53.07-3.78-1-4.39,1-.47,1.5.79,3.1,2.35,4l.34,1.8c-.72,3.36,1.55,3.22,3.74,3.17,3.52,3.78,8.48,5.15,13.58,7.51-3.36,2.66-6.29,3-9.49,1.25-.71-1.9-1.81-3-4-2l-2-.32,0-1.6c-.12-1.74-1.46-1.87-2.73-2.09-3.45-3.91-4.49-8.78-5.42-13.69-.06-.78.06-1.8-1.12-1.64-.34,0-.55,1-.83,1.52l-.93,2.12-2.93,0c-.48-1.76.65-3.91-1.29-5.32-.07-.32-.08-.88-.24-.92-6-1.67-11.48-4.16-16.13-8.37a1.22,1.22,0,0,0-.95-.07c-5.19,1.39-9.61-.89-14.23-2.68-3.23-1.26-6.88-2.36-7.8,3.07-.35,2-1.32,1.26-2.12.17-.2-4.73-.56-9.43-2.56-13.83a5.33,5.33,0,0,0-2.77-4.12c-.11-1-.68-2.68-1.32-2.15-2.26,1.83-5.69,1.27-7.37,4.36-4,7.28-9.6,11.67-18.61,10.08-1.91-.33-4.74.21-5.93,1.48s.54,3.23,2.17,4.26a3.39,3.39,0,0,0,2,2l6,7a1.78,1.78,0,0,0,2.08,1.93h0c.34.76.69,1.53,1,2.29-4.64-1.15-8.27-4.07-12-6.76-3.17-4.07-4.92-8.88-7-13.5l.1-1.08c2.31-.18,2.82-3.63,5.87-2.87,4.54,1.12,8.88,2.88,13.25-1.94,2.21-2.42,5.64-4.17,7.86-7,2-2.52,5.45-4.91,7.54-3.71,4.58,2.64,6.68-.28,9.32-2.47,3.28-2.72,6.19-5.9,10.43-7.32,1.66-.56,1.46-1.82.47-3.19-2.44-3.41-10.72-6.42-14.87-5.19a5.12,5.12,0,0,0-3.06,2.87,19.83,19.83,0,0,1-10,8.78l.11-2.8.8-2.06c1.34-1.44,5.7-1.85,3.2-4.55-2-2.2-1.68-4.85-3.18-7a3.93,3.93,0,0,1,1.84-5.36c3.93-2.08,4-4,.34-6.38-1.61-1-3.08-1.69-4.33-3.59a68.79,68.79,0,0,1-7.89-17.45c-2.13-6.87-5.06-8.1-11.77-6.14a18.27,18.27,0,0,1-8.4.31c-2.51-.45-4.87,0-7.27,0-7.33-.11-14.9,2.08-21.92-2.31-2.6-1.62-5.84-.23-7.75,1.76s-3.83,2.17-5.6.69c-3-2.47-5.48-1.26-8.15.22l-2.8-.27c-.12-2.28-.9-3.78-3.33-2.08-2,1.4-3.85,2.3-6.39,1.32-1.31-.5-2.34.54-3.33,1.6-3.69,4-8.42,6.73-12.12,10.76-2.24,2.45-5.9,2.33-8.79,1.79-3.53-.66-5.74.19-7.44,3.1A11.25,11.25,0,0,1,32.58,782c3.41.06,6.7-1.24,10.2-.57,4.62.89,7.56-.9,8-5.88.09-.94,1.08-1.12,1.61-1.67A22.19,22.19,0,0,1,66.13,767c1-.12,3.23-.69,1.9-1.72-6.34-4.94-.93-4.9,2.23-6,.29-.1.35-.87.51-1.34l2.82.51c2.7,2.95,3.44,3,5.19.69a47.24,47.24,0,0,1,16.8,3.44A29.6,29.6,0,0,0,105.67,770c1,.46,2.41.93,3.32.59,10.48-4,22,0,32.44-4.34a1.13,1.13,0,0,1,.95.13c3,2.57,8,2.38,9.11,7.61.56,2.65,2,5.17,2.83,7.9,1.73,6,3.92,6.77,9.32,3.74,2.05-1.15,4-3.47,6.76-1.85,3.69,2.17,4.79.23,6-3s.12-6.88,1.17-9.53a28.07,28.07,0,0,1,8.32-11.56c3.81-3,6-5.29,4-10.09-.4-.95.62-1.79,1.22-2.59a24.88,24.88,0,0,0,3.35-4.92c4.65-11.27,9.27-22.49,17.32-32,1.9-2.23,1.84-5.83,1.19-9-.55-2.69-2.1-3.72-4.68-2.87-3.36,1.1-4.48.42-4.1-3.46C204.82,688.4,203.26,686.59,197.93,685.92Zm1.78,168.46c3,.25,7.13.88,9.89,4.4,1.59,2,3.52,2.61,5.84,3.24,3,.8,7.59.42,8.7,1.56,6.31,6.53,13.2,3.74,18.94,1,4.84-2.32,9-6.84,13-10.71,1.43-1.39,6.4-4.84,2.55-8.16s-6.94-8-12.73-9c-2.79-.5-5.6-.44-8.35-1-7.83-1.5-15.46,1.41-19.47,8.07-1.26,2.09-2.86,2.86-4.3,1.86-3.72-2.58-8.11-1.19-12-2.66-4.85-1.83-8.95,1.65-13.46,2.36-1,.16-1.47,1.17-1.05,2.37C188.34,850.76,195.07,854.84,199.71,854.38ZM182,831.14c-2.39.2-5.63,5.22-4.74,8.32.66,2.3,2.84,4.62,5.31,4.14s6.42-.33,6.6-4.42C189.3,836.4,184.14,831,182,831.14Z" transform="translate(-31.95 -508.79)"/><path class="cls-1" d="M1307,658c-.92,5.21-1.85,10.41-4.56,15.07-4.12.51-6.75,2.09-6.25,7,.27,2.65-1.38,4.3-4.39,4.05-2.82-.23-5,.73-5.37,3.84-.47,4.57.11,9,3.1,12.72,5.32,6.67,8.88,14.51,14,21.28,3.14,4.13,4.31,9.26,7.52,13.26,1.08,1.35,3.16,2.42,1.06,4.49-1.63,1.61-3.85,2.17-5.37.65-3.11-3.13-7.08-4.15-11-5.53-1.87-.67-4.07-3.17-5.66-.57-1.27,2.06.53,4.24,2,6.13,4.8,6.18,12,6,18.51,6.36,7.8.47,15.24,7.86,14.71,16.09-.37,5.69,3.45,9.25,9,8.3a7.66,7.66,0,0,1,6.46,1.91c2.54,2.14,5,2.2,7.51,0,.28,2.9,0,6-1.9,8.05-3.89,4.21-3.3,8.92-2.12,13.62.82,3.27,1,6.07-1.29,8.79-2.6,3.09-2.19,5.48,2,6.68l1.39,4.74c-.82-.07-2.16.15-2.38-.25-2.29-4.16-8.66-3.77-10-9-.24-1-1.3-1.37-2.35-1.61-4.45-1-12.09,2-14.56,5.85-.89,1.37-.3,2.57.92,2.68,3.39.32,5,3.07,7.32,4.78,2.77,2,6.45,5.57,8.74,4.92,7.6-2.13,11.11,2.55,14.76,7.1,1.81,2.24,5.53,1.23,6.31,4.2.63,2.38,1.72,1.94,3.61,1.8,4.7-.35,9.37-2.61,14.16-.53a34.43,34.43,0,0,1-7.74,17c-2.87,1.88-5.35,4.44-8.9,5.15,3.1-4.28,7.65-7.55,9-13a2.89,2.89,0,0,0,1.75-3.66c-.52-1.7-2.12-1.34-3.37-1.31-3.09.08-6.84,1.47-9.11.19-4.82-2.74-10.32-4.86-13.16-10.54-1.83-3.64-7.43-3.69-9.11-.66-1.48,2.49-3,5-2.89,8-.42,1-.83,1.92-1.25,2.87-4.52.77-8.94,1.62-13.05,4-2.62,1.54-5.53,3.05-8.8,3.07-3.62,0-6.62.86-9,4.09a7.46,7.46,0,0,1-6.54,3c-1.68-.12-3.64.08-2.43,2.76-2.27-.07-2.15-1.71-2-3.21s1.59-2.07,2.85-2.42c1.69-.47,3.47-.13,4.92-1.83a15.64,15.64,0,0,1,14-5.66c3.09.26,8.4-4.46,8.09-6.85-.23-1.78-6.79-6.22-8.65-5.45-4.34,1.79-9.22,1.92-13.25,4.75-3.07,2.15-6.9.65-9.29-2.39-2.76-3.51-4.75-7.9-10.23-8.57-4.48-.55-8.5,1.47-12.7,1.49-7.87.06-11.2,6.23-15.85,10.65-1,.92-1.51,2.92-.18,3.52,2.45,1.11,3.6,3.54,6.06,4.7,4.23,2,9.57,2.5,11.72,7.88.5,1.27,2.53,1.24,4,1.65,4.55,1.3,8.37-.88,12.35-2.24,2.06-.69,3.71-.89,4,1.77.73,6.49,3.63,12.13,6.67,17.75a2.62,2.62,0,0,1-.47,3.6c-2.8.35-4.32-.48-4.17-3.72.22-4.73-1.57-9-3.77-13.09-.37-.69-.74-1.74-1.66-1.38s-.42,1.46-.45,2.25c-1,3.86-1,8-3.9,11.24-1.65-1.12-1-3-1.43-4.47l.27-1.83c1.72-1,2.79-2.37,2.3-4.39-.07-.31-1.59-.64-2.21-.39-11.36,4.7-17.9-4.62-26.16-8.92-2.16-1.12-3.91-4.52-6.88-1.27a6.1,6.1,0,0,0-2.85,5.07c-2.12,4.43-2,9.24-2.37,14-4.56-.31-5.54-3.51-5.85-7.25-.14-1.62.7-3.95-.8-4.71-4.49-2.25-7.47-7.17-13.28-7.18-3.29,0-7-.57-9.08-3.3-2.38-3.06-5.44-3.88-8.84-4.89-5.63-1.67-13.47-1.46-15.71-7.17s-6.54-5.4-10.2-7.4a11.17,11.17,0,0,0-2.68-1.23c-8.16-2-13.34-10.43-22.42-10.53a2.93,2.93,0,0,1-1.75-.91c-5.07-5.14-10.89-2.86-16.23-1.12-3,1-5.35,3.73-1.87,7.28,1,1,2.09,2.45,1.51,4-1.86,4.93,1.79,6.9,5,7.41,11.4,1.8,10.68,13.28,16.21,19.71,1.78,2.07,2.63,4.37,5.7,5.28,6.23,1.85,12.12,4.93,19.37,4-.79,2.38-3.46,3-2.49,4.88s3,.85,4.54,1c1.32.14,2.69-.15,4,.07,1.59.27,4.5-1.12,4.47,1.42s.37,7.07-3.58,7.3c-7.93.46-16.23,2.15-22.41-5.76-6.84-8.75-16.45-12.54-27.43-13-3.31-3.78-6.06-7.73-5-13.2.23-1.22-1.06-2-1.57-3-2.08-4.19-7.23-5.41-9.13-9.92-1.26-3-1.35-6.46-3.86-8.94-3.47-3.42-2.78-7.36-1.33-11.48,1.18-3.36,2.82-6.47,3.14-10.26.87-10.31,14-18.43,23.74-15.37,3.35,1,5.12,3.62,4.58,6.21-1,4.73,2,6.45,4.9,8.07,5.72,3.2,11.93,4.11,18.24,1.84,2.74-1,5.56-1.44,7.34.92,3.13,4.13,7.44,5.78,12,7.37a35.15,35.15,0,0,1,10.46,5.59c3.08,2.41,6.58,5.23,10.19,5.7,2.79.37,4.58.9,6,3a6.43,6.43,0,0,0,4.62,2.53c5.95,1,11.38-.84,16.8-2.79,4-1.44,7.92-3.84,11.51.79.9,1.15,2.92,1.53,3.65.81,3.43-3.46,7.06-1.06,10.68-.94,4.5.15,8.77-1.52,13.14-2.45,6.65-1.41,8.76-7.5,12.48-11.92a1.63,1.63,0,0,0-.38-2.24c-1.27-1.28-4.14-1.94-2.29-4.53,1.53-2.15,3.41-4.27,6.56-3.72,6.79,1.17,13.43-1.26,20.33-.51,7.92.85,11.69-4.34,7.63-9.93-3.42-4.69-8-8.81-13.92-10.49-3.88-1.1-4.68-2.52-1.82-5.17,2.65-2.45,3.78-5.85,6.17-8.4,1.86-2,1.1-4-.31-5.86-4.32-5.69-10.88-8.44-16.92-11.24-5.1-2.35-8.57-4.32-9.31-10.42-.8-6.74,2.39-11,9.13-9.72,4.11.8,4.15-.88,4.63-4,1-6.54-4.49-10-6.4-15.12-2.09-5.6-8.07-8.23-10.19-13.93-2.68-7.22.72-13.14,8.29-13.12,3.44,0,5.1-.87,5.42-4.65.26-3.08,1.31-6.23,5.54-6.54,2.1-.15,2.36-2,2.22-3.83l.24-1.87C1303.72,662.72,1302.51,656.83,1307,658Z" transform="translate(-31.95 -508.79)"/><path class="cls-2" d="M335.62,701q7.54,18.09,15.09,36.19a168.64,168.64,0,0,0,10.72,21.74c4.93,8.25,9.6,16.67,14.38,25l-2,.72c-.67-3.66-3.43-4.59-6.53-4.64-7.27-.1-14.71-.86-20.91,4.4a4.2,4.2,0,0,1-2.86.53c-6.25-.65-11.94,2.34-18.06,2.68a21.59,21.59,0,0,0-10.22,3A25.25,25.25,0,0,1,299.52,794c-6.92-.77-9.86-5-7.58-11.5,1.3-3.7-.41-5.68-4.34-5a85.85,85.85,0,0,1-38.07-2.41c-.89-.25-2.24.06-2.31-1.31-.05-1.14,1.09-1.51,1.95-2,4.61-2.73,4.81-8.17.31-11.32a17.47,17.47,0,0,0-8.28-3.3c-2.62-.24-3.7-1.37-4.54-3.69a44.22,44.22,0,0,1-2.52-21.53c1.42-11.37,4-21.15,12.92-29.13,4.52-4.06,8.48-3.93,12.24-.78s5.45,8.41,9.85,11.33c1.1.73-.5,2.43-.41,3.77.1,1.52.14,3.74,1.93,3.37,2.94-.62,6.32.31,8.77-2.63A39.92,39.92,0,0,1,293,707.29c8.27-4,15.95-9.29,26-7.48,2.27.41,4.47,2.65,6.45,1.55C329,699.4,332.23,700.51,335.62,701Z" transform="translate(-31.95 -508.79)"/><path class="cls-3" d="M1300.53,663.18l-.24,1.87c-1.81,0-3.58,1.78-5.29.66-5.23-3.41-7.27,1.07-9.41,4-3.46,4.75-7.59,7.17-13.44,5.71-2.5-.62-3.79-.22-3.88,2.66-.25,7.88-.64,15.73,4,22.77,1,1.57,2,3.41,3.69,3.85,4.35,1.1,5.12,4.81,6.64,8.06.6,1.29.34,2.79-.92,2.81-5.51.11-3.87,3.42-3,6.29a5.45,5.45,0,0,1-.26,3.84,23.84,23.84,0,0,0-.35,17.38c2.17,5.95,3.82,7.77,10,7.94,1.92,0,4.54-.56,4.77,2.24.2,2.35-2.35,2.34-4,2.94-3,1.1-6,2.07-7.76,5s.06,6.19-1.18,9.42c-.57,1.49,2.17,4.52,0,7.1a26.26,26.26,0,0,1-6.23,4.93c-1.57,1-3.51,2.17-3.57-1.31,0-2.62-1.63-3.25-4-3.36-3.14-.15-5.67.75-7,3.65s-2.21,6,.61,8.62c1.54,1.43,1,2.39-.05,3.76-4.41,5.5-5.64,5.27-14,3.2-8.73-2.17-16.33-7.8-25.82-7.9-5.48-.06-11.3-1.46-15.93,1.83-5.84,4.15-7.75,4.58-13.59.67a30.1,30.1,0,0,0-11.75-4.81c-9.57-1.61-19.32-2.77-28.09-7.17-4-2-8-3.74-12.28-2.66-3.9,1-7.52.48-11.26-.18.27-2.19,2-3.4,3.26-5a16.62,16.62,0,0,1,4.28.52c4.17,1,8.3-1.71,12.18-.09a83.32,83.32,0,0,0,24.32,5.87c5,.47,10.25,0,14.69,2.63,3.69,2.22,7.78,2.84,11.71,3.79,8.2,2,13.55-3.35,12-11.34-.89-4.6,1.6-6.53,6.87-5.9,6.07.72,12.36,2.1,18.23,1.16,5.21-.83,10.32-2.85,15.74-3.22a51,51,0,0,0,6.39-.84,2.58,2.58,0,0,0,1.82-1.41c.29-1.26-1-1.72-1.89-1.82-2.3-.28-4.63-.26-7-.37-4.12-.19-8.31.6-12.33-1.07-2.56-1.07-3.44-3-3.13-5.57.28-2.38.81-4.7,3.65-5.29,2.09-.43,4.22-.78,6.35-1a4.14,4.14,0,0,0,3.05-1.27c5.46-6.21,7-6.36,14.59-1.63,1.08.67,2.49,1.33,3-.07,2.21-6.46,6.32-12.64,3.53-20-.41-1.08-1.12-2.3-.94-3.32,1.7-9.32-3.32-16.61-7.48-24s-12.83-10.2-17.94-6c-3.58,3-5.59,7.6-9.33,10.63-.49.39-.47,1.57-.45,2.37.07,2.27-.65,3.66-3,4.42s-4.23.85-6.36-1a79.74,79.74,0,0,0-14-10.21c-2.72-1.47-6-1.83-8.3-4.06-2.14-2-3.9-6.29-7.6-1.58-.74.94-1.78-.18-2.6-.7-1.26-.79-2.71-2.13-4.08-1.44-6.68,3.39-14.32,1-21.06,3.7,1.46-5.65,5.76-9.51,8.91-14.09q9.63-.48,12.08-9.8c2.22-1.08,3.24-3.82,5.92-4.24,3.34.11,6.64,2.3,10.06-.14,1.65-1.18,2.44.76,2.9,1.77,2.34,5.12,7.12,6.44,11.81,8,1.45.47,2.92,1.15,4.12-.27a4.37,4.37,0,0,0,.72-5.1c-.69-1.31-1.73-2.46-2.3-3.81-1.49-3.5-2.84-6.92,2.47-8.73,2-.67,3.64-2.25,5.39-3.5,3.54-2.53,4.5-5.89,2.59-9.78a4.82,4.82,0,0,1,.31-5.14c2-3.11,2.23-6.52,2-10a61.25,61.25,0,0,1,7-10.3c1.25,3.44,3.22,4.35,5.59,1.14,3.36-4.53,8-8,10.78-13a1.91,1.91,0,0,1,.49,2.29c-3.08,4.49-4.91,9.68-8.32,14-2.54,3.26-6.42,4.2-9.25,6.67a12,12,0,0,0-3.72,9c.07,4.8,3.33,9.24,5.84,12.62a31.08,31.08,0,0,0,15.15,11.34c3.08,1,6.67.64,9.33,3.31,3.71,3.73,8.49,3.4,10.42-1.33,3.61-8.82,12.55-14,15.11-23.42a3,3,0,0,1,.92-1.17c5.82-5.61,9.83-12.53,13.18-19.7,2.25-4.83,5.77-7.91,10-10.49,1-.61,2.58-1,2.11-2.3-1.77-4.95,1.64-6.66,4.87-8.88,2.71-1.85,4.6-4.6,6.62-7.26,4.87-6.42,8-13.94,13.12-20.17,2.69-3.25,3-7.58,3.12-11.66.17-8.2-5.92-11-12.15-13.76-3.21-1.44-5.32-.8-7.38,1.74-.93,1.14-1.18,3.68-3.49,2.65-1.59-.7-2.22-2.55-2.22-4.22,0-3.24.15-6.09-4.05-7.28-3-.87-5.1-4.41-8.88-3.86-2,.3-4.57-1-6.08,1.13-3.85,5.47-10.49,7.91-14.24,13.48-1.18,1.74-2.81,3-5,1.24,6.46-11,15-20.27,24.1-29.12.25,2.64,2.32,2.75,4.27,3.29,3.45,1,7.57,1.32,9.91,3.93,4.74,5.3,13.15,3.47,17.27,9.55.16.23.94.14,1.4,0,3-.57,5.06,1.21,7,2.87,6.19,5.19,8.09,12,7.29,19.83-.11,1.23-.21,2.45-.32,3.67-4,3.87-4.66,9.56-7.63,14-2.44,3.66-1.77,9.2-5.7,11.76-3.65,2.38-6.56,5.51-10,8.05-3.1,2.29-7,4-6.67,9,.1,1.53-1.43,2.63-2.85,3.2-7.14,2.85-8.73,10-11.76,15.77-2.75,5.25-4.07,11.23-9,15.21-1.88,1.53-1.6,4.19.23,4.38,6,.6,3.31,4.06,3.39,7.24C1302.21,657,1300.06,659.86,1300.53,663.18Z" transform="translate(-31.95 -508.79)"/><path class="cls-2" d="M1165.29,694c6.74-2.74,14.38-.31,21.06-3.7,1.37-.69,2.82.65,4.08,1.44.82.52,1.86,1.64,2.6.7,3.7-4.71,5.46-.44,7.6,1.58,2.34,2.23,5.58,2.59,8.3,4.06a79.74,79.74,0,0,1,14,10.21c2.13,1.83,3.93,1.75,6.36,1s3.11-2.15,3-4.42c0-.8,0-2,.45-2.37,3.74-3,5.75-7.65,9.33-10.63,5.11-4.25,13.76-1.44,17.94,6s9.18,14.66,7.48,24c-.18,1,.53,2.24.94,3.32,2.79,7.36-1.32,13.54-3.53,20-.47,1.4-1.88.74-3,.07-7.62-4.73-9.13-4.58-14.59,1.63a4.14,4.14,0,0,1-3.05,1.27c-2.13.25-4.26.6-6.35,1-2.84.59-3.37,2.91-3.65,5.29-.31,2.58.57,4.5,3.13,5.57,4,1.67,8.21.88,12.33,1.07,2.32.11,4.65.09,7,.37.85.1,2.18.56,1.89,1.82a2.58,2.58,0,0,1-1.82,1.41,51,51,0,0,1-6.39.84c-5.42.37-10.53,2.39-15.74,3.22-5.87.94-12.16-.44-18.23-1.16-5.27-.63-7.76,1.3-6.87,5.9,1.56,8-3.79,13.33-12,11.34-3.93-1-8-1.57-11.71-3.79-4.44-2.68-9.66-2.16-14.69-2.63a83.32,83.32,0,0,1-24.32-5.87c-3.88-1.62-8,1.06-12.18.09a16.62,16.62,0,0,0-4.28-.52c5.84-12.75,14.08-24.24,19.14-37.44,4.86-12.65,9.93-25.21,14.37-38A18.93,18.93,0,0,1,1165.29,694Z" transform="translate(-31.95 -508.79)"/><path class="cls-3" d="M335.62,701c-3.39-.48-6.63-1.59-10.13.37-2,1.1-4.18-1.14-6.45-1.55-10.05-1.81-17.73,3.52-26,7.48a39.92,39.92,0,0,0-13.6,10.57c-2.45,2.94-5.83,2-8.77,2.63-1.79.37-1.83-1.85-1.93-3.37-.09-1.34,1.51-3,.41-3.77-4.4-2.92-6.08-8.17-9.85-11.33s-7.72-3.28-12.24.78c-8.89,8-11.5,17.76-12.92,29.13a44.22,44.22,0,0,0,2.52,21.53c.84,2.32,1.92,3.45,4.54,3.69a17.47,17.47,0,0,1,8.28,3.3c4.5,3.15,4.3,8.59-.31,11.32-.86.5-2,.87-1.95,2,.07,1.37,1.42,1.06,2.31,1.31a85.85,85.85,0,0,0,38.07,2.41c3.93-.66,5.64,1.32,4.34,5-2.28,6.53.66,10.73,7.58,11.5a25.25,25.25,0,0,0,15.75-3.41,21.59,21.59,0,0,1,10.22-3c6.12-.34,11.81-3.33,18.06-2.68a4.2,4.2,0,0,0,2.86-.53c6.2-5.26,13.64-4.5,20.91-4.4,3.1,0,5.86,1,6.53,4.64a24.17,24.17,0,0,1-8.88-.32c-2.82-.63-6-1.26-8.44,1.34-5.92,6.23-13.91,7-21.72,8.33-8.06,1.39-16.34,1.89-23.05,7.74-4.82,4.19-7.46,3.85-11.94-.14-4.24-3.79-9.06-4.25-14.43-3-8.87,2-17.09,5.56-25.29,9.46a16.29,16.29,0,0,1-14-.43c-4.24-2-8.32-3.62-3.83-9.64,1.65-2.2,1.21-6.16-2.68-7.92s-5.57-.42-6,3.48a1.43,1.43,0,0,1-1.33,1.27c-2,.37-11.24-7.25-10.37-8.82,1.87-3.37-.53-6.53.27-9.41,1-3.69-.3-5.24-3.28-6.55-2-.87-3.77-2.07-5.69-3-1.64-.81-3.78-1.5-2.82-3.81.86-2.08,2.86-2.59,5.07-1.8,4.82,1.72,7.2-1.59,8-5.09,1.6-6.61,4.53-13.51-.46-20.09a2.25,2.25,0,0,1-.15-1.92c2.29-5.45-.13-6.9-5.19-6.33-.93.1-2.25.25-2.45-1-.18-1.13,1.19-1.42,1.78-2.13,3.54-4.22,7.38-8.22,10.83-12.46,5.31-6.54,5.3-14.72,4.87-22.77-.16-2.84-1.53-3.62-4.26-3.39-5.3.45-10.19.21-13.71-5.18-1.42-2.18-3.42-6.08-7.36-4.66-4.77,1.72-6.83.14-8.43-4.44-1.15-3.31-1.11-6.49-1.24-9.78-.06-1.66.4-2.6,2.31-3.17,3.36-1,3.88-4.33,1.08-6.59-1.7-1.36-3.42-2.59-4.51-4.55-4.3-7.73-6.32-16.61-11.91-23.71,3.58,1.24,7.81,2.28,9.53,5.62a136.36,136.36,0,0,0,11.55,18.18c3.08,4.21,5.63,8.82,8.83,12.83,3.62,4.56,8.53,8,11.68,13.21,1.75,2.86,4.19,4.41,7.6,1.17A13.62,13.62,0,0,1,244.17,671c2.65.17,4.26-1,6.32-2.79,5.11-4.54,9.09-9.43,11.59-15.91,1.84-4.76,1.85-10-2.53-11.59-5.23-2-7.76-6.09-10.31-10.16a85.24,85.24,0,0,0-7.8-10.87,9.7,9.7,0,0,1-2.61-6.73c4.68,5.52,9.55,10.88,14,16.6,2.8,3.63,5.43,4.5,9,1.35,3.44,3.85,5.51,8.83,9.89,11.89-3.93,3.35,0,5.52,1.2,8.11,0,1.07,0,2.14.05,3.2,0,.31-.08.62-.13.93-3.92,3.87-3.92,4.92,0,6.94h0c.55,3.4,3.54,4,6,5.15,3.2,1.51,4.41,3.76,2.76,7.15a32.31,32.31,0,0,0-2.6,5.89c-.61,2.45,0,5.46,3.17,4.6,4.87-1.3,10.59-2.13,12.32-8.26.75-2.67,2.52-3,4.55-2.25,3.27,1.17,6.07.41,8.78-1.4,3.86,1.05,4.55,5.67,8.05,7.12.83,4.4,3.84,5.86,7.91,5.93a1.71,1.71,0,0,0,2.2.77C329.4,691.29,333.61,695.39,335.62,701Z" transform="translate(-31.95 -508.79)"/><path class="cls-2" d="M1281.13,550.93c2.19,1.72,3.82.5,5-1.24,3.75-5.57,10.39-8,14.24-13.48,1.51-2.14,4-.83,6.08-1.13,3.78-.55,5.83,3,8.88,3.86,4.2,1.19,4,4,4.05,7.28,0,1.67.63,3.52,2.22,4.22,2.31,1,2.56-1.51,3.49-2.65,2.06-2.54,4.17-3.18,7.38-1.74,6.23,2.8,12.32,5.56,12.15,13.76-.08,4.08-.43,8.41-3.12,11.66-5.16,6.23-8.25,13.75-13.12,20.17-2,2.66-3.91,5.41-6.62,7.26-3.23,2.22-6.64,3.93-4.87,8.88.47,1.32-1.1,1.69-2.11,2.3-4.27,2.58-7.79,5.66-10,10.49-3.35,7.17-7.36,14.09-13.18,19.7a3,3,0,0,0-.92,1.17c-2.56,9.38-11.5,14.6-15.11,23.42-1.93,4.73-6.71,5.06-10.42,1.33-2.66-2.67-6.25-2.31-9.33-3.31a31.08,31.08,0,0,1-15.15-11.34c-2.51-3.38-5.77-7.82-5.84-12.62a12,12,0,0,1,3.72-9c2.83-2.47,6.71-3.41,9.25-6.67,3.41-4.36,5.24-9.55,8.32-14a1.9,1.9,0,0,0-.5-2.29,5.34,5.34,0,0,0-.21-.81l1.92-2.12a5,5,0,0,0,3-2c1.42,0,2-.69,1.65-2.14.07-1,.14-1.91.22-2.87,3-2.18,4-5.53,5.14-8.8,3.84-10.83,6.44-22.1,11.23-32.61C1279.26,554,1280.25,552.47,1281.13,550.93Z" transform="translate(-31.95 -508.79)"/><path class="cls-2" d="M238.83,613a9.7,9.7,0,0,0,2.61,6.73,85.24,85.24,0,0,1,7.8,10.87c2.55,4.07,5.08,8.2,10.31,10.16,4.38,1.63,4.37,6.83,2.53,11.59-2.5,6.48-6.48,11.37-11.59,15.91-2.06,1.83-3.67,3-6.32,2.79a13.62,13.62,0,0,0-10.27,4.06c-3.41,3.24-5.85,1.69-7.6-1.17-3.15-5.16-8.06-8.65-11.68-13.21-3.2-4-5.75-8.62-8.83-12.83a136.36,136.36,0,0,1-11.55-18.18c-1.72-3.34-6-4.38-9.53-5.62-.31,0-.63-.08-.94-.1-1.77-6.17-3.51-12.35-10.42-15-.42-.15-.74-.66-1-1.07-6-8.59-12.67-16.79-17.47-26-2.25-4.33-3.66-10.46-.23-16,2.26-3.64,5.77-4.93,9-7.06,4.3-2.82,12.69,3.09,13.69-6.46,0-.28,1.33-.29,1.77-.7,1.71-1.58,4.07-1.88,5.82-3.62,4.78-4.74,9.93-3.65,13.11,2.21a11.19,11.19,0,0,0,3.37,4.24,57.31,57.31,0,0,1,11,8.48,2.68,2.68,0,0,0,4.34-.08c6.38,10.71,9.69,22.63,13.35,34.39.81,2.58,1.8,5,2.78,7.52.24,3.13,2.17,4.93,4.85,6.13Z" transform="translate(-31.95 -508.79)"/><path class="cls-4" d="M183.77,624c.31,0,.63.06.94.1,5.59,7.1,7.61,16,11.91,23.71,1.09,2,2.81,3.19,4.51,4.55,2.8,2.26,2.28,5.59-1.08,6.59-1.91.57-2.37,1.51-2.31,3.17.13,3.29.09,6.47,1.24,9.78,1.6,4.58,3.66,6.16,8.43,4.44,3.94-1.42,5.94,2.48,7.36,4.66,3.52,5.39,8.41,5.63,13.71,5.18,2.73-.23,4.1.55,4.26,3.39.43,8.05.44,16.23-4.87,22.77-3.45,4.24-7.29,8.24-10.83,12.46-.59.71-2,1-1.78,2.13.2,1.29,1.52,1.14,2.45,1,5.06-.57,7.48.88,5.19,6.33a2.25,2.25,0,0,0,.15,1.92c5,6.58,2.06,13.48.46,20.09-.84,3.5-3.22,6.81-8,5.09-2.21-.79-4.21-.28-5.07,1.8-1,2.31,1.18,3,2.82,3.81,1.92,1,3.73,2.16,5.69,3,3,1.31,4.3,2.86,3.28,6.55-.8,2.88,1.6,6-.27,9.41-.87,1.57,8.39,9.19,10.37,8.82a1.43,1.43,0,0,0,1.33-1.27c.4-3.9,2.15-5.22,6-3.48s4.33,5.72,2.68,7.92c-4.49,6-.41,7.62,3.83,9.64a16.29,16.29,0,0,0,14,.43c8.2-3.9,16.42-7.42,25.29-9.46,5.37-1.24,10.19-.78,14.43,3,4.48,4,7.12,4.33,11.94.14,6.71-5.85,15-6.35,23.05-7.74,7.81-1.34,15.8-2.1,21.72-8.33,2.46-2.6,5.62-2,8.44-1.34a24.17,24.17,0,0,0,8.88.32l2-.72c7.44,5.7,13.14,12.87,17.91,20.85l1.06,1.17,0-.14c.11,1-.07,2.11.37,2.88,4.55,7.78,5,15.55,1,23.79-1.14,2.34-2.13,4.75-3.5,7-3.09,5.07-8.43,9-8.54,15.62-.07,4.07-2,7.14-4.56,10-3.11-1.54-6.47-1.23-9.77-1.33.19-2.37,2.81-2.39,3.93-4.08,1.59-2.37,3.31-3.93,2.4-7.44s2.14-6.72,4.74-8.76c6.5-5.09,7.69-13.1,11.42-19.66,1.42-2.5.87-6.29-1.24-9.45s-4.16-6.27-2.81-10.64c.67-2.17-8.17-12.52-10.68-12.46-4.43.1-8.7-1.93-13.25-.49a4.51,4.51,0,0,0-3.58,4.11c-1.17,7.52-5.82,12.06-13.34,13.06-3.74.49-7.33,1.16-11.15-.53-3.51-1.55-5.89,1.5-7.95,3.76-1.24,1.36-2.21,3-4.07,3.43-9,2-15.94,7.7-22.93,13.22a5.18,5.18,0,0,1-3.71,1.11,5.71,5.71,0,0,0-4.62,1.55c-6,6.72-13.06,4-20,2.25-2.72-.67-5.35-1.71-8-2.57-.31-.1-.8-.28-1-.14-4.58,4-9.9,2.27-15.16,2.65-9.87.73-19,1.18-26.17-7.22a31.8,31.8,0,0,0-3.66-3.38c-2.07-1.79-3.24-3.39,0-5.34,2.8-1.69,1.65-3.58-.31-5.13a9.48,9.48,0,0,0-4.1-1.67c-7.93-1.58-15.93-1-23.91-1-1.79,0-3.58.23-5.32-.81-3.24-1.94-4.89-3.56-1.39-7.13s6.33-7.62,10.61-10.29a10,10,0,0,1,3.11-1.53c2.36-.49,6,.36,6.31-2.61s-1.67-6-3.77-8.17c-5-5.18-4.42-4.75-1.34-10.53,3.73-7,10.79-8.77,16.48-12.67,3.17-2.17,6.06-7.8,5.1-11.43a7,7,0,0,0-8.74-5.24c-3.55.9-5.07-.19-5-3.79.05-5.56-.12-10.56,4.23-15.65,3.14-3.66,6-8,8.95-12.12,4.57-6.49.15-14.5-8.48-15.88-2.26-.36-3.58-.58-3.82-3.31-.28-3.22-1.32-6-5.68-6.1-2.09-.07-3.91-1.81-4.31-4.7-.48-3.39-1.38-6.9-4.66-9-3.47-10.51-6.6-21.11-11.23-31.26a79.68,79.68,0,0,0-16.24-23.51c-2.67-2.68-5-5.77-7.4-8.67,2.54-1,4.56.1,6.33,1.73,2.79,2.57,5.31,5.38,8.8,7.21,1.44.75,3,2.77,3.09,4.28C176.52,622.92,180.27,623.16,183.77,624Zm47.91,202a7.33,7.33,0,0,0,5.58-2.27c2.67-2.79,2.8-5.38,1.8-9.42-1.51-6-2.78-9.26-9-10.56a10.24,10.24,0,0,1-7.18-5.33c-1.51-2.57-3.43-6-6.27-5.83-5.2.27-10.6.3-15.56,2.5-1.57.69-3.22,1.46-2.86,3.49S200,801,201.94,801c2.66-.1,5.32-.07,8,0,11.71.28,18.14,7.17,18.35,18.88C228.3,821.92,227.17,826.12,231.68,826Z" transform="translate(-31.95 -508.79)"/><path class="cls-4" d="M1127.16,777c3.74.66,7.36,1.16,11.26.18,4.3-1.08,8.25.64,12.28,2.66,8.77,4.4,18.52,5.56,28.09,7.17a30.1,30.1,0,0,1,11.75,4.81c5.84,3.91,7.75,3.48,13.59-.67,4.63-3.29,10.45-1.89,15.93-1.83,9.49.1,17.09,5.73,25.82,7.9,8.34,2.07,9.57,2.3,14-3.2,1.09-1.37,1.59-2.33.05-3.76-2.82-2.61-2-5.72-.61-8.62s3.89-3.8,7-3.65c2.32.11,3.9.74,4,3.36.06,3.48,2,2.32,3.57,1.31a26.26,26.26,0,0,0,6.23-4.93c2.15-2.58-.59-5.61,0-7.1,1.24-3.23-.54-6.55,1.18-9.42s4.8-3.89,7.76-5c1.63-.6,4.18-.59,4-2.94-.23-2.8-2.85-2.19-4.77-2.24-6.22-.17-7.87-2-10-7.94a23.84,23.84,0,0,1,.35-17.38,5.45,5.45,0,0,0,.26-3.84c-.92-2.87-2.56-6.18,3-6.29,1.26,0,1.52-1.52.92-2.81-1.52-3.25-2.29-7-6.64-8.06-1.71-.44-2.65-2.28-3.69-3.85-4.69-7-4.3-14.89-4-22.77.09-2.88,1.38-3.28,3.88-2.66,5.85,1.46,10-1,13.44-5.71,2.14-2.92,4.18-7.4,9.41-4,1.71,1.12,3.48-.65,5.29-.66.14,1.8-.12,3.68-2.22,3.83-4.23.31-5.28,3.46-5.54,6.54-.32,3.78-2,4.67-5.42,4.65-7.57,0-11,5.9-8.29,13.12,2.12,5.7,8.1,8.33,10.19,13.93,1.91,5.11,7.4,8.58,6.4,15.12-.48,3.12-.52,4.8-4.63,4-6.74-1.3-9.93,3-9.13,9.72.74,6.1,4.21,8.07,9.31,10.42,6,2.8,12.6,5.55,16.92,11.24,1.41,1.85,2.17,3.88.31,5.86-2.39,2.55-3.52,5.95-6.17,8.4-2.86,2.65-2.06,4.07,1.82,5.17,5.94,1.68,10.5,5.8,13.92,10.49,4.06,5.59.29,10.78-7.63,9.93-6.9-.75-13.54,1.68-20.33.51-3.15-.55-5,1.57-6.56,3.72-1.85,2.59,1,3.25,2.29,4.53a1.63,1.63,0,0,1,.38,2.24c-3.72,4.42-5.83,10.51-12.48,11.92-4.37.93-8.64,2.6-13.14,2.45-3.62-.12-7.25-2.52-10.68.94-.73.72-2.75.34-3.65-.81-3.59-4.63-7.54-2.23-11.51-.79-5.42,2-10.85,3.83-16.8,2.79a6.43,6.43,0,0,1-4.62-2.53c-1.46-2.09-3.25-2.62-6-3-3.61-.47-7.11-3.29-10.19-5.7a35.15,35.15,0,0,0-10.46-5.59c-4.6-1.59-8.91-3.24-12-7.37-1.78-2.36-4.6-1.91-7.34-.92-6.31,2.27-12.52,1.36-18.24-1.84-2.91-1.62-5.88-3.34-4.9-8.07.54-2.59-1.23-5.16-4.58-6.21-9.73-3.06-22.87,5.06-23.74,15.37-.32,3.79-2,6.9-3.14,10.26-1.45,4.12-2.14,8.06,1.33,11.48,2.51,2.48,2.6,6,3.86,8.94,1.9,4.51,7,5.73,9.13,9.92.51,1,1.8,1.77,1.57,3-1,5.47,1.74,9.42,5,13.2l-6,2c-.6-2.9-3-4.84-3.62-7.93-1-5.59-4.24-10.29-7.91-14.52-7-8.13-10.28-17.14-7.19-27.83.91-3.17,1.92-6.31,1.85-9.67A126.42,126.42,0,0,1,1127.16,777Zm150.77,19.71c.17-2-1-2.51-2.41-2.67-2.24-.26-4.39-.07-5.7,2.1a12.28,12.28,0,0,0-2,8.42,1.87,1.87,0,0,0,2.84,1.13C1274.2,803.56,1276.08,800,1277.93,796.68Z" transform="translate(-31.95 -508.79)"/><path class="cls-5" d="M1348.32,773c-2.51,2.16-5,2.1-7.51,0a7.66,7.66,0,0,0-6.46-1.91c-5.55.95-9.37-2.61-9-8.3.53-8.23-6.91-15.62-14.71-16.09-6.52-.39-13.71-.18-18.51-6.36-1.48-1.89-3.28-4.07-2-6.13,1.59-2.6,3.79-.1,5.66.57,3.87,1.38,7.84,2.4,11,5.53,1.52,1.52,3.74,1,5.37-.65,2.1-2.07,0-3.14-1.06-4.49-3.21-4-4.38-9.13-7.52-13.26-5.13-6.77-8.69-14.61-14-21.28-3-3.75-3.57-8.15-3.1-12.72.32-3.11,2.55-4.07,5.37-3.84,3,.25,4.66-1.4,4.39-4.05-.5-4.91,2.13-6.49,6.25-7,.45,10.77,7.63,19.37,9.54,29.66.18,1,.62,2.13.28,2.93-2.87,6.76,2,11.16,5.36,15.41s7.73,8.3,13.79,9c2.3.25,2.81,2,3.73,3.58,2,3.26,4,5.34,8.66,4.66s9.88.45,14.83.83c1.26.1,2.62.77,2.31,2.08-1,4.27,1.86,4.06,4.34,3.75,4.7-.61,9.61-.1,14-2.35a3.42,3.42,0,0,1,2.9,0c6.73,2.56,13.87,3.2,20.9,4.31s13.31-2.4,20.07-3.11a64.59,64.59,0,0,0,16-3.46c10.4-3.88,29.17,6.1,31.3,16.21.75,3.61,1.58,7.1,0,10.64-4.22-1.51-8.72-.92-13.06-1.68-2.51-.44-3.91-1.49-4.54-3.76-.24-.87.56-2-.62-2.67-5-2.88-9.31-7.66-16-6l-1.93,0c-.24-.93-1.07-1.79-.55-2.82,2-3.91-2.52-3.44-3.75-5.11-1-1.4-2.84.32-3.72,1.81l-4.92,2.16c-7-2.18-12.82.48-18.17,4.75-3.21.85-5.09,4.57-8.89,4.17a2.74,2.74,0,0,0-1,0l0,0c-.07-1.47-1-1.85-2.3-2a121.76,121.76,0,0,0-16.86-1.06c-3.6,0-7.39,1-10.8-1-2.89-1.61-4.7-.63-6,2.1-.31,0-.62.08-.93.1-2.82-.14-3.21,1.66-3.1,3.86,0,.3-.08.6-.11.91-2,.23-2,1.65-1.83,3.14-1.76,1.69-.71,3.93-1.13,5.88-2,.19-2,1.6-1.88,3.1Z" transform="translate(-31.95 -508.79)"/><path class="cls-5" d="M213,701.17c-.55-2.69-2.1-3.72-4.68-2.87-3.36,1.1-4.48.42-4.1-3.46.65-6.44-.91-8.25-6.24-8.92-.48,2.76.56,5.72-.81,8.34-3.15,6-6.19,11.82-7.68,18.71-1.51,7-4.42,14.13-9.56,19.76-3.71,4.06-6.16,10.45-13.8,7.43-1.44-.57-2.87.57-4.12,1.39s-1.67,3.26-3.91,2A2.25,2.25,0,0,1,156.9,742a30.88,30.88,0,0,1-7.06,1.22c-4.08,3-8.09,6.22-13,7.72-11.05,3.37-21.65,8.25-33.32,9.6-2.6.3-5.79-.32-8,2.09A29.6,29.6,0,0,0,105.67,770c1,.46,2.41.93,3.32.59,10.48-4,22,0,32.44-4.34a1.13,1.13,0,0,1,.95.13c3,2.57,8,2.38,9.11,7.61.56,2.65,2,5.17,2.83,7.9,1.73,6,3.92,6.77,9.32,3.74,2.05-1.15,4-3.47,6.76-1.85,3.69,2.17,4.79.23,6-3s.12-6.88,1.17-9.53a28.07,28.07,0,0,1,8.32-11.56c3.81-3,6-5.29,4-10.09-.4-.95.62-1.79,1.22-2.59a24.88,24.88,0,0,0,3.35-4.92c4.65-11.27,9.27-22.49,17.32-32C213.66,707.94,213.6,704.34,213,701.17Z" transform="translate(-31.95 -508.79)"/><path class="cls-3" d="M76.89,772.83l2.8.26c.19.85.58,1.79,1.49,1.73,4.12-.29,7.68,1.29,11.38,2.79,2,.79,4.38,1.1,6.42-1s12.4-1.84,14.27.12c.94,1,2.06,3.25,1.15,4-2.19,1.76-2.09,4.73-4.12,6.42-.81.66-2.54.72-2,2.34s2,1.45,3.35,1.54l2.15,2.89c1.53,5.69,6.8,3.6,10.38,4.82,7.46,2.54,13.24-3.84,20.26-4.61,2.46-.27,1.39-3.91-.41-5.71-.5-.5-1.63-.3-2.34-.68-3-1.59-4.43-4.23-3.72-7.43.54-2.45,2.5-4.89,5-4.88,3.12,0,4.77,2.68,5.35,5.69.28,1.45.2,3,.49,4.43,1.08,5.31.63,11.27,7.22,14,1.31.55,4.53,2.32,3.31,4.83-3.17,6.55,1,12.37,1.27,18.54l-.8,2.06a2.91,2.91,0,0,0-2,1.87c-3.46,2.63-6.91-.11-10.36,0-.94-2.47-3.36-2.39-5.33-3.05-12.15-4.08-24.44-3.64-36.87-1.48-4.72.82-9.57.86-14.35,1.25,0-3.36.88-7.13-4.77-6.92-1.64.06-2-2-1.77-3.93.52-3.82-.15-4.26-4.52-3.72l-3-.12c-.31-1.32-.66-2.54-2-.67L70.71,808c.17-2-.32-3.47-2.53-4-1.85-.48-3.63-1.2-5.44-1.82.7-1.24,1.92-1,3.06-1.17a40.17,40.17,0,0,0,16.52-6.17c2.18-1.42,3.68-2.22,6.2-.69,2.81,1.7,4.48-.94,6.18-2.59s.68-3.13-.54-4.73c-4.84-6.32-12.12-8.12-19.69-3.36A95.7,95.7,0,0,1,54.56,793c-4.12,1.43-4.66,3.78-1.78,7l-1.17,1.06a30,30,0,0,1-12.9-8A2.37,2.37,0,0,1,41,790.94c8.62-1.5,16-5.9,23.53-10,.69-.38,1.65-.84,1.85-1.46C68.07,774.28,72.72,774,76.89,772.83Zm27.56,31.28c-3.59.76-6.74,1.16-9.71,2.12-3.31,1.06-3.55,3.56-.86,5.78a56.52,56.52,0,0,1,5.19,4.57c1.18,1.26,2.28,1.3,3.48.42a20.58,20.58,0,0,1,12.93-4.31,5.34,5.34,0,0,0,4.64-3.9c.41-1.79-2.51-1.74-3.51-2.91C112.84,801.46,107.56,808.91,104.45,804.11Zm34.07,7a9.78,9.78,0,0,0-6.78,1.45c-.81.51-1.92.86-1.49,2.16.32.94.8,2,1.89,2.09,4.4.42,8.8.87,13.21,1,1.29,0,3.48-.23,3.75-1.72.39-2.11-1.95-2.36-3.36-2.86C143.33,812.32,141.27,810.13,138.52,811.07Z" transform="translate(-31.95 -508.79)"/><path class="cls-3" d="M1346.35,814.92c-.46-1.58-.93-3.16-1.38-4.74-.47-4.36,3.27-8.74,1.83-12.39-3.51-8.92,4.6-12.39,7.29-18.33a2,2,0,0,1,1.77-.26c3,4.18,8.28,2.22,12.14,4.47,5,3,13.21,1.71,16.36-1.59a7,7,0,0,1,.92-.09c1.74.16,3.24-.15,4-2,1-1.91,3.47-2.73,4-5.06.13-2.2-2.06-2.94-3.1-4.22-2.24-2.76-1.52-5.86.25-7,3.84-2.5,8.4-3.88,12.71-5.61a2,2,0,0,1,1.71.72c2.64,3.88,6.45,3.65,10.16,2.63,4.16-1.15,8.69.48,12.66-2,1.19-.76,1.77.83,2.61,1.58,2.48,2.23,5.72,6.26,7.78,5.78,4.82-1.12,7.21,2.31,10.54,3.64s6,3.8,10,3.78c2.44,0,4.28,2.1,3.87,5.1-2.5,3.13-6.45,3.65-9.71,5.41-.46-5.78-5.24-7.64-9.44-9-4.76-1.57-8.45-4.43-12.13-7.41-6.61-5.36-17.32-3.59-21.62,3.81-2,3.49,1.48,9.9,4.52,8.25,5.14-2.8,8,.89,11.76,2,5.16,1.51,10.12,3.66,15.46,4.57-2,2.36-6.32,2.08-7,6-2.66.25-5.17,1.54-7.92,1.16-2.63-.2-5.32-1-4.42,3.66.34,1.72-2.31,3.41-3.24,5.13-1.38,2.54-5,2.8-5.35,6-10,.72-19.75-1.8-29.68-2.09-8.67-.24-16.56,2.77-24.65,5.09a2.58,2.58,0,0,0-1.8,2.15C1353.56,814.24,1350,815.42,1346.35,814.92Zm46.5-24.1c-3.68-2-3.55,2.54-6.3,2.37-3.15-.19-2.28,1.89-.94,3.57a6.19,6.19,0,0,0,5.24,2.23c3.8,0,7.63.33,10.43,3.46,1.79,2,3.18,1.12,4.4-.59a9.63,9.63,0,0,1,2.57-3c1.65-1,4.08-2.18,3.5-4.29-.72-2.56-3.45-3.1-6-3.68C1401.22,789.91,1396.7,790.34,1392.85,790.82ZM1360.58,805c3.23-.26,5.87-2.54,9.23-2.12,1.41.17,3.91,1,4.1-1.41s-1.88-3-4.05-3.48c-5.28-1.08-9.54,1.67-14,3.46-1.19.48-1.94,1.71,0,2.39A48.47,48.47,0,0,0,1360.58,805Z" transform="translate(-31.95 -508.79)"/><path class="cls-5" d="M1290.4,875a2.63,2.63,0,0,0,.46-3.6c-3-5.62-5.94-11.26-6.67-17.75-.31-2.66-2-2.46-4-1.77-4,1.36-7.8,3.54-12.35,2.24-1.44-.41-3.47-.38-4-1.65-2.15-5.38-7.49-5.88-11.72-7.88-2.46-1.16-3.61-3.59-6.06-4.7-1.33-.6-.79-2.6.18-3.52,4.65-4.42,8-10.59,15.85-10.65,4.2,0,8.22-2,12.7-1.49,5.48.67,7.47,5.06,10.23,8.57,2.39,3,6.22,4.54,9.29,2.39,4-2.83,8.91-3,13.25-4.75,1.86-.77,8.42,3.67,8.65,5.45.31,2.39-5,7.11-8.09,6.85a15.64,15.64,0,0,0-14,5.66c-1.45,1.7-3.23,1.36-4.92,1.83-1.26.35-2.66.84-2.85,2.42s-.3,3.14,2,3.21l2,1.15a2.87,2.87,0,0,0,3,3l1.8,1.21,8.17,7.83q2.54,3.5,5,7l.57,6.21c-3.52-.11-3.71,5.27-7.57,4.6-1.74-1.7-3.93-.66-5.89-1l0,0c0-3.7-2.62-5.74-4.89-8Z" transform="translate(-31.95 -508.79)"/><path class="cls-2" d="M1139.32,908c-14-5.66-23-15.9-29.49-29.38-10.32-21.28-13.33-43.15-8.47-66.21a11.67,11.67,0,0,1,2.8-5.64c1.42,1,1,2.21.52,3.53-2,5.62-.41,10.79,1.19,16.3,2.48,8.49,9.69,14.14,12.3,22.48,1.19,3.82,1.91,8.09,5.26,11-.08.23-.16.47-.23.7-2.28,1.11-3.62,3.13-5,5.12a3.84,3.84,0,0,0-2,3c-1.3,1.28-2.32,3-.26,4,4.79,2.43,8.83,6.28,14.5,7.11,3.16.46,7.14-.21,8.85,3.87a15.48,15.48,0,0,1-8.12,3.23c-1.14.11-2.83.77-2.84,2.29s1.45,2,2.74,2.45a16,16,0,0,0,6.86.53c1.3.39,2.57.71,3.38-.84l1.73-.92c6-1.34,5.7-6.78,7.25-11,1.26.87,2.8,1.44,3.18,3.18a54.58,54.58,0,0,0,.59,8.59c.38,1.86,2.78,3.81,1.71,4.68-2.93,2.39-3.55,7.2-8.14,7.74-2.93.34-5.85.72-8.77,1.12-.22,0-.41.29-1.09.8l4.73.48C1141.3,907.2,1139.77,906.63,1139.32,908Z" transform="translate(-31.95 -508.79)"/><path class="cls-2" d="M402.82,821.85a75.4,75.4,0,0,1,1.56,39.7,127.35,127.35,0,0,1-13.09,33.66c-4.56,8.29-11.88,14.18-20.5,18.26-1.72-2.83-4.5-1.4-6.8-1.56-6.13-.43-10.77-3.12-9.93-7.35,1-5.18-1.95-11,2.42-15.65.76,4,2.57,7.14,6.56,8.6,5.18,2.66,10.35,3.49,15.39-.24.64-.49,2-1,1.32-2.25a2,2,0,0,0-1.61-.88c-4.51,1.24-7.75-2-11.55-3.14,0-2.28.21-3.81,3.3-4.27a47.87,47.87,0,0,0,16-5.86c6.29-3.46,6.5-4.91.7-9.76l-3.93-4.18c0-2.54,2.6-3.66,3.26-6a56.88,56.88,0,0,1,8.37-18.39C398.76,836.4,400.74,829.05,402.82,821.85Zm-15.64,75.88a7.31,7.31,0,0,0-1.72-.59c-.4,0-1,.15-1.18.42-.33.69.12,1.19.83,1.18C385.49,898.74,385.87,898.4,387.18,897.73Zm1.1-2.55c-.11-.28-.16-.7-.36-.8s-.55.16-.83.26c.12.29.16.71.37.81S388,895.28,388.28,895.18Z" transform="translate(-31.95 -508.79)"/><path class="cls-4" d="M1384.36,782.08c-3.15,3.3-11.33,4.54-16.36,1.59-3.86-2.25-9.1-.29-12.14-4.47a2,2,0,0,0-1.77.26c-2.69,5.94-10.8,9.41-7.29,18.33,1.44,3.65-2.3,8-1.83,12.39-4.15-1.2-4.56-3.59-2-6.68,2.29-2.72,2.11-5.52,1.29-8.79-1.18-4.7-1.77-9.41,2.12-13.62,1.9-2.06,2.18-5.15,1.9-8.05l0,0c2.09-.15,2-1.6,1.88-3.1.42-1.95-.63-4.19,1.13-5.88,2.07-.2,2-1.64,1.83-3.14,0-.31.06-.61.11-.91a4.73,4.73,0,0,0,3.1-3.86c.31,0,.62-.06.93-.1,11.79,4.16,24,.44,35.94,1.94l0,0c.33.79.66.73,1,0,3.8.4,5.68-3.32,8.89-4.17,3.25,2,7.93-1.14,10.67,3,.11.17,2.36-.5,2.47-1,.63-3.09,4-4,5-6.69l4.92-2.16c0,3,4,7.77,6.76,7.86,1,0,1.17-.91,1.26-1.74l1.93,0c.13,1.12.75,1.59,1.84,2,4.73,1.69,9.48,3.15,11.54,8.76.74,2,3.65,4.82,5.24,4.61,5.12-.65,9.71,1.71,14.62,1.6-1.23,3.94-3.15,7.35-7,9.31.41-3-1.43-5.11-3.87-5.1-4,0-6.68-2.47-10-3.78s-5.72-4.76-10.54-3.64c-2.06.48-5.3-3.55-7.78-5.78-.84-.75-1.42-2.34-2.61-1.58-4,2.53-8.5.9-12.66,2-3.71,1-7.52,1.25-10.16-2.63a2,2,0,0,0-1.71-.72c-4.31,1.73-8.87,3.11-12.71,5.61-1.77,1.15-2.49,4.25-.25,7,1,1.28,3.23,2,3.1,4.22-2,.14-4.5,1.13-5.74.26-5.57-3.9-10.39.3-15.5.9-1,.12-2.54.7-2.33,2.15a2.8,2.8,0,0,0,3,2.22C1376.78,779.9,1380.39,782.24,1384.36,782.08Zm-29.92-11.17c.24,2.14.54,4.58,3.52,4.9,3.42.36,7.38-3.39,7.92-7.21.34-2.35-3.33-6.82-5.82-6.34C1355.67,763.1,1355.71,767.41,1354.44,770.91Z" transform="translate(-31.95 -508.79)"/><path class="cls-3" d="M225.66,870c.93,4.91,2,9.78,5.42,13.69.18,1.65,1.24,2.14,2.73,2.09,0,.53,0,1.07,0,1.6-1.09,5,3.88,5.73,6,8.45-.3,2.16,1.81,6-3.5,4.61-1-.26-1.21,1.18-.22,2.11,4.06,3.77,13.86,2.38,16.42-2.67,1-2,2.34-2,4-2,.25.2.74.57.73.59-2.48,3.56-.7,8.88-5.12,11.8-1.48,1-2.1,3.3-3,5.08a2.07,2.07,0,0,0,.1,1.82c.73.93,1.5.19,2.06-.36,5.73-5.67,12.43-4.59,19.08-2.49a86.38,86.38,0,0,0,11.89,3.34c1.84.3,3.87.89,4.71-1.39,1.06-2.85,2.91-5.19,4.33-7.79.7-1.29,2-3,.62-4.59-1.64-1.9-3.42-.2-5,.29-1.26.38-2.38,2.53-3.72.58-1.94-2.83-5.07-2.61-8.65-3.42,4.58-3.18,2.17-4.36-.59-6-2.25-1.34-4.67-1.58-7-2.31-1.15-.36-2.59-.31-1.24-2.07a16.33,16.33,0,0,1,5.28.58c1.54.57,3.24,1,3.91-1.32a8.07,8.07,0,0,1,.87-.29l11.93,1.17c1.8,1.52-5.64,6.53,2.18,5.78l1.91.09c.69,1.14,1.85,1,2.93,1.07l1,1a2.77,2.77,0,0,0,2.2,1.83c5,.34,3.37,3.27,2.29,5.89a9,9,0,0,1-1.6,1.89c-4.56,5.42-4.77,9.12-.84,14.89,3,4.35-.5,11-6,11.46-4.51-3.14-8-7.41-11.7-11.33a16.29,16.29,0,0,0-13.22-5.45c-4.12.19-8.24.51-12.35.87-2.32.2-4.3.77-5.9,3a7,7,0,0,1-6.81,3.07,25.94,25.94,0,0,1,3.51-13.52c2.78-4.91-.61-5-3-4.43-5,1.08-8.69-3.82-13.88-2.12-1.49.49-3.95-3.2-6.18-3.54-5.87-.9-3.43-3.71-2-6.53.79-1.58,2.37-2.52,2.68-4.6.89-6.13,1.58-12.21,0-18.32l.93-2.12Zm6.27,29.22-.79.62c.3.32.55.77.92.9s1.06,0,.87-.65C232.82,899.73,232.27,899.5,231.93,899.22Z" transform="translate(-31.95 -508.79)"/><path class="cls-3" d="M183.77,624c-3.5-.83-7.25-1.07-7.46-6.21-.06-1.51-1.65-3.53-3.09-4.28-3.49-1.83-6-4.64-8.8-7.21-1.77-1.63-3.79-2.74-6.33-1.73l-.07-.1c.12-.63.53-1.38.32-1.86-3.47-7.8-7-15.57-10.57-23.34a2.21,2.21,0,0,0-2-1.21c-.35-1-.7-1.93-1-2.89l-.57-1.12-.6-1.9c1.23-.69,1.07-1.9,1.25-3,.92-6.17,2.5-11.84,8.6-15.29,9.32-5.28,20-7.95,28.42-14.83,2.75-2.24,7.05-1.53,9-5.06,4.84.84,5.94,5.79,9.08,8.54,6.65,5.85,12.67,12.52,16.87,20.53a2.68,2.68,0,0,1-4.34.08,57.31,57.31,0,0,0-11-8.48,11.19,11.19,0,0,1-3.37-4.24c-3.18-5.86-8.33-7-13.11-2.21-1.75,1.74-4.11,2-5.82,3.62-.44.41-1.74.42-1.77.7-1,9.55-9.39,3.64-13.69,6.46-3.25,2.13-6.76,3.42-9,7.06-3.43,5.56-2,11.69.23,16,4.8,9.19,11.52,17.39,17.47,26,.28.41.6.92,1,1.07C180.26,611.64,182,617.82,183.77,624Z" transform="translate(-31.95 -508.79)"/><path class="cls-3" d="M363,897.51c-4-1.46-5.8-4.61-6.56-8.6-4.37,4.67-1.4,10.47-2.42,15.65-.84,4.23,3.8,6.92,9.93,7.35,2.3.16,5.08-1.27,6.8,1.56a72.55,72.55,0,0,0-14.14,11c-1.33,1.38-2.49,3.11-4.58,3.56-6.23-.18-12.61.48-17.93-4-.72-.59-2.45-1.48-3.12-.21-1.4,2.65-3.82,1.56-7.24,1.79,4.64,2.94,8.27,4.59,12.35,5.4,2.66.52,5.42,1.12,6.61,4.11-.8,1.12-2,.91-3.08.83-1.3-1.4-2.6-1.37-3.9,0l-2.06-.14c-2.55-3.48-6.82-2.42-10.15-3.84-1.79-.77-4.2-.37-5.46-2-4-5.12-1.24-12.46,5.22-14,5.18-1.26,10.84-2.18,14-6.77,2.59-3.76,5.79-6.79,8.76-10.12,1.17-1.32,3.08-2.83,1.84-4.65-1.55-2.29.12-2.72,1.41-3.1,2.06-.61,3.26-2,4.61-3.52,3.56-4,5.06-3.61,7.05,1.41C359.36,892.5,363.3,894.48,363,897.51Z" transform="translate(-31.95 -508.79)"/><path class="cls-4" d="M361,889.14c-2-5-3.49-5.4-7.05-1.41-1.35,1.52-2.55,2.91-4.61,3.52-1.29.38-3,.81-1.41,3.1,1.24,1.82-.67,3.33-1.84,4.65-3,3.33-6.17,6.36-8.76,10.12-3.16,4.59-8.82,5.51-14,6.77-6.46,1.58-9.25,8.92-5.22,14,1.26,1.61,3.67,1.21,5.46,2,3.33,1.42,7.6.36,10.15,3.84-9.17-.49-18.08,1-27,2.89-5.34,1.13-11,1.53-14.95-3.7,5.49-.47,8.95-7.11,6-11.46-3.93-5.77-3.72-9.47.84-14.89a9,9,0,0,0,1.6-1.89c1.08-2.62,2.73-5.55-2.29-5.89a2.77,2.77,0,0,1-2.2-1.83c.84,0,1.67,0,2.5,0,6,0,6.07,0,4.53,5.75-1,3.66-2.61,7.15-2,11.12.32,2.29,1.76,3.41,3.58,4.41,2.18,1.2,2.81-.62,4-1.73,4.33-4.08,9.14-6.84,15.47-6.67,3.21.08,6-2,8.79-3.74,3.5-2.19,2.15-7,5.08-8.74,5.4-3.16,7.51-8.62,10.52-13.4,2-3.12,5-5.15,7.67-4.45,7.17,1.88,13.9.19,20.36-1.8,4.18-1.28,9.78-2.42,10.52-8.6,5.8,4.85,5.59,6.3-.7,9.76a47.87,47.87,0,0,1-16,5.86c-3.09.46-3.32,2-3.3,4.27C364.46,891.15,363.29,888.42,361,889.14Z" transform="translate(-31.95 -508.79)"/><path class="cls-3" d="M1234.33,908.87c-3.59,1.23-5.94,4-8.38,6.67-3.65,4-6.78,8.55-11.49,11.5-6.6-2-8.18-6.66-4.48-13.19,3.57-6.3,2.52-10.63-3.61-14.94,0-.32-.07-.64-.1-1-1.22-3.3-1.25-6,3.25-6.42.32,0,.54-1,.81-1.58l1.84-1.07,1-1.11a2.33,2.33,0,0,1,2.2-.72c1.35.7,2.74,1.44,4.08.05s-.17-2.33-.64-3.47a11,11,0,0,1-.41-2.4l1.91-.05c6.81,1.16,13.59,2,20.11-1.33,1.41,2.32,2.25,3.82-1.91,4.21-7.84.74-1.43,7.48-4,10.78a3.23,3.23,0,0,0,1.34,4.72,6.09,6.09,0,0,0,2.43.39c1.49.07,3.14-.36,4.46.12,3.6,1.33,8.6-.21,10.44,4.88-5.67-2.49-10.77,1.78-16.3,1.4A2.57,2.57,0,0,0,1234.33,908.87Z" transform="translate(-31.95 -508.79)"/><path class="cls-5" d="M147.37,826.86c3.45-.07,6.9,2.67,10.36,0,.32,1,1.1,1,1.93.93a19.83,19.83,0,0,0,10-8.78,5.12,5.12,0,0,1,3.06-2.87c4.15-1.23,12.43,1.78,14.87,5.19,1,1.37,1.19,2.63-.47,3.19-4.24,1.42-7.15,4.6-10.43,7.32-2.64,2.19-4.74,5.11-9.32,2.47-2.09-1.2-5.57,1.19-7.54,3.71-2.22,2.83-5.65,4.58-7.86,7-4.37,4.82-8.71,3.06-13.25,1.94-3-.76-3.56,2.69-5.87,2.87-.33-1.75-.65-3.5-1-5.25-.38-1.53-1-2.9-2.93-2.26-2.18.73-3.7,2-3.09,4.67a5.84,5.84,0,0,1-.22.82c-2.29.21-4.13,1.62-6.22,2.53-1-2.06-.39-4.08-.7-6C124.94,833.11,135.18,828.39,147.37,826.86Z" transform="translate(-31.95 -508.79)"/><path class="cls-5" d="M1346.35,814.92c3.68.5,7.21-.68,10.82-1,12.74.9,23,6.07,30,17.09-1.38,3.12-5.16.78-6.93,3a2.14,2.14,0,0,1-1.15-2c-.17-2.69-2.31-3.73-4.3-3.86s-1.47,2.11-1.68,3.47l-.22,3.15c-4.79-2.08-9.46.18-14.16.53-1.89.14-3,.58-3.61-1.8-.78-3-4.5-2-6.31-4.2-3.65-4.55-7.16-9.23-14.76-7.1-2.29.65-6-2.92-8.74-4.92-2.37-1.71-3.93-4.46-7.32-4.78-1.22-.11-1.81-1.31-.92-2.68,2.47-3.82,10.11-6.89,14.56-5.85,1,.24,2.11.64,2.35,1.61,1.3,5.25,7.67,4.86,10,9C1344.19,815.07,1345.53,814.85,1346.35,814.92Z" transform="translate(-31.95 -508.79)"/><path class="cls-3" d="M1139.32,908c.45-1.41,2-.84,3.21-1.81l-4.73-.48c.68-.51.87-.78,1.09-.8,2.92-.4,5.84-.78,8.77-1.12,4.59-.54,5.21-5.35,8.14-7.74,1.07-.87-1.33-2.82-1.71-4.68a55.83,55.83,0,0,1-.6-8.59c3,.16,4.68,1.3,5.09,4.74a9,9,0,0,0,5.49,7.2,7.67,7.67,0,0,1,4.33,3.89c1.63,4,5,5.29,8.67,6.49a44.18,44.18,0,0,0,8.1,2c6.15.81,6.45,5.68,6.59,10.65.12,3.82-2.58,4.41-5.16,5.51-4.93,2.09-11,.76-15.2,5-2.69,1.22-5,.18-7.2-1.25,1.48-2,3.69-2.53,5.92-3.21,4.71-1.44,9.64-2.56,13.47-7.26-4.41-.19-8.28-3.61-11.87-.48-5.12,4.47-10.84,4.65-17,3.86Z" transform="translate(-31.95 -508.79)"/><path class="cls-4" d="M1171.4,928.32c4.2-4.27,10.27-2.94,15.2-5,2.58-1.1,5.28-1.69,5.16-5.51-.14-5-.44-9.84-6.59-10.65a44.18,44.18,0,0,1-8.1-2c-3.67-1.2-7-2.52-8.67-6.49a7.67,7.67,0,0,0-4.33-3.89,9,9,0,0,1-5.49-7.2c-.41-3.44-2.06-4.58-5.09-4.74-.37-1.74-1.91-2.31-3.17-3.18-.78-1.46-1.36-2.83-3.68-2.41-11.43,2.1-21.49-1.07-30.41-8.32a3.84,3.84,0,0,1,2-3c3.75,2.63,7.21,6.72,11.31,7.53,5.5,1.08,11.37,3,17.1,1.43,4.73-1.34,8.31.2,11.76,3h0c-.05,2.11,1.28,3.2,3,4l1,1.05c.56,3.63,2.12,6.52,5.53,8.34a5.93,5.93,0,0,1,3.4,4.11c1,6.63,6.57,7.51,11.43,8.39,6.29,1.13,12.43,1.87,16.61,7.55,1.72,2.34,3.86,1.84,5.34-.29s4.92-4.31.85-7.2l-.09-1.94c1.17-.73.83-1.95,1-3,6.13,4.31,7.18,8.64,3.61,14.94-3.7,6.53-2.12,11.19,4.48,13.19-2.55,3.35-6.1,3.67-9.87,3.19C1193.57,928.82,1182.61,926.33,1171.4,928.32Z" transform="translate(-31.95 -508.79)"/><path class="cls-3" d="M1329.41,836c-.15-3.07,1.41-5.54,2.89-8,2.35,1.93,4.83,3.61,7.11,5.71,4.59,4.24,9.18,9.61,16.32,9.08,3.41-.26,6.39.85,9.57,1.19-1.37,5.48-5.92,8.75-9,13l0,0c-.91,0-1.74.13-2,1.18-1,1.52-3.93.15-4,2.85-3.48-.45-4.3,1.08-2,3.5,1.69,1.79,2.08,4.82,5,5.45.06.33.13.67.2,1,1.86,3,2.62,6.14.88,9.5-7.1-.07-12.23-4.66-18-7.85-.28-1.22-.73-2-2-.76l-3-.74c-1.88-3.16-5.78-1-8.08-3.07,2.3-3.76-2.3-4.56-3-7a22.59,22.59,0,0,0,4.86.56c2.09-.2,4.52-.53,5.73-2.42s-.74-3.28-1.81-4.18c-2.4-2-.8-3.39.25-5,4.82,12.33,14.07,10.68,21.16,5.26,1.27-1,3-2,2.63-3.93s-2.43-1.35-3.72-1.78c-6.63-2.19-13.17-4.42-16.39-11.48A3,3,0,0,0,1329.41,836Z" transform="translate(-31.95 -508.79)"/><path class="cls-3" d="M1276.44,870.25c2.91-3.19,2.93-7.38,3.9-11.24,2.54,3.33,2.32,7.06,1.55,10.87-1,4.69-1.17,8.93,3.39,12.42,3.38,2.59,2.88,7.53-.41,10.5a28.37,28.37,0,0,1-4.78,3.53c-1.45.82-3.53,1.35-4.42-.46-1.28-2.6-2.68-1.47-4.45-.94-2.84.86-3.8,4.1-6.72,4.91a2,2,0,0,0-.54,3c3.84,3.8,2.47,8.07,1.34,12.36-3.9-.07-6.16-2.5-8-5.54l-1.14-2.49c4.11-3.51-.06-6.17-1.66-7.77-3.88-3.88-3.6-9-5.23-13.44,2,2,4.82,2.12,6.65,5.33,1.92,3.37,7.32,3.62,11.73,1-2.19-.88-4.94.32-6.24-1.55-3-4.27-7.49-6.72-11.23-10.07,2.31-2.11,3.61-6.42,8.12-3.7l-.89,1.83c-.43.17-1.26.47-1.25.5.37,1.15,8.64,6,9.57,5.46,2.85-1.63,6.81-2.3,6.53-6.91v0l1-1,0,0c1-.45.49-.83,0-1.2C1274.35,873.94,1276.58,872.8,1276.44,870.25Z" transform="translate(-31.95 -508.79)"/><path class="cls-4" d="M1265.3,915.24c1.13-4.29,2.5-8.56-1.34-12.36a2,2,0,0,1,.54-3c2.92-.81,3.88-4.05,6.72-4.91,1.77-.53,3.17-1.66,4.45.94.89,1.81,3,1.28,4.42.46a28.37,28.37,0,0,0,4.78-3.53c3.29-3,3.79-7.91.41-10.5-4.56-3.49-4.35-7.73-3.39-12.42.77-3.81,1-7.54-1.55-10.87,0-.79-.42-1.9.45-2.25s1.29.69,1.66,1.38c2.2,4.1,4,8.36,3.77,13.09-.15,3.24,1.37,4.07,4.17,3.72,0,.95.07,1.9.1,2.85.18,3.56,1.42,6.47,4.89,8v0c1.55,2.87,3.59,2.76,5.9,1,3.86.67,4-4.71,7.57-4.6-.12,4.69,0,9.41-2.17,13.79-1.11-.31-2.41-.35-3.29-1-3.74-2.69-5.85-.8-8.32,2.14-3.45,4.11-8.23,6.74-12.52,9.93-2.92,2.18-7.09,2.4-9.07,6l-.08.05c-2.14-.21-2.37,1.68-3.21,2.91C1268.53,916,1266.81,916.27,1265.3,915.24Z" transform="translate(-31.95 -508.79)"/><path class="cls-4" d="M222.78,872c1.61,6.11.92,12.19,0,18.32-.31,2.08-1.89,3-2.68,4.6-1.39,2.82-3.83,5.63,2,6.53,2.23.34,4.69,4,6.18,3.54,5.19-1.7,8.91,3.2,13.88,2.12,2.42-.53,5.81-.48,3,4.43a25.94,25.94,0,0,0-3.51,13.52c-1,2.51-3.24,1.48-5,1.78-2.76-6.58-10.41-6.92-14.81-11.61-3.62-3.85-9.85-4.64-12.44-10.12-1-2.06-3.2-1.43-4.79-.41a41.9,41.9,0,0,0-4.2,3.48A20.72,20.72,0,0,1,197.78,897c7.79,6.08,16.05,3.24,19-6.51.29-.94.54-2.18,1.24-2.66,4.44-3.08,3-6.95,1.66-10.84.06-1.64.12-3.27.19-4.91Z" transform="translate(-31.95 -508.79)"/><path class="cls-3" d="M151.83,871.21l-1.05-2.29c2.4-.33,4.58.55,6.68,1.43,6,2.53,11.46,2.48,16.29-2.4.93,4.07,3.84,5.5,7.64,5.55a33,33,0,0,0,4.39-.5c-.74.89-1.47,1.78-2.21,2.66s-2.28,1.89-1.37,3.37,2.34.71,3.59.34a25.12,25.12,0,0,1,9.91-.37c4.63.51,7.16-2,9.91-5.14-5.09-2-9.45-5-14.87-3.91.28-2.57,2.59-2.92,4.31-3.51,3.33-1.14,6.87-.46,10.32-.49,5.84-.06,6.07.29,5.39,6l-11.13,12.86c-4,.47-7.7-2.7-11.83-1.14-8.78-1.75-16.83-.26-24,5.37a23.16,23.16,0,0,1-7.05,3.28c-2.85-1.65-3-3.74-2-6.83,1.42-4.44,7.28-6.51,5.91-12.32l-5,.73C155.21,871.9,152.91,872.43,151.83,871.21Z" transform="translate(-31.95 -508.79)"/><path class="cls-4" d="M1300.53,663.18c-.47-3.32,1.68-6.15,1.6-9.55-.08-3.18,2.58-6.64-3.39-7.24-1.83-.19-2.11-2.85-.23-4.38,4.9-4,6.22-10,9-15.21,3-5.78,4.62-12.92,11.76-15.77,1.42-.57,3-1.67,2.85-3.2-.32-5,3.57-6.71,6.67-9,3.44-2.54,6.35-5.67,10-8.05,3.93-2.56,3.26-8.1,5.7-11.76,3-4.46,3.62-10.15,7.63-14-3,14.2-9.33,26.67-19.72,36.82-11.44,11.18-16.08,25.78-21,40.26-1.76,5.19-2.93,10.57-4.38,15.87C1302.51,656.83,1303.72,662.72,1300.53,663.18Z" transform="translate(-31.95 -508.79)"/><path class="cls-4" d="M155.72,873.93l5-.73c1.37,5.81-4.49,7.88-5.91,12.32-1,3.09-.86,5.18,2,6.83l-5.91,1.45c-.06-.49,0-1.1-.22-1.46-2.36-3.33-3.93-6.5.89-9.19a2.55,2.55,0,0,0,.71-2.22c-.31-1.27-1.57-1-2.5-.83-3.15.53-6.6-1.26-9.5,1.39-.79.72-1.65,0-2.48-.76-3.27-3.12-6.62-2.6-9.86.18l-3.43-3.42A68.08,68.08,0,0,1,112.93,863c.24-4.85.12-9.77,2.61-14.21,1.5,1,1.1,2.61,1.24,4s-.67,3.55,1.74,4a4.09,4.09,0,0,0,4.88-2.5c.92-2.09,1.51-4.32,2.24-6.49a5.84,5.84,0,0,0,.22-.82l6-2.41c.33,1.75.65,3.5,1,5.25,0,.36-.07.72-.1,1.08-.76.56-3.4-2.25-2.49,1.46a5.21,5.21,0,0,1-1.36,4.6c-3.73,3.88-1.92,7,.67,10.49,1.93,2.62,4.27,5,6.88,6.22,3,1.39,6.84,5,10.3.21C149.75,874.46,152.74,876.1,155.72,873.93Z" transform="translate(-31.95 -508.79)"/><path class="cls-5" d="M70.77,758c-.16.47-.22,1.24-.51,1.34-3.16,1.11-8.57,1.07-2.23,6,1.33,1-.88,1.6-1.9,1.72a22.19,22.19,0,0,0-13.69,6.81c-.53.55-1.52.73-1.61,1.67-.49,5-3.43,6.77-8,5.88-3.5-.67-6.79.63-10.2.57C30.31,773.59,34.31,765.52,43,760,51.94,754.29,61.14,753.79,70.77,758Z" transform="translate(-31.95 -508.79)"/><path class="cls-4" d="M1232.26,629.05c.24,3.52,0,6.93-2,10a4.82,4.82,0,0,0-.31,5.14c1.91,3.89,1,7.25-2.59,9.78-1.75,1.25-3.42,2.83-5.39,3.5-5.31,1.81-4,5.23-2.47,8.73.57,1.35,1.61,2.5,2.3,3.81a4.37,4.37,0,0,1-.72,5.1c-1.2,1.42-2.67.74-4.12.27-4.69-1.53-9.47-2.85-11.81-8-.46-1-1.25-3-2.9-1.77-3.42,2.44-6.72.25-10.06.14-.32-3.7,3.34-4,5-5.94,6.29-7.44,13.69-11.39,23.75-9.3,1.5.31,5.4,0,3.8-3.2-2.06-4.15-1.13-6.81,2.12-9.41,1.62-1.3,1.58-3.15,1.33-5Z" transform="translate(-31.95 -508.79)"/><path class="cls-1" d="M172.83,523.24c6.15,1.93,12.26,3.91,16.81,8.86a13,13,0,0,0-7.55,1.52c-8.42,4.63-16.81,9.31-25.55,13.36-2.8,1.29-6.46,0-8.5,3.19-2.86,4.52-6.44,8.64-7.46,14.13-3.27-6.84-3.52-13.94-1.81-21.21,3.19.61,3.56-3.85,5.95-3.69,5.5.37,9.68-3.06,14.43-4.62C164.89,532.9,171.08,530.38,172.83,523.24Z" transform="translate(-31.95 -508.79)"/><path class="cls-2" d="M1441.28,786.91c-5.34-.91-10.3-3.06-15.46-4.57-3.77-1.09-6.62-4.78-11.76-2-3,1.65-6.54-4.76-4.52-8.25,4.3-7.4,15-9.17,21.62-3.81,3.68,3,7.37,5.84,12.13,7.41,4.2,1.38,9,3.24,9.44,9l-.08,0c-1.57-1-2.23-.34-2.36,1.29l-1.2.76a.6.6,0,0,0-.59-.42c-1-1.67-1.77-1.35-2.46.23Z" transform="translate(-31.95 -508.79)"/><path class="cls-5" d="M1320.27,512c11.43-5.36,24.91-4,31.78,3.59,5,5.49,6.86,12.26,7,19.57a40.36,40.36,0,0,0-14.83-8.31,71.87,71.87,0,0,1-19.28-9.46C1322.89,516,1320.65,514.83,1320.27,512Z" transform="translate(-31.95 -508.79)"/><path class="cls-1" d="M272.84,650.94c-1.17-2.59-5.13-4.76-1.2-8.11l7.06,4.29c-.31,1.76-.75,3.41-.05,5.3.82,2.19,2.27,2.72,4.24,2.55s4.68,1,4.8-2.6c7.79,4.92,15.08,10.56,22.33,16.22a57.93,57.93,0,0,1,12.84,14.24c-2.89.4-4-3.76-7.1-2.81-3.5-1.45-4.19-6.07-8.05-7.12-1.52-2.37-5-1-6.43-3.22-2.52-3.88-5.75-3.4-9-1.66-2.74,1.45-4,.78-4.51-2.09-.48-2.68-2.2-4.61-4.79-3.69-3.59,1.28-6.84.07-10.23-.22h0c0-2.31,0-4.63,0-6.94.05-.31.1-.62.12-.93,1-.22,1.88-.59,1.7-1.86C274.45,651.28,273.64,651.1,272.84,650.94Z" transform="translate(-31.95 -508.79)"/><path class="cls-1" d="M1320.27,512c.38,2.81,2.62,4,4.65,5.39a71.87,71.87,0,0,0,19.28,9.46,40.36,40.36,0,0,1,14.83,8.31,34.34,34.34,0,0,1-2.77,17.86c1.66-6.83-4.37-10.55-6.53-15.83-.63-1.52-2.88-2.14-4.8-2.16a5.74,5.74,0,0,1-4.08-1.35c-4.92-4.29-11.93-4.1-17.17-9-3.41-3.2-9.86-5-15.52-5.7C1311.46,515.39,1315.78,513.56,1320.27,512Z" transform="translate(-31.95 -508.79)"/><path class="cls-4" d="M1379.12,832.08a2.14,2.14,0,0,0,1.15,2c.9,2.13,1.81,4.24,2.68,6.38.48,1.2.67,2.77,2.56,2.26,1.5-.4,2.63-1.15,2.79-3s-.73-4,.9-5.68c2.8,3.53,2.91,7.75,3,12-3.37,7.53-6.8,15-13.85,20-2.28,0-4.93-.69-6.77.23-4.06,2-5.43.22-6.35-3.21a6.47,6.47,0,0,1,3.66-3c8.21-3.27,11.36-10,9.85-18.43-.68-3.8-3.87-6-4.5-9.53Z" transform="translate(-31.95 -508.79)"/><path class="cls-3" d="M200.49,908.18a41.9,41.9,0,0,1,4.2-3.48c1.59-1,3.81-1.65,4.79.41,2.59,5.48,8.82,6.27,12.44,10.12,4.4,4.69,12.05,5,14.81,11.61C221.28,930.64,205.12,922.32,200.49,908.18Z" transform="translate(-31.95 -508.79)"/><path class="cls-5" d="M172.83,523.24c-1.75,7.14-7.94,9.66-13.68,11.54-4.75,1.56-8.93,5-14.43,4.62-2.39-.16-2.76,4.3-5.95,3.69,1.38-16.18,12.42-22.54,26.37-21.43C167.68,521.86,170.52,521.57,172.83,523.24Z" transform="translate(-31.95 -508.79)"/><path class="cls-5" d="M199.63,884.84,210.76,872c3.32-.69,4.61-4.39,7.8-5.27,1.94,1.41.81,3.56,1.29,5.32l-.18,4.91c-1.57,3.45-4.91,6.31-4.84,10.24.08,4.89-2.88,7.24-6.36,9.12-3.29,1.79-5.95-.32-8.41-2.46a7.17,7.17,0,0,0-2.24-.87v-5.08C199.75,887.66,199.8,886.31,199.63,884.84Z" transform="translate(-31.95 -508.79)"/><path class="cls-4" d="M1308.16,519c5.66.7,12.11,2.5,15.52,5.7,5.24,4.9,12.25,4.71,17.17,9a5.74,5.74,0,0,0,4.08,1.35c1.92,0,4.17.64,4.8,2.16,2.16,5.28,8.19,9,6.53,15.83-1.13,2.83-.73,6.38-3.85,8.29.8-7.8-1.1-14.64-7.29-19.83-2-1.66-4.06-3.44-7-2.87-.46.09-1.24.18-1.4,0-4.12-6.08-12.53-4.25-17.27-9.55-2.34-2.61-6.46-3-9.91-3.93-2-.54-4-.65-4.27-3.29A5.66,5.66,0,0,1,1308.16,519Z" transform="translate(-31.95 -508.79)"/><path class="cls-3" d="M1273.49,913.05c2-3.56,6.15-3.78,9.07-6,4.29-3.19,9.07-5.82,12.52-9.93,2.47-2.94,4.58-4.83,8.32-2.14.88.63,2.18.67,3.29,1-4.33,15-21.23,24.23-36.49,20,.84-1.23,1.07-3.12,3.21-2.91l.35.16Zm5,.39c2.86.07,6.12,1.49,8.9-2.2C1283.75,911,1281.46,913.68,1278.51,913.44Z" transform="translate(-31.95 -508.79)"/><path class="cls-4" d="M62.74,802.12c1.81.62,3.59,1.34,5.44,1.82,2.21.58,2.7,2.07,2.53,4-1.45-.21-2.9-.37-4.34-.66-.84-.17-1.7-.34-2.21.45a1.64,1.64,0,0,0,.38,2.24c5.17,3.68,9.64,8.54,16.21,10,.11.63.11,1.37,1,1.48.16,0,.57-.38.55-.54-.11-.84-.85-.84-1.48-1-.16-.45-.19-1.06-.51-1.35-4.55-4-4.57-4.59-.29-8.21.19-.16-.13-.9-.21-1.38,4.37-.54,5-.1,4.52,3.72-.26,1.92.13,4,1.77,3.93,5.65-.21,4.74,3.56,4.77,6.92-1.79.25-3.58.54-5.37.76-11,1.36-16.79-1.38-21.92-11.13a30.11,30.11,0,0,0-11.92-12.12L52.78,800C55.79,802.2,59.29,802,62.74,802.12Z" transform="translate(-31.95 -508.79)"/><path class="cls-4" d="M140.58,564.3c1-5.49,4.6-9.61,7.46-14.13,2-3.23,5.7-1.9,8.5-3.19,8.74-4.05,17.13-8.73,25.55-13.36a13,13,0,0,1,7.55-1.52l1.16,1.81c-1.94,3.53-6.24,2.82-9,5.06-8.43,6.88-19.1,9.55-28.42,14.83-6.1,3.45-7.68,9.12-8.6,15.29-.18,1.15,0,2.36-1.25,3A22.35,22.35,0,0,1,140.58,564.3Z" transform="translate(-31.95 -508.79)"/><path class="cls-4" d="M1441.28,786.91l4.77-.28,2.45-.23a.6.6,0,0,1,.59.42,67.19,67.19,0,0,0-9.78,13.48c-5.19,9-13.52,11.44-26,8.49.37-3.16,4-3.42,5.35-6,.93-1.72,3.58-3.41,3.24-5.13-.9-4.65,1.79-3.86,4.42-3.66.15,3.26,3.83,6.37,4.74,6.21,4-.7,6.92-3.75,9.07-7.41-2.22-1.63-4,.81-5.89,0C1435,789,1439.24,789.27,1441.28,786.91Z" transform="translate(-31.95 -508.79)"/><path class="cls-3" d="M1378.37,866c7.05-5,10.48-12.48,13.85-20,4.19,16.33-3.65,27.86-18.13,34.49a9.75,9.75,0,0,1-7.15.83c2-.83,1.89-3.17,3-4.67C1372.57,872.93,1376.38,870.15,1378.37,866Z" transform="translate(-31.95 -508.79)"/><path class="cls-3" d="M1123.43,860.09c-3.35-2.88-4.07-7.15-5.26-11-2.61-8.34-9.82-14-12.3-22.48-1.6-5.51-3.24-10.68-1.19-16.3.48-1.32.9-2.54-.52-3.53,1.69-3.25,3.39-6.48,6.27-8.89.07,3.36-.94,6.5-1.85,9.67-3.09,10.69.14,19.7,7.19,27.83,3.67,4.23,6.88,8.93,7.91,14.52.57,3.09,3,5,3.62,7.93Z" transform="translate(-31.95 -508.79)"/><path class="cls-1" d="M1228.21,633c.25,1.86.29,3.71-1.33,5-3.25,2.6-4.18,5.26-2.12,9.41,1.6,3.21-2.3,3.51-3.8,3.2-10.06-2.09-17.46,1.86-23.75,9.3-1.67,2-5.33,2.24-5,5.94-2.68.42-3.7,3.16-5.92,4.24-3.1-.95-4.2,3.07-7,2.84,4.47-7.51,10.86-13.14,17.79-18.26,4.77-3.53,9.45-7.19,14.18-10.78a6.39,6.39,0,0,0,8.84,1.25c2-1.33,2.17-4.31-.38-6.27Z" transform="translate(-31.95 -508.79)"/><path class="cls-1" d="M1378.37,866c-2,4.17-5.8,6.95-8.46,10.64-1.08,1.5-1,3.84-3,4.67l-.14-.26c-.48-.55-.56-1.68-1.51-1.54-1.29.19-.78,1.43-1,2.25-2.73.26-5.52,1-8-.82a6.48,6.48,0,0,1,.6-1.85c3.3-4.82,2.49-6.76-3.47-8.13-.07-.34-.14-.68-.2-1,.34-2.19,1.43-3.06,3.79-2.75a14,14,0,0,0,5.37-.48c2.71-.74.42-1.8,0-2.72l2.91-1c.92,3.43,2.29,5.25,6.35,3.21C1373.44,865.29,1376.09,866,1378.37,866Z" transform="translate(-31.95 -508.79)"/><path class="cls-3" d="M112.93,863a68.08,68.08,0,0,0,11.56,14.52c1.15,1.14,2.28,2.28,3.42,3.43a6.65,6.65,0,0,0,2.91,3c2,3.25,2.08,7,3,10.54C119.71,889.34,110.34,878.14,112.93,863Zm17.32,26-.73.45c.25.13.5.37.75.37s.48-.25.73-.4Z" transform="translate(-31.95 -508.79)"/><path class="cls-1" d="M130.82,883.92a6.65,6.65,0,0,1-2.91-3c3.25-2.79,6.6-3.31,9.87-.19.83.8,1.69,1.48,2.48.76,2.9-2.65,6.35-.86,9.5-1.39.93-.15,2.19-.44,2.5.83a2.55,2.55,0,0,1-.71,2.22c-4.82,2.69-3.25,5.86-.89,9.19.25.36.16,1,.22,1.46-2.46,2-5.31,1.21-8.06,1.16-2.92-4.64-8.55-6.45-11.53-11C131.24,883.86,131,883.92,130.82,883.92Z" transform="translate(-31.95 -508.79)"/><path class="cls-3" d="M402.82,821.85c-2.08,7.2-4.06,14.55-8.49,20.69A56.88,56.88,0,0,0,386,860.93c-.66,2.34-3.22,3.46-3.26,6l-2.06-.88-1.06-1c2.58-2.85,4.49-5.92,4.56-10,.11-6.64,5.45-10.55,8.54-15.62,1.37-2.25,2.36-4.66,3.5-7,4-8.24,3.56-16-1-23.79-.44-.77-.26-1.91-.37-2.88C399.13,810.34,403.66,814.75,402.82,821.85Z" transform="translate(-31.95 -508.79)"/><path class="cls-4" d="M238.83,613c-.37-.65-.74-1.31-1.1-2l-.13-2.78c11.22,4.2,18.07,13,24.15,22.7-3.53,3.15-6.16,2.28-9-1.35C248.38,623.87,243.51,618.51,238.83,613Z" transform="translate(-31.95 -508.79)"/><path class="cls-4" d="M76.89,772.83c-4.17,1.13-8.82,1.45-10.52,6.62-.2.62-1.16,1.08-1.85,1.46C57,785,49.61,789.44,41,790.94a2.37,2.37,0,0,0-2.28,2.16,6.61,6.61,0,0,1-3.22-3.78c1.7-2.91,3.91-3.76,7.44-3.1,2.89.54,6.55.66,8.79-1.79,3.7-4,8.43-6.8,12.12-10.76,1-1.06,2-2.1,3.33-1.6,2.54,1,4.39.08,6.39-1.32C76,769.05,76.77,770.55,76.89,772.83Z" transform="translate(-31.95 -508.79)"/><path class="cls-2" d="M1154.75,920c6.13.79,11.85.61,17-3.86,3.59-3.13,7.46.29,11.87.48-3.83,4.7-8.76,5.82-13.47,7.26-2.23.68-4.44,1.22-5.92,3.21C1160.31,925.69,1157.74,922.56,1154.75,920Z" transform="translate(-31.95 -508.79)"/><path class="cls-2" d="M342.74,935.08c-1.19-3-3.95-3.59-6.61-4.11-4.08-.81-7.71-2.46-12.35-5.4,3.42-.23,5.84.86,7.24-1.79.67-1.27,2.4-.38,3.12.21,5.32,4.48,11.7,3.82,17.93,4C349.32,930.82,346.57,933.67,342.74,935.08Z" transform="translate(-31.95 -508.79)"/><path class="cls-1" d="M1469.45,770c-4.91.11-9.5-2.25-14.62-1.6-1.59.21-4.5-2.6-5.24-4.61-2.06-5.61-6.81-7.07-11.54-8.76-1.09-.39-1.71-.86-1.84-2,6.71-1.7,11,3.08,16,6,1.18.68.38,1.8.62,2.67.63,2.27,2,3.32,4.54,3.76,4.34.76,8.84.17,13.06,1.68C1470.25,768.14,1470.52,769.31,1469.45,770Z" transform="translate(-31.95 -508.79)"/><path class="cls-1" d="M197.82,893a7.17,7.17,0,0,1,2.24.87c2.46,2.14,5.12,4.25,8.41,2.46,3.48-1.88,6.44-4.23,6.36-9.12-.07-3.93,3.27-6.79,4.84-10.24,1.34,3.89,2.78,7.76-1.66,10.84-.7.48-.95,1.72-1.24,2.66-2.94,9.75-11.2,12.59-19,6.51C197.79,895.62,197.81,894.3,197.82,893Z" transform="translate(-31.95 -508.79)"/><path class="cls-4" d="M1323.27,868c2.3,2.05,6.2-.09,8.08,3.07-8.23-.93-15.77,1.4-23.06,4.91q-2.52-3.5-5-7l13.11-1.14Z" transform="translate(-31.95 -508.79)"/><path class="cls-4" d="M1255.37,606.1a5.34,5.34,0,0,1,.21.81c-2.82,5-7.41,8.45-10.77,13-2.37,3.21-4.34,2.3-5.59-1.14,1.46-3.32,3.9-6,6.1-8.76,1.43,2.17,3.1,1.77,4.88.48S1253.12,606.92,1255.37,606.1Z" transform="translate(-31.95 -508.79)"/><path class="cls-4" d="M1256.17,907.22l1.14,2.48c-7.62-1.42-15.29-1.28-23-.83a2.57,2.57,0,0,1,2.63-2.52c5.53.38,10.63-3.89,16.3-1.4Z" transform="translate(-31.95 -508.79)"/><path class="cls-4" d="M145.75,578.05a2.21,2.21,0,0,1,2,1.21c3.54,7.77,7.1,15.54,10.57,23.34.21.48-.2,1.23-.32,1.86C151.16,596.94,148.5,587.47,145.75,578.05Z" transform="translate(-31.95 -508.79)"/><path class="cls-1" d="M1389.2,834c-1.63,1.67-.74,3.78-.9,5.68s-1.29,2.6-2.79,3c-1.89.51-2.08-1.06-2.56-2.26-.87-2.14-1.78-4.25-2.68-6.38,1.77-2.24,5.55.1,6.93-3A5.22,5.22,0,0,1,1389.2,834Z" transform="translate(-31.95 -508.79)"/><path class="cls-1" d="M125.64,847.85c-.73,2.17-1.32,4.4-2.24,6.49a4.09,4.09,0,0,1-4.88,2.5c-2.41-.48-1.58-2.51-1.74-4s.26-3-1.24-4a7.78,7.78,0,0,1,3.18-4.36c.31,1.9-.35,3.92.7,6C121.51,849.47,123.35,848.06,125.64,847.85Z" transform="translate(-31.95 -508.79)"/><path class="cls-1" d="M1255.37,606.1c-2.25.82-3.34,3-5.17,4.37s-3.45,1.69-4.88-.48c2.48-5.09,7-7.71,11.88-10l.09,4Z" transform="translate(-31.95 -508.79)"/><path class="cls-5" d="M1219.7,638.84c2.55,2,2.4,4.94.38,6.27a6.39,6.39,0,0,1-8.84-1.25A17.68,17.68,0,0,1,1219.7,638.84Z" transform="translate(-31.95 -508.79)"/><path class="cls-5" d="M287.69,652.37c-.12,3.57-2.86,2.42-4.8,2.6s-3.42-.36-4.24-2.55c-.7-1.89-.26-3.54.05-5.3C281.85,648.61,285.21,649.72,287.69,652.37Z" transform="translate(-31.95 -508.79)"/><path class="cls-4" d="M1179.27,672.9c2.81.23,3.91-3.79,7-2.84q-2.46,9.32-12.08,9.8C1175,676.87,1177.39,675.08,1179.27,672.9Z" transform="translate(-31.95 -508.79)"/><path class="cls-4" d="M130.82,883.92c.16,0,.42-.06.47,0,3,4.58,8.61,6.39,11.53,11-3,.17-6.08.58-9-.5C132.9,890.92,132.77,887.17,130.82,883.92Z" transform="translate(-31.95 -508.79)"/><path class="cls-4" d="M1353.4,870.94c6,1.37,6.77,3.31,3.47,8.13a6.48,6.48,0,0,0-.6,1.85l-2-.48C1356,877.08,1355.26,874,1353.4,870.94Z" transform="translate(-31.95 -508.79)"/><path class="cls-1" d="M199.63,884.84c.17,1.47.12,2.82-1.81,3l-10-4.19C191.93,882.14,195.6,885.31,199.63,884.84Z" transform="translate(-31.95 -508.79)"/><path class="cls-4" d="M315.76,680c3.12-.95,4.21,3.21,7.1,2.81l1,1.16c-.06.65-.11,1.31-.16,2C319.6,685.88,316.59,684.42,315.76,680Z" transform="translate(-31.95 -508.79)"/><path class="cls-4" d="M1257.29,604l-.09-4c1.52-1.22,2.89-2.68,5-3-.08,1-.15,1.92-.22,2.88a2,2,0,0,0-1.65,2.13A5,5,0,0,1,1257.29,604Z" transform="translate(-31.95 -508.79)"/><path class="cls-3" d="M237.6,608.24l.13,2.78c-2.68-1.2-4.61-3-4.85-6.13Z" transform="translate(-31.95 -508.79)"/><path class="cls-5" d="M78.78,759.16c-1.75,2.36-2.49,2.26-5.19-.69C75.39,758.14,77.25,757.45,78.78,759.16Z" transform="translate(-31.95 -508.79)"/><path class="cls-4" d="M335.76,935.89c1.3-1.35,2.6-1.38,3.9,0A3.4,3.4,0,0,1,335.76,935.89Z" transform="translate(-31.95 -508.79)"/><path class="cls-3" d="M1364.31,881.74c.2-.82-.31-2.06,1-2.25,1-.14,1,1,1.51,1.54C1366.21,882.11,1365.21,881.74,1364.31,881.74Z" transform="translate(-31.95 -508.79)"/><path class="cls-1" d="M323.67,686c.05-.65.1-1.31.16-2a3.31,3.31,0,0,1,2,2.73A1.71,1.71,0,0,1,323.67,686Z" transform="translate(-31.95 -508.79)"/><path class="cls-4" d="M1334.34,871.83c1.24-1.24,1.69-.46,2,.76Z" transform="translate(-31.95 -508.79)"/><path class="cls-3" d="M1450.29,786.06c.13-1.63.79-2.29,2.36-1.29A2,2,0,0,1,1450.29,786.06Z" transform="translate(-31.95 -508.79)"/><path class="cls-3" d="M394.78,806l-1.06-1.17C394.26,805,394.85,805.18,394.78,806Z" transform="translate(-31.95 -508.79)"/><path class="cls-4" d="M144.14,574l.57,1.12Z" transform="translate(-31.95 -508.79)"/><path class="cls-5" d="M379.58,865.09l1.06,1A12.87,12.87,0,0,1,367.1,879c-3.82-.12-7.66.14-11.48-.08-4.24-.25-8.09,1.58-9.7,4.77-3.18,6.29-8.08,10.46-13.62,14.18-3.54,2.38-6.55,5.53-10,7.77-4.89,3.17-10.68,4.94-16,7.38-.92.42-1.8,1.23-2.73.56-1.23-.88-.51-2.08-.11-3.16,1.32-3.57,2.84-7.06,2.34-11.07-.28-2.22-1.31-3.78-3.42-3.23-3.07.79-5.2-1.28-7.67-1.68-4.12-.65-1.3-3.76-2.75-5.11-2.24-2.09-13.76-1.73-16.21.59a8.07,8.07,0,0,0-.87.29l-2-.36c-.48-3-3.9-2.09-5.19-4l1.08-5.89a19.5,19.5,0,0,0,4-.13c3.38-.79,6.05-2.38,4.59-6.53-1.3-3.7-.42-6.13,3.46-7.28.77-.23,1.93-.52,2.14-1.08,2.5-6.63,8-7,13.87-7.1,3.36-.06,4.81-3.75,7.91-4.85,5.91-2.09,11.61-4.79,17.42-7.18a8.11,8.11,0,0,0,5.28-6.11c.46-2.09.95-4.51,3.38-5.15,7.59-2,12.66-8.39,19.41-11.27,4.85-2.06,10-4.44,15.46-5.16,3-.41,5.92.9,8.32,2.75s2.23,4.22,0,6.34c-1.65,1.56-2.94,3-1.18,5.51s-.63,3.64-2.52,4.11c-7.36,1.86-11.66,6.54-14.66,13.46-3.7,8.56-9.08,15.68-19.91,16-2.21.06-6.21.13-4.26,4.92.68,1.67-1,2.62-2.72,2.7s-3.33-.07-5,.06c-2.09.16-5.2-1-5,2.92.18,2.9.14,5.64,4.49,6.36,8.85,1.45,16.09-.06,22.21-7.27s13.85-12.92,24.37-12.16C373.11,863.86,376.47,863.55,379.58,865.09Z" transform="translate(-31.95 -508.79)"/><path class="cls-5" d="M199.71,854.38c-4.64.46-11.37-3.62-12.43-6.64-.42-1.2,0-2.21,1.05-2.37,4.51-.71,8.61-4.19,13.46-2.36,3.87,1.47,8.26.08,12,2.66,1.44,1,3,.23,4.3-1.86,4-6.66,11.64-9.57,19.47-8.07,2.75.53,5.56.47,8.35,1,5.79,1,8.86,5.65,12.73,9s-1.12,6.77-2.55,8.16c-4,3.87-8.15,8.39-13,10.71-5.74,2.75-12.63,5.54-18.94-1-1.11-1.14-5.72-.76-8.7-1.56-2.32-.63-4.25-1.2-5.84-3.24C206.84,855.26,202.73,854.63,199.71,854.38Z" transform="translate(-31.95 -508.79)"/><path class="cls-2" d="M268.71,880l-1.08,5.89c-1,.81-.9,2-1.06,3.07-.31.67-.62,1.35-.94,2-1.35,1.76.09,1.71,1.24,2.07,2.34.73,4.76,1,7,2.31,2.76,1.66,5.17,2.84.59,6,3.58.81,6.71.59,8.65,3.42,1.34,2,2.46-.2,3.72-.58,1.62-.49,3.4-2.19,5-.29,1.36,1.57.08,3.3-.62,4.59-1.42,2.6-3.27,4.94-4.33,7.79-.84,2.28-2.87,1.69-4.71,1.39a86.38,86.38,0,0,1-11.89-3.34c-6.65-2.1-13.35-3.18-19.08,2.49-.56.55-1.33,1.29-2.06.36a2.07,2.07,0,0,1-.1-1.82c.88-1.78,1.5-4.11,3-5.08,4.42-2.92,2.64-8.24,5.12-11.8,0,0-.48-.39-.73-.59.66-2,4.52-2.66,2.38-5.64s-9.61-3-10.36.19c-1.45,6.25-5.14,4.06-8.69,3.41-2.14-2.72-7.11-3.42-6-8.45l2,.32a4.05,4.05,0,0,0,4,2c3.2,1.71,6.13,1.41,9.49-1.25-5.1-2.36-10.06-3.73-13.58-7.51l.06-1.06c3-2,6.42-2.62,9.8-2.86,7.67-.54,13.29-4.06,17-10.69.92-1.65,2-2.59,3.9-2.27C268.69,869.16,268.89,874.53,268.71,880Z" transform="translate(-31.95 -508.79)"/><path class="cls-4" d="M111.62,791.06c-1.32-.09-2.85,0-3.35-1.54s1.2-1.68,2-2.34c2-1.69,1.93-4.66,4.12-6.42.91-.73-.21-3-1.15-4-1.87-2-12.32-2.07-14.27-.12s-4.47,1.74-6.42,1c-3.7-1.5-7.26-3.08-11.38-2.79-.91.06-1.3-.88-1.49-1.73,2.67-1.47,5.2-2.68,8.15-.21,1.77,1.48,3.59,1.4,5.6-.69s5.15-3.38,7.75-1.76c7,4.39,14.59,2.2,21.92,2.31,2.4,0,4.76-.41,7.27,0a18.27,18.27,0,0,0,8.4-.31c6.71-2,9.64-.73,11.77,6.14a68.79,68.79,0,0,0,7.89,17.45c1.25,1.9,2.72,2.56,4.33,3.59,3.7,2.37,3.59,4.3-.34,6.38a3.93,3.93,0,0,0-1.84,5.36c1.5,2.18,1.14,4.83,3.18,7,2.5,2.7-1.86,3.11-3.2,4.55-.25-6.17-4.44-12-1.27-18.54,1.22-2.51-2-4.28-3.31-4.83-6.59-2.75-6.14-8.71-7.22-14-.29-1.45-.21-3-.49-4.43-.58-3-2.23-5.69-5.35-5.69-2.49,0-4.45,2.43-5,4.88-.71,3.2.76,5.84,3.72,7.43.71.38,1.84.18,2.34.68,1.8,1.8,2.87,5.44.41,5.71-7,.77-12.8,7.15-20.26,4.61-3.58-1.22-8.85.87-10.38-4.82,5.39,1.32,10.79.4,16.18,0,1.6-.12,3.65-.48,3.56-2.65s-2-2.21-3.75-2.32c-2.12-.14-4.23.32-6.32-.83C118.7,785.51,115.49,789.76,111.62,791.06Z" transform="translate(-31.95 -508.79)"/><path class="cls-2" d="M173.75,868c-4.83,4.88-10.33,4.93-16.29,2.4-2.1-.88-4.28-1.76-6.68-1.43h0a1.74,1.74,0,0,0-2.08-1.93l-6-7c2.26-.32,4.56-1.06,6.78-.88,6.49.53,11.15-2.38,15.63-6.7,3-2.89,5.18-6.83,9.43-8.33,2,4.4,2.36,9.1,2.56,13.83Q175.43,862.94,173.75,868Z" transform="translate(-31.95 -508.79)"/><path class="cls-4" d="M173.75,868q1.67-5,3.34-10c.8,1.09,1.77,1.86,2.12-.17.92-5.43,4.57-4.33,7.8-3.07,4.62,1.79,9,4.07,14.23,2.68a1.22,1.22,0,0,1,.95.07c4.65,4.21,10.17,6.7,16.13,8.37.16,0,.17.6.24.92-3.19.88-4.48,4.58-7.8,5.27.68-5.74.45-6.09-5.39-6-3.45,0-7-.65-10.32.49-1.72.59-4,.94-4.31,3.51l-5,3a33,33,0,0,1-4.39.5C177.59,873.45,174.68,872,173.75,868Z" transform="translate(-31.95 -508.79)"/><path class="cls-3" d="M146.76,873.93c-3.46,4.76-7.29,1.18-10.3-.21-2.61-1.19-5-3.6-6.88-6.22-2.59-3.54-4.4-6.61-.67-10.49a5.21,5.21,0,0,0,1.36-4.6c-.91-3.71,1.73-.9,2.49-1.46,2.11,4.62,3.86,9.43,7,13.5-1.25,3-.24,4.91,2.54,6.35A37,37,0,0,1,146.76,873.93Z" transform="translate(-31.95 -508.79)"/><path class="cls-3" d="M266.43,864.09c-1.93-.32-3,.62-3.9,2.27-3.69,6.63-9.31,10.15-17,10.69-3.38.24-6.84.86-9.8,2.86L232,877.8c-.11-.6-.23-1.2-.34-1.8.9-1.7,2.51-2.56,4.16-1.94,4.25,1.62,7.73-.63,11.4-1.87,4.76-1.61,9.55-3.93,12.06-8.15,1.51-2.56,3-3.52,5.4-4Z" transform="translate(-31.95 -508.79)"/><path class="cls-4" d="M140.7,858c-1.63-1-3.36-3-2.17-4.26s4-1.81,5.93-1.48c9,1.59,14.65-2.8,18.61-10.08,1.68-3.09,5.11-2.53,7.37-4.36.64-.53,1.21,1.16,1.32,2.15-.39,3.13-3.75,3.29-5.37,5.4C161.5,851.73,155,855.73,146.67,856A9.67,9.67,0,0,0,140.7,858Z" transform="translate(-31.95 -508.79)"/><path class="cls-3" d="M140.7,858a9.67,9.67,0,0,1,6-2c8.36-.26,14.83-4.26,19.72-10.63,1.62-2.11,5-2.27,5.37-5.4a5.33,5.33,0,0,1,2.77,4.12c-4.25,1.5-6.44,5.44-9.43,8.33-4.48,4.32-9.14,7.23-15.63,6.7-2.22-.18-4.52.56-6.78.88A3.39,3.39,0,0,1,140.7,858Z" transform="translate(-31.95 -508.79)"/><path class="cls-4" d="M264.63,860c-2.44.48-3.89,1.44-5.4,4-2.51,4.22-7.3,6.54-12.06,8.15-3.67,1.24-7.15,3.49-11.4,1.87-1.65-.62-3.26.24-4.16,1.94-1.56-.9-2.82-2.5-2.35-4,.61-2,2.86-1,4.39-1,3.28-.15,6.54,0,9.8-1,5.6-1.6,9.59-5.54,13.32-9.48C260.09,857.05,261.8,856.47,264.63,860Z" transform="translate(-31.95 -508.79)"/><path class="cls-4" d="M182,831.14c2.13-.18,7.29,5.26,7.17,8-.18,4.09-4.09,3.93-6.6,4.42s-4.65-1.84-5.31-4.14C176.38,836.36,179.62,831.34,182,831.14Z" transform="translate(-31.95 -508.79)"/><path class="cls-2" d="M146.76,873.93a37,37,0,0,0-4.43-3.13c-2.78-1.44-3.79-3.39-2.54-6.35,3.77,2.69,7.4,5.61,12,6.76,1.08,1.22,3.38.69,3.89,2.72C152.74,876.1,149.75,874.46,146.76,873.93Z" transform="translate(-31.95 -508.79)"/><path class="cls-4" d="M232,877.8l3.8,2.11-.06,1.06C233.5,881,231.23,881.16,232,877.8Z" transform="translate(-31.95 -508.79)"/><path class="cls-4" d="M239.78,889.73a4.05,4.05,0,0,1-4-2C238,886.7,239.07,887.83,239.78,889.73Z" transform="translate(-31.95 -508.79)"/><path class="cls-4" d="M233.81,885.78c-1.49.05-2.55-.44-2.73-2.09C232.35,883.91,233.69,884,233.81,885.78Z" transform="translate(-31.95 -508.79)"/><path class="cls-4" d="M159.66,827.83c-.83.08-1.61,0-1.93-.93a2.91,2.91,0,0,1,2-1.87C159.73,826,159.7,826.9,159.66,827.83Z" transform="translate(-31.95 -508.79)"/><path class="cls-3" d="M148.69,867a1.74,1.74,0,0,1,2.08,1.93A1.78,1.78,0,0,1,148.69,867Z" transform="translate(-31.95 -508.79)"/><path class="cls-4" d="M225.66,870l-1.95-.12c.28-.53.49-1.47.83-1.52C225.72,868.2,225.6,869.22,225.66,870Z" transform="translate(-31.95 -508.79)"/><path class="cls-5" d="M1123.43,860.09l3.87-2.22,6-2c11,.46,20.59,4.25,27.43,13,6.18,7.91,14.48,6.22,22.41,5.76,3.95-.23,3.55-4.64,3.58-7.3s-2.88-1.15-4.47-1.42c-1.3-.22-2.67.07-4-.07-1.55-.16-3.58.87-4.54-1s1.7-2.5,2.49-4.88c-7.25,1-13.14-2.11-19.37-4-3.07-.91-3.92-3.21-5.7-5.28-5.53-6.43-4.81-17.91-16.21-19.71-3.23-.51-6.88-2.48-5-7.41.58-1.56-.49-3-1.51-4-3.48-3.55-1.13-6.3,1.87-7.28,5.34-1.74,11.16-4,16.23,1.12a2.93,2.93,0,0,0,1.75.91c9.08.1,14.26,8.48,22.42,10.53a11.17,11.17,0,0,1,2.68,1.23c3.66,2,8,1.73,10.2,7.4s10.08,5.5,15.71,7.17c3.4,1,6.46,1.83,8.84,4.89,2.12,2.73,5.79,3.29,9.08,3.3,5.81,0,8.79,4.93,13.28,7.18,1.5.76.66,3.09.8,4.71.31,3.74,1.29,6.94,5.85,7.25q1.11,5.44,2.21,10.91c-4.63,1.16-9.35,1-14.06,1-1.67,0-3.67-.75-4.9,1.22l-1.91.05c-3.43.68-1.63,4.08-3,5.82a2.33,2.33,0,0,0-2.2.72l-1,1.11-1.85,1.07-7.11-.09c-.8.13-1.57.33-1.73,1.3-.19,1.22.62,1.66,1.59,1.94,0,.61.07,1.23.1,1.84-1.08,2.9.43,5,2.21,7,0,.65.06,1.29.08,1.94-.4,1.68.32,3.93-1.91,4.73s-2.81-1.14-3.72-2.47c-.73-1.07-1.95-1.2-3-1.5-5.35-1.43-10-5.06-15.9-4.83-1.28.05-1.75-1.17-2.51-2.06A101.8,101.8,0,0,0,1162.31,883l-1-1.05c.13-2.17-.43-3.82-3-4h0c-1.24-5.1-5-7-12.56-5.82a23.68,23.68,0,0,1-17.44-3.89c-2.49-1.66-5.26-3.68-5.18-7.39C1123.27,860.56,1123.35,860.32,1123.43,860.09Z" transform="translate(-31.95 -508.79)"/><path class="cls-2" d="M1239.32,878.94q-1.11-5.46-2.21-10.91c.32-4.74.25-9.55,2.37-14,2.6-.4,4,1.36,5.23,3.12a17.35,17.35,0,0,0,11.13,7.34c5.12,1.19,10.49,1.3,15.39,3.46l-4.07,4.83c-2.65,2-5.37,3.93-8.85,4.23-4.51-2.73-5.81,1.58-8.12,3.69l-1.91,1.23c-1,.13-2.58-.37-2.54,1.27,0,1.24,1.29,1.67,2.49,1.73l1,1c1.63,4.49,1.35,9.56,5.23,13.44,1.6,1.6,5.77,4.26,1.66,7.77l-2.91-2.26c-1.84-5.09-6.84-3.55-10.44-4.88-1.32-.48-3-.05-4.46-.12a6.09,6.09,0,0,1-2.43-.39,3.23,3.23,0,0,1-1.34-4.72c2.54-3.3-3.87-10,4-10.78,4.16-.39,3.32-1.89,1.91-4.21Z" transform="translate(-31.95 -508.79)"/><path class="cls-4" d="M1329.29,850c-1,1.6-2.65,3-.25,5,1.07.9,2.93,2.44,1.81,4.18s-3.64,2.22-5.73,2.42a22.59,22.59,0,0,1-4.86-.56,9,9,0,0,0-.91-.11,1.76,1.76,0,0,0-2.14-1.84,5.26,5.26,0,0,0-5.83-1.21c-5.17-2-10.32-4.09-16.1-2.93-1.81.37-2,1.42-1.82,2.88l-.21.21-2.94-1-2-1.15c-1.21-2.68.75-2.88,2.43-2.76a7.46,7.46,0,0,0,6.54-3c2.37-3.23,5.37-4.07,9-4.09,3.27,0,6.18-1.53,8.8-3.07,4.11-2.41,8.53-3.26,13.05-4,0,.72,0,1.44,0,2.17a3.3,3.3,0,0,0-.33.2,6.55,6.55,0,0,0,.32.58C1328.44,844.56,1328.12,847.36,1329.29,850Z" transform="translate(-31.95 -508.79)"/><path class="cls-2" d="M1328.14,841.06c0-.73,0-1.45,0-2.17.42-.95.83-1.91,1.25-2.87a3,3,0,0,1,3.56,2c3.22,7.06,9.76,9.29,16.39,11.48,1.29.43,3.39-.22,3.72,1.78s-1.36,3-2.63,3.93c-7.09,5.42-16.34,7.07-21.16-5.26-1.17-2.59-.85-5.39-1.16-8.1A2.33,2.33,0,0,0,1328.14,841.06Z" transform="translate(-31.95 -508.79)"/><path class="cls-3" d="M1365.25,863l-2.91,1c-.72-1.35-4.13,0-3.09-3.11,1.91-1.15,4.11-2,5.63-3.53s5.11-3.45.3-5.49a34.43,34.43,0,0,0,7.74-17c.07-1.05.14-2.1.22-3.14l1.12.29c.63,3.56,3.82,5.73,4.5,9.53,1.51,8.42-1.64,15.16-9.85,18.43A6.47,6.47,0,0,0,1365.25,863Z" transform="translate(-31.95 -508.79)"/><path class="cls-3" d="M1271.23,868c-4.9-2.16-10.27-2.27-15.39-3.46a17.35,17.35,0,0,1-11.13-7.34c-1.21-1.76-2.63-3.52-5.23-3.12a6.1,6.1,0,0,1,2.85-5.07c.88.42,2.11.59,2.58,1.29,5.47,8.07,13.6,10.84,22.75,12.19,2.5.37,5.39-.47,7.62,1.49l-.27,1.83C1273.42,865.94,1273,868.11,1271.23,868Z" transform="translate(-31.95 -508.79)"/><path class="cls-4" d="M1365.3,844c-3.18-.34-6.16-1.45-9.57-1.19-7.14.53-11.73-4.84-16.32-9.08-2.28-2.1-4.76-3.78-7.11-5.71,1.68-3,7.28-3,9.11.66,2.84,5.68,8.34,7.8,13.16,10.54,2.27,1.28,6-.11,9.11-.19,1.25,0,2.85-.39,3.37,1.31A2.89,2.89,0,0,1,1365.3,844Z" transform="translate(-31.95 -508.79)"/><path class="cls-4" d="M1275.28,864c-2.23-2-5.12-1.12-7.62-1.49-9.15-1.35-17.28-4.12-22.75-12.19-.47-.7-1.7-.87-2.58-1.29,3-3.25,4.72.15,6.88,1.27,8.26,4.3,14.8,13.62,26.16,8.92.62-.25,2.14.08,2.21.39C1278.07,861.58,1277,863,1275.28,864Z" transform="translate(-31.95 -508.79)"/><path class="cls-2" d="M1365.18,851.85c4.81,2,1.12,4.07-.3,5.49s-3.72,2.38-5.63,3.53c-3,.2-6,3.25-9,.11.12-2.7,3.1-1.33,4-2.85l2-1.18,0,0C1359.83,856.29,1362.31,853.73,1365.18,851.85Z" transform="translate(-31.95 -508.79)"/><path class="cls-4" d="M1271.23,868c1.76.14,2.19-2,3.78-2.19.44,1.5-.22,3.35,1.43,4.47.14,2.55-2.09,3.69-3.23,5.48,0,.4,0,.8,0,1.2l0,0a.94.94,0,0,0-1,1v0c-2.66-.66-4.41,2.23-7,1.8.17-1.64,1.74-1.83,2.7-2.68,2-1.77,2.16-3.32-.8-4.22Z" transform="translate(-31.95 -508.79)"/><path class="cls-4" d="M272.73,662c3.39.29,6.64,1.5,10.23.22,2.59-.92,4.31,1,4.79,3.69.52,2.87,1.77,3.54,4.51,2.09,3.27-1.74,6.5-2.22,9,1.66,1.42,2.18,4.91.85,6.43,3.22-2.71,1.81-5.51,2.57-8.78,1.4-2-.72-3.8-.42-4.55,2.25-1.73,6.13-7.45,7-12.32,8.26-3.18.86-3.78-2.15-3.17-4.6a32.31,32.31,0,0,1,2.6-5.89c1.65-3.39.44-5.64-2.76-7.15C276.27,666,273.28,665.42,272.73,662Z" transform="translate(-31.95 -508.79)"/><path class="cls-4" d="M272.76,655.07c0,2.31,0,4.63,0,6.94C268.84,660,268.84,658.94,272.76,655.07Z" transform="translate(-31.95 -508.79)"/><path class="cls-4" d="M272.84,650.94c.8.16,1.61.34,1.74,1.34.18,1.27-.69,1.64-1.7,1.86C272.87,653.08,272.86,652,272.84,650.94Z" transform="translate(-31.95 -508.79)"/><path class="cls-3" d="M1260.28,602a2,2,0,0,1,1.65-2.13C1262.33,601.3,1261.7,602,1260.28,602Z" transform="translate(-31.95 -508.79)"/><path class="cls-3" d="M231.68,826c-4.51.17-3.38-4-3.42-6.1-.21-11.71-6.64-18.6-18.35-18.88-2.65-.07-5.31-.1-8,0-1.91.07-3.42-.54-3.75-2.44s1.29-2.8,2.86-3.49c5-2.2,10.36-2.23,15.56-2.5,2.84-.15,4.76,3.26,6.27,5.83a10.24,10.24,0,0,0,7.18,5.33c6.22,1.3,7.49,4.53,9,10.56,1,4,.87,6.63-1.8,9.42A7.33,7.33,0,0,1,231.68,826Z" transform="translate(-31.95 -508.79)"/><path class="cls-3" d="M1277.93,796.68c-1.85,3.34-3.73,6.88-7.31,9a1.87,1.87,0,0,1-2.84-1.13,12.28,12.28,0,0,1,2-8.42c1.31-2.17,3.46-2.36,5.7-2.1C1277,794.17,1278.1,794.72,1277.93,796.68Z" transform="translate(-31.95 -508.79)"/><path class="cls-1" d="M1393.26,758c-11.93-1.5-24.15,2.22-35.94-1.94,1.28-2.73,3.09-3.71,6-2.1,3.41,1.91,7.2,1,10.8,1a121.76,121.76,0,0,1,16.86,1.06C1392.29,756.12,1393.19,756.5,1393.26,758Z" transform="translate(-31.95 -508.79)"/><path class="cls-1" d="M1421.34,749.08c-1,2.67-4.4,3.6-5,6.69-.11.52-2.36,1.19-2.47,1-2.74-4.1-7.42-1-10.67-3C1408.52,749.56,1414.3,746.9,1421.34,749.08Z" transform="translate(-31.95 -508.79)"/><path class="cls-1" d="M1434.28,753c-.09.83-.27,1.78-1.26,1.74-2.72-.09-6.73-4.84-6.76-7.86.88-1.49,2.69-3.21,3.72-1.81,1.23,1.67,5.72,1.2,3.75,5.11C1433.21,751.25,1434,752.11,1434.28,753Z" transform="translate(-31.95 -508.79)"/><path class="cls-1" d="M1356.39,756.13a4.73,4.73,0,0,1-3.1,3.86C1353.18,757.79,1353.57,756,1356.39,756.13Z" transform="translate(-31.95 -508.79)"/><path class="cls-1" d="M1350.22,769.92c.15,1.5.21,3-1.88,3.1C1348.2,771.52,1348.21,770.11,1350.22,769.92Z" transform="translate(-31.95 -508.79)"/><path class="cls-1" d="M1353.18,760.9c.18,1.5.24,2.94-1.83,3.14C1351.21,762.55,1351.17,761.13,1353.18,760.9Z" transform="translate(-31.95 -508.79)"/><path class="cls-1" d="M1394.28,758c-.33.73-.66.79-1,0A2.75,2.75,0,0,1,1394.28,758Z" transform="translate(-31.95 -508.79)"/><path class="cls-2" d="M62.74,802.12c-3.45-.11-7,.08-10-2.09-2.88-3.21-2.34-5.56,1.78-7a95.7,95.7,0,0,0,19.91-9.63c7.57-4.76,14.85-3,19.69,3.36,1.22,1.6,2.32,3,.54,4.73s-3.37,4.29-6.18,2.59c-2.52-1.53-4-.73-6.2.69A40.17,40.17,0,0,1,65.8,801C64.66,801.11,63.44,800.88,62.74,802.12Z" transform="translate(-31.95 -508.79)"/><path class="cls-2" d="M104.45,804.11c3.11,4.8,8.39-2.65,12.16,1.77,1,1.17,3.92,1.12,3.51,2.91a5.34,5.34,0,0,1-4.64,3.9A20.58,20.58,0,0,0,102.55,817c-1.2.88-2.3.84-3.48-.42A56.52,56.52,0,0,0,93.88,812c-2.69-2.22-2.45-4.72.86-5.78C97.71,805.27,100.86,804.87,104.45,804.11Z" transform="translate(-31.95 -508.79)"/><path class="cls-1" d="M111.62,791.06c3.87-1.3,7.08-5.55,11.82-2.95,2.09,1.15,4.2.69,6.32.83,1.71.11,3.67.13,3.75,2.32s-2,2.53-3.56,2.65c-5.39.44-10.79,1.36-16.18,0Z" transform="translate(-31.95 -508.79)"/><path class="cls-2" d="M138.52,811.07c2.75-.94,4.81,1.25,7.22,2.1,1.41.5,3.75.75,3.36,2.86-.27,1.49-2.46,1.75-3.75,1.72-4.41-.11-8.81-.56-13.21-1-1.09-.11-1.57-1.15-1.89-2.09-.43-1.3.68-1.65,1.49-2.16A9.78,9.78,0,0,1,138.52,811.07Z" transform="translate(-31.95 -508.79)"/><path class="cls-1" d="M79.76,809c.08.48.4,1.22.21,1.38-4.28,3.62-4.26,4.21.29,8.21.32.29.35.9.51,1.35l0,0c-6.57-1.41-11-6.27-16.21-10a1.64,1.64,0,0,1-.38-2.24c.51-.79,1.37-.62,2.21-.45,1.44.29,2.89.45,4.34.66l4.07.23a1.92,1.92,0,0,0,2,.67Z" transform="translate(-31.95 -508.79)"/><path class="cls-4" d="M76.8,808.89a1.92,1.92,0,0,1-2-.67C76.14,806.35,76.49,807.57,76.8,808.89Z" transform="translate(-31.95 -508.79)"/><path class="cls-2" d="M1392.85,790.82c3.85-.48,8.37-.91,12.91.12,2.54.58,5.27,1.12,6,3.68.58,2.11-1.85,3.27-3.5,4.29a9.63,9.63,0,0,0-2.57,3c-1.22,1.71-2.61,2.59-4.4.59-2.8-3.13-6.63-3.43-10.43-3.46a6.19,6.19,0,0,1-5.24-2.23c-1.34-1.68-2.21-3.76.94-3.57C1389.3,793.36,1389.17,788.87,1392.85,790.82Z" transform="translate(-31.95 -508.79)"/><path class="cls-1" d="M1384.36,782.08c-4,.16-7.58-2.18-11.68-1.57a2.8,2.8,0,0,1-3-2.22c-.21-1.45,1.37-2,2.33-2.15,5.11-.6,9.93-4.8,15.5-.9,1.24.87,3.79-.12,5.74-.26-.49,2.33-2.92,3.15-4,5.06-1.59.13-3.68-.74-4,2A7,7,0,0,0,1384.36,782.08Z" transform="translate(-31.95 -508.79)"/><path class="cls-2" d="M1360.58,805a48.47,48.47,0,0,1-4.76-1.16c-1.94-.68-1.19-1.91,0-2.39,4.5-1.79,8.76-4.54,14-3.46,2.17.44,4.25,1.16,4.05,3.48s-2.69,1.58-4.1,1.41C1366.45,802.44,1363.81,804.72,1360.58,805Z" transform="translate(-31.95 -508.79)"/><path class="cls-1" d="M1434.23,792.88c1.89.77,3.67-1.67,5.89,0-2.15,3.66-5,6.71-9.07,7.41-.91.16-4.59-3-4.74-6.21C1429.06,794.42,1431.57,793.13,1434.23,792.88Z" transform="translate(-31.95 -508.79)"/><path class="cls-4" d="M1385.28,782c.35-2.69,2.44-1.82,4-2C1388.52,781.84,1387,782.15,1385.28,782Z" transform="translate(-31.95 -508.79)"/><path class="cls-3" d="M1293.46,857.77c-.18-1.46,0-2.51,1.82-2.88,5.78-1.16,10.93.9,16.09,2.94-2.14-.21-3.1,1.51-4.44,2.67s-4.9-.67-4.92,1.77,3.79,2,5.38,3.7c1.25,1.32,2.65.77,4.13.4,1.83-.45,4-1.47,4.83,1.49L1303.24,869l-8.17-7.84C1296.47,859.11,1296.11,857.9,1293.46,857.77Z" transform="translate(-31.95 -508.79)"/><path class="cls-1" d="M1295.38,885.83c-3.47-1.56-4.71-4.47-4.89-8C1292.76,880.09,1295.43,882.13,1295.38,885.83Z" transform="translate(-31.95 -508.79)"/><path class="cls-1" d="M1301.29,886.81c-2.31,1.8-4.35,1.91-5.9-1C1297.36,886.15,1299.55,885.11,1301.29,886.81Z" transform="translate(-31.95 -508.79)"/><path class="cls-4" d="M1293.46,857.77c2.65.13,3,1.34,1.61,3.39l-1.8-1.2c0-.66,0-1.32,0-2Z" transform="translate(-31.95 -508.79)"/><path class="cls-1" d="M1293.25,858c0,.66,0,1.32,0,2a2.87,2.87,0,0,1-3-3Z" transform="translate(-31.95 -508.79)"/><path class="cls-3" d="M1116.23,868.91c8.92,7.25,19,10.42,30.41,8.32,2.32-.42,2.9.95,3.68,2.41-1.55,4.25-1.28,9.69-7.25,11,.18-1.12.28-2.27.57-3.36.44-1.59,1.9-4,1.37-4.54-1.59-1.59-3,1-4.72,1.13-.32,0-.65,0-1,0-1.71-4.08-5.69-3.41-8.85-3.87-5.67-.83-9.71-4.68-14.5-7.11C1113.91,871.91,1114.93,870.19,1116.23,868.91Z" transform="translate(-31.95 -508.79)"/><path class="cls-1" d="M1123.2,860.79c-.08,3.71,2.69,5.73,5.18,7.39a23.68,23.68,0,0,0,17.44,3.89c7.57-1.22,11.32.72,12.56,5.82-3.45-2.82-7-4.36-11.76-3-5.73,1.61-11.6-.35-17.1-1.43-4.1-.81-7.56-4.9-11.31-7.53C1119.58,863.92,1120.92,861.9,1123.2,860.79Z" transform="translate(-31.95 -508.79)"/><path class="cls-1" d="M1139.32,883.93c.32,0,.65,0,1,0,1.71-.12,3.13-2.72,4.72-1.13.53.53-.93,3-1.37,4.54-.29,1.09-.39,2.24-.57,3.36l-1.73.91c-1.47-1.13-2.55-.65-3.38.84a16,16,0,0,1-6.86-.53c-1.29-.47-2.76-1-2.74-2.45s1.7-2.18,2.84-2.29A15.48,15.48,0,0,0,1139.32,883.93Z" transform="translate(-31.95 -508.79)"/><path class="cls-3" d="M1138,892.43c.83-1.49,1.91-2,3.38-.84C1140.53,893.14,1139.26,892.82,1138,892.43Z" transform="translate(-31.95 -508.79)"/><path class="cls-1" d="M275.69,889.9c2.45-2.32,14-2.68,16.21-.59,1.45,1.35-1.37,4.46,2.75,5.11,2.47.4,4.6,2.47,7.67,1.68,2.11-.55,3.14,1,3.42,3.23.5,4-1,7.5-2.34,11.07-.4,1.08-1.12,2.28.11,3.16.93.67,1.81-.14,2.73-.56,5.36-2.44,11.15-4.21,16-7.38,3.47-2.24,6.48-5.39,10-7.77,5.54-3.72,10.44-7.89,13.62-14.18,1.61-3.19,5.46-5,9.7-4.77,3.82.22,7.66,0,11.48.08a12.87,12.87,0,0,0,13.54-12.93l2.06.88,3.93,4.18c-.74,6.18-6.34,7.32-10.52,8.6-6.46,2-13.19,3.68-20.36,1.8-2.67-.7-5.71,1.33-7.67,4.45-3,4.78-5.12,10.24-10.52,13.4-2.93,1.7-1.58,6.55-5.08,8.74-2.81,1.75-5.58,3.82-8.79,3.74-6.33-.17-11.14,2.59-15.47,6.67-1.17,1.11-1.8,2.93-4,1.73-1.82-1-3.26-2.12-3.58-4.41-.57-4,1.06-7.46,2-11.12,1.54-5.7,1.46-5.72-4.53-5.75-.83,0-1.66,0-2.5,0l-1-1c-.64-1.28-1.2-2.77-2.93-1.07l-1.91-.09c-1.63-1.59,1.15-4.83-2.18-5.78Z" transform="translate(-31.95 -508.79)"/><path class="cls-1" d="M361,889.14c2.31-.72,3.48,2,5.61,1.86,3.8,1.18,7,4.38,11.55,3.14a2,2,0,0,1,1.61.88c.65,1.24-.68,1.76-1.32,2.25-5,3.73-10.21,2.9-15.39.24C363.3,894.48,359.36,892.5,361,889.14Z" transform="translate(-31.95 -508.79)"/><path class="cls-3" d="M387.18,897.73c-1.31.67-1.69,1-2.07,1-.71,0-1.16-.49-.83-1.18.14-.27.78-.42,1.18-.42A7.31,7.31,0,0,1,387.18,897.73Z" transform="translate(-31.95 -508.79)"/><path class="cls-3" d="M388.28,895.18c-.28.1-.64.36-.82.27s-.25-.52-.37-.81c.28-.1.64-.35.83-.26S388.17,894.9,388.28,895.18Z" transform="translate(-31.95 -508.79)"/><path class="cls-3" d="M1354.44,770.91c1.27-3.5,1.23-7.81,5.62-8.65,2.49-.48,6.16,4,5.82,6.34-.54,3.82-4.5,7.57-7.92,7.21C1355,775.49,1354.68,773.05,1354.44,770.91Z" transform="translate(-31.95 -508.79)"/><path class="cls-4" d="M239.79,895.83c3.55.65,7.24,2.84,8.69-3.41.75-3.22,8.25-3.15,10.36-.19s-1.72,3.69-2.38,5.64c-1.63,0-2.94,0-4,2-2.56,5-12.36,6.44-16.42,2.67-1-.93-.76-2.37.22-2.11C241.6,901.85,239.49,898,239.79,895.83Z" transform="translate(-31.95 -508.79)"/><path class="cls-4" d="M265.63,890.93c.32-.67.63-1.35.95-2l6.24.92,2,.36c-.67,2.31-2.37,1.89-3.91,1.32A16.33,16.33,0,0,0,265.63,890.93Z" transform="translate(-31.95 -508.79)"/><path class="cls-4" d="M287.62,891.07c3.33.95.55,4.19,2.18,5.78C282,897.6,289.42,892.59,287.62,891.07Z" transform="translate(-31.95 -508.79)"/><path class="cls-4" d="M291.71,896.94c1.73-1.7,2.29-.21,2.93,1.07C293.56,897.94,292.4,898.08,291.71,896.94Z" transform="translate(-31.95 -508.79)"/><path class="cls-4" d="M231.93,899.22c.34.28.89.51,1,.87.19.64-.45.8-.87.65s-.62-.58-.92-.9Z" transform="translate(-31.95 -508.79)"/><path class="cls-4" d="M1239.32,878.94l1.15.91c-6.52,3.31-13.3,2.49-20.11,1.33,1.23-2,3.23-1.21,4.9-1.22C1230,879.93,1234.69,880.1,1239.32,878.94Z" transform="translate(-31.95 -508.79)"/><path class="cls-4" d="M1203.21,889.86l7.11.09c-.26.55-.48,1.54-.8,1.58-4.5.47-4.47,3.12-3.25,6.42-2.18.18-1.6-2.49-3.1-3l-.09-1.84C1203.12,892,1203.17,890.94,1203.21,889.86Z" transform="translate(-31.95 -508.79)"/><path class="cls-4" d="M1215.42,887.05c1.4-1.74-.4-5.14,3-5.82a11,11,0,0,0,.41,2.4c.47,1.14,2,2.06.64,3.47S1216.77,887.75,1215.42,887.05Z" transform="translate(-31.95 -508.79)"/><path class="cls-1" d="M1203.17,894.94c1.5.52.92,3.19,3.1,3,0,.32.06.64.1,1-.16,1.06.18,2.28-1,3C1203.6,899.93,1202.09,897.84,1203.17,894.94Z" transform="translate(-31.95 -508.79)"/><path class="cls-4" d="M1212.17,888.88l1-1.11Z" transform="translate(-31.95 -508.79)"/><path class="cls-1" d="M131.88,844.62l-6,2.41c-.61-2.64.91-3.94,3.09-4.67C130.89,841.72,131.5,843.09,131.88,844.62Z" transform="translate(-31.95 -508.79)"/><path class="cls-1" d="M1374.26,832l-1.12-.29c.21-1.37-.37-3.62,1.68-3.48s4.13,1.17,4.3,3.86Z" transform="translate(-31.95 -508.79)"/><path class="cls-1" d="M1162.31,883a101.8,101.8,0,0,1,16.06,14.77c.76.89,1.23,2.11,2.51,2.06,5.88-.23,10.55,3.4,15.9,4.83,1.1.3,2.32.43,3,1.5.91,1.33,1.59,3.24,3.72,2.47s1.51-3.05,1.91-4.73c4.08,2.89.65,5.06-.84,7.2s-3.62,2.63-5.34.29c-4.18-5.68-10.32-6.42-16.61-7.55-4.86-.88-10.41-1.76-11.43-8.39a5.93,5.93,0,0,0-3.4-4.11C1164.43,889.48,1162.87,886.59,1162.31,883Z" transform="translate(-31.95 -508.79)"/><path class="cls-1" d="M1158.38,877.89c2.54.2,3.1,1.85,3,4C1159.66,881.09,1158.33,880,1158.38,877.89Z" transform="translate(-31.95 -508.79)"/><path class="cls-2" d="M1316.35,867.86c-.84-3-3-1.94-4.83-1.49-1.48.37-2.88.92-4.13-.4-1.59-1.67-5.4-1.21-5.38-3.7s3.46-.52,4.92-1.77,2.3-2.88,4.44-2.67a5.27,5.27,0,0,1,5.85,1.2,1.77,1.77,0,0,0,2.13,1.84,9,9,0,0,1,.91.11c.71,2.48,5.31,3.28,3,7Z" transform="translate(-31.95 -508.79)"/><path class="cls-4" d="M1350.23,861c3,3.14,6,.09,9-.11-1,3.09,2.37,1.76,3.09,3.11.44.92,2.73,2,0,2.72a14,14,0,0,1-5.37.48c-2.36-.31-3.45.56-3.79,2.75-2.92-.63-3.31-3.66-5-5.45C1345.93,862.06,1346.75,860.53,1350.23,861Z" transform="translate(-31.95 -508.79)"/><path class="cls-1" d="M1356.32,857l-2,1.18C1354.58,857.08,1355.41,856.94,1356.32,857Z" transform="translate(-31.95 -508.79)"/><path class="cls-4" d="M1248.28,882l1.91-1.23c3.74,3.35,8.24,5.8,11.23,10.07,1.3,1.87,4,.67,6.24,1.55-4.41,2.61-9.81,2.36-11.73-1-1.83-3.21-4.69-3.35-6.65-5.33l-1-1C1248.25,884,1248.27,883,1248.28,882Z" transform="translate(-31.95 -508.79)"/><path class="cls-2" d="M1265.26,879.7c2.6.43,4.35-2.46,7-1.8.28,4.61-3.68,5.28-6.53,6.91-.93.54-9.2-4.31-9.57-5.46,0,0,.82-.33,1.25-.5C1259.89,880.44,1262.54,880.41,1265.26,879.7Z" transform="translate(-31.95 -508.79)"/><path class="cls-1" d="M1265.26,879.7c-2.72.71-5.37.74-7.84-.85l.89-1.83c3.48-.29,6.2-2.19,8.85-4.22,3,.9,2.79,2.45.8,4.22C1267,877.87,1265.43,878.06,1265.26,879.7Z" transform="translate(-31.95 -508.79)"/><path class="cls-2" d="M1273.26,876.93c0-.4,0-.8,0-1.2C1273.75,876.1,1274.28,876.48,1273.26,876.93Z" transform="translate(-31.95 -508.79)"/><path class="cls-2" d="M1272.27,877.92a.94.94,0,0,1,1-1Z" transform="translate(-31.95 -508.79)"/><path class="cls-2" d="M185.78,873l5-3c5.42-1.06,9.78,1.9,14.87,3.91-2.75,3.18-5.28,5.65-9.91,5.14a25.12,25.12,0,0,0-9.91.37c-1.25.37-2.7,1.11-3.59-.34s.54-2.38,1.37-3.37S185,873.89,185.78,873Z" transform="translate(-31.95 -508.79)"/><path class="cls-3" d="M1448.5,786.4l-2.45.23C1446.73,785.05,1447.52,784.73,1448.5,786.4Z" transform="translate(-31.95 -508.79)"/><path class="cls-2" d="M1278.51,913.44c3,.24,5.24-2.46,8.9-2.2C1284.63,914.93,1281.37,913.51,1278.51,913.44Z" transform="translate(-31.95 -508.79)"/><path class="cls-2" d="M1273.49,913.05l.27.21-.35-.16Z" transform="translate(-31.95 -508.79)"/><path class="cls-1" d="M80.77,820c.63.12,1.37.12,1.48,1,0,.16-.39.57-.55.54-.84-.11-.84-.85-1-1.48Z" transform="translate(-31.95 -508.79)"/><path class="cls-4" d="M130.25,889l.75.42c-.25.15-.49.4-.73.4s-.5-.24-.75-.37Z" transform="translate(-31.95 -508.79)"/><path class="cls-1" d="M272.82,889.83l-6.24-.92c.15-1.09.09-2.26,1.05-3.07C268.92,887.74,272.34,886.88,272.82,889.83Z" transform="translate(-31.95 -508.79)"/><path class="cls-1" d="M1203.21,889.86c0,1.08-.09,2.16-.13,3.24-1-.28-1.79-.72-1.6-1.94C1201.64,890.19,1202.41,890,1203.21,889.86Z" transform="translate(-31.95 -508.79)"/><path class="cls-3" d="M1248.28,882c0,1,0,2,0,3-1.2-.06-2.47-.49-2.49-1.73C1245.7,881.58,1247.27,882.08,1248.28,882Z" transform="translate(-31.95 -508.79)"/><path class="cls-3" d="M1319.35,860.87a1.77,1.77,0,0,1-2.13-1.84A1.77,1.77,0,0,1,1319.35,860.87Z" transform="translate(-31.95 -508.79)"/><path class="cls-1" d="M1328.14,841.06a2.33,2.33,0,0,1,0,.79c-.11-.2-.23-.39-.32-.59A3.3,3.3,0,0,1,1328.14,841.06Z" transform="translate(-31.95 -508.79)"/></svg>