<?xml version="1.0" encoding="utf-8"?>
<!-- Generator: Adobe Illustrator 24.0.3, SVG Export Plug-In . SVG Version: 6.00 Build 0)  -->
<svg version="1.1" id="Layer_1" xmlns="http://www.w3.org/2000/svg" xmlns:xlink="http://www.w3.org/1999/xlink" x="0px" y="0px"
	 viewBox="0 0 612 792" style="enable-background:new 0 0 612 792;" xml:space="preserve">
<style type="text/css">
	.st0{fill:#4E3975;}
	.st1{fill:#463170;}
	.st2{fill:#3E286B;}
	.st3{fill:#554179;}
	.st4{fill:#5C497E;}
	.st5{fill:#645184;}
	.st6{fill:#493472;}
	.st7{fill:#5B477D;}
	.st8{fill:#513C76;}
	.st9{fill:#422C6D;}
	.st10{fill:#7B6A95;}
	.st11{fill:#766591;}
	.st12{fill:#9182A6;}
	.st13{fill:#A093B2;}
	.st14{fill:#9586A9;}
	.st15{fill:#56437A;}
	.st16{fill:#442E6E;}
	.st17{fill:#5F4C81;}
	.st18{fill:#675486;}
	.st19{fill:#5E4B7F;}
	.st20{fill:#83739B;}
</style>
<g id="OUvOJy.tif">
	<g>
		<path class="st0" d="M0.1,439.6c0-2.7,0-5.3,0-8c1.8-1.7,3.9-1.6,6.1-0.9c9.9,3.6,20.2,4.8,30.8,5.2c14.3,0.6,28.2,4.4,42.4,5.8
			c16.8,1.7,33.8,3.1,50.7,1.3c20.8-2.2,41.7-3.3,62.5-5.1c9.6,0.5,19.2,0.7,28.8,2c8.8,1.2,17.7,0.7,26.1-1.8
			c13.9-4,27.4-4,41.1,0.3c11.2,3.5,22.5,2.6,33.9,0.2c13.9-3,28-4,41.3,3.1c6.2,3.4,13.2,3,20,3.1c13.8,1,27.5-0.7,41.1-2.5
			c2.8-0.4,5.4-1.6,8-2.8c10.3-4.7,21-5.9,32.1-4.1c11,1.7,22.1,2.5,33.2,2.7c9.4,1.6,18.1,6.1,28,6.1c6.6,0,12.7-1.5,18.9-3.5
			c2.2-0.7,4.3-1.9,6.6-0.5c1.4,3.3-0.9,4.6-3.3,5.5c-6.5,2.4-13.1,4.8-20.3,4.5c-3-0.1-4.8,1.2-6.9,3.6
			c-6.4,7.5-14.3,12.7-24.9,13.3c-10.5,0.6-21.1,1.7-31.1,5.6c-11.8,0.7-23.5,1.5-35.3,2.5c-21.6,2-43.1-1.4-64.7-1.8
			c-13.4-0.3-26.9-1.3-40.1,3.1c-7.9,2.6-16.1,2-24.3,1.4c-4.4-0.3-8.4-2.3-11.9-4.8c-7.8-5.6-16.5-5.6-25.3-4.1
			c-2.8,0.5-5.4,1.5-8.1,2.5c-12.1,4.4-24.4,5.7-36.6,1.4c-13.6-4.7-27.1-4.4-40.7-0.7c-1.8,0.5-3.6,0.8-5.4,0.8
			c-18.1-0.2-36.2,2.3-54.3,1c-14-1-27.9-1.6-41.8-0.9c-3.3,0.2-6.2-1.3-9.1-2.3c-8.6-3.1-17.4-1.2-26.1-1.5
			c-8.4-0.3-16.7,1.3-25,0.9c-6.1-0.3-7.8-2-8.1-8.3c-0.2-4.5-0.2-9,0-13.5c0.1-4.2-0.6-7.3-5.6-7.5C1.7,441,0.8,440.3,0.1,439.6z"
			/>
		<path class="st1" d="M0.1,439.6c12.2-0.2,9.9,1.2,10,10.1c0.1,4.7,0.2,9.3,0,14c-0.1,3.7,1.5,5.1,5.1,4.9c3-0.2,6,0.1,9-0.1
			c2.6-0.1,4.9,0.7,7.2-2.8c2.4-3.8,2.4,4.8,6.4,3c4.3-1.9,9.2-0.8,13.8-1.2c6.1-0.4,12,0.3,17.6,2.4c4.3,1.6,8.4,1.7,12.7,1.6
			c19.5-0.6,38.9,1.5,58.3,1.1c11.3-0.2,22.5-1.4,33.8-1.2c5.4,0.1,10.7-2,16-3.1c11.4-2.4,21.7,1,32.2,4c7.9,2.2,15.7,1.6,23.6,0.5
			c5-0.7,9.5-2.9,14.2-4.4c8.4-2.7,16.6-2.4,24.9,0.3c0.8,0.2,1.7,0.4,2.2,1c11.6,10.4,25.2,8.3,38.2,5c14.5-3.6,28.8-2.7,43.4-2.4
			c17.3,0.4,34.5,2.7,51.7,2.1c15-0.5,30-3,45.1-2.7c15.4-3.6,30.9-6.2,46.8-3.3c5.4,1,11,1,16.4,1.1c15.5,0.1,30.7,3,46.3,2.6
			c9.9-0.3,19.9,1.4,29.8-0.1c2-0.3,4,0.2,5.5,1.7c0,9,0,18,0,26.9c-1.7,1.7-3.9,1.9-6,1.8c-8-0.1-15.9-0.2-23.9-0.6
			c-13.8-0.7-27.6-1.5-41.3-1c-11.5,0.4-22.9,0.1-34.4,0.7c-20.6,1.1-41.2,0.4-61.8,1.2c-10.8,0.4-21.6,1.1-32.3-0.2
			c-1-0.1-2,0-3-0.3c-22.2-6.6-44.6-0.9-66.9-1.6c-14.9,4.4-30.3,4.3-45.5,4.2c-12.4,0-24.9,0-37.4-0.7c-13.3-0.8-26.5-1.5-39.7,0.9
			c-13.2,2.4-26.5,2.2-39.6-1.3c-3.6-0.9-7.2-1.1-10.8-1.6c-7.5-2-15.2-0.9-22.8-1c-8-0.1-13.7-3.9-18-10.1
			c-0.9-1.3-1.9-2.2-3.3-2.8c-2.1-0.9-3.7-2.3-4.1-4.6c-0.7-4.1-3.5-4.4-6.7-3.9c-3.8,0.6-7,0.1-10-2.8c-3.1-2.9-15.7-3.2-19.3-1
			c-0.6,0.4-1.2,0.7-1.2,1.4c0,1,0.8,1.3,1.6,1.6c1.9,0.7,3.9,0.8,5.8,1.3c4.6,1.1,5.8,3,5.8,8.4c0,5.5-1.8,8.5-5.6,9.4
			c-4.3,1-7.9-0.6-9.7-4.8c-1.1-2.6-2.4-4.5-5.1-5.6c-3.2-1.3-3.9-4.4-3.8-7.5c0.1-3.6-1.6-5.2-5.1-6.1c-6.3-1.7-12.5-1.7-18.8-0.7
			c-9.5,0-18.7,2.2-28.1,2.9c-6.5,0.5-13.2,0.6-19.4-2.4C0.1,462.2,0.1,450.9,0.1,439.6z"/>
		<path class="st2" d="M166.9,500.5c8.5-1,16.2,2.8,24.5,3.5c10.3,0.8,20.4,0.6,30.5-1.9c1.7-0.4,3.6-0.6,5.4-0.5
			c19.6,0.3,39.2,0.3,58.8,1.1c11.8,0.5,23.5-0.9,35.2-0.2c3.9,0.2,7.5-1.4,11.1-2.3c6.4-1.6,12.9-1.1,19.3-1.7
			c11.2-1,22.5-0.4,33.7-1.7c4-0.5,8.4,0,12.3,1.1c14.3,4.1,28.7,4.5,43.3,2.7c1.1-0.1,2.3-0.1,3.5,0c28.9,0.7,57.9-0.7,86.8-1.4
			c15.8-0.4,31.5,0.6,47.2,0.7c10.6,0,21.2,0.3,31.8,0.7c0,3.7,1.4,8.7-0.4,10.6c-1.8,1.8-6.9,0.4-10.6,0.4
			c-197.1,0-394.3,0-591.4,0c-8,0-8,0-8-8c1.8-1.8,4.2-1.8,6.5-1.9c15.1-0.2,30.1,0.6,45.1-1.9c3.7-0.6,7.6,0.6,11.4,0.2
			c3.6,0.5,7.3,0.6,10.9,0.6c22.4,0,44.8,0.2,67.2-0.2C149.7,500.3,158.3,499.5,166.9,500.5z"/>
		<path class="st3" d="M192.9,439.6c-17.7,2.2-35.6,2.7-53.4,4.7c-12.3,1.4-24.7,2.6-37.2,0.5c-3.6-0.6-7.3-0.3-11-0.2
			c-8.7,0.4-17.2-1.3-25.6-3.1c-11-2.3-22.2-3.8-33.5-3.7c-8,0.1-15.3-2.7-23-3.6c-2.9-0.3-5.6-3.2-9.2-2.6c0-5.3,0-10.6,0-16
			c1.8-1.7,4-1.3,6.1-1.1c7.2,0.6,13.9-0.4,20.8-3.3c11.7-5,24-6.8,36.3-1.3c13.1,5.9,26.2,5.9,39.8,1.8c14.4-4.3,28.6-3.6,42.1,3.5
			c6.4,4.6,13.7,4.2,21,3.5c0.6-0.1,1.3-0.4,1.9-0.5c2.1-0.1,4.5-0.6,5.9,1.5c1.2,1.7,0.5,3.5-0.6,5.1c-1.4,2.1-3.5,3-6,2.5
			c-1.8-0.4-3.5-1.1-5.3-1.4c-1.3-0.3-2.6-0.6-3.9-0.5c-1.3,0.1-3,0-2.9,1.9c0.1,1.6,1.7,1.3,2.8,1.3c1.2,0,2.3-0.3,3.4-0.6
			c4.4-1,8-0.2,9.9,4.2c1,2.2,2.7,2.6,4.9,2.6c3.6,0,7.3-0.3,10.9,0.2C190,435.6,192.9,435.9,192.9,439.6z"/>
		<path class="st4" d="M144.9,416.7c-3-1-6-1.9-8.9-3.1c-10.9-4.8-21.8-2.7-32.6,0c-9.2,2.3-18.3,4-27.9,2.3
			c-4.6-0.8-9-2.5-13.1-4.4c-9.6-4.4-18.9-2.7-28.6-1c-5.3,0.9-9.2,4.7-14.6,5.5c-6.6,1-12.8,0.2-19.2-0.3c0-10,0-20,0-29.9
			c1.7-1.7,3.9-1.9,6-1.6c6.2,0.7,12.5,1,18.5,3.6c10.7,4.7,21.8,4.3,32.7,1.3c12.6-3.5,25.3-4.3,38-2c11.6,2.1,23.1,1.8,34.7,1.9
			c2,0,4-0.1,6,0.1c4.6,0.6,9.3,0.2,13.9,0.2c4.3,0.1,8.6,0.3,12.9,0.8c4.5,0.5,6.7,2.6,6.7,6.9c0,9.1,0,8.9,9.9,8.8
			c5.4,0,10.6-0.1,14.7,4.5c1.3,1.5,3.6,1.5,5.7,1.4c12.6-0.1,25.3,0.5,37.9-0.3c2.5-0.2,6.1-1.1,6,3.5c-2.1,1.8-4.7,1.5-7.1,1.6
			c-9.1,0.1-18.3,0.2-27.4,0c-14.1-0.4-28.2,0.8-42.2,2.3C159.5,419.6,152.1,419.3,144.9,416.7z"/>
		<path class="st5" d="M136,390.7c-15.4,0-30.7,0-46-2.6c-10-1.7-20.4-0.7-30.5,2.2c-11.3,3.3-22.9,4.3-34.1-0.5
			c-8.1-3.4-16.6-3.9-25.2-4.1c0-4.3,0-8.6,0-13c1.5-1.5,3.5-1.9,5.5-1.8c6,0.3,11.9-1,17.7-2.2c11.8-2.4,23.7-2.7,35.6-0.6
			c3.8,0.7,7.6,0.8,11.4,0.7c9.1-0.2,18.2,0.4,27.3,1.5c10.4,2.4,20.8,4.2,31.5,2.1c0.3-0.1,0.7-0.2,1-0.1c8.6,2.5,17.4,1.6,26.2,2
			c1.3,0.1,3.2,0.8,2.8,2.3c-1.2,4.4,1.9,3.1,3.8,3.2c2,0.2,4,0.3,6,0c6-1,11.2,0.2,15.2,5.2c1.3,1.6,3.1,1.8,5,1.8
			c3.8,0.1,7.7,0.4,11.5,0.2c18.3-0.9,36.6,0.4,54.9-0.1c6.7-0.2,13.2,1.2,19.9,1.2c1.8,0,4.5-0.3,4.1,3.1c-2.2,1.6-4.7,1.4-7.2,1.4
			c-10.3,0.1-20.7,0.3-31,0c-16.3-0.5-32.6,1-48.9,1.1c-7.2,0-14.5,0-21.3-1.5c-10.4-2.3-20.8-1.6-31.2-1.9
			C138.5,390.2,137.2,389.9,136,390.7z"/>
		<path class="st6" d="M610.5,473.5c-6.4,0.3-13,1.6-19.3,0.8c-15.5-1.8-31.1,0.6-46.6-2.5c-7.5-1.5-15.4-0.6-23.2-1
			c-9.4-0.4-18.7-2.8-28.2-2.4c-6,0.2-11.9,0.7-17.7,2.2c-3.3,0.9-6.5,1-9.9,0.9c3.3-2.9,7.7-3.1,11.6-3.6c4.9-0.7,9.8-2.2,14.6-2
			c6.4,0.2,11.8-2.6,17.8-3.4c1.1-0.1,2-0.7,2.2-1.7c0.7-3,2.6-4.2,5.5-4.7c1.8-0.3,3-1.9,3-3.6c0-4,2.5-4.2,5.3-3.8
			c8.1,1,15.4-2.6,23-4.3c1.7-0.4,2.7-1.8,2.9-3.7c0.3-2.6,2.4-2.6,4.1-2.6c15.1-0.4,30.1-2.4,45.2-3.1c3.5-0.2,7.1-0.2,9.7,2.8
			C610.5,449.6,610.5,461.6,610.5,473.5z"/>
		<path class="st5" d="M610.5,373.7c0,3.7,0,7.3,0,11c-1.9,1.8-4.2,1.8-6.5,1.7c-4.9-0.2-9.6,0.6-14.1,2.5
			c-13.8,5.9-27.7,5.9-41.8,1.3c-1.6-0.5-3.2-0.8-4.8-1.3c-2.9-1.4-5.9-1.7-9.2-1.6c-6.5,0.3-12.9,0.3-19.4-0.6
			c-15.3-2.1-30.4-2.6-45.1,3.5c-3.4,1.4-7.2,1.3-10.8,1.1c-9-1-17.7,1.1-26.6,1.7c-12.2,0.8-24.1,0.4-35.4-4.7
			c-2-0.9-4-1.6-5.1-3.6c0.4-3.6,2.9-2.4,4.8-1.9c5.6,1.5,11.3,2.8,16.8,4.4c5.7,1.7,11.2,0.5,16.7-0.5c3-0.5,4.2-4.1,7.6-5.1
			c6.2-1.8,12.5-1.3,18.7-1.8c-1.1-4.2,0.2-6.8,4.4-7.4c3-0.5,5.4-1.7,8.1-2.8c3.7-1.5,8.1-0.7,12.1-1.4c5.9-1.1,11.8,0.4,17.7,0.2
			c17,7,34.6,4.7,52,3c8.7-0.9,17.3-0.2,25.7,1.3c9.9,1.8,19.6,3.2,29.5,0.4C607.4,372.7,609,372.5,610.5,373.7z"/>
		<path class="st7" d="M543.5,387.7c2-0.2,3.9,0.5,5.8,1.1c12.9,4.1,25.6,4.6,38.2-1c7.4-3.3,15.1-3.4,22.9-3.1c0,9.3,0,18.6,0,27.9
			c-1.4,1.4-3.2,1.8-5,1.7c-7.8-0.4-15.4,0.6-22.8,3c-6.1,1.3-12.2,2.8-18.5,2.8c-5.2,0-10.3-0.2-15.1-2.1
			c-10.1-4-20.7-3.6-31.3-3.6c-3.3,0-6.7,0.6-9.8-1.1c-1.5-3.5,1.7-3,3.1-3.1c5.3-0.2,10.5-1.4,15.9-1.2c2.9,0.1,10.6-5.4,11.4-8
			c0.5-1.9,0.2-3.5-1.7-4.7c-2.2-1.4-4.9-2.9-3.2-6.2c1.6-3.1,4.4-3.7,7.7-2.9C542,387.4,542.9,387.1,543.5,387.7z"/>
		<path class="st8" d="M582.5,415.7c9-3.6,18.5-3.1,28-3c0,8.3,0,16.6,0,25c-9.2-2-18.3-0.4-27.5,0.6c-8.5,0.9-17.1,1-25.7,1.4
			c-1.9,0.1-4-0.6-5.7,1c-2.5-0.3-4.4,1.3-6.6,2.1c-12.5,4.2-25,4.4-37.4-0.5c-2.9-1.2-6.2-0.9-9-2.5c5.6-2.9,11.4-2.4,16.7,0.1
			c5.6,2.7,11.3,2.5,17,2c3.7-0.3,5-2.3,3.2-5.3c-2.7-4.7-1.9-10.4-5.2-14.9c-1.6-2.2,0.5-4,2.6-5c4.6-2.2,9-0.8,13.5,0.6
			C558.5,420.9,570.6,420.6,582.5,415.7z"/>
		<path class="st9" d="M63,501.5c-21,0.9-41.9,2.9-62.9,2c0-10,0-20,0-29.9c8.7-0.5,17.4,2.4,26-0.1c7.3-2.1,14.6-1.9,22-1.9
			c2.8,4.8,2.1,10.2,2.6,15.4c0.3,3.5,0.7,6,4.5,7.8C58.1,496.1,61.4,498.1,63,501.5z"/>
		<path class="st10" d="M98,371.8c-17.5-1-35.1-1.1-52.5-2.9c-7.8-0.8-15.6,0-23.2,2.1c-7.4,2-14.8,1.8-22.2,1.9c0-4.7,0-9.3,0-14
			c3.6-2.7,7.7-1.5,11.5-1.3c4.5,0.2,8.9,1,13.2,2.3c12,3.5,23.9,3,35.6-1.5c13.4-5.2,26.6-4.1,39.8,0.7c3.1,1.1,6.1,2.7,9.6,2.3
			c3.8,0.6,7.7,0.7,11.6,1.2c6.1,1.1,12.1,3.5,18.5,1.3c1.4-0.5,3.8-0.3,4,1c0.8,6.9,5.6,3.1,8.1,2.6c3-0.5,5.3-0.7,7.8,1.2
			c2.6,2,5.8,2.1,9,2.6c2.5,0.3,5,0.5,7.2,1.6c1.5,0.8,3.6,1.9,0.9,3.9c-2,0.7-4,0.3-5.9-0.1c-8.9-2.3-18-1.7-27.1-2.4
			C128.6,372.9,113.2,374.2,98,371.8z"/>
		<path class="st11" d="M610.5,373.7c-7.7,2.1-15.3,3.7-23.4,2.8c-6.4-0.7-12.7-2-19-3.1c-8.9-1.4-17.5-0.1-26.2,0.5
			c-15.1,1.1-30,2.3-44.3-4.2c-5.8-1.5-11.6-1.6-17.5-1.1c-1.8,0.2-3.6,0.7-5.3-0.5c-0.9-1.8,0.5-2.7,1.6-3
			c4.3-1.1,8.3-2.5,13.1-1.7c6.1,1,11.9,3.2,18.5,2.3c6-0.8,12.4,0.8,18.3,3.3c1,0.4,2.5,1.6,3.2,0.7c3.9-4.7,9.7-2.4,14.4-4.2
			c7.7-1.2,15.4-1.7,23.2-1.4c5.7,0.2,11.2-0.8,16.3-3.6c5.7-3.2,12-3,18.1-3.7c3,0,6,0,9,0C610.5,362.4,610.5,368.1,610.5,373.7z"
			/>
		<path class="st12" d="M110,362.8c-6.8,0.8-12.3-3.5-18.6-4.8c-11.2-2.3-21.9-1.7-32.6,2.6c-8.8,3.6-18.1,4.3-27.3,2.4
			c-10.4-2.1-20.7-4.8-31.4-4.2c0-1,0-2,0-3c10.8,1.4,21-2.1,31.5-3.5c2.3-0.3,4.6-0.5,6.9-0.5c11.3,0,22.6,0.3,33.9-0.1
			c9.4-0.3,18.4,0.8,27.2,4.4c1.3,0.5,2.9,0.5,4.4,0.8C106.3,358.5,110,358.7,110,362.8z"/>
		<path class="st13" d="M190.9,349.7c9.1,0,18.3,0.1,27.4,0.1c10.4,0,20.9,0.5,31,3c8.3,2,16.9,0.3,25.2,1.9
			c6.8,1.3,13.8,1.4,20.7,2.4c9.7,1.4,18.5-0.8,27.5-4.4c6.2-2.5,13.2-2.8,20-2.3c12,0.8,23.8,4.2,36,3.4c9.7-0.7,19.4-2,29.1-2.7
			c7.1-0.5,14.3-0.8,21.3,0.9c10.4,2.5,20.9,2.6,31.4,1.9c10.6,0,21.2,0,31.8,0c1.8,0,3.7-0.5,5.2,1c-5.4,1.6-10,5.4-15.9,5.7
			c-3.6,0.2-6,2.4-8.3,4.7c-11.8,3.7-23.7,3.2-35.4,0.3c-7.8-1.9-15.6-3.1-23.7-2.9c-6.7,0.2-13.3-0.2-20,0.1
			c-15,0.6-29.9-1.1-44.9-1.1c-9.7,0-19.2,0.3-28.7,2.5c-12.9,3-25.8,0.7-38.8,0.1c-15.3-0.8-30.5-2-45.6-4.3
			c-6.7-1-13.6-0.4-20.4,0.5c-11.9,1.5-23.8,2.3-35.8,2.2c-17.8-0.1-35.5,0.2-53.3,1.6c-1.6,0.1-3.3,0.5-4.9-0.5
			c-4-0.1-8.1,0.4-12-1c-1.5-2.5-4.8-3.2-6-5.9c7.1,1,14.1,1.2,21.2,0c5.2-0.8,9.2-4.1,14.2-5.4c6.1-1.6,12.1-1.6,18.2-1.7
			c7.1-0.1,14.3,0,21.4-0.1c0.6,0,1.3,0,1.9,0C184.2,347.6,187.6,347.6,190.9,349.7z"/>
		<path class="st14" d="M473.6,363.8c1.3-4,4.6-4.8,8.2-5c2.6-0.1,4.8-0.1,6.8-2.7c2.1-2.6,5.9-1.1,9-1.4c9.2,1.3,18.4,2.1,27.7,2.1
			c25.4-0.1,50.8,0,76.2,0c-8.6,0.4-15.7,4.9-23.5,7.8c-2.6,1-5.4,1.3-8.3,1.2c-8.8-0.5-17.5,0.5-26.2,1c-8.3,0-16.4,2.6-25,0.3
			c-10.5-2.8-21.7-2.4-32.5-3.7c-1.5-0.2-2.9,0.5-4.4,0.8C479,364.7,476.2,365.8,473.6,363.8z"/>
		<path class="st15" d="M144.9,416.7c3.6,0.3,7.2,0.6,10.9,1c9,0.9,17.9-0.9,26.7-2.3c3.7-0.5,7.3-0.7,10.9-0.7
			c16.8,0,33.6,0,50.4,0c1.4-1.6,3.3-1.4,5.1-1.3c19,1.1,38.1,2.3,57.1,4.2c5.4,0.5,11-0.4,16.3-1.4c11-2.2,22.1-2.2,33.2-0.8
			c14.7,4.1,29.6,3.3,44.4,1.2c6.4-0.9,12.9,0,19.4-1c5-0.8,9.8-1.7,14.4-3.7c13-5.7,26.4-6,40-2.8c2.2,0.5,4.7,0.7,6.1,3
			c-0.6,2.5-2.7,2.1-4.4,2.1c-6.6,0-13.3-0.4-19.8-1.7c-6.4-1.2-7-0.5-5.1,5.5c1.6,5-0.8,9.6-5.8,9c-8.2-1-12.7,4.5-16.2,9.4
			c-4.4,6.2-10.4,6.3-16.4,7.8c-7.8,2-15.8,0.6-23.6,1.5c-1.6,0.2-3.3-0.1-4.8,1c-9.3,0.7-17.9-1.1-26.2-5.8
			c-4.3-2.4-9.8-2.4-15-2.3c-8.1,0.1-16,0.9-24,2.9c-11.6,3-23.5,1.6-34.8-2.1c-12.1-4.1-23.7-2.4-35.6,0.7
			c-10.8,2.8-21.8,2.9-32.9,1.1c-7.3-1.2-14.8-1-22.3-1.4c-1.5-2.4-3.8-3-6.4-3c-3.3,0-6.7-0.3-9.9,0.1c-3.7,0.4-6-0.1-6.8-4.5
			c-0.6-3.4-3.9-3.6-6.8-2.7c-2.2,0.7-4.4,1.3-6.8,1.1c-1.9-0.1-3.2-0.6-3.2-2.8c0-2.2,0.5-4,3.1-4.2c3.9-0.3,7.6,0.5,11.1,2.1
			c1.7,0.7,3.1,1.1,4.5-0.4c1.1-1.2,2.4-2.7,1.9-4.4c-0.6-2.1-2.9-1.5-4.3-1.2c-5.9,1.2-11.8,1.2-17.7,0
			C149.1,419.2,146.8,418.4,144.9,416.7z"/>
		<path class="st3" d="M383.7,446.6c4.4-3.5,9.8-3.6,14.5-2.7c6,1.2,11-1.4,16.5-1.9c2.3-0.2,4.4-1.5,6.8-1.5c0.9,0,2.5-0.6,2.6-1.1
			c1.1-5.8,8.1-6.5,9.7-11.7c0.5-1.7,2-2.1,3.6-2.1c1.5,0,3,0,4.5,0c2.6-0.1,5.6,0.7,7.1-2.2c1.5-3.1,0.5-5.8-2-8
			c-1-0.8-1.5-1.9-0.4-3c1.6-1.8,3.7-3.2,6.1-2.5c4.3,1.3,8.8,1.4,13.2,2c4.6,0.5,9.2,0.4,13.7,0.8c0.5-0.7,1.2-1.2,2-1.3
			c8-1,16-1,24,0c0.8,0.1,1.5,0.7,2,1.3c10.4,0.4,20.9-0.7,31.4,0.9c3.2,0.5,6.1,1.7,8.9,2.6c11.2,3.7,22.1,3.2,33.1-0.4
			c0.5-0.1,1-0.1,1.5-0.1c-4.4,4.5-10.1,4.2-15.6,4.2c-4.1,0-8.2-0.7-12.2,1.1c-3.2,1.4-5.9-1.3-8.6-2.5c-4.2-1.9-8.4-2.5-12.6-0.7
			c-2,0.8-4.5,2-0.8,4.2c0.6,0.4,1.4,1.2,1.4,1.9c0.3,5.4,2.1,10.1,4.6,15c1.1,2.2-2.6,4.6-5.1,4.6c-6.7,0-13.4,1.4-19.8-2.8
			c-4.4-2.8-10.1-0.6-15.2-1c-15,1.5-29.6-2.6-44.4-3.1c-9-0.3-16.8,3.2-24.7,6.5c-4.8,2-9.7,1.9-14.6,2.4
			C404.6,446.6,394.1,447,383.7,446.6z"/>
		<path class="st16" d="M63,501.5c-5.3-0.3-7.2-6.7-12.6-7c-1.2-0.1-1.3-1.7-1.4-2.9c-0.3-6.7-0.7-13.4-1-20.1
			c7.8-2.6,15.4-0.4,22.9,1.6c3,0.8,2.1,3.8,2.1,6c-0.1,4,0.2,7.4,5.5,7.5c2.1,0.1,2.3,1.9,2.6,3.6c1.1,5.3,3.1,6.8,8.3,6.2
			c4.7-0.5,4.3-4.1,4.7-7.4c0.5-5-0.8-7.7-6.5-7.9c-2.8-0.1-8,0.5-8-3.9c0-4.6,5.2-3.8,8.2-4.5c4.9-1.2,9.8,0.7,14.8,0.9
			c0.5,0,1.2,0.3,1.3,0.6c2,6.3,6.7,3.6,10.6,3.3c3.9-0.3,7.1,0,6.6,5.3c-0.2,2.1,0.8,3.5,3.1,3.6c1.2,0.1,2.9,0.1,3.1,1.1
			c1.1,4.9,5.3,6.4,8.7,9.1c2.4,1.9,4.4,2.9,7.3,2.9c6.3-0.1,12.6,0,18.9,0c1.6,0,3.4-0.4,4.7,1c-32.3,1.4-64.7,2.8-97.1,2
			C67.5,502.4,65.1,502.8,63,501.5z"/>
		<path class="st16" d="M166.8,475.6c-0.3,2-1.3,2.9-3.1,2.8c-1.8-0.1-2.8-1.1-2.7-2.9c0.1-1.9,1.4-2.7,3-2.6
			C165.7,473,166.8,474,166.8,475.6z"/>
		<path class="st17" d="M355.7,416.7c-15.4-1.6-30.5,0.9-45.8,2.7c-5.8,0.7-11.9,0-17.8-1c-11.6-2-23.4-1.7-35.1-2.6
			c-4.4-0.3-8.8-1.2-13.3-1.2c-1-2-2.8-2.1-4.7-1.9c-13.9,1.9-27.8,0.4-41.7,0.8c-1.9,0.1-4.4-0.3-5-1.7c-2.5-5.7-7.3-4.2-11.5-4.2
			c-12.1-0.1-12.2,0-12.9-11.8c-0.2-2.9-1.4-3.8-4.2-4.3c-9.3-1.5-18.5-0.7-27.8-0.9c1.7-1.6,3.8-0.9,5.7-1c21.4-1,42.7,3.2,64,1.8
			c24.7-1.6,49.4-0.3,74.1-0.9c1.7-1.9,4.1-1.2,6.1-1.7c9.8-0.5,19.6,0.5,29.3-1c3.6-0.6,7.2-1.4,10.7-2.2c4.2-1,8.4-2.1,12.8-1.9
			c11.2,0.6,22.2-1.4,33.2-2.6c4.3-0.5,8.6-0.6,12.9-0.1c2.4,0.3,5,0.4,6.8,2.6c11.7,7.5,24.8,8.9,38.2,7.8
			c9.6-0.8,19.1-1.8,28.7-1.8c-0.4,2.8-2.8,2.5-4.6,2.7c-3.8,0.3-5.5,2-5.7,6c-0.6,11.3-1.5,11.9-12.9,10c-4.4-0.7-8.6-1-10.8,4.4
			c-1.6,3.9-6,3.8-9.1,3.8c-9.6-0.2-19.2,1.6-28.8,0.1c-2-0.3-4-0.3-5.9,0.3C372.4,419.5,364.1,416.8,355.7,416.7z"/>
		<path class="st18" d="M285.8,390.7c-2,0-4,0-6,0c-1-1.1-2.4-0.9-3.7-1c-18.6-1.3-37.2-0.6-55.7-1.1c-10.6-0.3-21.1,0.7-31.6,0.2
			c-2.8-0.1-4.9-0.5-6.7-3.2c-2.3-3.4-5.3-5.3-10.1-4.1c-3.9,1-8.3,0.2-12.4,0.2c-2,0-4.5,0.1-5.1-2.1c-0.6-2.9,3.1-0.9,3.8-2.8
			c-0.9-1.8-2.6-0.9-3.9-1c-7-0.5-14.3,1.2-21.1-1.9c-1.6-0.7-3.6,0.1-5.4,0.3c-10.1,1.3-20.1,0.3-29.8-2.5
			c26.7,0.2,53.4-0.6,79.9,4c1.3-1.6,3.2-1.8,5-1.8c10.7,0.3,21.1-1.1,31.6-2.7c9.1-1.4,18.6-0.4,27.8-0.3
			c6.8,0.1,13.6-0.8,20.3,0.7c2.1,0.8,2.7,2.8,3.1,4.7c0.8,3.6,3.1,5.3,6.7,5C279.7,380.7,282.6,385.9,285.8,390.7z"/>
		<path class="st0" d="M531.8,461.5c-1.8-0.1-3.1-0.7-3.1-2.5c0-1.5,1.2-2.3,2.6-2.3c1.7,0,2.9,0.7,2.9,2.5
			C534.3,460.7,533.1,461.3,531.8,461.5z"/>
		<path class="st18" d="M285.8,390.7c-2.5-2-5.8-2.8-6.9-6.5c-0.6-2-2.6-1.2-4.3-1.2c-8.6,0.1-10.2-1.4-10.8-10.3
			c4.7-3.1,9.5-1.9,14.3-0.3c5.3,4.6,5.3,4.6,11.7,1c13.6-0.2,27.1-2.7,40.7-3.2c12.4-0.5,24.3-3.3,36.5-4.8c4.5-0.5,9-0.9,13.4-0.4
			c8.5,1.1,16.9,0.7,25.4,0.8c8.7,0.1,17.1,1.3,25.5,4c11.6,3.7,23.3,2.8,34.7-1.5c2.7-1,5.4-2.9,8.5-0.7c5.7-1,11.4,0,17.1,0
			c2.2,0,4.3,0.2,5.9,2c-4.7,1.5-9.1-1.3-14.1-0.3c-4,0.8-8.4,2.3-12.7,0.7c-3.1,4.7-9,2.5-12.9,5.1c-2.1,1.4-1.8,2.5,0.5,3.3
			c0.9,0.3,2,0,2.8,1.4c-1.8,1.5-4,1.9-6.3,1.9c-6.3-0.2-12.5,0-18.6,2c-0.9,0.3-2.4,0.2-2.3,1.4c0.6,4.7-2.8,3.1-5.2,3.7
			c-12.1,2.9-23.1-1.8-34.2-5.1c-1.1-0.3-1.9-0.3-2.9,0.1c-19.1-3.5-37.7,3.4-56.8,2.2c-6.8-0.4-13.4,3-20.4,3.9
			C304.9,391.2,295.4,390.3,285.8,390.7z"/>
		<path class="st19" d="M355.7,416.7c9.1-1.9,18.3-0.6,27.5-1.5c9.9-0.9,20.2,0.4,30.3,0.5c2.4,0,4.6-0.2,6.8-1
			c1.8-0.7,3.3-1.4,3.4-3.7c0.1-3.7,3.3-5,5.9-4.8c3.3,0.3,6.8-0.5,10,1.7c3.2,2.2,6.7,0,7.1-3.8c0-0.2,0-0.3,0-0.5
			c0.4-3.6-1.3-7.6,0.9-10.7c2.5-3.5,6.9-1.3,10.3-2.4c0.3-0.1,0.5-0.4,0.8-0.6c7.8,1.4,14.6-2.6,21.6-4.6
			c8.9-2.4,17.9-1.9,26.6-1.1c9.6,0.9,19.1,1.7,28.7,1.6c2.8,0,5.6,0.1,8,2c-2.3,0.1-4.6-0.4-6.8,0.9c-1.3,0.8-2.9,1.4-2.8,3.2
			c0.1,1.7,1.5,2.7,3,2.8c2.8,0.1,3.8,1.4,3.5,4.1c-0.2,2.5,0.8,5.6-3.2,6.1c-1.2,0.2-2.4,0.7-2.5,2c-0.5,4.5-3.4,4.2-6.8,4.1
			c-6.8-0.2-13.7,0.4-20.4,1.9c-9.3,0-18.6,0-28,0c-14.3-4.5-28.7-6.5-42.9,0c-6.7,3.1-13.9,4.7-21,4.8c-15.4,0.2-30.6,3.7-46,2.1
			C364.9,419.1,360.4,417.7,355.7,416.7z"/>
		<path class="st20" d="M278.8,373.8c-4.9-1.2-10-1-15-1c-10.6,0-21.3,0.1-31.9-0.1c-10.5-0.2-20.7,0.7-31.1,2.6
			c-7.4,1.4-15.2,0.4-22.9,0.4c-2.5-3.2-6.3-2.1-9.5-3c-3.9-1.1-8.6-0.1-11.3-4.5c-0.6-1-2.2-0.8-3.2-0.1c-4.8,3.2-9.5,1.5-14.3,0.3
			c0.2-2.8,3.2-0.8,4-3.8c-7.6,2.6-14.7,1.5-21.6-0.9c22.7-3.6,45.7-2.8,68.6-3.2c12.4-0.2,24.7-1.9,37.1-2.8
			c12.2-0.9,23.9,3,36,3.6c6.8,0.4,13.6,0.4,20.3,1c11.8,1.1,24,3.2,35.7,0.1c13.8-3.7,27.8-3.3,41.6-2.5
			c20.8,1.2,41.6,0.2,62.3,0.8c8,0.2,15.4,3.9,23.4,4.6c9,0.8,17.9,0.5,26.6-1.6c5.6-0.3,11.2-0.7,16.8-1c9.8-0.6,19.3,1.4,28.9,3.3
			c8,1.6,16.2,0.3,24.2,0.7c-1.7,1.6-3.8,0.8-5.7,1c-1.7,0.1-3.9-0.4-4.7,0.9c-3.2,4.9-6.9,1.9-10.3,0.9c-6.5-2-12.8-3.9-19.6-1.2
			c-0.7,0.3-1.9,0.3-2.4-0.1c-4-3.4-9.2-2.5-13.7-3.5c-4.2-1-8.7,0.5-12.5,3c-6.5,0.7-12,4.8-18.5,5.4c-9.1,0.9-18.2,1.7-26.9-2.1
			c-5.3-2.3-11-3-16.5-3.1c-13.4-0.4-26.8-0.5-40.2-1c-5.8-0.2-11.9,1.1-17.6,2.4c-6,1.4-12,2.5-18.1,2.4c-8-0.1-15.7,1.4-23.6,2.5
			c-8,1.1-16.2,0.4-24.4,0.6C285.2,376.9,281.9,376.1,278.8,373.8z"/>
		<path class="st18" d="M278.8,373.8c3.3,0.3,6.7,0.7,10,1C285.5,379.4,281.3,379,278.8,373.8z"/>
	</g>
</g>
</svg>
