<svg id="Layer_1" data-name="Layer 1" xmlns="http://www.w3.org/2000/svg" viewBox="0 0 143.99 224.4"><defs><style>.cls-1{fill:#fff;}</style></defs><title>oldhand</title><g id="_1JxZCl.tif" data-name="1JxZCl.tif"><path class="cls-1" d="M761.19,661.38c-2.42-.88-2.74,1.46-3.47,2.61-2,3.18-3.65,6.6-5.53,9.88-1.68,2.94-1.44,5,2.76,5.71-3.91-.54-4.89,1.51-6.06,4.37-1.4,3.44-3.77,6.54-6,9.59-1.46,2-1.77,3.28,1.46,4.1-3.7-.59-5.19,1.3-6,4.06a33.43,33.43,0,0,1-4,9.08c-3.48,5.3-2.51,6.84,4.18,9.4a2.74,2.74,0,0,1-3.73.25c-3-2.17-4.37-.93-4.42,2.14-.07,3.59-5.08,6.64-1.14,10.61-.38.18-.86.6-1.12.49-2.91-1.24-2.7,1.56-3.32,2.78-4.39,8.72-9.21,17.12-16.42,23.88-2.1,2-4.26,3.83-7.81,4.55,3.42-4.64,2.22-8.89.54-12.72-2.23-5.09-2.09-9.09,2.56-12.74a12.06,12.06,0,0,0,4.09-7.69l.35-.33.37.31c2.15,2.39,2.78-.48,3.55-1.29,3.79-4,7.31-8.16,13.77-6.72,2,.46,2.1-1.52,2.59-2.85,2.82-7.69,3.63-16,6.83-23.55,1.64-3.88,2.76-8.07,6.18-10.94,1.73,2.34-.79,3.82-1.13,5.63,3.17-6.18,7.21-12.08,8.92-19.06.56-1.79,1.6-3.35,2.3-5.08,1.65-2.37,2.77-5.1,4.2-6.52a2.25,2.25,0,0,1-1.78.09c2.37-5.5,13.39-9.33,18.29-6.45,2.48,1.45,3,3.82,3.1,7.3,2.66-4.13,4.11-7.87,7.36-10.32,4.43-3.34,7.56-2.83,10.44,1.91,5.69,9.36,5.8,9.69,5.15,16,2.18.25,4.87-1.51,6.56,1.12.45.89-.13,1.24-.8,1.55-4.44-1-6.49,3.26-9.92,4.51-3.75,4.22-4,10-6.33,14.8-2.66,2.25-2.16,5.81-3.55,8.59a16.44,16.44,0,0,1-1,3.71c-.6,1.12-1.41,1.3-1.33-.44-.62-3.49-3.63-4.14-7.15-5.66,1.67-.09,2.51-.1,3.33-.19,1.41-.15,3.2.64,4.12-.87,1.2-2-1.74-2.31-1.88-4.14,3.13.67,4.19-1.24,5.64-3.66,1.65-2.75.77-6.15,3.44-8.77,1.68-1.65-1.94-2.58-3.42-4.25,2.86.06,6.17,1.3,6.28-3.33.07-2.94,2.17-5.77.56-8.85a1.87,1.87,0,0,1-2.4-1.08c-.46-1.36.25-2.55.54-3.81.53-2.38-.27-4.41-2.41-5.34-2.51-1.09-3.85,1-5.08,2.73a8.31,8.31,0,0,0-1.18,4.2c-.15,1.6.13,3.32-1.22,4.6-2.3-1.53-.38-4-1.47-6.06-3.93,4.52-5,10.17-6.42,15.6-1.06,4-4.16,8.62,4.07,10.28-3.51,1.22-6-2-7.62.24a81.13,81.13,0,0,0-6.5,11.55,45.74,45.74,0,0,0-2.59,7.69c-.34,1.23-.78,2.81-.3,3.81,1.79,3.73-.55,6.3-1.71,9.44-1.38,3.72-2.53,7.57-3.68,11.34a13.68,13.68,0,0,1-2.08,4.53c-2.43,3.43-5.2,7.29-.88,12-4.11-.29-1-7.35-6.91-3.61l4.41-7.06-6.75-2c2.72-.46,4.55-.71,6.34-1.1,1.1-.24,2.34-.47,2.34-2,0-2.22-2.29-.28-2.86-1.7,1.36-1.09,3.69-.88,4.64-3.37h-7.22l-.1-.76a32.9,32.9,0,0,1,4.31-1c3.32-.35,4.49-2.13,4.14-5.34-.15-1.37-.82-2.88.71-4.11,3.42-2.76,2.32-5.26-1-7.48,5.3-.88,6.41-2.76,4.86-8.28-.28-1,.07-1,.58-1.21,4.21-1.86,2.53-3.59-.19-5.23,1.33-1.74,4.16,1.35,4.55-1.11.33-2.15-2.63-2.47-4.09-4,1.47-1.44,4.81,1.22,5.11-1.57.39-3.47-3.27-4.48-6-6.79,2.66.33,4.59.87,6.46.7,1.63-.15,3.76,2,4.74-.17,1.33-3,2.45-6.34,1.88-9.57-.29-1.61-2.34-1-3.46.28-.24-2.52,1.58-4.21,2.49-6.27.71-1.63.84-3.22-.69-4.45s-3-.94-4.52.06S763.28,661.43,761.19,661.38Z" transform="translate(-666.07 -649.81)"/><path class="cls-1" d="M693.94,728.74c-4.14.29-6.27,1.9-9,6.9,2.48,1,5.58.35,7.59,2.73-2,.9-3.88-.77-5.85-.38-1.47.3-3.09.45-3.22,2.4-.16,2.32,1.86.87,2.74,1.45a24.86,24.86,0,0,1,2.46,1.41c-6.24-1-6.5,3.07-6.91,7.19-.6,6.09-.91,12.27-2.26,18.2-1.68,7.39.75,12.84,5.83,17.84,7.74,7.61,11.47,17.56,15.16,27.42,2.06,5.5.92,11.16-1.15,16.48-3.19,8.25-8,15.63-12.53,23.19,1.21-5.47,3.75-10.41,6.19-15.35a51.63,51.63,0,0,0,5-15.42c.16-1.12.92-2.48-.17-3.23s-2.56.08-3.67.79a16.06,16.06,0,0,0-5.09,6c-1.51,2.68-3.44,5-6.33,6-7,2.43-13,6-16.64,12.89a18.54,18.54,0,0,1,7.08-12.63c8.62-7,13-17,19.38-25.52,1-1.4.68-2.28,0-3.47-3.64-6.66-7-13.5-12.94-18.59-4-3.46-5.29-7.76-4-12.91a187.8,187.8,0,0,0,5.17-32.25c.49-6.25,4-10.74,9.86-13.06,4-1.55,6.51-5,10-7.13,1.76-1.06,3.43-3.55,5.43-2.53,2.25,1.14,2.69,4,2.48,6.57a.49.49,0,0,1-.83,0c-.62-1.61,0-4.32-3.19-3.68A96.44,96.44,0,0,1,693.94,728.74Z" transform="translate(-666.07 -649.81)"/><path class="cls-1" d="M807.25,733.79c-3.86,11-7.76,21.91-11.55,32.9a16.54,16.54,0,0,0-1.29,6.26c1.07,14.21-8,23.95-15,34.58-3.1,4.72-7.2,8.63-11.25,12.53-4.45,4.28-7.19,9-7.26,15.58-.13,11.24-8.3,29.4-16.69,38.57.16-2.76,1.66-4.58,2.68-6.5,4.1-7.74,6.72-16,9.2-24.34a1.05,1.05,0,0,0,.06-.49c-.36-1.56-3.79-2.59-.31-4.84,2.28-1.48,1.26-4.77,2.16-7.24-2.26.45-2.74,3.05-6,3.44,5-5.59,9.08-11,14-15.34,10-8.87,16.36-20.2,23-31.44,2-3.45,2.34-7.45,3-11.35,1.19-6.64,1.51-13.59,5.33-19.51,2.08-3.2-3.15-1.08-2.23-3.42,1-1.73,4.9.77,4.54-1.94-.4-3,1.54-5.24,1.27-7.89-.11-1-1.23-1.86-1.78-2.63,2.81-.21,6.41-.58,5-5.73-.06-.24,1.21-.84,1.86-1.28A.78.78,0,0,1,807.25,733.79Z" transform="translate(-666.07 -649.81)"/><path class="cls-1" d="M791,735.84c3.88-4.28,3.88-4.28-2.4-7.87,1.65-.89,5.39.66,5-1.33-.58-3,4.57-6.06-.49-8.52,1.83-1,6.92.62,3.15-4.12-.53-.67-.59-.71.18-1.23,5.51-3.73,5.13-6.46-1.52-10,5.91,1.63,7.73-1.57,8.61-6.42.46-2.54,1.71-4.94,2.6-7.41a.71.71,0,0,1,1.14.08c-.8,3.18-1.66,6.35-2.38,9.54-.6,2.67-3.78,6.08,2.15,7,1.44.23,2,2.49,2.26,4.16a1.7,1.7,0,0,1-1.23.53c-3.06-1.73-5.21-1.46-5.76,2.56a4.2,4.2,0,0,1-1.36,3.06c-3.25,1.49-3.3,5-3.65,7.53A49.88,49.88,0,0,1,789,745.3c-3.52,5.14-2.34,11.6-4,17.32-.34,1.23.32,2.65-.81,4.13-.83-10.8-.85-21.06,6.61-29.68Q790,736.35,791,735.84Z" transform="translate(-666.07 -649.81)"/><path class="cls-1" d="M724.67,816.13c4.4-4.28,7-9.66,9.5-15s4.71-10.78,9.78-15c1.09,3.51-.55,6.26-.83,9.07a72.08,72.08,0,0,0,.75,17.81c.89,6.11.39,11.93-2.48,17.33-5.17,9.74-10.58,19.36-15.89,29-.35.65-.82,1-1.92.28,3.9-7.38,7.74-14.91,11.81-22.3,4.54-8.22,8.28-16.49,5.9-26.31-1.45-6-.67-12.1.33-19.11-3.83,4.57-5.35,9.26-7.63,13.53S729.42,814,724.67,816.13Z" transform="translate(-666.07 -649.81)"/><path class="cls-1" d="M782,703.71c2.19-.58.23-3,1.72-3.89.86-.19.91.44,1,1a36.16,36.16,0,0,1-1.38,5c-1.32,3-1.23,5.36,3.83,6.37-3,.95-6.55.12-4.65,4a4.37,4.37,0,0,1-2.62,4c-3.72,1.53-3.17,5,1,10.88-2.47-.28-2.47-.28-5.3-2.69,1.22,5.23-2.19,8.34-3.61,12.2a.53.53,0,0,1-.9,0c.42-2.93.36-6,1.38-8.74,1.13-3,.94-4.55-2.74-4.76,1.59-2.11,4.83-.7,5.39-4l-6.83-.5c1.36-1.71,2.85-.85,4-.84,4.33,0,3.48-4.46,5.6-6.36.39-.36-1.75-.25-2.42-1.27,1.91-1.13,5-.9,5.22-4.08.18-2.45-2.25-2.49-3.58-3.84C778.69,705.28,781.63,706.76,782,703.71Z" transform="translate(-666.07 -649.81)"/><path class="cls-1" d="M703.13,809.74c-2.92-9.62-8.59-17.18-15.07-24.69a31.15,31.15,0,0,0,14.48-9.51,14.91,14.91,0,0,1-6.63,9.67c-2.16,1.36-2,2.24-.76,4a62.68,62.68,0,0,1,7.79,15.35C703.45,806.16,704.21,807.61,703.13,809.74Z" transform="translate(-666.07 -649.81)"/><path class="cls-1" d="M760,814.28,755,821.47a21.66,21.66,0,0,0-.89-14.05c-1.3-3.31-.8-6.24.75-9.43,2-4.14,4.74-8.31,2.53-13.62,2.62.44,2.27,2.37,2.23,3.73a13.78,13.78,0,0,1-2.06,7.54c-4.12,5.87-1.78,11.66-.22,17.5.41,1.52,1.18.32,1.8.11A1.37,1.37,0,0,1,760,814.28Z" transform="translate(-666.07 -649.81)"/><path class="cls-1" d="M750.32,672.79c-1.58,8.75-7.2,15.47-11.59,23.88-.59-4.57,2.72-7,2.72-10.31l1.82-2.25a76.11,76.11,0,0,0,4.66-9.24C748.48,673.88,748.66,672.48,750.32,672.79Z" transform="translate(-666.07 -649.81)"/><path class="cls-1" d="M804,681.83c3.64-3.34,2.85-6.6-.17-9.82l1-1c4.62,5.5,5,11.56,2.37,18l-1.14-.08c0-1.95,1.92-3.95-.16-5.85C804.74,683.53,804.35,682.69,804,681.83Z" transform="translate(-666.07 -649.81)"/><path class="cls-1" d="M693.94,728.74c2.37-4.35,6.38-6.68,10.64-8.71A15.84,15.84,0,0,1,693.94,728.74Z" transform="translate(-666.07 -649.81)"/><path class="cls-1" d="M739.84,766.47c6.59-8.73,6.59-8.73,7.85-17.25C749.57,756.8,747.68,761.09,739.84,766.47Z" transform="translate(-666.07 -649.81)"/><path class="cls-1" d="M807.25,733.79l-1.21-.08c-.65-3.53,2.14-6.2,2.29-9.66.14-3.09.82-6.17.52-9.31-.67-1.11-.67-1.91.92-1.93C810.31,720,810.41,727.07,807.25,733.79Z" transform="translate(-666.07 -649.81)"/><path class="cls-1" d="M754,661.42c1.7-.5,2.14-2.88,4.74-2.92-2.19,3.43-3.47,7-6.46,9.46-1.08-.71,0-2.17-1-2.92C751.64,663.45,752.07,661.88,754,661.42Z" transform="translate(-666.07 -649.81)"/><path class="cls-1" d="M809.77,712.81l-.92,1.93c-2,2.9-4.33,4.37-7.75,2.32,4.46-.36,5.76-3.74,6.87-7.28l1.29-.06C810.13,710.63,809.75,711.75,809.77,712.81Z" transform="translate(-666.07 -649.81)"/><path class="cls-1" d="M732.58,765.68c-6.25-.59-8.18-3.23-7.79-10.31A16.31,16.31,0,0,0,732.58,765.68Z" transform="translate(-666.07 -649.81)"/><path class="cls-1" d="M804,681.83l2,1.24c-4,5.9-4.37,6-8.58,2.83A9,9,0,0,0,804,681.83Z" transform="translate(-666.07 -649.81)"/><path class="cls-1" d="M760,814.28l-.8-1,5.59-11.44A22.91,22.91,0,0,1,760,814.28Z" transform="translate(-666.07 -649.81)"/><path class="cls-1" d="M774.09,780.5c2.88-3.78,5-7.88,5.43-12.75,1.63,5.68-.9,9.88-4.62,13.65C774.12,781.57,773.64,781.45,774.09,780.5Z" transform="translate(-666.07 -649.81)"/><path class="cls-1" d="M765.07,759.72c1.74,4.65-.49,8-3.78,10.9C762.81,767.09,764.79,763.72,765.07,759.72Z" transform="translate(-666.07 -649.81)"/><path class="cls-1" d="M774.09,780.5l.81.9a27.34,27.34,0,0,1-9.47,8.36Q769.77,785.13,774.09,780.5Z" transform="translate(-666.07 -649.81)"/><path class="cls-1" d="M751.25,665c2.6.2.12,2.13,1,2.92l-1.92,4.83L748.27,675a1.23,1.23,0,0,1-.72-1Z" transform="translate(-666.07 -649.81)"/><path class="cls-1" d="M785.13,667.06c1.19.28,1.87-.59,2.67-1.18,1.26-.23,2.09-1.82,3.64-1.16a2.86,2.86,0,0,1-2.32,4C787.88,669,785.28,670.27,785.13,667.06Z" transform="translate(-666.07 -649.81)"/><path class="cls-1" d="M784.69,700.84l-1-1c1.16-2.77.29-6.6,4.13-8Z" transform="translate(-666.07 -649.81)"/><path class="cls-1" d="M771.06,740.64h.9c-1.19,3.31-.62,7.19-3.13,10.09C769.39,747.31,769.1,743.71,771.06,740.64Z" transform="translate(-666.07 -649.81)"/><path class="cls-1" d="M747.55,674l.72,1c-1.11,3.34-2.07,6.77-5,9.1C743.48,680.23,746.31,677.46,747.55,674Z" transform="translate(-666.07 -649.81)"/><path class="cls-1" d="M788.35,778.62c1.41,3.84.06,6.79-3.8,9.66C785.54,784.43,788.75,782.25,788.35,778.62Z" transform="translate(-666.07 -649.81)"/><path class="cls-1" d="M707.77,723.71a1.47,1.47,0,0,1,.83,0,7.84,7.84,0,0,1-.07,8l-.36.08-.36-.06A22.29,22.29,0,0,0,707.77,723.71Z" transform="translate(-666.07 -649.81)"/><path class="cls-1" d="M791,735.84l-.15,1.23c-2.61,1.06-4.94-.31-7.39-1.23Z" transform="translate(-666.07 -649.81)"/><path class="cls-1" d="M747.79,770.41c3.07.55,5.11,2.4,7.67,2.4C752.56,774,750,774,747.79,770.41Z" transform="translate(-666.07 -649.81)"/><path class="cls-1" d="M767.12,767.9v9.24C765.3,773.67,764.4,771.3,767.12,767.9Z" transform="translate(-666.07 -649.81)"/><path class="cls-1" d="M742.08,749.32l-8.46-2.3C737.18,746.46,739.57,745.93,742.08,749.32Z" transform="translate(-666.07 -649.81)"/><path class="cls-1" d="M791.44,664.72c-1.54-.63-1.55,3.54-3.64,1.16.44-1.58,1.7-2.29,3.06-2.89l2,1Z" transform="translate(-666.07 -649.81)"/><path class="cls-1" d="M795.28,659.6c2.22,4.6,2.55,9-.88,13.12C794.73,668.32,795.2,663.94,795.28,659.6Z" transform="translate(-666.07 -649.81)"/></g></svg>