<svg id="Layer_1" data-name="Layer 1" xmlns="http://www.w3.org/2000/svg" viewBox="0 0 584.37 750.66"><defs><style>.cls-1{fill:#fff;}</style></defs><title>oldman2</title><g id="jvFFFf.tif"><path class="cls-1" d="M691.34,974.22l7-4.48c-1.45,2.92-3.27,6.61-5.1,10.29l1.17.9c25.53-37.81,55.21-71.7,91.12-99.72l1.14,1A16.51,16.51,0,0,1,785,884c-26.46,20.6-49.34,44.83-70,71.07-12,15.23-23.44,31.12-28.78,50.32-.31,1.12-.79,2.19-1.12,3.3-.08.26.13.61.39,1.63l11.39-20.8.73.3c-.48,1.41-1,2.81-1.43,4.21l.52.43,5.68-7.34a109.68,109.68,0,0,0-18.27,41.75l10.09-19.52,3.27,1.77c-10,13.93-17.92,28.89-22.56,45.36l1.25.68,7.21-13,.74.36c-.72,1.9-1.45,3.81-2.18,5.71l.6.33,23.24-38.49,1,.59-28.18,49.22,1.24.71,3.52-5.48.68.35L673.71,1079l.87.4,35.57-59.4,1.09.59c-.73,1.35-1.43,2.71-2.17,4.05q-17.87,32.32-35.8,64.6c-.77,1.38-2.42,2.27-3.66,3.39l-.94-.92c.4-2.16.79-4.32,1.22-6.67-.91.13-1.46.12-1.49.23-1.47,6.6-6.06,7.22-11.87,7-10.3-.41-20.62-.12-31.12-.12,2.32-19,11.76-35.84,14.58-54.3l-2.29-.62c-3.49,12.52-6.93,25-10.5,37.55q-2.24,7.82-5,15.47a3.79,3.79,0,0,1-2.82,2c-6.8.17-13.6.09-20.25.09-.32-5-.62-9.59-.91-14.15l-1.6,0c.17,2.31,0,4.71.61,6.9.87,3.21-2.71,7.64-6.72,7.12,2.55-8.29,5.07-16.49,7.6-24.7l-1.57-.75a36,36,0,0,0-2.89,5.4c-2,5.95-3.27,12.26-6,17.83-1.06,2.14-5.39,2.67-9.18,4.35.13-3,.19-4.11.3-6.39-3.58,7.78-9.11,4-14.29,4.86,2.07-4.6,3.77-8.4,5.48-12.21l-1.12-.59-7.32,13.3-2-1.17c3.18-5.22,6.38-10.43,9.55-15.66a34.93,34.93,0,0,0,2.85-5.09c7.23-18.21,14.44-36.42,21.48-54.7a29.2,29.2,0,0,0,1.71-10.81,410.94,410.94,0,0,0-26.7,67.72l-1.59-.33c0-1.66-.41-3.46.07-5,3.37-10.76,6.27-21.75,10.58-32.14,5-12.11,11.45-23.63,17-35.53A26.1,26.1,0,0,0,596.62,990c-14.8,25.78-26.25,53-35.39,81.15l-1.35-.45c.12-1.87.25-3.75.38-5.62l-1.06-.42c-1.58,3.12-3.15,6.24-5.45,10.8,3.61-.49,5.65-.64,7.64-1,3-.62,4.74.89,3.57,3.39-2.54,5.42-5.84,10.48-8.83,15.69l-1.63-1,7.65-12c-2.62.39-4.19.21-5.19.89s-1.48,2.12-1.9,3.33c-2.81,8-5.07,9.33-14.26,7.74l14.68-13.14-.36-1.24c-3.2,0-6.46-.35-9.57.17-1.29.22-2.48,2.19-3.34,3.6-1.62,2.68-2.81,5.63-4.52,8.26-.56.86-2.16,1-3.28,1.53-.18-.37-.35-.74-.52-1.11l4.43-6-1-1-3.36,2.65,4-10.47-1.32-.55-7.69,15.76.81.55,2.33-1.53c-.58,3-2.57,3.51-5.22,3.08-1.55-.25-3.14-.29-5.15-.47.39-.82.85-1.77,1.56-3.23-10.45,6.78-21.71,4.08-32.25,4.37-33.46.92-67,.83-100.43,1-16.86.1-33.73,0-51,0,.26-1.49.51-3,.76-4.43l-.94-.8-6,5.61-.82-.59,1.63-3-.79-1.08-5.56,3.94c-1.23-4.44-4.49-1.69-7-1.45-8.33.77-16.65,1.72-26.29,2.74,3.94-8.15,7.23-14.93,10.67-22-4.1-1.4-7.11-.58-8.57,3-1.35,3.32-1.5,7.18-3.07,10.35-1.39,2.81-4,5-6.89,7.15l13-28.79c-6.92-1.64-9.41-.85-15,17.78-2.11-4,2-14,13.25-30.38q-2.43,5.31-4.87,10.61l.76,1.39,9.92-4c.59,3,2.16,1.28,3.27-.66,2.81-4.9,5.4-9.94,8.14-14.89A13.71,13.71,0,0,1,317,1043L317,1043q-2.7,6-5.41,12c-1,2.11-1.86,4.24-3.18,7.25,5-2.42,10.57-.69,12.71-6.1l-.1-.08-4.76,8.56c-.06-2.29-1.06-4-3.09-1.8s-3.09,4.93-5,8.09c4.32-.4,4.32-.4,8.18-6.46q-.6,2.77-1.19,5.54c.32.21.64.42,1,.62l3.43-3c1,3.61,2.67,2.75,4.14.17,1.94-3.41,3.66-7,6.45-10l-5.37,10.75,1.32,1,6.39-9.16c-1,3.4-1.68,5.55-2.32,7.68,5.45,1.72,8.65.37,10.94-4.19,5.83-11.57,11.82-23.07,17.58-34.68,1.27-2.57,1.84-5.49,2.73-8.26l-1.36-.61-20.46,34.54c20.81-40.27,45.68-78,70.46-115.84l1,.63-44.46,69.68,1.46,1.09c3.37-4.14,7.1-8.05,10.06-12.47,11.78-17.53,23.33-35.22,35-52.85l1.15.73-36.49,56.31c5.42,1.7,5.78,1.43,9.27-3.82Q405.8,970,424.68,941.73a7.93,7.93,0,0,1,3.29-3.08l-41.61,63.68c6.41.16,9.63-2.37,12.4-6.67,11-17.07,22.28-34,33.5-50.89a6.73,6.73,0,0,1,3.17-2.5q-18.9,28.92-37.89,58c3.68,2.84,5.51.69,7.09-1.78,5.12-8,10-16.13,15.27-24a203.41,203.41,0,0,1,17.58-23.22l-31.71,48.53c4.25,5.5,5,5.46,8.47,0,2.86-4.55,5.7-8.71,10.5-12,5.22-3.56,8.52-9.82,13.49-13.9,2.27-1.87,6.5-1.56,9.87-1.81,4.64-.35,9.32-.16,14-.45a41.06,41.06,0,0,0,9.8-1.85c-8.68-6-12.9-14.87-18-23.27-2.2-3.65-6.72-6.25-10.68-8.39s-6.44-4-3.47-8.88c9.05-.31,18.22-1.22,25.89-5.62-1.72-5.83-3.26-11.08-5.14-17.45,7.85.51,14.08,1,20.32,1.27,5.31.21,10.63.25,15.93.06,4-.15,6.08-2.77,5.9-6.6-.34-7.31,3.87-12.19,9.24-15.54,5.76-3.58,12.39-5.78,19.73-9.07-1.12-5.1-2.72-11.66-4-18.28-1.31-7-3-13.94-3.15-21-.1-3.65,2.41-7.49,4.17-11a31,31,0,0,1,5.44-8.32c3.54-3.52,2.17-6.87-.58-8.89-8.5-6.21-7.67-14.94-7.12-23.56.67-10.52-3.57-18.5-12.16-24s-18-10.1-26.44-16A54.76,54.76,0,0,1,474.5,731.5c-4.34-6.37-9.57-11.39-16.7-13.54-21.25-6.39-25.34-25.36-12-43,5.18-6.83,12-12.4,18-18.64a4.64,4.64,0,0,0,1.26-3.24c-.6-5.73-1.92-11.44-2.06-17.17s.85-11.44,1.38-17.67c-2.75-.68-6.1-1.52-9.46-2.33-19.52-4.75-21-23-8.44-35.56,1.87-1.87,4.3-3.16,6.27-4.94,4.05-3.68,8.58-7.06,11.8-11.38a62.25,62.25,0,0,1,21.62-18.12,25.41,25.41,0,0,0,5.87-3.72c1.28-1.22,2.93-3.62,2.49-4.77a12.27,12.27,0,0,0-4.71-5.31c-2.11-1.39-4.77-2-7.08-3.84l7.07-1.5c-1.4-1.41-3.49-2.56-3.55-3.81-.07-1.57,1.53-3.21,2.59-5.13L485,516l.2-1.34a13.69,13.69,0,0,1,3.77.35c1.84.71,3.45,2.09,5.31,2.68,2.66.84,5,1.38,7.07-2.1,1.79-3,5.53-4.79,7.88-7.56,3.55-4.18,6.61-8.78,9.94-13.14a27.61,27.61,0,0,1,4.22-4.84c3.39-2.73,7-5.17,11.24-8.25-5.56-3.53-10.2-6.29-14.64-9.34-10.15-7-20.19-14.09-30.3-21.1-6.82-4.74-13.91-9.14-20.46-14.23a29,29,0,0,1-7.6-9.38c-.83-1.62.27-5,1.64-6.71.88-1.08,4.13-1.19,5.81-.49,5.2,2.16,10.15,4.91,15.2,7.43l9.13,4.54c.32-.43.63-.87.94-1.31-1.32-1.18-2.63-2.38-4-3.54-5.31-4.57-6-9.42-1.82-13.68,4.32-4.44,8.63-3.89,13.56,1.52,1,1.07,2.59,2.24,3.88,2.21,4.06-.1,4.36,2.18,3.89,5.18-1,6.36,1.22,9.41,7.24,10.81-.23-3.23-1.46-7-.5-10.06,1.57-5,6.1-5.72,10.24-2.35,6.43,5.24,12.81,10.52,19.83,16.29a52.23,52.23,0,0,0,1.65-6,14.09,14.09,0,0,1,7.27-10.74c1.2-.71,1.83-2.36,3-3.12,2.15-1.38,4.76-3.67,6.71-3.27,2.22.44,4.1,3.27,5.79,5.34.84,1,.92,2.66,1.84,5.63,6-9.23,11-17.64,16.81-25.37,3.87-5.12,6.42-11.51,12.83-14.64,1.61-.78,2.27-3.49,3.37-5.31l8.88-14.61,1.55.75-.87,2.14,1,.88c2.56-3.34,5-6.8,7.7-10,3.82-4.52,7.16-10.09,12-12.84,3.52-2,10.26-1.84,13.77.3,18.6,11.31,36.83,23.26,54.78,35.58,9.77,6.71,18.84,14.45,28,22,19.39,15.92,38.37,32.37,58.08,47.9,10.08,7.95,21.28,14.51,32.17,21.39,3.12,2,5.23,3.94,5.09,7.77a13.14,13.14,0,0,0,.34,3.48c1.57,6.76.38,12.36-5.82,16.53-1.94,1.31-3.2,3.79-4.48,5.9-5.53,9.09-11,18.23-16.4,27.37-5,8.41-10.36,16.64-14.85,25.33-3.68,7.13-6.11,14.91-9.52,22.2a60.59,60.59,0,0,1-6.74,10.42c-2.31,3.07-1.9,5.51.37,8.42q14.26,18.27,28.26,36.78c5.43,7.15,10.71,14.41,15.94,21.71,2.82,3.93,1.3,6.8-3.64,7.6A37.34,37.34,0,0,1,790.3,664c-10-4.42-19.8-9.24-27.62-17.36-2.82-2.93-6.6-5-10.14-7.12-1-.57-3.61-.32-3.92.31-4.3,8.9-8.6,17.83-12.24,27-.83,2.09.86,5.18,1.4,7.87-5,1.36-5.5.49-8-14.09-2.58,1-4.15,13.6-2.63,21.24l-1.24.45a71.34,71.34,0,0,1-2.59-7.26c-.68-2.81-.91-5.73-2.1-8.54-3.52,6.11-1.92,12.09.36,18.55-6.16-.32-9-4.3-10.48-9.07L702,674l-.4.84,6.86,4.68c-5,.86-7.57,3.61-7.58,7.45,4.19.46,8.82-.33,11.29,1.62s2.82,6.61,3.92,10.13a47,47,0,0,1,1,5.72c7.26-2.7,14-6.56,20.95-2.19,4.05,11.06,8.24,22.49,12.5,34.16.49.11,1.21.53,1.71.35,7.91-2.8,13.49.78,19.12,6,8.39,7.76,16.79,15.23,19,27.31a6.77,6.77,0,0,0,3.87,4.23c9.69,3.36,16.14,11.07,23.55,17.36,10.24,8.68,20.56,17.45,29.56,27.35,7,7.64,12.17,16.93,17.62,25.81,1.42,2.31.83,5.85.34,8.76-3.72-6.33-7.14-12.88-11.26-18.94a178.89,178.89,0,0,0-12.31-15.48c-12.35-14.46-28.46-24.79-42.06-37.92-3.56-3.44-9.33-4.65-14.14-6.74-17.93-7.8-36.29-14.19-56-15.28a9.69,9.69,0,0,0-7.13,3,164.31,164.31,0,0,0-14.8,22.61c5.89-3.66,12.11-6.91,17.48-11.21,1.67-1.34,1.07-5.52,1.52-8.51,15.06-2.11,67.32,13.9,75.32,23.6-22.66-12.91-47.66-17.79-72.81-22.34-1.54,6.85-.65,8.21,7.77,13.82l-5.39-.7-39,27.86c0,.1.12-.84.25-1.78l-1.06-.48c-5.6,9.19-11.26,18.33-16.79,27.56-9.55,16-18.95,32-28.65,47.91-.7,1.14-3.55,1.89-5,1.45-2.78-.84-5.26-2.66-8.12-4.22-6.67,9.53-13.56,19.27-20.26,29.13-.7,1-3.71,2.89,0,4.34a6.92,6.92,0,0,1-.82,2.54c-6.32,9-12.86,17.83-19,26.91-5.13,7.55-9.85,15.38-14.76,23.08l1.79,1.7c1.63-1.33,3.68-2.37,4.81-4,8.86-13.09,17.53-26.31,26.32-39.45,1.28-1.9,3.21-3.39,4.26-5.38.85-1.58.85-3.62,1.19-5.46.12-.72-.12-1.63.23-2.17a264.75,264.75,0,0,1,16.69-23.21,100.5,100.5,0,0,0-15.33,31.5,2.93,2.93,0,0,0,.48,2.47l13.91-25.58,1.07.5c-1.09,2.33-2.17,4.67-3.26,7l.34.27,16.4-20.09,1.63,1.08c-15.38,19.27-31.87,37.92-36.4,64,4.77-10,9.22-19.43,14.12-29.75l1,3.81c9-12.69,18-25.26,26.94-37.83.39.26.79.51,1.19.76l-8.64,13.55,3.52-1.66-8.13,13.89.76.56,9.28-11a35.3,35.3,0,0,1-1.9,3.91c-4,6.23-8.34,12.3-12.12,18.67-1.62,2.74-2.21,6.08-3.26,9.15l-4.12,3.91c1.48-4,2.66-7.14,3.84-10.3l-.56-.16L623,940c2.57-4.74,5-9.55,7.72-14.22,4.8-8.33,9.73-16.59,14.61-24.88a15.26,15.26,0,0,0-5.37,5.31c-7.8,12.48-15.51,25-23.24,37.52q-3.94,9.91-7.93,19.8l1.54.55q3.14-10.23,6.28-20.46,3.29-1.9,6.58-3.8c-2.35,4.56-4.79,9.08-7,13.7-2,4.1-1.6,8.82-2.59,13-3.19,13.35-8,26.32-12.17,39.45a18.16,18.16,0,0,0-.4,3.57l.41,0Q608,991,614.59,972.5l1.55.55c-1.67,4.81-3.52,9.56-5,14.43s-2.54,10-3.75,15-2.54,10.31-3.67,15.5c-1,4.74-1.87,9.52-2.8,14.28l1.52.23c1.29-5.6,2.35-11.26,3.93-16.77s3.66-11,5.62-16.52c1.88-5.28,3.89-10.52,5.84-15.77l.51.27-9.27,40.69,1,.28,8.93-24,.83.31q-4,18.91-8,37.83c2.43-4.79,3.39-10,5.4-14.83,1.86-4.42,1.49-10.42,7.73-12.57-1.24,5.63-2.46,11.14-4,17.92,8.38-10.42,10.36-19.69,8.25-37.36C628,996.51,627,1000,626,1003.56l-1-.29v-30.5l-1.79,2.41-1.17-.55c2.73-10.08,5.37-20.17,8.23-30.21,1.3-4.57,3-9,4.57-13.52l9-15.67c-.9,5.48-1.55,9.43-2.31,14,2-3,3.64-5.44,5.37-7.87,15-21.06,30.81-41.52,45.37-63,10.12-14.91,24.52-27,37.47-39.86,5.43-5.4,12-9.6,18.26-14.47-2.34-4.39-3.59-4.87-8-1.31-15.27,12.41-29.37,26-41.46,41.61-1.61,2.07-3.48,3.93-5.23,5.89,3.77-5.26,7-11,11.41-15.67,12.18-12.74,24.85-25,37.94-38a22.5,22.5,0,0,0-2.57-4.32c-2.63-3.07-5.48-4-9.52-1.59-18.78,11-36.71,23-50.74,40a2,2,0,0,1-1.88.73,28.44,28.44,0,0,1,1.72-2.68c12.16-15,26-28.09,43.69-36.49,4.39-2.08,8.17-6.93,14.13-4,.41.2,1.48-.94,2.17-1.4C749,799.12,757.09,812,762.2,826.6a6.15,6.15,0,0,0,3.93,3.16,375.66,375.66,0,0,1,65.24,21.68c11.48,5,22.24,11.66,32.91,18.41A431.23,431.23,0,0,0,763,831c.55,3.44.86,5.35,1.09,6.84,32.38,11.73,64.85,22.22,94.22,40a28.71,28.71,0,0,1,7.32,6.41c-14.73-9.85-31-16.55-47.09-23.42C802.6,854.05,786.3,848.2,770.17,842c-2.46-1-5-1.76-5.54,2.24-.39,2.74-1.51,5,2.94,6.26,29.19,8.13,56.49,20.71,82.61,36,4.31,2.52,8.84,4.69,13,7.42,1.52,1,2.28,3.17,2.63,5-3.54-2.38-6.93-5.05-10.65-7.1-27.26-15.06-54.74-29.65-84.8-38.62-5.69-1.69-6.77-1.48-8.82,4.16-.76,2.09-1.3,4.25-1.95,6.37l-1.52-.31c1.29-6.82,3.57-13.64,3.62-20.47,0-7.13-2-14.28-3.27-22-14.64,7.24-24.66,18.29-35.49,28.16-11.32,10.32-22,21.38-32.57,32.46-4,4.16-6.8,9.4-10.43,13.93-1.17,1.46-3.73,1.86-4.81,3.35-13.19,18.27-29.74,34.42-36.17,57a6.74,6.74,0,0,0-.26,4.13c2.37-4.68,4.89-9.29,7.09-14,3-6.52,6.52-12.55,13.29-15.89-4.51,7.88-9.06,15.75-13.51,23.67A26.47,26.47,0,0,0,644,958l1.33.66q14.58-22.53,29.17-45.07l-1.45-1c-1.51,1.92-3,3.85-4.52,5.75-3.2,3.94-6.42,7.85-9.64,11.78,2.16-3.48,4.06-7.16,6.52-10.42,25-33.18,54.12-62.35,85.78-89.1a6.86,6.86,0,0,1,3.2-1.46c-29.28,27.72-61.73,52.53-80.73,89.48,1.83-2.07,3.66-4.13,5.48-6.21a31.62,31.62,0,0,1,5.86-5.6l-14.16,23.59,1.66,1.29c20.47-38.41,52.6-66,84-94.32l1.08,1C745.33,849.91,732.71,861,721,873c-12,12.27-24.52,24.4-34,38.49-9.2,13.7-18.9,27.61-24.82,43.34l1.54.87L675,933.94l1.22.61-5.83,11.63c6.22-3.11,7.83-9.32,10.69-14.66,1.55-2.91,2.5-6.25,4.47-8.83A428,428,0,0,1,748,856.05a5.8,5.8,0,0,1,3.65-1.5c-6.69,6.19-13.54,12.22-20,18.61-6.64,6.54-12.91,13.44-19.34,20.18l0,0L698.67,909l3.58,1.4L691,925.29l1,.83,37.77-37.2,1.07,1c-.75.87-1.43,1.82-2.25,2.62C721,899.79,713,906.67,706,914.43a231.71,231.71,0,0,0-19,24.23c-4,5.73-6.61,12.35-10,18.88l26.72-31.82c.44,2.54.57,3.25.73,4.18l4.54-4,.16.16c-3.15,3.81-6.25,7.68-9.48,11.43-4.82,5.59-9.83,11-14.52,16.71-1.09,1.31-1.24,3.39-1.82,5.12l1.8.92,21.84-25.2.67.59-32.24,39.88h3.47c-5.87,10.81-13.5,20.44-15.75,34.16l22.48-36.76c0,.84-.08,1.69-.18,3.84l11.7-14.46.59.35q-3.15,5.77-6.29,11.55L686,988.63a15.79,15.79,0,0,0,3.85-5.3C691.19,980.46,693.8,977.75,691.34,974.22ZM309.83,1080.05c3.19-1.63,6.09-3.48,6.19-8.58-1.89,1.17-3.13,2.6-4.36,2.59-5.54,0-5.88.14-6.46,5.76.28.14.58.4.86.39,1.31,0,2.62-.18,3.93-.28a44.21,44.21,0,0,0-5.89,2.2c-2.83,1.49-3.06,3.14-.69,3.94l-5.55,5.84,1.19,2.08c3.16-1.18,6.49-2,9.36-3.7.92-.53.61-3.19.78-4.37l3.05-4.82ZM561.24,714.4c-.24,1.93.51,3.37,2.24,1.64,4-4,7.69-8.46,11.5-12.72l-1.09-.92-6,5.67a44,44,0,0,0,3.17-4.82c1.81-3.69,3.41-7.49,5.1-11.24.77-2,1.53-4,2.5-6.54l-3.53,1.16c.5-1.21,1-2.3,1.89-4.52l-6.61,2.56c1.25-2.1,2.47-4.17,4-6.81l-2.54.34c.66-4.87,1.32-9.79,2-14.65l-2.67.16c5.48-3.61,9.65-8,14.56-9.08a20.39,20.39,0,0,0,9.3-4.35l-6.92-2.9c0-3.51.15-6.75-.13-10-.06-.56-1.93-1-3-1.44l4.22-5.24-8.44,3.33L591.47,625l-.71-.93L582,630c-2.63-8.1-5.5.89-8.21-.94l-4.11-15.7c-.91,5.9-.8,11.69-1,17.46,0,1.43-1.06,2.83-1.63,4.25l-.78-11.64-1.89.05-1.8,13.5,4.66-2.09c-3.23,3.78-5.86,8.36-12.15,8.39,6.05-2,5.77-7,6.71-11.76,1.62-8.25,3.81-16.41,6.14-24.51,1.41-4.9,3.54-9.59,5.34-14.38l-1.57-.57c-4.17,11.18-8.35,22.37-12.4,33.24-2.79-3.29-.81-7,.19-10.8.26-1-.61-2.22-1.27-4.28l4.19-2.55-3.72-.91,4.44-9.09h-4.35l4.32-5.8c-4.6,1.14-7.6,1.89-10.58,2.61,2.76-1.23,5.62-2.29,8.26-3.75,1.75-1,3.81-2.19,4.63-3.85,1.77-3.6,2.83-7.54,4.33-11.78h-3.84a11.45,11.45,0,0,1,1.09-.89c2.16-1.4,5.17-2.3,6.26-4.28s.63-5.22.52-7.89c0-.38-1.81-.68-2.78-1l5.11-4.75-4.51.57c2.75-2.92,7.65-3.69,7.34-8.61-8.73,3.39-17.09,6.46-25.28,9.93-2,.85-3.42,3-5.11,4.57l1.11,1.46c5-3.85,11.09-4.17,16.94-6l-3.19,6.37,6.75-2.85c-3.38,2.53-6.26,6.1-11.2,5.39l4.13-5.08-1.26-1.64-29.21,13.18c4-2.89,8.1-5.68,12-8.75.64-.5.31-2.2.51-4.09l4.7-4.52-1-1.12-4.83.77,5.3-4.19-5.18-1.38,10.28-4.4-.79-2-11,4-.25-.66,11.91-6.1-.75-1.63-12.1,4.65c-4.76-5.67-11-7.14-17.86-7.23-.88-4.65-4.65-4.8-10.06-.35l3.64.81-8.39,4,.28.75,15.38-3.67-1.09,5.28-4.64.7,22.57,7-.49,1.77c-5.84-2.75-11.7-5-18.39-1.28l10.87,4.48-.41,1.05L526,557l10.57,6.56-16.32,8.19.57,1.31,12.77-4.83.35.81-10.58,5.36.73,1.64,7.5-2.79L529.2,578c-3.32,5.16,1.38,3.91,3.34,3.72,6.85-.68,13.65-1.79,20.47-2.73,1,4.13-3.47,3.79-4.92,5.92l.16-.17-3.24.64,2.54-2.86L547,581l-17.51,3.7,8.07,9.63,6.1-3L535.85,586l17,4.59.36-1-6,3.14,5.33,1.74-6.31,3-.3-.77c.6-.81,1.21-1.61,2-2.61-1-.41-1.64-1-2.15-.88-3.35.78-6.67,1.71-10,2.58-2.73-5.1-6.16-7-11.46-6.31.56-.68,1.18-1.41,2.17-2.59l-4.6.88-.18-.62,3.84-2-11.23-9.89L507.68,580l7.51,4.76c-7.75.42-9,1.87-7.1,9l4.78-.5.24,1.39-4.74,1.2c-.22,3.65-.42,6.75-.6,9.7l5.83-.57c-.72,1.59-1.28,2.81-2.18,4.74l3.06-1.05c2.08,6.45,4.14,12.87,6.26,19.46,1.48-.38,3.38-.92,3.39-.88,1.31,4.17,4.89,2.3,8.59,2.93l-7.06,10.65L539,634.58,534.72,641l4.26-.36c-.65,1.55-1.2,2.89-2,4.9,3.26-1.11,6.08-4.1,8.23-1.39,1.7,2.13,1.82,5.53,2.84,9.08l24.1-17.29.48.74-19.82,15.9,1.08,1.43,8.65-5.23-3.4,3.83a18,18,0,0,0,6.52-3c3.54-2.24,7.1-4.46,10.66-6.69-4.61,3.49-9.38,6.78-13.78,10.52-3.47,3-6.48,6.44-9.69,9.69l1.1,1.18,7.92-6.69.79.93-8.26,9.39.92,1.08,8.09-4.72c-3,3.38-6.34,6.44-10.26,8.08-4.39,1.84-9.35,2.33-14,3.57a27.34,27.34,0,0,0-4.38,2c-.21-.6-.42-1.2-.64-1.8,4.84-1.47,9.74-2.78,14.48-4.51,1.71-.62,3-2.27,4.55-3.44-.33-.43-.65-.87-1-1.3l-5.52,1c1.51-2.74,6.59-3.13,4.31-7.73l5.2-3.54c-9.69-.89-15.46,7.33-24.08,8.73l18-10.82-.3-.76-7.65,2.46,4.6-5.59-7.31,1.28,3.89-5.49-.74-.78-10.39,8.5-.63-.78,6.35-5.51-.85-1.22-14,8.07q.68-4.92,1.47-10.64l-3.83.88a10.25,10.25,0,0,0,.21-3.18c-.08-.36-1.94-.76-2.09-.54a4.82,4.82,0,0,0-1,2.89,55.15,55.15,0,0,0,1.18,5.69l-5.82,3.7c2.88,2.5-1.19,3.67-1.11,5.74.15,4.08,1.15,8.33-1.35,12.17a21.54,21.54,0,0,0,1.7,1.34l-4,5,4-.72c.62,5.67-.18,11.49,4.89,15.46l-2.82,3h5.13c-2.71,3-7.87,3.19-9.36,8.72l8.23-2.26c-2.43,1.83-4.23,3.18-6,4.54l.63,1,4.86-1.45c-.82,1.39-1.41,2.39-2.46,4.19l5.66-1.71c-1,1.43-1.59,2.31-2.19,3.19l.56.75,11-5.8.42.82-6.76,4.56.55,1.12,7.84-3,.28.52-9,6.31.72,1.42,10.33-4.64c-1.85,3.55-8.12,3.16-6.56,7.73l5.15,2.29c3.63-1,7-2,10.46-2.9,6.39-1.65,12.05-4.31,15.39-10.45l-1.75-1.3L568.17,701,543.56,730c.7-.31,2.38-.6,3.41-1.57C551.83,723.83,556.5,719.08,561.24,714.4ZM704.05,399c1.68,2.16,3.19,4.48,5.06,6.45,3.13,3.3,6.49,6.38,9.75,9.55l1.31-.11c-.2-1.18,0-2.75-.67-3.5a86.63,86.63,0,0,0-8.85-8.71c-1.91-1.59-4.44-2.42-6.7-3.59-9.19-8.83-18.34-17.72-27.61-26.48-2.33-2.19-5-4-7.57-5.94l-.36.51,22,20.55-1,1L682,382.67l-.83,1.06a157.36,157.36,0,0,0,14.51,15.14l1.31-1.16c-.54-1.4-1.09-2.8-1.81-4.64Zm-103.69,356c.63-3.75,2.66-6,6.59-6.41a16.67,16.67,0,0,0,6.22-1.49c3.76-2.11,7.24-4.73,10.84-7.14,1.83-1.08,3.89-1.92,5.46-3.31,2.83-2.49,5-5.88,8.1-7.9,13.25-8.62,27.07-16.39,39.89-25.59,3.21-2.3,6.17-4.56,9.84-5.94.17-.07.22-.44.69-1.44l-21.33,6a56.36,56.36,0,0,1,9.22-4.47c5.31-2.07,6.67-3.11,7.67-6.26l-20.39,8.62c6.2-5.3,15.29-6,20.66-13.19-3.63.57-7.4,2.39-9.9,1.3-4.9-2.15-8.45-.15-12.41,1.63-1.33.6-2.72,1.07-4.08,1.6l-.07-.45,11.09-7.17-.77-1.4-11.87,3c6.39-3.91,6.73-5,3.47-11.29l-18.93,5.07L640,677.4c3.44-.79,7-1.33,10.28-2.44a51.11,51.11,0,0,0,8.38-4c.49-.27.36-1.63.52-2.48a7.21,7.21,0,0,0-2.51.07c-2,.89-4,2-6,3l-.38-.71,4.46-3.4c-4-3.66-7.14-.45-10.61,1.17s-6.93,3.11-10.39,4.64l5-3.94c-9.56,1.8-16.69,5.44-18.74,9.09l13.93-5.31-1.42,1.61,3.29.94-8.6,5.7.47.83H635c-3.11,1.25-6.43,1.22-9.49,2.11s-5.63,2.69-8.44,4.09l.65,1.67,14.11-2.43.31.72L619,695.51c.2.5.41,1,.61,1.51l30.34-4.56a31.94,31.94,0,0,1-5.52,2.17c-7.89,2.39-15.8,4.72-23.68,7.15-2,.62-4,1.53-5.92,2.31L623,698.3l-.19-.59-14.1,3.37-.31-.79L622,691.68l-.46-.81-23,3.35c2.25,2.5,6.79-.89,7.06,3.93l-8,3.31.4,1.29,9.38.48-11.9,7.27.65,1.72,11-2.34-12.72,7.63.71,1.27,1.78.56-9,7.24.8.95,4.52-4,.51.52-2.42,4.16,5.23-1.13-17.18,21.52,1,1c.73-.31,1.72-.43,2.13-1,3.68-4.86,7.19-8.94,14.24-10,8.32-1.28,16.29-4.94,24.41-7.57l.71,1.15c-1.71,1-3.31,2.42-5.15,2.89-3.52.91-7.28.93-10.78,1.92-11,3.13-21.36,7.32-26,20.19,2.48-2.44,4.32-4.45,6.38-6.21s4.26-3.21,6.37-4.78l-14,16.64,1.44,1.32c2-1.67,5.39-3.15,5.64-5,.55-4.21,3.43-4.91,6.23-6.22l-7.65,11.25,2.77-.56-2.05,3.9.89.74,24.81-17.77-.75-1.13ZM568.74,536.3c2.34-1.38,4.64-2.82,7-4.11,3-1.65,6.15-3.19,9.23-4.77l-.89-1.65-18.72,9.09.31,1,3.21.31c-1.4.49-2.95,1.57-4.14,1.26-.78-.2-1.51-2.42-1.46-3.71.17-4.39-2.62-5.25-6-5.46a15.88,15.88,0,0,0-3.39.46c.9-1.09,2.21-1.25,2.92-2a29.23,29.23,0,0,0,3-4.31c-1.66-.48-3.33-1.38-5-1.36-2.1,0-4.19.79-7.42,1.48l6.09,8.71-1.88,2.41,5,.67c-2,3.08-.91,6,2.52,7l-4.45,4.24,5.42-.59-9.85,5.22.78,1.67,15.31-5.61-.39-1.47h-2.54l5.13-3.24-2.79-1.2,5.54-2.71c-.39,1.92-.68,3.29-1.2,5.8l11.58-5.27.19.46L570.77,545l.37.53,17.77-6.34-7.68,4.11.48,1.36,10.2-3.17c2.16,9-1.43,18-1.07,27.27.5,12.66-3.45,25.5-5.51,38.27-.79,4.86-1.63,9.71-2.64,15.69l8.3-4.94-5.15-1.43c2.55-12.69,5.06-25.22,7.57-37.75l1.19.24-.63,9.71a2.16,2.16,0,0,0,1.53-1.5c3.17-10.8,6.67-21.52,9.28-32.45.86-3.6-.61-7.75-1-11.65l-1.44.19c-.45,4.06-.74,8.15-1.39,12.18-.33,2.09-1,5.62-2,5.83-4,.8-3.08,4-3.93,6.3a40,40,0,0,0-1.27,5.71l-1-.2q1.71-8.77,3.41-17.57l-.83-.22-2.59,6-.58-.19c1.52-6.27,3-12.54,4.81-19.81.28,2.11.44,3.25.63,4.66,3.32-3.87,1.77-6.88-.94-9.82l-6.32,2.82,5.5-5H584.71l1.3-3.28ZM582.86,877l9.75,8.84,4.62-3.76-.67-.8-4.88.79,4.91-4.39L596,877l-5.14,1.1,6.5-5.31-14.66,4.46c3.34-2,6.6-4.22,10-6.05s4.32-4.48,3.5-9.06c-6.12,3.3-11.74,6.29-17.33,9.36-8.55,4.71-17.07,9.48-25.64,14.17,0,0-.51-.8-.77-1.23,13.06-7.24,26-14.64,39.23-21.63,4.61-2.44,5.9-5.76,5.27-11l-27.2,13.68-.67-1.28,28.17-14.83-1-1.94-25.77,11.77-.57-1.22c7.11-3.54,14-7.58,21.39-10.46,7-2.74,8.35-8,9.09-14.72l-19.83,9.57L580,841c6.45-3.38,12.94-6.7,19.32-10.21,1.25-.69,2.08-2.15,3.1-3.25l-1.06-.94-17.58,8.78c5.85-6.17,14.67-7.95,20-14.65-6,2.59-11.43,6.59-17.49,8.41-5.35,1.61-6.54,6.14-9.27,9.42-2.38,2.85-3,7.16-4.39,10.7l24.33-11.15c-7.38,5-15.27,8.84-23.09,12.83-1.88,1-4.08,2-5.15,3.65-2.31,3.52-3.78,7.57-6,11.19-3.4,5.63-6.64,11.46-12.79,14.8a34.57,34.57,0,0,0-4.69,3.65c1.94,0,3.32-1,4.85-1.36.67-.16,1.63,1,2.43,1.52l-7.23,3.29c11.19,1.76,18.82-6.11,28.26-9.14A90.62,90.62,0,0,1,562.47,886c-8.08,4.57-17.33,7-23.53,14.9-2.05,2.59-3.64,4-.71,6.72l-8.81,5.66c13.52-6.71,28.78-9.57,41-18.77-4.62,1.3-8.84,3.45-13.13,5.46-4.09,1.92-8.25,3.7-12.38,5.55l-.57-1.37c8.33-5,18.06-7.63,25.69-13.81-.28-.56-.55-1.13-.83-1.69l-24.11,10.55c-.18-.39-.37-.78-.55-1.16,4.32-2.29,8.68-4.52,13-6.87C566,886.49,574.42,881.76,582.86,877Zm9.89-68.65c.57-.9,1.13-1.81,2.46-3.95-3.72,1.33-5.91,2-8,2.88-17.92,7.49-35.94,14.77-53.69,22.67-7.33,3.26-8.78,12.92-3.73,20.27,14.34-9.16,31-14,45.19-23.6l-.82-1.62-41.2,19.77-.58-1.15c16.36-9.12,33.75-16.25,50.66-24.3l-.94-2L529,841a15.53,15.53,0,0,1,4.86-3.56c16.24-7.2,32.6-14.15,48.74-21.58,3.76-1.73,6.82-5,10.2-7.55Zm-54,235.16q-2.52,8.13-5.06,16.24l1.46.41,1.33-3.35,3.44,1.53c-2.08-5.17-.45-10.87,2.74-12.73,8.35-4.88,14.12-11.2,14.51-21.84.35-9.47-.68-19.1,2.54-28.46,1.49-4.34,1.26-9.27,1.8-13.78,2.67-1.32,6.16-2.15,8.23-4.33s2.64-5.63,4.08-9c-3.74-.11-5.67-.35-5.41,3.48.2,2.77-1.83,4.73-5.26,4.64-3.2-.09-6.62-.19-9.56.83-1.58.54-2.35,3.41-3.49,5.24,3.11,1.47.55,3,0,4.49-1.43,4.27-3.79,8.56,1,13.82a49.9,49.9,0,0,1,5.62-20.64l1.82.51q-1.3,8.61-2.62,17.2l-.78,0-1.16-4.09c-.61,3.6-1,5.81-1.36,8l-1-1-7.15,5.28,1,1.4,4.63-2.39c-.52,1.79-.9,3.14-1.37,4.76l3.63-1.29c-1.37,2.19-2.36,3.75-3.36,5.34l2.66.84-11.3,7.62.77,1.12,4-1.37c-.34,1.07-.55,1.73-.84,2.62l4.93-.94c-3.06,5.34-5.76,10-8.45,14.75-.63-.65-1.62-2-1.83-1.83-2.38,1.33-4.64,2.87-7.19,4.52l3.81,5.12ZM549.05,808l.77,1.28,41-16.2a12.13,12.13,0,0,1-4.66,3c-13.33,5.61-26.75,11-39.95,16.92-3.46,1.55-6.26,4.59-9.36,7l.66.63,57.21-24.42a40.44,40.44,0,0,1-9.81,5.85c-15.46,6.93-31,13.76-46.39,20.76-2.24,1-4.17,2.74-6.24,4.14.94.69,1.42.68,1.83.51q31.3-12.2,62.59-24.47a7.69,7.69,0,0,0,2.2-1.86c6.89-6.75,13.42-13.92,20.73-20.17,13-11.12,26.59-21.62,39.83-32.51,9.39-7.71,18.42-15.87,28-23.36,7.46-5.84,15.55-10.87,23.23-16.43a6.69,6.69,0,0,0,2.66-4.15,30.93,30.93,0,0,0-.62-7.94c-1.22-7.32-5-8.8-11.19-4.61-7.17,4.82-14.36,9.62-21.62,14.3-4.75,3.07-9.86,5.6-14.45,8.88-18,12.87-36.15,25.53-53.61,39.09a393,393,0,0,0-34.06,30.18,38.34,38.34,0,0,1-8.63,6.33c-1.87,1-3.7,2.18-5.54,3.27l.46.69,3.48-.43-12,7,3,1.27Zm133.82,69.6c-.68.46-1.17.63-1.42,1-11.62,16.6-26.78,30.81-34,50.39-.43,1.17-.9,2.31-1.36,3.47a18.74,18.74,0,0,0,4.63-4.65c18.58-24.81,37.53-49.29,60.76-70.06q19.17-17.15,38.44-34.16c2.87-2.54,11.1-3.53,2.21-8.91a.5.5,0,0,1-.19-.42c2.15-5-2.93-4.79-5-7.5-21.87,17.35-42.38,35.55-57.44,59.18,9.78-8.17,18.61-17.35,27.9-26,9.49-8.88,19.45-17.26,29.21-25.86l1.29,1.38c-23.28,21.27-49.6,39.64-66.25,68.58C682.16,881.28,682.49,879.58,682.87,877.56ZM489.16,645.48c-1.24,4.39-2.47,8.77-3.89,13.82l5-3.52c-.3,3.19-.55,5.93-.79,8.47l4.43,1.58-1.55,3c.95.91,1.85,1.37,2.07,2,.59,1.87.48,4.07,1.43,5.69,1.2,2.08,2.47,10.1.91,11.64-2.44,2.41-5.19,4.52-7.83,6.72s-5.06,4.18-7.6,6.26l1.35,1.7,15.06-11.42.89,1.15L487,702.71l.74,1.2,8-4.33.27.31-6.29,6,6.67-2.47c.13,1.87.26,3.62.39,5.38l1.28.23c1.19-2,2-4.57,3.66-6,3.39-2.94,4.88-6.28,4.23-10.67-.61-4.1-1.29-8.21-1.73-12.33-.22-2.11-.52-5.9.17-6.14,3.71-1.27,2.48-4.37,2.62-6.46.53-7.69,6.28-14.88,1.65-22.91l4.44,2c-2.37-6.1-5.49-11-7.86-16.22-4.22-9.27-4-9.35-11.23-2.26-.91.9-1.94,1.68-3.36,2.9l1.94.35c-1.83,4.79-3.7,9.68-5.86,15.3Zm-30.78-42.66,6.22,2.54-.32.58,18.56,2c.22.85.53,2,.83,3.2,1.84-.5,5.24-1,5.26-1.52.13-3.47.25-7.29-1.08-10.37-1.68-3.88-5.66-5.28-10-4.82-3.59.38-7.61,1.56-7-4.56,0-.17-1.41-.47-3.54-1.16,6.82-2,13.7.37,18-5.39l-2.07-.78,6.6-4.79-.46-.61-3.72.6,4-3.4-.32-.5-8.09,2.94,1.53-2.35-5.62-.65,5.6-4.66-.67-1-13.31,5.39-.25-.43,10.53-8.48a2.79,2.79,0,0,0-2.66.25c-4.05,3.52-10,4-13,9.83-1.55,3-6.89,4-10.46,6.08-.63.36-1,1.22-1.45,1.84l1.23,1-8,7,7.82-1.55-6.43,4.4.44.71,2.32-.24-2.76,3.5,7.45,2.93-3.45,2.52.55.71,12.68-5,.2.47Zm125.47,68.52-.51-1.13c-.73,2-1.45,4-2.29,6.37,1.39.78,3,2.43,4.2,2.22,4.5-.77,8.94-1.52,12-6a32.47,32.47,0,0,1,9.18-8.6c11.23-7.09,20.6-15.5,24.06-29,1.11-4.34,2.79-8.57,3.54-13,2.18-12.72,5.63-25.66-4-37.18a4.32,4.32,0,0,1-.62-1.88c-.92-5-4.54-6.84-9.07-8.06l-1.89,4c.88,1.39,1.37,2,1.72,2.73,1.16,2.39,2.18,4.84,3.43,7.18,4.09,7.69,5.6,16,6.34,24.58.07.81.26,1.9-.15,2.44-3.24,4.18-3.52,9-3.73,14-.06,1.46-1.11,2.88-1.71,4.32s-1.06,2.61-1.62,3.9c-1,2.19-1.59,4.61-3,6.49a47.7,47.7,0,0,1-6.68,7.24c-2.78,2.5-5.58,5.3-8.9,6.78s-7.45,1.59-12.49,2.53l5.55,2L591,665l4.42,1.76Zm198.6,94a12,12,0,0,1-1.82-.42c-14.22-5.79-28.83-10.13-44.19-11.42-2.56-.21-5.22.88-7.83,1.36l.13,2.05c20.06,2.8,39.79,6.86,58.48,15.51-3-17.84-14-26.34-29.78-30.18-7-1.71-8.71-1.81-12.81,1.65,11.53,2.44,22.28,6.35,31.8,13.17a40.75,40.75,0,0,1-5.86-2.08c-8.73-3.12-17.49-6.15-26.23-9.22-5.42-1.89-7.65,1.8-10.4,5.7C750.94,754.47,768,755.41,782.45,765.39ZM544.16,1062.84l2.26,1.72c5-7.85,10.56-15.44,15-23.6,10.46-19.07,19.52-39,30.88-57.46,7.52-12.25,10-25.32,12.26-38.88-15.83,23.63-31.31,47.42-40.52,74.61l34.54-58.4,1.59.89c-1.21,2.07-2.46,4.12-3.63,6.21-13.76,24.6-29,48.45-37.83,75.53a12.2,12.2,0,0,1-2.12,3.25Q550.41,1054.79,544.16,1062.84Zm-7.72-193.65-.87-1.22c3.71-2.48,7.53-4.78,11.08-7.47,3.32-2.51,6.34-5.43,9.49-8.16L555,850.8q-10.19,5.51-20.35,11l-.61-1.11,32.15-19.17-.88-1.64-31.4,16.18-.61-1.22,37.17-20c-1.14-1.5-1.72-1.92-2-1.77-12.49,6.21-25,12.43-37.35,18.82-.77.39-1.36,2.33-1.11,3.33,1.58,6.37,3.41,12.67,5.31,19.53l12.06-10.52-1.08-1.35ZM345.65,1066.43c.27,8.09-6.52,13.69-5.84,21.72a10.4,10.4,0,0,0,4-4.43c4.85-11.43,9.94-22.78,14.11-34.46,1.76-4.92,1.49-10.56,2.15-15.87l-2.44-.69-16.89,34.89Zm227.8-450.2,1.09.08V628l6.72-5.74-.93-1-3.24.35,5.07-4.78-6.57.91,4.63-4.89c-4.18-5-4.51-7.49-3.12-14,1.85-8.57,3.39-17.21,4.95-25.84.5-2.77.66-5.6,1-8.4l-1.31-.27-2.19,6.34-.87-.28q1.89-8.18,3.79-16.36l-2.07-.43c-1.87,8.61-3.75,17.22-5.89,27.09l2.88-3.47c-2.32,13.74-6,27.16-4.68,41.17Zm-24.76,460c1.79-1.69,3.32-2.73,4.31-4.15,1.71-2.45,3.1-5.11,4.58-7.71,2.31-4.06,5.23-7.91,6.79-12.25a371.39,371.39,0,0,1,33.13-68.61c.79-1.29.94-3,1.39-4.47l-1.51-.81a73.13,73.13,0,0,0-4.34,6.62c-12.08,23.52-24.48,46.86-33.27,71.94C557.49,1063.35,552.88,1069.06,548.69,1076.27Zm21.86-85.15,1.33.9c.83-1.08,1.75-2.11,2.48-3.25,11-17.22,22-34.4,32.82-51.7,2-3.27,3.24-7.05,4.83-10.6l-1.13-.56A516.09,516.09,0,0,0,570.55,991.12ZM809.46,482.83l1.14-1.28a31.81,31.81,0,0,0-3.44-3.24c-15.87-11.15-29.9-24.31-43.06-38.51-2.88-3.1-7.2-4.86-10.86-7.24l-1.32,1.3c2.86,3.88,5.59,7.86,8.66,11.56.75.91,3.13,1.64,3.9,1.14,2.73-1.79,3.85.19,5.35,1.63,7.57,7.24,15,14.7,22.79,21.65C797.91,474.54,803.83,478.53,809.46,482.83Zm-274.1,34.22-.81-.5-6.09,4.89.44.77,5-.67-1,2.55,4.28-.43a6.55,6.55,0,0,1-4.7,2.78,59.63,59.63,0,0,1-8.19-.68c.21,8.16,2.88,10.46,9.19,8.88-.78-1.55-1.56-3.07-2.55-5l6-2.17-1.4,4.86,12.23-4.56c-4.78-3.71-6.52-10-13.44-8.56C534.67,518.41,535,517.73,535.36,517.05ZM693.61,803l36.28-24.45c-2.09-.76-4-2.17-5-1.68-6.88,3.43-14.22,6.45-20.11,11.21C700.11,791.88,697.26,798,693.61,803ZM526.35,920.43c.2.4.41.8.61,1.21l43.33-20.93.49.92-11,6.52.92,1.58,14-7.63c-1.36-4.34-3.41-4.45-6.41-3-6.56,3.17-13,7.4-19.95,8.8C539.19,909.74,533.83,916.6,526.35,920.43ZM675.72,633.51l1.75.45q5.26-20.61,10.54-41.19c6.52,1.57,1,6.6,3.31,9.63v-13c-7.7-.91-8-.94-9,6.24-.8,5.52-.4,11.23-1.39,16.69C679.64,619.49,677.5,626.47,675.72,633.51ZM602.56,923.33c-5.53-.24-10.37,3.55-11.23,7.94a6.93,6.93,0,0,1-1.16,2.65c-4,5.44-8.09,10.83-12.15,16.24.4.45.79.9,1.19,1.34,1.58-.58,3.8-.68,4.64-1.81C590.11,941.19,596.11,932.5,602.56,923.33Zm37.54,59C645.61,967,658,955.05,662,938.13,650.07,951.14,644.35,966.39,640.1,982.34Zm37.65-403.22.65-1.67-6.94.59c.81,1.47,1.71,2.9,2.38,4.43a8.56,8.56,0,0,1,.29,2.46c.5,4.29,1,8.57,1.6,13.81l2.58-4.44.71.22q-.56,4.15-1.13,8.31c4-6.49,2.88-13.31,1.67-20.11C679.34,581.45,678.37,580.32,677.75,579.12Zm-57.18,473.24,1.77.43c3.37-14.61,12.49-27.66,11.07-43.57-.85,5-1.71,10-2.64,15.41l-3.18-2.17C625.18,1032.73,622.87,1042.54,620.57,1052.36ZM455.26,687.2l.59,1.51c4-1.5,8.41-2.36,11.76-4.75,2.12-1.51,4-5.52,3.53-8-.52-2.93-8.08-1.77-10.35,2l6.4-.85-17.39,8.94.44,1.32,16.36-5.94.31.84ZM489,684.06l-7.78,6.29.35.71,7.86-1.8-7.21,5.09,1.42,2.78,9.68-7c-.54-4.89-.92-8.37-1.36-12.31l-9.27,6.24ZM319.82,1090c.43.55.85,1.1,1.28,1.64,2.84-1,6.6-1.23,8.31-3.22,2.61-3,1.9-8,4.92-11.36-4.11.1-8.34-1.11-10.09,3.62-.3.84.66,2.14.74,2.39C323.27,1085.36,321.55,1087.68,319.82,1090Zm308-530.43,1.48-.61c3-10.06-8.8-9.82-11.36-16l-1.5.77,10.29,24.6,1.36-.45-3.45-13.59,1.34-.36C626.63,555.8,627.25,557.68,627.86,559.56ZM612,549c0,14.49.79,17.16,8.45,19.67-1.76-8.47-3.52-16.93-5.5-26.49-2.36,2.21-3.58,3.34-5.15,4.82,6.81,2,5.8,7.63,6,12.66C614.67,556.57,613.54,553.44,612,549Zm13.17,509.54,2,.53c2.7-13.94,9.46-26.81,11.08-41l-2.34-.62ZM474.78,921.9a55.27,55.27,0,0,0,29.93-6.56l-.31-1.25-18.21,4-.11-.69,3.23-1.75c-.24-.44-.47-.88-.7-1.32ZM642.21,597.41a101,101,0,0,0-7.87-41.15l-3.81,3.39C636.68,571.28,642.22,583.4,642.21,597.41ZM579,1085.09l.87.27c4.9-13.55,9.87-27.09,14.6-40.71.41-1.2-.8-3-1.25-4.46l-1,.26ZM614,796l-1.19-1c-3.27,3.81-6.68,7.51-9.78,11.46s-5.76,8-8.62,11.94l.52.61,12.91-7.23-.53-1-6.66,2.81C605.61,807.14,612.63,803.64,614,796Zm-33.68,261.71,1.69.6c4.36-12,11.14-23.09,13.07-35.93l-1.87-.67Q586.76,1039.66,580.32,1057.66Zm90.15-404.09-1.2-.35q-1.89,7-3.76,14l-.72-.22-.25-4.81-1.89,0c-.29,6.23-.59,12.46-.88,18.78,4,.33,6.33-.23,5.07-4.53l-2,.26C666.7,669.11,668.59,661.34,670.47,653.57Zm-113,384.78c-9.21,7.79-19.28,24.53-19.47,30.81Zm29.83-152.41c-1.72-4.81-5.16-3.92-8.35-3.08-4.18,1.09-5,4.52-4.76,8.19.27,3.28.62,7.13,4.86,7.62,3.25.37,6.4-.64,8.08-4.61-3.84.05-8.08,4.85-10.5-1-.68-1.63-.15-4.8,1.07-6C580.25,884.71,583.34,881.15,587.34,885.94Zm58.17-298.52c1.16-1.95,2.24-2.91,2.15-3.74Q646,569.4,644,555.17c-.08-.56-1.49-.93-2.28-1.38C647.32,564.39,643.4,575.57,645.51,587.42Zm-61.66-7.06.78.26c1.38-3.48,3.26-6.86,4-10.48.67-3.27,0-6.8.1-10.21a61.69,61.69,0,0,1,1.11-6.81c-2.64,2.3-8.31.67-5.34,5.61,2.41,4,1.83,7.54,1.23,11.41C585.2,573.56,584.48,577,583.85,580.36ZM494.24,924.24l-.33-1.76c-9.22,2-19.05.83-27.86,4.82l.35,1.77Zm48,149,.16,1.35c1.19-.47,2.73-.63,3.51-1.48a53.25,53.25,0,0,0,7.13-8.86c2.23-3.87,3.67-8.19,5.46-12.32l-1.22-.53C551.72,1058.28,550.1,1067.93,542.24,1073.22ZM628.07,962.7l1.9.52L637.62,937l-2.29-.64Zm26-377.53c3.78-6.52,6.8-13.14,1.51-21.67C655,571.61,654.51,578.39,654,585.17ZM483.47,678.79l.89,1.7,9.09-5.38-.75-2.21c-5.54,2.6-12.45-2.19-18.21,4.91L489,675.48ZM687.15,978.71c-7.37,6.77-8.66,16.11-10.37,25.3Q682,991.37,687.15,978.71ZM665.59,578l-.9.12c.94,8,1.89,16,3,25.48,1-5.64,2.63-10.09,2.27-14.38C669.65,585.35,667.14,581.69,665.59,578ZM586,1085c2.87-7.54,5.75-15.07,8.58-22.63a8.69,8.69,0,0,0,.21-2.3C589,1067.41,587.44,1076.23,586,1085Zm55.56-100.76,2.16.85L654,962.26l-1.59-.71Zm-73.7-434.85c-7.55-.9-16.44,3.31-16.33,8.1C556.82,554.61,563,554.42,567.83,549.43ZM550.89,973.24l14.1.7c.2-1,.47-2.41.65-3.32L554.69,968Zm-94.81-34.09.26,1.76c8.58.25,16.81-1.89,25.07-3.85l-.21-1.43ZM298.55,1071.74c7.5.77,10.39-1.74,10.92-9.23l-5.08,4.36-1-4.2Zm375.66-72.65-1.47-.6L665,1017.27C674,1012.76,671.67,1004.92,674.21,999.09ZM657.33,623.76h-1.46c.66,6.35,1.32,12.7,2.11,20.25,1.33-3.8,3.16-6.45,2.89-8.85C660.42,631.28,658.58,627.56,657.33,623.76ZM452.23,935.47l.06,2,23.59-2.71c-.06-.61-.13-1.22-.2-1.84Zm119.21,58.32-1.87-.83q-5.52,12.78-11,25.58l1.31.58ZM721.31,404.68l-.42.47,16.34,17.54,2-2ZM478.89,941l-.26-1.46-19.86,3.62.42,2.27C466.05,945.52,472.41,943,478.89,941Zm-3.58-11.12c7.58,2.61,17.86.4,21.6-4.2Zm190.55,111.78c4.69-5.79,6-12.37,4.79-19.63a12.61,12.61,0,0,0-2.86,6.25c-.33,2.11.25,4.36,0,6.48A55.12,55.12,0,0,1,665.86,1041.67Zm-328.74,28.6c-7.92-1-9-.38-10,5.37C333.78,1076.23,336.19,1074.93,337.12,1070.27Zm340.35-53.75,1.43.83L689,993.19l-1.79-.73Zm-161.26,60.14c-7.16,4.66-6.8,7.75.1,10.71,1-2.39,2.05-4.77,3.24-7.55l-5.43,2.12C514.9,1080,515.55,1078.31,516.21,1076.66Zm-196.59,8.85c-6.74-.7-8,.2-9,6.19C316.67,1092.27,318.17,1091.24,319.62,1085.51ZM602.46,689c11,1.51,13.7.06,13.29-5.42Zm31.46,386.87,1,.27,7.56-27.7-1.71-.44Q637.35,1062,633.92,1075.89ZM600.18,899.47c-.26-.59-.52-1.17-.79-1.76l-18.3,7.88c.29.66.58,1.32.88,2Zm5.22,169.8,2,.12,3.75-23.61-1.26-.21Q607.65,1057.42,605.4,1069.27ZM316.92,1077c7,.46,8-.31,8-5.74C320.19,1070.33,317.33,1071.86,316.92,1077ZM613,903.28l10-14.32C617.53,889.74,613.2,895.93,613,903.28Zm-30.05-2.45c.28.59.56,1.17.83,1.76l16.68-7.47-1-2.07ZM448.59,931.71c.07.82.15,1.64.23,2.45l19.6-2.24-.11-1.28Zm35.94-298.38c-.65-.7-1.3-1.41-1.94-2.12l-13,12.21C474.41,639.84,480.93,638.32,484.53,633.33Zm128.07,262c2.56-4.14,4.71-7.61,6.87-11.08C611.77,885.49,610.78,884.49,612.6,895.34ZM678.69,637l2.13.68,3.86-14.16-1.59-.48C679.35,627,680.24,632.38,678.69,637ZM552.07,538.62l-.28-1-8.09,1.94-.08-.47,7.51-3.27-.62-1.33c-2.69,1.09-5.45,2-8,3.36-.76.38-1,1.8-1.46,2.75,1,.33,2.05,1.14,2.86.92C546.67,540.72,549.35,539.6,552.07,538.62Zm12.47,453.59,2,1,6.25-12-1.89-1Zm78.71-114.3-1.72-10.73-1.92-.11c-.19,2.65-.88,5.4-.37,7.92C639.49,876.22,641.94,877,643.25,877.91ZM609.92,565.49l-1-16.32-1.12,0-.77,13-1.3.2ZM607.63,915.4c-4.86-1.32-7.1,1.1-8.64,5.22C604.54,922.89,605.91,919.09,607.63,915.4Zm-35.6,62,1.83,1.27,7.25-11.62-1.94-1.26ZM692.55,382.15l-1.22,1,13.9,13.34.33-.28ZM322.39,1078.64c-4.16.38-7.95-.23-8.51,5.24C317.74,1084.09,321.36,1084.59,322.39,1078.64ZM646.71,864.53c-.78,1.42-1.6,2.31-1.74,3.29a32.24,32.24,0,0,0,0,5.56s1.59.23,1.66,0a37.68,37.68,0,0,0,2-6.25C648.74,866.57,647.62,865.73,646.71,864.53ZM578.33,960.4,577,959.08c-4.51-.2-5.52,3.15-6.7,6.33.47.48,1,1,1.42,1.45ZM466.15,688.91l-.61-1.27c-7.06.67-10.68,2.72-11.06,6.41Zm66.2,347c-5.09,3.71-7.5,9.6-5.69,14C528.56,1045.27,530.3,1041,532.35,1035.93ZM652.42,856.19l-3.61,5.58,3.8,2.52C655,861.37,657.34,858.87,652.42,856.19Zm-82.34,104c-5.53.78-5.14,5-7.19,8.15C568.44,968.2,569.06,964.63,570.08,960.2ZM536,977.4l-1.53-1-7,12.82,1.68.91Zm10,1.34-1.13-.6-8.14,14.44,1.68.9ZM692.81,785.93c.27.84.55,1.68.83,2.52l5.85-1.27-.85-3.78Zm10.83-16.55c3.87,3.25,6.06,3.49,7.57.57.37-.73-.42-2.06-.68-3.11ZM747,732.54l-7.64,5c3.69,4.76,5.39-1.18,8.11-1.1C747.28,735.36,747.15,734.26,747,732.54ZM664.33,1058.4l2.18.81,4.06-11-2.13-.79ZM520.59,723c.54-1.39,1.19-3.08,1.94-5l-8.29.74c0,.86-.12,1.93-.16,2.62Zm223.72-290,1.57-1.09c-1.56-2.44-3-5-4.79-7.21-.21-.27-2.13.81-3.31,1.28ZM548,534.07l-.12-2.24c-3.44-2.49-6,.56-8.65,3.26ZM470.33,668.28a17.24,17.24,0,0,0-3.85.7,12.79,12.79,0,0,0-2.7,2.18,15.74,15.74,0,0,0,3,1.43,38.86,38.86,0,0,0,4.7.56C471.07,671.32,470.7,669.82,470.33,668.28ZM766.57,447.67l-1.84,1.64,10.5,9.82,1.08-1Q771.44,452.9,766.57,447.67Zm-192,495.26.89,1.7c4.54,1.42,5.58-2.13,7.08-5l-.86-1.31Zm125.68-538.7c-.2.81-.39,1.62-.59,2.43l7.13,3.1c-.8-1.74-1.29-3.77-2.53-5.1C703.53,403.91,701.59,404.34,700.21,404.23ZM649.28,993.12l-1.8-.51q-1.92,7.41-3.83,14.82l1.07.29Zm-120,81.42c8-1.76,1.34-7.14,3.3-10.33l-1.65-.31C530.38,1067.41,529.83,1070.91,529.27,1074.54Zm178.5-418.6,1.85.44,4-14.15-1.06-.32Zm9.59,6c.81-2.58,1.53-4.52,2-6.52a38.63,38.63,0,0,0,.58-4.59l-1.84-.22C719.66,654.48,713.08,657.32,717.36,662Zm-236.26,25c-6-2.79-7.38-2.31-9,2.41ZM633.2,579.35l.8-.23c-.33-2.51-.52-5.06-1.06-7.53-.17-.76-1.3-1.31-2-2-.36.79-1.21,1.76-1,2.34C630.87,574.49,632.09,576.9,633.2,579.35ZM518.87,568l.86,1.85L531.44,564l-.54-1.29Zm70.4,164.75-1.4-1.17-8.7,10.72,1,.83ZM700.9,533.37l-2-2.07-6.15,6.31,1.59,1.66ZM575.41,441.56v-9C572.16,434.71,571.9,437,575.41,441.56Zm-237,641.86-2.1-1.6-4.82,6.39,2.17,1.63ZM477.66,945l-.25-1.18L461.79,947c.12.52.23,1.05.34,1.57ZM699.3,658.61l1.47.37,3.91-13.21-1.83-.51Q701.07,651.94,699.3,658.61Zm1.38-17.21,1.93.18q1-5.76,1.91-11.53l-1.89-.32Zm-33.06,424.24q2.24-4.55,4.48-9.08C667,1057.86,667,1061.62,667.62,1065.64ZM570.28,770.5l1.75,2.19,7.65-6-1-1.14ZM673.92,508.78c.65-2,1.1-3.3,1.54-4.64l-1-.55-2.56,2.19c-.43-1.73-.76-3.08-1.25-5.06L667.43,505ZM570.37,950.29l1.91,2.23,5.79-5.1-1.52-1.86ZM684.24,801.43c3.93,2,4.14,1.88,6.08-2.27C686.08,797.1,686,797.12,684.24,801.43ZM532.47,881.1l1.55,1.29,7-8.76-1.4-1.15Zm76.06-3.79,1.75,7.85,4.56-6.16Zm-80.6,46.61,5.79,2.84c.38-1,1.12-1.91,1.06-2.83s-.87-1.9-1.46-3Zm121.8-513.87c-7.6.88-9.1,1.74-10.7,6.15Zm-64,315.49-9.36,5C580,732.6,583.3,730.73,585.75,725.54Z" transform="translate(-282.14 -345.03)"/><path class="cls-1" d="M800.4,1089.82c9.43-14,18.11-28.6,28.5-41.86,9.75-12.44,16-26.37,22-40.63.71-1.68,2-3.11,3.67-5.62-.9-1.29-3.2-3.49-4.11-6.16-.83-2.45-.17-5.41-.17-8.18l-2,.33c.93-3.61.76-8.07,2.91-10.22,3.66-3.65-.36-6.47.19-10l5,1.57c-1-3.46-1.79-6.35-2.92-10.34,1.43,1,1.85,1.3,2.32,1.54,1.18.58,2.39,1.12,3.58,1.67,0-1.48.48-3.29-.18-4.39-2.3-3.85-5-7.45-7.54-11.17a5.84,5.84,0,0,1-1.2-4.27l11.8,15.85c.6-1.8,1-2.89,1.33-4l1.68,0c.35,7.79.7,15.59,1.09,24.32L860,974.9c.72,2.81.68,4.84,1.65,6.07,4.25,5.36,4.93,11.48,4.53,17.93-.45,7.2,1.68,14.66-2.15,21.54a1.93,1.93,0,0,0-.21,1.45c4.45,11.62-1.85,23.89,2.2,35.58.81,2.37,1.07,5-1.77,7.31-1.23,1-.67,4.68-.3,7,.48,3,1.58,6,1.47,9.5l-2.06-2.76c-3.24,3.53-1.51,9.62-5.92,13.42-.33-4.44-.58-7.75-.83-11.06l-1.32,0c-.84,1.89-1.67,3.77-2.5,5.66.55-8.73,4.51-16.68,4.85-25.47-6,9.61-9.28,20.5-16.17,29.39,4.68-14.35,15-26.75,13.5-43.12l4.44-.8-4.91-11.36-25.52,52.38-.94-.41,10.7-23.63-1.26-.73q-9,14.33-18.07,28.66l-1.82-1.29c8.08-11.63,16.77-22.9,24-35,4.59-7.66,7.06-16.59,10.51-24.93.65-1.57,1.42-3.09,2.33-5.06-1.24-2.39-2.74-5.26-4.24-8.13l-1.42-.29c-2.63,6.58-4.78,13.4-8,19.63-2.38,4.51-6.24,8.25-9.46,12.31-3,3.76-6.28,7.3-8.89,11.29-6,9.19-11.69,18.6-17.53,27.9-.73,1.16-1.63,2.23-2.45,3.34ZM862.53,998c1.68-6.34.64-11.58-4.42-15.75C855.34,986.62,857.12,993.36,862.53,998Zm-10.1,12.6c-1.92,4.37,1,7.15,3.12,11.12C858.62,1016,853.81,1013.88,852.43,1010.59Z" transform="translate(-282.14 -345.03)"/><path class="cls-1" d="M723.56,994.73c-.78-7.65,4.54-11.26,8.9-15.85,7.45-7.82,13.65-16.85,21.29-24.45,17.21-17.11,34.82-33.84,52.62-50.35,6.51-6,13.25-5.05,19.79,1.06,7.52,7,15.56,13.53,22.81,20.83,5.59,5.63,10.44,12,15.31,18.31,1.24,1.59,1.32,4.07,1.44,6.35-8.62-11.2-15.74-23.37-28.1-31.11-4.14-2.59-7.21-6.87-10.83-10.31a54.34,54.34,0,0,0-5.64-4.88c-4.35-3.11-8.18-3.35-12.86.51-31,25.55-58.94,53.89-82.32,86.63C725.23,992.51,724.45,993.52,723.56,994.73Z" transform="translate(-282.14 -345.03)"/><path class="cls-1" d="M800.91,895.78c-35,31.88-68.87,64.65-94.43,105C730.66,959.15,764.68,926.42,800.91,895.78Z" transform="translate(-282.14 -345.03)"/><path class="cls-1" d="M858.34,855.94c-14.39-10-31-15-47.23-20.93-16.42-6-33.18-11.1-49.61-16.53C770.62,815.11,852.22,845.8,858.34,855.94Z" transform="translate(-282.14 -345.03)"/><path class="cls-1" d="M812.68,990.25c-26.82,30.44-45.76,66.09-66,100.84C765.21,1055.21,783.45,1019.1,812.68,990.25Z" transform="translate(-282.14 -345.03)"/><path class="cls-1" d="M760.38,1091c17.17-32.69,32.72-66.46,60.42-92.23C795.75,1026.34,779.1,1059.35,760.38,1091Z" transform="translate(-282.14 -345.03)"/><path class="cls-1" d="M755.43,801.65c33.86,5.42,65.76,16.28,95.23,34C820.29,820.45,788.37,809.63,755.43,801.65Z" transform="translate(-282.14 -345.03)"/><path class="cls-1" d="M778.76,996.48c-22.35,30.33-41.69,62.52-60.42,96.58C718.44,1083.21,763.21,1012.14,778.76,996.48Z" transform="translate(-282.14 -345.03)"/><path class="cls-1" d="M865.88,913.35c-30.56-21.13-62.5-38.17-96.13-52.59a53,53,0,0,1,6.89,1.86c27.75,11.5,54.42,25,79.18,42.13,2.19,1.52,4.62,2.71,6.67,4.38C863.86,910.24,864.76,911.92,865.88,913.35Z" transform="translate(-282.14 -345.03)"/><path class="cls-1" d="M731.65,1090.93c18.23-36.93,39.59-71.85,66-103.56C772.68,1020,751.91,1055.3,731.65,1090.93Z" transform="translate(-282.14 -345.03)"/><path class="cls-1" d="M855.63,845.82c-29.78-15.32-61.1-26.47-93.26-35.45C795.5,817,826.89,828.13,855.63,845.82Z" transform="translate(-282.14 -345.03)"/><path class="cls-1" d="M658.57,878.88c17.58-27.44,40.07-50.16,66.52-69.08C701.12,831.11,677.78,853,658.57,878.88Z" transform="translate(-282.14 -345.03)"/><path class="cls-1" d="M834,820.73c-13.62-5.59-27-11.78-40.94-16.6-13.63-4.73-27.76-8.06-41.52-12.46C781.16,795.3,808.43,805.87,834,820.73Z" transform="translate(-282.14 -345.03)"/><path class="cls-1" d="M832.65,1004.54c-23.73,26.12-42.16,55.89-59,86.73C779.24,1071.76,816.72,1016.82,832.65,1004.54Z" transform="translate(-282.14 -345.03)"/><path class="cls-1" d="M742.21,783.34c31.94,4.08,62.51,12.24,90.29,29C803.56,799,773.59,788.85,742.21,783.34Z" transform="translate(-282.14 -345.03)"/><path class="cls-1" d="M326.81,1006.82a25.66,25.66,0,0,1,1.63-3.57q31.2-46.95,62.48-93.86a9.14,9.14,0,0,1,4-3.51c-3.78,5.56-7.61,11.09-11.32,16.69q-27.07,41-54.13,82a22.75,22.75,0,0,1-2.25,2.57Z" transform="translate(-282.14 -345.03)"/><path class="cls-1" d="M817.24,800.9c-24.49-12-50.4-19.47-77.08-24.58C751.87,773.11,808.7,791.33,817.24,800.9Z" transform="translate(-282.14 -345.03)"/><path class="cls-1" d="M746.57,1007.4l-51,84.58-1.85-1.14,51.54-84.18Z" transform="translate(-282.14 -345.03)"/><path class="cls-1" d="M321.07,1056.07c1.82-3.86,3.3-7.93,5.52-11.54q27.68-45,55.58-89.91a2.49,2.49,0,0,1,1.88-1.19,32,32,0,0,1-1.49,3.13q-29.18,47.63-58.4,95.2A51.87,51.87,0,0,1,321,1056Z" transform="translate(-282.14 -345.03)"/><path class="cls-1" d="M763.38,1000.52l-55.58,91C724.85,1059.07,742.8,1027.22,763.38,1000.52Z" transform="translate(-282.14 -345.03)"/><path class="cls-1" d="M730.94,1010.51c-3.84,6.28-7.78,12.5-11.48,18.85q-14.93,25.62-29.66,51.35c-1.73,3-3.07,6.25-4.83,9.25a6.17,6.17,0,0,1-3.13,2.06C696.77,1063.87,711.49,1035.77,730.94,1010.51Z" transform="translate(-282.14 -345.03)"/><path class="cls-1" d="M667.33,856.4c16-22.34,34.54-42.07,58.74-55.87A351.15,351.15,0,0,0,667.33,856.4Z" transform="translate(-282.14 -345.03)"/><path class="cls-1" d="M833.65,1019.45,786,1091.12C799.69,1066,813.89,1041.18,833.65,1019.45Z" transform="translate(-282.14 -345.03)"/><path class="cls-1" d="M783.93,894.94l-63.68,66.33C737.53,937.66,760.1,915.74,783.93,894.94Z" transform="translate(-282.14 -345.03)"/><path class="cls-1" d="M812.65,918c-24.46,17.33-43,39.3-63.25,59.84C755.56,965.08,802.9,919.73,812.65,918Z" transform="translate(-282.14 -345.03)"/><path class="cls-1" d="M319.62,971.19l58.59-79.57c.44.33.88.66,1.33,1l-58.77,79.45Z" transform="translate(-282.14 -345.03)"/><path class="cls-1" d="M390.15,959.73q-25.93,41.37-51.86,82.76C353.92,1013.89,370.85,986.08,390.15,959.73Z" transform="translate(-282.14 -345.03)"/><path class="cls-1" d="M710.22,939.25c10.67-12.8,30-31.46,49.66-49.71l1.32,1.3Z" transform="translate(-282.14 -345.03)"/><path class="cls-1" d="M770.5,868.58c15.27-.37,39.69,14.13,43.57,26.89-6.56-5.5-12.62-11.8-19.82-16.26S778.84,872.21,770.5,868.58Z" transform="translate(-282.14 -345.03)"/><path class="cls-1" d="M864.38,929l-6.3-14.23c6.47,6.1,8.86,12.71,6.17,18.2l-41.83-38.16,1.31-1.43,39.48,36.23Z" transform="translate(-282.14 -345.03)"/><path class="cls-1" d="M328,974c4-6.28,7.72-12.72,12-18.8,11.52-16.48,23.23-32.83,34.94-49.18a22.25,22.25,0,0,1,5.88-5.53c-.51.87-.95,1.78-1.53,2.6Q355.12,937,331,970.9a30.75,30.75,0,0,1-2.91,3.14Z" transform="translate(-282.14 -345.03)"/><path class="cls-1" d="M317.85,962.86c7.83-10.93,15.57-21.94,23.52-32.78,7.47-10.17,15.18-20.17,23.6-29.79a7.45,7.45,0,0,1-.74,2Q342,932.11,319.67,961.86a10.22,10.22,0,0,1-1.45,1.33Z" transform="translate(-282.14 -345.03)"/><path class="cls-1" d="M849.42,951.42c-3.81,2.18-7.91,4-11.36,6.65a135.3,135.3,0,0,0-11.7,10.79c-3.81,3.72-7.51,7.55-11.19,11.41s-7.08,7.64-10.83,11.26C811.69,977.71,842.25,949.7,849.42,951.42Z" transform="translate(-282.14 -345.03)"/><path class="cls-1" d="M771.65,971c14.68-14,27.07-30.5,45.69-40-7.75,6.57-15.73,12.9-23.18,19.79S779.88,965,772.78,972.22Z" transform="translate(-282.14 -345.03)"/><path class="cls-1" d="M293,895.18q19.56-18.73,39.11-37.48l-.25-.25-38.93,37.66Z" transform="translate(-282.14 -345.03)"/><path class="cls-1" d="M298.12,906.9l48-43,.93,1L299.3,908.18Z" transform="translate(-282.14 -345.03)"/><path class="cls-1" d="M286.22,878.56l46-36.69.77,1L287.38,880Z" transform="translate(-282.14 -345.03)"/><path class="cls-1" d="M712.3,893.32l0,0a44.17,44.17,0,0,0,4.91-3.22c9.39-8.08,19.28-15.33,31.14-19.45,1.56-.54,3.15-1,4.74-1.49.44-.12,1,.05,1.73.55-19.2,6.17-34.47,17.83-47.79,32.67Z" transform="translate(-282.14 -345.03)"/><path class="cls-1" d="M421.56,899.23l-35.15,50.32C396.86,931.83,407.57,914.3,421.56,899.23Z" transform="translate(-282.14 -345.03)"/><path class="cls-1" d="M708.93,925.93a58.3,58.3,0,0,1,4.43-5.85c8.45-8.7,17-17.31,25.55-25.92a11,11,0,0,1,4.74-3,13.73,13.73,0,0,1-1.38,2q-15.75,16-31.56,31.9a8.15,8.15,0,0,1-1.62,1Z" transform="translate(-282.14 -345.03)"/><path class="cls-1" d="M787.58,971.81,825.44,935l1.35,1.39-38.33,36.41Z" transform="translate(-282.14 -345.03)"/><path class="cls-1" d="M374,949c-3.46,6-6.76,12.11-10.39,18-7.06,11.44-14.31,22.76-21.47,34.12l-.3-.27c8.54-14.25,17-28.52,25.66-42.7,1.93-3.19,4.36-6.07,6.56-9.09Z" transform="translate(-282.14 -345.03)"/><path class="cls-1" d="M374,949a73.59,73.59,0,0,1,4.41-8.17c8-11.4,16.22-22.71,24.41-34a11.77,11.77,0,0,1,5-4c-1.46,1.86-3,3.68-4.36,5.59q-13.68,19-27.32,38.07A32.35,32.35,0,0,1,374,949Z" transform="translate(-282.14 -345.03)"/><path class="cls-1" d="M327.2,1007.17c-3.46,6.24-7,12.45-10.38,18.71-4.7,8.6-9.34,17.23-14.53,25.57,7.09-15.47,14.61-30.7,24.52-44.63Z" transform="translate(-282.14 -345.03)"/><path class="cls-1" d="M693.06,850.76a11.07,11.07,0,0,1-1.28,2.63Q676.92,870.52,662,887.57c.75-1.62,1.19-3.51,2.31-4.81,9-10.4,18-20.69,27.08-31A6.55,6.55,0,0,1,693.06,850.76Z" transform="translate(-282.14 -345.03)"/><path class="cls-1" d="M324.62,993.13l27.53-42.22,1.25.8q-13.8,21.09-27.61,42.19Z" transform="translate(-282.14 -345.03)"/><path class="cls-1" d="M342.12,1001.1c-2,3.6-3.95,7.22-6,10.77q-7.91,13.53-15.93,27A39.3,39.3,0,0,1,317,1043l.08.07c1.67-3.37,3.1-6.88,5-10.09,6.48-10.77,13.15-21.42,19.75-32.11Z" transform="translate(-282.14 -345.03)"/><path class="cls-1" d="M836.94,942.49l-29.58,27.33C816,959.35,825.1,949.45,836.94,942.49Z" transform="translate(-282.14 -345.03)"/><path class="cls-1" d="M309.83,914.84,337,884.6l1.35,1.24L310.2,915.18Z" transform="translate(-282.14 -345.03)"/><path class="cls-1" d="M818.15,991.32l25.69-28.1.28.31-25,28.71Z" transform="translate(-282.14 -345.03)"/><path class="cls-1" d="M336.26,916.91,313,947l-1.08-.83,23.28-30.1Z" transform="translate(-282.14 -345.03)"/><path class="cls-1" d="M320.94,830.56,297.68,842l-.73-1.44,23-12.07Z" transform="translate(-282.14 -345.03)"/><path class="cls-1" d="M318.22,963.19Q308.06,978.6,297.89,994l-1.47-1q10.71-15.07,21.43-30.13Z" transform="translate(-282.14 -345.03)"/><path class="cls-1" d="M381,910.85l-19.28,28.06-1.24-.85L380,909.93Z" transform="translate(-282.14 -345.03)"/><path class="cls-1" d="M422.3,986l18.84-28.16,1,.66L423.7,986.8Z" transform="translate(-282.14 -345.03)"/><path class="cls-1" d="M351.13,882.91Q341.44,895,331.73,907l-1-.8,19.34-24.33Z" transform="translate(-282.14 -345.03)"/><path class="cls-1" d="M310.2,915.18l-16.4,19.05-1.52-1.42,17.55-18Z" transform="translate(-282.14 -345.03)"/><path class="cls-1" d="M341.86,920.87l16.41-22.29,1.43,1.09-17.56,21.45Z" transform="translate(-282.14 -345.03)"/><path class="cls-1" d="M282.16,970.92l14.89-20.44.89.59L283.7,972Z" transform="translate(-282.14 -345.03)"/><path class="cls-1" d="M310.79,932.23l16.47-21.37c.34.24.67.49,1,.74l-16.37,21.58Z" transform="translate(-282.14 -345.03)"/><path class="cls-1" d="M282.14,1062l11-22.81,1.16.51-10.49,22.69Z" transform="translate(-282.14 -345.03)"/><path class="cls-1" d="M339,883.36,356.18,867l-17.75,15.85Z" transform="translate(-282.14 -345.03)"/><path class="cls-1" d="M342.14,921.12q-7.47,10-14.95,20l-.4-.38,15.07-19.92Z" transform="translate(-282.14 -345.03)"/><path class="cls-1" d="M770.66,991.11l15.48-17.17.93.82-15.24,17.39Z" transform="translate(-282.14 -345.03)"/><path class="cls-1" d="M707,981c2.72-4.28,5.5-8.63,9.06-14.22.14,2.35.56,3.47.17,4-2.73,3.68-5.64,7.23-8.5,10.81,0,.06-.27.06-.34,0A3.19,3.19,0,0,1,707,981Z" transform="translate(-282.14 -345.03)"/><path class="cls-1" d="M328.05,974q-5.51,9.48-11,19l-1.52-1L328,974Z" transform="translate(-282.14 -345.03)"/><path class="cls-1" d="M327.19,941.17l-11,15.73L315,956q5.93-7.59,11.84-15.2Z" transform="translate(-282.14 -345.03)"/><path class="cls-1" d="M587.32,792.13,568.89,798c-.15-.48-.3-1-.46-1.46L587,791Z" transform="translate(-282.14 -345.03)"/><path class="cls-1" d="M608,709.56l7.07-5.65c1.7.19,3.45.76,5.08.51,10.3-1.61,20.57-3.4,31.77-5.28-10.53,5.14-22.55,2.6-31.29,11,2.54-.43,5.2-.53,7.6-1.38s4.52-2.42,6.77-3.68l.72,1.33c-3.87,2.08-7.55,5.2-11.67,6-6.51,1.25-13.33.94-18.92,1.24l15.67-6.37-.63-1.68Z" transform="translate(-282.14 -345.03)"/><path class="cls-1" d="M628,716.94l.56,2.2-11.11,5.09.48,1.72,11.24-.94.1.8-30.16,5.36c5.55-4.93,15.08-1.17,19.21-10.2l-11.07,1,8.55-4.63c4.45,4,8.36.41,12.29-.3Z" transform="translate(-282.14 -345.03)"/><path class="cls-1" d="M624.12,740.07c-10,.33-17.73,6.65-26.41,10.45l-5.82,2.56c8.87-6,17.43-12.76,28.66-13.87C621.7,739.1,622.93,739.76,624.12,740.07Z" transform="translate(-282.14 -345.03)"/><path class="cls-1" d="M628,717c2.25-1.59,3.33-5,7.71-2.6,2,1.09,6-1.52,9.13-2.45l.36,1.63L628,716.94Z" transform="translate(-282.14 -345.03)"/><path class="cls-1" d="M511.93,598.44l9.14-4.55,1,1.12-6.42,7Z" transform="translate(-282.14 -345.03)"/><path class="cls-1" d="M591.15,859.37l-30.21,17.7-.79-1.38,30.05-17.56Z" transform="translate(-282.14 -345.03)"/><path class="cls-1" d="M592.81,808.32l-61,26.44c-.39.44,0-.42.69-.72q27.94-13,56-25.74c1.16-.53,2.84.07,4.3.12Z" transform="translate(-282.14 -345.03)"/><path class="cls-1" d="M594.18,867.24,581,874.1l-.63-1.14,13-7.13Z" transform="translate(-282.14 -345.03)"/><path class="cls-1" d="M555.94,578.57l4.5-5.33-.63-.91L554.15,574l-.37-1.1,11.35-4c-1.63,2.32-2.88,4.12-4.56,6.53l5.55-.46Z" transform="translate(-282.14 -345.03)"/><path class="cls-1" d="M548.09,584.91,561,582.09l.56,1.56c-3.84,1.38-7.61,3-11.54,4-1.54.39-3.28-.67-1.74-2.93Z" transform="translate(-282.14 -345.03)"/><path class="cls-1" d="M531.07,578c4.52-2,9.11-3.85,13.54-6,3.34-1.65,6.46-3.73,9.72-5.64l4.79.63Z" transform="translate(-282.14 -345.03)"/></g></svg>