<svg id="Layer_1" data-name="Layer 1" xmlns="http://www.w3.org/2000/svg" viewBox="0 0 73.31 208.4"><defs><style>.cls-1{fill:#fff;}</style></defs><title>oldmanwalking</title><g id="_4ulKSs.tif" data-name="4ulKSs.tif"><path class="cls-1" d="M563.61,809.88c-6.81-.7-14,.51-19.12-6.49-1.57-2.16-5-2.94-7.52-4.44-1.56-.93-3-2.05-5-3.42l29.23-33.07c-5.56-1.9-9.45-3.56-13.5-4.54-3.69-.89-4.59-2.5-4-6.27,1.69-10.14,3.06-20.35,4.14-30.57.36-3.5-.59-7.13-.85-10.7-1.14-15.58-3.81-31.15-1.06-46.77,1.2-6.82,3.4-13.46,4.89-20.24,1.13-5.17,5.52-6.5,9.25-8.84a114,114,0,0,0,12.31-8.83c.93-.77.89-3.13.75-4.7-.38-4.3-1.66-8.4.23-12.86,1.27-3,3-4.1,5.87-4.33a23.47,23.47,0,0,1,16.46,4.4c2,1.49,4.23,2.69,6,4.35,1.22,1.11,1.91,2.81,2.84,4.24-1.64.72-3.26,1.47-4.91,2.13a9.26,9.26,0,0,1-2.15.14v7.35c-1.74,2.84-3.87,6.3-6.28,10.21l2.84,3-2.7-.46c1.11,2.75,2.36,5.56,3.4,8.45,6.33,17.63,3.72,36.4,6.8,54.45.8,4.74,1.07,9.57,1.42,14.37.27,3.65-1,6.65-4.9,7.43-3.35.67-3.06,3-2.95,5.33.5,10.64,1.07,21.28,1.61,31.91,0,.82,0,1.64,0,2.33-.3.22-.41.36-.55.39-8.88,2.28-9,2.54-7,11.34,2,9.21,3.62,18.54,6,27.65.53,2,3.59,3.37,5.57,4.91,1.41,1.09,3,2,4.48,3l-.65,1.4H575.48c4.59-14.53,2.16-27.65-2.57-41.27-1.57,2.33-2.88,4.32-4.25,6.29-3.68,5.28-7.21,10.67-11.12,15.78s-2.79,9.52,3,12c1.58.66,2.66,2.5,4,3.8Z" transform="translate(-531.98 -603.71)"/></g></svg>