<svg id="Layer_1" data-name="Layer 1" xmlns="http://www.w3.org/2000/svg" viewBox="0 0 1119.76 856.93"><defs><style>.cls-1{fill:#fff;}</style></defs><title>oldman</title><g id="MwheI9.tif"><path class="cls-1" d="M586,839.12l3.8,4.42,13.22-7.83c-3,6-2.77,6.65,2.49,8.85l-5,2.11c5.89,2.83,11.85,5.79,17.91,8.55,4.1,1.87,8.3,3.9,13,1L648,871l-1.13,1.78L633.8,867l-.6.81,5,4-3.53.46,2.1,4.09-9.17-4.38,1.37,4.73-1.15.54-5.88-9.83-8.45-2.7V868c-9.33-7-13.23-7.83-15.87-3.87-1.93-.1-3.62-.22-5.33-.27-1.53,0-3.07,0-4.6,0l0-1.42,3.79-1.4c-.23-.61-.47-1.22-.71-1.83l-10.43,4.17c1.87.86,2.17,1,2.45,1.13,1.38.79,3.09,1.33,4,2.49.5.64-.32,2.33-.55,3.54-1.6-.38-3.22-.72-4.81-1.15-.46-.12-.92-.78-1.27-.71-1.74.38-3.44.93-5.16,1.42l1.41,4.62,1.44-.44v-4c2.49,2.49,3.66,4.26.15,6.12a8.51,8.51,0,0,0-2.87,2.67,13.3,13.3,0,0,0-1.15,3.25c1.1.36,2.19.76,3.31,1.06a23,23,0,0,0,2.52.33L575,887.06l7.09,1.4-10.87,4.26c.24.59.48,1.17.73,1.75l5.48-2c.88,2.38,1.74,4.69,2.67,7.19l4.12-5,1.7.47c-1.81,3.71-6.91,7.58-1.48,10.39l6.45-7.84,1.46,2,2.06-5,5.48-1.79c-.47,1.81-.79,3-1.1,4.2l3.55,1.78c-5.52,1.74-8.07,6.56-7.42,13,2.19-3.54,4.31-7,6.42-10.4l.84.58V909c8.22-4.52,8.22-4.52,4.85-6.92,3.12-3.46,5.76-3.39,10.71-.17l-1.82,8c1.39.55,3.38.71,4.16,1.76,2,2.66,3.49,1.42,5.23,0l1.71,9.31,1.24.16c.93-1.52,1.87-3,2.38-3.88-1.4-1.38-2.46-2.4-3.5-3.43-.67-.67-1.31-1.36-2-2.05,2.77-4.73,6.92-6.59,10.91-3.53,2,1.57,2.09,5.75,3,8.47l1.72-1.83,6.51,4.67c-.47-2.34-.74-3.75-1-5.22,2.47-1.19,5-3.48,6.91-3,1.55.38,2.4,4,3.33,6.25.3.71-.2,1.72-.2,2.59a4.14,4.14,0,0,0,.42,2.13c.18.28,1.33.29,1.71,0,1.67-1.31,3.21-2.77,5.23-4.55-6.8-.29-7.33-1.42-4.93-8.83l9.9,7.89.64-.32-4.94-8.14c4.43,0,9,1.57,11.27-3.94,1.33-3.21,5.71-5.64,1-9.73,10-.52,10-.5,10.84,6.09L683.4,900a14.42,14.42,0,0,1-.27,2.42c-.35,1.2-.86,2.35-1.3,3.53a18.31,18.31,0,0,1,3.63-.54,41.16,41.16,0,0,1,4.71.68c1.34-1.06,3-2.46,4.7-3.71.74-.53,2.38-.65,2.45-1.13,1-6.73,3.58-2.49,5.75-.92,1.16.84,2.26,1.76,3.56,2.78,0-3.84,3.39-9.83,6.88-10.88,2.24-.67,5,.28,6.87.45l7.83-9.49,8.48,6.56-5.13-12.08,8.93,3.33c-1.68-2.57-2.82-4.31-4-6,6.27,3,6.33,3,9.36.39l-5.46-2.29.42-1.25,16.33,3.39.24-1.65-3.77-1.38c0-.42,0-.85,0-1.28l7.24-1.44-1.92-2.51c4.9-5,9.34-9.6,13.73-14.2.12-.13-.36-.81-.19-.45,3.18-1.89,6.13-3.71,9.16-5.41,1.3-.73,3.29-2.12,4-1.67,4.39,2.65,5.9-.4,7.67-3.32.67-1.12,1.51-2.14,2.28-3.2l1.17.87c-2.38,3.52-4.89,7-7.13,10.58-2.7,4.38-5.07,9.08-10.24,6.38a67.18,67.18,0,0,1-3.44,5.8c-2.57,3.4-5.3,6.67-8.45,10.6l-3.46-1.08a22,22,0,0,1-.21,3.64c-.41,1.66-.62,3.9-1.75,4.66-.87.59-3-.67-4.6-1.18-2.77-.91-5.52-1.88-9.4-3.21,1.57,5.61,4.15,8.3,8.87,8.68.9,6.23-3.31,9.14-7.31,11.64,1.9,1.36,3.92,2.25,5,3.81.62.88-.25,2.84-.45,4.31l1.27.43c-3.11,3.82-2.9,4.4,2.12,5.61-.37,3.36-.74,6.74-1.13,10.35l4.33-.67.27.62L757,923c5.83.42,10.65-3.58,13.83-9.27,4.69-8.39,9.65-16.62,14.38-25,7.43-13.14,15.14-26.14,22-39.56,5.74-11.2,10.45-22.93,15.67-34.4.93-2,2.11-4,3.17-6l-.76-1.1c-2.76,1.08-6.06,1.55-8.14,3.4-2.52,2.24-4,5.65-5.94,8.55l-2.22-.4a79.32,79.32,0,0,1-.56-8.54c.16-4.44.65-8.87,1.1-13.29.34-3.35.82-6.68,1.39-11.21,3.84,7.69,9.33,10.3,16.66,9a8.91,8.91,0,0,1,4.41,0c6.1,2.3,12.13,0,17-2.18,6.39-2.92,11.78-8.25,17.25-12.95,5.73-4.93,11.05-10.34,15.7-14.72,3.36,1.56,5.72,2.93,8.25,3.78,4.25,1.43,8.69,2.28,12.89,3.81,7.59,2.77,11,9.41,9.1,17.23-.46,1.93-.88,3.86-1.22,5.81-1.59,9,2.13,19.1-5.71,26.79-.37.37.16,1.55.05,2.32-.71,5.42-.67,11.13-2.44,16.2a126.15,126.15,0,0,1-9.57,20c-2,3.58-1,8.39-5.84,11.09-2.61,1.47-3.47,6.07-5.11,9.26s-2.58,6.81-4.9,9.24c-5.72,6-6.68,13.11-7,20.45l10.69,1.25c-.22-2.51-.45-5-.78-8.69l-3.67,4.76-1.09-.2v-4.27c4.26,0,3.9-3.14,3.61-6.25l1.34-.18c1.53,3.21,3.06,6.42,4.33,9.1l6.32-5.43c-.79-1.85-2.18-3.56-1.78-4.42a10.52,10.52,0,0,1,9.36-6.51l-4.35,9,1,.09,25.19-19.51,4.47,3.77c-1.25-6.06.85-7.76,6.92-7.66a12.52,12.52,0,0,0,6.55-1.91c2.65-1.68,4.86-4.06,7.67-6.51.14.25-.42-.76-.26-.46,1.5-3,2.36-5,3.45-6.83a16.56,16.56,0,0,1,2.68-3.24c1.72-1.69,3.55-3.29,5.37-4.89.67-.59,1.53-1.66,2.11-1.55,3.5.71,7,1.69,11.12,2.75-1.37,1-2.25,1.35-2.59,2-3.52,6.39-9.13,10.12-15.44,13.45-3.65,1.93-6,6.3-9.71,8.1-2.74,1.35-3,4.38-5.19,5.28-6.39,2.66-13,4.72-19.48,7.19-1.45.56-2.62,1.83-3.92,2.77,5.77-.43,5.77-.43,7.08,2.89h-3.28a8.45,8.45,0,0,0,3.14,3c1.41,1,3.3,1.89,4,3.31,2,4.16,3.59,2.35,5.62-.38-1.67,5.9,2.65,7.24,6.23,9.59-4.87-.73-9.77-.81-14-5.56-2.25,7.46-10.16,10.37-10.87,18.16l5.39-4.32c-4.14,10.54-4.14,10.54,3.72,12.17v-5.57c5.08.86,3.6-2.58,3.12-5.15,1.89-.23,3.87.12,5-.7,3.83-2.79,7.51-2.56,11.7-1a10.6,10.6,0,0,0,6.73.35c4.66-1.59,2.65-5.12.85-9.06l12.26,1.29a21.27,21.27,0,0,1-1.85,2.41,11.72,11.72,0,0,1-1.65,1.08c2.19,0,3.8-1.19,5.6-1.72,9.48-2.8,33.23,8.87,31,16-2.07-1.87-3.63-4.18-5.76-5-3.33-1.29-7-1.57-10.59-2.28-2-3.5-9.05-6-13.75-4.58-1.11.33-1.9,1.72-2.84,2.63l1,1.29c1.16-.4,2.35-.74,3.49-1.19s2.08-1,3.57-1.64c.13,1.19.23,2.12.36,3.34H978c-2.31,3.85.07,5.83,3.15,7,4.27,1.68,8.7,3,13.39,4.52l-1.67,2.23,3.44,3c-1.8.85-2.86,1.24-3.81,1.81-2.71,1.62-6.27,2-6.84,6.42a8.88,8.88,0,0,1-4,5.75c-2,1.11-4.89.67-6.48.81L972.48,949c-1,.69-2.82,1.42-2.79,2.06.1,1.81.95,3.58,1.5,5.38l1.23-.34c-.94,1.19-1.89,2.38-2.19,2.77l3.86,2.59.11-.12c-11.27,3.42-16.33,11.52-17.45,23h7.14c-1.43,4-2.91,4.87-6.32,5.07a5.37,5.37,0,0,0-3.79,2.3c-.78,1.37-.55,3.32-.82,5.49l-4-2.65-.77.8,5.92,6.9c-2.35-.48-3.94-1.27-5.31-1-5.84,1.17-4.42-1.72-2.6-4.88l-5-2.36v17.76l-5.48-7.74v8.33c-3.78-7.45-11-11.65-14.29-8.45,1.54,1.88,6.66,2.31,3.76,5.77l5.73,3-.62,1.47c-4.25-1-9.2,4.46-13-2.16-.54,1-1,2-1.53,2.94l-.94-.7c.23-2.25.46-4.5.76-7.57l-10.82,5.56c.65,1.93,1.64,4.84,2.66,7.81L901.7,1023c-.19,3.84-.35,7.2-.51,10.5l-6.31-5.62-3.32,8.5-2.41-2.89c-1.16,4.28-2.36,8.29-3.26,12.36a4.1,4.1,0,0,0,.8,3.43c.69.57,2.41.37,3.46,0s2.1-1.56,3.83-2.94c2.26,6.43,4.43,12.56,6.59,18.69l.86.08c.3-3.06.59-6.12.89-9.17l2.09.22c-.24,3.71-.47,7.42-.72,11.44-3-1-4.53-1.6-6.11-2.08-.22-.07-.57.25-1.24.57l1.89,2.88c-4.92,1.09-5.54,1.58-4.93,5.14.28,1.59,1.51,3,2.6,5.07l2.63-4.77,2.53,3.83,3.24-1.47c.15.25.31.5.47.75l-3.63,4.91,1,1.2c4.2-4.1,7.43-2,11.34,1.35l-9.92,2,2.14,2.44c-.29,7.53-7.47,7.33-10.77,11.66l-3.4-3.75c.67,4,1.23,6.77-4.52,5.5-1.84-.4-4.23,2-2.57,5a51.36,51.36,0,0,0,3.27,4.59l22.52-11.53-.76-.79,2.65.61c1.78-2.65,2.61-5.41,4.19-5.94,3.73-1.24,7.85-1.29,11.75-2.11,1.11-.24,2-1.51,3-2.3l-3.68-.26-1.31-.08,2.66-3.94-4.43-.68c1.56-6.08,5.59-.79,7.5-2,.47,2.13.89,4,1.21,5.45,1.81-1.89,3.05-3.6,4.68-4.78,2.73-2,6.37-3.07,8.41-5.54a6.93,6.93,0,0,1,8.43-2.2c2.89,1.25,4.74.27,6-1.29,3.53-4.31,6.64-2.82,9-.56l4.77-1.2c.16-2.62,5.41-5.27,1.13-9.25l5.17,4.12,12.21-1.47c1.77-5.34,8.11-1.72,13.32-2.89l-4.28-4.93h3.68c-.24-1.32-.42-2.3-.52-2.81,1.82,2,3.7,5.9,5.75,6,3.56.17,8.12-.9,7.82-6.67l23.2,2.17-4.74-3.28,3.71-4.23,1,.65c-.33,1.25-.65,2.5-1.11,4.27,1.65-.58,3.73-1.66,4-1.34,3.35,4.36,5.33-.76,8.19-1l.61,4.67,1,.33,4-10.77c2.59,3.72,6.29,3.53,8.94-.43l-.11.07,4.87,3c-4.07,3-4.7,5.27-.64,7.77l3.1-4.54,5,2.31c-1.12-5.08,2-7,12.62-8.23-.21,1.13-.4,2.21-.59,3.28l1.29.54c.72-1.39,2.39-3.53,2-4-1.4-1.76-3.5-3-5.68-4.62,1.25-.38,3-.78,4.64-1.44s3.49-1.51.44-3l0,.09,2.57-1.37,4.66-8.15,1,8.08-6.49,5.84,1.82,3.54,8.78-8.57c.59,2.49,1.19,5,1.78,7.47,2.4-6.63,1.69-8.24-1.89-7.34.21-2.66-1-6,2.92-7.2l.42,3,4.74-1.86,4.06,4.6,6-5.85-.15.11c.75.8,2,1.5,2.16,2.42.62,3,.85,6,1.24,9l1.62.12c.36-2.26.72-4.53,1.15-7.21,6.11-.08,10.3,5.08,13.48,9.71,3.92,5.7,2.83,12.26-4,17.12l1.39.49,4.85-2.22c-2.26,4.2-4,7.77-6,11.15-4.69,7.73-9.41,15.45-14.39,23-1.08,1.64-3.3,2.52-4.95,3.71l4.58,3.19c-1.21,1.68-2.36,2.7-2.78,4-2,6-5.25,10.93-10.76,14.22-.34.2-.55.6-1.15,1.29l4,.62.64.92-3.2,1.74c.78,1.66,1.34,2.86,1.89,4-3.8-3.87-7.08-6.42-13.42-6.29-4.26.09-5.85.55-7.14,4l.23-.22-4.48,2.34c-.54-1.52-1.07-3-2-5.83-.68,1.28-1.19,2.22-2.24,4.21-.48-2.39-.77-3.81-1-5.23l-.09.12c6.42-1.53,6.42-1.53,7.45,4.51.27-2.29.55-4.58.87-7.28l2.8.93c.6-3.7,1.22-7.45,2-11.92l-6.53-2.53c.89,2.71,1.55,4.7,2.55,7.75-5.68-2.59-6.91-6.74-5.9-10.88,1.09-4.52-.44-5.68-4.6-5.68v3.8c-2.86-3-5-5.18-7.29-7.61l-6.19,2.27,3.64,1.76-3.19,2.51c-3.72-3.47-2.47-10.92-10.14-10.79-.22.31-.81,1.08-1.74,2.32l-4-10.35c5,4.68,9.09.59,13.59-1l-1.6-3.35c.87,0,1.44-.18,1.78,0,2.38,1.41,4.62,3.1,7.11,4.29,1,.47,3.36.26,3.61-.3,2.62-5.93,8.73-3.1,13.06-5.23l-2.89,4.17,15.47-1.4,2.45,2.11,3.58-3.34.44,3.35,9.55-.83v-4.8l6.83,2.21c1.66-3.57-.7-5-3.53-5.95-2.27-.78-4.65-1.25-7.59-2l-4,6.53-10.51-4.26c-1.51,2.22-3.34,3.77-7.48,1.75-2.48-1.21-6.63,1-10.38,1.75l-.66-3.26c-5.79,0-11.4-.15-17,0-4.47.16-8.93.75-15.27,1.31-4.75-2.69-7.55-2.3-11.46,3.18-2.89-6.24-8.56-4.49-13.14-4-10.74,1.14-21.43,2.87-32,4.88-7.56,1.43-15,3.57-22.41,5.71-1.8.52-3.21,2.32-4.89,3.39a7.68,7.68,0,0,1-2.58.79c-3.37.67-6.94.81-10.09,2-6.76,2.59-13.35,5.63-19.93,8.66-9.87,4.57-19.57,9.52-29.54,13.84-5.6,2.44-11.71,3.7-17.39,6-3,1.22-5.66,3.36-8.27,5.36-6.34,4.85-12.87,9.54-18.71,15-3.83,3.55-6.65,8.21-9.76,12.49-.31.41.5,1.63.8,2.48H826c.77-3.24,2.65-6.25,1-9.91-.43-.95,1.07-2.85,1.81-4.24a29.85,29.85,0,0,1,1.77-2.74l-7.65-1.12-.29-1.58c4.52-2.05,9-4.2,13.57-6.12,2.39-1,3.49-2.18,3.6-5.11s2-5.7,2.57-8.64c.33-1.65-.34-3.49-.57-5.28,7.06-.35,7.44-.93,6.12-6.1-.77-3-1.88-2.75-4.17-1.57-3.27,1.68-6.75,3.27-11.16.24l4.89-1.09-3.79-2.42,5.09-3.53-3.74-4.54-1.16,1.08,3.51,3.05c-6.86,1.18-7.41.64-7.24-5.42a13.32,13.32,0,0,0-2.05-7l-3.94,17.47-2.11.11c.93,2.11,1.95,4.4,3,6.7l-7.19.63c1.58,6-.38,11.08-9.8,12.11l8.81,3.64-6,1.51c-.84,5.77-1.7,11.67-2.64,18.09l2.2,1.57-9,3.5a14,14,0,0,0,2.77,2.19,7.71,7.71,0,0,0,2.76.38l-1.9,4.19h-21l-6.72-7-3.27,7h-2c-.71-3-1.42-6-2.25-9.46-6.23,5.22-5.55-2.92-8.93-3.11l2.06-4.47,1.07,0c.25,1.41.49,2.82.74,4.22l6.62-1.8.28,1,5.94-7c.8,1.67,1.53,3.21,2.33,4.9l6.4-1.79-3-6.2c-2.48,0-5.81.85-8.28-.25-2.25-1-3.56-4.1-5.48-6.52.12-.1-.81.34-.77.66.73,5.83-3.75,5.21-6.9,5.07-5.25-.23-7.68,1.89-8.23,7a5.91,5.91,0,0,1-3.06,4.12c.3-1.14.61-2.29.64-2.39l-8.93-10.09,1.82,9.15c-6.33,1.06-6.33,1.06-8.1-2.37l4.19-6.58-9.75,1.28-.07-1,14.44-4.2-.41-1.28,5.07,2.55-6.31-9.39,2.83-3.76-.55-.67c-1.94,1.74-3.64,4-5.89,5.09-2.08,1-5.18,2.15-6.09-2.2l4.2-.91c.11-1.85.14-3.48.32-5.1s.49-3.18.74-4.71l2.91-.14,4.12,6.39,1.41-.59-.54-5.92c3.88-.55,6.56-11,3.57-16.64,3.76,2.36,6.81,3.17,7-2.81h8.58l-1.39-3,4.64-1.27-3.33-7.88c3.38.31,6.05.65,8.73.76a9.5,9.5,0,0,0,2.78-.8l1.39,4.62,10.94-1.93c1.24-4.08-1.25-6.51-5.76-8l-7,4.83.36-6.06-8.74,1.74-3-4-2.67,5-2.32-1.59,10.93-13.92,1.47,1-1.93,3.72c3.4-7,11.45-4,17-7.82l-5.05-4.42,5.37-.29c-.62-2.67-1.15-4.93-1.68-7.19l-1.35.21c-.73,2.47-1.47,4.93-2.21,7.4-2.72-1.05-5.59,3.69-8.24-.2l7.27-2.55c-.15-.56-.29-1.13-.43-1.69l-4.65-1.3c-.74,2.07-1.39,3.87-2,5.67l-2.3-3.43-1.39,3.13-9.37-1.14c-.29-.75-.86-2.26-1.49-3.94,1.64-.15,5.12,1.44,2.13-3.18l8.08,1.23-.06-.08c1.16.37,3,1.38,3.38,1,2.33-2.55,4.34-5.39,6.94-8.77v6.47l11.68-4.84,2.63,3.79,2.68-4.7-10.73-10.54c-.33.78-.85,4-1.94,4.19-3.59.67-7.39.26-11.23.26,1.5-5.23,1.5-5.23-6-11.5v8.89c-7.39-4-15.28-4.21-23.18.58v4.41l7.57,3.81-5.67,5-2.58-3.76c-.94,2.31-1.55,3.82-1.73,4.27,2.06,2.36,4.89,4.35,4.58,5.45-1.75,6.2-5.5-1-7.71.44.39,3.65.74,7,1.06,10,1.58-1.84,4-4.44,7.74-.88l-3.49-3.76.5-.71c2,1.14,4,3,6.15,3.22,1.84.18,3.86-1.51,6.88-2.85l-4.6,5.55,3.66,4.23-5.34,1.75,8.52,5.08-11.1.93c1-3.14,1.8-5.61,2.55-8-3.61-.53-3.61-.53-4.08,6.24l-2.57.32c-.4,1.86-.7,3.31-1,4.76l-6-4.42-3.08,2.36-5.29-2.39-.95,1.23,3.82,1.3-6,2.8c4.45,5.94,8.45,4.56,13.56,1.81a39.29,39.29,0,0,0,4-2.83,18.84,18.84,0,0,1,2.21,3.2c1.46,3.44,1.39,3.47,4.64,2-.84,4.91-11.66,5.84-18.51,1.72-1.45,1.33-2.79,2.7-4.28,3.86-2.17,1.7-2.14,1.58-.49,3.84.23.32-.63,2-1.28,2.28-2.43.85-5,1.35-8.31,2.19l3.49,2.7-3.55,1.45c.24.47.36,1.17.7,1.3,3.21,1.24,2.32,3.84,2.09,6.17-.19,1.86-.56,3.7-.94,6.1l-3.72,7.25-1.95-4c-1.28,2-2.4,3.65-3.88,5.89,7.64.06,5,5.52,6.17,10.14l-4.13-5.07c-.33,2.65-.59,4.67-.88,7h6.69l-5.32,6.85c.6,1.18,1.61,3.18,2.73,5.42l-3.87.55,3.06,3.27-2.67.67-1.35,1.36,7,3.82c-6.49,1.22-6.49,1.22-3.71,6.09h-19c-2.23-2.48-4.54-4.89-6.59-7.5-.29-.37,1.11-1.78,1-2.63-.44-4.15-.86-8.08,1.17-12.15,1.42-2.86,1.13-6.21-3.33-9l-5.48,15.52c-5.23,2.55-4.58,10.27-7.77,15.8H585.25c-.31-5.37,2.48-11-1.48-16.41l6.72-8c-.22-.38-.43-.77-.65-1.16l-5.65,4.89.84-6.52,2.86-1.12-.31-1.48-8.32.51c.65,4.33,1.3,7.77,1.61,11.24.11,1.27-.58,2.62-.91,3.94l-4.5-1.58c0,1.48-.56,3.31.12,4.19a9.12,9.12,0,0,0,5.79,3.14q.45,4.2.88,8.4h-24c2.71-2.1,3-4.06,1.78-9.51l3.09,4.39,1.45.25c.33-1.79.65-3.59,1.15-6.4l3.48-1.12c-.8-4.68-1.55-9.08-2.41-14.19l4.49,1.14c.21-.41.53-.73.47-.94-1.81-6.75,1.4-12.87,8.09-15.37,5.57-2.08,6.37-3.26,5-7.42-3.51,4.81-6.59,5.75-12.34,3.05l15.62-13.47L587,1089.5c-1.78,1.48-3.55,3-5.35,4.44-.78.63-1.6,1.2-2.41,1.8-.09-1-.24-1.92-.26-2.88,0-2,0-3.92,0-6.53-4.31,1.61-8.23,3.63-7.63-3.07.06-.69-2.21-1.59-3.24-2.28,1.22-2,2.47-4,3.72-6.11l-.66-.78-12.6,9.82c.52.47,1.52,1,1.87,1.75a52.55,52.55,0,0,1,1.85,5.43,40.54,40.54,0,0,1-4.57.9c-3.27.29-6.55.41-9.83.6l-1.41-1.66,4.82-6,1.79,1a40.4,40.4,0,0,0-4.34-.6c-4.49-.16-5.94-2.17-5.35-6.75.31-2.45,2.91-6-1.38-7.82,1.75.6,4.87-4,5.65,1.83.15,1.18,5.93,1.62,9.56,2.51l-2.12-4.48,10.9-4.77c-2.79-3.34-1.89-6.34,1.75-7.14l-2.46-2.88c6.41-4.49,4.39-11.41,4.93-17.66,2.58,4.23,4.61,4.75,7.76,2.46-.44-2.14-.84-4-1.41-6.77l-5.41,2.92c3.31-3.81,7.62-6.86,8.7-12.34.15-.77,2.17-1.17,3.64-1.9l-2-1.08a50.19,50.19,0,0,0,4.17-5.93c.82-1.61,1-3.56,1.42-5.36l4,4.33c.81-1.82,1.71-3.83,2.61-5.83l1.45-.06-3.34-5.89c-7.61,7.28-14.29,14.51-21.86,20.63-5.61,4.55-12.21,8-18.69,11.32-5.83,3-7.11,4.68-6.29,11.49l-4.15-4.42a10.64,10.64,0,0,0-3.44,1c-3.24,2-6.27,4.26-9.45,6.32-2.8,1.82-4.06,5.23-7.75,6.38-2.19.69-2.41,3.45.3,5,.43.24,1,.25,1.37.58,4.06,4.14,4,4.15,11.07,4.77l-8.54-6.38c3.25-.39,7.27.81,6-4.3-.11-.44,3.17-1.72,4.61-2.48,1.38,6,2.48,11.2,3.87,16.35.23.87,1.67,1.41,2.55,2.1-3.64,1.34-7.64,2.16-9.78,6.55,11.55,5.19,8.31,15.23,8.9,25.71l-8.21-6.26c1.29-.78,1.79-1,2.25-1.38s.84-.72,1.65-1.42c-4.65.28-5.71,2.77-4.35,7.36.84,2.87.95,6,1.39,8.93l-1.32,1.15,5.14.94,1.26-7.29c3.65,0,6.22,4.05,4.41,8-.73,1.6-.57,3.75-.37,5.6.3,2.79,1,5.53,1.63,8.91l5.14-4.47h4.15l-4,9.61-1-.36v14.66c-1.8-.48-3.18-.56-4.19-1.2s-1.45-1.77-2.69-3.39c-4.44-.12-5.6,4.64-8.11,7.8h-2a11.65,11.65,0,0,0-.55-2.76c-2.46-5.23,1.6-6.39,5.54-8.45-5.69.16-8-3.42-9.61-7.85l-1.8.53q.71,9.27,1.42,18.53h-10l1.11-5c-8.88-3.85-16.63,2.91-25.63,2.44l1.54,2.53h-4l-3.53-6.89-4.46,6.89H155.63c-2.92-4.64-7.47-4.27-12-3.94-4.19.31-8.37.72-12.57.89-3.66.14-7.33,0-11.22,0,.34-2.18.7-4.5,1.06-6.83l-1.52-.67c-1.15,2.3-2.31,4.6-3.64,7.27l-3.57-.43-.36,1.37,6.86,2.31h-15l-4.75-8.93,7.22.59c.47,1.49.94,3,1.86,5.84l3.84-10.1,4,1.44c-4.4-6.69-1.13-8.44,5-7.95l-4.49-6.18c-2.27,4.52-5.52,7.63-11,7.64a4.69,4.69,0,0,0-2.4.61c-8.55,5.63-18.43,8.94-26.56,15.27-.45.35-.53,1.17-.78,1.77h-49v-15c6.78-2.9,9.77-9.47,14.27-14.6a72.3,72.3,0,0,1,10.52-10.4,246.34,246.34,0,0,1,22.13-15c4.56-2.72,9.72-5.31,14.87-6,7.56-1,14.08-2.35,19.84-8.14,8-8,18.64-12.37,28.71-17.34,5.72-2.82,11.42-5.74,17.36-8,1.85-.7,4.56.26,6.68,1,3.39,1.2,6.51,3.19,9.93,4.22,5.89,1.78,11.91,3.16,17.92,4.5,1.18.26,2.57-.45,4.21-.78-6.84-3.86-12.73-6.91-18.27-10.51a6.44,6.44,0,0,1-2.36-5.37c.39-2,2.21-4.66,4-5.19,9.58-2.87,18.79-.49,26.44,5.18,3.87,2.86,7.37,3.56,11.61,3.66,2.75.06,5.5.23,8.25.36l.69-1.16c-1.73-.92-3.41-2-5.21-2.73-2-.83-4.09-1.37-6.52-2.17,8.69-7.14,10.44-8,12.3-7.3,1.54-2.33,2.45-4.78,4.21-6.11,2.29-1.72,6-1.88,7.8-3.9,5.82-6.64,17.13-5.41,20.82-14.84.13-.34.88-.41,1.32-.65,7.36-3.95,15.72-6.74,17.81-16.53.32-1.52,2.23-2.86,3.66-4,3.57-2.77,7.26-5.42,11-8a7.24,7.24,0,0,1,3.2-1.13,39.85,39.85,0,0,1,4.59,0l6.49,4.59L302.64,993l6,7.08c1.64-4.34-2.24-7.21-3.82-10.78,1.28,0,2.54,0,4.39,0-.16-3.16-1.45-6.8-.17-8.67,2.06-3,5.8-4.89,8.87-7.19,1.3-1,3.21-1.47,4-2.72,2.78-4.43,5.09-9.14,7.77-13.62,1.94-3.24,3.68-6.86,6.4-9.31,6.3-5.68,13.13-10.77,19.81-16a3,3,0,0,1,2.67-.44c5.49,3.67,9.14,1.15,12.1-3.65,2.88,3.94,3.47,4,5.38.42,2.72-5,2.91-5,7.51-.57-.55,1.23-1.11,2.46-1.38,3.06l9.65,1.26c.52-3.67,6-4.4,6.75-3.4,2.85,3.72,5.13.2,6.44.57-1-1.92-2.07-4.12-3.8-7.59l6.38,2.62c.16-1,.33-2.07.49-3.11-6.16-.15-12-3-18.76.86a25.19,25.19,0,0,1,5.46-4.44c5.07-3,9.2-7.54,15.75-8.21,2.78-.28,6.49-2.59,7.66-5,2-4.18,2.34-9.17,3.42-13.81,2.58-11.15,4.58-22.47,8-33.36,2-6.31,5.78-12.24,9.61-17.75,5.15-7.43,11-14.39,16.8-21.34a36.43,36.43,0,0,1,7.17-6.12c5.31-3.74,11.79-1.12,17.5-2.89.27-.08.64.13.95.23,7.57,2.58,9.57,1.71,13.79-4.88,1.09-1.72,3.41-2.66,5.17-4l1,1.19a30.83,30.83,0,0,0-3.94,3.7c-.8,1.05-1,2.53-1.48,3.82,1.32,0,3,.53,3.9-.08a59.73,59.73,0,0,0,6.78-5.67c2.6-2.36,4.82-4.46,9-5,5.31-.64,10.33-3.54,15.51-5.37a64.28,64.28,0,0,1,7.65-2.23,29.3,29.3,0,0,1,5.06-.22c-.09-2.07.25-4.28-.37-6.17-1.13-3.43-3.17-6.56-4.25-10-2.35-7.58-4.74-15.2-6.39-22.95-2.4-11.28-4.37-22.66-6.13-34.06-.93-6-.85-12.1-1.55-18.12-.59-5-1.57-10-2.51-14.91-1-5.16-2.09-10.29-3.2-15.42-1-4.68-2.45-9.3-3-14-.5-4-.12-8.17,0-12.26.1-3.69-3.8-7.26-.33-11.12.17-.18-.9-1.57-1.5-2.32s-1.91-1.56-2.23-2.54c-2-6.38-3.89-12.81-5.93-19.61-12.16-1.75-25.43-3.89-38.76-5.5-19.65-2.36-36.24-10.26-49-25.59-4.71-5.65-6.13-12.07-6-19.44.36-15.36,11.61-24.26,19.69-35.09a2.78,2.78,0,0,1,1.24-.8c5.28-1.9,10.45-4.36,15.9-5.51,6.77-1.42,13.78-1.72,20.67-2.56a53.16,53.16,0,0,1,32.25,6.23c6,3.21,12.05,6.26,18.63,9.67.61-2.51.95-3.76,1.2-5,3.08-15.45,6.28-30.89,9.15-46.38a87.17,87.17,0,0,0,1.11-14.36c.11-7.77-.44-15.56-.08-23.31.15-3.17,2.37-6.18,2.95-9.39,2-11.23,3.82-22.51,5.62-33.79.48-3,.32-6.21,1-9.18,4.8-19.91,6.5-40.5,13.6-60,1.61-4.41.65-9.49,7.07-10.33-1-2-1.59-3.41-2.37-5.1,9.11,0,17.71,0,26.31,0,1.81,0,3.72.92,5.41.57,6.6-1.38,13.14-3.05,19.68-4.73,6.22-1.59,12.31-3.81,18.6-4.9,13.38-2.33,26.86-4,40.27-6.15,4.22-.66,8.32-2.32,12.55-2.64,5.24-.39,10.56.12,15.84.26,15.11.39,30.25.25,45.3,1.33,15.6,1.13,31.12,3.37,46.65,5.31,2.75.34,5.93.93,7.91,2.6,1.81,1.52,6.29,2.9,3.35,7.09-.08.12.24.51.48,1l4-1.11c-.26.47-.51.95-.77,1.43l14.28,9.94-3.77-.35,6.81,11.28-1.51,1-6.65-9.13-1.68,1.34L822,338c-2.36-.7-4-1.12-5.63-1.69-1.45-.52-2.85-1.2-4.27-1.82v4.61c5.36.9,9.74,1.42,14,2.45,2.18.52,4.14,1.95,7.46,3.59,3.08-1.52-.54-5-.35-7.8l-.14.14c3.49,1.27,6.73,3.64,10.82,2.09.58-.22,1.61.32,2.26.76,3.37,2.31,6.67,4.69,10.52,7.42-1.71,0-3.52-.47-4.85.13s-2,2.25-3,3.44l.84.79,4.42-1.64c1.85,7.34,7,9.27,14,8.78-.64-5.2-9.1-1-8.66-7.23.28-3.89.28-7.8.4-11.7l1.42-.1,2,3.62c2.17-1.2,4-2.21,5.38-3v-4.08c1,.77,2,1.52,2.91,2.32,1.55,1.32,3.08,2.68,4.65,4.05l-1.35,3,9.92,2.49-4.69,5c9.64-1.94,9.64-1.94,10.81,4.34l6.46.88c0,.41,0,.82-.07,1.24l-3.75,1.24c2.89,5,7.09,7.05,10.59,5.63l4.74,6.39c-3.77.21-3.61,2.1-2.42,4.93,2.27,5.4,4,11,6.23,16.45.49,1.18,2,2.05,3.14,2.81a8.8,8.8,0,0,0,2.68.69l-.15,1h-8.09c3.74,3.35,5.86,6.8,3.45,11.5-.32.62.29,1.84.67,2.68,2,4.47,4.1,8.91,6.16,13.36l-2.29.29c-.52,10,2.88,20,1.16,29.93l-1.86-.25c.54,3.59,1.54,6.83,1.36,10a7.74,7.74,0,0,0,3.14,7.21c3.46,2.93,7,6.22,2.64,11.29-.71.83-.48,2.51-.56,3.8q-1,16.62-2,33.23c-.22,3.78-.79,7.6-.45,11.33.47,5.07,2.21,10.05,2.4,15.11.24,6.26-.76,12.56-.76,18.84a6.42,6.42,0,0,0,2.68,4.85c3.79,2,8,3.13,12,4.8,9.3,3.92,18.09,9.27,28.57,9.79.86.05,2.43.91,2.4,1.29-.38,4.82,3.09,2.87,5.08,2.81,8.41-.24,16.82-1.08,25.22-1,5.73.07,11.44,1.35,18.33,2.25-2.39,2.58-3.67,4.31-5.28,5.63C998.91,609,983.41,615.5,966.89,619c-13.75,2.92-27.87,4-41.81,6.07a24.12,24.12,0,0,0-4.84,1.77c1,1.38,2,2.78,3,4.14.55.74,1.18,1.42,2,2.39l-4.34,1.13,2.29,5.16c-2.75,7-5.46,13.46-.07,20.55l-1.61.77L914,657.18c-4.89,5-15.53,7-12.27,18.05l-3.12-11.51-9.26-1.92c-.28,1.36-.57,2.72-1,4.89-1.9-3.36-3.41-6.05-4.2-7.46-3-.75-5.68-.6-6.64-1.82-2.3-2.93-4.33-3-7.39-.08-1.69-4.36-3.14-8.1-4.45-11.51-4.73,2.07-3.61-4.65-7-4.19-.25,3.19-.51,6.42-.79,10l-4.41-4.2.06.07V636.77l-1.61-.08c-1.35,7.5-2.48,15.06-4.11,22.5-1.68,7.69-3.86,15.26-5.83,22.88-4.71-12.94-3.14-26.91-5.44-40.53l-2.34,3.85-2.63-6.15c-.23,3-.36,4.71-.6,7.92l-5.83-8.89c.87,6.52-.89,13,5.83,16.51.34.18.35,1.26.3,1.89-.32,3.37-.7,6.72-1.06,10.08l-.7.32-4.23-14.66-1.45.3a19.49,19.49,0,0,0,0,4.39,76.28,76.28,0,0,1,.23,33.55c-.87,4.27-1.8,9-7.64,12.14,1-4.32,1.8-7.45,2.57-10.68h-2.12c.3-5.38.6-10.72.89-16.06l-1.55-.21-5.1,9.32-.88-.2q.88-6.75,1.76-13.51l-1.35-.15c-1.5,3.2-2.71,6.58-4.58,9.53s-4.3,5.22-6.9,8.29c-.78-1.87-1.2-2.89-1.62-3.91l1.39.45c1.63-3.37,3.27-6.73,5.41-11.14l-4.67,1.54-1-1.24c1.19-1.07,2.29-2.92,3.57-3.06,5.33-.56,6.4-3.89,6.6-7.92a22.12,22.12,0,0,1-4.07.47c-.29,0-.91-1.53-.69-2.09,1.69-4.28,3.54-8.49,5-12-1.74-5-3.2-9.21-4.66-13.4-4.07,1.27-5,7.4-10.43,4.86,1.28-1.56,2.74-2.64,3.17-4,.5-1.61.11-3.5.1-5.27a22.5,22.5,0,0,1-4,0,23.72,23.72,0,0,1-3.89-1.31c-1.25.81-2.79,2.58-3.84,2.33a10.65,10.65,0,0,0-9.68,2.18c-.52.4-2.24-.19-3-.82-.43-.37-.36-1.92.06-2.57.55-.85,1.67-1.33,2.9-2.24-6-3.43-7.45,2.35-9.59,4.65-3,3.26-5,2.21-7,1.07.35-2.66.6-4.52.85-6.38l-7.47-.76,2.37,3.61-.62.37-7.29-8.1c-.09-1.1.41-3.79-.53-4.46-1.65-1.17-4.17-1.46-6.34-1.5-2.37,0-4.74.63-7.39,1-.08.52-.26,1.57-.33,2-4.58-.31-8.81-.54-13-.88-2.68-.22-5.36-.51-8-.92s-5.45-1.73-8-1.43c-8.19.94-16.28,2.92-24.48,3.54-3.82.29-6.79.51-8.18,4.19-1.5-.59-3-1.79-3.9-1.44-4,1.58-8,2.26-11.34-.69-4.7-4.15-8.19-.71-11.4,1.69-1.88,1.41-2.54,4.46-3.74,6.76,2.58.11,4-1.14,5-.91,9.12,2,18.14,4.52,27.28,6.45,3,.64,6.34.15,9.5,0a24.67,24.67,0,0,0,4.41-1.13c-2.89,6.58-.38,9.5,5.8,9.77,4.62.21,9.23.52,14.89.85l-2.51,4.06c6.15,6.28,11,14.71,19.93,13l12.9,7.69c2.14,2.83,4.82,6.27,7.35,9.81a17,17,0,0,1,1.43,3.44c-1.27.14-2.66.67-3.8.34-6.21-1.79-12.35-3.83-18.55-5.68-.74-.22-1.67.22-3.09.44l9.3,8.67-1,1.53a26.22,26.22,0,0,1-4.49-2.36c-3.76-3-7-7-11.13-9.12a143.91,143.91,0,0,0-23.35-9.15c-4.51-1.34-9.6-.72-14.43-1l-.19,1.37c15.53,1.31,27.13,11,40.12,18.33a4.3,4.3,0,0,1-3.25,1,32.28,32.28,0,0,1-9.79-4.1c-5.66-3.22-12.82-2.34-19.38-2.81-.55,0-1.17.91-1.69,1.35l3.23,2.54c-1.49.27-3.6,1.3-4.37.68a80.27,80.27,0,0,1-7.3-7.44c-2.1,1.91-6.25,1.28-7.84-2.4-1.07-2.46-2.16-2.86-4.78-2.93-3-.08-5.94-1.7-8.89-2.68-1.19-.39-2.44-1.35-3.52-1.18-6.54,1-10-4-14.51-7a66.52,66.52,0,0,0-6.56-3.38c.11-1.93.37-4.72-3.64-6.87-3.42-1.84-5.82-5.61-9.29-9.15h-3.49c.57,2,1.69,4.74-2.56,3.21-.44-.16-1.18.26-1.68.58-1.57,1-3.08,2-4.76,3.15l-2.55-6.62c-1.88,2.46-3.54,3.82-4.11,5.54-3,8.82-3.26,9-12.06,5.21-.14-.06-.32,0,.34,0l-5.56,5a33.43,33.43,0,0,1,3.7-.19,91.23,91.23,0,0,1,9.36.91c.62.11,1,1.72,1.46,2.63-.93.33-1.91,1-2.8.91a60,60,0,0,1-9.65-1.48c-1.95-.53-3.65-2-5.47-3.05-1.14-.66-2.29-1.3-3.43-1.95l6-1.53c-3.37-2.54-5.87-5.51-9-6.5-4.4-1.39-5.54,3.14-7,6-1.39,2.73.58,3.72,3,4.3a5,5,0,0,1,1.91,1.26l5.21-3.68-5.19,9.6-5.76-1.49L558,669.57l-2.95-4c-2,.39-7.53-3.58-6.52-5.39,2.84-5.15-2-5.3-4-7.75.67,3.69,1.26,6.93,2,10.73l-5.8-3.62-1.26,1.6,16.81,15.42-15-2.44-3.57-8.66c-1.53,2.29-3,3.53-2.79,4.42.22,1.06,1.76,2,2.9,2.67a21.81,21.81,0,0,0,3.6,1.44l-7.66.38,3.37,4.44-7.24-4.14c-.48,3.39-.85,5.95-1.22,8.61l3.45,3.87-.75.87-3-1c.58,2,1.71,3.79,1.36,5.15-1.79,7,1.41,12.18,5.31,17.42a21.1,21.1,0,0,1,3.61,7.79c1.59,7.2-1.49,15.11,3.3,22.49,3.47-3.9,6.33-8,10-11a27.4,27.4,0,0,0,9.82-16c1.33-6.85,2.58-13.4,7.76-18.59,1.52-1.51,2.38-3.69,3.53-5.56l-1.12-1.11-8,5.78c-5.71-2.93-11.81-6.2-19-6.86-4.07-.37-5.69-4.18-4.48-8.16,5.95,1.62,11.85,3.41,17.85,4.76a21.89,21.89,0,0,0,7.13-.05,105.28,105.28,0,0,0,11.6-1.85c2-.46,5.18-1.32,5.56-2.64.47-1.66-1.14-4.14-2.31-6-.75-1.17-2.32-1.82-4-3.06l8-1.21c-4.47,5.64,2,5.37,3.53,8.56-3.75,5.1-8,10.12-11.39,15.68-3.64,6-6.48,12.47-9.63,18.76a5.75,5.75,0,0,0-.81,2.84c.67,6.86-3.65,12-6.33,17.55-3.39,7-7.8,12.89-7.71,21.7.1,8.61,0,16.53,5.77,23.81.26-1.08.48-2.05.75-3.23,1.17,2,1.84,4.54,3.44,5.47,1.43.82,3.9-.15,6.28-.36v4.19c2.63,0,5.06-.5,7.2.09,9.29,2.53,18.39.47,27.55-.66,10.7-1.32,21.42-2.53,32.74-3.86l-6,12-2.72-2c-3.94,1.79-8.2,5.54-11.63,4.88-5.54-1.05-7.76,3.4-11.82,3.86l5.53,5.09c-.16.44-.31.89-.47,1.33a51.57,51.57,0,0,0-7.05.58c-2.28.5-3.75-5.56-6.09-.41l-2.62-2.83-1.85,3.32c-2.08-6.31-5-1.53-7.94-1.22-1.86-5.19-4.83-2.5-6.46-1.42l-14.77-6.52c-4.29,4.95-4.39,8,3.3,9.68,8.8,1.86,17.94,3.3,21.81,13.36.33.87,1.51,1.41,2.25,2.07-3.51,4.29-6.36,1.89-8.28-.8-3.35-4.68-8.15-5.13-13.1-5.68-1.5-.16-3-.52-4.48-.78-1.7,6,2.77,15.38,9.75,18.62-9.41,6-9.46,13.6-3.56,22.35a88.8,88.8,0,0,0,9.44-3.36c4.32-2.07,7.94-8.39,7.33-11.93Zm47.69,258.33c-1.16-1.12-2.27-2.27-4.23-4.24-.62,1.6-1.47,3.8-2.45,6.31h9.28c-1.06,1.2-2.41,2.25-3.12,3.63s-.75,3.07-1.25,5.39l3.45,3.19c7.76-4.93,8.44-7.68,4.55-16.74l-3.74,4.67C635.38,1098.93,634.52,1098.22,633.72,1097.45Zm71.76-678.9c6.52,2.2,4.14,5.42,1.45,8.94l4.83.76.9-4c.51.31,1,.45,1.2.77,1.13,2.26,8.42,4.89,10.39,3.49a3.72,3.72,0,0,0,1.47-2.91,4,4,0,0,0-2.1-2.89,95.57,95.57,0,0,0-9.47-1.74c.09-1.1.21-2.71.33-4.31.43-.7,1.37-1.6,1.19-2.07-1.23-3.3-2.7-6.51-4.45-10.56-.84,3-1.5,5.44-1.91,7l5.25,5.73C711.84,417.3,709.09,417.84,705.48,418.55ZM854.86,1071c2.51-.26,3,7,8.26,2.83l-3.61-1.75,3.23-2.48-4.3-1.36c1.93-.85,3.07-1.36,5.18-2.31l-5.62-1.77-2.36,4.13c-.13-3.15-2.07-2.13-3.85-1.65s-3.59.87-4.15,1c-1.55,2.33-2.82,4-3.8,5.82-.51,1-1,2.42-.64,3.25,2.54,5.56-.05,7.09-6.05,6.36l10.28,6-4.37,2.94c-.63-1.72-1.12-3.06-1.83-5-.82,5.31-.82,5.31,8.17,9.31,2.41-2.41-1.69-8.11,4.48-9.08l-6-1.89.12-1h6.68c.07-.38.15-.76.23-1.14l-4.89-1.68,5-2.15-2.84-2,3.6-1.5-5.12-5.94,5-1.59C855.38,1069.22,855.1,1070.19,854.86,1071Zm19.57-184.52c2.24-4.11,3.35-8.84,5-13.48l-5.46.87c.11,2.41.21,4.73.39,8.56-1.73-2.76-2.65-4.24-3.71-5.92-3.32,1.35-6.47,1.79-6.85-4.41-2.79,2.58-6.37,4.39-6.5,6.41s3,4.47,5.11,7.21h-7.56l9.41,10.56a71.68,71.68,0,0,0-2.54,7.3c-.22.9.62,2.06,1.26,3.92,2.13-4.41,6-7.51,1.24-11.23C870.27,895.83,872.16,890.68,874.43,886.51ZM698.24,391.44l-7.4-14.92-4.53,4.42.66,1.21-17.67-.91c-2.79,6.68-8.78,8.86-18.89,5.46-2.79-1.83,1.28-6.18,2-11.47-2.56,3.74-4.33,6-5.74,8.5-.82,1.43-1.93,3.64-1.38,4.69.78,1.47,3,2.12,4.56,3.27a11.61,11.61,0,0,1,3,3c1.67,2.75,3.06,5.67,4.59,8.5.79,1.47,2.7,3.65,2.3,4.21a14.64,14.64,0,0,1-5.61,4.89c-2,.87-4.63.42-7.2,1.21,4.61.42,9.39.23,8.45,7.26,1.76-3.16,3.51-6.33,5.56-10,4.09-.73,4.09-.73,10.73,5.91a52.24,52.24,0,0,1,7.09,2.55c-.55-5,1.87-7.27,6.95-7.54-.41-2-2.81-5.11,3-4.42l-1-1.89-4.83-.32c-.51-1.43-1.17-3.33-2.05-5.83,6.4,2.77,12.41,5.61,18.62,7.93,2,.75,4.59.12,6.91.12l.57-1.41-3.1-1.52c6.91-8.92,12.65-.44,19.12.33,2.7-5.65,6.1-1.41,9.27-.08.78.32,1.34,1.9,1.44,2.95.22,2.2.07,4.43.07,7.08h-6.31c.82,2,1.34,3.26,2.06,5-3.14-1.92-5.63-3.56-8.26-5-.63-.33-1.69.15-2.56.26.2.73.18,1.77.66,2.14a37.69,37.69,0,0,0,6,4c3.68,1.87,3.17,4.64,2.32,8.22h12.5l.16-.75-10.38-4,.28-.57h13.75L735.67,413l5.73.37,1-1.32-4.44-1.74,8-2.55c-5.06-4.16-7.59-.73-10.79,3.72.31-3.29.5-5.18.7-7.29h4l-4.42-5.23,5.69-.95.06-2.07-15.68-2c-1.42,4.36-5.88,6.54-9.57,4.65l6.05-4.95c-5.73-4.18-10.07-.3-15.61,3.24l1.57-4.87-7-3.53c1.31,2.73,2.31,4.79,3.61,7.51l-6.43-4.69ZM464,550.74c-.09,2-.19,3.92-.29,6.09l-4.59,2.08.9-.79-10.69-2.37c-.49.81,6.68,2.37,6.4,6.63l-8.31-6-5,4.39,4.12,1.31c-5.05,3.31-13.8,1.79-16.71-2.55-.44-.66-1-1.5-1.65-1.7-1.95-.59-4-.89-6.3-1.38-.44.76-1.31,2.3-2.44,4.3-.66-2.8-1.13-4.84-1.61-6.87l-1,.15c-.34,3.41-.92,6.83-.93,10.25a8.41,8.41,0,0,0,1.64,5.11,95.27,95.27,0,0,0,19.89,17.85c10.16,6.79,21.47,7,32.66,8.55,7.71,1.09,15.39,2.67,23.13,3.17,13.17.85,26.39.91,39.57,1.53,5.34.25,10.64,1.38,16,1.62,5.54.24,11.1-.11,16.65-.19.74.31,1.49.93,2.22.9,13.06-.42,26.13-.85,39.18-1.41,28.11-1.23,56.21-2.59,84.32-3.78,23.55-1,47.1-2,70.65-2.67,26-.77,52-1.13,78-1.89,9.62-.28,19.21-1.53,28.83-1.77,15.76-.39,31.52-.34,47.29-.42,2.45,0,4.91.21,7.37.33l.83-1.67c-5.17-3.26-10.06-7.13-15.57-9.62-9-4.09-18.46-7.34-27.78-10.78-1-.36-2.35.41-3.55.65l.21,1.56c-.6-.15-1.47-.1-1.77-.48-5.31-6.81-13.14-7.51-20.78-9.13-7-1.49-13.76-4.15-20.71-5.93-9.65-2.46-19.42-4.44-29.06-6.92-4.75-1.22-9.27-3.31-14-4.58-2.35-.63-4.95-.31-7.3-.42,2.2,2.77,3.73,5.29,5.83,7.19s5,3.45,7.53,5.14l-.14-.14c-.68,1.92-1.37,3.83-2,5.56l-15,1.25c0-.39.07-1.59.14-3-1.13,0-2.34-.38-2.94.06-4.1,3.07-8.48,2.06-12.94,1.29-4.62-.8-9.49-.74-13.84-2.25-2.91-1-5.5-1.85-8.44-1.11-5.08,1.29-10.07,3.12-15.22,3.88-3.19.47-6.62-.64-9.94-1-1.51-.15-3-.18-4.55-.26-.1.52-.21,1-.31,1.56l-3.63-3.39c-4.68,3.57-9.16,8.33-15.22,2.64-3.78,4.06-7.85,3.43-12.26,1.66-2.06-.82-4.42-.86-6.65-1.22-.47-.07-1.28.17-1.4,0-3.74-6.4-7.74-1.2-11.62-.39l0-1.27c-2.63-.12-5.25-.33-7.87-.32s-5.33.58-7.94.32c-6.35-.63-12.63-1.47-18.12,5.62V559c-1.77.53-3.57.61-4.56,1.55-.61.57-.32,2.6.17,3.71.65,1.46,1.88,2.66,3.19,4.41l1.82-1.19.8,1.18c-1.27.87-2.43,2.19-3.83,2.51-3.28.76-5.12,2.13-4.17,5.44l7.12-1.36c1.18-2.87,2.46-6,4.4-10.71.58,3.39,1.45,5.63,1.18,7.73-.22,1.74-1.77,3.32-2.57,4.68l13.12,1.17c0,.42.07.84.11,1.26-.77.36-1.7,1.19-2.28,1-2.81-.95-3.83.38-4.69,2.81-1.1,3.12-1.88,5.89-7,3.85-3.25-1.3-7.79.68-11.77,1-2.72.23-5.48,0-8.19.27-1.34.13-2.6,1-4,1.54-2.65-2.44-2.77-2.42-5.87,2.62,1.23,1.38,2.37,2.63,3.5,3.89-.5.37-1.05,1.11-1.48,1-1.59-.24-3.13-.74-5.06-1.24-.16-.9-.41-2.27-.72-4-3.94,1.29-7,8.8-11.27,1.32-5.09,3.14-9.54,8.48-15.37,3.11l-4.59,5.41-4.39-6.42c-2.73,4.09-5,4.75-9.17,2.21-2.36-1.44-6.77.67-10.28.85a10.67,10.67,0,0,1-5.14-1c-3-1.54-5.85-3.69-8.48,1.8-.47-2-.69-3-1-4.52-4.49,5.33-9.89,3.69-15.21,2.67a9.15,9.15,0,0,0-2.85-.18c-7.28,1-8.79-.12-9.49-7.47H482.82c1-1.79,1.53-2.8,2.55-4.66-4.7.16-8.66-3.58-13.06.83-.61-1.36-1.19-2.62-2-4.39-3,3.67-5.82,4.57-8-.95,14.17-2.28,28.31-4.23,39.57-14,4.56-4,9-8,13.42-12-3.73-4.92-6.7-4.93-9.23-1.41-1.92-.39-3.56-.41-4.9-1.05-2.94-1.41-5.58-3.58-8.63-4.58-2.53-.83-5.46-.42-8.21-.61-2.14-.14-4.29-.37-6.54-.56-.78-4.36-3.48-7.4-8.46-9.88,3.81,6.34,7.08,11.75,10.78,17.89l-9-2.12,2,5.73.13-.12C467.06,557.62,467.06,557.62,464,550.74ZM839.29,381l.65-.92c-4.2-4.16-8.41-8.31-12.75-12.59l-3.37,1.71c-.25-1.48-.16-3.14-.83-4.41a85.1,85.1,0,0,0-5-7.39c1.88-.74,4.22-2.3,6.68-2.5,3.71-.3,5.09-1.48,3.4-4.87-1.29-2.56-3.42-4.7-5.53-7.51-1.2,2-2,3.3-3,4.93l4.57,1.92-6.35,3v-6.74c-1.61,1.42-3.28,2.67-3.18,2.84,3.05,5-2.26,6.27-3.93,9.13a9.22,9.22,0,0,0-.62,2.12l11,7.42-.62,1.69c-5.36-5.35-9.35,2.41-14.4.81-.25-1.85-.49-3.66-.74-5.48l-1.28.28c-.67,2.79-1.34,5.59-1.87,7.83l7.22.87c-1,1.34-2,2.68-3.5,4.58l4.46,1.54v5.92l5.55-1.28c-1.8,4.35-3.2,7.72-5.23,12.58-.58-2.27-.58-3.81-1.32-4.79a9.9,9.9,0,0,0-4.62-3.05,18.27,18.27,0,0,1,1.42,2.6c.9,2.54,2.83,5.46,2.19,7.58s-4,3.25-6,5c-2.48,2.12-4.82,4.41-7.26,6.67-.21-.93-.57-2.56-.82-3.69-2.64.88-6,3.13-7.63,2.24-2-1.07-2.45-4.83-3.57-7.4-1.13,1.87-2,4.66-3,4.76-2.66.23-5.43-.77-8.15-1.28l.33-1.55,2.43.46.9-1.14c-1.71-1.25-3.3-2.78-5.19-3.62-.78-.35-2.21.78-4.4,1.66l-1.65-2.35L761,404.36l-2-3.81c-4.14,5.36,1,14.69-9.6,17.42l8.79,8.36-9.85,2.17v1.64c5.25.58,10.5,1.17,15.75,1.73,3.47.37,7,1.25,10.39.9,3.2-.33,6.26-2,9.48-3.08-.23.65-.6,1.73-1,3l48.34,9.83c.12-.7.29-1.72.46-2.73.59,0,1.15,0,1.18.1,2.16,6.32,8.34,6.5,13.21,8.12,8.64,2.86,17.53,5,26.38,7.18a10.29,10.29,0,0,0,5.51-.43c3.64-1.28,6.21-.4,8.71,2.51,1.84,2.14,4.38,3.67,7.51,6.21v-4.93l5.87,2.07c2-9.54-.91-17.71-6-25.57l-3.17,2.57-.36-.15c1.46-2.3,1-3.85-1.35-5.44-.38-.26.23-3-2.21-3.05.65-2,1.31-3.92,2-5.94-.64-2.93-1.4-6.34-2.5-11.33-1.82,4.31-4.21,7.48-4.19,10.64,0,3.36,3.87,6.49,1,11.41-1.31-4.13-2.38-7.48-3.68-11.57-.93,1.93-1.56,3.25-2.53,5.25l-4-9.26c4.25-5-6.58-5-5.15-10l4.63.58c-3.11-5.5-5.41-10.3-8.48-14.54-.88-1.22-4.56-1.81-5.95-1-3.15,1.86-5.7,4.76-8.46,7.28-.47.42-1.22,1.25-1.08,1.52,2.28,4.63-2,6.94-4,10.32,1,.36,1.7.91,2.11.73,4.61-2,6.81-1.36,5.43,4.36-.25,1,1.2,3.42,2.07,3.52,2.45.3,5-.27,7.94-.53l-6.61,9.93c-.31-2.14-.58-4.09-.86-6l-.83.79c-1-1.38-2-2.78-3.07-4.12-.35-.44-.93-.69-1.3-1.11-2-2.31-6-5-5.65-6.9,1-6.26-3.52-9.61-5.63-14.19a36.63,36.63,0,0,0-2.41-3.79c3,.72,6.2,1.68,5.11-3.61-2.58,1.33-5,1.94-3.84-1.77-2.57-.21-5.08.14-7.1-.7-2.66-1.1-3-3.1-1-5.78.43-.57-2.26-3.5-3.65-5.54l-4.46,2.81c.06-3.23,3-4.64,6.24-3.72,1.77.5,3.75.27,6.6.41,0-.19.11,1,.25,2.17-2.81,4.1-2.78,4.15,5,5.91l-5.15-6Zm-52,547.33c.22,1.33,3.29,2.18,5.44,3.46-.19.24-.94,1.49-1.15,1.4-3.24-1.29-8.37,2.27-9.51-4.3a15.91,15.91,0,0,0-2.55,2.27c-1.42,2.07-6.28,1.66-4.57,5.87.94,2.33,8.36,2.8,11.26,1a3.82,3.82,0,0,1,2.93-.56l-2.85,3.92,16.56,3.07-8.47,3.82c-2.77-2.07-7.17-1.7-10.24,1.38l6.14,1.3c.39,3.75-2.07,5.66-4.61,5-2.93-.81-5.93-.5-8.53-1.19-4.33-1.15-5.07,1.7-7.78,4.46,3.23.78,5.8,1,8,2,2,.89,3.62,2.59,5.47,4,.12-.29.54-1.26.37-.86,4.21,0,7.56.26,10.85-.07,3-.31,6.17-2,7.91,2.88,1.56-2.63,2.8-4.69,4.38-7.33l-8.15-3.05c1.31-3.63,3-4.57,6.21-2.84,1.79.95,4.08,1,7.26.42l-6-6.44,15-4.18c2,1.56,4.15,6.22,9.94,4.51l-18.46-12a34,34,0,0,1,3.37-1.3,25.3,25.3,0,0,1,3.16-.45c-.79-1-1.56-2.12-2.39-3.14a7.79,7.79,0,0,0-1.48-.93l4.51-1.61-1-2.11c3.33-1.31,8.47,1.4,9.62-4.83L823,919.23l5.11-2.37-.86-4.59,4.78-.49c1,2.35,2,4.7,3.33,7.86,2.17-3.61,3-6.39,4.9-7.74s4.67-1.07,7.2-1.54l-2.13-3.16.66-.71,8.77,6.45,3.42-4.22c-2.33-1.46-4.32-2.78-6.39-4s-4.18-2.24-6-3.21c-2.3,0-4.69-.4-6.83.16-1.17.31-2,2.19-2.83,3.46-1.47,2.21-2.82,4.5-4.23,6.76-1.88-3.57-.47-6.21,2.79-8.45l-1.8-3.44c6.56-6.27,13-12.39,19.59-18.71l-3.9-2.66c4.24-4,7.88-8.23,12.36-11.22,1.85-1.23,5.83-.47,8.22.68,2,1,3.16,3.56,5.6.89l2.14,2.44,5.36-6.65c-3-5.79-3.34-5.67-8.33-2.23-1.27.87-5.27.39-5.64-.48a26.67,26.67,0,0,1-2-9.83c0-2,1.51-4.06,2.35-6.1l1.45,1.8c.74-1.75,1.08-4.56,2.31-5,2.49-1,5.47-.63,9.35-.91.85-1.79,2.37-5.38,7.66-3.3l-1.81-3.3c.89-3.32,1.6-5.84,2.23-8.37.86-3.45,2-6.88,2.38-10.39.44-4.32,1.42-9.16,0-13-3.47-9.45-8.09-18.49-12.43-27.6-1.27-2.64-3.19-3.06-5.44-.54-2.89,3.24-6.26,6.07-8.94,9.46-.85,1.08-.13,3.39-.13,5.53,3.25-.78,4.69-.09,4.22,3.57-.52,4-.12,8.12-.12,12.83l-5.28,2.52-1.5-4.74-7.45,3.85c.48,2.78,1.06,6.19,1.73,10.11-1.54,1.37-2.69,5.23-6.58,2-.36-.3-1.61-.26-1.75,0-2.13,3.82-3.82.67-5.81-.17a59.55,59.55,0,0,0-6.78-2l-.6,1.51,2.78,2.51c0,.25,0,.52-.11.55-6,2.14-3.53,11.59-11,12.64-1.92.27-3.66,1.91-5.81,3.1l5.06,4.5-3.51,7.12,6.49,3.5.21.91c-1.85-.16-4.15.34-5.46-.58-5-3.52-8.67-1.5-13.13,2.79l15.57,9.44L816,869.91l6.08,3.18-.76,1.22c-5.86-.06-12-5.24-18.08,1.64,2.52,1.92,5.12,3.7,7.47,5.77.91.8,1.26,2.24,1.87,3.39a21.87,21.87,0,0,1-3.65.48c-1.93-.08-3.86-.41-6.53-.72,1.92,3.93.94,5.56-2.78,6.39-2.12.48-4.94,2.28-5.54,4.11-1.26,3.86,2.53,4.12,5.1,5.06a25.66,25.66,0,0,1,3.32,1.83c-1.93,4.3-3.81,8.47-6.14,13.67-.66-2.27-1-3.3-1.24-4.29-2.1,0-4.09-.13-6.06,0-3.64.28-5,2.78-4.09,6.37.42,1.69-.17,3.63-.29,5.23l5-1.11v.14C788.81,924.33,787,926.51,787.25,928.33ZM498.51,1134.45l-1.44.55-4.14-3.67a37.34,37.34,0,0,0-2.63,5.43,4.93,4.93,0,0,0,.59,3.27,2.56,2.56,0,0,0,2.15.19,18.23,18.23,0,0,0,1.11-3.93l5.92,4.83a22.53,22.53,0,0,1,6.55-16.89c.43-.46,1.09-1.24.95-1.64-2.75-7.81,4.35-9.28,8.7-13.38a22.14,22.14,0,0,1-3.35-2.92c-1.17-1.49-2.58-3.19-2.74-4.91-.09-1,1.78-2.84,3.13-3.33,5.54-2,5-7.72,7.12-11.71,1-1.77.16-4.46.16-7.51l-3.9,3.69c3.32-6,5.58-12.14,2.87-19.33l-1.25,4.28c-6.31,1.08-9,4.29-7.22,7.92-3.19,2.56-6.29,5-9.4,7.53-.42.34-.85.65-1.28,1,4.31,3.66.32,6.57-1,9.63a2.72,2.72,0,0,1-2.52.88c-1-.61-1.62-1.86-2.91-3.49-.84,2-1.43,3.37-2.13,5l-4.89-1.22c3.25,6.26,8.9.37,11.33,2.87-1.44,4.27-2.77,8.13-4.06,12-.54,1.6-1,3.22-1.45,4.65C494.65,1120.9,496.58,1127.67,498.51,1134.45ZM691.84,963.92c-2.78-7.9-8.44-13.3-13.06-19.66-1.42-2-2-4.52-3-6.75a31.66,31.66,0,0,0-2-3.2l-1.5-.11c-.6,2.25-1.21,4.5-1.85,6.86h-5.94l-.27,1.92,8,1.53c1.84,4.11,4.09,9.1,6.55,14.59,6.4.29,4.52,7.07,6.69,10.81,3,5.13,4,11.4,6.21,18.31,1.58-1.52,4.25-3.09,4-4.09-.61-3.13-2.32-6-4.14-10.32C692.75,971.48,693.44,968.46,691.84,963.92Zm-151.37,54.46c.38-.55,1.12-1.56,1.81-2.61,2.57-3.94,2.16-5.06-2.55-5.36-3.46-.22-4-1.25-3.34-4.67,1.27-6.46-4.73-13.5-11.35-14.59-.91-.15-1.49-2.34-2.62-4.27l-10.19,2.65c6.83,8.73,13.68,17.5,21.34,27.28ZM686.25,428.15c-4.15-4.79-5.28-4.76-10.51-.2l-6.52-8-6.46.89,4.23-4.62-1.3-1.33-7.42,4.64,5.7,7.31L649.15,430c0,.59,0,1.18,0,1.77C661.35,429.67,674,434.08,686.25,428.15Zm94.33,551.21c-1.6-4.62-4.14-6.46-8.54-4.07-.64.35-2-.12-2.8-.63-4.45-2.94-6.54.86-9,3.21-.53.51-.37,2.26.07,3.15,1.18,2.43,7.45,3.37,9.69,1.91a7.3,7.3,0,0,1,4-.92c5.47.13,10.94.45,16.4.71C788.18,976.91,784.82,976.51,780.58,979.36ZM673,1013.63c-3.58,2.13-3.07,4.7-.17,7.51l-5.71,4.57c.61-4.65,1.57-8.33,1.33-11.93-.09-1.46-2.8-2.75-4.25-4.06-1.05,1-1.52,1.28-1.49,1.44,1.19,5.09,2.27,10.1.85,15.43-.33,1.23,1.7,3.1,2.32,4.13l13.32-12.41,1.08,1,2.78-11.38C679,1010.22,675.94,1011.87,673,1013.63Zm-536.24,79.25c.58.25,1.32,1.06,1.64.9,5.55-2.74,10.73.8,16.08.79a4.27,4.27,0,0,0,3.1-1.72c.56-.89.7-2.84.12-3.46a7.38,7.38,0,0,0-4.09-1.93,74.13,74.13,0,0,0-12-1c-5.67.16-11.74-2.26-16.91,1.44C129.14,1089.7,133,1091.27,136.75,1092.88ZM736.06,931.16c3-2.17,4.8-5.9,7.13-8.95l1.17.65-.46,2.85,1.46.21c.21-2.63.43-5.26.76-9.33L736.27,920l-3.61-2.41-1.25.58c2.54,4.06,1.43,6.1-2.3,8.43-2.39,1.48-3.16,5.57-4.85,8.85C729.12,933.78,733.17,933.27,736.06,931.16ZM708.62,386.21a84.5,84.5,0,0,0,8.09-3.34l-.48-1.51c-.82.06-1.79-.15-2.43.22-3.08,1.83-5.15,2.35-4-2.5a1.44,1.44,0,0,0,0-.94c-2.5-4.33-5-8.65-7.41-12.75-.71,3.57-1.61,8.05-2.74,13.73l-4.08-6.41c-.83,8.12,3.94,12,10.71,10.53C707.16,384.38,708.22,386.34,708.62,386.21ZM95.75,1117.66l-8.91,4.86-2.35-.91v3.54l15.33-.73,14-8.29c-2.28-1.74-3.51-2.75-4.8-3.66-2.23-1.56-1.5-.66-3.54,1.1-1.49,1.28-1.12,5.47-5.1,4.21-.72-.22-2.37,2.5-4.2,4.56C96,1120.64,95.92,1119.61,95.75,1117.66Zm96.89-20.12c-.51-.34-.75-.62-1-.69-7.94-1.93-15.88-3.84-24.11-5.82l-1.45-3.17c-2.89,5.22-.42,8,7.9,9.25l-1.31,2.68,19.37,1.45C192.23,1099.91,192.44,1098.67,192.64,1097.54Zm-68.47,14.54,2.52,10.51,19-10.42c0-.43,0-.87,0-1.31Zm673.18-103.77a23.42,23.42,0,0,0,6.73-2.2c.48-.24.19-3.48-.09-3.54-5.88-1.15-11.82-2-18.2-3C785.88,1006.14,790.48,1009.45,797.35,1008.31ZM699,1097.84l3.69,4.33v-9.43c-6.8,5.36-13.88,21.19-10.27,28.92.58-2.37.91-3.71,1.08-4.42a26.83,26.83,0,0,0,4.32-2.32c2.17-1.78,2.64-3.17-1-3.71-.75-.11-1.39-2.29-1.62-3.6-.05-.3,1.83-.93,3.83-1.89ZM546.13,997.23l6.6-1.62a49.87,49.87,0,0,0-6.26-5.23c-.45-.28-4.12.08-3,3.24.11.3-.37,1.07-.74,1.24-4.92,2.14-4.19,5.2-1.46,8.59,2,2.42,3.85,4.87,6,7.12.43.46,1.76.07,2.67.07C544.84,1005.59,544,1002.55,546.13,997.23Zm38.35,49.29c-.35-2-.73-4.16-1.15-6.57-.45.24-1.67.59-1.68,1-.15,7.1-6.83,11.31-7.86,17.88-.32,2,.9,4.24,1.42,6.38l2.36.36ZM842,945.56l-2-2.13,9.09-6.83-.45-1.05-6.91,3.14c.12.53.24,1,.35,1.58l-5.28-3.79c-1.86,2.09,3.6,7.18-3.91,6.73l6.36,4.3-.28.76-5-.68c4.21,4,7.88,3.73,13.07,1.46ZM777.45,549.89l-4.33-3.36,8.81-2.91-28.17-5.33L753,540.4C762.05,541.44,769.41,546.29,777.45,549.89Zm-19.64,450.92c3-.28,6.1,1.09,9.09,1.7-.22-8.17-.68-8.4-14.95-7C752,1001.25,752.56,1001.32,757.81,1000.81Zm38.74-16.51,8.82,3.47-.12,1.27,9.23-5.58c-3.47-1.14-5.74-2-8.06-2.63s-4.81-1.2-7.67-1.9ZM790.91,1111c-3.17-3-4.11-7.38-8.54-3.51-1,.83-3.13.29-3.55.31l-6.8,6.57.72,1.71ZM551.07,808.23c-1.34-2.28-.69-5.72-1-8.64-.05-.59-.14-1.17-.24-2-3.31,3.17-3.28,14.59-.09,21C555.16,814.48,554.84,814.67,551.07,808.23Zm204.65,120c-.49-.88-.64-1.56-1-1.65-5.14-1.5-12.44,3.86-12,9,.09.91,2.29,2.56,2.58,2.38,2.55-1.61,6.6-2.49,4.66-6.9Zm-56.11,59.44-1.89-.88c-1.8,2.37-5.08,4.75-5.06,7.1,0,3.54,2.36,7.06,3.72,10.59l1.11-.16Q698.56,996,699.61,987.63Zm5.28,2.23c5.12.89,6-5.54,11.18-7.13l-11.18-2.66ZM880.78,384.77l2.17,4.71,1.57-.91c-1-3.45-1.89-6.95-3.21-10.29-.23-.59-2.41-.78-3.52-.5-.61.16-1.3,1.72-1.22,2.57.25,2.62.85,5.21,1.56,9.18ZM867.39,1056c1.55-3.76.4-5.28-3.3-3.16-1.28.73-1.56,3.21-1.86,3.89l4.79,9.87,2.67-10.08Zm-671.18,10.56-.9,1.62,15.51,9.4,1.11-2.06C207.41,1071.21,202.34,1067.92,196.21,1066.59Zm572.67,22.52c2.67.31,5.86-.81,6.43,3.44a10.19,10.19,0,0,0,2.51.23c0-1,.32-2.27-.14-3-1.92-3.32-11-5.88-17.38-2.66C764,1088,766.43,1088.83,768.88,1089.11ZM578.65,1073.2a7,7,0,0,0-1.74-3.67,2.71,2.71,0,0,0-2.46.12,7.11,7.11,0,0,0-.83,4,60.91,60.91,0,0,0,2.36,8.45,9.64,9.64,0,0,0,1.83,2.47l.92-.56C578.73,1080.39,578.88,1076.79,578.65,1073.2Zm294,41.87,5,3.7a43.4,43.4,0,0,1,3.2-4.06,42.75,42.75,0,0,1,4.29-3.31C879.19,1109.09,874.63,1110.54,872.61,1115.07ZM854.17,902.38v-3l1.87-1.68c.8,1.44,1.61,2.87,2.43,4.33,2-2.58,1.81-4.76-1.84-6.6-5.37-2.7-5.45,1.87-7.43,5.07ZM809.6,998.66c.95-2.65.13-4.57-2.77-5.48-3.1-1-5.52,1.05-6.82,5.48Zm19.11-40.6c.12,1.3,1.28,3.56,2,3.56,1.88,0,3.77-1,5.66-1.55-.66-1.39-1-3.09-2.05-4.08-1.32-1.26-3.2-1.94-4.47-2.66C829.4,955,828.58,956.58,828.71,958.06Zm-9-9.14c-5.54,3.36.75,6,0,9.11,1.88-2.33,8.2,1.6,6.89-6.12C822.25,954.44,819.53,954.22,819.74,948.92ZM829,979.11c0-.33.41-2-.22-2.66-2.66-2.76-9.41-1.79-13,1.66ZM570.61,876a40.22,40.22,0,0,0-.08-6.55c-.31-1.85-1.28-3.59-2.37-6.44C565.17,868.86,564.72,872.8,570.61,876ZM475.8,1105.58c.53-.36.47-2.92.06-3.11a19.44,19.44,0,0,0-4.7-1l.66,1.55q-2.43,3.24-4.85,6.49l.45.84C470.24,1108.8,473.14,1107.38,475.8,1105.58Zm98.67-114.1c.06,1,1.19,1.88,1.82,2.83l4.82-7.74C575.47,986.06,574.27,988.28,574.47,991.48Zm524.73,118a2.35,2.35,0,0,0,0,2.13,2.08,2.08,0,0,0,2,.4,4.49,4.49,0,0,0,1.86-2.16c1-3,1.87-6,2.79-9l-1.16-.43C1102.87,1103.36,1101,1106.35,1099.2,1109.43Zm14.84-4.32c-4-9.35-4-9.35-6.12-8.49,1,3.08,2.07,6.11,3.19,9.42Zm-266.7-756.3c-1-2.81-1.22-5.76-2.5-6.34-1.76-.8-4.34.18-6.57.4.14.44.28.88.41,1.31Zm-4.15,568.05-.2,2.08c4.24-.92,8,5.06,13.68-.1ZM728.73,376.23c-.91,0-1.89,1.18-2.83,1.83,1,.78,2.09,2.25,3.05,2.18,2.12-.14,4.2-1.05,6.29-1.65l0-1.09A42.14,42.14,0,0,0,728.73,376.23Zm71,635.48c-.58,0-2.53-.54-2.8-.07-1.74,3-4.61,6-2.09,10.23C796.51,1018.44,798,1015.33,799.75,1011.71Zm72.58,108.36c-3.6-2.87-3.6-2.87-10.17,3.82ZM815.86,961.39h-8l-.65,1,6.53,4.68Zm12.7-22.65c1.32-.7,3.42-2.1.72-4.87-1.83-1.89-4-4.1-6-.62Zm123.82,20.49c-1.61,1.35-3.31,2.61-4.78,4.09a5.72,5.72,0,0,0-1.51,3.88c.83-.7,1.56-1.74,2.51-2s2.35.07,4.25.2C952.68,963.26,952.53,961.24,952.38,959.23Zm-258-547.31,3,4.94c.34-3,.55-4.86.76-6.73-5.15-.84-6.12-.23-6.51,4.79Zm-58,658.57,5.7,9.16C644.8,1073.33,640.94,1071.71,636.41,1070.49ZM608.59,915.73c0,.5,1.23,1.11,1.89,1.68.45-.75,1.45-1.92,1.25-2.17-1.79-2.35-1.53-4,1-5.64.29-.19-.47-2.06-.74-3.14l-2.1,0C609.43,909.58,608.87,912.65,608.59,915.73Zm-23.9,59.44c.74,1.63,2.76,2.68,5.06,3.16q-1.07-3.63-2.14-7.25l-1.42-.37C585.63,972.22,584.22,974.13,584.69,975.17ZM592,916.6l1.09-1.2L586.9,909l-3.35,1.71Zm-6,104.61c-1.13,3.7-1.87,6.15-2.88,9.47C590.31,1029,588,1025.78,585.94,1021.21ZM907.8,455l-4.29,2.76,6.92,6C909.58,461,908.82,458.46,907.8,455ZM446.35,535.41a38.81,38.81,0,0,1,.37-6.07c-4.24,6.76-3.54,11,1,11.36A35.45,35.45,0,0,1,446.35,535.41ZM607.41,639.28l-8.86,1.84C606.39,644.22,606.53,644.18,607.41,639.28Zm-19,395-6.86-2.43c.19,2.59.3,4.2.5,6.89Zm264.51-215,1.08-1.53-9.82-7-1,1.41ZM526.23,1093.55v8.71L528,1102C527.87,1099.24,530.53,1096,526.23,1093.55Zm266-123.61c-2.46-.66-3.73-1-5-1.34s-2.38-.53-3.57-.79C783,972.26,784.12,972.69,792.24,969.94Zm-21.85,29.23c-.13.44-.27.87-.4,1.31,2,.84,3.85,2,5.89,2.37.62.13,1.64-1.71,2.84-3.05ZM730.55,382.89v9.81l3.37-1.21ZM833.72,1034.1l-2.19-.15-.81,7.68,2.26.19Q833.34,1038,833.72,1034.1Zm79.47-128.22,1,1.92,6.68-3.16c-.41-.85-.83-1.69-1.25-2.54Z" transform="translate(-26.74 -293.57)"/><path class="cls-1" d="M1094.05,1124.54c-.57,1.29-.89,3.51-1.74,3.73-4.4,1.17-5.44,5.36-8.13,8s-4.68,4.32-5,8.6c-.13,2.05-5.44,3.76-8.41,5.63h62c.6-4,1.2-7.93,1.68-11.14l-9.76-.81c-.08.15-.84,1.45-2.32,4l-.42-5c-1.39.13-2.81.18-4.2.43-2.82.5-5.69,2-8.21-.91a2.35,2.35,0,0,0-2.26-.35c-5.06,3.77-6.11-.32-7.66-4.41l-7.24,10.83-6-6.61.58-.88c1,.31,2,.63,3.06,1,1.43-1.78-.61-7.1,5.14-4.8.3-2-2.27-5.65,3.52-4.62l-.78-1.37-4.08-1.08Z" transform="translate(-26.74 -293.57)"/><path class="cls-1" d="M735.84,795.79c3.36,8,3.36,8,6.88,7.56l-1.62-1.3c1.51-4.94,2.92-9.58,4.36-14.3l4.64.88-2.94,4.2.5.68,9.05-4.38c-1.66-3-1.53-2.5,1.93-3.4,1.79-.46,3.26-2.88,4.47-4.69,4.74-7.06,10.34-13.25,17.82-17.38,2.14-1.19,5.09-.84,7.45-1.75,1.07-.42,1.62-2.19,3-4.27L801.86,755l-1.28-4.93,12.82-10.11c3-.72,6.29-.77,8.77-2.25,9.07-5.4,18.65-20.28,15.21-33L824.94,722l1.23.79-5.38-1.18c0-.29-.09-1.45-.26-4.3l-17.64,16.53-1.06-1.9c-4.26,4.61-8.16,9.6-12.86,13.67-4.24,3.66-8,8.27-12.15,10-3.51,2.9-6.37,4.82-8.66,7.28a19.47,19.47,0,0,0-4.15,7.5,53,53,0,0,1-5.48,3.21c-2.51,1.11-4.68.84-6.39-1.85-1-1.55-2.73-2.62-3.9-3.69l-5.14,9.39,3.5.24L740.76,787l2,2.25Z" transform="translate(-26.74 -293.57)"/><path class="cls-1" d="M899.27,692.27c-1.18-1.88-2.4-5.41-3.51-5.37-7.47.25-9.8-6.4-14.81-9.5l3.18-5.72c2.15,3.07,3.79,5.43,5.66,8.11,4.11-.81,11.12,5.65,10.92,10.72l5.54,1.91,2.91-4.08a14.84,14.84,0,0,1,1.37-14.58c11.59,4.54,15.57,8.87,14.1,15.72l5.17.43-3.9,6.42c-2.56.08-5.18.8-6.33,2.5-.78,1.16.5,3.71,1.1,6.95a13.08,13.08,0,0,1-4,1.65,9.14,9.14,0,0,0-7.44,4.75c-5.56,9.2-11.08,18.52-17.71,26.94-3.59,4.56-9.37,7.4-14.17,11l-1.13-1.25c1.27-1.63,2.21-3.77,3.85-4.81,11-7,14.19-19.07,19.64-29.63a19.63,19.63,0,0,0,1.73-13.39c-.61-3,1.12-6.49-2.25-8.91Zm14,11.35-1.09-.94c-3.9,1.25-5.64,4.3-6.6,9.22C908.6,708.68,911,706.15,913.29,703.62Z" transform="translate(-26.74 -293.57)"/><path class="cls-1" d="M874.15,706.91c3.19,3.54,5.71,7.69,8.34,11.69,1.75,2.66.18,11.18-2.42,13.07q-8.43,6.17-17.09,12c-1.12.76-2.69.88-4.21,1.34-.67-2.1-1.18-3.74-1.7-5.37,6.47-1.83,9.91-6.36,12.1-11.87,1.86-4.67-.61-8.94-5.23-11-1.44-.65-3.11-2.72-3.14-4.18-.11-4.7-3.15-10.22,4.24-13.42C867.59,701.26,871.28,703.72,874.15,706.91Zm-.59,20.42,1.21-.43L873,712.12l-1.06,0c-.13,1.78-.25,3.56-.37,5.34l-.82.22-5.28-10.78-1,.65Z" transform="translate(-26.74 -293.57)"/><path class="cls-1" d="M641.51,769.53c11.58-8.82,11.58-8.82,18.38-2.19-1.16,2-2.28,3.92-3.27,5.64l10.86,4.74,21.07,34.41c2.22-3.64,2.2-5.27.09-7.67-2.68-3-4.26-7-6.47-10.48-4-6.34-8.22-12.6-12.3-18.92-2.84-4.39-5.22-9.14-8.49-13.16A198.51,198.51,0,0,0,646,745.33c-1.09-1.07-3.77-.52-5.71-.71.77,1.52,1.2,3.45,2.4,4.46,2.24,1.87,2.81,3.59,1.92,6.46C643.35,759.74,642.68,764.15,641.51,769.53Z" transform="translate(-26.74 -293.57)"/><path class="cls-1" d="M1089.59,1014.75l-.32-3.92c1.09-1.14,3.39-3.09,3.19-3.4-2.1-3.22-2.12-8.56-6.48-8.22-1.13-2.34-1.76-5.09-2.61-5.16-2.33-.18-5.29.05-7,1.38-4.75,3.6-1.45,8.09-.82,13.16l2.59-8.18,1.53.16c.18,1.14.93,2.82.44,3.32-2.81,2.91-.62,6,.81,7.45,2.18,2.24,5,5.23,9.11,3.27Z" transform="translate(-26.74 -293.57)"/><path class="cls-1" d="M810.3,706,807,701.11c1.47-1.09,3.43-2,3.35-2.6-.22-2-1.21-3.87-2.24-6.72.08-1.76.21-4.74.35-7.72l-1.72-.51-10.57,17.56c1.6,1.9,3.17,2.91,3.16,3.9-.05,4.57,2.17,4,5.14,2.76A58.07,58.07,0,0,1,810.3,706Z" transform="translate(-26.74 -293.57)"/><path class="cls-1" d="M1094.29,1037.49q-3.69-7.14-7.37-14.28l-.92.11.9,4.67c-6.62.18-8.14-.93-9.58-7.91l-4.72,6.33c.37,1.22.84,2.74,1.31,4.26l-.15-.09,3.47-3.16,4.13,8.31-2.55,2-.1-.14c3.82-.62,3.08,3.05,4.43,4.74.8,1,1.43,2.13,2.14,3.2l1.09-.58a12.66,12.66,0,0,1-.49-3.28c.65-5.46,4.24-5.46,8.38-4.29A1,1,0,0,1,1094.29,1037.49Z" transform="translate(-26.74 -293.57)"/><path class="cls-1" d="M918.35,1088.24l4.34-8.9,9.47-1.79-.24-2.14-10.67,1.12-4.76-5.94c-3.82,2.65-7.17,5-10.87,7.51,6-.07,11.21,6.64,10.12,12.94l7.19-.6Z" transform="translate(-26.74 -293.57)"/><path class="cls-1" d="M974.2,961.38c-.37,2.34-1.06,4.69-1,7,0,1.49,1.22,2.94,1.88,4.4l1.64-.75c-.29-1.42-.58-2.84-.88-4.34,4.35.3,5.44,1.91,4,5.32l7.45,6.7c.84-1.7,1.48-3,2.44-4.9l3.6,3.28.92-.25c-.87-2.29-1.74-4.59-2.62-6.88-.29-.75-.65-1.48-.9-2.25-.51-1.57-1-3.15-1.43-4.73L984,967.32l-.47,1.86q-4.74-3.82-9.47-7.68Z" transform="translate(-26.74 -293.57)"/><path class="cls-1" d="M885.2,696.84q.79,3.45,1.6,6.91l-.95.8c-2.67-2.79-6.19-5.16-7.76-8.47-1.7-3.6-1.59-8.06-2.27-12.14l-2.36.54a67.75,67.75,0,0,0,8,24.08c1.61,2.84,5,6.36,10.37,4.13l-3.27-6.18,2.83-2-5.31-7.89Z" transform="translate(-26.74 -293.57)"/><path class="cls-1" d="M911.3,1058.36c.43-.76.72-2,1.33-2.2,5.2-1.69.59-6.09,2.5-8.63l-6.21-1,4.05-3.12c-2.5-1.42-6.58.18-9.27,4.54h4.16c.09.37.17.75.26,1.13l-6.12,1.54,6,2.72c-1.68,4.27-1.16,5.06,3.42,4.93Z" transform="translate(-26.74 -293.57)"/><path class="cls-1" d="M1096.78,1016l5.63,4.69,1-.92-5.1-5.66c2.31-2.12,4.87-4.33,7.22-6.76.29-.3-.3-1.86-.86-2.52a16.72,16.72,0,0,0-3.37-2.9,46.8,46.8,0,0,0-4.2-2.25c-.61,1.94-1.71,3.87-1.7,5.8C1095.44,1008.55,1096.18,1011.66,1096.78,1016Z" transform="translate(-26.74 -293.57)"/><path class="cls-1" d="M789.48,806.61h-7.22c0,.34-.08.67-.13,1l4.06,1.19c-.16,1.06-.33,2.16-.62,4.1L772.27,810c-.69,1.75-1.44,3.62-2.65,6.65l14-.85-2.9,4c6.36-1.93,5.21-8.81,9.38-12.2C789.92,807.32,789.7,807,789.48,806.61Z" transform="translate(-26.74 -293.57)"/><path class="cls-1" d="M853.5,647.49c-2.14,9-4.49,18,2.16,26.79,4.22-9.43-.72-18-2.21-26.84C853.44,647.42,853.5,647.49,853.5,647.49Z" transform="translate(-26.74 -293.57)"/><path class="cls-1" d="M1004.28,932.11,1027.19,955l4.6-2.13c-.47-.17-1.34-.53-2.23-.78s-2.28-.06-2.84-.64c-3.73-3.82-7.14-8-11-11.69-3.26-3.18-6.94-5.93-10.43-8.87Z" transform="translate(-26.74 -293.57)"/><path class="cls-1" d="M628.75,823.7c-2.68-5.38-7.72-3.18-11.64-3.76-1.55-.22-3.4,1.6-5.12,2.5,2.7,1.06,5.35,2.75,8.13,3S625.52,824.42,628.75,823.7Z" transform="translate(-26.74 -293.57)"/><path class="cls-1" d="M661.77,829.05l-30.24-6.78-.45,2.16,30.34,6.42C661.54,830.25,661.65,829.65,661.77,829.05Z" transform="translate(-26.74 -293.57)"/><path class="cls-1" d="M852.82,729c5.75-7.55,5-15.58,1.79-24.93-1,2.12-2.47,3.74-2.12,4.69A30.36,30.36,0,0,1,852.82,729Z" transform="translate(-26.74 -293.57)"/><path class="cls-1" d="M656.65,871.64c.72-1.4,1.11-2.27,1.6-3.08s1.06-1.5,1.83-2.57c-4.16-1.77-7.38-5.88-13.1-1.57Z" transform="translate(-26.74 -293.57)"/><path class="cls-1" d="M839.68,702.08c8.48-7.77,8.48-7.77,3.42-12.42C839.23,691.49,838.07,695.45,839.68,702.08Z" transform="translate(-26.74 -293.57)"/><path class="cls-1" d="M851.62,686.37l-2.31-22.85-2.35.22q1,11.38,2,22.79Z" transform="translate(-26.74 -293.57)"/><path class="cls-1" d="M570,674.79l-5.94-1.26-.41,2.05c3,.56,5.89,1.14,8.85,1.66a20.12,20.12,0,0,0,3.78.39,24.43,24.43,0,0,0,3.58-.56c-.62-1-1-2.49-1.89-2.93C575.24,672.81,572.28,671.54,570,674.79Z" transform="translate(-26.74 -293.57)"/><path class="cls-1" d="M1034.72,967.18l13.16,1.41.45-2-8.22-2.76c0,.2.1-.78.22-1.81l-8.29-3.33,5.44,5.72-3.12,1.59Z" transform="translate(-26.74 -293.57)"/><path class="cls-1" d="M963.32,977.08l13.57,6.23,1.6-4.16L964.2,975.2C963.91,975.83,963.62,976.45,963.32,977.08Z" transform="translate(-26.74 -293.57)"/><path class="cls-1" d="M1089.59,1014.75l.39-.14c-.77,1.49-1.54,3-2.66,5.13l5,5.45c1.65-2.14,3.09-4,3.69-4.81a33.68,33.68,0,0,0-3.31-4.22A11,11,0,0,0,1089.59,1014.75Z" transform="translate(-26.74 -293.57)"/><path class="cls-1" d="M1058.87,1034.35l.75-4.33-1.62-.36c-.32,2.58-1.79,6-.68,7.54,1.46,2.06,5,2.68,7.56,3.92l.81-1.25-1.62-3.22,2.85-1-.26-.83-6.5,2.45-.47-.59,3.25-3.63-.4-.6Z" transform="translate(-26.74 -293.57)"/><path class="cls-1" d="M1067.24,1046.3l-12.22-6.13-3.54,2.65c.9,1.56,1.69,2.94,2.74,4.75,2.47-3.72,5.24-4.58,8.79-1.49.85.73,2.84.15,4.32.16Z" transform="translate(-26.74 -293.57)"/><path class="cls-1" d="M630.2,682.24c.74-6.6,1.38-12.35,2.13-19C628.15,666.91,627.43,675.17,630.2,682.24Z" transform="translate(-26.74 -293.57)"/><path class="cls-1" d="M859.68,721.7c-.76,1.64-1.59,3.21-2.23,4.85-.52,1.32-.82,2.72-1.21,4.09a52.57,52.57,0,0,0,6.08,1.05,3.6,3.6,0,0,0,.92-2.65C862.31,726.59,861,724.29,859.68,721.7Z" transform="translate(-26.74 -293.57)"/><path class="cls-1" d="M818.1,715.88c-2,.21-4,.11-5.68.68-1.39.46-2.52,1.71-4.15,2.9l-1.25-.85c-.39,2.1-.78,4.18-1.46,7.8Z" transform="translate(-26.74 -293.57)"/><path class="cls-1" d="M760.73,849.19l-9.55,13.14c4.81.41,8.18-3.25,10.59-12.29Z" transform="translate(-26.74 -293.57)"/><path class="cls-1" d="M826.3,694.33c-2.74,6.49-4.94,11.7-7.58,18C824.46,707.5,827.85,702.83,826.3,694.33Z" transform="translate(-26.74 -293.57)"/><path class="cls-1" d="M1083.75,976.85a64.88,64.88,0,0,0-6.5-5.72c-2.22-1.51-4.86-2.4-7.3-3.55-.93,2.71-.93,2.71,5,5.82,2.7,1.42,5.42,2.81,8.13,4.21Z" transform="translate(-26.74 -293.57)"/><path class="cls-1" d="M1073.91,1030.67c-3.31,3.12-1.49,9.83,2.71,11.95l2.09-5,.1.14c-.29-1.14-.57-2.29-.84-3.35l-4.8.86c.24-2,.42-3.3.59-4.66Z" transform="translate(-26.74 -293.57)"/><path class="cls-1" d="M586,839.12c0-7-3.49-10.26-10-8.49,3.58,3,6.84,5.66,10.09,8.37Z" transform="translate(-26.74 -293.57)"/><path class="cls-1" d="M671.53,870.29V866l-2.51.5c-1.12-2.25-2.18-4.39-3.24-6.54l-1.44.79C667.54,863.41,662.3,871.76,671.53,870.29Z" transform="translate(-26.74 -293.57)"/><path class="cls-1" d="M904.38,684.38,892.84,672C893.87,678.79,896.08,681.35,904.38,684.38Z" transform="translate(-26.74 -293.57)"/><path class="cls-1" d="M629.41,798.37c-2.55,4.22-9.3,1.89-9.2,8.13,5.18-2.82,5.18-2.82,9.2,1.29Z" transform="translate(-26.74 -293.57)"/><path class="cls-1" d="M1064,1001.46c1,3.6-2.53,7.91,2,10.84,1.46-2.95,2.8-5.67,4.6-9.33l-4,3c-.44-1.77-.82-3.28-1.2-4.8Z" transform="translate(-26.74 -293.57)"/><path class="cls-1" d="M833,337.49v-4.38l-5.52-1.18v7.46l5.65-2Z" transform="translate(-26.74 -293.57)"/><path class="cls-1" d="M911.42,1058.26c-.36.74-1.1,1.52-1,2.2.38,3.19,2.3,6.51-1.33,9.17-.26.2.29,1.51.49,2.39,4.63-3.7,5.11-7.9,1.72-13.65Z" transform="translate(-26.74 -293.57)"/><path class="cls-1" d="M622.63,910.8l5-5.33-4.69-2.18-1.68,7Z" transform="translate(-26.74 -293.57)"/><path class="cls-1" d="M1096,983l-6.19-6.75c.53,3.47.93,6.08,1.48,9.66Z" transform="translate(-26.74 -293.57)"/><path class="cls-1" d="M1024.1,1052.5c-1-4.26-1.8-7.64-2.6-11C1017.51,1043.94,1018,1046.5,1024.1,1052.5Z" transform="translate(-26.74 -293.57)"/><path class="cls-1" d="M1024,1042.2c.06,1.13-.37,2.91.33,3.69s2.49.36,4.31.51l.8,2.47,1.34-.35c-.4-1.56-.32-3.64-1.32-4.54C1028.31,1042.9,1026.21,1042.84,1024,1042.2Z" transform="translate(-26.74 -293.57)"/><path class="cls-1" d="M1122.87,1022.65l-.94-8.68-6.26,5.41,1.11,1.27,3-2.17,3.28,4Z" transform="translate(-26.74 -293.57)"/><path class="cls-1" d="M750.21,870.56c.8-6.85-.29-7.62-6.74-5.11Z" transform="translate(-26.74 -293.57)"/><path class="cls-1" d="M1049.77,1016.24l-3-8.2-2.91,2.19,3.9,7Z" transform="translate(-26.74 -293.57)"/><path class="cls-1" d="M1106.37,1024.4c3.44-3.25,3.44-3.25-2.51-11C1104.85,1017.75,1105.53,1020.73,1106.37,1024.4Z" transform="translate(-26.74 -293.57)"/><path class="cls-1" d="M1123,1022.52l-3.23,2.67,4.94,4.47-.16.12c1.24-2.81,3.26-5.81-1.71-7.13Z" transform="translate(-26.74 -293.57)"/><path class="cls-1" d="M867.5,672.81v10.85h1.28v-11Z" transform="translate(-26.74 -293.57)"/><path class="cls-1" d="M899.27,692.27l-8-2.09-.73,1,5.94,4.89,2.62-3.88Z" transform="translate(-26.74 -293.57)"/><path class="cls-1" d="M789.74,922.3l-1.14,6.41-.64-1.27,3.2-5.33,3.39,2.39-3.68-4.15-1.14,1.81Z" transform="translate(-26.74 -293.57)"/><path class="cls-1" d="M986.75,1118.33c-6.25-.72-11.82-6.23-16.79.91-3.28-4.77-6.76-1.62-10.16-.94l1.49,6.57c3.37-5.41,6.12-6.32,10.2-3.15,1.55,1.2,4.75.45,7.19.3,5-.31,10.07-.82,15.63-1.29l-2.72-8-1.14.39,1.66,5.91-8.06-5.26-.64.59Z" transform="translate(-26.74 -293.57)"/><path class="cls-1" d="M1084.14,1120.15l-5.15-2.56c-4.56,3.9-12,0-17.15-8.77.56,2.92.23,6.63,1.93,8.54s5.44,2.08,8.87,3.2c-4.13,4.89.15,6.67,1.78,9.34,2.73-.73,1.89-8,6.92-3.38.91-2,1.88-4.25,2.87-6.48C1084.23,1120,1084.14,1120.15,1084.14,1120.15Z" transform="translate(-26.74 -293.57)"/><path class="cls-1" d="M953.18,1119.93l2.64.4.27-1c-1.05-.35-2.45-1.32-3.09-.95a68.49,68.49,0,0,0-6.57,4.76l3,2.79Z" transform="translate(-26.74 -293.57)"/><path class="cls-1" d="M1077.6,1111.51c.58-4.37,1.05-7.88,1.58-11.84C1073.05,1103,1072.78,1104.73,1077.6,1111.51Z" transform="translate(-26.74 -293.57)"/><path class="cls-1" d="M1054.05,1129.72a47,47,0,0,1,4.72-.43c1.74,0,3.48.28,5.58.47l-.78-4.7-9.53,3.45Z" transform="translate(-26.74 -293.57)"/><path class="cls-1" d="M1084.37,1116.83l8.23-2.5c-2.38-1.08-4.19-2.64-5.33-2.25-1.61.56-2.72,2.56-4,4Z" transform="translate(-26.74 -293.57)"/><path class="cls-1" d="M1069.58,1109.47c.14-2.44.35-4.89.31-7.33,0-.29-1.66-1-2-.74a2.9,2.9,0,0,0-1.17,2.25,44.35,44.35,0,0,0,1.2,5.53Z" transform="translate(-26.74 -293.57)"/><path class="cls-1" d="M1070.42,1145.1v2c.37.05.88.21.93.11.6-1,1.11-2.11,1.65-3.17l-6.57-2.72-.78,2.1Z" transform="translate(-26.74 -293.57)"/><path class="cls-1" d="M718.63,1112.66c8.46.16,9.69-.49,9.07-5l6.43-.3.63-1c-1.17-.58-2.32-1.56-3.52-1.63-1.49-.08-3,.59-5.84,1.23l-1.91,2.58c-.1-1.65-.16-2.7-.22-3.75l-1.59-.5C720.7,1107,719.71,1109.7,718.63,1112.66Z" transform="translate(-26.74 -293.57)"/><path class="cls-1" d="M743.3,1077.13c-.17,1.48-.22,3-.52,4.43-.71,3.46,1,4.43,4.93,3.25l-4.82-1.52,5.07-3.08c-.45-1.36-.89-2.7-1.54-4.69l-3.2,1.76Z" transform="translate(-26.74 -293.57)"/><path class="cls-1" d="M755.08,1025.31c-3.47,4-1.73,9.9-4.7,14.06l2,.7q2.14-7,4.31-14Z" transform="translate(-26.74 -293.57)"/><path class="cls-1" d="M743.22,1077.28l-2.11-3.84c-.94,3.29-1.37,4.81-1.87,6.57-.77-.52-1.14-.64-1.27-.88-.6-1.07-1.12-2.18-1.67-3.27-.46.55-1.42,1.34-1.29,1.59.66,1.32,1.36,3.19,2.49,3.59,3.29,1.17,4.61-1.44,5.79-3.9Z" transform="translate(-26.74 -293.57)"/><path class="cls-1" d="M770.56,1034.17c.8-1.12,1.59-2.26,2.42-3.36s1.62-2,2.43-3.07c-1.41-.35-2.82-.78-4.25-1a10.18,10.18,0,0,0-2.43.25c.65,2.53,1.25,4.88,1.87,7.24Z" transform="translate(-26.74 -293.57)"/><path class="cls-1" d="M555.63,1094.68l-7.54,7,5.15,1.85-6.24,3.2h6.13c-.87,4.23-1.16,8.53-5.73,10.72,3.29,3.36,5.17,3.57,6.74-.7,1-2.66,2.88-5,4-6.82a68.85,68.85,0,0,1,1-7.77C560.06,1098.62,558.88,1096.32,555.63,1094.68Z" transform="translate(-26.74 -293.57)"/><path class="cls-1" d="M839.2,1102.38l-7.94-.71,3.7,5.62Z" transform="translate(-26.74 -293.57)"/><path class="cls-1" d="M797,556.1l6.57,2.45-4-5c1.22-.71,2.51-1.44,3.8-2.18l-.41-1.58-8.2-1.71c.81,2.79,1.6,5.48,2.38,8.16Z" transform="translate(-26.74 -293.57)"/><path class="cls-1" d="M616.41,596.53c2.42-4.45,1.14-6.3-6.34-7.35a29.34,29.34,0,0,0,2.67,4.43A25.17,25.17,0,0,0,616.41,596.53Z" transform="translate(-26.74 -293.57)"/><path class="cls-1" d="M669.08,574.26l6.51-7.45C671.35,565.72,670.05,567.07,669.08,574.26Z" transform="translate(-26.74 -293.57)"/><path class="cls-1" d="M649.88,586.3c.29-1.91.57-3.82.86-5.72-.83.18-2.22.16-2.37.58a29.66,29.66,0,0,0-1,4.91Z" transform="translate(-26.74 -293.57)"/><path class="cls-1" d="M846.38,840c-.81-1.49-1.18-3.19-2.2-3.83-2.87-1.79-4.75-6.49-10-4C838.2,834.72,841.69,837,846.38,840Z" transform="translate(-26.74 -293.57)"/><path class="cls-1" d="M873.55,809,865,813.69l1.17,1.87,8.42-5.46Z" transform="translate(-26.74 -293.57)"/><path class="cls-1" d="M828.11,424.13c-1-4.06-1.4-7-2.49-9.65-.55-1.34-3.13-3.3-3.44-3.07-4.19,2.95-6.16-1.23-8.89-2.85l-1,.82c2.38,4.48,4.34,9.29,7.38,13.28C820.73,424.11,824.42,423.58,828.11,424.13Z" transform="translate(-26.74 -293.57)"/><path class="cls-1" d="M848,430.3c.6,4.54,1,8.65,1.8,12.69.17.87,1.73,1.46,2.64,2.18.59-.89,1.84-1.95,1.65-2.63-1-3.89-2.36-7.71-3.77-11.48C850.18,430.6,848.87,430.55,848,430.3Z" transform="translate(-26.74 -293.57)"/><path class="cls-1" d="M814.28,425.21c.63,1.11,1.26,2.2,1.88,3.28l1.14-.28c-.33-1.95-.66-3.89-1.08-6.39l-5.42,2.4-4.11-10.74-1.19.41c1.27,4,2.53,8,3.86,12.23Z" transform="translate(-26.74 -293.57)"/><path class="cls-1" d="M813.8,436.74a52.26,52.26,0,0,0,.67-6.19c0-.25-1.93-.52-3-.78-.18,2.2-.36,4.39-.55,6.59Z" transform="translate(-26.74 -293.57)"/><path class="cls-1" d="M819.21,394.16c-.21,2.24-.41,4.48-.67,7.32l6.79-1.31-4.39-2.32c.29-1.47.63-3.17,1.13-5.73l-3,2.19Z" transform="translate(-26.74 -293.57)"/><path class="cls-1" d="M794,413.39l-6.58-.88c.91,2.45,1.5,4.05,1.8,4.89l1.73-6.37Z" transform="translate(-26.74 -293.57)"/><path class="cls-1" d="M819.09,394.31l-1.23-4.43c-3.55,1.3-5,3-2.29,6.57l3.63-2.28Z" transform="translate(-26.74 -293.57)"/><path class="cls-1" d="M456.5,588.77l13.22,5.2c-2.26-6.73-8.45-4.35-12.3-7.33Z" transform="translate(-26.74 -293.57)"/><path class="cls-1" d="M473.28,558.16l-5.67,4.89c5.89-1.7,6.91,1.33,7.05,7,1.45-2.4,3-4.39,2.75-4.67-2-2.07.55-6.86-4.26-7.05Z" transform="translate(-26.74 -293.57)"/><path class="cls-1" d="M489.63,548.75l-6,5.54c2.63,1,2.63,1,6.84-4.36Z" transform="translate(-26.74 -293.57)"/><path class="cls-1" d="M688.3,397.8c-1-2.33-1.34-5.51-3.09-6.77s-4.9-.66-7.68-.9l9.07,8.39Z" transform="translate(-26.74 -293.57)"/><path class="cls-1" d="M698.24,391.44h-7l-.63,2c1.54.86,3.52,2.76,4.53,2.35,1.38-.58,2-2.91,3-4.49Z" transform="translate(-26.74 -293.57)"/><path class="cls-1" d="M556.38,1052c-.23-3.17-.43-6-.62-8.55,3.35-1.08,5.07,5.27,8.28-1.21a71,71,0,0,0-9.21-2.64c-.64-.11-2.21,2.15-2.43,3.47C551.75,1046.94,552.82,1050.24,556.38,1052Z" transform="translate(-26.74 -293.57)"/><path class="cls-1" d="M552.45,1062.31c-.06,3.06-1.27,7,5,5.24-5.17-3.94,2.74-3.34,1.67-6Z" transform="translate(-26.74 -293.57)"/><path class="cls-1" d="M548.12,1057.55l-8.11,4.66C545.1,1065.29,545.62,1065.05,548.12,1057.55Z" transform="translate(-26.74 -293.57)"/></g></svg>