<svg id="Layer_1" data-name="Layer 1" xmlns="http://www.w3.org/2000/svg" viewBox="0 0 161.42 216.2"><defs><style>.cls-1{fill:#fff;}</style></defs><title>rose</title><g id="vcV2V4.tif"><path d="M313.61,378.11c-.72,0-1.53.06-2.34.12a2,2,0,0,0-2,1.46,2.53,2.53,0,0,0,.89,2.48,25.74,25.74,0,0,0,2.18,1.68,3.48,3.48,0,0,1,1.65,2.84,3.51,3.51,0,0,0,2.17,3.15c2.14,1,4.33,1.88,6.42,3,1.49.77,2.86,1.79,4.34,2.74a7.08,7.08,0,0,1-3.5,2.21c-3,1.05-6.14,1.72-9.25.79a20.79,20.79,0,0,1-5.25-2.76,18.5,18.5,0,0,1-6.5-6.85,50.42,50.42,0,0,1-2.18-5.25,13,13,0,0,0-4.79-6.3,5.33,5.33,0,0,1-2.27-5.77,11.38,11.38,0,0,0-.06-4.86c-.57-2.4,1.63-7.16,4-7.82.8-.23,1.22-.23,1.54.68,1.06,3,3.35,5,5.68,6.88,1.24,1,2.67,1.77,4,2.72a5.54,5.54,0,0,1,1.71,1.66C311.28,373.25,312.43,375.71,313.61,378.11Z" transform="translate(-234.54 -273.9)"/><path d="M383.91,409.08l-7.66-5.66,0-.25c.93-.14,1.87-.24,2.79-.43a3.1,3.1,0,0,1,2.34.51,14.59,14.59,0,0,0,8.2,1.84c-2.29-.84-4.79-1.1-7.12-2.59l11.22-1.91,0-.1h-7.46c1.18-1.35,2.21-2.54,3.24-3.74l.33.26c-1.26.19-2.55.27-3.45,1.41a2.35,2.35,0,0,0-.26.29c-1.35,2.3-3.59,2.47-6.1,2.44l4.39-5.75a12.12,12.12,0,0,0-4.47,3.54c-1.91,2.65-1.92,2.64-5.14,3-.35,0-.7.06-1.19.09,1.14-2.39,2.2-4.72,4.11-6.54-1.67,1.38-3.78,2.29-4.64,4.45-.69,1.73-1.63,3-3.73,2.86a12.75,12.75,0,0,0-2.57.49c1.61-2.83,3.07-5.41,4.37-7.71a14.88,14.88,0,0,0-4,4.11,8.37,8.37,0,0,0-.76,1.49c-.71,2.84-3,3-5.23,3.28,1.15-3.08,2.18-6.22,3.5-9.24a7.65,7.65,0,0,1,3.94-4c.54-.23,1-.67,1.53-.89a17,17,0,0,1,2-.57c.09,0,.23,0,.28,0,1-.84,2.23-.43,3.33-.74a11.06,11.06,0,0,1,3.47-.6c.8,0,1.86-.24,2.52.73.16.24.81.16,1.23.2.68.06,1.51-.41,1.89.62,0,.11.41.1.62.14a2.78,2.78,0,0,1,2,1.2c.28.39,1,.47,1.6.73-.55,1.14.34,1.3,1.23,1.47-.32.53-.7,1.08.14,1.4.55.21,1.12.33,1.75.51-1,1.77,1.05,1.32,1.38,2.18-.59,1-.43,1.36.81,1.6a1.13,1.13,0,0,1,.55.29c.33.29.63.61,1,1l-3.51,2.4s0,.25.1.56a7.32,7.32,0,0,0-1.06.49c-.22.15-.54.47-.5.63.17.74-.38.92-.77,1.29a2.66,2.66,0,0,0-.64,1.22,6,6,0,0,0-2.32,2.84,15.43,15.43,0,0,1-5.76,1.3,15.25,15.25,0,0,1-2.6.27c-.4-.06-.79-.23-1.19-.32-.24-.05-.65-.13-.72,0-.51.74-1.07.28-1.65.18-1.21-.21-2.45-.29-3.65-.52a21.75,21.75,0,0,1-2.35-.69c-.28-.08-.63-.31-.83-.22-1.09.49-1.81-.23-2.58-.72a15.09,15.09,0,0,0-4.79-1.54,5,5,0,0,1-.86-.45c-.47-.21-1-.39-1.67-.67a3.45,3.45,0,0,1,1.05-.61c1.23-.21,2.47-.35,3.71-.46a1.36,1.36,0,0,1,.82.3,5.48,5.48,0,0,1,.88.92,7.12,7.12,0,0,0,5.89,2.82,12.23,12.23,0,0,0,1.82,0c-2.94-.87-5.95-1.6-8-4.38,1.27-.26,2.5-.53,3.73-.76.15,0,.36.13.5.24,1.84,1.47,3.64,3,5.52,4.39a6.34,6.34,0,0,0,2.58,1q-3.63-2.85-7.25-5.71L370,404c1.38-.19,2.76-.39,4.15-.56.13,0,.3.1.43.19,2.12,1.41,4.22,2.86,6.37,4.22a28.54,28.54,0,0,0,2.89,1.4Z" transform="translate(-234.54 -273.9)"/><path d="M259.88,350.19c.45-.11.94-.39,1.33-.28a6.8,6.8,0,0,0,4.7-.42,24.11,24.11,0,0,0,7-4.5,1.29,1.29,0,0,0,.37-.45c.36-1.29,1.31-1.48,2.48-1.67a45,45,0,0,0,4.94-1.3c-.35.65-.82,1.5-1.27,2.36a1.25,1.25,0,0,0,.67,1.86c2,1.11,3.05,1,4.79-.55a12.49,12.49,0,0,0,3.86-5.93,4.85,4.85,0,0,1,2.54-2.86A14.05,14.05,0,0,0,295.5,333a.92.92,0,0,1,.86-.18,6.48,6.48,0,0,1,3.4,4.46c.2,1-.51,2.31-1.08,3.34s-1.06,1.66-.75,2.86a4,4,0,0,1-1.08,3.36,27.5,27.5,0,0,1-7.72,6.48c-1.76,1.11-3.66,2-5.5,3-2.69,1.43-5.65,1.28-8.56,1.44-.49,0-1,0-1.47.06a8.3,8.3,0,0,1-6.32-1.74c-1.68-1.34-3.63-2.33-5.41-3.56a17.58,17.58,0,0,1-2-1.92Z" transform="translate(-234.54 -273.9)"/><path d="M308.58,367.75A24.24,24.24,0,0,1,301,361a7.58,7.58,0,0,1-1.4-4.53,95.66,95.66,0,0,1,.58-10.3,17.77,17.77,0,0,1,1.82-4.72c1.49-3.38,3-6.74,4.57-10.1.93-2,1.82-2.64,4-2.31a42.12,42.12,0,0,1,13,3.74,17.33,17.33,0,0,1,5.38,4.08c-4.27,2.18-8.79,4-11.35,8.37a30.25,30.25,0,0,0-2-2.61c-1.56-1.64-3.43-1.63-4.82.13s-2.75,3.82-4.08,5.77a4.44,4.44,0,0,0-.51,3.69,7.1,7.1,0,0,1-.07,4.35c-1,2.71-.29,5.22.84,7.69C307.44,365.35,308,366.41,308.58,367.75Z" transform="translate(-234.54 -273.9)"/><path d="M341.37,374.27l-14.75-1.67c-.42-.05-.84-.17-1.26-.2a4.24,4.24,0,0,1-4.34-3.5c-.59-2.14-1.94-4.06-2.9-6.1s-1.95-4.24-1.37-6.52.34-4.7.79-7a9.87,9.87,0,0,1,4.13-6.37c2.36-1.63,5-2.92,7.41-4.43,1.3-.81,2.53-1.73,3.75-2.66,1.79-1.38,2.93-1.4,4.27.39a50.77,50.77,0,0,0,6.48,6.95,3.09,3.09,0,0,1,.24.35,5.74,5.74,0,0,1-.76.06,5.58,5.58,0,0,0-4.59,1.3c-.48.44-.84.32-1.34-.06-1.48-1.12-3-2.19-4.55-3.24a3.6,3.6,0,0,0-1.37-.51c-2.24-.38-3.53.78-3.67,3.32a27.19,27.19,0,0,0,.89,8.18c.22.86,0,1.28-.82,1.5-1.07.28-2.13.61-3.22.92-.73-.83-1.47-1.73-2.28-2.57a3.21,3.21,0,0,0-1-.48,4,4,0,0,0-.43,1.14,16.52,16.52,0,0,0,1.57,7.92,6.79,6.79,0,0,0,3.39,3c3.12,1.59,6.29,3.1,9.41,4.67C337.57,370,339.44,372,341.37,374.27Z" transform="translate(-234.54 -273.9)"/><path d="M248.14,314.48c-.29,4.67,1.72,8,4.85,11-2.33.36-2.27,2.25-2.69,3.84-.18.66-.43,1.29-.58,2-.07.29-.1.76.06.89.43.36,1,.87,1.46.79,4-.75,7,1.28,10,3.44a39.92,39.92,0,0,0,10.85,6.07c.18.06.35.16.81.38a19.3,19.3,0,0,1-2.67,2.62,46.63,46.63,0,0,1-5.42,3,4.06,4.06,0,0,1-2.21.28,10.38,10.38,0,0,1-5.91-2.82,2.64,2.64,0,0,1-.73-1.35c-.16-1.15-1-1.57-2.16-1.44-.56.07-1.12.07-1.67.12a4.63,4.63,0,0,1-4.78-2.6c-1.13-2.07-2.32-4.11-3.26-6.27s-.77-4.38-.57-6.6a22.19,22.19,0,0,0,0-6.56,4,4,0,0,1,1.71-4.46C246.11,316.09,247,315.36,248.14,314.48Z" transform="translate(-234.54 -273.9)"/><path d="M342.53,400.13a14.25,14.25,0,0,1-1.73-.32c-2.13-.64-4.22-1.43-6.37-2a19.67,19.67,0,0,1-7.68-4.24c-2.63-2.16-5.78-3.29-8.86-4.59l-1.35-.58a1.84,1.84,0,0,1-1.19-1.95,3.53,3.53,0,0,0-1.56-3.11,26.57,26.57,0,0,1-2.6-2.38,1.18,1.18,0,0,1-.29-1,1.25,1.25,0,0,1,1-.47,6.82,6.82,0,0,1,5.43,2,69.27,69.27,0,0,0,5.6,5.09,6.31,6.31,0,0,0,3.74,1.52,18.51,18.51,0,0,1,3.6,1.19,40.94,40.94,0,0,0,4.84,1.25,9.51,9.51,0,0,0,2.9-.18c2.52-.36,5-.82,7.55-1.18a21.88,21.88,0,0,0,7.86-2.35c.74-.42,1.7-1,2.39-.86a4.75,4.75,0,0,1,3,2.5,4,4,0,0,1-1.68,5.27,27.2,27.2,0,0,1-3.24,1.62c-2.3,1.11-4.58,2.26-6.91,3.31-1.41.64-2.9,1.12-4.35,1.67Z" transform="translate(-234.54 -273.9)"/><path d="M271.28,394.73c1.27,2.78-.35,4.69-1.7,6.68l.24.18a10.73,10.73,0,0,0,1.84-1.85,7.3,7.3,0,0,0,.91-2.62,18,18,0,0,0,0-2.86l3.49-1.06a9,9,0,0,1-2.14,3.86c-.27.29-.25.85-.4,1.28-.22.62-.1,1.45-1.07,1.63-.2,0-.29.49-.48.72-.81.95-1.64,1.89-2.45,2.84a5.65,5.65,0,0,0-.36.58c-.14.22-.35.64-.42.62-1.09-.34-1.08.85-1.66,1.16-1.06.56-2.15,1.06-3.24,1.57-.48.22-1,.41-1.45.62-1.17.51-1.89-.76-2.95-.73A5.45,5.45,0,0,1,258,407c-.07-.64-.55-.85-1.29-.84-.25,0-.5-.36-.78-.49s-.73-.26-1.1-.39a2.7,2.7,0,0,1-1-.46l-3.58-.43c.37-.72-.18-1.65.63-2.27a1,1,0,0,0-.32-.7c-.68-.27-.55-.69-.32-1.17a1,1,0,0,0-.53-1.52c.1-.8,1.66-1.6-.06-2.39.5-.63.8-1.27,0-1.64.12-.75.23-1.4.34-2.06a.58.58,0,0,1,0-.19c.6-.91.52-2.14,1.56-2.88.58-.41.87-1.21,1.35-1.79a2.54,2.54,0,0,1,.86-.57c1-.51,2-1,3.05-1.49.08,0,.12-.19.19-.2a20.82,20.82,0,0,1,3-.56,9,9,0,0,1,5.33,1.09,14.36,14.36,0,0,1,1.45,1c2.27,1.78,4.52,3.58,6.84,5.42-.91.32-1.83.67-2.78.94-.18.06-.47-.15-.67-.29-2.55-1.75-5.14-3.4-7.92-3.57l7.24,4.34c-1.29.54-2.31,1-3.36,1.37-.2.08-.56-.13-.78-.29a12.51,12.51,0,0,0-6.28-2.55l-.37,0,6.16,3.44c-1.15.56-2,1-2.83,1.36a1.64,1.64,0,0,1-1-.15c-1.51-.53-3-1.14-4.51-1.63a4.89,4.89,0,0,0-2-.05l5.76,2.63c-1.53,1-2.89,1.94-4.72.85a3.19,3.19,0,0,0-3.58.09l4.19,1.28-4.33,3,.11.23,7.51-3.24c-.34,2.08-1.72,3.47-2.58,5.22a9.28,9.28,0,0,0,1.14-.91c1.27-1.38,2.52-2.78,2.77-4.76a.9.9,0,0,1,.43-.57c.77-.42,1.57-.79,2.66-1.32-.47,2.89-.89,5.56-1.32,8.23l.33.09c.48-1.68,1-3.35,1.42-5,.29-1.17.44-2.38.71-3.55.05-.22.36-.43.6-.55.62-.29,1.26-.54,2.1-.89a27.75,27.75,0,0,1-.64,7.59l.25.11a5.36,5.36,0,0,0,.73-1.53c.33-2,.53-4,.83-6a1.42,1.42,0,0,1,.59-.85A12.91,12.91,0,0,1,271.28,394.73Z" transform="translate(-234.54 -273.9)"/><path d="M273,468.92l4.57,7,.24-.1c-.61-1.33-1.15-2.69-1.84-4s-1.54-2.57-2.3-3.87a.7.7,0,0,1-.05-.53c.3-.75.64-1.49,1.12-2.57l4.72,6.11c.29-.82-.33-1.53-.85-2.27-1.06-1.53-2.14-3-3.18-4.58a.89.89,0,0,1,0-.71c.26-.57.57-1.11.85-1.65,2.82,1.09,2.81,3.73,3.26,6.37a5.77,5.77,0,0,0-2-6.93c-.6-.51-.58-.9-.11-1.46s.89-1.27,1.41-2c.91,1.22.8,2.52,1,3.73,0,.18-.09.46,0,.55,1.32,1.26.81,3,1.06,4.45a22,22,0,0,1,0,3,11.44,11.44,0,0,0,.23,1.47l-.48.33c.1,3-1.23,5.17-2.81,7.26l-.15-.26-3.09,1.37c-.41-.35-1-.18-1.48.39-.07.07-.18.17-.24.15a1.94,1.94,0,0,0-2.23.83c0,.06-.44-.15-.51-.17l-3,2.19a13.42,13.42,0,0,0-1.08-2.18c-.2-.28-.82-.25-1.4-.39-.78-1.42-.78-1.42-1.73-1.36-.48-.62.25-2.31-1.63-1.72.09-1-.44-1.29-1-1.24-.44-.62-.8-1.08-1.1-1.58a9.26,9.26,0,0,1-.48-1.17c-.12-.31-.25-.62-.38-.92-.05-.11-.19-.2-.19-.31-.09-1.2-.17-2.4-.24-3.61a.54.54,0,0,1,.05-.28c.46-.94.95-1.86,1.39-2.8s.72-1.65,1.11-2.47a2.79,2.79,0,0,1,.54-.7,10.08,10.08,0,0,1,7-3.37c2.84-.12,5.68-.35,8.57-.53-.43.77-.84,1.58-1.34,2.35a1.23,1.23,0,0,1-.79.44,34.11,34.11,0,0,0-4,.7,27.63,27.63,0,0,0-4.34,1.94l8.29-1.59c-.57,1.23-1,2.22-1.48,3.16a1,1,0,0,1-.72.35,12.49,12.49,0,0,0-6.78,2.63l6.89-1.64a19.92,19.92,0,0,1-1.26,3c-.24.39-.91.57-1.42.74a12.1,12.1,0,0,0-4.51,2.06,2,2,0,0,0-.61.76l5.66-1.8a3.44,3.44,0,0,1-2.35,3.57c-1.28.46-2.45,1-2.92,2.37,0,.12-.07.24-.1.32l4-1.91-1.23,5.28.19.08c1.14-2.49,2.28-5,3.47-7.6,1.19,1.73,1,3.73,1.38,5.57H273a14.56,14.56,0,0,0,.08-2.94,32.53,32.53,0,0,0-1.1-3.82c-.06-.2-.18-.43-.12-.6C272.2,471,272.56,470.09,273,468.92Z" transform="translate(-234.54 -273.9)"/><path d="M339.06,335.74c4,.43,8,.74,11.91,1.34a35.3,35.3,0,0,1,7.29,1.86c4.07,1.54,6.12,4.75,6.51,9a48.14,48.14,0,0,1-2.15,18,1,1,0,0,1-.12.2c-.62-2-1.25-4-2.82-5.35a34.24,34.24,0,0,0-3.41-2.2,1.51,1.51,0,0,1-.59-.91c-.22-1.59-.25-3.2-.56-4.77a9.22,9.22,0,0,0-4.07-5.68c-.47-.35-.88-.77-1.33-1.14a5.86,5.86,0,0,0-1.39-1.08c-3.16-1.29-4.88-4.2-7.27-6.36a22.5,22.5,0,0,1-2.13-2.52Z" transform="translate(-234.54 -273.9)"/><path d="M326.35,386.66A7.12,7.12,0,0,1,325,386a62.73,62.73,0,0,1-8.89-7.88A36.75,36.75,0,0,1,310.8,369c-1.09-2.41-2.19-4.82-3.2-7.27a6.13,6.13,0,0,1,0-4.79,6.21,6.21,0,0,0,.15-4.51,4,4,0,0,1,.86-4.19c.88-1,1.59-2.23,2.38-3.35a10.85,10.85,0,0,1,.81-1.11c1-1.13,2.17-1.17,3.05,0,1.12,1.51,2,3.05,1.25,5.16a18.77,18.77,0,0,0-.5,4.35c-.08.84-.13,1.69-.28,2.52-.55,2.94.45,5.57,1.61,8.15,1,2.3,2.19,4.54,3.2,6.85.84,1.94,1.45,4,2.34,5.91s2.07,3.64,3,5.53a17.25,17.25,0,0,1,.95,3.38A4,4,0,0,1,326.35,386.66Z" transform="translate(-234.54 -273.9)"/><path d="M357.47,395.28c2.16-1.5,3.33-3.21,3.22-5.67s-2-3.66-3.73-4.84c1.17-1.59,2.27-3.18,3.47-4.68A3.71,3.71,0,0,1,362,379a1.89,1.89,0,0,0,1.47-1.94,20.66,20.66,0,0,0-.07-2.95,21.59,21.59,0,0,1,1.31-10c.14-.43.26-.86.48-1.59,2,2,4.05,3.85,5.82,5.88,1.35,1.56,1.61,3.65,1.72,5.65.15,2.77.17,5.55.11,8.33a3.36,3.36,0,0,1-.95,1.82c-.63.75-1.48,1.31-2.11,2.06a10.47,10.47,0,0,0-1.63,2.54,8,8,0,0,1-3.67,4.18A20.83,20.83,0,0,1,357.47,395.28Z" transform="translate(-234.54 -273.9)"/><path d="M355.34,359.88c2.84.51,4.23,2.43,5.13,4.85a29.31,29.31,0,0,1,1.35,8.11c.1,1.3.2,2.61.21,3.92a1.14,1.14,0,0,1-.55.89,5.51,5.51,0,0,0-3.24,2.85c-2.7,4.61-7.13,6.24-12,7.06-3.06.51-6.14.91-9.22,1.32a14.33,14.33,0,0,1-6.9-1.21,13.11,13.11,0,0,1-1.53-.67,3.41,3.41,0,0,1-.63-.52c.24-.23.45-.6.73-.67,1.08-.28,2.2-.37,3.26-.7,4.38-1.33,8.73-2.75,13.11-4.09a11.09,11.09,0,0,0,4.6-2.72,6.94,6.94,0,0,1,4.47-1.77A6,6,0,0,0,358,375a2.62,2.62,0,0,0-.17-4.18,24.69,24.69,0,0,0-3.11-1.8C356.1,366.16,354.81,363,355.34,359.88Z" transform="translate(-234.54 -273.9)"/><path d="M368.42,290.51c1.74.13,3.5.21,5.24.4a4.35,4.35,0,0,1,2.43,1.34c1.22,1.11,2.53,2.26,4.61,1.71a5.68,5.68,0,0,1-.16,1.13,2.09,2.09,0,0,0,.49,2.44,1.26,1.26,0,0,1,.16,1.77,1.86,1.86,0,0,0-.12,1.95,2.49,2.49,0,0,1-.12,2.45c-.6,1.05-1.25,2.07-1.85,3.12-.73,1.27-1.39,2.58-2.16,3.82a1.41,1.41,0,0,1-1.06.56,2.53,2.53,0,0,0-2,.67A16.59,16.59,0,0,1,372,313a1.19,1.19,0,0,0-.49.55c-.76,2-2.43,2.72-4.4,2.9a25,25,0,0,1-8.71-1.25,7.05,7.05,0,0,1-1.1-.36,8.59,8.59,0,0,0,5.22-2.6,28,28,0,0,0,3-3.49,36.53,36.53,0,0,0,3.14-5.76,28.78,28.78,0,0,0,1.42-5.38c.16-.81.51-1,1.19-.8,1.09.36,2.16.75,3.22,1.18s1.73.17,1.93-1c.28-1.8-.26-2.85-2.05-3.65-2-.88-4-1.67-6-2.5Z" transform="translate(-234.54 -273.9)"/><path d="M358,420.15c2.2-.86,4.54-.49,6.85-.64-1.74-1.05-3.51-1.82-5.59-1.35a3.29,3.29,0,0,0-1,.22c-1.51.85-2.54.16-3.48-1a12.16,12.16,0,0,0-1-1c2.61-1.42,5.36-1.29,8.09-1.38-3.17-.43-6.37-1.43-9.35.68a3.43,3.43,0,0,1-.37-.24l-.95-.81c1.2-2.25,2.59-4.25,5.22-4.9a4.74,4.74,0,0,1,1.34.08c.25,0,.54.12.73,0a5.53,5.53,0,0,1,2.59-.29,19.39,19.39,0,0,1,5.11,1.09,6.49,6.49,0,0,1,3.08,1.84c.56.68,1.57,1.29,1.67,1.91.21,1.31,1.33,1.56,1.91,2.36a16.13,16.13,0,0,1,1.19,2.39c-1.26.53-1.31.78-.5,1.85a7.92,7.92,0,0,1,.62,1.27c-1.94.3-.81,1.55-1,2.41-.86.6-.86.6-.6,2.15-1.12.2-1.12.2-1.13,2.3-.71.2-1.26.56-.88,1.46,0,.05,0,.17,0,.18-1,.56-.41,1.52-.53,2.41l-5.1-5.43c1.56.09,2.87-.79,4.27-.1l.09-.25c-.87-.28-1.77-.88-2.6-.78-2.18.25-3.56-.89-4.91-2.26,1.94-1.44,4.1-.69,6.42-.56a5.93,5.93,0,0,0-4.33-1.46c-1,.08-2,.23-2.94.28a1.43,1.43,0,0,1-1-.31C359.31,421.66,358.68,420.91,358,420.15Z" transform="translate(-234.54 -273.9)"/><path d="M328,396.55a10,10,0,0,0,1.3.76q3.06,1.17,6.15,2.27c1.35.47,2.77.79,4.09,1.33a7.41,7.41,0,0,0,5.75.13c2-.8,3.85-1.8,5.76-2.72.83-.4,1.64-.83,2.46-1.24a4.47,4.47,0,0,1,2.93-.43c2.14.41,4.05-.55,6-1.2.31-.11.6-.25.9-.38l.26.16A22,22,0,0,1,362,398a34.07,34.07,0,0,1-9.64,8.29c-1.93,1.16-4,2.18-5.95,3.24-3.15,1.68-6.15,1.16-9-.76-3.16-2.14-5.4-5.13-7.48-8.26-.49-.73-1-1.45-1.48-2.2-.29-.46-.5-1-.75-1.45Z" transform="translate(-234.54 -273.9)"/><path d="M298.11,350v7.25a6,6,0,0,0-4.54,2.85c-1.28,2-2.37,4.18-2.05,6.63a23,23,0,0,1,0,5.37,6.55,6.55,0,0,0,2.83,6.07c3,2.28,4.53,5.42,5.66,8.86.21.65.48,1.27.87,2.25-1.59-.59-3-1-4.27-1.62-5.23-2.49-7.76-7.1-9.38-12.35a4.25,4.25,0,0,1-.11-1.47,24.58,24.58,0,0,0-.86-7.58,12.39,12.39,0,0,1-.07-3.8,45.52,45.52,0,0,1,.6-5.47c.39-2.12,1.14-2.86,3-3,2.22-.15,3.9-1.57,5.71-2.7C296.29,350.82,297.17,350.47,298.11,350Z" transform="translate(-234.54 -273.9)"/><path d="M310.1,327.05a7.29,7.29,0,0,0-4.8,3.34c-.48.85-.82,1.78-1.23,2.67a7.45,7.45,0,0,1-2.88,3.14c-1.27-1.89-2.27-3.93-4.32-4.82a33.39,33.39,0,0,1,1.51-5.48,7.1,7.1,0,0,0,.43-3.56c-.06-2.09.12-4.19.19-6.29.09-2.62-.42-5-2.46-6.89-.09-.08-.21-.21-.21-.32.05-1.6-.93-2.73-1.95-4.1.59.05,1.07-.05,1.37.13a16.78,16.78,0,0,1,4,2.71,21.63,21.63,0,0,0,4.22,3.61,11.48,11.48,0,0,1,2.82,2.65,9,9,0,0,1,.83,2.75,9.42,9.42,0,0,0,.73,2.27,11.06,11.06,0,0,1,1.41,5.06C309.87,324.93,310,325.93,310.1,327.05Z" transform="translate(-234.54 -273.9)"/><path d="M274.7,300c-2.05.51-4,1.25-4.67,3.29a3.51,3.51,0,0,1-2.71,2.52,33.11,33.11,0,0,1-3.69,1.3c-3.7.69-5.65,3.09-6.65,6.46a10,10,0,0,1-1.6,3.32,3.82,3.82,0,0,0-.62,3.45,9.67,9.67,0,0,0,2.63,4.74,8.79,8.79,0,0,1,1.54,2.25,14.14,14.14,0,0,1-5.3-3.23,11.28,11.28,0,0,1-4-7.45,13.56,13.56,0,0,1,.64-4.2,2.5,2.5,0,0,1,1.28-1.26,4.34,4.34,0,0,0,2.48-3.73c.22-2.3,1.18-4,3.6-4.72a13.39,13.39,0,0,0,5.93-3.91,1.41,1.41,0,0,1,1.55-.54,7,7,0,0,0,5.23-.61,1.9,1.9,0,0,1,2.73.47c.31.3.6.61.88.93S274.41,299.62,274.7,300Z" transform="translate(-234.54 -273.9)"/><path d="M374.88,290l-3.34-.28c-.08-1.34-.19-2.54-.2-3.75a5.88,5.88,0,0,1,.23-1.92c1.23-3.69-1.11-6.81-5-6.74a5.81,5.81,0,0,0-2.7.54,2.23,2.23,0,0,1-1.33.23c-2.89-.64-5.27.48-7.53,2.08a3.54,3.54,0,0,1-.48.23l-.26-.16a12.55,12.55,0,0,1,.56-1.17c.26-.4.59-.76,1-1.24-4.24,1.84-6,4.87-4.37,9.13.27.7.53,1.41.85,2.09a9.06,9.06,0,0,1,.76,5.55c-.38,2,.39,3.88,1.28,5.65a40.49,40.49,0,0,0,5.72,8.1,9.23,9.23,0,0,1,1,1.35c.68,1.13.49,2-.62,3.16a2.45,2.45,0,0,1-3,.48c-.48-.25-.62-.54-.42-1,1-2.4.45-4.68-.71-6.8-1.36-2.49-3-4.84-4.4-7.3-1.09-1.9-2.11-3.84-3-5.84a3.39,3.39,0,0,1,0-2.16,13.16,13.16,0,0,0,.81-6.25,4.43,4.43,0,0,1,1.38-4.55c1.6-1.34,2.95-3,5.12-3.47a.84.84,0,0,0,.39-.29,5.11,5.11,0,0,1,5.68-1.45c2,.65,3.95,1.44,5.9,2.28a19.59,19.59,0,0,1,5.23,3.69c.79.69,1.6,1.35,2.43,2a2.07,2.07,0,0,1,.6,3.15,18.6,18.6,0,0,0-1.37,2.8A7.66,7.66,0,0,0,374.88,290Z" transform="translate(-234.54 -273.9)"/><path d="M295,308.16c-2.92-.74-4.16,1.29-5.67,2.7a40,40,0,0,0-2.44-3.52,14.9,14.9,0,0,0-2.6-2.21c-1.37-1-2.79-1.94-4.19-2.9a2.94,2.94,0,0,0-.67-.41c-2.07-.72-3.23-2.49-4.63-4-.47-.51-.09-.8.26-1,1-.57,2.07-1.13,3.14-1.6a6.94,6.94,0,0,1,5-.46c1.27.39,2.66.4,4,.74a8.75,8.75,0,0,1,5.16,4.3,4.28,4.28,0,0,1,.28,2.65,5,5,0,0,0,1.24,4C294.2,306.91,294.48,307.42,295,308.16Z" transform="translate(-234.54 -273.9)"/><path d="M362.44,309c-.61-2.9-1.33-5.79-1.8-8.72a18,18,0,0,0-2.28-6.54,16.82,16.82,0,0,1-2.11-7.74c2.28.32,4.66,0,6.31,2.2a7.94,7.94,0,0,0,2.54,1.95c1.76,1,3.6,1.87,5.48,2.83-1.74,2-1.63,4.5-2.23,6.78a18.87,18.87,0,0,1-4.46,8.3,12.58,12.58,0,0,1-1.09,1Z" transform="translate(-234.54 -273.9)"/><path d="M289.7,442.62c-1.58-.33-2.71.74-4.05,1.16a16.17,16.17,0,0,1-4,.73,45.59,45.59,0,0,1-6,0,8.08,8.08,0,0,1-2.34-1,5,5,0,0,0-.71-.32c-2.07-.52-3-2.17-3.5-4a7.87,7.87,0,0,1-.6-2.57c.13-.87-.06-2,.42-2.59s.37-1.43.68-2c.53-1,.65-2.07,1.53-2.94a18.1,18.1,0,0,0,2.28-3.57l6.08,7.81c-2.67.71-5.25-.34-8.17-.32a6.81,6.81,0,0,0,3.72,1.61,40.27,40.27,0,0,0,4.53,0,2,2,0,0,1,1.91.88c.47.61,1,1.17,1.76,2H271.18l-.05.15a7.51,7.51,0,0,0,.71.33,18.34,18.34,0,0,0,8.06.75,18.06,18.06,0,0,1,2.85-.06c1.87.06,2.13.22,3.59,2l-13.94.76,0,.41a21.68,21.68,0,0,0,3.71.53c3.2-.11,6.41-.32,9.6-.64A5.33,5.33,0,0,1,289.7,442.62Z" transform="translate(-234.54 -273.9)"/><path d="M318.43,447.62c1.27-.18,2.33-.37,3.41-.47a2.84,2.84,0,0,1,1.21.21l8.79,3.38a1.49,1.49,0,0,0,.67,0c-2.69-1.2-5.5-2.16-8-4a23.75,23.75,0,0,1,4-.58,8,8,0,0,1,2.65.88c1.33.54,2.62,1.17,3.95,1.68a5.74,5.74,0,0,0,1.49.15l-5.52-2.75.14-.36c1.71-.39,3.37-.78,5.05.44a13.89,13.89,0,0,0,3.12,1.27l.14-.3-3.31-1.89.13-.32,6.79-1.3c-.21.43-.36.74-.52,1.05a3.79,3.79,0,0,0-.22.41c.81.61.13,1.41.18,2.09a4.25,4.25,0,0,1-1,3c-.47.57-.77,1.28-1.22,1.87a3.22,3.22,0,0,1-1,.88,15.92,15.92,0,0,1-2.08.9,6.08,6.08,0,0,1-2.05.49c-1.58-.05-3.15-.28-4.72-.43a7.69,7.69,0,0,0-2.18-.12c-1.31.28-2.26-.54-3.39-.82-.48-.12-1-.2-1.45-.28-.09,0-.2.05-.28,0-1.38-.55-2.77-1.09-4.14-1.66a7,7,0,0,1-1.56-.74c-1-.68-1.86-1.45-2.88-2.27,1.64-.74,2.61.16,3.72.72,1.8.9,3.66,1.71,5.51,2.55a4,4,0,0,0,.76.12C322.34,450.27,320,449.66,318.43,447.62Z" transform="translate(-234.54 -273.9)"/><path d="M281.21,412.67a17.55,17.55,0,0,0-3.36-5c-1-.92-1.06-1.6-.47-3.15l3.71,3.56h.09c-.91-1.29-1.81-2.58-2.75-3.85-.54-.74-1.18-1.42-.52-2.64l4,3.79c-.11-2.12-2.51-3.19-3.82-5l.26-.21,4,3.36-1.16-2.46a5.4,5.4,0,0,1,.74.53,11.34,11.34,0,0,1,3.2,5.23c.28,1.22.71,2.46,1,3.73.21,1.1.62,2.2.05,3.35-.17.33,0,.83,0,1.25a4.89,4.89,0,0,1-.95,3.17.46.46,0,0,0-.06.28c.12,1.38-.75,2.13-1.74,2.85a4.5,4.5,0,0,0-.8,1c-.71-.93-.71-.93-2.32.14-.77-.88-1.28-.76-2.63.63-1.07-.34-1.07-.34-1.83,1a21.78,21.78,0,0,1-.07-2.55c.25-3,.56-6,1.1-9.15q1.47,2.34,3,4.68l.22-.09c-.89-1.84-1.71-3.7-2.69-5.48a3.58,3.58,0,0,1-.35-3.46Z" transform="translate(-234.54 -273.9)"/><path d="M234.54,378.32c1.07-.25,2.16-.43,3.19-.77a7.5,7.5,0,0,0,2.25-1.11,3.38,3.38,0,0,0,1.19-1.61c.28-.91.93-1.17,1.67-1.51,1-.46,1.9-1.11,2.9-1.58a8.36,8.36,0,0,1,5.12-.65c.34.06.62.45.92.69.89.7,1.75,1.42,2.65,2.1.71.53,1.47,1,2.19,1.51a8.75,8.75,0,0,1,1.61,1.34c1.27,1.58,2.52,3.19,3.68,4.85a8.45,8.45,0,0,1,.7,2.05c-.95-.15-1.56-.29-2-1.13-1.11-2-2.37-3.85-3.62-5.73a4,4,0,0,0-1.22-1c1.47,2.55,3.28,4.89,4.23,7.79l-2.29.29a35.24,35.24,0,0,0-1.34-4A22.11,22.11,0,0,0,254,376.2l2.76,7.89-1.41.35a20.7,20.7,0,0,0-4.86-8.8c.68,1.33,1.41,2.64,2,4s1.12,2.76,1.67,4.15L254,384c-1-.38-2-.75-2.94-1.16a.84.84,0,0,1-.36-.52,16.94,16.94,0,0,0-3.47-5.67c.52,1.88,2.29,3.26,2.15,5.46-1.7-.44-3.32-.83-4-2.8a8.12,8.12,0,0,0-2.82-3.86l2.4,4.82-.24.2C241.33,379.8,238.11,378.41,234.54,378.32Z" transform="translate(-234.54 -273.9)"/><path d="M252.07,458.05c2.79,1,5.71,1.54,8.33,3.05l-1.5,1.79c-2.44-1.5-4.82-3.2-7.63-3.1l7.14,3.84c-.23.38-.32.54-.42.69l-.24.45c-1.57-.71-3.09-1.52-4.7-2.09a29.37,29.37,0,0,0-5-1.2c2.83,1.14,5.76,2.06,8.41,3.92-1.08.42-2,.84-3,1.12a1.59,1.59,0,0,1-1.08-.23,20,20,0,0,0-6.78-1.9c2.09,1.09,4.44,1,6.06,2.77-1.6.74-3,1.65-4.89.63a7.28,7.28,0,0,0-4.6-1l5.21,2.06c-3.24,1.84-6.41,3.1-9.21,5.41a5,5,0,0,1,.73-1.25,6.48,6.48,0,0,0,1.87-3.56,11.22,11.22,0,0,0-.15-2.36,8.09,8.09,0,0,1,.23-2.08,13.32,13.32,0,0,1,1.11-3.18,11,11,0,0,1,2.12-2.89c1.74-1.55,3.74-1.17,5.7-1.29.86-.05,1.71-.22,2.56-.32a9,9,0,0,1,2.18-.18c2,.29,4,.64,6,1.1a7.92,7.92,0,0,1,1.9,1.12,2.21,2.21,0,0,1-2.4.47c-2.18-.68-4.4-1.26-6.61-1.83A5.29,5.29,0,0,0,252.07,458.05Z" transform="translate(-234.54 -273.9)"/><path d="M273.09,386.62c-2.33-.24-3.81-1.86-5.55-3l-.2.27c1.44,1.07,2.88,2.15,4.33,3.2a18.66,18.66,0,0,1,1.67,1,14.33,14.33,0,0,1,1.42,1.79,5.42,5.42,0,0,1-4.05-1.55,39,39,0,0,0-3.12-2.59,4.32,4.32,0,0,1-1.47-1.58c-.35-.77-1.37-1.22-2-1.87a9.41,9.41,0,0,1-1-1.34c-.54-.76-1.1-1.51-1.62-2.28s-1.07-1.6-1.52-2.44a7.59,7.59,0,0,1-.72-1.91c-.29-1.24-.51-2.5-.73-3.75a1.21,1.21,0,0,1,.14-.75,23.88,23.88,0,0,1,1.83-3c.5-.63,1.32-1,1.88-1.59.73-.79,2.17-.59,2.57-1.88l2,6.42c-1.55-.05-2.35-1.36-3.55-1.89l-.19.21A15.51,15.51,0,0,0,266,370.5c1.79.91,2.26,2.46,2.73,4.32-2-.65-3.39-2-4.88-3.21l-.23.18a12.89,12.89,0,0,0,1.54,1.81c1.07.87,2.3,1.53,3.34,2.41a6.31,6.31,0,0,1,1.45,2,24.1,24.1,0,0,1,1,2.82l-.24.24-7.15-5.32c.45.53.8,1,1.21,1.41a14.76,14.76,0,0,0,1.28,1.22c1.47,1.21,2.9,2.46,4.44,3.57a4.46,4.46,0,0,1,1.84,2.54C272.48,385.19,272.79,385.84,273.09,386.62Z" transform="translate(-234.54 -273.9)"/><path d="M292.15,317.72c-.6-1.43-1.31-3.08-2-4.75a1,1,0,0,1,.07-.85,11,11,0,0,1,1.49-1.7c1.63-1.47,3.21-1.23,4.53.54a7.08,7.08,0,0,1,1.29,4.45c0,2.39-.22,4.78-.18,7.17a19.17,19.17,0,0,1-1.71,7.29,10.8,10.8,0,0,1-5.22,5.42,6,6,0,0,0-3.08,3.65,11.26,11.26,0,0,1-3.69,5.46c-.22.19-.48.48-.72.48a19.13,19.13,0,0,1-2-.25,4.29,4.29,0,0,1,.51-1.55,71.92,71.92,0,0,0,7.32-10.35,41.7,41.7,0,0,0,4.62-12.46,7.42,7.42,0,0,0,.28-2c0-.41-.42-.8-.64-1.19Z" transform="translate(-234.54 -273.9)"/><path d="M251.53,440.32l5.56,4.07v.33L253,445l0,.22a20,20,0,0,0,3.43.34c2.4-.15,3.23.08,5.24,2h-6l-.07.37a11.88,11.88,0,0,0,2.16.51c1.44.07,2.89,0,4.33,0a3.24,3.24,0,0,1,2.26.71c.79.62,1.66,1.14,2.46,1.82a45.65,45.65,0,0,1-8.9.21c.57.14,1.13.3,1.7.41s1.17.17,1.76.24,1.24.15,1.86.18a18.24,18.24,0,0,0,3,.09c2.32-.29,4,.9,6,2.38-1.31.26-2.36.55-3.43.65s-2.22,0-3.33,0v.31c2,0,4,0,6,0,1.26,0,2.56-.44,3.74.71a6.17,6.17,0,0,1-1.89.81c-1.58.09-3.17,0-4.75-.05a15.21,15.21,0,0,1-1.66,0,17,17,0,0,1-1.71-.41,4.83,4.83,0,0,0-.66-.14,18.72,18.72,0,0,1-2.91-.22A16.41,16.41,0,0,1,259,455c-.25-.1-.53-.14-.78-.24a38.23,38.23,0,0,1-4.21-1.64c-.72-.38-1.19-1.24-1.78-1.88-.15-.17-.29-.4-.48-.49-1.28-.59-1.31-1.81-1.4-2.93a14.86,14.86,0,0,1,0-3.4,3.23,3.23,0,0,1,1.1-2.29.7.7,0,0,0,.16-.51C251.61,441.28,251.57,440.9,251.53,440.32Z" transform="translate(-234.54 -273.9)"/><path d="M290.31,452.1c-1.35,1.61-1.87,3.3-.63,5.3L291,453a26.66,26.66,0,0,1,1.75,2,1.2,1.2,0,0,1-.06.94,4.15,4.15,0,0,0-.25,3.68,1.86,1.86,0,0,0,.19.34,1.44,1.44,0,0,0,.29.13c.24-1.3-.17-2.83,1.3-3.71.31.4.61.82.95,1.21a1.81,1.81,0,0,1,.37,1.71,8.69,8.69,0,0,0,.06,2l.25,0c.27-.74.53-1.47.84-2.34l3.72,3.92c-.91,0-1.94-.4-2.63-.06a3.16,3.16,0,0,1-2.22.06c-.21,0-.48.32-.78.52a14.87,14.87,0,0,0-4,.06c-.92.17-1.42-1.8-2.73-.28-.8-.76-1.58-1.5-2.38-2.23a10.31,10.31,0,0,0-2-1.7,3.68,3.68,0,0,1-1.57-2.38,7.55,7.55,0,0,1-.25-4.18c.27-1,.28-2.3,1.32-3.12a8.51,8.51,0,0,1,3.91-1.45c.26-.05.64.48,1,.73-1.72,2.32-2,3.15-1.79,5.81.54-1.62.69-3.44,2.27-4.65Z" transform="translate(-234.54 -273.9)"/><path d="M245,339.48c3.23,4.89,3.23,4.89,9.48,5,.47,2.47,2.4,3.57,4.46,4.51-.71,1.78-.5,2.67,1.4,4.06,2.05,1.5,4.38,2.65,6.32,4.28,2.11,1.77,4.43,2,7,1.85.24,0,.49,0,.73,0l.11.28c-.59.36-1.15.78-1.76,1.08a14.58,14.58,0,0,1-6.88,1.77,8.22,8.22,0,0,1-6.12-3,5.31,5.31,0,0,1-.94-2.61c-.45-3.65-2.73-5.74-5.88-7.1a27.65,27.65,0,0,0-3.58-1.35c-2.82-.79-3.9-2.9-4.28-5.51A23,23,0,0,1,245,339.48Z" transform="translate(-234.54 -273.9)"/><path d="M318.41,328.84c1.46-.3,2.91-.64,4.37-.88,3.3-.53,6.59-1.14,9.9-1.47,4.65-.46,6.72,1.6,8.58,5.42.4.82.67,1.7,1.05,2.69-2.13-.3-4.21.17-6.11-1a2.56,2.56,0,0,0-2.81.2c-1.09.72-2.11,1.53-3.16,2.3C327.08,332.42,322.78,330.73,318.41,328.84Z" transform="translate(-234.54 -273.9)"/><path d="M324.15,411.59c-.08-.13-.16-.35-.23-.35a7.93,7.93,0,0,1-4.31-1.73c-1-.67-2.66-1-2.78-2.68-.08-1.05-.18-2.1-.28-3.14-.06-.54-.15-1.08-.24-1.71,4.63,1.46,9,3.76,13.55,5.68l0,.29-7.38.88a15.89,15.89,0,0,0,9,0c.54-.17,1.3.31,1.92.7l-3.81,1.3,0,.25a12.42,12.42,0,0,0,4.66-.34,8.33,8.33,0,0,1,5.44.43l-5,1.66c1.59.49,3.24.78,4.64-.09,1.77-1.1,3.2-.51,4.93.53l-4.57,1.54a7,7,0,0,0,5.39-.42,3.77,3.77,0,0,1-4,2.24,35.52,35.52,0,0,1-4.56-1.31c.09-1.06-.58-1.22-1.35-1.35-1.45-.25-3.16-.19-4.25-1-1.34-.95-2.62-.59-3.93-.81-1-.17-2-.42-2.94-.63Z" transform="translate(-234.54 -273.9)"/><path d="M269.42,332.66a21.24,21.24,0,0,1,6.23-4.14,9.82,9.82,0,0,1,4-1.19,1.94,1.94,0,0,0,1.33-1.06,37.73,37.73,0,0,0,1.42-3.76c.8-2.2,2.63-3.41,4.38-4.72a21.46,21.46,0,0,1,.87,10.43,10.68,10.68,0,0,1-1.6,3.73,2.09,2.09,0,0,1-1.77.5c-3.46-.7-6.86.3-10.29.22C272.47,332.63,271,332.66,269.42,332.66Z" transform="translate(-234.54 -273.9)"/><path d="M346.8,312.58c-.3.23-.58.62-.91.67-2,.33-3.38-.75-4.42-2.3a5.48,5.48,0,0,1-1-3.63,3.87,3.87,0,0,0-.1-.88c-.35-.14-.63-.24-.9-.36-.08,0-.1-.19-.18-.23-1.14-.59-2.09-1.59-3.55-1.48s-2-.5-1.69-2c.2-.85.46-1.7.71-2.55a9.64,9.64,0,0,0,.35-3.94,7.64,7.64,0,0,1,1.22-5,1.3,1.3,0,0,1,1.92-.46,4.78,4.78,0,0,1,2.86,4.61,64.28,64.28,0,0,0,.65,8.21,23.72,23.72,0,0,0,3.36,8.32c.36.6.81,1.21,1.69,1Z" transform="translate(-234.54 -273.9)"/><path d="M378.42,383.09l-2.71,3.11c-.88-2.27-1.92-4.06-1.59-6.41a47.2,47.2,0,0,0,.21-7.24c0-1.16-.17-1.12,1-1.18.86,0,1.71-.29,2.57-.37a22.22,22.22,0,0,1,3.9-.2,18,18,0,0,1,2.85.88,3.54,3.54,0,0,0,1.45.05c1.61-.27,3.21-.61,5-1l-7.93,7.09c-1.26-1.6-.87-3.67-1.55-5.45a6.36,6.36,0,0,0-.29,3.72c.79,3.85.92,2.73-1.5,5.39-.11.12-.2.25-.35.43-1.9-2-1.22-4.74-2.06-7.25C377.45,377.64,377,380.41,378.42,383.09Z" transform="translate(-234.54 -273.9)"/><path d="M387.2,342a9.3,9.3,0,0,0-2,5.3,15.42,15.42,0,0,1-3,6.87c-.54.75-1.13,1.46-1.64,2.22a2.71,2.71,0,0,1-3.26,1.14c-.76-.2-1.52-.37-2.47-.59l.31.4c-.72.5-1.43,1-2.17,1.5a1.61,1.61,0,0,1-.71.28,5.24,5.24,0,0,0-3.8,2.22,1.35,1.35,0,0,1-2.05.43l-.84-.45,5.87-4.72a1.93,1.93,0,0,1,0-2.48,4.46,4.46,0,0,0,.35-3.52,4.93,4.93,0,0,1,2.59-5.63c1.74-1.05,3.55-2,5.33-2.95l2.38-1.33a22.34,22.34,0,0,1-3.84,5.83c-1.25,1.39-2.68,2.62-3.82,4.08-1.27,1.63-1.87,3.48-.44,5.52a11,11,0,0,0,4.06-2.08,20.34,20.34,0,0,0,4.57-5.62c1.22-1.94,2.41-3.89,3.62-5.84.18-.3.38-.59.57-.88Z" transform="translate(-234.54 -273.9)"/><path d="M356.59,421.26c-1.74,1.08-1.74,2.72-1.53,4.46.27-.55.51-1.12.82-1.65a3.36,3.36,0,0,1,.83-1c.33-.25,1-.57,1.16-.43a8.24,8.24,0,0,1,1.54,1.63c.07.09-.11.41-.21.61a4.12,4.12,0,0,0,.28,3.83c.25-1.26.47-2.41.72-3.67,1.07.94,2,1.75,2.91,2.59a.74.74,0,0,1,.24.58,5.12,5.12,0,0,0,1.28,3.58l.25-2.47c2.11,1.4,4.09,2.86,5.13,5.29a24,24,0,0,0-3.08-1.74,38.08,38.08,0,0,0-4-1.11c-.15,0-.36,0-.48-.05a25.92,25.92,0,0,0-3.07-2c-1-.46-1.87-1.37-2.79-1.47-1.22-.14-1.85-1-2.83-1.39-.5-.19-1-.34-1.51-.51l-.19.28-1.17-2.32-.51.31-1.24-2-.5.45c-.31-.59-.57-1.18-.92-1.71-.48-.74-1.1-1.4-1.53-2.17a5.38,5.38,0,0,1-.39-1.5,22.41,22.41,0,0,1,2.32-1.67,2.14,2.14,0,0,1,1.5-.2A15,15,0,0,1,351.9,417c-1.29,2.25-1.91,4.49-.19,6.78a6.32,6.32,0,0,1,1.48-5.65Z" transform="translate(-234.54 -273.9)"/><path d="M322.52,373.48c3.11.4,6.15.81,9.21,1.18,3.51.43,7,1,10.55,1.2,4,.28,7.87-.22,11.19-2.77.91-.69.89-.8,0-1.51.22-1,1-.85,1.68-.76a2.26,2.26,0,0,1,2.17,1.81c.1,1-.55,1.79-1.79,2.14a11.82,11.82,0,0,1-2.49.5,7.74,7.74,0,0,0-4.95,2.35,7.4,7.4,0,0,1-4.92,1.9c-3.49.14-6.83-.67-10.21-1.3-2.09-.4-4.2-.69-6.28-1.14S323,375.75,322.52,373.48Z" transform="translate(-234.54 -273.9)"/><path d="M379.06,384.61c.88-1.1,1.67-2.16,3.3-2.45a12.58,12.58,0,0,0,5.87-3c.11-.1.19-.24.46-.56-2.09.94-3.86,2-5.93,2.1l-.17-.25,9.72-9.51c.06,1.5.07,2.84.2,4.18,0,.31.47.59.83,1,0,0-.14.26-.27.46s-.41.43-.36.56c.33,1-.48,1.48-.91,2.14-.08.13-.2.34-.16.44.68,1.3-.61,2-.85,3.07a5.77,5.77,0,0,1-.84,2.47c-.07.09.15.4.17.44a13.33,13.33,0,0,0-.7,1.45,2,2,0,0,1-2.11,1,30.71,30.71,0,0,0-3.37-.19l3.86-3-5.4,1.91c-.22.08-.63.17-.71.07-.62-.8-1.26-.33-1.94-.14-.86.24-1.74.38-2.61.57l-.14-.37a9.81,9.81,0,0,1,1.15-.51,32.45,32.45,0,0,0,9.93-4.51,1.16,1.16,0,0,0,.46-.52l-9.35,3.47Z" transform="translate(-234.54 -273.9)"/><path d="M289.31,328.55a4.55,4.55,0,0,1-.09-.72,25.11,25.11,0,0,0-.55-8.68,13,13,0,0,1-.19-2.43,3.44,3.44,0,0,0-.08-1c-.14-.33-.39-.77-.66-.84s-.65.29-.9.54c-.7.71-1.36,1.47-2,2.19a1.82,1.82,0,0,1-.83-2.13,12.84,12.84,0,0,0,.21-3,3.79,3.79,0,0,0-3.91-3.74,2.31,2.31,0,0,1-2.31-1.38,5.61,5.61,0,0,0-4.61-2.77,19.44,19.44,0,0,0-2.16,0c0-1.85,2.37-3.42,4.36-2.85a14.38,14.38,0,0,1,3.31,1.46,47.24,47.24,0,0,1,5.27,3.56,11.89,11.89,0,0,1,2.9,3.39,63.71,63.71,0,0,1,3.45,7.57,12.27,12.27,0,0,1-.73,9.81Z" transform="translate(-234.54 -273.9)"/><path d="M264.11,320.18a19.52,19.52,0,0,1,1.56,1.35c1.1,1.16,1.71,1.27,3.11.53,2-1.05,3.9-2.36,6.24-2.49a26.83,26.83,0,0,1,3.57.25c-.27,1.07-.54,1.84-.66,2.64-.15,1-.14,2-.28,3a1.29,1.29,0,0,1-.57.83,14.19,14.19,0,0,1-2.14,1,13.59,13.59,0,0,1-1.79.39,20.69,20.69,0,0,0-2.86.58,3.37,3.37,0,0,1-2.83-.06,4.81,4.81,0,0,0-1.89-.49,1.14,1.14,0,0,1-1.23-1.22c-.07-.91,0-1.84-.06-2.75C264.24,322.63,264.17,321.53,264.11,320.18Z" transform="translate(-234.54 -273.9)"/><path d="M355.51,312.23l-3.35-3.71c-3-3.33-5.41-7-6.36-11.46a26.71,26.71,0,0,1-.45-4.19,3.08,3.08,0,0,0-1.81-2.71c-2.09-1.11-2.89-1-1.41-4.25.08-.17.19-.33.33-.56a10.55,10.55,0,0,1,4.59,5.95,7.93,7.93,0,0,1,.34,1.44,10.89,10.89,0,0,0,3,5.86,31.89,31.89,0,0,1,5.26,8.83A5.72,5.72,0,0,1,355.51,312.23Z" transform="translate(-234.54 -273.9)"/><path d="M324.12,411.56a16.55,16.55,0,0,0,1.82.84,7.58,7.58,0,0,1,3,2,6.9,6.9,0,0,1,1.9,3.89,28,28,0,0,1,.46,4.58,12.59,12.59,0,0,1-.2,2.07,3.06,3.06,0,0,1-1.57-2.91c0-.95-.08-1.91-.2-2.85-.23-1.95-.85-2.64-3-3.52a17.77,17.77,0,0,1,1.71,3.06,11.88,11.88,0,0,1,.33,3.51c-1.22-.9-2.66-1.43-3.07-3.17a4.77,4.77,0,0,0-3.57-3.92c2,1.38,2.57,3.54,3.24,5.66-1.86-.7-2.64-.68-3.81-2.5-.85-1.31-1.88-2.46-2-4.11-.25,1.46-.6,2.91.76,4.1a13.88,13.88,0,0,0-5.52-2,.57.57,0,0,1-.35-.44c0-.16.19-.36.35-.47,1.06-.72,2.13-1.43,3.2-2.14l-.13-.27a5.13,5.13,0,0,0,1.36,0c.6-.17,1.12-.59,1.72-.75s1.15.5,1.85-.07a4.86,4.86,0,0,1,1.81-.55Z" transform="translate(-234.54 -273.9)"/><path d="M259.24,333.27c2.06.14,3.83,0,5.54.81,3.36,1.56,7,1.95,10.62,2.7s6.34-.63,9.35-1.77l.83-.31a2.33,2.33,0,0,1,.36,0,48.1,48.1,0,0,1-2.8,4,5.09,5.09,0,0,1-2,1c-1.43.55-2.87,1.09-4.32,1.57a7.68,7.68,0,0,1-5.35-.46,42.55,42.55,0,0,1-9.79-5.74C261,334.47,260.21,334,259.24,333.27Z" transform="translate(-234.54 -273.9)"/><path d="M268.88,405.92a14.13,14.13,0,0,1,.79-1.43,1.84,1.84,0,0,1,1.34-.83,23.26,23.26,0,0,0,4-1.39c.71-.26,1.4-.56,2.25-.9-.11,1.21-.27,1.94-1.4,2.22-2.53.62-3.71,2.79-5,4.79,1.39-2.08,3.48-3.06,5.78-3.81-.14.95-.27,1.88-.44,2.81a1,1,0,0,1-.36.55q-1.68,1.5-3.41,3a3.14,3.14,0,0,0-1.2,3.38l4.38-4.87a24.16,24.16,0,0,1-1.4,9.07l1-1.28V423l-.35.11a20.23,20.23,0,0,1-.83-2.33c-.18-.8-.61-.81-1.07-.62-.55-.84-1.08-1.6-1.54-2.4-.13-.23,0-.57-.08-.87,0-.62,0-1.29-.87-1.42-.12,0-.27-.28-.28-.44-.1-.88-.17-1.77-.25-2.65,0-.13,0-.34-.07-.37-.91-.41-.43-1.3-.69-1.87-.56-1.27-.24-2.44-.11-3.66C269.13,406.28,268.93,406,268.88,405.92Z" transform="translate(-234.54 -273.9)"/><path d="M250.32,469.27l-3.07,4,.08.14a27.82,27.82,0,0,0,2.7-2.1,7.32,7.32,0,0,0,1.69-2.27c.61-1.38,1.86-1.53,3-2l.19.19L249.62,474l.15.18a29.94,29.94,0,0,0,3.11-2.83c1.41-1.62,2.63-3.4,3.95-5.1a3,3,0,0,1,.73-.5l.2.19c-.47.82-.95,1.64-1.41,2.47-.12.21-.34.59-.28.66.67.71,0,1.18-.29,1.65-.79,1.1-1.63,2.17-2.62,3.49l3.74-2.46-.57,3.58a3.12,3.12,0,0,1-3.19.72,2.23,2.23,0,0,0-.57,0c-.45,0-.9,0-1.34,0-.79.07-1.58.21-2.37.26a7.31,7.31,0,0,1-1.22-.12,2.5,2.5,0,0,0-.66-.06c-1.15.15-2.3.32-3.52.5-.06-.84-.59-1-1.28-1.05a6.63,6.63,0,0,1-1.08-.38c-.77-.21-1.55-.38-2.47-.6L250,468.88Z" transform="translate(-234.54 -273.9)"/><path d="M247.05,382.78l-5.26,1a10.3,10.3,0,0,0,6.11-.09,3.76,3.76,0,0,1,3.83.68l-8.46,1.54c3.82.74,7.54-.1,11.26-.9l.09.4c-.78.28-1.56.59-2.36.81-.49.13-1,.13-1,.83,0,.14-.34.35-.55.39-1.56.35-3.12.66-4.86,1l4.34.72a7.88,7.88,0,0,0-2,1.55,1.2,1.2,0,0,1-1.58.59,11.7,11.7,0,0,1-2-1.41c-.07-.05-.07-.2-.14-.25a14.06,14.06,0,0,1-2.1-1.61c-.64-.73-1.95-.75-2.1-2,0-.12-.2-.24-.34-.33l-3-1.91c.39-1-.78-3.31-2.22-4.8l12.35,3.32Z" transform="translate(-234.54 -273.9)"/><path d="M329.38,439.6a3.29,3.29,0,0,0-2.26,2c-.53,1.09-1,2.22-1.54,3.29a1.53,1.53,0,0,1-.88.7c-1,.21-1.94.31-3.11.48a8.07,8.07,0,0,1,.33-1.33c.45-1,1-2,1.46-3a5.11,5.11,0,0,1,3.37-2.74c1.41-.39,2.79-.85,4.19-1.26a1,1,0,0,1,.54.09c.14.05.27.23.41.23a21,21,0,0,1,3.1.19c.44.23.87.47,1.31.68s.94.05.77.74c0,.05.05.13.1.17.77.64,1.53,1.29,2.32,1.92.53.42,1.1.8,1.71,1.24l-8,1.35-.22-.23c.73-1.19,1.45-2.39,2.27-3.74-.34.07-.66,0-.8.19-.55.55-1.06,1.15-1.56,1.74s-.72,1-1.1,1.44c-1.26,1.6-3.14,1-4.71,1.5l-.3-.28Z" transform="translate(-234.54 -273.9)"/><path d="M335.41,309.26c-.87,1.11-.64,2.2-.48,3.32a3.23,3.23,0,0,1-.28,1.45,7.63,7.63,0,0,1-1.35,2.74c-.24.27-.21.79-.29,1.2,0,.15,0,.32,0,.47-.34,1.21-.65,2.43-1.05,3.62a5.07,5.07,0,0,1-.88,1.57c-.7.84-1.5,1.61-2.41,2.57.37-5.82-.76-8.71,5.67-16.22-.54.24-.94.31-1.14.54-1.92,2.19-4,4.3-4.78,7.21a37.3,37.3,0,0,0-.63,5c-.09.78-.15,1.56-.25,2.6-.92-1.24-1.75-2.27-2.47-3.38-.48-.73,0-3,.65-3.61a1.21,1.21,0,0,0,.41-.84,6.4,6.4,0,0,1,.72-3,2,2,0,0,1,1.11-1.34c.72-.33,1.22-1.13,1.86-1.67a11.47,11.47,0,0,1,1.38-.87,9.28,9.28,0,0,1,1.87-1A14.23,14.23,0,0,1,335.41,309.26Z" transform="translate(-234.54 -273.9)"/><path d="M271.55,368.5l-2.2,3.77-.35,0-2.65-7.71a18.64,18.64,0,0,0,2.49,1.4,18.44,18.44,0,0,0,2.69.62.69.69,0,0,1,.34.14c1.14,1,2.5,1.82,2.93,3.43,0,.12.1.29.2.33,1.23.62,1,1.85,1.25,2.89.15.71.34,1.41.45,2.13.07.43,0,.88,0,1.32s.22.58.27.88.17.76,0,.95c-1.08,1.36-2.21,2.67-3.34,4a5.16,5.16,0,0,1-.74.58c-.41-1.15-.81-2.21-1.15-3.29-.06-.18.11-.49.25-.68.66-.9,1.38-1.75,2-2.66a4,4,0,0,0,.85-3.36c-1.23,1.75-2,3.63-3.8,4.9a16.16,16.16,0,0,1-1.22-3.56,6.9,6.9,0,0,1,.82-2.73c.29-.78.7-1.53,1-2.32C271.8,369.27,271.64,369,271.55,368.5Z" transform="translate(-234.54 -273.9)"/><path d="M265.54,442.63v6.07a19.72,19.72,0,0,1-3.4-2.38,6,6,0,0,1-.81-2.54c-.19-.76-.29-1.54-.51-2.28a1.21,1.21,0,0,0-.79-.67l.46,4.12-.34.15-6.66-4.64a16.86,16.86,0,0,0,2.73-.32,20.83,20.83,0,0,0,2.63-1.13.91.91,0,0,1,.37-.08,7.61,7.61,0,0,1,4.35,1c.11.08.24.18.35.16,1.35-.17,2,.86,2.76,1.64.56.56,1.2,1,1.81,1.56s.71,1.56,1.75,1.63c.07,0,.18.28.17.42-.11,1.87-.24,3.73-.37,5.59a4.38,4.38,0,0,1-.19.65c-1-.69-2-1.31-2.93-2-.2-.15-.16-.66-.17-1-.05-1.47,0-2.95-.15-4.41a5.6,5.6,0,0,0-.82-1.64Z" transform="translate(-234.54 -273.9)"/><path d="M298,422.69v5.53a10.19,10.19,0,0,0-1.42-1.17,13.06,13.06,0,0,0-1.95-.74l-.11.25c.38.23.78.44,1.14.7a7.9,7.9,0,0,1,2.78,4,4.7,4.7,0,0,1-.07,1.7l-.29.15-3.51-3.82a3.14,3.14,0,0,0,.88,2.79,7.09,7.09,0,0,0,1.53,1.38c1.51.81,1.59,2.31,2.06,3.74-2.37-.68-4.36-1.7-5.4-4.21a3.38,3.38,0,0,0,1.95,3.93c.91.44,1.85.82,2.79,1.21a3.24,3.24,0,0,1,2.21,2.37c-1-.26-1.88-.45-2.75-.75a12.51,12.51,0,0,1-6-3.81,6.66,6.66,0,0,1-1.53-5.81,2.41,2.41,0,0,1,1.06-1.38c.83-.46.7-1.23.91-1.91l.21.15c.34-.4.71-.77,1-1.2s.4-1.37,1.39-1.2c.17,0,.39-.31.6-.46.71-.49,1.42-1,2.14-1.43C297.75,422.6,298,422.69,298,422.69Z" transform="translate(-234.54 -273.9)"/><path d="M274.81,424.88c1.54,0,3.09,0,4.63,0a3.32,3.32,0,0,1,2.71.83,22.83,22.83,0,0,1,2.28,2.23,5.47,5.47,0,0,1,.75,1.24,23,23,0,0,1,.94,2.91c.12.46.07.92.7,1a.56.56,0,0,1,.32.29c.39.93.74,1.88,1.17,2.8.13.29.41.65.67.7,2,.37,3.07,3.32,1.82,5.12l-1.4-2.92-.23,0-.22,1.83c-1-.39-1.54-.9-1.41-2.06a17.21,17.21,0,0,0-.15-2.95l-.37-.05c-.31.93-.62,1.86-.92,2.79-1.54-.86-1.57-2.21-1.28-3.72a20,20,0,0,0,.18-2.32l-.29-.08-1.49,3.1-1-1.06a6.61,6.61,0,0,0,.08-6.55c-.31,1.94-.59,3.63-.87,5.32l-.34.07-6.54-8.26Z" transform="translate(-234.54 -273.9)"/><path d="M346.82,312.6a60.73,60.73,0,0,1-2.94-6.93c-1.36-4.67-1.35-9.48-1-14.41a1.76,1.76,0,0,1,1.24,1.72,23.52,23.52,0,0,0,4.54,12.68c1.81,2.63,4,5,6,7.55l.69.88c-1.77-1.13-3.27-2.25-5.23-2a3.42,3.42,0,0,0-1.69.64c-.67.56-1.09.42-1.56-.16Z" transform="translate(-234.54 -273.9)"/><path d="M311.94,447.24a13.54,13.54,0,0,1,1.82,1.72c1.94,2.72,2.56,6,3.63,9.08,1.36,3.89,2.6,7.83,4.08,11.68,2.44,6.38,5,12.71,7.55,19.07a2.4,2.4,0,0,1,.15,1.3,44.37,44.37,0,0,0-3-3.53c-1.34-1.26-1.52-2.92-1.9-4.52a76.6,76.6,0,0,0-5.39-14.82c-.64-1.36-1.07-2.8-1.61-4.2-.75-2-1.55-3.89-2.27-5.86-1.08-3-2.12-6.05-3.16-9.08a3.39,3.39,0,0,1-.1-.65Z" transform="translate(-234.54 -273.9)"/><path d="M330.75,425.94a12,12,0,0,1-1.47,1.22c-1,.57-2.28.82-3,1.6a29.48,29.48,0,0,1-3.25,2.61,27.06,27.06,0,0,0-3.2,3,17.64,17.64,0,0,0-3.92,7.3,2,2,0,0,1-.81,1.07,5.56,5.56,0,0,0-2.37,2.52,5.25,5.25,0,0,1-1.06,1.19c-.21-.68-.41-1.3-.59-1.92a.83.83,0,0,1-.07-.48c1-2.58-.51-4.85-.8-7.35.95,0,.72-.69.35-1.22-.55-.79-1.24-1.49-1.88-2.25l.82-.27a5,5,0,0,0-1.51-2.73c-2-2.36-4.1-4.69-6.14-7-1.88-2.16-3.61-4.46-5.51-6.61s-3.78-4.46-5.8-6.56c-1.37-1.44-3-2.63-4.48-4a6.31,6.31,0,0,1-.82-1.2c1.45.29,1.87,2.42,3.58,1.49,2.52,2.92,5.06,5.84,7.57,8.78,1.6,1.87,3.16,3.77,4.77,5.63a3.72,3.72,0,0,0,1.06.54c.27,2.57,2.16,4.2,4,5.85,2.25,2,4.21,4.24,4.77,7.33.34,1.87.52,3.76.79,5.64.11.8.24,1.61.42,2.73,1.21-1.32,2.34-2.36,3.25-3.56,1.87-2.45,3.61-5,5.44-7.47a28.92,28.92,0,0,1,2-2.18c.09-.1.2-.25.3-.24,2.16.06,3.43-1.7,5.16-2.52.76-.36,1.45-.86,2.18-1.29Z" transform="translate(-234.54 -273.9)"/><path d="M318.1,286.59c.23,0,.55.12.87.15,2,.16,2.92,1.39,2.35,3.33-.44,1.5-1,2.95-1.61,4.41-.82,2.14-1.75,4.24-1.65,6.6,0,.55.07,1.1.11,1.72a2.43,2.43,0,0,1-2.31-1.45,10,10,0,0,1-1.77-6.29,6.65,6.65,0,0,1,.84-2.38c.73-1.35,1.61-2.61,2.36-3.95A16.51,16.51,0,0,0,318.1,286.59Z" transform="translate(-234.54 -273.9)"/><path d="M303.75,395.05l1.84,2.15.26-.13a6.55,6.55,0,0,0,0,1.83c.14.45.64.79,1,1.18l.3-.16a7,7,0,0,0-.46,1.74c0,.9.73.82,1.35.81.38.89-1.12,2.2.64,2.72-.31,2.13-.31,2.13.8,2.17.1.95-1.79,1.48-.5,2.74a4.72,4.72,0,0,1-.71.88c-.78.58-.77,1.07.12,1.55a8,8,0,0,1-.83,1c-.49.46-.77.83-.15,1.45.4.4.11.68-.4.78-.95.17-1.9.37-2.87.56-.72-2.06.44-3.73,1.4-5.54l-1.35,1c-.62-2.63.73-4.9,1.27-7.47l-.84.51C304.62,401.55,303.41,398.53,303.75,395.05Z" transform="translate(-234.54 -273.9)"/><path d="M337.93,436.9v-4.6l2.5.28a2.92,2.92,0,0,0-2.15-1.77c-1-.26-1.35-.8-1.45-1.94l4.29.79.07-.17a27.88,27.88,0,0,0-3.87-1.29,1.73,1.73,0,0,1-1.66-1.51l4.11-.56v-.19l-3.7-.37c1.39-.65,2.65-1.32,4-1.84,1.16-.46,2.39.34,3.23,1.25.71.75.71,1.68,1.18,2.45.12.21,0,.57,0,.85s-.16.34-.12.46c.21.62.37,1.2-.47,1.48a.14.14,0,0,0-.05.08c.22,1.16-1.21,1.61-1.11,2.43-.6.48-1,.85-1.49,1.17a4.64,4.64,0,0,1-1.47.87c-1,.22-1.19,1-1.51,1.73A4,4,0,0,1,337.93,436.9Z" transform="translate(-234.54 -273.9)"/><path d="M291.18,399.93l-4.25-1.27,0-.39a6.17,6.17,0,0,1,1.21-.09c1.38.17,2.76.38,4.14.58l.05-.24-3.28-1.13a2.11,2.11,0,0,1,2.76-.39c1.33.79,2.77.63,4.25.53l-3.57-1.45c1.57-.67,3.05-1.45,4.74-1.2l.58,3.8c-.22.55-1.63.64-.86,1.64l-.75,1.37c-.53.42-1,1-1.54,1.18a10.29,10.29,0,0,1-2.93.31c-.75,0-1.33-.74-2.28-.44-.5.17-1.3-.25-1.83-.6-1.16-.77-2.23-1.66-3.34-2.51l.15-.4c1,.21,2.08.47,3.13.6s2.39.16,3.58.23Z" transform="translate(-234.54 -273.9)"/><path d="M347.51,324.4c.59,1.54.58,1.49,2.05,1.29a5.11,5.11,0,0,1,1.63.21,31.54,31.54,0,0,0,9.68.57c-1.12,1.63-2.08,3.23-3.24,4.66-1,1.27-3.45,1.64-4.43.52a5.69,5.69,0,0,0-2.92-1.49,18,18,0,0,1-3.42-1.91,1.07,1.07,0,0,1-.43-.89C346.72,326.36,347.14,325.38,347.51,324.4Z" transform="translate(-234.54 -273.9)"/><path d="M300.76,461.37l-.73.68-2.47-3.29,2,.22.09-.22a5.11,5.11,0,0,0-1.49-.79c-1.64-.25-2.4-1.51-3.39-2.73h2.84l.08-.19a7.84,7.84,0,0,0-2.35-.63,2.42,2.42,0,0,1-2.56-1.33c.7-1.17,2-.76,3-1.12a4.27,4.27,0,0,0-3.42-.1.84.84,0,0,1-.75-.1c-1-1.1-2-2.26-3-3.39-.55-.62-.31-1.1.24-1.57a4.22,4.22,0,0,0,1.05-1.39c1.08.48,2.19.9,3.24,1.44s1.87,1.12,2.72,1.65c0,.3,0,.68.12.79.84.64.8,1.68,1.21,2.51.5,1,.78,2.15,1.2,3.22a5.52,5.52,0,0,0,.82,1.58c1,1.11.9,2.48,1.08,3.8A4.19,4.19,0,0,0,300.76,461.37Zm-9.29-12.43,3.82.71A3.49,3.49,0,0,0,291.47,448.94Z" transform="translate(-234.54 -273.9)"/><path d="M347.65,289a12.66,12.66,0,0,0-4.38-4.8.89.89,0,0,1-.35-.61c-.15-1.56-.27-3.12-.39-4.68,2.77-2.68,6.33-2.48,10.17-2.48l-1.11,1a5.66,5.66,0,0,1-.56.4,5.55,5.55,0,0,0-2.72,6.77A6.38,6.38,0,0,1,347.65,289Z" transform="translate(-234.54 -273.9)"/><path d="M347,374.17c.76-1.56,1.13-2.92,2.53-3.81,1.68-1.06,1.6-2.56.07-3.7.59-.62,1.17-1.27,1.79-1.88a6.63,6.63,0,0,0,.42-8.63,3.84,3.84,0,0,1-1-3.7c.21-.95.37-1.91.58-3.05a7.65,7.65,0,0,1,2.57,5.24c.09,1.63,0,3.28,0,4.92,0,2.09.06,4.19,0,6.28a9.34,9.34,0,0,1-.7,2.82,22.38,22.38,0,0,1-1.43,2.8,2.85,2.85,0,0,1-1.75,1.59C349.05,373.32,348.13,373.73,347,374.17Z" transform="translate(-234.54 -273.9)"/><path d="M337.59,353.16a6.84,6.84,0,0,0,.39,4.39,29.26,29.26,0,0,1,1,3.66c.2,1.05-.13,1.36-1.23,1.31-1.63-.07-3.27-.17-4.89-.34a1.19,1.19,0,0,1-.84-.7,24.26,24.26,0,0,1-.64-4c-.06-1.42,1-2.25,2.11-2.86a39,39,0,0,1,3.89-1.74Z" transform="translate(-234.54 -273.9)"/><path d="M272.09,312.61c-2.36,2-5.92,2.42-7,5.94-.06.19-.46.34-.72.39s-.73,0-1.07,0c-.71.17-1.11.49-.86,1.4a27,27,0,0,1,.5,3.26l-.23.05c-.73-2.12-1.52-4.22-2.13-6.36a2.56,2.56,0,0,1,.34-1.95c1.5-2.06,3.33-3.76,6-4.1a7.37,7.37,0,0,1,2.79.29A16,16,0,0,1,272.09,312.61Z" transform="translate(-234.54 -273.9)"/><path d="M300,415.72h.83a3.33,3.33,0,0,0-.35-.79,4.66,4.66,0,0,0-.79-.7c.52-.52.66-1.05,0-1.57.81-.56.62-1,.1-1.63a17.88,17.88,0,0,1-1.52-2.49c1-.34,1.35-.88.93-1.76a.51.51,0,0,1,.14-.48c.78-.31.59-.92.66-1.55a2.68,2.68,0,0,1,1.09-1.43,12.27,12.27,0,0,1-.17-1.34c0-.22.09-.58.25-.65,1-.48,1-1.17.47-2l1.59-1.63c.12,3.51.23,6.72.33,9.94l-.27.11c-.35-.47-.75-.92-1.06-1.43a16.56,16.56,0,0,1-.84-1.76c-.1,1.44-.14,2.63.67,3.61a5,5,0,0,1,.87,4L301,409.64l2.93,9.63-.26.12-3.87-3.48Z" transform="translate(-234.54 -273.9)"/><path d="M353.77,281.49c.4,2.15.83,4.2,1.16,6.26a16.77,16.77,0,0,0,2.06,6.3,20.07,20.07,0,0,1,2.49,8.28c.17,1.32.47,2.62.76,4.21-3-3.94-6.14-7.47-6.07-12.57a10.05,10.05,0,0,1,.53-2.57,3,3,0,0,0-.24-2.44,11.8,11.8,0,0,1-1.72-6.16C352.77,282.22,352.84,281.69,353.77,281.49Z" transform="translate(-234.54 -273.9)"/><path d="M329.63,406l-12.86-5.49a14.26,14.26,0,0,0,2-.46c1.33-.5,2.6-1.15,3.94-1.61,1-.33,2-.45,3-.7a1.67,1.67,0,0,1,2,1.13c-.08,2.58,2.22,4.41,2,7C329.69,405.92,329.67,405.94,329.63,406Z" transform="translate(-234.54 -273.9)"/><path d="M324.82,378.21l15.5,2.86a.7.7,0,0,1-.26.19c-3.82,1-7.65,2-11.47,3.05-.68.19-.94,0-1.22-.64C326.56,381.79,325.64,380,324.82,378.21Z" transform="translate(-234.54 -273.9)"/><path d="M363.56,332.38c.54.9,1.11,1.12,1.86.72.11-.06.32-.16.35-.12,1,1.18,2.91-.38,3.56,1.38.91-.42,1.63-.84,2.38.07.19.23.87,0,1.32,0l.05-.25,1.59,1.07-9.18,1.84-.2-.29,2.59-2.13a4.61,4.61,0,0,0-3.16,1c-1.24,1.29-2.87,1.41-4.56,1.6L363,335l-.1-.18-3.09,1.59c-.29.15-.57.31-.85.49-1.85,1.16-3.42,0-5.37-.62l1.71-1.5.2.19-.48.77c1.31.44,1.51-.8,2.27-1.3.61.7,1.25.53,1.83-.34.75.95,1.3.57,2-.05A19.81,19.81,0,0,1,363.56,332.38Z" transform="translate(-234.54 -273.9)"/><path d="M316.88,303.34c2.23.45,4.07.48,5.84-.52.22,1,.25,1.78-.53,2.39-1.72,1.33-2,3.1-1.45,5a90,90,0,0,0,5,14.37c.22.5.4,1,.61,1.56l-1.69.32c-.36-1-.73-2-1.11-3a77.22,77.22,0,0,1-3.93-12.33c-.18-.89-.26-1.81-.48-2.7a12.27,12.27,0,0,0-.7-1.92C318,305.58,317.47,304.59,316.88,303.34Z" transform="translate(-234.54 -273.9)"/><path d="M336.71,346.06c-2.4,2.41-4.88,4.27-6.33,7.17a4.59,4.59,0,0,1-1.21-3.2,59.46,59.46,0,0,1,0-6c.07-1.65.79-2.12,2.25-1.34C333.21,343.7,334.9,344.91,336.71,346.06Z" transform="translate(-234.54 -273.9)"/><path d="M311.08,447.83a18.31,18.31,0,0,0-3.09,2.26c-.7.78-1.6.71-2.37,1a5,5,0,0,1-2.46.14,21.45,21.45,0,0,1-2.88-.84,4,4,0,0,1-2-2.55,1.59,1.59,0,0,1,.51-1c.79-.64,1.66-1.19,2.51-1.77l-.28-.46-.2,3.08,1.37-3.19a1.35,1.35,0,0,1,1.19,1.44,9.66,9.66,0,0,0,.88,3.05l-.17-3.3c.92.31,1.55.53,1.74,1.51a7.17,7.17,0,0,0,1.07,1.94l.38-.15v-1.71Z" transform="translate(-234.54 -273.9)"/><path d="M349.12,351.34c-1.9-2.37-4.26-3.78-7.4-3.41a11.09,11.09,0,0,0-5,2.36,44.94,44.94,0,0,1-4,2.73c1.08-1.35,2.07-2.79,3.28-4a37.87,37.87,0,0,1,3.75-3.15,4.63,4.63,0,0,1,3.34-.9,8.71,8.71,0,0,1,5,1.76C350.07,348.29,350.24,349.29,349.12,351.34Z" transform="translate(-234.54 -273.9)"/><path d="M377,335.35l-1.52,2c-.49.26-1.95-.22-1.81,1.35a14.43,14.43,0,0,0-2.06.42c-.12.05-.06.66-.08,1.06-.69.46-2.21-.57-2.38,1.13-.8.37-2.44-.86-2.17,1.24-2.19,0-3.58-1.24-4.82-2.78h.58l-1.8-1.36c2.73-.82,5.41-.42,8.23-.13-.14-.25-.19-.37-.27-.48a4.58,4.58,0,0,0-.31-.35C371.49,337.28,373.91,335.5,377,335.35Z" transform="translate(-234.54 -273.9)"/><path d="M284.94,384.59l-.51,0q1-3.68,2-7.32l.34,0,.8,2.13c-.18.69-1.23,1.58.15,2.35-1.15,1.64-1.15,1.64,0,2.27-.24.36-.66.69-.67,1a3.82,3.82,0,0,1-.49,2.38c-.06.07.27.44.48.77l-.85.66c-.12.1-.38.23-.36.28.3,1-.59,1.07-1.11,1.47-.18.15-.11.62-.17,1.08-.63.35-1.77.51-1.24,1.87l-2.9-.42c.11-1.87,1.57-2.75,2.88-3.8l-1.38.3-.25-.23Z" transform="translate(-234.54 -273.9)"/><path d="M324.6,421.71c-1.4.85-2.59,0-3.82-.21a3.75,3.75,0,0,0,4.36,1.34,1.9,1.9,0,0,1,2.09.26,18.74,18.74,0,0,0,1.94,1.23l-4.79.9v.26h5c-.92.84-2,1.6-3,1s-2.4-.51-3.53-1.22a23.31,23.31,0,0,0-3-1.47,5.5,5.5,0,0,1-2.22-2.34c-.41-.59-.76-1.22-1.22-1.77-.77-.9-1.61-1.75-2.38-2.8a25.55,25.55,0,0,1,2.74,1c1.08.54,2,1.3,3.13,1.83C321.42,420.4,322.93,421,324.6,421.71Z" transform="translate(-234.54 -273.9)"/><path d="M335.81,367.29a25.2,25.2,0,0,1-8.11-3,12.1,12.1,0,0,1-5.1-4.61,14.39,14.39,0,0,1-1.06-3.23,6.11,6.11,0,0,1,.21-1.7,9.62,9.62,0,0,1,1.36,1.1c1,1.13,2,2.27,2.86,3.49a16,16,0,0,0,7.12,5.65,16.54,16.54,0,0,1,2.94,2Z" transform="translate(-234.54 -273.9)"/><path d="M322.77,290.62c.64,1.26,1.3,2.63,2,4,1,2,.91,3.48-.64,5.1a23.46,23.46,0,0,1-2.89,2.46,5.24,5.24,0,0,1-1.41.55C319.57,298.27,321.13,294.36,322.77,290.62Z" transform="translate(-234.54 -273.9)"/><path d="M353.42,325.27c1.71-1.24,3.21-2.15,5.13-2.14a5.54,5.54,0,0,0,4.25-2,14.08,14.08,0,0,0,.87,1.13c.65.67,1.33,1.31,2,1.95.45.43.93.83,1.22,1.09-.93,1.05-1.68,2-2.51,2.81a7.69,7.69,0,0,1-1.68,1.26c-.8.43-1.67.73-2.64,1.15a12.08,12.08,0,0,1,3.2-3.85c.42-.36.93-.63,1.32-1,.18-.18.34-.67.23-.8a1,1,0,0,0-.85-.34C360.63,326.08,357.17,325.52,353.42,325.27Z" transform="translate(-234.54 -273.9)"/><path d="M275.92,456.78l.59-1.12-.25.06a7.36,7.36,0,0,1-.56-1.72c-.12-1.31-.11-2.63-.15-3.8a5.79,5.79,0,0,1,1.64,4.38c.89-1.2,1.78-2.41,2.68-3.6a19.71,19.71,0,0,1,6.27-5.43,13,13,0,0,0,1.5-.94c1.69-1.3,3.61-1.35,5.62-1.16s3.77.25,5.66.28a8.2,8.2,0,0,0,1.89-.45,3.3,3.3,0,0,1-.36.73.61.61,0,0,1-.43.21c-2.61.18-5.12,1.36-7.83.66a4.78,4.78,0,0,0-4.77,1.09,5.82,5.82,0,0,1-1.59,1,14.13,14.13,0,0,0-5,4.71c-1.18,1.6-2.54,3.07-3.85,4.58a6.19,6.19,0,0,1-.9.7Z" transform="translate(-234.54 -273.9)"/><path d="M338.07,351.31c2-1.5,4-2.22,6.3-1.65,1.65.41,2.66,1.73,3.68,3s1.39,2.62.29,4.19c-.88,1.27-1.46,2.75-2.37,4.05a24.26,24.26,0,0,0,.24-3.39,14.24,14.24,0,0,0-.68-3.35,4.7,4.7,0,0,0-2.32-2.86l-.28,2.06A6.11,6.11,0,0,0,338.07,351.31Z" transform="translate(-234.54 -273.9)"/><path d="M310.88,430.87a2.56,2.56,0,0,1-.9-2.68,153.53,153.53,0,0,0,2-27.84v-1.18c.45.2.83.4,1.24.55s.85.26,1.17.35c-1.47,4.65-1.3,9.42-1.83,14.09-.44,4-.85,8-1.26,11.94C311.14,427.67,311,429.24,310.88,430.87Z" transform="translate(-234.54 -273.9)"/><path d="M296,394.42l-5,.59-.18-1.13c-.95.9-1.22,2.48-2.92,2.44l-.25-1.5c-.36.73-.6,1.23-.86,1.73s-.43.77-.65,1.16l-.38-.13-.16-2.35-.26-.05-.91,3c-.67.08-1.5.45-2.11-.5s-.46-1.59.13-2.72a3.65,3.65,0,0,1,2.14-1.64,10.4,10.4,0,0,1,2.94-.34c.19,0,.38.07.57.07a23,23,0,0,1,3.62,0,38.65,38.65,0,0,1,4.31,1.16Z" transform="translate(-234.54 -273.9)"/><path d="M337.21,316.73c.82-2.1,1.53-4,2.26-5.8a37.34,37.34,0,0,0,2.84,2.55,11.23,11.23,0,0,0,2.6,1.34c1.61.63,2.9-.14,4.11-1.14a11,11,0,0,1,1.23-.77l.29.31c-.57.76-1,1.87-1.75,2.17a6,6,0,0,0-2,.76,7.91,7.91,0,0,1-2.93,1.53,19.29,19.29,0,0,0-3.64,2.09c.2-1.67,1.75-3.54.18-5.69Z" transform="translate(-234.54 -273.9)"/><path d="M350.18,356.64a3.92,3.92,0,0,1,1.34,4.54,6.41,6.41,0,0,1-1.25,2.42c-1.9,2-3.92,3.85-5.94,5.72a2.54,2.54,0,0,1-1.44.5c.85-1.13,1.76-2.23,2.55-3.4s1.93-2.52,1.65-4.27c0-.08.05-.18.1-.26Z" transform="translate(-234.54 -273.9)"/><path d="M280.79,389.56,280.2,387c-.25,2.68-.51,5.41-.77,8.14l-.31,0-1.73-3.74.16-.13.52.35.21-.09-.33-1.26a8,8,0,0,0,.95-2.19,9.87,9.87,0,0,0-.41-2.53c.83-.23,1.49-.49,1.17-1.52l.35.26a7.71,7.71,0,0,1,.87-1.15c.75-.68,1.34-1.52,2-2.21s.93-.43,1-1.38l1.61-.73-2.81,7.51h-.32l-.5-2.57-.23,0c-.08.9-.18,1.8-.25,2.7-.09,1.07-.14,2.14-.21,3.22Z" transform="translate(-234.54 -273.9)"/><path d="M300.74,437.52c-.95-1.4-.95-1.81.12-3.1s1.06-2.22-.08-4.52c-.12.73-.21,1.36-.35,2a7.3,7.3,0,0,1-.63,1.68c.55-2.71-.74-5.14-1-7.7a11.24,11.24,0,0,1,.13-2.94,9.59,9.59,0,0,0,.45,1c.48.84,1,1.68,1.5,2.49a21.83,21.83,0,0,1,2,2.81,6.48,6.48,0,0,1,.71,3.91,1.78,1.78,0,0,0,.13.74c0,.15.24.29.23.41-.17,1.34-.37,2.68-.56,4h-1.15l1.25-3.43-.37-.23Z" transform="translate(-234.54 -273.9)"/><path d="M373.93,355.53a5,5,0,0,1,1.45-3.87c1.59-2,3.24-3.94,4.8-6a22.76,22.76,0,0,0,1.48-2.54,6.77,6.77,0,0,1,.43-.54c0,.63-.18,1.24,0,1.58a4.7,4.7,0,0,0,1.42,1C382.48,348,375.88,355.18,373.93,355.53Z" transform="translate(-234.54 -273.9)"/><path d="M268.68,306.81c-.62.87-1.28,1.81-2,2.74a1.23,1.23,0,0,1-.62.37,11.39,11.39,0,0,0-6.23,4.38,4,4,0,0,0-.56,4.18c.47,1.21.92,2.43,1.41,3.71-1.68-1.51-3.17-4.39-2.92-6a10.76,10.76,0,0,1,2.9-6.3,3,3,0,0,1,1.05-.69c1.21-.4,2.45-.7,3.65-1.11S267.69,307.21,268.68,306.81Z" transform="translate(-234.54 -273.9)"/><path d="M341.49,291.16c-1-.65-2-1.33-3-2-1.22-.74-1.62-1.49-.95-2.68a7.86,7.86,0,0,0,1.08-5c-.09-.68,1.4-2.54,2-2.43s1.13.78,1.1,1.17A34.45,34.45,0,0,1,341,285c-.18.85-.6,1.65-.86,2.5a2.46,2.46,0,0,0,1,2.85,4.33,4.33,0,0,1,.6.73Z" transform="translate(-234.54 -273.9)"/><path d="M334.54,425.19l25.1-21.45.24.24c-1.06,1.16-2.06,2.39-3.21,3.46-2.59,2.44-5.09,5-8.22,6.8-2.47,1.43-4.25,3.65-6.24,5.6a39.62,39.62,0,0,1-6.5,5.35,4,4,0,0,1-1,.33Z" transform="translate(-234.54 -273.9)"/><path d="M359.28,321.83c-2.26-.32-4,.61-5.75,1.63a21.19,21.19,0,0,1-4.31,1.36,4.49,4.49,0,0,1,2-3.74,6.7,6.7,0,0,1,5.82-1.34A3,3,0,0,1,359.28,321.83Z" transform="translate(-234.54 -273.9)"/><path d="M257.41,329.89a2.62,2.62,0,0,1,1-.15,8.46,8.46,0,0,0,4.73-.34,6.84,6.84,0,0,1,4,.17,20.18,20.18,0,0,0,2.72.52c-.68.6-1.56,1.41-2.48,2.18a1.14,1.14,0,0,1-.74.12,52.11,52.11,0,0,1-6.14-.61,12.61,12.61,0,0,1-3.15-1.63Z" transform="translate(-234.54 -273.9)"/><path d="M277,312.47l-8.69-2.77c.57-1.37,3.14-2.75,4.69-2.57C274.77,307.33,276.67,309.84,277,312.47Z" transform="translate(-234.54 -273.9)"/><path d="M340.71,362.26c-.28-1.49-.55-2.89-.83-4.35a2.39,2.39,0,0,0,3-.74,22.58,22.58,0,0,0,1.45-3,3.53,3.53,0,0,1,.45.73,6.72,6.72,0,0,1-.38,5.57c-.4.73-1.56,1.06-2.42,1.49A4.78,4.78,0,0,1,340.71,362.26Z" transform="translate(-234.54 -273.9)"/><path d="M279.1,325.77a13.66,13.66,0,0,1,1.16-6,18.11,18.11,0,0,1,1-2.34,5.15,5.15,0,0,0-.75-6.27c-.19-.22-.36-.47-.53-.71a.55.55,0,0,1-.06-.18,2.41,2.41,0,0,1,2.84,2.42,9.94,9.94,0,0,1-.08,2.25c-.36,1.95-.39,1.95.74,3.64-2.06,1.71-2.69,4.21-3.53,6.62a4,4,0,0,1-.53.8Z" transform="translate(-234.54 -273.9)"/><path d="M344.82,364.48c-.71,1.06-1.34,2.19-2.15,3.17a35,35,0,0,1-2.73,2.71c-.59-1-2.09-.92-2.63-2.29a1.26,1.26,0,0,1,.48-1.71,1.24,1.24,0,0,1,.62-.27,15,15,0,0,0,6.2-1.86Z" transform="translate(-234.54 -273.9)"/><path d="M330.74,362.37c-2.62-1.37-3.78-3.82-5.45-6.17,1.33-.39,2.54-.8,3.79-1.07.19,0,.69.56.76.92.28,1.48.45,3,.65,4.47C330.57,361.09,330.65,361.66,330.74,362.37Z" transform="translate(-234.54 -273.9)"/><path d="M333.81,431l1.16,1.24.64-1.49.27,0c.52,1.6,1,3.21,1.55,4.76a17.31,17.31,0,0,0-1.8-1.92c-.66-.53-1-1.59-2.16-1.39-.16,0-.37-.42-.6-.61a12.49,12.49,0,0,1-1.08-.84,8.91,8.91,0,0,1-.91-1.19,2.91,2.91,0,0,1-.09-2.52,2.35,2.35,0,0,1,2.43-.64l-1,2.58.49.28,1.39-1.83C336,428.79,334.55,429.93,333.81,431Z" transform="translate(-234.54 -273.9)"/><path d="M316.05,447c.79-1.55,1.64-3.1,2.39-4.69a2.36,2.36,0,0,1,2.55-1.43c.28,0,.59-.17.89-.25l1-.26.13.23a13.82,13.82,0,0,1-1.08,1.72,5.93,5.93,0,0,0-1.74,3.44c0,.21-.4.51-.65.56C318.35,446.59,317.13,446.79,316.05,447Z" transform="translate(-234.54 -273.9)"/><path d="M257.45,328.15c-2,1.42-2,2.41-.05,3.77l-6-.65c.22-1,.47-2.18.74-3.37.14-.62.5-1,1.19-.82Z" transform="translate(-234.54 -273.9)"/><path d="M274.29,454.38c-1.07-.65-1.93-1.12-2.73-1.68a.93.93,0,0,1-.31-.81,6.85,6.85,0,0,0-.16-4,16.25,16.25,0,0,1-.16-1.81c.29,0,.53,0,.65.09.79.63,1.58,1.28,2.32,2a1.15,1.15,0,0,1,.37.76C274.31,450.67,274.29,452.39,274.29,454.38Z" transform="translate(-234.54 -273.9)"/><path d="M274.92,388.1c-.51-1.19-.95-2.12-1.29-3.09a1,1,0,0,1,.32-.8,5.79,5.79,0,0,0,2-2.74c.29-.69.67-1.33,1.06-2.09.25.21.51.32.56.48.27,1,.5,2,.71,3.07a.93.93,0,0,1-.15.66C277.09,385,276.06,386.49,274.92,388.1Z" transform="translate(-234.54 -273.9)"/><path d="M336.25,325.64l-1.82-.18c1.61-3.44,2.9-7,5.19-10.28a3.15,3.15,0,0,1,.16,2.8c-.32.89-.82,1.71-1.21,2.57C337.79,322.24,337,323.93,336.25,325.64Z" transform="translate(-234.54 -273.9)"/><path d="M349.54,368.43a9.28,9.28,0,0,1-1.31,1.12,3.64,3.64,0,0,0-1.85,2.17,3.78,3.78,0,0,1-.3.72c-.94,1.54-2.16,2.73-3.82.59-.48-.61-1-1.21-1.48-1.84.17-.07.24-.13.28-.12,2.26,1.05,3.67-.54,5.19-1.72C347.13,368.66,348,367.92,349.54,368.43Z" transform="translate(-234.54 -273.9)"/><path d="M309.62,447.11l-2.49-.82.1-1.42c-1.43.16-2.9,1.17-3.92-.58l1.87-.53,0-.3a8.33,8.33,0,0,0-2,0c-.64.16-.87-.18-1.23-.52s-.16-.77.06-1.1.63-.84.84-1.12A13.72,13.72,0,0,1,309.62,447.11Z" transform="translate(-234.54 -273.9)"/><path d="M370.67,281.65a6.86,6.86,0,0,1-.23,1.45,6,6,0,0,0-.31,3.92,2,2,0,0,1,.09.49c.11,1.62-.63,2.26-2.16,1.85a2.94,2.94,0,0,1-1-.34c-.33-.26-.74-.64-.77-1a1.36,1.36,0,0,1,.58-1.1c1-.55,1.83-1.1,1.67-2.44,0-.26.27-.58.46-.84.49-.67,1-1.33,1.51-2Z" transform="translate(-234.54 -273.9)"/><path d="M367,284.26l-1.33-.23A3.2,3.2,0,0,1,366,280c.33-.38.47-1,.86-1.21a1.4,1.4,0,0,1,1.86.37,2,2,0,0,1,.2,2.37C368.31,282.41,367.64,283.28,367,284.26Z" transform="translate(-234.54 -273.9)"/><path d="M335.11,317.07c.48-2.36.95-4.73,1.45-7.09a11.6,11.6,0,0,1,.65-2.25,1.82,1.82,0,0,1,1-.85c.41-.16.81,0,.8.63,0,.85,0,1.71,0,2.56a.91.91,0,0,1,0,.37c-1.16,2.18-2.34,4.36-3.52,6.54,0,0-.08.08-.13.12Z" transform="translate(-234.54 -273.9)"/><path d="M346.64,319.25l5.51-6.11,2.58,1.23c-2.3,2.49-5.12,3.76-7.92,5.06Z" transform="translate(-234.54 -273.9)"/><path d="M256.17,318.31l6.68,9.55c-1.29.76-1.5.65-2.37-.71s-1.83-2.38-2.59-3.66a29.73,29.73,0,0,1-1.85-4C255.9,319.18,256.12,318.68,256.17,318.31Z" transform="translate(-234.54 -273.9)"/><path d="M366.91,285.28l-2,3.4c-2-1.74-4.11-3.8-7.35-3.6C360.72,283.86,363.8,285,366.91,285.28Z" transform="translate(-234.54 -273.9)"/><path d="M364.75,279.36c-.76,1.24-1.87,2.57-.59,4.37a3.51,3.51,0,0,1-2.67-1.23,5.39,5.39,0,0,0-3.93-2.22,5,5,0,0,1,3.33-.92Z" transform="translate(-234.54 -273.9)"/><path d="M269.88,334.31l13.37-.69C279,336.66,274.53,335.09,269.88,334.31Z" transform="translate(-234.54 -273.9)"/><path d="M279.07,318.75a7.67,7.67,0,0,0-5.91-.31c1.28-1.6,2.61-2.72,4.67-2.87,1.1-.08,1.27.75,1.78,1.23.16.15,0,.73-.13,1.09A6,6,0,0,1,279.07,318.75Z" transform="translate(-234.54 -273.9)"/><path d="M316.6,308.5c-1.15-1.78-2.3-3.55-3.44-5.33a.9.9,0,0,1,.26-1.37c.57-.37.93-.11,1.29.39a12.27,12.27,0,0,1,1.69,3.7l.48,2.48Z" transform="translate(-234.54 -273.9)"/><path d="M343.79,363c-2.81,2.46-8.38,1.92-11.14.32,2.09.12,4,.36,5.82.3S342.13,363.22,343.79,363Z" transform="translate(-234.54 -273.9)"/><path d="M356,284.12l-.66-2.15c2.14-.74,3.47-.37,5.15,1.52Z" transform="translate(-234.54 -273.9)"/><path d="M340.75,356.59a2.32,2.32,0,0,1-1.94-2c.06-.68.27-1.31,1.17-1.27s2.34,1.25,2.33,2.07A1.55,1.55,0,0,1,340.75,356.59Z" transform="translate(-234.54 -273.9)"/><path d="M375.78,296.89l-5-1.28c.16-1.57,1-2.11,2.42-1.36a11.6,11.6,0,0,1,2.11,1.51C375.58,296,375.61,296.43,375.78,296.89Z" transform="translate(-234.54 -273.9)"/><path d="M314.46,447.47l-1.82-.69c.52-.64,1-1.22,1.47-1.82.19-.25.26-.63.48-.82.81-.71,1.65-1.36,2.43-2C316.17,443.91,315.33,445.66,314.46,447.47Z" transform="translate(-234.54 -273.9)"/><path d="M271.6,402.41a6.45,6.45,0,0,1,6.82-2.7c-.38.27-.62.6-.87.6-2,0-3.56,1.4-5.4,1.92Z" transform="translate(-234.54 -273.9)"/><path d="M343,333.61l2.55-4.48,1.3.55c-.93,1.32-1.85,2.66-2.83,3.95-.16.2-.57.21-.86.3Z" transform="translate(-234.54 -273.9)"/><path d="M277.46,395.11l7.22,8.43-.33.29c-1.25-1.45-2.5-2.91-3.76-4.36s-2.71-2.48-3.43-4.2Z" transform="translate(-234.54 -273.9)"/><path d="M274.51,314.63c-.6.72-1.08,1.39-1.65,2s-.91.36-1.08-.34a5.09,5.09,0,0,0-.14-.56c-.42-1.23-.25-1.51,1.09-1.43A10.94,10.94,0,0,1,274.51,314.63Z" transform="translate(-234.54 -273.9)"/><path d="M308.91,436.92l-.77-.38a21,21,0,0,0-3.09,1.63c-.87.65-1.36,1.81-2.73,1.94a6,6,0,0,1,.93-1.19c1.57-1.26,3.18-2.47,4.78-3.69.1-.07.22-.13.46-.26Z" transform="translate(-234.54 -273.9)"/><path d="M374.72,387.27l-1.37.48c-1.29-1.33-1.23-2.7,0-4.1C373.78,384.84,374.25,386.06,374.72,387.27Z" transform="translate(-234.54 -273.9)"/><path d="M275.32,390a1.29,1.29,0,0,1,.26-1.8c.43-.48,1-.88,1.37-1.38a14.43,14.43,0,0,0,1-1.59A4.48,4.48,0,0,1,275.32,390Z" transform="translate(-234.54 -273.9)"/><path d="M304.67,419.79c-1-1.83-.49-2.76,2.28-3.63-.29.46-.57.93-.87,1.39-.12.19-.42.39-.39.53C305.94,419.05,305.09,419.23,304.67,419.79Z" transform="translate(-234.54 -273.9)"/><path d="M335.28,408.82a33,33,0,0,1-3.31-1.66c-.39-.26-.53-1-.71-1.47a2.66,2.66,0,0,1-.09-1.21,8.2,8.2,0,0,0,4.39,4.06Z" transform="translate(-234.54 -273.9)"/><path d="M268.45,320.66a1.86,1.86,0,0,1,.32-2.42c.68-.58,1.52-.47,2.49.45A3,3,0,0,0,268.45,320.66Z" transform="translate(-234.54 -273.9)"/><path d="M268.89,316.27a3.9,3.9,0,0,0-1.68,4.54c-.89-.33-1.2-.69-1.14-1.29A3.56,3.56,0,0,1,268.89,316.27Z" transform="translate(-234.54 -273.9)"/><path d="M282.48,393.91c-.86.68-1.71,1.36-2.65,2.09C279.5,394.23,280.15,393.7,282.48,393.91Z" transform="translate(-234.54 -273.9)"/><path d="M280.24,315.43l-1.61-2.86.25-.14,1.72,2.8Z" transform="translate(-234.54 -273.9)"/><path d="M371.86,388.14l-1.8.64,1.26-1.58Z" transform="translate(-234.54 -273.9)"/><path class="cls-1" d="M291.47,448.94a3.49,3.49,0,0,1,3.82.71Z" transform="translate(-234.54 -273.9)"/></g></svg>