<svg id="Layer_1" data-name="Layer 1" xmlns="http://www.w3.org/2000/svg" viewBox="0 0 161.42 216.2"><defs><style>.cls-1{fill:#fff;}</style></defs><title>rose2</title><g id="vcV2V4.tif"><path d="M316.89,378.11c.72,0,1.53.06,2.34.12a1.94,1.94,0,0,1,2,1.46,2.51,2.51,0,0,1-.89,2.48,25.74,25.74,0,0,1-2.18,1.68,3.45,3.45,0,0,0-1.64,2.84,3.54,3.54,0,0,1-2.18,3.15c-2.14,1-4.33,1.88-6.42,3-1.49.77-2.86,1.79-4.34,2.74a7.08,7.08,0,0,0,3.5,2.21c3,1.05,6.14,1.72,9.25.79a20.63,20.63,0,0,0,5.25-2.76,18.53,18.53,0,0,0,6.51-6.85,52.63,52.63,0,0,0,2.17-5.25,13,13,0,0,1,4.79-6.3,5.35,5.35,0,0,0,2.28-5.77,11.38,11.38,0,0,1,.05-4.86c.58-2.4-1.63-7.16-4-7.82-.8-.23-1.22-.23-1.54.68-1.06,3-3.35,5-5.68,6.88-1.24,1-2.67,1.77-4,2.72a5.54,5.54,0,0,0-1.71,1.66C319.22,373.25,318.07,375.71,316.89,378.11Z" transform="translate(-234.54 -273.9)"/><path d="M246.59,409.08l7.66-5.66,0-.25c-.93-.14-1.87-.24-2.79-.43a3.1,3.1,0,0,0-2.34.51,14.59,14.59,0,0,1-8.2,1.84c2.29-.84,4.79-1.1,7.12-2.59l-11.21-1.91v-.1h7.46c-1.17-1.35-2.21-2.54-3.24-3.74l-.33.26c1.26.19,2.55.27,3.45,1.41a2.35,2.35,0,0,1,.26.29c1.35,2.3,3.59,2.47,6.1,2.44l-4.39-5.75a12.12,12.12,0,0,1,4.47,3.54c1.91,2.65,1.92,2.64,5.14,3,.35,0,.7.06,1.19.09-1.14-2.39-2.19-4.72-4.11-6.54,1.67,1.38,3.78,2.29,4.64,4.45.69,1.73,1.63,3,3.73,2.86a12.75,12.75,0,0,1,2.57.49c-1.61-2.83-3.07-5.41-4.37-7.71a14.88,14.88,0,0,1,4,4.11,8.37,8.37,0,0,1,.76,1.49c.71,2.84,3.05,3,5.23,3.28-1.15-3.08-2.18-6.22-3.5-9.24a7.65,7.65,0,0,0-3.94-4c-.54-.23-1-.67-1.53-.89a17.42,17.42,0,0,0-2-.57c-.1,0-.24,0-.29,0-1-.84-2.23-.43-3.33-.74a11.06,11.06,0,0,0-3.47-.6c-.8,0-1.86-.24-2.52.73-.16.24-.81.16-1.23.2-.68.06-1.51-.41-1.89.62,0,.11-.4.1-.62.14a2.78,2.78,0,0,0-2,1.2c-.28.39-1,.47-1.6.73.55,1.14-.34,1.3-1.23,1.47.32.53.7,1.08-.14,1.4-.55.21-1.12.33-1.75.51,1,1.77-1.05,1.32-1.37,2.18.58,1,.42,1.36-.82,1.6a1.13,1.13,0,0,0-.55.29c-.33.29-.63.61-1,1l3.51,2.4s0,.25-.09.56a7.2,7.2,0,0,1,1,.49c.22.15.54.47.5.63-.17.74.38.92.78,1.29a2.74,2.74,0,0,1,.63,1.22,6,6,0,0,1,2.32,2.84,15.43,15.43,0,0,0,5.76,1.3,15.25,15.25,0,0,0,2.6.27c.4-.06.79-.23,1.19-.32.24-.05.65-.13.72,0,.51.74,1.07.28,1.65.18,1.21-.21,2.45-.29,3.65-.52a21.75,21.75,0,0,0,2.35-.69c.28-.08.63-.31.83-.22,1.09.49,1.81-.23,2.58-.72a15.09,15.09,0,0,1,4.79-1.54,5,5,0,0,0,.86-.45c.47-.21,1-.39,1.67-.67a3.45,3.45,0,0,0-1.05-.61c-1.23-.21-2.47-.35-3.71-.46a1.33,1.33,0,0,0-.81.3,5.16,5.16,0,0,0-.89.92,7.12,7.12,0,0,1-5.89,2.82,12.23,12.23,0,0,1-1.82,0c2.94-.87,5.95-1.6,8-4.38-1.27-.26-2.5-.53-3.73-.76-.15,0-.36.13-.5.24-1.84,1.47-3.64,3-5.52,4.39a6.34,6.34,0,0,1-2.58,1q3.63-2.85,7.25-5.71l-.07-.25c-1.38-.19-2.76-.39-4.15-.56-.13,0-.3.1-.43.19-2.12,1.41-4.22,2.86-6.37,4.22a28.54,28.54,0,0,1-2.89,1.4Z" transform="translate(-234.54 -273.9)"/><path d="M370.62,350.19c-.45-.11-.94-.39-1.33-.28a6.8,6.8,0,0,1-4.7-.42,24.25,24.25,0,0,1-7-4.5,1.29,1.29,0,0,1-.37-.45c-.35-1.29-1.31-1.48-2.48-1.67a45,45,0,0,1-4.94-1.3c.35.65.82,1.5,1.27,2.36a1.25,1.25,0,0,1-.67,1.86c-2,1.11-3.05,1-4.79-.55a12.49,12.49,0,0,1-3.86-5.93,4.85,4.85,0,0,0-2.54-2.86A13.89,13.89,0,0,1,335,333a.94.94,0,0,0-.87-.18,6.51,6.51,0,0,0-3.4,4.46c-.2,1,.51,2.31,1.08,3.34s1.07,1.66.75,2.86a4,4,0,0,0,1.08,3.36,27.5,27.5,0,0,0,7.72,6.48c1.76,1.11,3.66,2,5.5,3,2.69,1.43,5.65,1.28,8.56,1.44.49,0,1,0,1.47.06a8.3,8.3,0,0,0,6.32-1.74c1.68-1.34,3.63-2.33,5.41-3.56a18.51,18.51,0,0,0,2.05-1.92Z" transform="translate(-234.54 -273.9)"/><path d="M321.92,367.75a24.24,24.24,0,0,0,7.56-6.72,7.58,7.58,0,0,0,1.4-4.53,93.16,93.16,0,0,0-.58-10.3,17.77,17.77,0,0,0-1.82-4.72c-1.49-3.38-3-6.74-4.57-10.1-.93-2-1.82-2.64-4-2.31a42.2,42.2,0,0,0-13,3.74,17.44,17.44,0,0,0-5.38,4.08c4.27,2.18,8.79,4,11.35,8.37a30.25,30.25,0,0,1,2-2.61c1.56-1.64,3.43-1.63,4.82.13s2.76,3.82,4.08,5.77a4.44,4.44,0,0,1,.51,3.69,7.1,7.1,0,0,0,.07,4.35c1,2.71.29,5.22-.84,7.69C323.06,365.35,322.55,366.41,321.92,367.75Z" transform="translate(-234.54 -273.9)"/><path d="M289.13,374.27l14.75-1.67c.43-.05.84-.17,1.26-.2a4.24,4.24,0,0,0,4.34-3.5c.59-2.14,1.94-4.06,2.9-6.1s1.95-4.24,1.37-6.52-.34-4.7-.79-7a9.87,9.87,0,0,0-4.13-6.37c-2.36-1.63-5-2.92-7.41-4.43-1.3-.81-2.53-1.73-3.75-2.66-1.79-1.38-2.93-1.4-4.27.39a50.77,50.77,0,0,1-6.48,6.95,3.09,3.09,0,0,0-.24.35,5.87,5.87,0,0,0,.77.06,5.57,5.57,0,0,1,4.58,1.3c.48.44.84.32,1.34-.06,1.48-1.12,3-2.19,4.55-3.24a3.66,3.66,0,0,1,1.37-.51c2.24-.38,3.53.78,3.67,3.32a27.19,27.19,0,0,1-.89,8.18c-.22.86,0,1.28.82,1.5,1.07.28,2.13.61,3.22.92.73-.83,1.48-1.73,2.29-2.57a3.15,3.15,0,0,1,1-.48,4,4,0,0,1,.44,1.14,16.65,16.65,0,0,1-1.58,7.92,6.79,6.79,0,0,1-3.39,3c-3.12,1.59-6.28,3.1-9.41,4.67C292.93,370,291.06,372,289.13,374.27Z" transform="translate(-234.54 -273.9)"/><path d="M382.36,314.48c.29,4.67-1.72,8-4.85,11,2.33.36,2.27,2.25,2.69,3.84.18.66.43,1.29.59,2,.06.29.09.76-.07.89-.43.36-1,.87-1.45.79-4-.75-7,1.28-10,3.44a40,40,0,0,1-10.84,6.07,8,8,0,0,0-.82.38,19.3,19.3,0,0,0,2.67,2.62,46.63,46.63,0,0,0,5.42,3,4.06,4.06,0,0,0,2.21.28,10.35,10.35,0,0,0,5.91-2.82,2.57,2.57,0,0,0,.73-1.35c.16-1.15,1-1.57,2.17-1.44.55.07,1.11.07,1.66.12a4.63,4.63,0,0,0,4.78-2.6c1.13-2.07,2.32-4.11,3.26-6.27s.77-4.38.57-6.6a22.19,22.19,0,0,1,0-6.56,4,4,0,0,0-1.71-4.46C384.39,316.09,383.51,315.36,382.36,314.48Z" transform="translate(-234.54 -273.9)"/><path d="M288,400.13a14.25,14.25,0,0,0,1.73-.32c2.13-.64,4.22-1.43,6.37-2a19.6,19.6,0,0,0,7.68-4.24c2.63-2.16,5.79-3.29,8.86-4.59l1.35-.58a1.84,1.84,0,0,0,1.2-1.95,3.5,3.5,0,0,1,1.55-3.11,26.57,26.57,0,0,0,2.6-2.38,1.18,1.18,0,0,0,.29-1,1.25,1.25,0,0,0-1-.47,6.83,6.83,0,0,0-5.43,2,69.27,69.27,0,0,1-5.6,5.09,6.31,6.31,0,0,1-3.74,1.52c-1.22.09-2.38.83-3.6,1.19a40.94,40.94,0,0,1-4.84,1.25,9.51,9.51,0,0,1-2.9-.18c-2.52-.36-5-.82-7.55-1.18a21.94,21.94,0,0,1-7.86-2.35c-.74-.42-1.69-1-2.39-.86a4.75,4.75,0,0,0-3,2.5,4,4,0,0,0,1.69,5.27,26.33,26.33,0,0,0,3.23,1.62c2.3,1.11,4.58,2.26,6.91,3.31,1.41.64,2.9,1.12,4.35,1.67Z" transform="translate(-234.54 -273.9)"/><path d="M359.22,394.73c-1.27,2.78.35,4.69,1.7,6.68l-.24.18a11.1,11.1,0,0,1-1.84-1.85,7.3,7.3,0,0,1-.91-2.62,18,18,0,0,1,0-2.86l-3.49-1.06a9,9,0,0,0,2.14,3.86c.27.29.25.85.4,1.28.22.62.1,1.45,1.07,1.63.2,0,.3.49.48.72.81.95,1.64,1.89,2.45,2.84a4.32,4.32,0,0,1,.36.58c.14.22.35.64.42.62,1.09-.34,1.08.85,1.66,1.16,1.06.56,2.16,1.06,3.24,1.57.48.22,1,.41,1.45.62,1.17.51,1.89-.76,3-.73a5.48,5.48,0,0,0,1.45-.38c.07-.64.55-.85,1.29-.84.25,0,.5-.36.78-.49s.73-.26,1.1-.39a2.7,2.7,0,0,0,.95-.46l3.58-.43c-.37-.72.18-1.65-.63-2.27a1,1,0,0,1,.32-.7c.68-.27.56-.69.32-1.17a1,1,0,0,1,.53-1.52c-.1-.8-1.66-1.6.06-2.39-.49-.63-.8-1.27,0-1.64-.13-.75-.24-1.4-.35-2.06,0-.06,0-.14,0-.19-.6-.91-.52-2.14-1.56-2.88-.58-.41-.87-1.21-1.35-1.79a2.44,2.44,0,0,0-.86-.57c-1-.51-2-1-3.05-1.49-.08,0-.12-.19-.19-.2a20.82,20.82,0,0,0-3-.56,9,9,0,0,0-5.33,1.09,14.36,14.36,0,0,0-1.45,1c-2.27,1.78-4.52,3.58-6.84,5.42.91.32,1.83.67,2.78.94.18.06.47-.15.68-.29,2.54-1.75,5.13-3.4,7.91-3.57l-7.24,4.34c1.29.54,2.31,1,3.36,1.37.2.08.56-.13.78-.29a12.51,12.51,0,0,1,6.28-2.55l.37,0-6.15,3.44c1.14.56,2,1,2.82,1.36a1.64,1.64,0,0,0,1-.15c1.51-.53,3-1.14,4.51-1.63a4.89,4.89,0,0,1,1.95-.05L370.07,398c1.53,1,2.89,1.94,4.72.85a3.19,3.19,0,0,1,3.58.09l-4.19,1.28,4.33,3-.11.23-7.51-3.24c.34,2.08,1.72,3.47,2.58,5.22a10.11,10.11,0,0,1-1.14-.91c-1.27-1.38-2.52-2.78-2.77-4.76a.9.9,0,0,0-.43-.57c-.77-.42-1.57-.79-2.65-1.32.46,2.89.88,5.56,1.31,8.23l-.33.09c-.48-1.68-1-3.35-1.41-5-.3-1.17-.45-2.38-.72-3.55-.05-.22-.36-.43-.6-.55-.62-.29-1.26-.54-2.1-.89a27.75,27.75,0,0,0,.64,7.59l-.25.11a5.64,5.64,0,0,1-.73-1.53c-.33-2-.53-4-.83-6a1.38,1.38,0,0,0-.59-.85A12.91,12.91,0,0,0,359.22,394.73Z" transform="translate(-234.54 -273.9)"/><path d="M357.48,468.92l-4.56,7-.25-.1c.61-1.33,1.15-2.69,1.84-4s1.54-2.57,2.3-3.87a.66.66,0,0,0,.05-.53c-.3-.75-.64-1.49-1.12-2.57L351,471c-.29-.82.33-1.53.85-2.27,1.06-1.53,2.15-3,3.19-4.58a.94.94,0,0,0-.05-.71c-.25-.57-.56-1.11-.85-1.65-2.82,1.09-2.81,3.73-3.26,6.37a5.78,5.78,0,0,1,2-6.93c.6-.51.58-.9.11-1.46s-.89-1.27-1.41-2c-.91,1.22-.8,2.52-1,3.73,0,.18.09.46,0,.55-1.32,1.26-.81,3-1.06,4.45a22,22,0,0,0,0,3,11.44,11.44,0,0,1-.23,1.47l.48.33c-.1,3,1.23,5.17,2.81,7.26l.15-.26,3.09,1.37c.41-.35,1-.18,1.48.39.07.07.18.17.25.15a1.92,1.92,0,0,1,2.22.83c0,.06.45-.15.51-.17l3,2.19a13.42,13.42,0,0,1,1.08-2.18c.21-.28.83-.25,1.4-.39.79-1.42.79-1.42,1.73-1.36.48-.62-.25-2.31,1.63-1.72-.09-1,.44-1.29,1-1.24.44-.62.8-1.08,1.1-1.58a9.26,9.26,0,0,0,.48-1.17c.12-.31.25-.62.38-.92.05-.11.19-.2.19-.31.09-1.2.17-2.4.24-3.61a.54.54,0,0,0-.05-.28c-.46-.94-.94-1.86-1.39-2.8s-.72-1.65-1.11-2.47a2.75,2.75,0,0,0-.53-.7,10.13,10.13,0,0,0-7-3.37c-2.84-.12-5.68-.35-8.57-.53.43.77.84,1.58,1.34,2.35a1.23,1.23,0,0,0,.79.44,34.11,34.11,0,0,1,4,.7,27.23,27.23,0,0,1,4.34,1.94L356,462.3c.57,1.23,1,2.22,1.48,3.16a1,1,0,0,0,.72.35,12.49,12.49,0,0,1,6.78,2.63l-6.89-1.64a21,21,0,0,0,1.26,3c.24.39.91.57,1.42.74a12.1,12.1,0,0,1,4.51,2.06,2,2,0,0,1,.61.76l-5.66-1.8a3.47,3.47,0,0,0,2.35,3.57c1.28.46,2.45,1,2.93,2.37,0,.12.07.24.09.32l-4-1.91,1.23,5.28-.19.08-3.47-7.6c-1.19,1.73-1,3.73-1.38,5.57h-.34a14.56,14.56,0,0,1-.08-2.94,34.58,34.58,0,0,1,1.1-3.82c.06-.2.18-.43.12-.6C358.3,471,357.94,470.09,357.48,468.92Z" transform="translate(-234.54 -273.9)"/><path d="M291.44,335.74c-4,.43-8,.74-11.91,1.34a35.3,35.3,0,0,0-7.29,1.86c-4.07,1.54-6.12,4.75-6.51,9a48.14,48.14,0,0,0,2.15,18,1,1,0,0,0,.12.2c.62-2,1.25-4,2.82-5.35a34.24,34.24,0,0,1,3.41-2.2,1.51,1.51,0,0,0,.59-.91c.22-1.59.25-3.2.56-4.77a9.22,9.22,0,0,1,4.07-5.68c.47-.35.88-.77,1.33-1.14a5.86,5.86,0,0,1,1.39-1.08c3.16-1.29,4.89-4.2,7.27-6.36a22.5,22.5,0,0,0,2.13-2.52Z" transform="translate(-234.54 -273.9)"/><path d="M304.16,386.66a7.3,7.3,0,0,0,1.34-.65,62.73,62.73,0,0,0,8.89-7.88A36.75,36.75,0,0,0,319.7,369c1.09-2.41,2.19-4.82,3.21-7.27a6.17,6.17,0,0,0,0-4.79,6.16,6.16,0,0,1-.14-4.51,4,4,0,0,0-.87-4.19c-.88-1-1.59-2.23-2.38-3.35a12.49,12.49,0,0,0-.8-1.11c-1-1.13-2.17-1.17-3.06,0-1.12,1.51-2,3.05-1.25,5.16a18.77,18.77,0,0,1,.5,4.35c.08.84.13,1.69.28,2.52.55,2.94-.45,5.57-1.61,8.15-1,2.3-2.19,4.54-3.2,6.85-.84,1.94-1.45,4-2.34,5.91s-2.07,3.64-3,5.53a17.25,17.25,0,0,0-.95,3.38A3.65,3.65,0,0,0,304.16,386.66Z" transform="translate(-234.54 -273.9)"/><path d="M273,395.28c-2.16-1.5-3.33-3.21-3.22-5.67s2-3.66,3.73-4.84c-1.17-1.59-2.27-3.18-3.47-4.68A3.71,3.71,0,0,0,268.5,379a1.9,1.9,0,0,1-1.47-1.94,20.66,20.66,0,0,1,.07-2.95,21.59,21.59,0,0,0-1.31-10c-.14-.43-.26-.86-.48-1.59-2,2-4.05,3.85-5.81,5.88-1.35,1.56-1.62,3.65-1.72,5.65-.16,2.77-.18,5.55-.12,8.33a3.43,3.43,0,0,0,.95,1.82c.63.75,1.48,1.31,2.11,2.06a10.47,10.47,0,0,1,1.63,2.54A8,8,0,0,0,266,393,20.83,20.83,0,0,0,273,395.28Z" transform="translate(-234.54 -273.9)"/><path d="M275.16,359.88c-2.84.51-4.23,2.43-5.13,4.85a29.31,29.31,0,0,0-1.35,8.11c-.1,1.3-.2,2.61-.2,3.92a1.09,1.09,0,0,0,.55.89,5.52,5.52,0,0,1,3.23,2.85c2.7,4.61,7.13,6.24,12,7.06,3.06.51,6.15.91,9.22,1.32a14.39,14.39,0,0,0,6.91-1.21,13.74,13.74,0,0,0,1.52-.67,3.41,3.41,0,0,0,.63-.52c-.24-.23-.45-.6-.73-.67-1.08-.28-2.2-.37-3.26-.7-4.38-1.33-8.73-2.75-13.11-4.09a11.09,11.09,0,0,1-4.6-2.72,6.94,6.94,0,0,0-4.47-1.77,6,6,0,0,1-3.92-1.57,2.62,2.62,0,0,1,.17-4.18,25.42,25.42,0,0,1,3.11-1.8C274.41,366.16,275.69,363,275.16,359.88Z" transform="translate(-234.54 -273.9)"/><path d="M262.08,290.51c-1.74.13-3.5.21-5.24.4a4.35,4.35,0,0,0-2.43,1.34c-1.21,1.11-2.53,2.26-4.61,1.71a5.68,5.68,0,0,0,.16,1.13,2.09,2.09,0,0,1-.49,2.44,1.27,1.27,0,0,0-.16,1.77,1.84,1.84,0,0,1,.12,1.95,2.51,2.51,0,0,0,.12,2.45c.6,1.05,1.25,2.07,1.85,3.12.73,1.27,1.39,2.58,2.16,3.82a1.41,1.41,0,0,0,1.06.56,2.53,2.53,0,0,1,2,.67,16.59,16.59,0,0,0,1.88,1.11,1.19,1.19,0,0,1,.49.55c.76,2,2.43,2.72,4.4,2.9a25,25,0,0,0,8.71-1.25,7.05,7.05,0,0,0,1.1-.36,8.59,8.59,0,0,1-5.22-2.6,28,28,0,0,1-3-3.49,36.53,36.53,0,0,1-3.14-5.76,28.78,28.78,0,0,1-1.42-5.38c-.16-.81-.51-1-1.19-.8-1.08.36-2.16.75-3.22,1.18s-1.73.17-1.93-1c-.28-1.8.26-2.85,2.05-3.65,2-.88,4-1.67,6-2.5Z" transform="translate(-234.54 -273.9)"/><path d="M272.53,420.15c-2.2-.86-4.54-.49-6.85-.64,1.74-1.05,3.51-1.82,5.59-1.35a3.29,3.29,0,0,1,1,.22c1.51.85,2.55.16,3.48-1a12.16,12.16,0,0,1,1-1c-2.61-1.42-5.36-1.29-8.08-1.38,3.16-.43,6.37-1.43,9.34.68a3.43,3.43,0,0,0,.37-.24l1-.81c-1.21-2.25-2.6-4.25-5.22-4.9a4.78,4.78,0,0,0-1.35.08c-.25,0-.54.12-.73,0a5.53,5.53,0,0,0-2.59-.29,19.39,19.39,0,0,0-5.11,1.09,6.54,6.54,0,0,0-3.08,1.84c-.55.68-1.57,1.29-1.67,1.91-.21,1.31-1.33,1.56-1.91,2.36a16.13,16.13,0,0,0-1.19,2.39c1.26.53,1.31.78.5,1.85a7.92,7.92,0,0,0-.62,1.27c1.94.3.81,1.55,1,2.41.85.6.85.6.59,2.15,1.12.2,1.12.2,1.13,2.3.71.2,1.26.56.88,1.46,0,.05,0,.17,0,.18,1,.56.41,1.52.53,2.41,1.71-1.81,3.32-3.54,5.1-5.43-1.56.09-2.87-.79-4.27-.1l-.09-.25c.87-.28,1.77-.88,2.6-.78,2.18.25,3.57-.89,4.91-2.26-1.94-1.44-4.1-.69-6.42-.56a5.94,5.94,0,0,1,4.33-1.46c1,.08,2,.23,2.94.28a1.43,1.43,0,0,0,1-.31C271.19,421.66,271.82,420.91,272.53,420.15Z" transform="translate(-234.54 -273.9)"/><path d="M302.55,396.55a9.39,9.39,0,0,1-1.3.76q-3.06,1.17-6.15,2.27c-1.35.47-2.77.79-4.09,1.33a7.41,7.41,0,0,1-5.75.13c-2-.8-3.85-1.8-5.76-2.72-.83-.4-1.64-.83-2.46-1.24a4.47,4.47,0,0,0-2.93-.43c-2.14.41-4-.55-6-1.2-.31-.11-.6-.25-.9-.38l-.26.16a22,22,0,0,0,1.56,2.72,34.07,34.07,0,0,0,9.64,8.29c1.93,1.16,4,2.18,5.95,3.24,3.16,1.68,6.15,1.16,9-.76,3.16-2.14,5.4-5.13,7.48-8.26.49-.73,1-1.45,1.48-2.2.29-.46.5-1,.75-1.45Z" transform="translate(-234.54 -273.9)"/><path d="M332.39,350v7.25a6,6,0,0,1,4.54,2.85c1.28,2,2.37,4.18,2.05,6.63a22.43,22.43,0,0,0,0,5.37,6.58,6.58,0,0,1-2.84,6.07c-3,2.28-4.53,5.42-5.66,8.86-.21.65-.48,1.27-.86,2.25,1.58-.59,3-1,4.26-1.62,5.24-2.49,7.76-7.1,9.38-12.35a4.25,4.25,0,0,0,.11-1.47,24.58,24.58,0,0,1,.86-7.58,12.39,12.39,0,0,0,.07-3.8,45.52,45.52,0,0,0-.6-5.47c-.39-2.12-1.14-2.86-3-3-2.22-.15-3.9-1.57-5.71-2.7C334.21,350.82,333.33,350.47,332.39,350Z" transform="translate(-234.54 -273.9)"/><path d="M320.4,327.05a7.29,7.29,0,0,1,4.8,3.34c.48.85.82,1.78,1.23,2.67a7.45,7.45,0,0,0,2.88,3.14c1.27-1.89,2.27-3.93,4.32-4.82a32.43,32.43,0,0,0-1.51-5.48,7.1,7.1,0,0,1-.43-3.56c.06-2.09-.12-4.19-.19-6.29-.09-2.62.42-5,2.46-6.89.09-.08.21-.21.21-.32-.05-1.6.93-2.73,1.95-4.1-.59.05-1.07-.05-1.37.13a16.52,16.52,0,0,0-4,2.71,22,22,0,0,1-4.23,3.61,11.48,11.48,0,0,0-2.82,2.65,9,9,0,0,0-.83,2.75,9,9,0,0,1-.73,2.27,11.06,11.06,0,0,0-1.41,5.06C320.63,324.93,320.51,325.93,320.4,327.05Z" transform="translate(-234.54 -273.9)"/><path d="M355.8,300c2.05.51,4,1.25,4.67,3.29a3.52,3.52,0,0,0,2.71,2.52,33.11,33.11,0,0,0,3.69,1.3c3.7.69,5.65,3.09,6.65,6.46a10.21,10.21,0,0,0,1.6,3.32,3.76,3.76,0,0,1,.62,3.45,9.59,9.59,0,0,1-2.63,4.74,8.76,8.76,0,0,0-1.53,2.25,14.18,14.18,0,0,0,5.29-3.23,11.28,11.28,0,0,0,4-7.45,13.56,13.56,0,0,0-.64-4.2,2.5,2.5,0,0,0-1.28-1.26,4.34,4.34,0,0,1-2.48-3.73c-.22-2.3-1.17-4-3.6-4.72a13.39,13.39,0,0,1-5.93-3.91,1.41,1.41,0,0,0-1.55-.54,7,7,0,0,1-5.23-.61,1.9,1.9,0,0,0-2.73.47c-.3.3-.6.61-.88.93S356.09,299.62,355.8,300Z" transform="translate(-234.54 -273.9)"/><path d="M255.62,290l3.35-.28c.07-1.34.18-2.54.19-3.75a5.88,5.88,0,0,0-.23-1.92c-1.23-3.69,1.11-6.81,5-6.74a5.81,5.81,0,0,1,2.7.54,2.23,2.23,0,0,0,1.33.23c2.89-.64,5.27.48,7.53,2.08a3.54,3.54,0,0,0,.48.23l.26-.16a12.55,12.55,0,0,0-.56-1.17c-.26-.4-.59-.76-1-1.24,4.24,1.84,6,4.87,4.37,9.13-.27.7-.53,1.41-.84,2.09a9.06,9.06,0,0,0-.77,5.55c.38,2-.39,3.88-1.28,5.65a40.49,40.49,0,0,1-5.72,8.1,9.23,9.23,0,0,0-1,1.35c-.68,1.13-.49,2,.62,3.16a2.45,2.45,0,0,0,3,.48c.48-.25.63-.54.42-1-1-2.4-.45-4.68.71-6.8,1.36-2.49,3-4.84,4.4-7.3,1.09-1.9,2.11-3.84,3-5.84a3.47,3.47,0,0,0,0-2.16c-.6-2.05-1.21-4.05-.81-6.25a4.41,4.41,0,0,0-1.38-4.55c-1.6-1.34-2.95-3-5.12-3.47a.84.84,0,0,1-.39-.29,5.11,5.11,0,0,0-5.68-1.45c-2,.65-3.95,1.44-5.9,2.28a19.59,19.59,0,0,0-5.23,3.69c-.79.69-1.6,1.35-2.43,2a2.08,2.08,0,0,0-.6,3.15,18.6,18.6,0,0,1,1.37,2.8A7.66,7.66,0,0,1,255.62,290Z" transform="translate(-234.54 -273.9)"/><path d="M335.54,308.16c2.93-.74,4.16,1.29,5.67,2.7a40,40,0,0,1,2.44-3.52,14.9,14.9,0,0,1,2.6-2.21c1.37-1,2.79-1.94,4.19-2.9a2.94,2.94,0,0,1,.67-.41c2.07-.72,3.23-2.49,4.63-4,.48-.51.1-.8-.26-1-1-.57-2.07-1.13-3.14-1.6a6.94,6.94,0,0,0-5-.46c-1.27.39-2.66.4-4,.74a8.75,8.75,0,0,0-5.16,4.3,4.28,4.28,0,0,0-.28,2.65,5,5,0,0,1-1.24,4C336.3,306.91,336,307.42,335.54,308.16Z" transform="translate(-234.54 -273.9)"/><path d="M268.06,309c.61-2.9,1.33-5.79,1.8-8.72a18,18,0,0,1,2.28-6.54,16.82,16.82,0,0,0,2.11-7.74c-2.28.32-4.65,0-6.31,2.2a7.84,7.84,0,0,1-2.54,1.95c-1.76,1-3.6,1.87-5.48,2.83,1.75,2,1.63,4.5,2.23,6.78a18.87,18.87,0,0,0,4.46,8.3,12.58,12.58,0,0,0,1.09,1Z" transform="translate(-234.54 -273.9)"/><path d="M340.8,442.62c1.58-.33,2.71.74,4.05,1.16a16.17,16.17,0,0,0,4,.73,45.59,45.59,0,0,0,6,0,8.08,8.08,0,0,0,2.34-1,5.55,5.55,0,0,1,.71-.32,4.93,4.93,0,0,0,3.5-4,7.62,7.62,0,0,0,.6-2.57c-.13-.87.06-2-.41-2.59s-.37-1.43-.69-2c-.53-1-.65-2.07-1.53-2.94a18.57,18.57,0,0,1-2.28-3.57l-6.08,7.81c2.67.71,5.25-.34,8.17-.32a6.78,6.78,0,0,1-3.72,1.61,40.09,40.09,0,0,1-4.52,0,2,2,0,0,0-1.92.88c-.47.61-1,1.17-1.76,2h12.13l.05.15a6.51,6.51,0,0,1-.71.33,18.31,18.31,0,0,1-8.05.75,18.19,18.19,0,0,0-2.86-.06c-1.87.06-2.13.22-3.59,2l13.95.76,0,.41a21.56,21.56,0,0,1-3.7.53q-4.81-.17-9.6-.64A5.36,5.36,0,0,0,340.8,442.62Z" transform="translate(-234.54 -273.9)"/><path d="M312.07,447.62c-1.27-.18-2.33-.37-3.4-.47a2.86,2.86,0,0,0-1.22.21l-8.78,3.38a1.54,1.54,0,0,1-.68,0c2.69-1.2,5.5-2.16,8-4a23.75,23.75,0,0,0-4-.58,8,8,0,0,0-2.65.88c-1.33.54-2.62,1.17-3.95,1.68a5.74,5.74,0,0,1-1.49.15l5.52-2.75-.14-.36c-1.71-.39-3.37-.78-5.05.44a13.81,13.81,0,0,1-3.11,1.27l-.15-.3,3.31-1.89-.12-.32-6.79-1.3c.21.43.35.74.51,1.05a3.79,3.79,0,0,1,.22.41c-.81.61-.13,1.41-.18,2.09a4.25,4.25,0,0,0,1,3c.47.57.77,1.28,1.22,1.87a3.15,3.15,0,0,0,1,.88,15.23,15.23,0,0,0,2.07.9,6.13,6.13,0,0,0,2.05.49c1.58-.05,3.15-.28,4.72-.43a7.69,7.69,0,0,1,2.18-.12c1.31.28,2.27-.54,3.39-.82.48-.12,1-.2,1.45-.28.09,0,.2.05.28,0,1.39-.55,2.77-1.09,4.14-1.66a7,7,0,0,0,1.56-.74c1-.68,1.86-1.45,2.88-2.27-1.64-.74-2.61.16-3.71.72-1.81.9-3.67,1.71-5.52,2.55a4,4,0,0,1-.76.12C308.16,450.27,310.47,449.66,312.07,447.62Z" transform="translate(-234.54 -273.9)"/><path d="M349.29,412.67a17.37,17.37,0,0,1,3.37-5c1-.92,1.06-1.6.46-3.15l-3.71,3.56h-.09c.91-1.29,1.81-2.58,2.75-3.85.54-.74,1.18-1.42.52-2.64l-4,3.79c.11-2.12,2.51-3.19,3.83-5l-.27-.21-4,3.36,1.16-2.46a6.12,6.12,0,0,0-.74.53,11.34,11.34,0,0,0-3.2,5.23c-.28,1.22-.71,2.46-1,3.73-.21,1.1-.62,2.2,0,3.35a2.79,2.79,0,0,1,0,1.25,4.89,4.89,0,0,0,.95,3.17.46.46,0,0,1,.06.28c-.11,1.38.75,2.13,1.74,2.85a4.85,4.85,0,0,1,.81,1c.7-.93.7-.93,2.31.14.77-.88,1.28-.76,2.64.63,1.06-.34,1.06-.34,1.82,1a21.78,21.78,0,0,0,.07-2.55c-.25-3-.56-6-1.1-9.15q-1.47,2.34-3,4.68l-.21-.09c.88-1.84,1.7-3.7,2.68-5.48a3.58,3.58,0,0,0,.35-3.46Z" transform="translate(-234.54 -273.9)"/><path d="M396,378.32c-1.07-.25-2.15-.43-3.19-.77a7.5,7.5,0,0,1-2.25-1.11,3.38,3.38,0,0,1-1.19-1.61c-.28-.91-.93-1.17-1.67-1.51-1-.46-1.9-1.11-2.9-1.58a8.36,8.36,0,0,0-5.12-.65c-.34.06-.62.45-.92.69-.88.7-1.75,1.42-2.65,2.1-.71.53-1.47,1-2.19,1.51a8.68,8.68,0,0,0-1.6,1.34c-1.28,1.58-2.52,3.19-3.69,4.85a8.45,8.45,0,0,0-.7,2.05c.95-.15,1.56-.29,2-1.13,1.1-2,2.36-3.85,3.61-5.73a4,4,0,0,1,1.22-1c-1.47,2.55-3.28,4.89-4.23,7.79l2.29.29a35.29,35.29,0,0,1,1.35-4,22.05,22.05,0,0,1,2.33-3.59l-2.76,7.89,1.41.35a20.7,20.7,0,0,1,4.86-8.8c-.68,1.33-1.41,2.64-2,4s-1.12,2.76-1.67,4.15l.24.18c1-.38,2-.75,2.94-1.16a.84.84,0,0,0,.36-.52,16.94,16.94,0,0,1,3.47-5.67c-.52,1.88-2.29,3.26-2.15,5.46,1.7-.44,3.32-.83,4-2.8a8.12,8.12,0,0,1,2.82-3.86l-2.4,4.82.24.2C389.17,379.8,392.39,378.41,396,378.32Z" transform="translate(-234.54 -273.9)"/><path d="M378.43,458.05c-2.79,1-5.71,1.54-8.32,3.05l1.49,1.79c2.44-1.5,4.82-3.2,7.63-3.1l-7.14,3.84.42.69.25.45c1.56-.71,3.08-1.52,4.69-2.09a29.37,29.37,0,0,1,5-1.2c-2.83,1.14-5.76,2.06-8.41,3.92,1.08.42,2,.84,2.95,1.12a1.59,1.59,0,0,0,1.08-.23,20,20,0,0,1,6.78-1.9c-2.09,1.09-4.44,1-6.06,2.77,1.6.74,3.05,1.65,4.89.63a7.28,7.28,0,0,1,4.6-1l-5.21,2.06c3.24,1.84,6.41,3.1,9.21,5.41a4.73,4.73,0,0,0-.73-1.25,6.48,6.48,0,0,1-1.87-3.56,11.22,11.22,0,0,1,.15-2.36,8.09,8.09,0,0,0-.23-2.08,13.32,13.32,0,0,0-1.11-3.18,11,11,0,0,0-2.12-2.89c-1.74-1.55-3.73-1.17-5.7-1.29-.86-.05-1.7-.22-2.56-.32a9,9,0,0,0-2.18-.18c-2,.29-4,.64-6,1.1a7.92,7.92,0,0,0-1.9,1.12,2.22,2.22,0,0,0,2.41.47c2.18-.68,4.39-1.26,6.6-1.83A5.29,5.29,0,0,1,378.43,458.05Z" transform="translate(-234.54 -273.9)"/><path d="M357.41,386.62c2.33-.24,3.81-1.86,5.55-3l.2.27c-1.44,1.07-2.87,2.15-4.33,3.2a17.18,17.18,0,0,0-1.66,1,13.45,13.45,0,0,0-1.43,1.79,5.42,5.42,0,0,0,4.05-1.55,39,39,0,0,1,3.12-2.59,4.32,4.32,0,0,0,1.47-1.58c.35-.77,1.38-1.22,2-1.87a9.41,9.41,0,0,0,1-1.34c.54-.76,1.1-1.51,1.62-2.28s1.07-1.6,1.52-2.44a7.59,7.59,0,0,0,.72-1.91c.29-1.24.51-2.5.73-3.75a1.14,1.14,0,0,0-.14-.75,23.88,23.88,0,0,0-1.83-3c-.5-.63-1.32-1-1.88-1.59-.73-.79-2.17-.59-2.57-1.88l-2,6.42c1.55-.05,2.35-1.36,3.55-1.89l.19.21a15.51,15.51,0,0,1-2.76,2.33c-1.78.91-2.26,2.46-2.73,4.32,2-.65,3.39-2,4.88-3.21l.23.18a12.89,12.89,0,0,1-1.54,1.81c-1.07.87-2.3,1.53-3.34,2.41a6.28,6.28,0,0,0-1.44,2,26.13,26.13,0,0,0-1,2.82l.24.24,7.15-5.32c-.45.53-.8,1-1.2,1.41a16.48,16.48,0,0,1-1.29,1.22c-1.46,1.21-2.9,2.46-4.44,3.57a4.51,4.51,0,0,0-1.84,2.54C358,385.19,357.71,385.84,357.41,386.62Z" transform="translate(-234.54 -273.9)"/><path d="M338.35,317.72c.6-1.43,1.31-3.08,2-4.75a1,1,0,0,0-.08-.85,10.94,10.94,0,0,0-1.48-1.7c-1.64-1.47-3.21-1.23-4.54.54a7.08,7.08,0,0,0-1.29,4.45c0,2.39.22,4.78.18,7.17a19.17,19.17,0,0,0,1.71,7.29,10.8,10.8,0,0,0,5.22,5.42,6,6,0,0,1,3.08,3.65,11.33,11.33,0,0,0,3.69,5.46c.22.19.48.48.72.48a19.13,19.13,0,0,0,2-.25,4.29,4.29,0,0,0-.51-1.55,71.92,71.92,0,0,1-7.32-10.35,41.7,41.7,0,0,1-4.62-12.46,7.42,7.42,0,0,1-.28-2c0-.41.42-.8.64-1.19Z" transform="translate(-234.54 -273.9)"/><path d="M379,440.32l-5.56,4.07v.33l4.1.28,0,.22a19.93,19.93,0,0,1-3.43.34c-2.39-.15-3.23.08-5.24,2h6l.07.37a11.88,11.88,0,0,1-2.16.51c-1.44.07-2.89,0-4.33,0a3.24,3.24,0,0,0-2.26.71c-.79.62-1.66,1.14-2.46,1.82a45.65,45.65,0,0,0,8.9.21c-.57.14-1.13.3-1.7.41s-1.17.17-1.76.24-1.24.15-1.86.18a18.24,18.24,0,0,1-3,.09c-2.31-.29-4,.9-6,2.38,1.31.26,2.36.55,3.43.65s2.22,0,3.33,0v.31c-2,0-4,0-6,0-1.26,0-2.56-.44-3.74.71a6.17,6.17,0,0,0,1.89.81c1.58.09,3.17,0,4.75-.05a15.21,15.21,0,0,0,1.66,0,17,17,0,0,0,1.71-.41,4.83,4.83,0,0,1,.66-.14,18.72,18.72,0,0,0,2.91-.22,16.41,16.41,0,0,0,2.58-1.08c.25-.1.53-.14.79-.24a38.07,38.07,0,0,0,4.2-1.64c.72-.38,1.19-1.24,1.78-1.88.16-.17.29-.4.48-.49,1.28-.59,1.31-1.81,1.41-2.93a15.45,15.45,0,0,0,0-3.4,3.19,3.19,0,0,0-1.1-2.29.7.7,0,0,1-.16-.51C378.89,441.28,378.93,440.9,379,440.32Z" transform="translate(-234.54 -273.9)"/><path d="M340.19,452.1c1.35,1.61,1.87,3.3.63,5.3L339.48,453a26.66,26.66,0,0,0-1.75,2,1.2,1.2,0,0,0,.06.94,4.15,4.15,0,0,1,.25,3.68,1.86,1.86,0,0,1-.19.34s-.11.05-.29.13c-.24-1.3.17-2.83-1.3-3.71-.31.4-.61.82-.95,1.21a1.81,1.81,0,0,0-.37,1.71,8.69,8.69,0,0,1-.06,2l-.25,0c-.27-.74-.53-1.47-.84-2.34l-3.72,3.92c.91,0,1.94-.4,2.63-.06a3.16,3.16,0,0,0,2.22.06c.21,0,.49.32.78.52a14.87,14.87,0,0,1,4,.06c.92.17,1.42-1.8,2.73-.28.81-.76,1.58-1.5,2.38-2.23a10.31,10.31,0,0,1,2-1.7,3.68,3.68,0,0,0,1.57-2.38,7.55,7.55,0,0,0,.25-4.18c-.27-1-.28-2.3-1.32-3.12a8.51,8.51,0,0,0-3.91-1.45c-.26-.05-.64.48-.95.73,1.71,2.32,2,3.15,1.79,5.81-.55-1.62-.7-3.44-2.28-4.65Z" transform="translate(-234.54 -273.9)"/><path d="M385.5,339.48c-3.23,4.89-3.23,4.89-9.48,5-.47,2.47-2.4,3.57-4.46,4.51.71,1.78.5,2.67-1.4,4.06-2.05,1.5-4.38,2.65-6.32,4.28-2.11,1.77-4.43,2-7,1.85-.24,0-.49,0-.73,0l-.11.28c.59.36,1.15.78,1.76,1.08a14.58,14.58,0,0,0,6.88,1.77,8.22,8.22,0,0,0,6.12-3,5.21,5.21,0,0,0,.94-2.61c.45-3.65,2.73-5.74,5.88-7.1a27.65,27.65,0,0,1,3.58-1.35c2.82-.79,3.9-2.9,4.28-5.51A23,23,0,0,0,385.5,339.48Z" transform="translate(-234.54 -273.9)"/><path d="M312.09,328.84c-1.46-.3-2.9-.64-4.37-.88-3.3-.53-6.59-1.14-9.9-1.47-4.65-.46-6.72,1.6-8.58,5.42-.4.82-.67,1.7-1.05,2.69,2.13-.3,4.21.17,6.11-1a2.56,2.56,0,0,1,2.81.2c1.09.72,2.11,1.53,3.16,2.3C303.42,332.42,307.72,330.73,312.09,328.84Z" transform="translate(-234.54 -273.9)"/><path d="M306.35,411.59c.08-.13.16-.35.24-.35a7.93,7.93,0,0,0,4.3-1.73c1-.67,2.66-1,2.78-2.68.08-1.05.18-2.1.29-3.14.05-.54.14-1.08.23-1.71-4.63,1.46-9,3.76-13.55,5.68l0,.29,7.38.88a15.89,15.89,0,0,1-9,0c-.54-.17-1.3.31-1.92.7l3.81,1.3,0,.25a12.42,12.42,0,0,1-4.66-.34,8.33,8.33,0,0,0-5.44.43l5,1.66c-1.59.49-3.24.78-4.64-.09-1.77-1.1-3.2-.51-4.93.53l4.57,1.54a7,7,0,0,1-5.39-.42,3.77,3.77,0,0,0,4,2.24,35.52,35.52,0,0,0,4.56-1.31c-.09-1.06.58-1.22,1.35-1.35,1.45-.25,3.16-.19,4.25-1,1.34-.95,2.63-.59,3.93-.81,1-.17,2-.42,2.94-.63Z" transform="translate(-234.54 -273.9)"/><path d="M361.08,332.66a21.11,21.11,0,0,0-6.23-4.14,9.82,9.82,0,0,0-4-1.19,1.94,1.94,0,0,1-1.33-1.06,37.73,37.73,0,0,1-1.42-3.76c-.8-2.2-2.63-3.41-4.38-4.72a21.46,21.46,0,0,0-.87,10.43,10.68,10.68,0,0,0,1.6,3.73,2.09,2.09,0,0,0,1.77.5c3.46-.7,6.86.3,10.29.22C358,332.63,359.55,332.66,361.08,332.66Z" transform="translate(-234.54 -273.9)"/><path d="M283.7,312.58c.3.23.58.62.91.67,2,.33,3.38-.75,4.42-2.3a5.48,5.48,0,0,0,1-3.63,3.87,3.87,0,0,1,.1-.88c.35-.14.63-.24.9-.36.08,0,.1-.19.18-.23,1.14-.59,2.09-1.59,3.55-1.48s2-.5,1.69-2c-.2-.85-.46-1.7-.71-2.55a9.64,9.64,0,0,1-.35-3.94,7.64,7.64,0,0,0-1.22-5,1.3,1.3,0,0,0-1.92-.46,4.78,4.78,0,0,0-2.86,4.61,64.28,64.28,0,0,1-.65,8.21,23.72,23.72,0,0,1-3.36,8.32c-.36.6-.81,1.21-1.69,1Z" transform="translate(-234.54 -273.9)"/><path d="M252.08,383.09l2.71,3.11c.88-2.27,1.92-4.06,1.59-6.41a47.2,47.2,0,0,1-.21-7.24c0-1.16.17-1.12-1-1.18-.86,0-1.71-.29-2.57-.37a22.22,22.22,0,0,0-3.9-.2,18,18,0,0,0-2.85.88,3.54,3.54,0,0,1-1.45.05c-1.61-.27-3.21-.61-5-1l7.93,7.09c1.26-1.6.88-3.67,1.55-5.45a6.36,6.36,0,0,1,.29,3.72c-.79,3.85-.92,2.73,1.5,5.39.11.12.2.25.35.43,1.9-2,1.22-4.74,2.06-7.25C253.05,377.64,253.5,380.41,252.08,383.09Z" transform="translate(-234.54 -273.9)"/><path d="M243.3,342a9.23,9.23,0,0,1,2,5.3,15.33,15.33,0,0,0,3,6.87c.53.75,1.12,1.46,1.63,2.22a2.71,2.71,0,0,0,3.26,1.14c.76-.2,1.52-.37,2.47-.59l-.31.4c.72.5,1.44,1,2.17,1.5a1.61,1.61,0,0,0,.71.28,5.24,5.24,0,0,1,3.8,2.22,1.35,1.35,0,0,0,2.05.43l.84-.45L259,356.63a1.93,1.93,0,0,0,0-2.48,4.46,4.46,0,0,1-.35-3.52A4.93,4.93,0,0,0,256,345c-1.74-1.05-3.55-2-5.33-2.95l-2.38-1.33a22.34,22.34,0,0,0,3.84,5.83c1.25,1.39,2.68,2.62,3.82,4.08,1.27,1.63,1.87,3.48.44,5.52a11,11,0,0,1-4.06-2.08,20.13,20.13,0,0,1-4.56-5.62c-1.23-1.94-2.42-3.89-3.63-5.84-.18-.3-.38-.59-.57-.88Z" transform="translate(-234.54 -273.9)"/><path d="M273.91,421.26c1.74,1.08,1.74,2.72,1.54,4.46-.28-.55-.52-1.12-.83-1.65a3.36,3.36,0,0,0-.83-1c-.33-.25-1-.57-1.16-.43a8.24,8.24,0,0,0-1.54,1.63c-.07.09.11.41.21.61a4.12,4.12,0,0,1-.28,3.83c-.25-1.26-.47-2.41-.72-3.67-1.07.94-2,1.75-2.91,2.59a.78.78,0,0,0-.24.58,5.16,5.16,0,0,1-1.27,3.58l-.26-2.47c-2.11,1.4-4.09,2.86-5.13,5.29a24,24,0,0,1,3.08-1.74,38.08,38.08,0,0,1,4-1.11c.15,0,.36,0,.48-.05a25.92,25.92,0,0,1,3.07-2c1-.46,1.87-1.37,2.79-1.47,1.22-.14,1.86-1,2.83-1.39.5-.19,1-.34,1.52-.51l.18.28,1.17-2.32.51.31,1.24-2,.51.45c.31-.59.56-1.18.91-1.71.48-.74,1.1-1.4,1.53-2.17a5.8,5.8,0,0,0,.4-1.5,23.59,23.59,0,0,0-2.33-1.67,2.14,2.14,0,0,0-1.5-.2A15,15,0,0,0,278.6,417c1.3,2.25,1.91,4.49.19,6.78a6.32,6.32,0,0,0-1.48-5.65Z" transform="translate(-234.54 -273.9)"/><path d="M308,373.48c-3.12.4-6.16.81-9.22,1.18-3.51.43-7,1-10.55,1.2-4,.28-7.87-.22-11.19-2.77-.91-.69-.89-.8,0-1.51-.23-1-1-.85-1.69-.76a2.27,2.27,0,0,0-2.17,1.81c-.1,1,.55,1.79,1.79,2.14a11.82,11.82,0,0,0,2.49.5,7.74,7.74,0,0,1,4.95,2.35,7.4,7.4,0,0,0,4.92,1.9c3.49.14,6.83-.67,10.21-1.3,2.09-.4,4.2-.69,6.28-1.14S307.55,375.75,308,373.48Z" transform="translate(-234.54 -273.9)"/><path d="M251.44,384.61c-.88-1.1-1.67-2.16-3.29-2.45a12.56,12.56,0,0,1-5.88-3c-.11-.1-.19-.24-.46-.56,2.09.94,3.86,2,5.93,2.1l.17-.25-9.72-9.51c-.06,1.5-.07,2.84-.2,4.18,0,.31-.47.59-.83,1,0,0,.14.26.27.46s.41.43.37.56c-.34,1,.47,1.48.9,2.14.08.13.21.34.16.44-.68,1.3.61,2,.85,3.07a5.77,5.77,0,0,0,.84,2.47c.07.09-.15.4-.17.44a13.33,13.33,0,0,1,.7,1.45,2,2,0,0,0,2.11,1,30.71,30.71,0,0,1,3.37-.19l-3.86-3,5.4,1.91c.23.08.63.17.71.07.62-.8,1.26-.33,1.94-.14.86.24,1.74.38,2.61.57l.14-.37a9.81,9.81,0,0,0-1.15-.51,32.45,32.45,0,0,1-9.93-4.51,1.16,1.16,0,0,1-.46-.52l9.35,3.47Z" transform="translate(-234.54 -273.9)"/><path d="M341.19,328.55a4.55,4.55,0,0,0,.09-.72,25.11,25.11,0,0,1,.55-8.68,12.21,12.21,0,0,0,.19-2.43,3.44,3.44,0,0,1,.08-1c.14-.33.39-.77.66-.84s.65.29.9.54c.7.71,1.36,1.47,2,2.19a1.82,1.82,0,0,0,.83-2.13,12.32,12.32,0,0,1-.2-3,3.78,3.78,0,0,1,3.9-3.74,2.31,2.31,0,0,0,2.31-1.38,5.62,5.62,0,0,1,4.61-2.77,19.44,19.44,0,0,1,2.16,0c0-1.85-2.37-3.42-4.35-2.85a14.19,14.19,0,0,0-3.31,1.46,45.46,45.46,0,0,0-5.27,3.56,12.09,12.09,0,0,0-2.91,3.39,63.71,63.71,0,0,0-3.45,7.57,12.23,12.23,0,0,0,.74,9.81C340.87,327.81,341,328.09,341.19,328.55Z" transform="translate(-234.54 -273.9)"/><path d="M366.4,320.18a18.17,18.17,0,0,0-1.57,1.35c-1.1,1.16-1.71,1.27-3.11.53-2-1.05-3.9-2.36-6.23-2.49a26.86,26.86,0,0,0-3.58.25c.27,1.07.54,1.84.66,2.64.15,1,.14,2,.28,3a1.29,1.29,0,0,0,.57.83,13.86,13.86,0,0,0,2.15,1,13.1,13.1,0,0,0,1.78.39,20.69,20.69,0,0,1,2.86.58,3.37,3.37,0,0,0,2.83-.06,4.81,4.81,0,0,1,1.89-.49,1.14,1.14,0,0,0,1.23-1.22c.07-.91,0-1.84.06-2.75C366.26,322.63,366.33,321.53,366.4,320.18Z" transform="translate(-234.54 -273.9)"/><path d="M275,312.23l3.35-3.71c3-3.33,5.41-7,6.36-11.46a28,28,0,0,0,.46-4.19,3,3,0,0,1,1.8-2.71c2.09-1.11,2.89-1,1.41-4.25a4.68,4.68,0,0,0-.33-.56,10.55,10.55,0,0,0-4.59,5.95,8.87,8.87,0,0,0-.34,1.44,10.82,10.82,0,0,1-3,5.86,32.14,32.14,0,0,0-5.26,8.83A5.72,5.72,0,0,0,275,312.23Z" transform="translate(-234.54 -273.9)"/><path d="M306.38,411.56a16.55,16.55,0,0,1-1.82.84,7.58,7.58,0,0,0-3,2,7,7,0,0,0-1.9,3.89,28,28,0,0,0-.46,4.58,12.59,12.59,0,0,0,.2,2.07A3.06,3.06,0,0,0,301,422c0-.95.08-1.91.2-2.85.24-1.95.86-2.64,3-3.52a17.18,17.18,0,0,0-1.72,3.06,11.88,11.88,0,0,0-.33,3.51c1.23-.9,2.66-1.43,3.07-3.17a4.77,4.77,0,0,1,3.57-3.92c-2,1.38-2.57,3.54-3.24,5.66,1.86-.7,2.64-.68,3.82-2.5.84-1.31,1.87-2.46,2-4.11.26,1.46.6,2.91-.76,4.1a13.88,13.88,0,0,1,5.52-2,.58.58,0,0,0,.36-.44.81.81,0,0,0-.36-.47c-1.06-.72-2.13-1.43-3.2-2.14l.13-.27a5.14,5.14,0,0,1-1.36,0c-.6-.17-1.12-.59-1.72-.75s-1.15.5-1.84-.07a4.91,4.91,0,0,0-1.82-.55Z" transform="translate(-234.54 -273.9)"/><path d="M371.26,333.27c-2.06.14-3.83,0-5.54.81-3.36,1.56-7,1.95-10.61,2.7s-6.35-.63-9.36-1.77l-.83-.31a2.33,2.33,0,0,0-.36,0,48.1,48.1,0,0,0,2.8,4,5.09,5.09,0,0,0,2,1c1.43.55,2.87,1.09,4.32,1.57a7.68,7.68,0,0,0,5.35-.46,42.55,42.55,0,0,0,9.79-5.74C369.54,334.47,370.29,334,371.26,333.27Z" transform="translate(-234.54 -273.9)"/><path d="M361.62,405.92a14.13,14.13,0,0,0-.79-1.43,1.84,1.84,0,0,0-1.34-.83,23.26,23.26,0,0,1-4-1.39c-.71-.26-1.4-.56-2.25-.9.11,1.21.28,1.94,1.4,2.22,2.53.62,3.71,2.79,5,4.79-1.39-2.08-3.48-3.06-5.78-3.81.14.95.27,1.88.44,2.81a1.11,1.11,0,0,0,.36.55c1.13,1,2.26,2,3.41,3a3.14,3.14,0,0,1,1.2,3.38q-2.17-2.44-4.37-4.87a24,24,0,0,0,1.39,9.07l-1-1.28V423l.35.11a20.23,20.23,0,0,0,.83-2.33c.18-.8.61-.81,1.07-.62.55-.84,1.08-1.6,1.54-2.4a2.21,2.21,0,0,0,.08-.87c0-.62,0-1.29.87-1.42.12,0,.27-.28.29-.44.1-.88.16-1.77.24-2.65,0-.13,0-.34.07-.37.91-.41.44-1.3.69-1.87.57-1.27.24-2.44.11-3.66C361.37,406.28,361.57,406,361.62,405.92Z" transform="translate(-234.54 -273.9)"/><path d="M380.18,469.27l3.07,4-.08.14a27.82,27.82,0,0,1-2.7-2.1,7.32,7.32,0,0,1-1.69-2.27c-.61-1.38-1.86-1.53-3-2l-.2.19,5.26,6.84-.15.18a32.13,32.13,0,0,1-3.11-2.83c-1.4-1.62-2.63-3.4-3.95-5.1a3.18,3.18,0,0,0-.72-.5l-.21.19c.47.82.95,1.64,1.41,2.47.13.21.34.59.28.66-.67.71,0,1.18.29,1.65.79,1.1,1.63,2.17,2.62,3.49l-3.73-2.46.56,3.58a3.13,3.13,0,0,0,3.19.72,2.23,2.23,0,0,1,.57,0c.45,0,.9,0,1.34,0,.79.07,1.58.21,2.37.26a7.1,7.1,0,0,0,1.22-.12,2.5,2.5,0,0,1,.66-.06c1.15.15,2.3.32,3.52.5.06-.84.59-1,1.28-1.05a6.63,6.63,0,0,0,1.08-.38c.77-.21,1.55-.38,2.47-.6l-11.34-5.81Z" transform="translate(-234.54 -273.9)"/><path d="M383.45,382.78l5.26,1a10.3,10.3,0,0,1-6.11-.09,3.76,3.76,0,0,0-3.83.68l8.46,1.54c-3.82.74-7.54-.1-11.26-.9l-.09.4c.78.28,1.56.59,2.36.81.49.13,1,.13,1,.83,0,.14.33.35.54.39,1.56.35,3.12.66,4.86,1l-4.34.72c.71.53,1.59.89,2,1.55a1.2,1.2,0,0,0,1.58.59,11.7,11.7,0,0,0,2-1.41c.07-.05.07-.2.14-.25a14.06,14.06,0,0,0,2.1-1.61c.64-.73,2-.75,2.1-2,0-.12.2-.24.34-.33l3-1.91c-.39-1,.78-3.31,2.22-4.8l-12.35,3.32Z" transform="translate(-234.54 -273.9)"/><path d="M301.12,439.6a3.29,3.29,0,0,1,2.26,2c.53,1.09,1,2.22,1.54,3.29a1.53,1.53,0,0,0,.88.7c1,.21,1.94.31,3.11.48a8.07,8.07,0,0,0-.33-1.33c-.45-1-1-2-1.46-3a5.11,5.11,0,0,0-3.37-2.74c-1.41-.39-2.79-.85-4.19-1.26a1,1,0,0,0-.54.09c-.14.05-.27.23-.41.23a21,21,0,0,0-3.1.19c-.44.23-.87.47-1.31.68s-.94.05-.77.74c0,.05-.05.13-.1.17-.77.64-1.53,1.29-2.32,1.92-.53.42-1.1.8-1.71,1.24l8,1.35.22-.23-2.27-3.74c.34.07.66,0,.8.19.55.55,1.06,1.15,1.56,1.74s.72,1,1.1,1.44c1.26,1.6,3.14,1,4.71,1.5l.3-.28Z" transform="translate(-234.54 -273.9)"/><path d="M295.09,309.26c.87,1.11.64,2.2.48,3.32a3.38,3.38,0,0,0,.28,1.45,7.63,7.63,0,0,0,1.35,2.74c.24.27.21.79.29,1.2,0,.15,0,.32,0,.47.34,1.21.65,2.43,1.05,3.62a5.07,5.07,0,0,0,.88,1.57c.71.84,1.5,1.61,2.41,2.57-.37-5.82.77-8.71-5.67-16.22.54.24.94.31,1.15.54,1.91,2.19,4,4.3,4.77,7.21a37.3,37.3,0,0,1,.63,5c.09.78.15,1.56.25,2.6.92-1.24,1.75-2.27,2.48-3.38.47-.73,0-3-.66-3.61a1.25,1.25,0,0,1-.41-.84,6.4,6.4,0,0,0-.72-3,2,2,0,0,0-1.11-1.34c-.72-.33-1.22-1.13-1.86-1.67a11.47,11.47,0,0,0-1.38-.87,9.28,9.28,0,0,0-1.87-1A14.23,14.23,0,0,0,295.09,309.26Z" transform="translate(-234.54 -273.9)"/><path d="M359,368.5l2.2,3.77.35,0,2.65-7.71a18.64,18.64,0,0,1-2.49,1.4,18.44,18.44,0,0,1-2.69.62.69.69,0,0,0-.34.14c-1.13,1-2.5,1.82-2.93,3.43,0,.12-.1.29-.2.33-1.23.62-1,1.85-1.25,2.89-.15.71-.34,1.41-.45,2.13-.07.43,0,.88,0,1.32s-.22.58-.27.88-.17.76,0,.95c1.08,1.36,2.21,2.67,3.34,4a5.81,5.81,0,0,0,.74.58c.41-1.15.81-2.21,1.15-3.29.06-.18-.11-.49-.25-.68-.66-.9-1.38-1.75-2-2.66a4,4,0,0,1-.85-3.36c1.23,1.75,2,3.63,3.8,4.9a16.16,16.16,0,0,0,1.22-3.56,6.74,6.74,0,0,0-.82-2.73c-.29-.78-.7-1.53-1-2.32C358.7,369.27,358.87,369,359,368.5Z" transform="translate(-234.54 -273.9)"/><path d="M365,442.63v6.07a20.23,20.23,0,0,0,3.41-2.38c.55-.59.58-1.67.8-2.54s.29-1.54.51-2.28a1.21,1.21,0,0,1,.79-.67L370,445l.33.15,6.67-4.64a16.86,16.86,0,0,1-2.74-.32,20.83,20.83,0,0,1-2.63-1.13.91.91,0,0,0-.37-.08,7.61,7.61,0,0,0-4.35,1c-.11.08-.24.18-.35.16-1.35-.17-2,.86-2.76,1.64-.56.56-1.2,1-1.8,1.56s-.72,1.56-1.76,1.63c-.07,0-.18.28-.17.42.11,1.87.24,3.73.37,5.59a4.38,4.38,0,0,0,.19.65c1-.69,2-1.31,2.93-2,.2-.15.16-.66.17-1,.05-1.47,0-2.95.15-4.41a5.6,5.6,0,0,1,.82-1.64Z" transform="translate(-234.54 -273.9)"/><path d="M332.51,422.69v5.53a10.19,10.19,0,0,1,1.42-1.17,12.77,12.77,0,0,1,2-.74l.11.25c-.39.23-.79.44-1.15.7a7.9,7.9,0,0,0-2.78,4,4.93,4.93,0,0,0,.07,1.7l.29.15,3.51-3.82a3.14,3.14,0,0,1-.88,2.79,7.09,7.09,0,0,1-1.53,1.38c-1.51.81-1.59,2.31-2.06,3.74,2.37-.68,4.36-1.7,5.4-4.21a3.38,3.38,0,0,1-1.95,3.93c-.91.44-1.85.82-2.79,1.21a3.26,3.26,0,0,0-2.21,2.37c1-.26,1.88-.45,2.75-.75a12.46,12.46,0,0,0,6-3.81,6.66,6.66,0,0,0,1.53-5.81,2.41,2.41,0,0,0-1.06-1.38c-.83-.46-.7-1.23-.91-1.91L338,427c-.34-.4-.71-.77-1-1.2s-.4-1.37-1.39-1.2c-.17,0-.39-.31-.6-.46-.71-.49-1.42-1-2.14-1.43C332.75,422.6,332.55,422.69,332.51,422.69Z" transform="translate(-234.54 -273.9)"/><path d="M355.69,424.88c-1.54,0-3.09,0-4.63,0a3.32,3.32,0,0,0-2.71.83,22.73,22.73,0,0,0-2.27,2.23,5.17,5.17,0,0,0-.76,1.24,23,23,0,0,0-.94,2.91c-.12.46-.07.92-.7,1a.56.56,0,0,0-.32.29c-.39.93-.74,1.88-1.17,2.8-.13.29-.41.65-.67.7-1.95.37-3.07,3.32-1.82,5.12l1.4-2.92.23,0,.22,1.83c1-.39,1.54-.9,1.41-2.06a17.21,17.21,0,0,1,.15-2.95l.37-.05c.31.93.62,1.86.92,2.79,1.54-.86,1.57-2.21,1.28-3.72a18,18,0,0,1-.17-2.32l.28-.08,1.49,3.1,1-1.06a6.63,6.63,0,0,1-.08-6.55c.32,1.94.59,3.63.87,5.32l.34.07,6.54-8.26Z" transform="translate(-234.54 -273.9)"/><path d="M283.68,312.6a60.73,60.73,0,0,0,2.94-6.93c1.36-4.67,1.35-9.48,1-14.41a1.76,1.76,0,0,0-1.24,1.72,23.52,23.52,0,0,1-4.54,12.68c-1.81,2.63-4,5-6,7.55l-.69.88c1.77-1.13,3.27-2.25,5.23-2a3.42,3.42,0,0,1,1.69.64.93.93,0,0,0,1.56-.16Z" transform="translate(-234.54 -273.9)"/><path d="M318.57,447.24a12.44,12.44,0,0,0-1.82,1.72c-1.95,2.72-2.57,6-3.64,9.08-1.36,3.89-2.6,7.83-4.08,11.68-2.44,6.38-5,12.71-7.55,19.07a2.4,2.4,0,0,0-.15,1.3c1-1.18,1.92-2.46,3-3.53,1.33-1.26,1.51-2.92,1.89-4.52a76.6,76.6,0,0,1,5.39-14.82c.64-1.36,1.07-2.8,1.61-4.2.75-2,1.55-3.89,2.27-5.86,1.09-3,2.12-6.05,3.16-9.08a2.76,2.76,0,0,0,.1-.65Z" transform="translate(-234.54 -273.9)"/><path d="M299.75,425.94a12,12,0,0,0,1.47,1.22c1,.57,2.28.82,3,1.6a29.48,29.48,0,0,0,3.25,2.61,27.06,27.06,0,0,1,3.2,3,17.64,17.64,0,0,1,3.92,7.3,2,2,0,0,0,.81,1.07,5.64,5.64,0,0,1,2.38,2.52,5,5,0,0,0,1,1.19c.21-.68.41-1.3.59-1.92a.83.83,0,0,0,.07-.48c-1-2.58.51-4.85.8-7.35-.95,0-.72-.69-.35-1.22.55-.79,1.24-1.49,1.88-2.25L321,433a5,5,0,0,1,1.51-2.73c2-2.36,4.1-4.69,6.14-7,1.89-2.16,3.61-4.46,5.51-6.61s3.78-4.46,5.8-6.56c1.38-1.44,3-2.63,4.48-4a6.31,6.31,0,0,0,.82-1.2c-1.45.29-1.87,2.42-3.58,1.49-2.52,2.92-5.06,5.84-7.57,8.78-1.6,1.87-3.16,3.77-4.77,5.63a3.72,3.72,0,0,1-1.06.54c-.27,2.57-2.16,4.2-4,5.85-2.25,2-4.21,4.24-4.77,7.33-.33,1.87-.52,3.76-.79,5.64-.11.8-.24,1.61-.42,2.73-1.21-1.32-2.34-2.36-3.25-3.56-1.87-2.45-3.6-5-5.44-7.47a26.91,26.91,0,0,0-2-2.18c-.08-.1-.2-.25-.3-.24-2.16.06-3.43-1.7-5.16-2.52-.76-.36-1.45-.86-2.18-1.29Z" transform="translate(-234.54 -273.9)"/><path d="M312.4,286.59c-.23,0-.55.12-.87.15-2,.16-2.92,1.39-2.35,3.33.44,1.5,1,2.95,1.61,4.41.83,2.14,1.75,4.24,1.65,6.6,0,.55-.07,1.1-.11,1.72a2.43,2.43,0,0,0,2.31-1.45,10,10,0,0,0,1.77-6.29,6.65,6.65,0,0,0-.84-2.38c-.73-1.35-1.61-2.61-2.36-3.95A16.51,16.51,0,0,1,312.4,286.59Z" transform="translate(-234.54 -273.9)"/><path d="M326.75,395.05l-1.84,2.15-.26-.13a6.55,6.55,0,0,1,0,1.83c-.14.45-.64.79-1,1.18l-.31-.16a7,7,0,0,1,.46,1.74c0,.9-.73.82-1.35.81-.38.89,1.12,2.2-.64,2.72.31,2.13.31,2.13-.8,2.17-.09.95,1.79,1.48.5,2.74a4.72,4.72,0,0,0,.71.88c.78.58.77,1.07-.12,1.55a8,8,0,0,0,.83,1c.49.46.77.83.15,1.45-.4.4-.1.68.4.78.95.17,1.9.37,2.87.56.72-2.06-.44-3.73-1.4-5.54l1.35,1c.62-2.63-.73-4.9-1.27-7.47l.84.51C325.88,401.55,327.09,398.53,326.75,395.05Z" transform="translate(-234.54 -273.9)"/><path d="M292.57,436.9v-4.6l-2.5.28a2.92,2.92,0,0,1,2.15-1.77c1-.26,1.35-.8,1.45-1.94l-4.29.79-.07-.17a27.88,27.88,0,0,1,3.87-1.29,1.73,1.73,0,0,0,1.66-1.51l-4.11-.56v-.19l3.7-.37c-1.39-.65-2.65-1.32-4-1.84-1.16-.46-2.38.34-3.23,1.25-.71.75-.71,1.68-1.18,2.45-.12.21,0,.57,0,.85s.15.34.11.46c-.21.62-.37,1.2.47,1.48,0,0,.06.06.05.08-.22,1.16,1.21,1.61,1.11,2.43.6.48,1,.85,1.49,1.17a4.64,4.64,0,0,0,1.47.87c1,.22,1.19,1,1.51,1.73A4,4,0,0,0,292.57,436.9Z" transform="translate(-234.54 -273.9)"/><path d="M339.32,399.93l4.25-1.27,0-.39a6.17,6.17,0,0,0-1.21-.09c-1.38.17-2.76.38-4.14.58l-.05-.24,3.28-1.13a2.11,2.11,0,0,0-2.76-.39c-1.33.79-2.77.63-4.25.53l3.57-1.45c-1.57-.67-3.05-1.45-4.74-1.2l-.58,3.8c.23.55,1.63.64.86,1.64l.75,1.37c.53.42,1,1,1.54,1.18a10.32,10.32,0,0,0,2.94.31c.75,0,1.33-.74,2.27-.44.5.17,1.3-.25,1.83-.6,1.16-.77,2.23-1.66,3.34-2.51l-.15-.4c-1,.21-2.08.47-3.13.6s-2.39.16-3.58.23Z" transform="translate(-234.54 -273.9)"/><path d="M283,324.4c-.59,1.54-.58,1.49-2.05,1.29a5.11,5.11,0,0,0-1.63.21,31.54,31.54,0,0,1-9.68.57c1.12,1.63,2.08,3.23,3.24,4.66,1,1.27,3.45,1.64,4.43.52a5.69,5.69,0,0,1,2.92-1.49,18,18,0,0,0,3.42-1.91,1,1,0,0,0,.43-.89C283.78,326.36,283.36,325.38,283,324.4Z" transform="translate(-234.54 -273.9)"/><path d="M330.16,460.41c.18-1.32.1-2.69,1.08-3.8a5.52,5.52,0,0,0,.82-1.58c.42-1.07.7-2.2,1.21-3.22.4-.83.36-1.87,1.2-2.51.15-.11.08-.49.12-.79.85-.53,1.75-1.15,2.72-1.65s2.16-1,3.24-1.44a4.22,4.22,0,0,0,1.05,1.39c.56.47.79.95.24,1.57-1,1.13-2,2.29-3,3.39a.84.84,0,0,1-.75.1,4.27,4.27,0,0,0-3.42.1c1,.36,2.3-.05,3,1.12a2.42,2.42,0,0,1-2.56,1.33,7.84,7.84,0,0,0-2.35.63l.08.19h2.84c-1,1.22-1.75,2.48-3.39,2.73a5.11,5.11,0,0,0-1.49.79l.09.22,2-.22-2.47,3.29-.73-.68A4.19,4.19,0,0,0,330.16,460.41Zm5-10.76,3.82-.71A3.49,3.49,0,0,0,335.21,449.65Z" transform="translate(-234.54 -273.9)"/><path d="M282.85,289a12.66,12.66,0,0,1,4.38-4.8.89.89,0,0,0,.35-.61c.15-1.56.27-3.12.39-4.68-2.77-2.68-6.33-2.48-10.17-2.48l1.12,1a5.52,5.52,0,0,0,.55.4,5.55,5.55,0,0,1,2.72,6.77A6.43,6.43,0,0,0,282.85,289Z" transform="translate(-234.54 -273.9)"/><path d="M283.54,374.17c-.76-1.56-1.13-2.92-2.53-3.81-1.68-1.06-1.59-2.56-.07-3.7-.59-.62-1.17-1.27-1.78-1.88a6.62,6.62,0,0,1-.43-8.63,3.84,3.84,0,0,0,1-3.7c-.21-.95-.37-1.91-.58-3.05a7.65,7.65,0,0,0-2.57,5.24c-.09,1.63,0,3.28,0,4.92,0,2.09-.06,4.19.05,6.28a9,9,0,0,0,.69,2.82,22.38,22.38,0,0,0,1.43,2.8,2.9,2.9,0,0,0,1.75,1.59C281.45,373.32,282.37,373.73,283.54,374.17Z" transform="translate(-234.54 -273.9)"/><path d="M292.91,353.16a6.84,6.84,0,0,1-.39,4.39,31.07,31.07,0,0,0-1,3.66c-.2,1.05.13,1.36,1.23,1.31,1.63-.07,3.27-.17,4.89-.34a1.19,1.19,0,0,0,.84-.7,23.22,23.22,0,0,0,.64-4c.06-1.42-1-2.25-2.1-2.86a41.14,41.14,0,0,0-3.89-1.74Z" transform="translate(-234.54 -273.9)"/><path d="M358.41,312.61c2.36,2,5.92,2.42,7,5.94.06.19.46.34.72.39s.73,0,1.07,0c.71.17,1.11.49.86,1.4a29.1,29.1,0,0,0-.5,3.26l.23.05c.73-2.12,1.52-4.22,2.13-6.36a2.52,2.52,0,0,0-.34-1.95c-1.5-2.06-3.33-3.76-6-4.1a7.3,7.3,0,0,0-2.78.29A16.17,16.17,0,0,0,358.41,312.61Z" transform="translate(-234.54 -273.9)"/><path d="M330.48,415.72h-.83a3.33,3.33,0,0,1,.35-.79,5.09,5.09,0,0,1,.79-.7c-.52-.52-.65-1.05,0-1.57-.81-.56-.62-1-.1-1.63a17.88,17.88,0,0,0,1.52-2.49c-1-.34-1.35-.88-.93-1.76a.51.51,0,0,0-.14-.48c-.78-.31-.58-.92-.66-1.55a2.63,2.63,0,0,0-1.09-1.43,12.27,12.27,0,0,0,.17-1.34c0-.22-.09-.58-.25-.65-1-.48-1-1.17-.47-2l-1.59-1.63c-.12,3.51-.23,6.72-.33,9.94l.27.11c.35-.47.75-.92,1.06-1.43a16.56,16.56,0,0,0,.84-1.76c.1,1.44.14,2.63-.67,3.61a5,5,0,0,0-.87,4l1.87-2.54-2.93,9.63.26.12,3.87-3.48Z" transform="translate(-234.54 -273.9)"/><path d="M276.73,281.49c-.4,2.15-.83,4.2-1.16,6.26a16.77,16.77,0,0,1-2.06,6.3,20.07,20.07,0,0,0-2.49,8.28c-.17,1.32-.47,2.62-.76,4.21,3-3.94,6.14-7.47,6.07-12.57a10.05,10.05,0,0,0-.53-2.57A3,3,0,0,1,276,289a11.8,11.8,0,0,0,1.72-6.16C277.73,282.22,277.66,281.69,276.73,281.49Z" transform="translate(-234.54 -273.9)"/><path d="M300.87,406l12.86-5.49a14.26,14.26,0,0,1-2-.46c-1.33-.5-2.6-1.15-3.94-1.61-1-.33-2-.45-3-.7a1.67,1.67,0,0,0-2,1.13c.08,2.58-2.22,4.41-2,7C300.81,405.92,300.83,405.94,300.87,406Z" transform="translate(-234.54 -273.9)"/><path d="M305.68,378.21l-15.5,2.86a.7.7,0,0,0,.26.19c3.82,1,7.65,2,11.47,3.05.68.19.94,0,1.22-.64C303.94,381.79,304.86,380,305.68,378.21Z" transform="translate(-234.54 -273.9)"/><path d="M266.94,332.38c-.54.9-1.11,1.12-1.86.72-.11-.06-.32-.16-.35-.12-1,1.18-2.91-.38-3.56,1.38-.9-.42-1.63-.84-2.38.07-.18.23-.87,0-1.32,0l-.05-.25-1.59,1.07,9.18,1.84.2-.29-2.59-2.13a4.61,4.61,0,0,1,3.16,1c1.24,1.29,2.87,1.41,4.56,1.6l-2.8-2.32.1-.18,3.09,1.59c.29.15.57.31.85.49,1.85,1.16,3.42,0,5.37-.62l-1.71-1.5-.2.19.48.77c-1.31.44-1.51-.8-2.27-1.3-.61.7-1.25.53-1.82-.34-.76.95-1.31.57-2-.05A19.81,19.81,0,0,0,266.94,332.38Z" transform="translate(-234.54 -273.9)"/><path d="M313.62,303.34c-2.23.45-4.07.48-5.84-.52-.22,1-.25,1.78.53,2.39,1.72,1.33,2,3.1,1.46,5a91.08,91.08,0,0,1-5,14.37c-.22.5-.4,1-.61,1.56l1.69.32c.36-1,.73-2,1.11-3a77.22,77.22,0,0,0,3.93-12.33c.18-.89.26-1.81.48-2.7a12.27,12.27,0,0,1,.7-1.92C312.55,305.58,313,304.59,313.62,303.34Z" transform="translate(-234.54 -273.9)"/><path d="M293.79,346.06c2.4,2.41,4.88,4.27,6.33,7.17a4.59,4.59,0,0,0,1.21-3.2,59.46,59.46,0,0,0,0-6c-.07-1.65-.79-2.12-2.24-1.34C297.29,343.7,295.6,344.91,293.79,346.06Z" transform="translate(-234.54 -273.9)"/><path d="M319.42,447.83a18.31,18.31,0,0,1,3.09,2.26c.7.78,1.6.71,2.37,1a5,5,0,0,0,2.46.14,21.45,21.45,0,0,0,2.88-.84,4,4,0,0,0,2-2.55,1.59,1.59,0,0,0-.51-1c-.79-.64-1.66-1.19-2.5-1.77l.27-.46.2,3.08-1.37-3.19a1.34,1.34,0,0,0-1.18,1.44,9.68,9.68,0,0,1-.89,3.05l.17-3.3c-.92.31-1.55.53-1.74,1.51a7.17,7.17,0,0,1-1.07,1.94l-.38-.15v-1.71Z" transform="translate(-234.54 -273.9)"/><path d="M281.38,351.34c1.9-2.37,4.27-3.78,7.4-3.41a11.09,11.09,0,0,1,5,2.36,43.71,43.71,0,0,0,4,2.73c-1.09-1.35-2.08-2.79-3.29-4a37.87,37.87,0,0,0-3.75-3.15,4.63,4.63,0,0,0-3.34-.9,8.71,8.71,0,0,0-5,1.76C280.43,348.29,280.27,349.29,281.38,351.34Z" transform="translate(-234.54 -273.9)"/><path d="M253.53,335.35l1.52,2c.49.26,1.95-.22,1.81,1.35a14.43,14.43,0,0,1,2.06.42c.13.05.06.66.09,1.06.68.46,2.21-.57,2.37,1.13.8.37,2.44-.86,2.17,1.24,2.19,0,3.58-1.24,4.82-2.78h-.58l1.8-1.36c-2.73-.82-5.41-.42-8.23-.13.14-.25.19-.37.27-.48a4.58,4.58,0,0,1,.31-.35C259,337.28,256.59,335.5,253.53,335.35Z" transform="translate(-234.54 -273.9)"/><path d="M345.56,384.59l.51,0q-1-3.68-2-7.32l-.34,0-.8,2.13c.18.69,1.23,1.58-.15,2.35,1.15,1.64,1.15,1.64,0,2.27.24.36.66.69.68,1a3.74,3.74,0,0,0,.48,2.38c.06.07-.27.44-.48.77l.85.66c.12.1.38.23.36.28-.3,1,.59,1.07,1.11,1.47.18.15.11.62.17,1.08.63.35,1.77.51,1.24,1.87l2.9-.42c-.11-1.87-1.57-2.75-2.88-3.8l1.38.3.25-.23Z" transform="translate(-234.54 -273.9)"/><path d="M305.9,421.71c1.4.85,2.59,0,3.82-.21a3.75,3.75,0,0,1-4.36,1.34,1.9,1.9,0,0,0-2.09.26,19.59,19.59,0,0,1-1.93,1.23l4.78.9v.26h-5c.92.84,2,1.6,3,1s2.4-.51,3.53-1.22a23.31,23.31,0,0,1,3-1.47,5.5,5.5,0,0,0,2.22-2.34c.41-.59.76-1.22,1.22-1.77.77-.9,1.61-1.75,2.38-2.8a25.55,25.55,0,0,0-2.74,1c-1.08.54-2,1.3-3.12,1.83C309.08,420.4,307.57,421,305.9,421.71Z" transform="translate(-234.54 -273.9)"/><path d="M294.69,367.29a25.12,25.12,0,0,0,8.11-3,12.1,12.1,0,0,0,5.1-4.61,14.39,14.39,0,0,0,1.06-3.23,5.75,5.75,0,0,0-.21-1.7,10.24,10.24,0,0,0-1.36,1.1c-1,1.13-2,2.27-2.86,3.49a16,16,0,0,1-7.12,5.65,16.9,16.9,0,0,0-2.94,2Z" transform="translate(-234.54 -273.9)"/><path d="M307.73,290.62c-.64,1.26-1.3,2.63-2,4-1,2-.91,3.48.64,5.1a23.46,23.46,0,0,0,2.89,2.46,5.37,5.37,0,0,0,1.41.55C310.93,298.27,309.37,294.36,307.73,290.62Z" transform="translate(-234.54 -273.9)"/><path d="M277.08,325.27c-1.71-1.24-3.2-2.15-5.13-2.14a5.54,5.54,0,0,1-4.25-2,14.08,14.08,0,0,1-.87,1.13c-.65.67-1.33,1.31-2,1.95-.45.43-.93.83-1.22,1.09.93,1.05,1.68,2,2.51,2.81a7.52,7.52,0,0,0,1.69,1.26c.79.43,1.66.73,2.64,1.15a12.24,12.24,0,0,0-3.21-3.85c-.42-.36-.93-.63-1.32-1-.18-.18-.34-.67-.23-.8a1,1,0,0,1,.85-.34C269.87,326.08,273.33,325.52,277.08,325.27Z" transform="translate(-234.54 -273.9)"/><path d="M354.58,456.78l-.59-1.12.25.06a7.89,7.89,0,0,0,.57-1.72c.11-1.31.1-2.63.14-3.8a5.83,5.83,0,0,0-1.64,4.38l-2.67-3.6a19.85,19.85,0,0,0-6.28-5.43,13,13,0,0,1-1.5-.94c-1.69-1.3-3.61-1.35-5.62-1.16s-3.77.25-5.66.28a8.2,8.2,0,0,1-1.89-.45,3.3,3.3,0,0,0,.36.73.63.63,0,0,0,.43.21c2.61.18,5.12,1.36,7.84.66a4.77,4.77,0,0,1,4.76,1.09,5.82,5.82,0,0,0,1.59,1,14.13,14.13,0,0,1,5,4.71c1.19,1.6,2.54,3.07,3.85,4.58a6.19,6.19,0,0,0,.9.7Z" transform="translate(-234.54 -273.9)"/><path d="M292.43,351.31c-2-1.5-4-2.22-6.3-1.65-1.65.41-2.66,1.73-3.68,3s-1.39,2.62-.29,4.19c.88,1.27,1.46,2.75,2.38,4.05a22.85,22.85,0,0,1-.25-3.39,14.24,14.24,0,0,1,.68-3.35,4.7,4.7,0,0,1,2.32-2.86l.28,2.06A6.11,6.11,0,0,1,292.43,351.31Z" transform="translate(-234.54 -273.9)"/><path d="M319.62,430.87a2.54,2.54,0,0,0,.9-2.68,153.53,153.53,0,0,1-2-27.84v-1.18c-.45.2-.83.4-1.23.55s-.86.26-1.18.35c1.47,4.65,1.3,9.42,1.83,14.09.45,4,.85,8,1.26,11.94C319.36,427.67,319.48,429.24,319.62,430.87Z" transform="translate(-234.54 -273.9)"/><path d="M334.51,394.42l5,.59.18-1.13c.95.9,1.22,2.48,2.92,2.44l.25-1.5c.36.73.6,1.23.86,1.73s.44.77.65,1.16l.38-.13.17-2.35.26-.05c.28,1,.57,1.94.9,3,.67.08,1.51.45,2.12-.5s.45-1.59-.14-2.72a3.65,3.65,0,0,0-2.14-1.64A10.4,10.4,0,0,0,343,393c-.19,0-.38.07-.57.07a23,23,0,0,0-3.62,0,39.24,39.24,0,0,0-4.31,1.16Z" transform="translate(-234.54 -273.9)"/><path d="M293.29,316.73c-.82-2.1-1.53-4-2.26-5.8a37.34,37.34,0,0,1-2.84,2.55,11.36,11.36,0,0,1-2.59,1.34c-1.62.63-2.91-.14-4.12-1.14a11,11,0,0,0-1.23-.77l-.29.31c.57.76,1,1.87,1.75,2.17a6,6,0,0,1,2,.76,7.91,7.91,0,0,0,2.93,1.53,19.29,19.29,0,0,1,3.64,2.09c-.19-1.67-1.75-3.54-.18-5.69Z" transform="translate(-234.54 -273.9)"/><path d="M280.32,356.64a3.92,3.92,0,0,0-1.33,4.54,6.26,6.26,0,0,0,1.24,2.42c1.91,2,3.92,3.85,5.94,5.72a2.55,2.55,0,0,0,1.45.5c-.86-1.13-1.77-2.23-2.56-3.4s-1.93-2.52-1.64-4.27a.49.49,0,0,0-.11-.26Q281.83,359.27,280.32,356.64Z" transform="translate(-234.54 -273.9)"/><path d="M349.71,389.56l.59-2.58c.25,2.68.51,5.41.77,8.14l.31,0,1.74-3.74-.17-.13-.52.35-.21-.09.33-1.26a8.36,8.36,0,0,1-.95-2.19,9.48,9.48,0,0,1,.42-2.53c-.84-.23-1.5-.49-1.18-1.52l-.35.26a7.71,7.71,0,0,0-.87-1.15c-.75-.68-1.33-1.52-2-2.21s-.93-.43-1-1.38l-1.6-.73c1,2.65,1.89,5.08,2.8,7.51h.32l.5-2.57.23,0c.08.9.18,1.8.25,2.7.09,1.07.15,2.14.21,3.22Z" transform="translate(-234.54 -273.9)"/><path d="M329.76,437.52c.95-1.4.95-1.81-.12-3.1s-1.06-2.22.08-4.52c.13.73.21,1.36.36,2a6.84,6.84,0,0,0,.62,1.68c-.55-2.71.74-5.14,1-7.7a11.24,11.24,0,0,0-.13-2.94,9.59,9.59,0,0,1-.45,1c-.48.84-1,1.68-1.5,2.49a21.83,21.83,0,0,0-2,2.81,6.48,6.48,0,0,0-.71,3.91,1.78,1.78,0,0,1-.13.74c0,.15-.24.29-.23.41.17,1.34.37,2.68.56,4h1.15l-1.25-3.43.38-.23Z" transform="translate(-234.54 -273.9)"/><path d="M256.57,355.53a5,5,0,0,0-1.45-3.87c-1.59-2-3.24-3.94-4.8-6a22.76,22.76,0,0,1-1.48-2.54,6.77,6.77,0,0,0-.43-.54c0,.63.18,1.24,0,1.58a4.58,4.58,0,0,1-1.42,1C248,348,254.63,355.18,256.57,355.53Z" transform="translate(-234.54 -273.9)"/><path d="M361.82,306.81c.62.87,1.28,1.81,2,2.74a1.23,1.23,0,0,0,.62.37,11.35,11.35,0,0,1,6.23,4.38,4,4,0,0,1,.56,4.18c-.47,1.21-.92,2.43-1.4,3.71,1.67-1.51,3.16-4.39,2.91-6a10.76,10.76,0,0,0-2.9-6.3,3,3,0,0,0-1.05-.69c-1.21-.4-2.45-.7-3.65-1.11S362.81,307.21,361.82,306.81Z" transform="translate(-234.54 -273.9)"/><path d="M289,291.16c1-.65,2-1.33,3-2,1.22-.74,1.62-1.49.95-2.68a7.93,7.93,0,0,1-1.08-5c.09-.68-1.4-2.54-2-2.43s-1.13.78-1.1,1.17a34.45,34.45,0,0,0,.7,4.72c.18.85.6,1.65.86,2.5a2.46,2.46,0,0,1-1,2.85,4.33,4.33,0,0,0-.6.73Z" transform="translate(-234.54 -273.9)"/><path d="M296,425.19l-25.1-21.45-.24.24c1.06,1.16,2.06,2.39,3.21,3.46,2.59,2.44,5.09,5,8.22,6.8,2.48,1.43,4.25,3.65,6.24,5.6a39.62,39.62,0,0,0,6.5,5.35,4,4,0,0,0,1,.33Z" transform="translate(-234.54 -273.9)"/><path d="M271.22,321.83c2.26-.32,4,.61,5.75,1.63a21.39,21.39,0,0,0,4.31,1.36,4.49,4.49,0,0,0-2-3.74,6.7,6.7,0,0,0-5.82-1.34A3,3,0,0,0,271.22,321.83Z" transform="translate(-234.54 -273.9)"/><path d="M373.09,329.89a2.62,2.62,0,0,0-1-.15,8.46,8.46,0,0,1-4.73-.34,6.84,6.84,0,0,0-4,.17,20.18,20.18,0,0,1-2.72.52c.68.6,1.56,1.41,2.48,2.18a1.14,1.14,0,0,0,.74.12,51.89,51.89,0,0,0,6.14-.61,12.61,12.61,0,0,0,3.15-1.63Z" transform="translate(-234.54 -273.9)"/><path d="M353.47,312.47l8.69-2.77c-.57-1.37-3.14-2.75-4.69-2.57C355.73,307.33,353.83,309.84,353.47,312.47Z" transform="translate(-234.54 -273.9)"/><path d="M289.79,362.26c.28-1.49.55-2.89.83-4.35a2.39,2.39,0,0,1-3-.74,22.58,22.58,0,0,1-1.45-3,3.53,3.53,0,0,0-.45.73,6.75,6.75,0,0,0,.38,5.57c.4.73,1.56,1.06,2.42,1.49A4.78,4.78,0,0,0,289.79,362.26Z" transform="translate(-234.54 -273.9)"/><path d="M351.4,325.77a13.52,13.52,0,0,0-1.16-6,19.53,19.53,0,0,0-1-2.34,5.15,5.15,0,0,1,.74-6.27c.19-.22.36-.47.53-.71a.55.55,0,0,0,.06-.18,2.41,2.41,0,0,0-2.84,2.42,9.39,9.39,0,0,0,.09,2.25c.35,1.95.38,1.95-.75,3.64,2.06,1.71,2.7,4.21,3.53,6.62a4,4,0,0,0,.53.8Z" transform="translate(-234.54 -273.9)"/><path d="M285.68,364.48c.71,1.06,1.34,2.19,2.15,3.17a33.48,33.48,0,0,0,2.74,2.71c.58-1,2.08-.92,2.63-2.29a1.28,1.28,0,0,0-.49-1.71,1.24,1.24,0,0,0-.62-.27,15,15,0,0,1-6.2-1.86Z" transform="translate(-234.54 -273.9)"/><path d="M299.76,362.37c2.62-1.37,3.78-3.82,5.45-6.17-1.33-.39-2.54-.8-3.79-1.07-.19,0-.69.56-.76.92-.28,1.48-.45,3-.65,4.47C299.93,361.09,299.85,361.66,299.76,362.37Z" transform="translate(-234.54 -273.9)"/><path d="M296.69,431l-1.15,1.24-.65-1.49-.27,0-1.54,4.76a16.33,16.33,0,0,1,1.79-1.92c.66-.53,1-1.59,2.16-1.39.16,0,.37-.42.6-.61a11.13,11.13,0,0,0,1.08-.84,8.91,8.91,0,0,0,.91-1.19,2.92,2.92,0,0,0,.1-2.52,2.37,2.37,0,0,0-2.44-.64l1,2.58-.49.28-1.39-1.83C294.55,428.79,296,429.93,296.69,431Z" transform="translate(-234.54 -273.9)"/><path d="M314.45,447c-.79-1.55-1.64-3.1-2.39-4.69a2.35,2.35,0,0,0-2.54-1.43c-.28,0-.6-.17-.9-.25l-1-.26-.13.23a15.09,15.09,0,0,0,1.08,1.72,5.93,5.93,0,0,1,1.74,3.44c0,.21.4.51.65.56C312.15,446.59,313.37,446.79,314.45,447Z" transform="translate(-234.54 -273.9)"/><path d="M373.05,328.15c2,1.42,2,2.41.05,3.77l6-.65c-.22-1-.47-2.18-.74-3.37-.14-.62-.5-1-1.19-.82Z" transform="translate(-234.54 -273.9)"/><path d="M356.21,454.38c1.07-.65,1.93-1.12,2.73-1.68a1,1,0,0,0,.32-.81,6.77,6.77,0,0,1,.15-4,16.25,16.25,0,0,0,.16-1.81c-.29,0-.53,0-.65.09-.79.63-1.57,1.28-2.32,2a1.15,1.15,0,0,0-.37.76C356.19,450.67,356.21,452.39,356.21,454.38Z" transform="translate(-234.54 -273.9)"/><path d="M355.58,388.1c.51-1.19.95-2.12,1.29-3.09a1,1,0,0,0-.32-.8,5.79,5.79,0,0,1-2-2.74c-.29-.69-.67-1.33-1-2.09-.26.21-.52.32-.56.48-.28,1-.51,2-.72,3.07a1,1,0,0,0,.15.66C353.41,385,354.44,386.49,355.58,388.1Z" transform="translate(-234.54 -273.9)"/><path d="M294.25,325.64l1.83-.18c-1.62-3.44-2.91-7-5.2-10.28a3.18,3.18,0,0,0-.16,2.8c.32.89.82,1.71,1.21,2.57C292.71,322.24,293.47,323.93,294.25,325.64Z" transform="translate(-234.54 -273.9)"/><path d="M281,368.43a9.28,9.28,0,0,0,1.31,1.12,3.64,3.64,0,0,1,1.85,2.17,4.55,4.55,0,0,0,.3.72c.94,1.54,2.16,2.73,3.82.59.48-.61,1-1.21,1.48-1.84-.17-.07-.24-.13-.28-.12-2.26,1.05-3.67-.54-5.19-1.72C283.37,368.66,282.55,367.92,281,368.43Z" transform="translate(-234.54 -273.9)"/><path d="M320.88,447.11l2.5-.82-.11-1.42c1.43.16,2.91,1.17,3.92-.58l-1.87-.53,0-.3a8.33,8.33,0,0,1,2,0c.64.16.87-.18,1.23-.52s.16-.77-.06-1.1-.62-.84-.84-1.12A13.72,13.72,0,0,0,320.88,447.11Z" transform="translate(-234.54 -273.9)"/><path d="M259.83,281.65a6.86,6.86,0,0,0,.23,1.45,6,6,0,0,1,.31,3.92,2.65,2.65,0,0,0-.09.49c-.11,1.62.63,2.26,2.16,1.85a2.94,2.94,0,0,0,1-.34c.33-.26.74-.64.78-1a1.39,1.39,0,0,0-.59-1.1c-1-.55-1.83-1.1-1.67-2.44,0-.26-.27-.58-.46-.84-.49-.67-1-1.33-1.51-2Z" transform="translate(-234.54 -273.9)"/><path d="M263.55,284.26l1.33-.23a3.2,3.2,0,0,0-.36-4.08c-.33-.38-.47-1-.86-1.21a1.4,1.4,0,0,0-1.86.37,2,2,0,0,0-.2,2.37C262.19,282.41,262.86,283.28,263.55,284.26Z" transform="translate(-234.54 -273.9)"/><path d="M295.39,317.07c-.48-2.36-.95-4.73-1.45-7.09a11.6,11.6,0,0,0-.65-2.25,1.82,1.82,0,0,0-1-.85c-.41-.16-.81,0-.8.63,0,.85,0,1.71,0,2.56a.91.91,0,0,0,0,.37q1.75,3.27,3.52,6.54s.09.08.13.12Z" transform="translate(-234.54 -273.9)"/><path d="M283.86,319.25l-5.51-6.11-2.58,1.23c2.3,2.49,5.12,3.76,7.92,5.06Z" transform="translate(-234.54 -273.9)"/><path d="M374.33,318.31l-6.68,9.55c1.29.76,1.5.65,2.37-.71s1.83-2.38,2.59-3.66a29.73,29.73,0,0,0,1.85-4C374.6,319.18,374.38,318.68,374.33,318.31Z" transform="translate(-234.54 -273.9)"/><path d="M263.59,285.28l2,3.4c2-1.74,4.11-3.8,7.35-3.6C269.78,283.86,266.7,285,263.59,285.28Z" transform="translate(-234.54 -273.9)"/><path d="M265.75,279.36c.76,1.24,1.87,2.57.59,4.37A3.51,3.51,0,0,0,269,282.5a5.39,5.39,0,0,1,3.93-2.22,5,5,0,0,0-3.33-.92Z" transform="translate(-234.54 -273.9)"/><path d="M360.62,334.31l-13.37-.69C351.55,336.66,356,335.09,360.62,334.31Z" transform="translate(-234.54 -273.9)"/><path d="M351.43,318.75a7.67,7.67,0,0,1,5.91-.31c-1.28-1.6-2.61-2.72-4.67-2.87-1.1-.08-1.27.75-1.78,1.23-.16.15,0,.73.13,1.09A6,6,0,0,0,351.43,318.75Z" transform="translate(-234.54 -273.9)"/><path d="M313.9,308.5c1.15-1.78,2.3-3.55,3.44-5.33a.9.9,0,0,0-.26-1.37c-.57-.37-.93-.11-1.29.39a12.27,12.27,0,0,0-1.69,3.7l-.48,2.48Z" transform="translate(-234.54 -273.9)"/><path d="M286.71,363c2.81,2.46,8.38,1.92,11.14.32-2.09.12-4,.36-5.82.3S288.37,363.22,286.71,363Z" transform="translate(-234.54 -273.9)"/><path d="M274.53,284.12l.67-2.15c-2.15-.74-3.48-.37-5.16,1.52Z" transform="translate(-234.54 -273.9)"/><path d="M289.75,356.59a2.32,2.32,0,0,0,1.94-2c-.06-.68-.27-1.31-1.17-1.27s-2.34,1.25-2.33,2.07A1.56,1.56,0,0,0,289.75,356.59Z" transform="translate(-234.54 -273.9)"/><path d="M254.72,296.89l5-1.28c-.16-1.57-1-2.11-2.42-1.36a11.6,11.6,0,0,0-2.11,1.51C254.93,296,254.89,296.43,254.72,296.89Z" transform="translate(-234.54 -273.9)"/><path d="M316.05,447.47l1.81-.69c-.52-.64-1-1.22-1.47-1.82-.19-.25-.26-.63-.48-.82-.8-.71-1.65-1.36-2.43-2Z" transform="translate(-234.54 -273.9)"/><path d="M358.9,402.41a6.45,6.45,0,0,0-6.82-2.7c.38.27.62.6.87.6,2,0,3.56,1.4,5.4,1.92Z" transform="translate(-234.54 -273.9)"/><path d="M287.47,333.61c-.85-1.49-1.69-3-2.55-4.48l-1.3.55c.93,1.32,1.86,2.66,2.83,3.95.16.2.57.21.86.3Z" transform="translate(-234.54 -273.9)"/><path d="M353,395.11l-7.22,8.43.33.29c1.25-1.45,2.5-2.91,3.76-4.36s2.71-2.48,3.43-4.2Z" transform="translate(-234.54 -273.9)"/><path d="M356,314.63c.6.72,1.08,1.39,1.65,2s.91.36,1.08-.34a5.09,5.09,0,0,1,.14-.56c.42-1.23.25-1.51-1.09-1.43A10.94,10.94,0,0,0,356,314.63Z" transform="translate(-234.54 -273.9)"/><path d="M321.59,436.92l.77-.38a20.53,20.53,0,0,1,3.09,1.63c.87.65,1.36,1.81,2.74,1.94a6.49,6.49,0,0,0-.94-1.19c-1.57-1.26-3.18-2.47-4.78-3.69-.1-.07-.22-.13-.46-.26Z" transform="translate(-234.54 -273.9)"/><path d="M255.78,387.27l1.37.48c1.29-1.33,1.23-2.7,0-4.1C256.72,384.84,256.25,386.06,255.78,387.27Z" transform="translate(-234.54 -273.9)"/><path d="M355.19,390a1.3,1.3,0,0,0-.27-1.8c-.43-.48-1-.88-1.37-1.38a14.43,14.43,0,0,1-1-1.59A4.47,4.47,0,0,0,355.19,390Z" transform="translate(-234.54 -273.9)"/><path d="M325.83,419.79c1-1.83.49-2.76-2.28-3.63l.87,1.39c.12.19.42.39.39.53C324.56,419.05,325.41,419.23,325.83,419.79Z" transform="translate(-234.54 -273.9)"/><path d="M295.23,408.82a31.8,31.8,0,0,0,3.3-1.66c.39-.26.53-1,.71-1.47a2.66,2.66,0,0,0,.09-1.21,8.2,8.2,0,0,1-4.39,4.06Z" transform="translate(-234.54 -273.9)"/><path d="M362.05,320.66a1.87,1.87,0,0,0-.31-2.42c-.68-.58-1.53-.47-2.5.45A3,3,0,0,1,362.05,320.66Z" transform="translate(-234.54 -273.9)"/><path d="M361.61,316.27a3.9,3.9,0,0,1,1.68,4.54c.89-.33,1.2-.69,1.14-1.29A3.56,3.56,0,0,0,361.61,316.27Z" transform="translate(-234.54 -273.9)"/><path d="M348,393.91l2.65,2.09C351,394.23,350.35,393.7,348,393.91Z" transform="translate(-234.54 -273.9)"/><path d="M350.26,315.43l1.61-2.86-.25-.14-1.72,2.8Z" transform="translate(-234.54 -273.9)"/><path d="M258.64,388.14l1.8.64-1.26-1.58Z" transform="translate(-234.54 -273.9)"/><path class="cls-1" d="M339,448.94a3.49,3.49,0,0,0-3.82.71Z" transform="translate(-234.54 -273.9)"/></g></svg>