<svg id="Layer_1" data-name="Layer 1" xmlns="http://www.w3.org/2000/svg" viewBox="0 0 386.45 507.33"><defs><style>.cls-1{fill:#edd7b8;}.cls-2{fill:#d2b28c;}.cls-3{fill:#744a22;}.cls-4{fill:#b58c62;}.cls-5{fill:#9a693c;}</style></defs><title>scroll</title><g id="vypEU5.tif"><path class="cls-1" d="M710.29,655c.42,2.71-.57,5.23-1.27,7.73a14.15,14.15,0,0,0,.49,9.62c1.19,2.94,2.8,6.58-3.26,5.24-.16,0-.57,1-.86,1.58a41.39,41.39,0,0,0-2.09,13c-1.5-.59-.63-3.77-2.78-2.73-2.36,1.15.1,2.26.54,3.42.6,1.58.45,3-1.66,3.22-.13-.72-.08-1.59-1.19-1.53a.45.45,0,0,0-.3.31c-.06,1.11.79,1.07,1.52,1.18-.12,6.43,3.27,12,4.32,18.26,1.59-1.06,2.82-2.2,4.56-2.3-1.75,4.23-1.45,8.14-.23,12.73,1.35,5.11.3,10.86.3,16.33-2.85.49-2,2.79-1.86,4.38.83,9.24-2,18.41.15,28.75a5.84,5.84,0,0,0-6.18-2c-3.39.67-3.31,3.82-3.57,6.29a2,2,0,0,0,3,2.12c1.26-.61,2.19-1.54,3.05.43.62,1.4,1.4,2.71.25,4.15-.79,1-1.5,1.64-1.11,3.38,1.26,5.64.17,11.46-1.08,16.83s-2.64,10.62,1.44,14.2c4.59,4,1.94,4.58-1.32,6.11-3.1,1.46-6,3.15-4.2,7.56.69,1.65-.93,2-2,2.8a29.48,29.48,0,0,1-17.1,6.52c-3.1.14-5.76,2.08-4.77-4.31-2.8,5.8-2.8,5.75-8.44,5.75-2,0-3.86-.86-5.76-1.19-5-.87-10.19-1.69-15.08,1-3,1.62-6.92,2.74-9.32,1-4.79-3.39-9.14-3.89-14.19-1.35-2,1-3.59-.21-4.89-1.46s-.56-2.7.54-3.9c.88-1,2.26-2.09,1.14-3.38-1.4-1.6-2.22.11-3,1.08a2.92,2.92,0,0,1-2.66,1.1c-4.33-.62-6.73,2-8.85,5.15-1.53,2.29-3.64,2.86-6.44,2.68-5.84-.38-10.57-4.15-16.29-4.9-1.3-.17-2-.83-3.31.31-2.9,2.52-9,1.46-11.15-1.77-1,1.16-1.13,4.18-3.09,3.1-3.49-1.91-6.81-.24-10.18-.46-5.67-.38-11.72-2.75-17.34,3.9.5-2.28.63-3,.83-3.78,2-7,1.39-7.62-5.64-6.36-1.91.35-3.4.18-4.76-1.63-1.49-2-3.19-4.83-6.27-1.56-.33.35-1.59,0-2.33-.24-3.69-1.29-6.21-6-11.12-3.85-.14.06-.66-.66-.93-1.07-3-4.47-7.26-1.68-9.56-.31-7.72,4.61-10.48,4.93-17.24-.68-.63-.52-1.19-1.35-2.12-.85s-.68,1.41-.67,2.22c0,7.14.06,7.12-6.88,6.25a15.09,15.09,0,0,0-3.49,0,5.92,5.92,0,0,1-6.38-3.78c-.74-1.6-2.1-2.38-3-3.52-2.7-3.4-7.32-8.21-6.44-11,2.28-7.17-2.68-11.65-3.47-18.16L442.88,800c-2-2.58-.75-4.5,1.61-5.58,1.8-.84,3.23-2,2.27-3.66-3.93-6.58-.52-13.67-1.75-20.42-.44-2.42-.37-4.87-1.45-7.24-1.48-3.24-.88-6.73-.81-10.21.23-10.9,0-21.81,0-32.72,0-3-.43-6,1.59-8.63a4.35,4.35,0,0,0,.45-3.37c-2.11-7.33-.25-15-1.82-22.33-1-4.86,2.29-9,2.53-13.83.2-4.09,1.52-7.88-.94-11.91a7.78,7.78,0,0,1,.24-8.06,3.67,3.67,0,0,0,3.63-2.69c.2-.64-.38-1.13-1.14-1.23-1.64-.23-2.33.76-2.78,2.09A9.69,9.69,0,0,1,443,643c1.67-1.1,4.7,2.48,5.21-1,.33-2.32,3-4.23,1.24-6.95-.83-1.29-1.11-3.25-.19-4.29,3.76-4.24,3.26-10.81,8.15-14.41,1.89-1.39,2.43-2.81-1-2.63-2.55.14-1.82-1.36-1.38-3,1.53-5.6,6.3-6,10.69-6.61,2.85-.39,7.09-3.31,7.9,2.79,0,.33,1.06.68,1.65.75,4.61.49,9.23.93,13.85,1.36,2.17.2,4.36.53,5.87,2.25,2.11,2.42,3.57,2.79,5.27-.54.83-1.64,3.11-2.16,4.92-1.66,4.27,1.19,7-.68,9.59-3.78,1.55-1.87,4.8-2.88,6.15-1.77,2,1.61,6,2,5.59,5.41-.65,5.07,2.38,3.25,3.87,2.08,5.85-4.62,11.9-3.51,17.78-.81,3.62,1.66,5.41,1.87,5.7-2.76.13-2,1.69-3.13,3.75-3.4s3.11.66,3.8,2.43c.4,1,.35,2.61,2,2.26s.88-1.91,1.31-2.88c.78-1.73.32-5.56,3.22-4.37,4,1.64,8.77-2.62,12.06,2,.15.22,1,.2,1.36,0,3.2-2.23,6.33-.21,9.46.16,1.49.17,3,.76,4.3-.24,2.76-2.13,5.39-1.7,8.29-.23s6.64,2.16,9,.95c6.66-3.42,13.94-3.55,20.54-2.83,10.1,1.1,20.07-.67,30.14.44,4.65.52,9.23.78,13.9,1.74,5.21,1.07,10.71,4.33,16.24.3,1.83-1.34,3.07-.49,3.16,1.89,0,1-.45,2.41,1.36,3a13.93,13.93,0,0,1,2.28-3c1.14-.9,2.85-1,3.13.79.52,3.4,1.66,7.25.6,10.21-1.64,4.59-1.29,8.74-.23,13.13.76,3.17,1.94,6.23.05,9.52a3.26,3.26,0,0,0,.91,4.11c3.1,2.33,4,5.51,3.9,9.2C708.33,654,708.76,655,710.29,655Zm-33.41,4.11c-.07,2-1.18,4.21,1.08,5.46a1.78,1.78,0,0,0,1.68-.5C680.68,661.45,677.45,661,676.88,659.12Zm-203.7,52.13c4.08,1.32,6,.56,8.05-3.29Z" transform="translate(-383.63 -460.55)"/><path class="cls-2" d="M442.88,800l2.35-3.38c.79,6.51,5.75,11,3.47,18.16-.88,2.75,3.74,7.56,6.44,11,.92,1.14,2.28,1.92,3,3.52a5.92,5.92,0,0,0,6.38,3.78,15.09,15.09,0,0,1,3.49,0c6.94.87,6.93.89,6.88-6.25,0-.81-.18-1.76.67-2.22s1.49.33,2.12.85c6.76,5.61,9.52,5.29,17.24.68,2.3-1.37,6.56-4.16,9.56.31.27.41.79,1.13.93,1.07,4.91-2.11,7.43,2.56,11.12,3.85.74.26,2,.59,2.33.24,3.08-3.27,4.78-.42,6.27,1.56,1.36,1.81,2.85,2,4.76,1.63,7-1.26,7.61-.59,5.64,6.36-.2.74-.33,1.5-.83,3.78,5.62-6.65,11.67-4.28,17.34-3.9,3.37.22,6.69-1.45,10.18.46,2,1.08,2.09-1.94,3.09-3.1,2.19,3.23,8.25,4.29,11.15,1.77,1.31-1.14,2-.48,3.31-.31,5.72.75,10.45,4.52,16.29,4.9,2.8.18,4.91-.39,6.44-2.68,2.12-3.18,4.52-5.77,8.85-5.15a2.92,2.92,0,0,0,2.66-1.1c.82-1,1.64-2.68,3-1.08,1.12,1.29-.26,2.42-1.14,3.38-1.1,1.2-2,2.54-.54,3.9s2.9,2.46,4.89,1.46c5.05-2.54,9.4-2,14.19,1.35,2.4,1.7,6.36.58,9.32-1,4.89-2.67,10-1.85,15.08-1,1.9.33,3.71,1.19,5.76,1.19,5.64,0,5.64.05,8.44-5.75-1,6.39,1.67,4.45,4.77,4.31a29.48,29.48,0,0,0,17.1-6.52c1.07-.81,2.69-1.15,2-2.8-1.82-4.41,1.1-6.1,4.2-7.56,3.26-1.53,5.91-2.09,1.32-6.11-4.08-3.58-2.67-8.93-1.44-14.2s2.34-11.19,1.08-16.83c-.39-1.74.32-2.38,1.11-3.38,1.15-1.44.37-2.75-.25-4.15-.86-2-1.79-1-3.05-.43a2,2,0,0,1-3-2.12c.26-2.47.18-5.62,3.57-6.29a5.84,5.84,0,0,1,6.18,2c-2.12-10.34.68-19.51-.15-28.75-.14-1.59-1-3.89,1.86-4.38.25,1.47.91,3,.71,4.39-1.63,11,1.32,21.71,2,32.55,0,.17.1.41,0,.49-5,5,.78,10,.18,15.06-.68,5.75-.23,11.64-.12,17.46,0,2.32-.42,4.26-2.31,5.74a2.49,2.49,0,0,0-1.08,3c2.92,7.91.94,16.15,1.61,24.22-2.08.53-4.4.24-5,3.42-.74,3.6-1.1,3.58-4.86,2.18-1.08-.4-1.91.1-2.87.2-2.79.3-5.21,3.7-8.58.83-.51-.43-3.44,1.7-3.13,4.16a24.62,24.62,0,0,0,.92,3.86c.27.94.92,1.93,0,2.77s-1.73-.29-2.54-.4c-4-.52-8.09-2.91-12,1-2.13,2.1-5.35,4.85-7.74,4.55-5.18-.64-9.78,1.53-14.68,1.46-1.87,0-3,2.86-4.33,1.7-4.5-3.86-9.45-2.11-14.18-1.49-3,.39-4.83.61-5-3.06-.08-1.23-1.48-2.53-2.43-1.86-3.62,2.54-3.28-1.68-4.93-2.78a43.62,43.62,0,0,0-3,6.19c-1,3.21-2.37,4.67-6.06,3.68a16,16,0,0,0-10.2.87c-3.36,1.32-7.2,2-9.87-1.79a1.81,1.81,0,0,0-2.51-.84c-4.25,1.92-8.4-1.21-13.38.72-5.41,2.09-12.65.91-18.69.17-7.67-.94-15.55,1-23-1.8-.79-.3-1.8-.72-2.24.15-2.28,4.48-2.85,1.24-3.79-.76-.41-.88-.79-2-2-1.89a1.57,1.57,0,0,0-1.1.75c-2.38,4.37-2.32,4.35-5.31.21-1.28-1.79-2.26-4.62-5.19-3.52a35,35,0,0,1-11,2.11c-6.58.34-13,.48-19.38-.79-3.67-.74-6.16-.3-7.4,3.4a3.31,3.31,0,0,1-3.18,2.59c-4.84.47-9.4-1.22-14.12-1.69-2.8-.28-5.14-1.51-4.72-5.12a1.73,1.73,0,0,0-1.67-2.08c-3.33-.25-3.37-2.6-3.3-5l.42-.4c-.09,0-.21,0-.25.08a1.17,1.17,0,0,0-.15.34L442.84,854a54,54,0,0,1,.53-20.23,57.63,57.63,0,0,0,.2-20.83A69.4,69.4,0,0,1,442.88,800Z" transform="translate(-383.63 -460.55)"/><path class="cls-3" d="M710.81,527.52c1.71,6.24-2.28,11.65-2.55,17.6a4.28,4.28,0,0,0-1.48-.16c-7.14,2-14.24,2.49-21.47.26a15.41,15.41,0,0,0-7.75-.3,54.24,54.24,0,0,1-11.31.8c-7.08-.13-14.12-3.51-21.21.3a4.47,4.47,0,0,1-3.42-.1c-8-3.54-16.42-1-24.61-1.78-2.52-.23-4.12,2.81-7,1.7-7.22-2.79-14.62-2.05-22-.81-3.08.51-6.45,1.49-9.28.74-6-1.57-11.72.49-17.61-.18-4.86-.55-9.92-.15-14.81-.13-13,.08-26.08-1.62-39.17-1.32-3.24.08-6.44.45-9.73.39-6.58-.11-13.39-1.4-19.87,1.18-1.75.7-3.56.36-5.39,0-9-1.55-17.49-1.1-24.37,6-.81.84-1.69,1.81-2.85.4.2-3.91-1.88-8.16,1.86-11.56a2.43,2.43,0,0,0-.18-2.34c-3.66-3.21-4-7.36-3.76-11.79,0-.7.35-1.78-.8-2a1.63,1.63,0,0,0-2.13,1.48c-.57,2.78-2.27,3.68-5.05,3.42-3-.28-3.12-2.73-3.72-4.62-2.18-6.91-3.42-14.09-5.94-20.92-1-2.8-1.71-3.36-5.11-3a139.34,139.34,0,0,1-33.46-.66c-1.8-.24-2.7-1.09-2.48-3l11.35,0c6.74,0,7.57-1.22,5.57-8,1.11-1.16,2.56-.41,3.83-.69,1.26,9,1.85,9.48,9.64,8.68,2.22-.23,3.37-1,3.32-3.34,0-1.49.11-3,.18-4.48,1.11-.21,2.23-.45,2.92.83.06,1.47.11,2.94.21,4.41.06,1,0,2.12,1.24,2.34,1.43.25,2-.8,2.38-1.95,3.46-.65,2.87,2.86,4.63,4.93.58-2,1-3.5,1.43-5s-.95-4,1.23-4.23,2.06,2.61,2.62,4.16c.49,1.34.28,2.94.32,4.43a32.66,32.66,0,0,0,1.7,9.2,3.6,3.6,0,0,0,3.5,2.36c1.32.06,1.51-1,1.6-2,.43-5.25,1.84-10.47.72-15.79,0-1.86,0-3.72,0-5.57a11.21,11.21,0,0,0-1.13-8c-1.57-2.42,0-6.79-4.34-7.43-.48-3.63-.2-7.53-3.73-10,2.6-2.11,5.37-2.11,6,1.37.74,4.19,3.15,5.24,6.63,5.59-.23,6-.29,12,1,17.76,1.8,7.88-1.36,17,5.88,23.58,2.53,2.29,4.76,4.62,8.54,4.93,4.69.39,9.36-.36,14.13.68,3.09.68,6.56,1.61,9.78,1.05,8.48-1.5,16.93.38,25.41-.27,5.93-.46,11.94.22,17.9-.07,6.22-.3,12.41-1.67,18.6.19,1.63.49,3.27.15,4.93.08,4.35-.16,8.71-1.39,13.08-.07a5.81,5.81,0,0,0,5.55-1.18c3.82-2.87,9.27-2.84,12.21-.76,5,3.51,10,2.88,15.16,3.21,5.39.35,10.82.15,16.21.58,7.95.63,15.87,1.71,23.82,2.4,3.47.3,7-.33,10.46.2,14.18,2.16,28.43,1.72,42.68,1.8,2,0,3.83-.17,4.05-2.62.31-3.34,2.63-3.35,5.06-3.3,0,.3,0,.6.05.9-.65,4.41.61,6.74,5.65,5.71,1.69-.34,3.57.25,5.36.41l-.63,2.09C710.83,526.67,710.82,527.09,710.81,527.52Z" transform="translate(-383.63 -460.55)"/><path class="cls-2" d="M710.29,655c-1.53,0-2-1-1.91-2.34.15-3.69-.8-6.87-3.9-9.2a3.26,3.26,0,0,1-.91-4.11c1.89-3.29.71-6.35-.05-9.52-1.06-4.39-1.41-8.54.23-13.13,1.06-3-.08-6.81-.6-10.21-.28-1.77-2-1.69-3.13-.79a13.93,13.93,0,0,0-2.28,3c-1.81-.6-1.32-2-1.36-3-.09-2.38-1.33-3.23-3.16-1.89-5.53,4-11,.77-16.24-.3-4.67-1-9.25-1.22-13.9-1.74-10.07-1.11-20,.66-30.14-.44-6.6-.72-13.88-.59-20.54,2.83-2.35,1.21-6.16.49-9-.95s-5.53-1.9-8.29.23c-1.3,1-2.81.41-4.3.24-3.13-.37-6.26-2.39-9.46-.16-.33.23-1.21.25-1.36,0-3.29-4.64-8.06-.38-12.06-2-2.9-1.19-2.44,2.64-3.22,4.37-.43,1,.25,2.56-1.31,2.88s-1.64-1.28-2-2.26c-.69-1.77-1.83-2.7-3.8-2.43s-3.62,1.42-3.75,3.4c-.29,4.63-2.08,4.42-5.7,2.76-5.88-2.7-11.93-3.81-17.78.81-1.49,1.17-4.52,3-3.87-2.08.44-3.39-3.64-3.8-5.59-5.41-1.35-1.11-4.6-.1-6.15,1.77-2.57,3.1-5.32,5-9.59,3.78-1.81-.5-4.09,0-4.92,1.66-1.7,3.33-3.16,3-5.27.54-1.51-1.72-3.7-2.05-5.87-2.25-4.62-.43-9.24-.87-13.85-1.36-.59-.07-1.61-.42-1.65-.75-.81-6.1-5.05-3.18-7.9-2.79-4.39.6-9.16,1-10.69,6.61-.44,1.62-1.17,3.12,1.38,3,3.44-.18,2.9,1.24,1,2.63-4.89,3.6-4.39,10.17-8.15,14.41-.92,1-.64,3,.19,4.29,1.75,2.72-.91,4.63-1.24,6.95-.51,3.46-3.54-.12-5.21,1,1.25-16.33-.76-32.66.08-49,2.52-.44,4.42.86,6.18,2.61a13.69,13.69,0,0,0,1.7-5.41c1.08-9.22,7.83-14.85,16.31-11.7,5.59,2.08,9.82,6.35,16.72,3.4,2.08-.88,6.17.27,8.52-1.11,4.91-2.91,6.77-1.58,7.12,4.25a7.33,7.33,0,0,1,5.48-5.39c7.56-1.51,15.11-3.68,23-2,2.71.58,5.83,1.5,8-.81,2-2.09,3.35-1.85,5.55-.55,2.63,1.55,5.63,3.88,8.12-.5.25-.45,1.51-.51,2.28-.43,6.81.67,13.6,2,20.42-.19a5.33,5.33,0,0,1,4.33.62c3.58,2.16,7.16,1.09,11,.38,4.38-.82,9.16-1.38,13.41-.45,3.15.69,5.61,1.17,8.33-.58a9.24,9.24,0,0,1,4.79-1.09c6.33-.26,12.46,1.56,18.87,1.34,5.64-.19,11.68-1.92,17.14,1.55.57.36,1.86-.39,2.8-.67,5.48-1.63,10.95-2.26,16.37.2a2.82,2.82,0,0,0,2.82.08c4.35-2.59,8.92-1.23,13.49-.93,3.23.22,6.29,2.06,10,0,1.57-.89,7-1.06,7.1,2.46.15,4.26,2.07,7.41,3.29,11.08,1.56,4.7,1.59-1.38,2.34-.1,1.65,5,2.91,9.78.55,15.32-1.78,4.18.57,9.1.7,13.73.15,5.4,2.65,10.69-1.86,15.94-1.56,1.81-1.56,6.42.35,9C710.75,647.59,710.5,651.21,710.29,655ZM694.21,592.4c-3.07,2.07-6.21,3.17-6.75,6.79-.15.95-.21,2.08.94,2.54s1.87-.35,2.25-1.3C691.64,597.9,694.28,596.15,694.21,592.4Z" transform="translate(-383.63 -460.55)"/><path class="cls-3" d="M433.58,899.76c3.31-1.71,5.32-.43,6.19,2.9.42,1.59.78,3,2.82,2.4,1.71-.53,1.63-2.16,1.18-3.31-1.13-2.89-.48-5.52.73-8.09,1-2.15-.35-3.81-.88-5.65a4.4,4.4,0,0,1,1.27.75c5.8,7.25,9.58,8.11,18.88,6a39.51,39.51,0,0,1,14.64-.74,51.1,51.1,0,0,0,16.69.26,87.7,87.7,0,0,1,18.77-.71c6.2.34,12.31,1.92,18.62.54a4,4,0,0,1,2.87.46c2.08,1.5,4.22,1,6.53,1.09,5.4.26,11.1-2.54,15.83-.75,9.26,3.51,18.68,2.55,28,3,12.68.58,25.4.15,38.11.15,5.65,0,11.3-.08,16.95,0,5.13.09,10.42-3.69,15.41.62.24.2,1-.08,1.42-.23a32.11,32.11,0,0,1,13.51-1.35c4.2.37,8.27-1.47,13.1-1.06,8.22.69,17.09,1.16,25.26-2.19,1.85,2.87.4,6.06.88,9.06.15.91-.31,2.18,1,2.47,1.5.34,1.81-.85,2.17-2,1-3.29,2.43-5.93,6.47-3.28-2.85,3-2.82,7.07-3.73,10.78l-1.75-2.32c-.21,2.2.13,4.66-2.37,5-3.25.44-6.52,2.07-9.74,1.22-6.73-1.78-13.67-1.8-20.39-1.53-11.66.48-23.47.81-34.84-.67-11-1.44-21.65,1.69-32.68.15-6.85-1-14.48-.22-21.73.35-4.9.38-9.89.06-14.3,3.29-2.56,1.87-5.92.62-7.8-1.26-3.4-3.4-8.71-3.92-11.58-3.49-6.35.95-11.8-1.89-17.85-1.71-15.7.48-31.29-2.1-47-2.67-12.11-.44-24.24,0-36.37-.24-3.74-.06-5.63,1.81-7.42,4.71-4.13,6.65-3.09,14.32-4.57,21.49-.29,1.37.07,2.7,1.86,2.93a4.89,4.89,0,0,1-1.07,3.77c-1.68.37-1.85,1.64-1.81,3l.27,10.32c-.2,2.62,1.37,5.08.71,7.75-3.15.33-6.25.52-6.72,4.84-.23,2.08-2.2,2.08-3.94,2.08-2,0-3-1.2-3.47-2.93-1.54-5.56-3.23-11.09-4.48-16.72a43.4,43.4,0,0,0-2.05-6.53c-1-2.61-2.15-2.74-5.11-2.51-11.25.89-22.59,1.18-33.81-.88-1.45-.27-2.62-.55-2.2-2.41,3.59-2.1,7.47-.61,11.19-.8,7-.33,7.61-1,5.86-7.85,1.25-.77,2.56-.35,3.86-.19.42,2.78-.73,6.46,2.72,7.78,6.43,2.46,10-.19,10.13-6.94a1.9,1.9,0,0,1,3,.27c.09,1.32.19,2.63.27,4s-.19,3,1.49,3.26,1.92-1.36,2.23-2.63c.21-.83.62-1.87,1.57-1.37,5.55,2.87,3-2.09,3.37-3.67.53-2.65-1.43-4.61-2.8-6.65.61-4.11,1.21-8.21,3.16-12,3.45.4,3.33,3.46,3.7,5.65,1.67,10,3.05,20,4.53,30,.16-2.8,3.88-3.59,3.66-7.16-.36-5.75.23-11.56-.49-17.33,1-3.46-.38-6.73-.72-10.09-.27-2.58-1.76-3.26-4-3.07l-.27-1.91-.63-1.2A9.13,9.13,0,0,0,433.58,899.76Z" transform="translate(-383.63 -460.55)"/><path class="cls-4" d="M446.88,856c-.07,2.45,0,4.8,3.3,5a1.73,1.73,0,0,1,1.67,2.08c-.42,3.61,1.92,4.84,4.72,5.12,4.72.47,9.28,2.16,14.12,1.69a3.31,3.31,0,0,0,3.18-2.59c1.24-3.7,3.73-4.14,7.4-3.4,6.37,1.27,12.8,1.13,19.38.79a35,35,0,0,0,11-2.11c2.93-1.1,3.91,1.73,5.19,3.52,3,4.14,2.93,4.16,5.31-.21a1.57,1.57,0,0,1,1.1-.75c1.24-.06,1.62,1,2,1.89.94,2,1.51,5.24,3.79.76.44-.87,1.45-.45,2.24-.15,7.44,2.83,15.32.86,23,1.8,6,.74,13.28,1.92,18.69-.17,5-1.93,9.13,1.2,13.38-.72a1.81,1.81,0,0,1,2.51.84c2.67,3.83,6.51,3.11,9.87,1.79a16,16,0,0,1,10.2-.87c3.69,1,5.08-.47,6.06-3.68a43.62,43.62,0,0,1,3-6.19c1.65,1.1,1.31,5.32,4.93,2.78,1-.67,2.35.63,2.43,1.86.21,3.67,2.08,3.45,5,3.06,4.73-.62,9.68-2.37,14.18,1.49,1.36,1.16,2.46-1.73,4.33-1.7,4.9.07,9.5-2.1,14.68-1.46,2.39.3,5.61-2.45,7.74-4.55,3.92-3.86,8-1.47,12-1,.81.11,1.58,1.3,2.54.4s.25-1.83,0-2.77a24.62,24.62,0,0,1-.92-3.86c-.31-2.46,2.62-4.59,3.13-4.16,3.37,2.87,5.79-.53,8.58-.83,1-.1,1.79-.6,2.87-.2,3.76,1.4,4.12,1.42,4.86-2.18.65-3.18,3-2.89,5-3.42,1.62,8.9.25,17.35-3.13,26,5.6,1.85,4.33,7.07,3.93,12-.52-1.2-1-2.41-1.57-3.6s.16-3-1.72-3.18c-1.62-.16-1.95,1.29-2.63,2.49-1.8,3.2-4.24,4.28-7.77,2.1-1.66-1-4-2.78-5.76-.44-2.57,3.37-4.14,2.18-5.38-1.14a12.94,12.94,0,0,1-6.23,3.65c-3.57,1.2-5.61-2.54-7.29-1.47-4,2.55-8.07-.66-11.75,1.09-4.64,2.21-10,1.1-14.55,3.28-2.66,1.29-4.92,1.66-7.52.48-3.2-1.45,2.21-3.32-.55-5a6.89,6.89,0,0,0-3.66,3.48c-.54,1-.79,2.29-2.3,2.21-5.93-.32-12.06,1.32-17.76-1a13.29,13.29,0,0,0-11.49.68,10.3,10.3,0,0,1-6.62,1.21c-4.6-.74-9.12-2.09-13,1.87a2.05,2.05,0,0,1-1.92.14c-4.7-2.56-10-1.29-14.91-2.24-7.16-1.37-14.59-3.24-21.68-2.55-7.52.73-14.94-.54-22.49.61a48.57,48.57,0,0,1-22.17-1.39,3.38,3.38,0,0,0-2.88.27c-3.72,2.19-7.76,1.27-11.7,1.21-3.33,0-7-1.11-9.92-.07-6.13,2.17-6.3,2.4-6.19-4.82-1.44,3.07-3.56,3.6-6.21,2.5-.92-.38-1.49.39-2.08,1-4.08,4.3-8.33,3.76-12.75.5-1.46-1.08-3.09-1.92-4.65-2.86a30,30,0,0,0,.63-19.82,20.51,20.51,0,0,1-.87-7.3L446.9,856Z" transform="translate(-383.63 -460.55)"/><path class="cls-2" d="M628.57,472.19l10-.1c0,3.31-.44,6,3.86,8.21,3.57,1.86,7.54,2.74,10.8,4.84,4.76,3.07,9.28,3.13,14.22,1.1,1-.4,1.9-.74,1.93-1.93.1-4.79,2.94-9.14,2.16-14.06l41.6-2.22q-.79,7-1.58,13.91a20.9,20.9,0,0,1-.3,3c-.48,2.07,1.42,5.1-1.67,6.06-2.55.8-4.84.06-7.12-2.15-1.86-1.8-5.73.63-5.72,2,0,6.41-5,5.85-8.66,7-1,.29-2.22-.52-3.35-.62-1.53-.15-3.22-.19-3.24,2,0,5.86-5.07,4-6.83,3.17-5.61-2.56-11.32-2.23-17.1-2.29-1.79,0-3.87.43-4.77-1.75-1.49-3.63-3.89-2.64-5.91-1-2.37,1.95-4.92,2.6-7.27,1s-5-3-6.92-5.44c-3.43-4.33-8.35-5.38-12.77-2.26-3.39,2.39-7.47-.63-10.44,2.25-1.8-2.49-6.55.48-7.4-4.08-.18-.95-1.7-.37-2.68-.16-3.77.83-7,.61-7.89-4.18-.23-1.29-1.09-2.39-2.32-2.21-4.25.62-8.17.4-11.41-2.9a1.48,1.48,0,0,0-1.36.16c-2,4.16-5.73,2.31-8.77,2.51-2.49.16-4.29.34-5.33,3.25s-3.91,4.16-6.94,3.69c-2.16-.34-4,.49-5.86.63-5,.38-10.19,3.43-15,.24-2.9-1.92-6.39-.71-9.22-2.56-1-.63-2,.24-2.64,1.52-2.09,4.12-5.53,5.59-10.18,5.37-6.41-.29-13-.77-19.24.17-8.78,1.32-10.24,1.34-14.3-5.66-1.14-1.95-2.86-2-3.33-.5-2,6.2-7.2,2.54-10.73,3.85-.85.32-5.81-5.55-5.54-6.42.13-.43.6-.75.91-1.13.49-.61,2.57-.08,1.52-1.65-.77-1.15-1.47-3.24-3-3-5.75.85-4.7-3.53-4.67-6.35,0-1.77.16-3.09-1.25-4.24,14.78,0,29.53.79,44.26,1.83,7.62.53,15.28.72,22.89.84,21.59.35,43.12,2.83,64.73,2.18,14.27-.43,28.52-1.24,42.79-1.88.1.12.23.35.3.33A4.46,4.46,0,0,0,628.57,472.19Z" transform="translate(-383.63 -460.55)"/><path class="cls-2" d="M542.6,957.21l-14.84.69a3.69,3.69,0,0,0-5,.13l-59.93,2.3c-3.47-2.18-6.77-1.94-9.92.66l-2.07-.11c0-4-.08-8,.06-12,0-1.5-1-4.14,2.5-3.29,1.35.33,1.22-1.21,1.73-2,1.46-2.18,1.42-4.72,1.61-7.12.24-3.17,1.34-3.95,4.45-3,6.92,2.11,13.39-1.84,20.28-2,5-.1,9.83-1.81,14.65,1.18,2.79,1.73,6.42,3.11,9.32,1.58,5.31-2.8,9.22-1.29,12.72,2.64,2.29,2.58,5.31,4.34,8.25,3.48,10.17-3,20.05.3,30,.56,1.25,0,2.84.42,3,1.41.9,6.1,5.56,6,10,6.35.49,0,1,.17,1.47.25.69.11,1.44.38,1.34,1.14a2.18,2.18,0,0,1-1.12,1.44c-1.18.51-4-1.3-3.18,1.86.66,2.6,2.81,0,4.23.52a4.26,4.26,0,0,0,2,0c4.13-.66,9.7,1.8,11-5.18.18-1,1.7-.77,2.68-.8,1.18,0,2.76,0,3.11-1.1,1.09-3.61,3.89-2.94,6.45-2.93a13.77,13.77,0,0,0,6.95-1.84c4-2.12,9.44,2,13.25-2.49a6.38,6.38,0,0,0,.78.54c6.45,2.6,12.23,3,17.62-2.92,2-2.21,6.52-4.12,9.31-2.49,6,3.51,11.64,1,17.45.69A27.24,27.24,0,0,1,672.81,937c2.49.83,1.29,3.09,1.76,4.7.24.83.61,1.62,1.48,1.83,1.47.36,1.78-1.25,2.68-1.72,2.46-1.29-1.94-3.78.69-4.3,2.08-.4,2.92,2.39,4.63,3.38,1.51.88,3.27-.7,3.39-.56,2.59,2.88,5.77,2.34,9,2.1,1-.07.85,1.59.92,2.57v0c-1.51,0-3,0-3.69,1.71a1.48,1.48,0,0,0,.72,2.06c1.61.69,2.8-.22,4-1.18,3.69-3,7.46-5.86,12.7-4.42q.25,3.47.49,6.93.58,5.68,1.19,11.36c-15.91-.65-31.83-1-47.7-2.1-8.28-.6-16.6-.88-24.83-1-24.56-.49-49-3.33-73.63-2.2-6,.28-11.92.68-17.88,1Zm-37.49-3.45,0,.19c2.15,0,4.31.06,6.46,0,1.25,0,2.83-1.2,1.63-2-2.09-1.37-3.26-4.38-5.46-4.62-6-.65-10.13-6-16.44-5.77-2.2.08-3.08-.09-5,1.86-2.13,2.22-.85,4.93-2.69,6.55-1.22,1.07-2.23,2.15-1.55,3.79.76,1.84,2.57,1.23,3.94,1.17C492.41,954.62,498.76,954.17,505.11,953.76Z" transform="translate(-383.63 -460.55)"/><path class="cls-5" d="M444.89,552.14c1.16,1.41,2,.44,2.85-.4,6.88-7.09,15.39-7.54,24.37-6,1.83.32,3.64.66,5.39,0,6.48-2.58,13.29-1.29,19.87-1.18,3.29.06,6.49-.31,9.73-.39,13.09-.3,26.14,1.4,39.17,1.32,4.89,0,10-.42,14.81.13,5.89.67,11.66-1.39,17.61.18,2.83.75,6.2-.23,9.28-.74,7.42-1.24,14.82-2,22,.81,2.88,1.11,4.48-1.93,7-1.7,8.19.73,16.6-1.76,24.61,1.78a4.47,4.47,0,0,0,3.42.1c7.09-3.81,14.13-.43,21.21-.3a54.24,54.24,0,0,0,11.31-.8,15.41,15.41,0,0,1,7.75.3c7.23,2.23,14.33,1.73,21.47-.26a4.28,4.28,0,0,1,1.48.16c.11,3.48.37,6.9,1.94,10.13,2.16,4.45-1.5,8.59-.86,13-.55,1.7-.72,4.47-2.7,4.22-2.31-.3-1-3-1.17-4.66-.24-2.55-1-4.76-3.64-5.34a32,32,0,0,0-16.58.44c-4.33,1.38-8.57,1.82-12.67.59-6-1.78-12.28-1.53-17.86-.85s-10.76-.17-16,.56c-6.82.95-13.67-.05-20.4,0-5.68,0-11.43,2.74-17.72-.25-5-2.34-11.33.46-17.4-.44-10.15-1.51-20.7.59-31-1.27-.58-.11-1.62.06-1.82.43-2.44,4.58-3.8.24-4.63-.88-1.77-2.37-3.91-3.06-5.88-1.32-3.15,2.79-6.9,1.29-9.7.91-8.16-1.12-16.17-2.72-24.25,0-1.76.58-3.12.15-4.73-.39-3.59-1.22-7.95-2.32-11-1-9.38,3.91-18.7-.5-28.05.62-2.56.31-5.05.27-7.16,1.7-3.59,2.42-6.37,5.76-9.17,9C442.05,565,441.6,555.58,444.89,552.14Z" transform="translate(-383.63 -460.55)"/><path class="cls-4" d="M445.74,570.25c2.8-3.28,5.58-6.62,9.17-9,2.11-1.43,4.6-1.39,7.16-1.7,9.35-1.12,18.67,3.29,28.05-.62,3.08-1.29,7.44-.19,11,1,1.61.54,3,1,4.73.39,8.08-2.68,16.09-1.08,24.25,0,2.8.38,6.55,1.88,9.7-.91,2-1.74,4.11-1.05,5.88,1.32.83,1.12,2.19,5.46,4.63.88.2-.37,1.24-.54,1.82-.43,10.32,1.86,20.87-.24,31,1.27,6.07.9,12.44-1.9,17.4.44,6.29,3,12,.28,17.72.25,6.73,0,13.58,1,20.4,0,5.26-.73,10.57.1,16-.56s11.91-.93,17.86.85c4.1,1.23,8.34.79,12.67-.59a32,32,0,0,1,16.58-.44c2.64.58,3.4,2.79,3.64,5.34.15,1.63-1.14,4.36,1.17,4.66,2,.25,2.15-2.52,2.7-4.22,1.23,2.39,1.43,4.66-.74,6.68a4.61,4.61,0,0,0-1,5c1.12,3.37.84,6.75.87,10.16-.75-1.28-.78,4.8-2.34.1-1.22-3.67-3.14-6.82-3.29-11.08-.12-3.52-5.53-3.35-7.1-2.46-3.66,2.08-6.72.24-10,0-4.57-.3-9.14-1.66-13.49.93a2.82,2.82,0,0,1-2.82-.08c-5.42-2.46-10.89-1.83-16.37-.2-.94.28-2.23,1-2.8.67-5.46-3.47-11.5-1.74-17.14-1.55-6.41.22-12.54-1.6-18.87-1.34a9.24,9.24,0,0,0-4.79,1.09c-2.72,1.75-5.18,1.27-8.33.58-4.25-.93-9-.37-13.41.45-3.81.71-7.39,1.78-11-.38a5.33,5.33,0,0,0-4.33-.62c-6.82,2.19-13.61.86-20.42.19-.77-.08-2,0-2.28.43-2.49,4.38-5.49,2-8.12.5-2.2-1.3-3.58-1.54-5.55.55-2.18,2.31-5.3,1.39-8,.81-7.88-1.69-15.43.48-23,2a7.33,7.33,0,0,0-5.48,5.39c-.35-5.83-2.21-7.16-7.12-4.25-2.35,1.38-6.44.23-8.52,1.11-6.9,2.95-11.13-1.32-16.72-3.4-8.48-3.15-15.23,2.48-16.31,11.7a13.69,13.69,0,0,1-1.7,5.41c-1.76-1.75-3.66-3-6.18-2.61.18-4.37,2.06-8.38,2.41-12.84C445.76,577.53,446.78,574,445.74,570.25Z" transform="translate(-383.63 -460.55)"/><path class="cls-4" d="M697.41,945c-.07-1,0-2.64-.92-2.57-3.28.24-6.46.78-9-2.1-.12-.14-1.88,1.44-3.39.56-1.71-1-2.55-3.78-4.63-3.38-2.63.52,1.77,3-.69,4.3-.9.47-1.21,2.08-2.68,1.72-.87-.21-1.24-1-1.48-1.83-.47-1.61.73-3.87-1.76-4.7a27.24,27.24,0,0,0-10.12-1.54c-5.81.29-11.47,2.82-17.45-.69-2.79-1.63-7.32.28-9.31,2.49-5.39,6-11.17,5.52-17.62,2.92a6.38,6.38,0,0,1-.78-.54c-3.81,4.52-9.3.37-13.25,2.49a13.77,13.77,0,0,1-6.95,1.84c-2.56,0-5.36-.68-6.45,2.93-.35,1.15-1.93,1.07-3.11,1.1-1,0-2.5-.18-2.68.8-1.26,7-6.83,4.52-11,5.18a4.26,4.26,0,0,1-2,0c-1.42-.5-3.57,2.08-4.23-.52-.8-3.16,2-1.35,3.18-1.86a2.18,2.18,0,0,0,1.12-1.44c.1-.76-.65-1-1.34-1.14-.49-.08-1-.2-1.47-.25-4.4-.4-9.06-.25-10-6.35-.15-1-1.74-1.38-3-1.41-10-.26-19.87-3.55-30-.56-2.94.86-6-.9-8.25-3.48-3.5-3.93-7.41-5.44-12.72-2.64-2.9,1.53-6.53.15-9.32-1.58-4.82-3-9.63-1.28-14.65-1.18-6.89.13-13.36,4.08-20.28,2-3.11-.95-4.21-.17-4.45,3-.19,2.4-.15,4.94-1.61,7.12-.51.76-.38,2.3-1.73,2-3.52-.85-2.45,1.79-2.5,3.29-.14,4-.06,8-.06,12l-5,.08c.66-2.67-.91-5.13-.72-7.75,1.87-.57,1.77-2.1,1.75-3.58-.06-3.26-.13-6.51-.2-9.77a4.89,4.89,0,0,0,1.07-3.77c2.26-4.27-.28-10.16,8.46-12.15,8.07-1.84,16.14-.63,24-2.81,4.23-1.17,8.5,4,13.19,1,7.57,3.52,15.85,2,23.67,2.47,10.29.56,20.69,1.49,31,1.18,11.62-.35,22.27,5.3,33.94,4,4-.43,7.83-1.71,11.9-2.09,7.23-.67,14.71,1.09,21.8-2.35,2.61-1.26,6.33-1,9.29.15,1.9.71,3.84.52,5.43,1,3.8,1.06,6.58-1.77,10-1.45,6.39.59,12.52-.77,18.55-2.68a38.29,38.29,0,0,1,15.76-1.16c4.05.44,8.43,1.24,7.93,7.51-.3,3.71,2.62,5.15,6.14,2.94,3.18-2,6.35-1.41,9.59-1.56l11.12-.93c.55-.33,1.3-.52,1.64-1a26.56,26.56,0,0,0,5.17-17.27c.91-3.71.88-7.74,3.73-10.78,3.31,2.16,2.67,5.81,3.37,9-1.84-.16-2.6.94-3.1,2.51-1,3.13-2.43,6.24-1.89,9.59,1,5.77-4.73,10-3.36,15.86,0,.19-.37.68-.59.69-3.83.21-2.79,3.32-3.31,5.49-5.24-1.44-9,1.38-12.7,4.42-1.17,1-2.36,1.87-4,1.18a1.48,1.48,0,0,1-.72-2.06c.67-1.72,2.18-1.75,3.69-1.71l.39.23Z" transform="translate(-383.63 -460.55)"/><path class="cls-4" d="M452.86,469.23c1.41,1.15,1.27,2.47,1.25,4.24,0,2.82-1.08,7.2,4.67,6.35,1.51-.22,2.21,1.87,3,3,1.05,1.57-1,1-1.52,1.65-.31.38-.78.7-.91,1.13-.27.87,4.69,6.74,5.54,6.42,3.53-1.31,8.75,2.35,10.73-3.85.47-1.49,2.19-1.45,3.33.5,4.06,7,5.52,7,14.3,5.66,6.29-.94,12.83-.46,19.24-.17,4.65.22,8.09-1.25,10.18-5.37.66-1.28,1.67-2.15,2.64-1.52,2.83,1.85,6.32.64,9.22,2.56,4.83,3.19,10,.14,15-.24,1.83-.14,3.7-1,5.86-.63,3,.47,5.91-.78,6.94-3.69s2.84-3.09,5.33-3.25c3-.2,6.78,1.65,8.77-2.51a1.48,1.48,0,0,1,1.36-.16c3.24,3.3,7.16,3.52,11.41,2.9,1.23-.18,2.09.92,2.32,2.21.84,4.79,4.12,5,7.89,4.18,1-.21,2.5-.79,2.68.16.85,4.56,5.6,1.59,7.4,4.08,3-2.88,7,.14,10.44-2.25,4.42-3.12,9.34-2.07,12.77,2.26,1.93,2.44,4.53,3.81,6.92,5.44s4.9,1,7.27-1c2-1.67,4.42-2.66,5.91,1,.9,2.18,3,1.73,4.77,1.75,5.78.06,11.49-.27,17.1,2.29,1.76.8,6.79,2.69,6.83-3.17,0-2.2,1.71-2.16,3.24-2,1.13.1,2.38.91,3.35.62,3.71-1.13,8.67-.57,8.66-7,0-1.38,3.86-3.81,5.72-2,2.28,2.21,4.57,2.95,7.12,2.15,3.09-1,1.19-4,1.67-6.06a20.9,20.9,0,0,0,.3-3c2.33.51,2.39-1,2.93-2.73,1.88-6,2-12.56,5.1-18.24,3.28,2.29,3.26,5.87,3.64,9.29-1.84.82-2.38,2.41-3.06,4.21-2.39,6.37-1.07,13.21-2.79,19.63-2.14.15-1.92,1.75-2,3.21-.09,1.23.46,2.92-1,3.46-3.92,1.42-3.2,4.24-2.46,7.16q0,4.43,0,8.87c-3.94-.75-7.67.42-11.44,1.24,0-.3,0-.6-.05-.9a41.36,41.36,0,0,1,.59-6.9c.58-2.32.18-4.39-1.93-4.82a4.3,4.3,0,0,0-5.17,2.85,19.63,19.63,0,0,0-.51,4.92c0,1.73-.76,3.51-2.48,2.8-5.28-2.18-10.41-1-15.62-.1-.28.05-.61-.22-.93-.31a11.17,11.17,0,0,0-7.35-.07c-3.83,1.56-7-2.51-10.86-.8-.59.27-1.74-1.1-.93-2.2,1.94-2.67,0-3.13-1.92-3.4-6.69-.92-13.25-2.42-19.85-3.84-2.91-.62-5.5-3.56-8.9-1.61-5.44,3.1-11.29,1.64-16.42,0a40.26,40.26,0,0,0-10.54-1.49c-4.56-.25-9-.09-13.6-1.59-2.73-.89-4.6-3.82-8-3.15a153,153,0,0,0-16.11,4.05c-3.21,1-6.53,1.41-9.63-.3-1.48-.81-2.26-.57-3.85.2-3.87,1.89-7.81,4.27-12.66,2.07-2.13-1-5-.74-7.21-1.45-7-2.23-12.12,6.6-19.14,2.85-9.21,3-18.83.95-28.2,2.2-1.71.23-3.74-1.21-5.31-.76-5.3,1.5-7.28.55-5.32-5.29.87-2.59-1-3.23-3.2-2.42-1.07.39-1.94,1.28-3,1.75-1.9.84-7.7-1.45-7.08-2.45,1.66-2.68-1.36-3.51-1.43-4.26-.38-3.88-5.07-5.13-4.91-8.76.23-5.34-1.7-10.51-1-15.85Z" transform="translate(-383.63 -460.55)"/><path class="cls-5" d="M448,469c-.69,5.34,1.24,10.51,1,15.85-.16,3.63,4.53,4.88,4.91,8.76.07.75,3.09,1.58,1.43,4.26-.62,1,5.18,3.29,7.08,2.45,1.05-.47,1.92-1.36,3-1.75,2.19-.81,4.07-.17,3.2,2.42-2,5.84,0,6.79,5.32,5.29,1.57-.45,3.6,1,5.31.76,9.37-1.25,19,.83,28.2-2.2,7,3.75,12.14-5.08,19.14-2.85,2.22.71,5.08.48,7.21,1.45,4.85,2.2,8.79-.18,12.66-2.07,1.59-.77,2.37-1,3.85-.2,3.1,1.71,6.42,1.31,9.63.3A153,153,0,0,1,576,497.44c3.38-.67,5.25,2.26,8,3.15,4.61,1.5,9,1.34,13.6,1.59a40.26,40.26,0,0,1,10.54,1.49c5.13,1.63,11,3.09,16.42,0,3.4-2,6,1,8.9,1.61,6.6,1.42,13.16,2.92,19.85,3.84,1.94.27,3.86.73,1.92,3.4-.81,1.1.34,2.47.93,2.2,3.81-1.71,7,2.36,10.86.8a11.17,11.17,0,0,1,7.35.07c.32.09.65.36.93.31,5.21-.95,10.34-2.08,15.62.1,1.72.71,2.43-1.07,2.48-2.8a19.63,19.63,0,0,1,.51-4.92,4.3,4.3,0,0,1,5.17-2.85c2.11.43,2.51,2.5,1.93,4.82a41.36,41.36,0,0,0-.59,6.9c-2.43,0-4.75,0-5.06,3.3-.22,2.45-2.08,2.63-4.05,2.62-14.25-.08-28.5.36-42.68-1.8-3.42-.53-7,.1-10.46-.2-7.95-.69-15.87-1.77-23.82-2.4-5.39-.43-10.82-.23-16.21-.58-5.15-.33-10.18.3-15.16-3.21-2.94-2.08-8.39-2.11-12.21.76a5.81,5.81,0,0,1-5.55,1.18c-4.37-1.32-8.73-.09-13.08.07-1.66.07-3.3.41-4.93-.08-6.19-1.86-12.38-.49-18.6-.19-6,.29-12-.39-17.9.07-8.48.65-16.93-1.23-25.41.27-3.22.56-6.69-.37-9.78-1.05-4.77-1-9.44-.29-14.13-.68-3.78-.31-6-2.64-8.54-4.93-7.24-6.57-4.08-15.7-5.88-23.58-1.32-5.76-1.26-11.8-1-17.76Z" transform="translate(-383.63 -460.55)"/><path class="cls-5" d="M443.08,881.08c1.56.94,3.19,1.78,4.65,2.86,4.42,3.26,8.67,3.8,12.75-.5.59-.61,1.16-1.38,2.08-1,2.65,1.1,4.77.57,6.21-2.5-.11,7.22.06,7,6.19,4.82,2.93-1,6.59,0,9.92.07,3.94.06,8,1,11.7-1.21a3.38,3.38,0,0,1,2.88-.27,48.57,48.57,0,0,0,22.17,1.39c7.55-1.15,15,.12,22.49-.61,7.09-.69,14.52,1.18,21.68,2.55,5,1,10.21-.32,14.91,2.24a2.05,2.05,0,0,0,1.92-.14c3.91-4,8.43-2.61,13-1.87a10.3,10.3,0,0,0,6.62-1.21,13.29,13.29,0,0,1,11.49-.68c5.7,2.27,11.83.63,17.76,1,1.51.08,1.76-1.16,2.3-2.21a6.89,6.89,0,0,1,3.66-3.48c2.76,1.65-2.65,3.52.55,5,2.6,1.18,4.86.81,7.52-.48,4.51-2.18,9.91-1.07,14.55-3.28,3.68-1.75,7.76,1.46,11.75-1.09,1.68-1.07,3.72,2.67,7.29,1.47a12.94,12.94,0,0,0,6.23-3.65c1.24,3.32,2.81,4.51,5.38,1.14,1.79-2.34,4.1-.58,5.76.44,3.53,2.18,6,1.1,7.77-2.1.68-1.2,1-2.65,2.63-2.49,1.88.18,1.23,2.06,1.72,3.18s1.05,2.4,1.57,3.6a8.82,8.82,0,0,1-1.33,6.65c-1.1,1.8-1.12,3.65.63,5.19-8.18,3.35-17,2.88-25.27,2.19-4.83-.41-8.9,1.43-13.1,1.06a32.11,32.11,0,0,0-13.51,1.35c-.46.15-1.18.43-1.42.23-5-4.31-10.28-.53-15.41-.62-5.65-.1-11.3,0-16.95,0-12.71,0-25.43.43-38.11-.15-9.34-.42-18.76.54-28-3-4.73-1.79-10.43,1-15.83.75-2.31-.11-4.45.41-6.53-1.09a4,4,0,0,0-2.87-.46c-6.31,1.38-12.42-.2-18.62-.54a87.7,87.7,0,0,0-18.77.71,51.1,51.1,0,0,1-16.69-.26,39.51,39.51,0,0,0-14.64.74c-9.3,2.12-13.08,1.26-18.88-6a4.4,4.4,0,0,0-1.27-.75C441.65,885.84,442.26,883.46,443.08,881.08Z" transform="translate(-383.63 -460.55)"/><path class="cls-3" d="M717.38,494.1c1.72-6.42.4-13.26,2.79-19.63.68-1.8,1.22-3.39,3.06-4.21a27.88,27.88,0,0,1,3.12,13.85c-3.49,2.87-4.18,7.73-1.81,13.79.9-2.2,2.3-3.31,4.6-2.62a6.94,6.94,0,0,1,.15.93c.09,1,.42,1.92,1.64,1.84S732.3,497,732.2,496c.07-1.94.15-3.87.22-5.8a2,2,0,0,1,2.79-.74c1.27,2.63-1.9,6.41,2.14,8.33a2.1,2.1,0,0,0,2,1.24l25.56,0a2.17,2.17,0,0,0,2.5-1.84c1.27-.13,1.51.82,1.82,1.71-7,2.7-14.27,2.59-21.49,2.42-5.37-.13-10.82,0-16.14-1.19-2.09-.49-2.65,1.26-2.89,2.6-1.24,7-4,13.6-5.93,20.42-.68,2.39-.31,5.45-3.91,6.13-3.9.73-4.63-2.09-5.69-4.69-.11-.26-.48-.4-.74-.6-.16-2.4-.33-4.81-.49-7.22q0-4.44,0-8.87c1.92.84,2.74,2.85,4.14,4.12C718,506.1,719.76,500.24,717.38,494.1Z" transform="translate(-383.63 -460.55)"/><path class="cls-3" d="M712.8,961.44q-.6-5.67-1.19-11.36c1.79-.42,2.84.45,3.41,2,.63,1.74,1.39,4.07,3.51,3.09,1.76-.81-.06-2.93-.08-4.47-.08-6.11,0-12.22,0-18.33l1.61-.5,4.74,5.92c.76-2.45,1.59-4,3.81-4.09a2,2,0,0,0,1.67,1.38c.32.51.63,1.43,1,1.44,1.18.05,1-.95.93-1.74q.21-3.21.4-6.43a1.81,1.81,0,0,1,2.91-.52c-.61,4.59-.24,8.37,6,7.45.44-.06.94.28,1.42.4,3.12.75,4.73-.79,5.21-3.67a42.67,42.67,0,0,0,.27-4.94c1.2,1.44,2.54-.92,3.76.13-2,7.25-1,8.66,6.33,8.7,3.63,0,7.31.49,10.83-.93.57,2.43-.7,3.33-2.87,3.47-7.09.46-14.17,2.31-21.24,1.18-4.56-.74-9.21.52-13.67-1.21-2.12-.83-2.45,1.39-2.82,2.59-2,6.6-3.73,13.27-5.74,19.86-.83,2.76-.22,6.65-4.78,7C713.34,968.19,714.21,963.89,712.8,961.44Z" transform="translate(-383.63 -460.55)"/><path class="cls-1" d="M671.54,470.25c.78,4.92-2.06,9.27-2.16,14.06,0,1.19-1,1.53-1.93,1.93-4.94,2-9.46,2-14.22-1.1-3.26-2.1-7.23-3-10.8-4.84-4.3-2.25-3.86-4.9-3.86-8.21a11.11,11.11,0,0,1,2.82-.85C651.44,470.86,661.49,470.57,671.54,470.25Z" transform="translate(-383.63 -460.55)"/><path class="cls-5" d="M728.58,933.73c-2.22.08-3.05,1.64-3.81,4.09L720,931.9l-1.61.5c0,6.11,0,12.22,0,18.33,0,1.54,1.84,3.66.08,4.47-2.12,1-2.88-1.35-3.51-3.09-.57-1.58-1.62-2.45-3.41-2q-.24-3.47-.49-6.93c.52-2.17-.52-5.28,3.31-5.49.22,0,.63-.5.59-.69-1.37-5.81,4.31-10.09,3.36-15.86-.54-3.35.9-6.46,1.89-9.59.5-1.57,1.26-2.67,3.1-2.51,3.37,5.88,3,12.94,6,18.94C729.13,929.88,728.85,931.81,728.58,933.73Z" transform="translate(-383.63 -460.55)"/><path class="cls-5" d="M442.51,493c1.12,5.32-.29,10.54-.72,15.79-.09,1-.28,2.1-1.6,2a3.6,3.6,0,0,1-3.5-2.36,32.66,32.66,0,0,1-1.7-9.2c0-1.49.17-3.09-.32-4.43-.56-1.55-.29-4.41-2.62-4.16s-.83,2.76-1.23,4.23-.85,3-1.43,5c-1.76-2.07-1.17-5.58-4.63-4.93-.28-1.63-.57-3.25-.86-4.88,3.66-6.13,3-13.61,6.27-19.87,3,.4,3.56,2.82,3.79,5.1.78,7.85,3.87,15.29,4,23.23,0,1,.07,2.16,1.34,2.31s2.11-.74,2.37-2C442.08,496.9,441.34,494.81,442.51,493Z" transform="translate(-383.63 -460.55)"/><path class="cls-2" d="M708.31,712c-1.74.1-3,1.24-4.56,2.3-1-6.28-4.44-11.83-4.32-18.26l0,0c2.11-.26,2.26-1.64,1.66-3.22-.44-1.16-2.9-2.27-.54-3.42,2.15-1,1.28,2.14,2.78,2.73a41.39,41.39,0,0,1,2.09-13c4.26,2.36,5.65,5.76,4.21,10.26-.15.46-.52,1.1-.35,1.39C713.6,698.11,708.29,704.94,708.31,712Z" transform="translate(-383.63 -460.55)"/><path class="cls-4" d="M769.19,498.93c-.31-.89-.55-1.84-1.82-1.71-2.47-.06-4.94-.15-7.42-.16-7.79,0-7.79,0-9.1-7.13-1.31,1.54-.05,3.58-1.2,5.42-.19-2-.35-3.76-.52-5.52.33,7.16-4,7.84-9.5,7.26a6.4,6.4,0,0,0-2.28.69c-4-1.92-.87-5.7-2.14-8.33a102.53,102.53,0,0,1,28.48.29C770.14,490.74,771.12,492.17,769.19,498.93Z" transform="translate(-383.63 -460.55)"/><path class="cls-4" d="M436.53,905.2l.27,1.91a20.12,20.12,0,0,0,4.74,13.16c.72,5.77.13,11.58.49,17.33.22,3.57-3.5,4.36-3.66,7.16-1.48-10-2.86-20-4.53-30-.37-2.19-.25-5.25-3.7-5.65.65-3.3.26-7,3.44-9.34A9.13,9.13,0,0,1,435.9,904Z" transform="translate(-383.63 -460.55)"/><path class="cls-4" d="M442.51,493c-1.17,1.81-.43,3.9-.82,5.83-.26,1.29-1,2.18-2.37,2s-1.32-1.3-1.34-2.31c-.15-7.94-3.24-15.38-4-23.23-.23-2.28-.79-4.7-3.79-5.1.86-2.82.13-6.25,3.16-8.23,3.53,2.49,3.25,6.39,3.73,10,.29,2.43.1,5.07,1,7.26,1.17,2.82-.81,7.57,4.46,8.16C442.52,489.28,442.52,491.14,442.51,493Z" transform="translate(-383.63 -460.55)"/><path class="cls-4" d="M769.28,935c-3.52,1.42-7.2,1-10.83.93-7.3,0-8.3-1.45-6.33-8.7,4.79.36,9.6.52,14.36,1.14C770.81,928.92,770.45,931.89,769.28,935Z" transform="translate(-383.63 -460.55)"/><path class="cls-4" d="M401,489.17c2,6.77,1.17,8-5.57,8l-11.35,0c-1-6.07-.65-6.46,5.05-7.15C393.12,489.52,397,488.76,401,489.17Z" transform="translate(-383.63 -460.55)"/><path class="cls-4" d="M401.14,927.25c1.75,6.9,1.12,7.52-5.86,7.85-3.72.19-7.6-1.3-11.19.8-1.14-6.53-.5-7.41,5.69-7.83C393.57,927.81,397.36,927.52,401.14,927.25Z" transform="translate(-383.63 -460.55)"/><path class="cls-4" d="M748.36,927.1a42.67,42.67,0,0,1-.27,4.94c-.48,2.88-2.09,4.42-5.21,3.67-.48-.12-1-.46-1.42-.4-6.24.92-6.61-2.86-6-7.45Z" transform="translate(-383.63 -460.55)"/><path class="cls-4" d="M418,489.34c-.07,1.49-.22,3-.18,4.48.05,2.33-1.1,3.11-3.32,3.34-7.79.8-8.38.34-9.64-8.68Z" transform="translate(-383.63 -460.55)"/><path class="cls-4" d="M417.85,927.9c-.1,6.75-3.7,9.4-10.13,6.94-3.45-1.32-2.3-5-2.72-7.78Z" transform="translate(-383.63 -460.55)"/><path class="cls-5" d="M711.91,516.8c.16,2.41.33,4.82.49,7.23a.88.88,0,0,1-.92.13c-1.79-.16-3.67-.75-5.36-.41-5,1-6.3-1.3-5.65-5.71C704.24,517.22,708,516.05,711.91,516.8Z" transform="translate(-383.63 -460.55)"/><path class="cls-4" d="M427,921.06c1.37,2,3.33,4,2.8,6.65-.32,1.58,2.18,6.54-3.37,3.67-1-.5-1.36.54-1.57,1.37-.31,1.27-.41,3-2.23,2.63s-1.4-2-1.49-3.26-.18-2.63-.27-4c2.12.59,3.26-.37,4-2.31C425.43,924.21,426.25,922.65,427,921.06Z" transform="translate(-383.63 -460.55)"/><path class="cls-3" d="M719.59,461c-3.1,5.68-3.22,12.21-5.1,18.24-.54,1.75-.6,3.24-2.93,2.73q.8-6.94,1.58-13.91C714.38,464.84,713.34,459.56,719.59,461Z" transform="translate(-383.63 -460.55)"/><path class="cls-5" d="M729.14,495.28c-2.3-.69-3.7.42-4.6,2.62-2.37-6.06-1.68-10.92,1.81-13.79,2,1.43,2.4,3.75,3.12,5.88Z" transform="translate(-383.63 -460.55)"/><path class="cls-4" d="M728.58,933.73c.27-1.92.55-3.85.82-5.78l3.15.43-.39,6.44-1.91.29A2,2,0,0,1,728.58,933.73Z" transform="translate(-383.63 -460.55)"/><path class="cls-4" d="M423.9,490.09c.29,1.63.58,3.25.86,4.88-.38,1.15-.95,2.2-2.38,1.95-1.27-.22-1.18-1.38-1.24-2.34-.1-1.47-.15-2.94-.21-4.41Z" transform="translate(-383.63 -460.55)"/><path class="cls-4" d="M729.14,495.28l.33-5.29,2.95.2c-.07,1.93-.15,3.86-.22,5.8l-2.91.22A6.94,6.94,0,0,0,729.14,495.28Z" transform="translate(-383.63 -460.55)"/><path class="cls-1" d="M452.92,961c3.15-2.6,6.45-2.84,9.92-.66C459.6,961.59,456.23,960.81,452.92,961Z" transform="translate(-383.63 -460.55)"/><path class="cls-2" d="M444.54,650.25c.45-1.33,1.14-2.32,2.78-2.09.76.1,1.34.59,1.14,1.23a3.67,3.67,0,0,1-3.63,2.69C444.74,651.47,444.64,650.86,444.54,650.25Z" transform="translate(-383.63 -460.55)"/><path class="cls-1" d="M542.6,957.21l6.16-.09A6,6,0,0,1,542.6,957.21Z" transform="translate(-383.63 -460.55)"/><path class="cls-1" d="M522.77,958a3.69,3.69,0,0,1,5-.13Z" transform="translate(-383.63 -460.55)"/><path class="cls-5" d="M710.81,527.52c0-.43,0-.85,0-1.27C710.83,526.67,710.82,527.09,710.81,527.52Z" transform="translate(-383.63 -460.55)"/><path class="cls-1" d="M628.57,472.19a4.46,4.46,0,0,1-.74.34c-.07,0-.2-.21-.3-.33Z" transform="translate(-383.63 -460.55)"/><path class="cls-2" d="M676.88,659.12c.57,1.89,3.8,2.33,2.76,5a1.78,1.78,0,0,1-1.68.5C675.7,663.33,676.81,661.13,676.88,659.12Z" transform="translate(-383.63 -460.55)"/><path class="cls-2" d="M473.18,711.25l8.05-3.29C479.21,711.81,477.26,712.57,473.18,711.25Z" transform="translate(-383.63 -460.55)"/><path class="cls-2" d="M699.43,696.05c-.73-.11-1.58-.07-1.52-1.18a.45.45,0,0,1,.3-.31c1.11-.06,1.06.81,1.19,1.53Z" transform="translate(-383.63 -460.55)"/><path class="cls-4" d="M446.9,856a1.17,1.17,0,0,1,.15-.34c0-.06.16-.05.25-.08l-.42.4Z" transform="translate(-383.63 -460.55)"/><path class="cls-5" d="M442.53,487.43c-5.27-.59-3.29-5.34-4.46-8.16-.91-2.19-.72-4.83-1-7.26,4.32.64,2.77,5,4.34,7.43A11.21,11.21,0,0,1,442.53,487.43Z" transform="translate(-383.63 -460.55)"/><path class="cls-4" d="M694.21,592.4c.07,3.75-2.57,5.5-3.56,8-.38,1-1,1.78-2.25,1.3s-1.09-1.59-.94-2.54C688,595.57,691.14,594.47,694.21,592.4Z" transform="translate(-383.63 -460.55)"/><path class="cls-5" d="M716.27,910.84a26.56,26.56,0,0,1-5.17,17.27c-.34.49-1.09.68-1.64,1l-11.12.93c-3.24.15-6.41-.44-9.59,1.56-3.52,2.21-6.44.77-6.14-2.94.5-6.27-3.88-7.07-7.93-7.51a38.29,38.29,0,0,0-15.76,1.16c-6,1.91-12.16,3.27-18.55,2.68-3.39-.32-6.17,2.51-10,1.45-1.59-.44-3.53-.25-5.43-1-3-1.11-6.68-1.41-9.29-.15-7.09,3.44-14.57,1.68-21.8,2.35-4.07.38-7.88,1.66-11.9,2.09-11.67,1.25-22.32-4.4-33.94-4-10.28.31-20.68-.62-31-1.18-7.82-.43-16.1,1.05-23.67-2.47-4.69,3-9-2.12-13.19-1-7.84,2.18-15.91,1-24,2.81-8.74,2-6.2,7.88-8.46,12.15-1.79-.23-2.15-1.56-1.86-2.93,1.48-7.17.44-14.84,4.57-21.49,1.79-2.9,3.68-4.77,7.42-4.71,12.13.2,24.26-.2,36.37.24,15.68.57,31.27,3.15,47,2.67,6-.18,11.5,2.66,17.85,1.71,2.87-.43,8.18.09,11.58,3.49,1.88,1.88,5.24,3.13,7.8,1.26,4.41-3.23,9.4-2.91,14.3-3.29,7.25-.57,14.88-1.31,21.73-.35,11,1.54,21.64-1.59,32.68-.15,11.37,1.48,23.18,1.15,34.84.67,6.72-.27,13.66-.25,20.39,1.53,3.22.85,6.49-.78,9.74-1.22,2.5-.34,2.16-2.8,2.37-5Z" transform="translate(-383.63 -460.55)"/><path class="cls-5" d="M441.54,920.27a20.12,20.12,0,0,1-4.74-13.16c2.26-.19,3.75.49,4,3.07C441.16,913.54,442.53,916.81,441.54,920.27Z" transform="translate(-383.63 -460.55)"/><path class="cls-5" d="M446.7,939.86c.07,3.26.14,6.51.2,9.77,0,1.48.12,3-1.75,3.58q-.12-5.16-.26-10.32C444.85,941.5,445,940.23,446.7,939.86Z" transform="translate(-383.63 -460.55)"/><path class="cls-5" d="M436.53,905.2l-.63-1.2Z" transform="translate(-383.63 -460.55)"/><path class="cls-1" d="M505.11,953.76c-6.35.41-12.7.86-19.05,1.17-1.37.06-3.18.67-3.94-1.17-.68-1.64.33-2.72,1.55-3.79,1.84-1.62.56-4.33,2.69-6.55,1.88-1.95,2.76-1.78,5-1.86,6.31-.2,10.47,5.12,16.44,5.77,2.2.24,3.37,3.25,5.46,4.62,1.2.78-.38,1.93-1.63,2-2.15.08-4.31,0-6.46,0Z" transform="translate(-383.63 -460.55)"/><path class="cls-2" d="M697.41,945l.4.21-.39-.23Z" transform="translate(-383.63 -460.55)"/><path class="cls-5" d="M717.38,494.1c2.38,6.14.58,12-1.38,17.95-1.4-1.27-2.22-3.28-4.14-4.12-.74-2.92-1.46-5.74,2.46-7.16,1.51-.54,1-2.23,1-3.46C715.46,495.85,715.24,494.25,717.38,494.1Z" transform="translate(-383.63 -460.55)"/><path class="cls-5" d="M737.35,497.78a6.4,6.4,0,0,1,2.28-.69c5.45.58,9.83-.1,9.5-7.26.17,1.76.33,3.51.52,5.52,1.15-1.84-.11-3.88,1.2-5.42,1.31,7.1,1.31,7.09,9.1,7.13,2.48,0,4.95.1,7.42.16a2.17,2.17,0,0,1-2.5,1.84l-25.56,0A2.1,2.1,0,0,1,737.35,497.78Z" transform="translate(-383.63 -460.55)"/><path class="cls-5" d="M729.29,496.21l2.91-.22c.1,1,0,2-1.27,2.06S729.38,497.23,729.29,496.21Z" transform="translate(-383.63 -460.55)"/><path class="cls-5" d="M730.25,935.11l1.91-.29c0,.78.24,1.78-.94,1.73C730.88,936.54,730.57,935.62,730.25,935.11Z" transform="translate(-383.63 -460.55)"/></g></svg>