<svg id="Layer_1" data-name="Layer 1" xmlns="http://www.w3.org/2000/svg" viewBox="0 0 1152 1440"><defs><style>.cls-1{fill:#fff;}</style></defs><title>star2</title><path class="cls-1" d="M221.42,599.88c82.2-9.51,164.21-22,246.69-27.38,49-3.16,67.9-20.07,70.8-70.52,4.76-82.79,18.28-165.09,39.7-247.68C589.15,339.24,602.69,424,609,509.22c3.24,43.79,20,58.68,61.93,62.29,86.58,7.44,172.75,19.71,257.81,41.23L617.6,649.64c-13,103.14-25.79,204.67-38.59,306.19L567.21,957c-9.88-83.5-22.19-166.82-28.61-250.59C535.42,665,524,646.22,478.87,643.05c-85.5-6-170.46-19.47-255.65-29.84Z"/></svg>