<svg id="Layer_1" data-name="Layer 1" xmlns="http://www.w3.org/2000/svg" viewBox="0 0 223.63 195.23"><defs><style>.cls-1{fill:#292c5c;}.cls-2{fill:#86809c;}.cls-3{fill:#6d6789;}.cls-4{fill:#7a7493;}.cls-5{fill:#323361;}.cls-6{fill:#4b4971;}.cls-7{fill:#716b8c;}.cls-8{fill:#767090;}.cls-9{fill:#827c99;}.cls-10{fill:#3a3a66;}.cls-11{fill:#4d4b72;}.cls-12{fill:#373764;}.cls-13{fill:#45436c;}.cls-14{fill:#9b95ad;}.cls-15{fill:#514e75;}.cls-16{fill:#9691aa;}.cls-17{fill:#393965;}.cls-18{fill:#26295a;}.cls-19{fill:#5b577c;}.cls-20{fill:#ada9bc;}.cls-21{fill:#bfbbca;}.cls-22{fill:#696486;}.cls-23{fill:#807a98;}.cls-24{fill:#625d81;}.cls-25{fill:#746e8f;}.cls-26{fill:#585479;}.cls-27{fill:#a19cb3;}.cls-28{fill:#7c7694;}.cls-29{fill:#a6a1b7;}.cls-30{fill:#7e7896;}.cls-31{fill:#948fa8;}.cls-32{fill:#b2aec0;}.cls-33{fill:#9d98af;}.cls-34{fill:#6f698a;}.cls-35{fill:#b7b3c4;}.cls-36{fill:#48466f;}.cls-37{fill:#726d8d;}.cls-38{fill:#403f69;}.cls-39{fill:#343462;}.cls-40{fill:#2d2f5e;}.cls-41{fill:#666184;}.cls-42{fill:#c4c0ce;}.cls-43{fill:#242859;}.cls-44{fill:#4a4870;}.cls-45{fill:#605c80;}.cls-46{fill:#645f82;}.cls-47{fill:#a49fb5;}.cls-48{fill:#2e305f;}.cls-49{fill:#bab6c6;}.cls-50{fill:#cfccd7;}.cls-51{fill:#59557b;}.cls-52{fill:#d7d5de;}.cls-53{fill:#2b2d5d;}.cls-54{fill:#a8a4b8;}.cls-55{fill:#686285;}.cls-56{fill:#88829e;}.cls-57{fill:#b4b0c2;}.cls-58{fill:#aba6ba;}.cls-59{fill:#3c3c67;}.cls-60{fill:#787291;}.cls-61{fill:#545177;}.cls-62{fill:#4f4c73;}.cls-63{fill:#9893ab;}.cls-64{fill:#c6c3d0;}.cls-65{fill:#c9c6d3;}.cls-66{fill:#8a84a0;}.cls-67{fill:#524f76;}.cls-68{fill:#bcb8c8;}.cls-69{fill:#46446e;}.cls-70{fill:#41406a;}.cls-71{fill:#d1cfd9;}</style></defs><title>steps</title><g id="XSVW9c"><path class="cls-1" d="M468.66,865c1-1.51.62-3.21.69-4.85a26.4,26.4,0,0,1,1.18-3.22,2.91,2.91,0,0,1,1.08-.92,3.34,3.34,0,0,1,1.44-.06,4.68,4.68,0,0,1,2.66,2.26c.54,1.78.38,4,2.67,4.76a4.41,4.41,0,0,1,1.13.66c2.44,4.32,6.1.78,9.11,1.42,5.79,1.08,11.27.79,15.84-3.55,8-1.16,16-1.87,23.86-3.92,11.46,3,22.1.47,32.3-4.89a4.33,4.33,0,0,1,1.33-.52c5.23,1.57,9.54-.53,13.66-3.41a31.59,31.59,0,0,1,5-1.65c2.43.2,4.6-1,6.94-1.28,2.79.06,5.56.45,8.37.47,4.73,0,6.77,3.21,5.12,7.29-2,1.69-5.62,2.12-4.88,6.06a2.78,2.78,0,0,1-.48,1.27c-2.42.79-4.45,2.06-5.46,4.57-1.64.86-3.41.44-5.12.5a9.66,9.66,0,0,1-1.42-.17c-2.65-1.51-5-3.83-8.5-2.94-2.27,1-5.07.52-7,2.45a4.75,4.75,0,0,0-2.53,3.73,4,4,0,0,1-1.65,2.2c-.29.12-.69.39-.9.28-2.34-1.31-5-.59-7.47-1.29-10.89,2.78-22.2-.77-33.07,2.28H470.6a3.2,3.2,0,0,0-.83-.54" transform="translate(-467.78 -677.25)"/><path class="cls-2" d="M691.41,683.49v9c-1.27,1.36-2.9,1.54-4.62,1.45a14.55,14.55,0,0,0-8.69,0c-3.38-1.36-7.07-.41-10.5-1.39-3.21-2.88-7.52-3-11.31-4.42-1.22-.47-2.58-.45-3.13-1.93a3.36,3.36,0,0,1,4.46-2.7c3.65,1.09,6.25-.84,9.14-2.1a11.12,11.12,0,0,0,2.76-1.52c1.64-.9,3.44,0,5.13-.48,2.14-.59,4,2.82,6.24.49,4.26-3.66,5.69-3.52,8.53.83A11.75,11.75,0,0,0,691.41,683.49Z" transform="translate(-467.78 -677.25)"/><path class="cls-3" d="M469.72,852.34c1.52,1,2.76,2.12,2,4.19h-.11a7.54,7.54,0,0,0-2.26,3.33c.8,1.81.48,3.85,1.24,5.66.06.79.39,1.75-.44,2.24-3.25,1.89-3.27,1.85.24,4.27.11.08.11.3.17.45" transform="translate(-467.78 -677.25)"/><path class="cls-4" d="M522.55,872.48a18.88,18.88,0,0,1,11.77-2.78c6.89.37,13.72,1.66,20.18-2a1.29,1.29,0,0,1,2,.83l-.09.71c-.26,3.09-3.41,1.9-4.84,3.26Z" transform="translate(-467.78 -677.25)"/><path class="cls-5" d="M691.41,694.49c-3,.76-6.17-.25-9.12,1-1.8.29-3-.69-2.91-2.28.14-1.84,2-1.09,3.12-1.14,1.42-.06,2.89-.3,4.26.36l4.65.1Z" transform="translate(-467.78 -677.25)"/><path class="cls-6" d="M556.54,868.45l2,4h-7C552.41,870.16,555,870,556.54,868.45Z" transform="translate(-467.78 -677.25)"/><path class="cls-7" d="M478.48,864.63c-.31-.1-.62-.19-.94-.26-2.71-1-1.06-4.28-3.05-5.62l-2.17-2.19c-.47-3.23-1.33-6.58,2.56-8.5,1.95-1.87,4.73-1.74,7-2.9a26,26,0,0,0,4.77-5.59,3.8,3.8,0,0,1,1.71-1.33c4.68-.64,6.94-5.54,11.43-6.52,2.54-2.27,5.8-2.34,8.89-2.88,5.61-1,11.28-.58,16.9-.12,1.86.15,4,.66,5.19,2.59.34,6.23-4.24,3.09-6.07,3.43,5.14,2.14,11.19.85,17.21.61a14.11,14.11,0,0,1,9.7,3,9.82,9.82,0,0,0,2.82,1.89c1.65.54,3.05,1.63,2.73,3.59s-2.06,2.85-4,3.07a14,14,0,0,1-4.9.12c-1.62-.41-2.88.23-4.25.69a21.65,21.65,0,0,0-12.78,8.78,8.57,8.57,0,0,1-5.13.75c-4.86-2.77-9.28.68-13.9,1.13-1.13.11-2.21,1.2-3.65,1.11-7.07-.45-7.12-.5-12.16,2.87a5.66,5.66,0,0,1-5.11.89,6.58,6.58,0,0,0-6.14,1C483,865.76,480.74,865.32,478.48,864.63Z" transform="translate(-467.78 -677.25)"/><path class="cls-8" d="M543.57,846.48c2.32-2.16,5.21-1.37,7.84-1.27,1.77.06,3.91.17,4.24-1.43.51-2.53-1.88-1.26-3.06-1.43-1.75-.26-2-1.48-2.06-2.86-.66-3.72.57-5.31,3.76-3.86,5.3,2.42,10.71-.11,16,1.24,2.55.65,3.14-2.52,5-3.39a5.36,5.36,0,0,1,2.88-.35,4.25,4.25,0,0,1,1.32.55c1,1.17,2.1,2.19,3.71.83a5,5,0,0,1,2-.42,33.67,33.67,0,0,0,3.48,0,4.45,4.45,0,0,1,1.4.22,7.12,7.12,0,0,0,5.65.93c5.16-1.19,6.4-.11,6.8,5.65a4.13,4.13,0,0,1-.61,1.35,14.07,14.07,0,0,1-10.46,4.31,5.77,5.77,0,0,0-3.66,1c-2.3,1.23-4.77,1-7.23.85a2,2,0,0,1-.2-.45,1.62,1.62,0,0,1,.06-.48c-8.59,1.83-17.54,1.87-25.86,5.05a7.4,7.4,0,0,1-5.78.19C546.84,850.79,543.43,850.13,543.57,846.48Z" transform="translate(-467.78 -677.25)"/><path class="cls-9" d="M549.52,851.46c3.28.24,5.6-2.41,8.76-2.81,8.19-1,16.34-2.48,25.38-2l-3.09,1.76-4.07,2.1c-4.87,1.51-9.92,2.17-14.92,3.08l0,.12c-6,1-11.41,4.94-17.88,3.62a3.31,3.31,0,0,1-1.74-2.77C543.2,850.29,546.7,851.72,549.52,851.46Z" transform="translate(-467.78 -677.25)"/><path class="cls-9" d="M542.53,854.47l1,1.87c-1.1,3.2-4.11,2.34-6.29,2.59-2.55.29-5.18.29-7.77.5l-25,3.88c-.71,1-1.77.69-2.73.76-3.15-2.8-.73-3.76,1.59-4.56,3.63-1.25,7.52-1.1,11.28-2.07,3.46-.89,7.15-2.13,10.93-1.89l5.93-.11C535.05,853.6,538.47,850.43,542.53,854.47Z" transform="translate(-467.78 -677.25)"/><path class="cls-10" d="M529.48,859.43a83.41,83.41,0,0,1,14.06-3.09l18.07-2.68c-8.35,4-16.28,9.77-26.37,6.33C533.32,859.34,531.26,860.91,529.48,859.43Z" transform="translate(-467.78 -677.25)"/><path class="cls-11" d="M478.48,864.63c1.41-1.42,4.06.29,5.11-2,4.42-.79,8.73.34,13.08.74.27,2.11-1.17,2.51-2.73,2.59a44,44,0,0,0-5.39.47C484.78,868.16,481.16,869.05,478.48,864.63Z" transform="translate(-467.78 -677.25)"/><path class="cls-12" d="M488.55,866.4l8.1-2.71c1.49-2.06,3.2-1.12,4.9-.38h3C499.83,867.64,494.33,867.77,488.55,866.4Z" transform="translate(-467.78 -677.25)"/><path class="cls-6" d="M561.58,853.54c4.58-3,9.74-3.06,14.92-3.08C571.92,853.41,567.1,855.15,561.58,853.54Z" transform="translate(-467.78 -677.25)"/><path class="cls-13" d="M475.31,849.41c-2.3,1.83-.78,5.27-3,7.15H472l-.28,0-3.44-2.92a9.83,9.83,0,0,1,3.4-4.25,2.2,2.2,0,0,1,2.51-.84A2.6,2.6,0,0,1,475.31,849.41Z" transform="translate(-467.78 -677.25)"/><path class="cls-14" d="M470.75,860.28c1.16,1.77.52,3.5-.12,5.24" transform="translate(-467.78 -677.25)"/><path class="cls-15" d="M474.49,858.75c1.5.51,2.76,1.67,4.89,1-1,1.91-3.37,2.55-1.84,4.57C473.79,864,474.92,860.94,474.49,858.75Z" transform="translate(-467.78 -677.25)"/><path class="cls-15" d="M471.65,856.53a6.1,6.1,0,0,1-.9,3.75" transform="translate(-467.78 -677.25)"/><path class="cls-16" d="M668.37,690.38c3.09,1.87,6.84.64,10,2.13.17,3.67-2.83,3.23-4.87,3.39-8.81.73-17.63,1.19-26.46.1-1.93-.24-3.55-.7-4.68-2.34-1.29-3.06,1.59-3.91,3-5.56l1.72-.19C654.33,687.27,661.37,688.64,668.37,690.38Z" transform="translate(-467.78 -677.25)"/><path class="cls-5" d="M642.57,692.41c1,.84,1.8,2.09,3.27,2.11,9.69.08,19.38.15,29.08.16,1.51,0,3-.37,3.46-2.17,2.77-1.64,5.57-1.06,8.38-.12-1.27,0-2.55,0-3.82.12-.89.06-2.18-.34-2.4.87-.18,1,1,1.51,1.75,2.06l-1.73,2.22c-2.24-1.94-4.76-.85-6.89-.13s-4.17-.24-6.21.16c-.69,1.42-1.31,2.93-3.17,3.17a33,33,0,0,1-4.66.08c-2.13,0-3.69-1.75-5.8-1.82-3.15-.14-6.29-.39-9.44-.67-2-.83-4.09-1.33-6.13-2-2.13-2-1.83-3.92.39-5.67a3.21,3.21,0,0,1,2.4-.12A3.31,3.31,0,0,1,642.57,692.41Z" transform="translate(-467.78 -677.25)"/><path class="cls-17" d="M668.37,690.38c-7.31-1.22-14.82,0-22.08-1.85-.3-.24-.39-.47-.28-.69s.21-.33.32-.33c.22-1.23-.16-3.07,2.17-2.16a6.48,6.48,0,0,0,4.76.3C658.18,687.57,663.75,687.45,668.37,690.38Z" transform="translate(-467.78 -677.25)"/><path class="cls-18" d="M578.45,834.4l-3,.28c-2,1.15-3.94,2.32-6.5,1.86-10.64-1.94-21.46-.79-32.15-1.86-2.25-.22-4.79.28-6.07-2.4a51.88,51.88,0,0,0-31.09,1.1,7,7,0,0,1-1.27-.43c-2.29-1.43-4.37-1.29-6.17.86a6.63,6.63,0,0,1-2.35,1.44c-1.82.43-3.51-.69-5.32-.44a16.77,16.77,0,0,1-2.53-.65c-1.95-.18-3.88-.49-5.82-.83-5.3-1.92-2.12-4.47-.51-6.91-.53-4,3.2-2.67,4.88-3.9,1.83-.73,2.83-2.63,4.67-3.35,10.82-1.42,21.14,1.64,31.59,3.55a39.47,39.47,0,0,0,6.42.32c10.88.27,21.72,2.26,32.65.89,6.63,1.84,13.36.58,20,.61C581.87,827.49,582.17,828.64,578.45,834.4Z" transform="translate(-467.78 -677.25)"/><path class="cls-19" d="M478.71,819.49c0-2.73-.54-5.51.75-8.12a74.77,74.77,0,0,0,7.79,4.2c1.35.58,3.08,1.08,2.78,3-.35,2.19-2.31,1.26-3.64,1.44-.65.09-1.31,0-1.81.57-.81,1.72-2.3,2.07-4,2C482.62,819.86,481.19,819.35,478.71,819.49Z" transform="translate(-467.78 -677.25)"/><path class="cls-4" d="M674.46,748.51c-.8,3.06.72,5.08,3,6.77,0,1.91-.85,3.68-.89,5.59a5.25,5.25,0,0,1-3.08,1.64,4.1,4.1,0,0,1-3.16-1.29,4.85,4.85,0,0,1-.65-1.15c-.64-1.47-2.55-2-2.81-3.73-.07-1.27-.51-1.49-1.81-1-3.2,1.17-5.77,3.56-9.07,4.49a6.53,6.53,0,0,1-2.73.79A9.68,9.68,0,0,0,647,761a7.3,7.3,0,0,1-2.27-.33c-3-1-6.13-.95-9.23-1-2.5-.08-4.86-.52-6.81-2.23-1.38-3.41,1.36-3.58,3.33-3.86,4.07-.56,8.22-1.55,12.26-1,5.24.75,8.26-2,11.17-5.52,5.92-1.17,11.75-3.14,17.93-2.06C674.77,745.83,675.31,747,674.46,748.51Z" transform="translate(-467.78 -677.25)"/><path class="cls-20" d="M669.59,699.55c-.72,2.25-2.74,1.34-4.22,1.74-.9-.36-1.63-.81-1-1.94s1.32-2.4,3-1.66Z" transform="translate(-467.78 -677.25)"/><path class="cls-21" d="M678.33,701.76c-1.39-1-3.87,2.24-4.6-1.21,1.21-.2,2.58.26,3.54-.92.54-.66,1.26-1.25,1.85-.26A1.61,1.61,0,0,1,678.33,701.76Z" transform="translate(-467.78 -677.25)"/><path class="cls-22" d="M476.72,808.26l-5.06-2.87,2.91-1.95c1.72-.64,3-2.11,4.95-2.33,2.76-.3,5.45-1.26,8.29-.73a4.68,4.68,0,0,1,2.45,1.64,4.18,4.18,0,0,1,.74,2.07c.51.72-.83,2.46,1.42,2.27,4.19-.36,5,3.3,6.3,5.95,1,1.93-.67,3.85-2.35,3.05-3.19-1.52-5.76.75-8.63.48-3.27-1.19-6.35-2.59-8.23-5.83A3,3,0,0,0,476.72,808.26Z" transform="translate(-467.78 -677.25)"/><path class="cls-23" d="M530.75,832.28c13.44.73,26.94.56,40.32,2.47a28.17,28.17,0,0,0,4.4-.07c-1,3.55-2.51,5.55-6.92,4.35-2.56-.7-5.54-1.55-8.51.42-2,1.32-3.71-1.45-5.61-2.22-2.66-1.07-3.72-.44-3.9,2.26-5.9-2.39-11.81-3.85-17.72,0a1.32,1.32,0,0,1-.85.14c-2.68-5.88-8.9-.94-12.72-4.33C522.27,831,527.94,836.62,530.75,832.28Z" transform="translate(-467.78 -677.25)"/><path class="cls-4" d="M501.55,863.31l-4.9.38a35.3,35.3,0,0,1-13.06-1.09c1.67-2.88,4.4-1.3,6.29-.94,5.09,1,7.52-1.62,9.35-5.62.54-1.19.92-2.78,2.47-2.74,1.18,0,1.94,1.18,2.18,2.4a1.7,1.7,0,0,0,1.58,1.57c5.08.8,10.57-.19,14.07-2.89,3.76-2.92,4.41-1.14,6.05,1.17-1.33,1.94-2.7,2.4-5.43,2.56-6.21.36-12.33,2.42-18.47,3.86C501.54,862,501.59,862.85,501.55,863.31Z" transform="translate(-467.78 -677.25)"/><path class="cls-4" d="M542.53,854.47c-3.82-1.37-7.17,2.63-11,1-.44-1.56-.89-3.11-1.52-5.35,3.07,1.33,5,1,6.93-1.63,1.23-1.72,3.57-4.33,6.65-2a15.78,15.78,0,0,1,5.95,5C547.8,853.89,544.59,852.85,542.53,854.47Z" transform="translate(-467.78 -677.25)"/><path class="cls-24" d="M489.54,834.5l1.1-2.06c2.94-2,5.88-3.69,8.83,0a3.15,3.15,0,0,1,.19,1c-4,1.36-5.65,7.06-11,6-1.43-1-.88-2.21-.27-3.4A5.75,5.75,0,0,1,489.54,834.5Z" transform="translate(-467.78 -677.25)"/><path class="cls-25" d="M490.42,836.28c-.52,1.08-1.82,1.72-1.73,3.14l-1.28,1.21a1.93,1.93,0,0,1-1.85-.72c-1.05-3.65-4.48-.74-6.29-2.29a2.83,2.83,0,0,1-.4-1.35c.26-2.28,2.78-2.44,3.78-4l1.85,1C486.73,833.74,488.52,835.12,490.42,836.28Z" transform="translate(-467.78 -677.25)"/><path class="cls-26" d="M486.41,839.41c.34.4.67.81,1,1.21.16,3.26-3,4-4.54,5.91l-2.42-1.19c-.09-3.27,3.14-4,4.62-6.1A1.51,1.51,0,0,1,486.41,839.41Z" transform="translate(-467.78 -677.25)"/><path class="cls-17" d="M578.45,834.4c-1-1.18-3.07-3.1-.88-3.82,5.34-1.76-.73-2.62,0-3.83,2.58-5.88,12.91-11.33,18.43-9.72a4.37,4.37,0,0,1,1.08,2.8c.14,1.23.9,2.34.76,3.63-.4,1.87-1.41,3.78-3.06,4.27-4.21,1.26-7.73,2.89-8.33,7.86,0,.19-.56.18-.91,0l-2.08.07a2.74,2.74,0,0,1-3.93-1.12Z" transform="translate(-467.78 -677.25)"/><path class="cls-23" d="M579.49,834.59c1.58-.56,2.58.91,3.93,1.12-.27,3.35-2.54,2.21-4.14,1.61C576.87,836.42,579,835.49,579.49,834.59Z" transform="translate(-467.78 -677.25)"/><path class="cls-27" d="M638.48,695.51c2.13,0,4.32-.4,6.28.84-2.4,5.08-8.37,5.22-12,8.65a7.38,7.38,0,0,1-4.64.94c-4.77-1.45-9.85-.63-14.63-2a22.32,22.32,0,0,0-6.54-1.11c-3.08-.87-6.28-.26-9.39-.76-1.62-.27-3.38.07-4.43-1.66-.72-2.58,1.06-3.82,2.93-4.4,4.17-1.27,8.43-2.84,12.8-.66,1.69.85,3.21-.07,4.79-.36a9.53,9.53,0,0,1,5.78.53,4.09,4.09,0,0,0,3-.43c2.13-1,3.71-2.92,5.84-4,1.74-.28,3.48-.76,5.18.13C635.77,691.94,636.25,694.74,638.48,695.51Z" transform="translate(-467.78 -677.25)"/><path class="cls-28" d="M641.43,691.43c.27-2.53,1.88-3.17,4.11-3,.32,2.3-1.64,2.88-3,3.94Z" transform="translate(-467.78 -677.25)"/><path class="cls-29" d="M632.46,703.46c3.65-3.15,7.52-5.92,12.3-7.11l9.61,1.17c.61.66,2.15.23,2.06,1.62-.06,1.13-1,1.63-2,1.77a18.2,18.2,0,0,0-7.11,2.88c-2.78.52-5.5,1.3-8.29,1.78C636.67,705.4,634.25,705.39,632.46,703.46Z" transform="translate(-467.78 -677.25)"/><path class="cls-12" d="M647.39,702.34c1.7-2.53,4.45-2.3,7-2.75,3.39-.61.27-1.37,0-2.07,2-.25,3.49,1,5,2,0,.62,0,1.24,0,1.86-.29,1.59-1.75,1.78-2.84,2.41-1.49,0-3.06-.44-4.27.89-2.29.74-4,3.4-6.91,2.11a2.47,2.47,0,0,1-.61-1.28C644.62,703.59,646.53,703.4,647.39,702.34Z" transform="translate(-467.78 -677.25)"/><path class="cls-27" d="M633.28,692.33c1.32-2.85,4-1.5,6.06-1.92l.12,1c-.86,1.23-2.37,2.3-1,4.07C635.87,695.89,634.27,694.62,633.28,692.33Z" transform="translate(-467.78 -677.25)"/><path class="cls-30" d="M595.5,817.56a22.42,22.42,0,0,0-12.41,6c-1.63,1.59-3.79,2-5.56,3.15l-21.68-.59c.48-3.16,2.82-2.75,4.85-2.24,1.4.35,2.65,1.32,3.74,1.1-5.59-.78-.88-4-.88-6a4.35,4.35,0,0,1,.64-1.18c.18-.64.18.29.37-.34s.3-1.21-.36-1.64c.86.77.57,1.45-.17,2.09-3,.6-5.83-.56-8.4-.87,2.12.77,4.87.31,7.2,1.71-.33,3.75-3.43,4.13-6.06,4.59a15.62,15.62,0,0,1-10.07-1.21c-2.85-3.07-6.11-3.66-9.8-1.56-3,.51-5-.3-4.87-3.83,0-5.83,5-5.39,8.56-6.73a12,12,0,0,1,2.74.19,4,4,0,0,1,1.46,1.09c.11-.13.61.78.42-.16a1.22,1.22,0,0,0-.14-.46,3.17,3.17,0,0,1,.61-1.71,6.67,6.67,0,0,0,2.08-3.2,5.89,5.89,0,0,1,2.68-2.38c7.83.21,15.76.09,22.36,5.46,2.44,3,6,4.35,9.3,6,3.67,1.81,5.65-1.3,8-3.18a6.3,6.3,0,0,1,5.32,0C597.87,813.56,598.39,815.54,595.5,817.56Z" transform="translate(-467.78 -677.25)"/><path class="cls-23" d="M533.52,816.52c-.82,3.94,2.23,2.59,4,3a13.07,13.07,0,0,1,9,1c4.25.35,8.47,2,12.8.14,1.21-.52,2.44-.82,3.25-2a1.15,1.15,0,0,1,1.94-.13c.39,1.89,1.49,3.94-2,4.72,2.56,1.62,4.79-.26,6.62,1.78-4.45,1.32-9.05-.48-13.26,1.15-13.41,1.11-26.68-.44-40-2.07-10.42-1.28-20.7-3.83-31.29-3.55l4.3-2c-2.43-3.53-8.65-1.79-9.42-7.21l-2.74-3.11c2.88-1,3.9,1.73,5.48,3a35.37,35.37,0,0,0,5.38,3.26c3.83-.06,7.66.37,11.49.11a3.27,3.27,0,0,1,1.38.2c4,1.57,7.5,3.91,12.51,2.36,2.72-.83,5.62-.86,8.56-2.18C525.25,813.37,529.94,812.78,533.52,816.52Z" transform="translate(-467.78 -677.25)"/><path class="cls-31" d="M482.65,832.23c.48,2.76-2.06,3.11-3.47,4.36-1.58.77-3.15.28-4.73,0-1.59-2.67,0-4,2.16-5Z" transform="translate(-467.78 -677.25)"/><path class="cls-4" d="M499.47,832.42c-3-2.17-5.89-.83-8.83,0C494.9,828.16,497.14,828.16,499.47,832.42Z" transform="translate(-467.78 -677.25)"/><path class="cls-31" d="M490.42,836.28c-2.35-.3-4.51-1-5.92-3.07,2.12-1.31,3.39.74,5,1.29C489.83,835.09,490.13,835.68,490.42,836.28Z" transform="translate(-467.78 -677.25)"/><path class="cls-32" d="M474.45,836.55c1.6-1.81,3.17-1.1,4.74,0l.55,1a1.06,1.06,0,0,1-.09,1.16,1.11,1.11,0,0,1-1.16-.15l-3.9,0C474.54,837.93,474.5,837.24,474.45,836.55Z" transform="translate(-467.78 -677.25)"/><path class="cls-33" d="M628.46,756.45c5.53,1.79,11.75-.34,17,3,2.21,3.82,7.14,6.37,5.56,12-6.24,3.54-11.77,9-19.94,7.22-1.44-.47-3-.76-3.81-2.25,0-2.76-2.37-3-3.95-2.77-5.94.89-11.67-1.71-17.58-.79a4.86,4.86,0,0,1-4.57-1.37c-3.5-3.74-8.27-2.75-12.61-3.35-2.43-1.24-5.56-1.8-5.44-5.56,1-1.88,3.31-1.39,4.64-2.65a16.09,16.09,0,0,1,11.64-4.61c5.27,0,10.45-1.49,15.76-1.14,2.05.69,4.12.45,6.24.29C623.93,754.28,626.67,753.81,628.46,756.45Z" transform="translate(-467.78 -677.25)"/><path class="cls-20" d="M679.72,744.45c.88.95,1,1.7-.57,1.84s-3.21.18-4.82.27a139.3,139.3,0,0,0-18.89,1.92c-4.35,2.72-9.14,3.14-14.19,3.36-17.46.76-34.72-2.76-52.17-2.06-4.29.17-8.59.73-12.9.29-5.57-1-6.77-2.22-6.86-7.11,1.52-2.29,4-3.05,6.43-3.3,15.09-1.59,30.25-2.26,45.42-2.6,2,4,5,4.78,9.51,5.07,7.23.47,14.37.19,21.55.23a82.48,82.48,0,0,0,17.41-2.07,5.27,5.27,0,0,1,2.73-.78A10.77,10.77,0,0,1,677,741.3C677.9,742.37,679.35,743,679.72,744.45Z" transform="translate(-467.78 -677.25)"/><path class="cls-24" d="M575.59,748.55c21-1.43,42,1.13,63,1.16a151.65,151.65,0,0,0,16.8-1.23c.76.24,1.93.19,2,1.15.07,1.35-1.25,1.39-2.16,1.38-2,0-4.3-.9-2.31,2.82.65,1.21-1.68,1-2.89.95-7.26-.16-14.5-.09-21.61,1.67l-13.8-.31c-.82-2.26-2.6-2.63-4.76-2.67-8.1-.12-16.19-.73-24.26-1.48-2.38-.23-3.86.29-4.13,2.92a2.34,2.34,0,0,1-1.72,2.21C574.46,755.13,573.51,753.18,575.59,748.55Z" transform="translate(-467.78 -677.25)"/><path class="cls-16" d="M650.42,770.49c-.76-3.32-4.38-4.82-5.17-8.2a4.34,4.34,0,0,1,.21-2.82l2,0c1.91-.33,3.8.32,5.71.15a1.86,1.86,0,0,1,2.13-1c1.4-.1,2.48.72,3.64,1.28a1.64,1.64,0,0,0,2.32-.76,3.69,3.69,0,0,1,2.73-1.63c2.1.8,4.51.67,6.39,2.14,0,.24.07.49.11.73,1.37,2.21,1.62,4.37-.33,6.42-4.9,2.79-10.43,3.65-15.79,5A3.56,3.56,0,0,1,650.42,770.49Z" transform="translate(-467.78 -677.25)"/><path class="cls-34" d="M658.25,761.46c-1.87-.06-2.3-1.58-2.94-2.88,3.79-2.25,7.21-5.21,11.68-6.15,1.21-.25,2.83-1.49,3.6,0,.87,1.66-.78,2.56-2.12,3.31a6.67,6.67,0,0,0-1.08,1c0,2-1.36,1.74-2.67,1.44a2.32,2.32,0,0,0-2.3,2.29C661.39,762.24,659.43,760.27,658.25,761.46Z" transform="translate(-467.78 -677.25)"/><path class="cls-35" d="M670.25,765.69c-.94-1.83-.24-3.58.25-5.35l3,.92c2.29,1.81-1.52,4.46.86,6.25C671.51,770.3,670.79,768.21,670.25,765.69Z" transform="translate(-467.78 -677.25)"/><path class="cls-19" d="M664.72,758.14l2.67-1.44c1.2.49,2.39,1,3.6,1.46.59.22,1.91-.33,1.22,1.09-.16.33-1.19.25-1.82.36C668.32,759.82,666,761.13,664.72,758.14Z" transform="translate(-467.78 -677.25)"/><path class="cls-36" d="M653.18,759.58c-1.94,1.62-3.83.67-5.71-.15C649.41,757.92,651.33,757.45,653.18,759.58Z" transform="translate(-467.78 -677.25)"/><path class="cls-8" d="M533.52,816.52c-3.58.52-7.14-.87-10.75-.06-1.48.34-3.23.17-2.72,2.47.24,1.12,1.1,2.46-.92,2.46-1.48,0-3.72.87-4-1.63-.24-2.16-.88-1.41-2.13-.85-5.28,2.36-9.15,1.32-13.42-3.42.45-.64.87-1.33,1.78-1.39-.94,0-1.31.77-1.81,1.37-4-.1-8.15,1.46-12-.92,3.15-1.06,6.26-3.17,10-.66-1.33-2.17-2.66-4.34-4.1-6.67-.49.44-1,.7-1.11,1.06-.45,1.74-1.44,2.72-3.18,1.94s-.26-1.94-.09-2.94.35-1.9.52-2.85c1.8-3.51,5.5-.35,7.76-2.22,3.72-.73,7.74-.28,11-2.88,1.2-.47,2.17-1.37,3.39-1.82,3.18-1.12,6.38-1.71,9.64-.34a14.74,14.74,0,0,0,10.39,5.5c2.64.23,5.63.7,7,3.76-.33,2,2.36,2.91,1.93,5-2,.34-2.79,3.67-5.84,1.81C533.89,812.64,535.47,816,533.52,816.52Z" transform="translate(-467.78 -677.25)"/><path class="cls-19" d="M489.52,802.47a2.5,2.5,0,0,1,1-.13c1.52-.34,2.15-2.31,3.66-2.35,2.17-.06,4.66,0,3.42,3.5-.94,1.57-1.53,4.43-3.9,1.24-1.31-1.75-2.71-.18-4.05-.3C489.6,803.78,489.56,803.12,489.52,802.47Z" transform="translate(-467.78 -677.25)"/><path class="cls-10" d="M677.36,769.45c-.81,0-1.69-.11-2,1-.38,1.28-1.53,2-2.14,3.16a4.07,4.07,0,0,1-1,.86c-2.5.8-5.42.19-7.54,2.28a20.59,20.59,0,0,1-2.71.4,27,27,0,0,0-2.61.79c-3-.74-5.64.33-8.16,1.85-2.68-.06-3.59,2.26-5.1,3.79a4.36,4.36,0,0,1-2.65,1,18.3,18.3,0,0,0-5-.62,7,7,0,0,1-1.43-.28c-4.1-2.86-8.23-1.48-12.36-.07a3.63,3.63,0,0,1-2.72-.94,9.4,9.4,0,0,1-1.88-3.43c-.63-2.27.08-3.65,2.76-2.83a16.33,16.33,0,0,0,8.69.19,10.06,10.06,0,0,0,10-2.2c2.6-2.41,6.12-2.31,9-3.89,6.82-.73,12.91-4.48,19.83-4.8,1.47.42,1.76,3.49,4.13,1.82l1.28-.13C676.52,767.83,677.35,768.3,677.36,769.45Z" transform="translate(-467.78 -677.25)"/><path class="cls-37" d="M478.49,838.59l1.31-.13c2.22-1.22,4.28-1.66,5.7,1.13-.31,3.13-4.27,3-5.05,5.75-1.59-.27-4.19-.8-1.27-2.45C483.93,840.21,479.33,839.89,478.49,838.59Z" transform="translate(-467.78 -677.25)"/><path class="cls-38" d="M485.5,839.59a14.32,14.32,0,0,0-5.7-1.13,1.33,1.33,0,0,1-.06-.88c2.36.12,6.3-5.57,6.67,1.83A7.32,7.32,0,0,1,485.5,839.59Z" transform="translate(-467.78 -677.25)"/><path class="cls-39" d="M591.48,696.47a4.46,4.46,0,0,0,2,2.84c2.71,2.3,5.93.51,8.86,1.13,1.76.38,3.56.61,5.34.91.09,1.36,2.17,2.52.42,4.08-5.93,2.56-11.45.45-17-1.46a13.27,13.27,0,0,1-1.74-1.85,4.82,4.82,0,0,1-1.1-4C588.84,696.55,589.64,695.47,591.48,696.47Z" transform="translate(-467.78 -677.25)"/><path class="cls-6" d="M613.5,702.46l14.87,2.11c.83.64,2,.26,2.83,1,.77,1,.83,1.94-.27,2.77-6.32-.51-13,1.06-18.72-3A2.49,2.49,0,0,1,613.5,702.46Z" transform="translate(-467.78 -677.25)"/><path class="cls-40" d="M613.5,702.46a3,3,0,0,1-1.28,2.26c-1.43.92-2.75,1.07-3.8-.57l-4.16-1.27c.72-1.92,2.3-1.15,3.42-1.53A13.22,13.22,0,0,1,613.5,702.46Z" transform="translate(-467.78 -677.25)"/><path class="cls-7" d="M630.58,705.66l-2.21-1.09,4.09-1.11,7,.09C637.53,708.53,633.87,706.32,630.58,705.66Z" transform="translate(-467.78 -677.25)"/><path class="cls-16" d="M645.64,706.24c2.47-.5,3.69-4,6.83-2.88.68.55.28,1.6,1,2.13" transform="translate(-467.78 -677.25)"/><path class="cls-41" d="M656.25,703.33a1.71,1.71,0,0,1-.24.88c-1.08,0-2.19-.12-2.55,1.28a1.52,1.52,0,0,1-2.2-.12c-.89-1.26,1.18-1.08,1.21-2C653.71,701.47,655,702.76,656.25,703.33Z" transform="translate(-467.78 -677.25)"/><path class="cls-12" d="M638.54,711.29c-2.25.56-4.08-.62-6-1.45a3.17,3.17,0,0,1-1.14-.81,1.54,1.54,0,0,1-.12-1.35c-.24-.67-.47-1.35-.7-2l8.91-2.11,7.9-1.21-1.95,3.1" transform="translate(-467.78 -677.25)"/><path class="cls-42" d="M645.44,705.44c.06.27.13.54.2.8" transform="translate(-467.78 -677.25)"/><path class="cls-43" d="M521.59,798.65a38.79,38.79,0,0,0-10,1c-3.37.84-4.63-.48-3.87-3.81a16,16,0,0,0,.28-3.38c-.38-3,.75-4.25,3.92-3.72a28.61,28.61,0,0,0,9.32-.19c6.13,1.37,12.46.73,18.62,1.87,3.22.6,6.48.87,9.32,3,2.13,1.58,5,1.52,7.52,2.1,8.33,1.9,16.58,4.13,24.81,6.5,1.78,1.7,3,3.57,1.76,6.14-3.9.66-7.07,5.43-11.71,2.13-5.3-4.89-12.53-3.11-18.63-5.27a13.43,13.43,0,0,1-2.21-.82,18.51,18.51,0,0,1-13-1.14C532.53,800.74,526.86,800.44,521.59,798.65Z" transform="translate(-467.78 -677.25)"/><path class="cls-17" d="M582.32,808.81a5.35,5.35,0,0,0-1.8-5.34c4.12-3.69,9.5-2.47,14.25-3.65,3.89-.15,7.52-1.84,11.43-1.92,3,2.37,2.32,4.34-.67,6.06-3.36,1.93-7.25,3-10,5.93-.37.84-.75,1.67-1.13,2.51-1.26,1.05-2.53.1-3.8,0-2.39.53-4.78,1.09-7.21,1.44-1.7.25-3.54.5-4.08-1.55C578.7,810,580.28,809.09,582.32,808.81Z" transform="translate(-467.78 -677.25)"/><path class="cls-2" d="M521.59,798.65c5.74-2.18,10.84.37,16.14,2,3.76,1.17,7.43,3.46,11.73,1.86.95-.35,1.18.84,1.24,1.68l-2.25,2.37c-.51,1.09-1.81,1.66-2,3l-1.08,1a1.76,1.76,0,0,1-1.29.43c-2.41-.84-4.91-1.49-6.54-3.7-2.18-3-5.6-2.5-8.57-2.75C525,804.24,522.65,802.4,521.59,798.65Z" transform="translate(-467.78 -677.25)"/><path class="cls-28" d="M582.32,808.81l-2.74,3.7c3.9-.06,7.5-3.44,11-.1-2.77,6.25-4.46,7-10.45,3.47-2.93-1.71-6.62-2.35-8.59-5.58,2,.55,3.47-.38,4.8-1.65C578.41,806.65,580.38,807,582.32,808.81Z" transform="translate(-467.78 -677.25)"/><path class="cls-8" d="M546.52,820.45c-3.41,3.48-6-.56-9-1C539.7,815.9,543.56,816.33,546.52,820.45Z" transform="translate(-467.78 -677.25)"/><path class="cls-44" d="M537.58,807.33c3-.32,4.63,2.07,6.86,3.31.25.9,0,1.31-1,1l-2.77-.27C539.93,809.83,534.86,811.55,537.58,807.33Z" transform="translate(-467.78 -677.25)"/><path class="cls-3" d="M564.51,818.51l-1.94.13L551,817.31c4.61-2.22,9,.55,13.55.17h0Z" transform="translate(-467.78 -677.25)"/><path class="cls-3" d="M546.49,809.56c-.83-.46-2.28-.89-1.92-1.87.64-1.77,2.49-1,3.88-1.11.49.94,1.35,1.89.57,3S547.34,809.74,546.49,809.56Z" transform="translate(-467.78 -677.25)"/><path class="cls-45" d="M543.45,811.68l1-1a4.48,4.48,0,0,1,1,0c1.42,1.7,6.15,0,5.08,2.9s-3.5-1.7-5.76-1.17C544.38,812.41,543.88,811.91,543.45,811.68Z" transform="translate(-467.78 -677.25)"/><path class="cls-3" d="M564.52,817.48c-.57-2.24-4.15-1.34-4.54-4.73a35.32,35.32,0,0,1,5.17,2.38c1.46,1,.88,1.91-.63,2.35Z" transform="translate(-467.78 -677.25)"/><path class="cls-46" d="M580.35,756.64c-2-5.82-.46-7.54,5.49-6.91,8,.84,16.07,1.41,24.11,1.59a11.08,11.08,0,0,1,7.31,2.33c0,1.71-1.93,1.47-2.6,2.49-4.55.43-9.09,1.11-13.64,1.23-4.9.13-9.23,1.2-12.54,5.07-2.94-3-5.54,1.22-8.39.4a4.06,4.06,0,0,1-1.85-3.21A3.13,3.13,0,0,1,580.35,756.64Z" transform="translate(-467.78 -677.25)"/><path class="cls-47" d="M588.4,767.67c.84-1.71,1.71-3.77,3.83-1.38s4.23-2.64,6.47.34c1.33,1.77,2.92,4.38,5.17,4.36,4.62,0,9.19,1,13.63.92,5-.09,9.32.12,13.41,3.31l-3.75.48c-3.15,2.73-6.9.44-10.37,1.07a24.9,24.9,0,0,1-9.86-.71c-4.34-1-8.33-3-12.61-4.2C592.2,770.67,588.74,771.38,588.4,767.67Z" transform="translate(-467.78 -677.25)"/><path class="cls-48" d="M606.45,774.48c7-.71,13.79,1,20.7,1.22l4.29.88c-3.24,2.43-6.68,2.91-10.23.61-.62,2.08,2.31,2.49,1.24,4.32A3.1,3.1,0,0,1,619,783c-5.3-1.75-11-1.6-16.23-3.61C601,775.54,604.08,775.26,606.45,774.48Z" transform="translate(-467.78 -677.25)"/><path class="cls-49" d="M583.42,763.78l-2.88.53a1.59,1.59,0,0,1,0-2.2c2.67-.65,5.48-4.62,7.93.33C586.68,762.45,584.78,762.09,583.42,763.78Z" transform="translate(-467.78 -677.25)"/><path class="cls-5" d="M621.45,738.52c-8.38,1.35-16.86,1.51-25.31,1.86-8.9.36-17.76.67-26.38,3.22l-1,.9a7,7,0,0,1-2.34,1.32c-2,.14-4,.24-6,.37-2.69-.36-5.48,0-8-1.11a3.73,3.73,0,0,0-1,0c-7,1.45-8.21.23-7-7.31.63-1.87,0-4.11,1.71-5.67a3.52,3.52,0,0,1,1.44-.67c2.06-.27,3.51,1.08,5.16,1.93a125.24,125.24,0,0,0,26.6.6,69.14,69.14,0,0,1,9.86-.31c9.87,0,19.67-1.91,29.56-1,2.28,1.72,5.25,1.93,7.62,3.46a1.67,1.67,0,0,1-.31,2.27C624.51,739.42,623,740.05,621.45,738.52Z" transform="translate(-467.78 -677.25)"/><path class="cls-27" d="M664.33,739c1.58,1.59,4.64-.65,5.74,2.21a1.39,1.39,0,0,1,.23.58c-5.91,1.57-11.78,3.36-18.06,2.14a8.38,8.38,0,0,0-3.88.44c-7.69,2.3-15.32-.4-23-.29-2.36,0-6-1.25-3.92-5.53l3.92-.91c2.22.21,4-1,5.9-1.84,1.44-.19,2.93.57,4.33-.29a4.18,4.18,0,0,1,1.32,0" transform="translate(-467.78 -677.25)"/><path class="cls-27" d="M651.35,738.44c1.4-.05,2.68.68,4.08.64" transform="translate(-467.78 -677.25)"/><path class="cls-17" d="M568.32,743.6h1.44c.9,2.88,3.85,3.33,5.83,4.94.26,3.49,1.6,6.33,4.76,8.1-.29.89-.58,1.79-.86,2.68-2.18,1.33-4.53.84-6.86.69-2.25-3.52-6.21-6-6.61-10.65A6.41,6.41,0,0,1,568.32,743.6Z" transform="translate(-467.78 -677.25)"/><path class="cls-50" d="M658.25,761.46c.49-4,2.94-.05,4.17-1C662.72,763,662.53,763,658.25,761.46Z" transform="translate(-467.78 -677.25)"/><path class="cls-23" d="M499.56,815.47c1.88-5.09,2.8-1.32,4.84-.05-2.31,1.35-3.38-1-4.81.07Z" transform="translate(-467.78 -677.25)"/><path class="cls-51" d="M664.48,739.72l-1.85-.24c-3.52-.39-7.15.41-10.58-1a3,3,0,0,0-1-.2" transform="translate(-467.78 -677.25)"/><path class="cls-52" d="M670.07,741.18c-1.33-1.06-2.7-.57-4.1-.13-1.13.35-2,.23-1.49-1.33" transform="translate(-467.78 -677.25)"/><path class="cls-47" d="M677.09,738.93c-1.08,2.27-2.9,1.83-4.69,1.51" transform="translate(-467.78 -677.25)"/><path class="cls-2" d="M602.67,778.29c6.77,0,13.23,1.85,19.78,3.22l2,.92c1.39.34,2.86.5,3.87,1.69,1.13,2,1.14,3.69-1.12,4.89a6,6,0,0,1-2.7-.08c-3.73-.19-4.6,3.87-7.41,5-3.53,1.61-5.67,6.31-10.61,4.78-3.24,2.77-7,3.12-11,2.56-3.21-1.56-6.49-.65-9.66,0-3.34.69-6.61,0-9.85-.22a8.72,8.72,0,0,1-7.3-4.57c-2.16-4-5.24-4.92-9.59-3.27-1.39.52-2.64,1.4-4.2,1.43-4.09.08-6-2.63-3.93-6.13a15.9,15.9,0,0,0,2.27-6.45c3.56-3.44,8.31-3.21,12.69-4.11a9.93,9.93,0,0,0,5.35-1.3c2-.9,3.39,1.53,5.32.86,3.19,2.09,6.51,2.89,10.11,1.06.28-.4.45-1,.92-1.12C592.69,776.71,597.78,775.63,602.67,778.29Z" transform="translate(-467.78 -677.25)"/><path class="cls-53" d="M627.35,784.42c-1.62.3-2.16-.95-2.85-2,4.38-2.37,8.73-3.36,13,.18.94,1.29.53,2.35-.55,3.3C633.53,787,630.4,786,627.35,784.42Z" transform="translate(-467.78 -677.25)"/><path class="cls-18" d="M618.61,797.62a8.51,8.51,0,0,0-2.45,1.89,10.33,10.33,0,0,1-2.5,2c-1.82.8-2.78,2.69-4.53,3.59-.87.56-2.18.28-2.7,1.47-.26,1.24-.48,2.51-1.76,3.17a1.33,1.33,0,0,1-1.18-.28c-2-1.44-4-3-5.74.47-.14.29-1.46,0-2.24-.05,1.63-4,5.55-5.32,8.93-7,2-1,2.76-2,2.09-4.09l10-6.3c3.51-1.24,6-4,9.11-5.89.86.18.81.87.86,1.51a4.17,4.17,0,0,1,1,1.95c-.07,2.89-3,3.48-4.3,5.43" transform="translate(-467.78 -677.25)"/><path class="cls-54" d="M571.51,707.45c.47-5.1,3.66-4.67,7.12-3.42,4.6,1.66,8.73-.18,12.94-1.56,5.56,1.09,11.12,2.23,16.85,1.68,1.18.79,2.5.6,3.8.57l19.06,3c0,.22,0,.43,0,.65a27.43,27.43,0,0,1-15.78,4.5c-8.52-1.36-17.11-.86-25.67-.83-5.51,0-10.5-3-16.09-2.23C572.64,709.91,571.76,708.72,571.51,707.45Z" transform="translate(-467.78 -677.25)"/><path class="cls-55" d="M590.76,701.27c-2.14.16-4.6.83-4.31-2.78.94-1.59,2,0,3-.11Z" transform="translate(-467.78 -677.25)"/><path class="cls-38" d="M632.79,708.62c-.3,2.24-.75,4.11-3.86,3.28a2.35,2.35,0,0,0-2.67,1.53c-1,1.89-2.71,2.27-4.6,2.38a8.08,8.08,0,0,1-3.72-1.22c-.92-.87-2.28-1.56-1.4-3.22,5-.82,9.61-3.1,14.75-3Z" transform="translate(-467.78 -677.25)"/><path class="cls-56" d="M553.52,782.5c2.21,1.47,5.28,2.66.61,5.17-1.32.7-3.39,2.7-2.11,4.31,1.08,1.35,3.21,1.13,5.27-.26,4.91-3.29,10.65-1.2,13.37,3.88,1.63,3.06,3.86,4.5,8.24,4.39,5.41-.13,11.47-3.27,16.59,1.32l-15,2.16c-7.95-1.93-15.81-4.38-23.86-5.63-7.46-1.15-13.81-5.84-21.65-5.73-4.88.08-9.77-1.16-14.66-1.8-1.55-.74-3.27,0-4.83-.56.3-4.84,4.38-5.14,7.37-4.87,4.94.44,9.87-.51,14.79.48,3,.6,5.11-1.93,7.57-3.16C548.05,780.8,550.89,779,553.52,782.5Z" transform="translate(-467.78 -677.25)"/><path class="cls-6" d="M602.67,778.29l-16,.33c-4.48-2.34-.37-2.85.85-4,1.14-2.32,3.06-1.2,4.69-1,1.19.18,2.38,1.41,3.31-.38.49-1.24-2.48-1.24-1-2.84,4.22.59,8.05,2.36,11.92,4C606.41,777,603.34,776.45,602.67,778.29Z" transform="translate(-467.78 -677.25)"/><path class="cls-4" d="M595.55,773.31c.76.33,1.73.6,1.62,1.6s-.85,1-1.82.85c-2.58-.48-5.2-.76-7.8-1.12l-3.18-2.33a1.34,1.34,0,0,1,.36-2C588.84,769.49,591.59,773.6,595.55,773.31Z" transform="translate(-467.78 -677.25)"/><path class="cls-31" d="M584.73,770.29l-.36,2a7.6,7.6,0,0,1-4.78,1.71c.69-2.68,3.47-2.86,4.66-4.58a1.75,1.75,0,0,1,.48.85Z" transform="translate(-467.78 -677.25)"/><path class="cls-57" d="M573.57,774.59l2.07.86c.32.7.63,1.41,1,2.11-1.58,1.79-3.24.62-4.89.13-.15-.21-.3-.41-.46-.61A2.32,2.32,0,0,1,573.57,774.59Z" transform="translate(-467.78 -677.25)"/><path class="cls-58" d="M588.49,735.45c-9.59.68-19.13,1.6-28.82.77-3-.26-6.21,1.37-9.18-.69-.55-4.46-3.86-6-7.56-7.19-2.68-4.09-1.82-6.07,2.83-6.32a95.29,95.29,0,0,1,15.84.69,13.17,13.17,0,0,0,5.86-.42c2.77-.12,5.65-.55,7.55,2.25.55,1.49.78,3,3.09,3.06a62.48,62.48,0,0,1,7.78,1C590.12,729.27,590.94,731.67,588.49,735.45Z" transform="translate(-467.78 -677.25)"/><path class="cls-57" d="M588.49,735.45c.78-3.45-.15-5.19-4.13-5.05a35.18,35.18,0,0,1-9.24-1c-3.28-.77-3-2.41-.37-4,1.22-2,3.28-2.25,5.18-1.89,4.62.86,9.08,0,13.56-.81,4.2.26,8.4.74,12.6,1.2,4.09,2.35,9,.75,13.2,2.82,2.57.09,3.82-2.73,6.29-2.9a3,3,0,0,1,2.38,1.39c.9,2.48.25,4.73-1.05,6.89-.86.88-2.06.92-3.15,1.25a5.92,5.92,0,0,1-4.32,1C609.12,734.48,598.84,736,588.49,735.45Z" transform="translate(-467.78 -677.25)"/><path class="cls-59" d="M568.41,724.36c-7.62-.14-15.25-.29-22.87-.4-1.11,0-2.7-.23-3,1s1.22,1.76,2,2.55c1.14,1.58,3.63,2.32,3,5l-.94.07c-1.46,1.42-3,2.7-5.22,1.79-3.64-4-4.06-9.63-1.09-14.6a4.28,4.28,0,0,1,1.65-.61,97.08,97.08,0,0,1,16.87-.81,14.53,14.53,0,0,1,6.27,1.32C566.51,721,568.78,721.75,568.41,724.36Z" transform="translate(-467.78 -677.25)"/><path class="cls-60" d="M546,738.34c.53,2.47-3.41,9,4.44,4.84,1-.54,1.84.22,2.18,1.31a1.46,1.46,0,0,1-.08,1.47,11.22,11.22,0,0,1-7.1,2,22.06,22.06,0,0,1-3.4-.7,7.19,7.19,0,0,0-3.69-.8c-2.38.07-3.53-1.28-3.1-3.74.86-2.37,4.48.28,5-2.76a4.06,4.06,0,0,1,.74-1.14,5.08,5.08,0,0,1,3.89-1.27A2.47,2.47,0,0,1,546,738.34Z" transform="translate(-467.78 -677.25)"/><path class="cls-45" d="M547.56,732.46c-1.78-1.19-3.19-2.6-3-5,5.27.24,6,3.87,6,8C549,735,549.66,732.41,547.56,732.46Z" transform="translate(-467.78 -677.25)"/><path class="cls-61" d="M619.44,734.34l2.82-2.62c2,.78,4.37,1.21,4.51,4.08l-.3.68C624,736.32,621.08,737.37,619.44,734.34Z" transform="translate(-467.78 -677.25)"/><path class="cls-62" d="M541.62,733.36l5-.83c-.34,1.92.43,4-.62,5.81a1.34,1.34,0,0,0-.71.1c-1.49-1.29-4.65-.68-4.44-3.9A2.07,2.07,0,0,1,541.62,733.36Z" transform="translate(-467.78 -677.25)"/><path class="cls-7" d="M631.71,736.47c-1.57,3.39-3.93,2.41-6.34,1.14.37-.37.73-.75,1.1-1.13l.65-.21c.63-1.92,1.82-2.88,3.92-2.31A1.72,1.72,0,0,1,631.71,736.47Z" transform="translate(-467.78 -677.25)"/><path class="cls-63" d="M636.54,736.53a3.55,3.55,0,0,1-.73-.08c-2.24-.09-3.62-.82-2.57-3.4,1.15-1.29,2.73-1,4.18-1.15" transform="translate(-467.78 -677.25)"/><path class="cls-63" d="M652.36,738.15a1.48,1.48,0,0,1-.35,1c-3.54,3.42-4.79,3.25-7.5-.8" transform="translate(-467.78 -677.25)"/><path class="cls-64" d="M662.63,739.48l-1.06,0c-1.78,1.69-3.86,1.64-6,1-1.33,0-2.69,0-3.52-1.36.12-.35.23-.69.35-1" transform="translate(-467.78 -677.25)"/><path class="cls-65" d="M632.75,733c.5,1.61,1.93,2.38,3.06,3.42-1.36,2.93-2.73,1.63-4.1,0l-1.3-1.94c-.6-1.49.29-2,1.5-2.36A1,1,0,0,1,632.75,733Z" transform="translate(-467.78 -677.25)"/><path class="cls-15" d="M636.54,736.53" transform="translate(-467.78 -677.25)"/><path class="cls-23" d="M515.68,789.19c-1.4-1.57-6.34,1.32-4.86-3.87,1.73-1,3.39-2.15,5.55-1.66,1,.74,2,.31,2.94-.23,2.16-.58,2.35-3.19,4.18-4.11,1.82-2.53-2.06-3-1.8-5a3.47,3.47,0,0,1,.22-1.46,3.11,3.11,0,0,1,3.2-1.58,27.59,27.59,0,0,1,4,1.57c1.12.95,2.28,1.68,3.72.52,4.17-2,7.85-.05,11.59,1.41,1.27.24,2.8.67,3.79.06,3.1-1.92,5.7-.36,8.45.69,2,.06,3.89-.45,5.85-.49,2.12,0,3.9.5,4.47,2.9a2.41,2.41,0,0,1-.4,1.52l-13.11,3c-3.4-1.07-6,.48-8.65,2.38-3,2.15-5.93,2.52-9.87,2.47C528.67,787.27,521.7,784.88,515.68,789.19Z" transform="translate(-467.78 -677.25)"/><path class="cls-51" d="M625.66,786.56c-1.8,3.88-5.07,5.48-9.11,5.89C619.25,790,621.59,786.93,625.66,786.56Z" transform="translate(-467.78 -677.25)"/><path class="cls-57" d="M566.63,779.45l-.21-1.06a2.24,2.24,0,0,1-.22-2.07,2.79,2.79,0,0,1,1.94-.94,3.47,3.47,0,0,1,3.05,1.72l.51.58C570.77,780.44,568.47,779.29,566.63,779.45Z" transform="translate(-467.78 -677.25)"/><path class="cls-66" d="M608.47,804.53c-.16,5.26-2.54,1.05-4,.93C605.42,803.38,606.87,803.65,608.47,804.53Z" transform="translate(-467.78 -677.25)"/><path class="cls-48" d="M616.54,711.37l1.93,2c.49,1.93-1,2.15-2.23,2.56-1.81.68-3.63-.29-5.45,0-.55,0-1.09,0-1.64,0-7.41-.66-14.84-.27-22.27-1.13-10.18-1.18-20.43-1.89-30.7-.35a11.29,11.29,0,0,1-8.11-1.7c-1.44-1.15-2.82-2.33-1.63-4.44a4.43,4.43,0,0,1,1.25-3.49,171.63,171.63,0,0,0,23.82,2.6,160.21,160.21,0,0,0,34.69,3C609.67,710.38,613.16,710.27,616.54,711.37Z" transform="translate(-467.78 -677.25)"/><path class="cls-24" d="M536.31,714.38c-1.13-.86-3.08-1-2.76-3.11,2.3.66,4.58.11,6.85-.19a2.23,2.23,0,0,0,2.16-1.69c.94-3.77,1-3.77,3.88-1-.09,1.61,1.36,2.09,2.2,3a3,3,0,0,1-.71,1.18c-2.19,1.2-3.39,4.07-6.44,3.8C539.61,716.09,538.27,714.4,536.31,714.38Z" transform="translate(-467.78 -677.25)"/><path class="cls-23" d="M638.44,732.73c-1.9-.18-2.12-1.44-1.94-3a2.53,2.53,0,0,1,1-1.3" transform="translate(-467.78 -677.25)"/><path class="cls-51" d="M568.41,724.36l-2.91-3.1a2.41,2.41,0,0,1,2-2.53c6.91-1.49,13.85-3.58,20.79-.08.25,2.49.88,4.49,4.13,4.14a2.34,2.34,0,0,1,2.17,1.78c-6.55,1.72-13.24,0-19.83.79A8.68,8.68,0,0,0,568.41,724.36Z" transform="translate(-467.78 -677.25)"/><path class="cls-59" d="M594.58,724.57h-10.8c.7-3.3,3.84-2.8,4.79-4.82,1.17-2.91,4.22-3.15,6.26-2.9,5.4.68,10.22-1.36,15.29-2.2l1-.18a2.25,2.25,0,0,1,2.08,2.59,11,11,0,0,0-1.59,5.26c-.85,2.55-2.47,3.79-5.23,3.06C602.38,726.57,598.51,725.22,594.58,724.57Z" transform="translate(-467.78 -677.25)"/><path class="cls-54" d="M610.12,714.65c-.12.12-.25.22-.36.35-5.84,7.06-14.23,2.73-21.19,4.75-7.83-1.53-15.48-.53-23.07,1.51l-24-1c0-1.53,1.46-1.91,2.25-2.81.76-2.31,2.57-4,3.73-6l1.11-.12c3.26,1.3,6.68.95,10,.66,11.34-1,22.61,0,33.87,1C598.38,713.56,604.4,712.55,610.12,714.65Z" transform="translate(-467.78 -677.25)"/><path class="cls-67" d="M532.59,718.55a16.39,16.39,0,0,1,7.9,2c.07,4.3-.77,8.69,1.13,12.83,0,.38-.06.77-.1,1.15a3.38,3.38,0,0,1-4.24-.21,8.47,8.47,0,0,1-1.59-5.84c.43-3.41-3-5.09-4.16-7.86l-.12-.26.24-.13A1.33,1.33,0,0,1,532.59,718.55Z" transform="translate(-467.78 -677.25)"/><path class="cls-68" d="M537.6,733.38c1.52-.36,2.68.53,3.92,1.13.43,2.11,4,1.17,3.77,3.93l-3.67.93c-1.35-2.21-3.4.71-4.86-.66-2.44-.82-1.43-2.65-1.24-4.24h0A2.62,2.62,0,0,1,537.6,733.38Z" transform="translate(-467.78 -677.25)"/><path class="cls-69" d="M542.35,746.43l-4.88,1.25c-2.35.65-3.74-.77-5.07-2.33a3.15,3.15,0,0,1-.19-2.88c.79-.86,1.8-.48,2.74-.47l.56.45c.88,1.28,1.3,3.06,3.64,2.2C540.58,744.13,542.17,744.25,542.35,746.43Z" transform="translate(-467.78 -677.25)"/><path class="cls-59" d="M534.65,741.47c.21-1,1.18-.9,1.82-1.27,1.72-.55,3.48-1.73,5,.3,1.21,1.76,1.26,3.11-1.38,2.93a31.84,31.84,0,0,1-4.63-1l0,0A1.67,1.67,0,0,1,534.65,741.47Z" transform="translate(-467.78 -677.25)"/><path class="cls-41" d="M541.52,740.5c-1.65-.63-3.49,1.88-5-.3.1-.5.19-1,.29-1.49,1.76-.81,3.79-3.63,4.86.66C541.58,739.75,541.55,740.12,541.52,740.5Z" transform="translate(-467.78 -677.25)"/><path class="cls-70" d="M638.49,733.43c-.39-.15-.53-.33-.45-.55s.2-.36.31-.36" transform="translate(-467.78 -677.25)"/><path class="cls-71" d="M638.35,732.52a1.11,1.11,0,0,1,.14.92l-5.74-.41-.12-.16c.4-2.72,2.52-2.85,4.61-3C637.37,730.83,637.31,731.9,638.35,732.52Z" transform="translate(-467.78 -677.25)"/><path class="cls-6" d="M524.48,780.59c-1.45-1.81-2.9-3.63-1.84-6.2C527.84,777.62,527.84,777.62,524.48,780.59Z" transform="translate(-467.78 -677.25)"/><path class="cls-36" d="M528.57,774.23l4.24.41c.45.7,1.8,1.57-.31,1.82S529,776,528.57,774.23Z" transform="translate(-467.78 -677.25)"/><path class="cls-63" d="M547.53,711.48c3,4.64-2,4.33-3.73,6l-2.42-.2a1.75,1.75,0,0,1,.11-2.25Z" transform="translate(-467.78 -677.25)"/><path class="cls-21" d="M541.49,715.05c0,.75-.07,1.5-.11,2.25-1.86-.67-4.39-.19-5.07-2.92C538.53,710.75,539.8,714.48,541.49,715.05Z" transform="translate(-467.78 -677.25)"/></g></svg>